<?xml version="1.0" encoding="UTF-8" standalone="no"?>
<!-- Created with Inkscape (http://www.inkscape.org/) -->
<svg
   xmlns:dc="http://purl.org/dc/elements/1.1/"
   xmlns:cc="http://web.resource.org/cc/"
   xmlns:rdf="http://www.w3.org/1999/02/22-rdf-syntax-ns#"
   xmlns:svg="http://www.w3.org/2000/svg"
   xmlns="http://www.w3.org/2000/svg"
   xmlns:xlink="http://www.w3.org/1999/xlink"
   xmlns:sodipodi="http://sodipodi.sourceforge.net/DTD/sodipodi-0.dtd"
   xmlns:inkscape="http://www.inkscape.org/namespaces/inkscape"
   inkscape:export-ydpi="90.000000"
   inkscape:export-xdpi="90.000000"
   inkscape:export-filename="/home/patrick/Desktop/images.png"
   width="48px"
   height="48px"
   id="svg11300"
   sodipodi:version="0.32"
   inkscape:version="0.45+devel"
   sodipodi:docbase="/home/patrick/Projects/Beryl/svn/beryl/trunk/beryl-settings/images"
   sodipodi:docname="category-image_loading.svg"
   inkscape:output_extension="org.inkscape.output.svg.inkscape">
  <defs
     id="defs3">
    <linearGradient
       id="linearGradient9536">
      <stop
         style="stop-color:#ffb4b4;stop-opacity:1;"
         offset="0"
         id="stop9538" />
      <stop
         style="stop-color:#cc0000;stop-opacity:1;"
         offset="1"
         id="stop9540" />
    </linearGradient>
    <linearGradient
       id="linearGradient8381">
      <stop
         style="stop-color:#feffe3;stop-opacity:1;"
         offset="0"
         id="stop8383" />
      <stop
         style="stop-color:#feff00;stop-opacity:1;"
         offset="1"
         id="stop8385" />
    </linearGradient>
    <linearGradient
       id="linearGradient7605">
      <stop
         style="stop-color:#c8ffb8;stop-opacity:1;"
         offset="0"
         id="stop7607" />
      <stop
         style="stop-color:#2dc700;stop-opacity:1;"
         offset="1"
         id="stop7609" />
    </linearGradient>
    <linearGradient
       id="linearGradient6450">
      <stop
         style="stop-color:#a6c8ff;stop-opacity:1;"
         offset="0"
         id="stop6452" />
      <stop
         style="stop-color:#004bc7;stop-opacity:1;"
         offset="1"
         id="stop6454" />
    </linearGradient>
    <linearGradient
       id="linearGradient5980">
      <stop
         style="stop-color:#eecb7e;stop-opacity:1;"
         offset="0"
         id="stop5982" />
      <stop
         style="stop-color:#c28e1a;stop-opacity:1;"
         offset="1"
         id="stop5984" />
    </linearGradient>
    <linearGradient
       id="linearGradient42491">
      <stop
         style="stop-color:#8f5802;stop-opacity:1;"
         offset="0"
         id="stop42493" />
      <stop
         id="stop42499"
         offset="0.5"
         style="stop-color:#e5a849;stop-opacity:1;" />
      <stop
         style="stop-color:#492d01;stop-opacity:1;"
         offset="1"
         id="stop42495" />
    </linearGradient>
    <linearGradient
       id="linearGradient33721">
      <stop
         style="stop-color:#b7b3b3;stop-opacity:1;"
         offset="0"
         id="stop33723" />
      <stop
         id="stop33729"
         offset="0.44487303"
         style="stop-color:#f5f5f5;stop-opacity:1;" />
      <stop
         style="stop-color:#c6c6c6;stop-opacity:1;"
         offset="0.63260305"
         id="stop33731" />
      <stop
         style="stop-color:#000000;stop-opacity:1;"
         offset="1"
         id="stop33725" />
    </linearGradient>
    <linearGradient
       inkscape:collect="always"
       id="linearGradient30743">
      <stop
         style="stop-color:#000000;stop-opacity:1;"
         offset="0"
         id="stop30745" />
      <stop
         style="stop-color:#000000;stop-opacity:0;"
         offset="1"
         id="stop30747" />
    </linearGradient>
    <linearGradient
       id="linearGradient29760">
      <stop
         style="stop-color:#e9b96c;stop-opacity:1;"
         offset="0"
         id="stop29762" />
      <stop
         style="stop-color:#c17d11;stop-opacity:1;"
         offset="1"
         id="stop29764" />
    </linearGradient>
    <linearGradient
       inkscape:collect="always"
       id="linearGradient11121">
      <stop
         style="stop-color:#006bc8;stop-opacity:1;"
         offset="0"
         id="stop11123" />
      <stop
         style="stop-color:#006bc8;stop-opacity:0;"
         offset="1"
         id="stop11125" />
    </linearGradient>
    <linearGradient
       inkscape:collect="always"
       id="linearGradient10142">
      <stop
         style="stop-color:#00b906;stop-opacity:1;"
         offset="0"
         id="stop10144" />
      <stop
         style="stop-color:#00b906;stop-opacity:0;"
         offset="1"
         id="stop10146" />
    </linearGradient>
    <linearGradient
       inkscape:collect="always"
       id="linearGradient9163">
      <stop
         style="stop-color:#e40000;stop-opacity:1;"
         offset="0"
         id="stop9165" />
      <stop
         style="stop-color:#e40000;stop-opacity:0;"
         offset="1"
         id="stop9167" />
    </linearGradient>
    <linearGradient
       inkscape:collect="always"
       id="linearGradient8184">
      <stop
         style="stop-color:#feff00;stop-opacity:1;"
         offset="0"
         id="stop8186" />
      <stop
         style="stop-color:#feff00;stop-opacity:0;"
         offset="1"
         id="stop8188" />
    </linearGradient>
    <linearGradient
       id="linearGradient47870">
      <stop
         id="stop47872"
         offset="0"
         style="stop-color:#000000;stop-opacity:0" />
      <stop
         id="stop47878"
         offset="0.5"
         style="stop-color:#000000;stop-opacity:1" />
      <stop
         id="stop47874"
         offset="1"
         style="stop-color:#000000;stop-opacity:0" />
    </linearGradient>
    <linearGradient
       id="linearGradient51765">
      <stop
         id="stop51767"
         offset="0"
         style="stop-color:#000000;stop-opacity:1" />
      <stop
         id="stop51769"
         offset="1"
         style="stop-color:#000000;stop-opacity:0" />
    </linearGradient>
    <radialGradient
       inkscape:collect="always"
       xlink:href="#linearGradient30743"
       id="radialGradient30749"
       cx="10.5"
       cy="5.9999995"
       fx="10.5"
       fy="5.9999995"
       r="9.5"
       gradientTransform="matrix(1,0,0,0.6052632,0,2.3684209)"
       gradientUnits="userSpaceOnUse" />
    <linearGradient
       inkscape:collect="always"
       xlink:href="#linearGradient47870"
       id="linearGradient2381"
       gradientUnits="userSpaceOnUse"
       gradientTransform="matrix(0.9788196,0,0,0.7154223,-8.5008021,52.112719)"
       x1="32.084972"
       y1="-14.402173"
       x2="32.084972"
       y2="-5.5633383" />
    <radialGradient
       inkscape:collect="always"
       xlink:href="#linearGradient51765"
       id="radialGradient2383"
       gradientUnits="userSpaceOnUse"
       gradientTransform="matrix(1.9576392,-8.146468e-7,6.6614241e-7,1.4565793,-59.017557,62.738067)"
       cx="51.4375"
       cy="-12.203125"
       fx="51.4375"
       fy="-12.203125"
       r="2.171875" />
    <radialGradient
       inkscape:collect="always"
       xlink:href="#linearGradient51765"
       id="radialGradient2385"
       gradientUnits="userSpaceOnUse"
       gradientTransform="matrix(-1.9576392,-9.2540675e-8,-1.2888861e-7,1.4565793,110.01781,62.73803)"
       cx="51.4375"
       cy="-12.203125"
       fx="51.4375"
       fy="-12.203125"
       r="2.171875" />
    <linearGradient
       inkscape:collect="always"
       xlink:href="#linearGradient33721"
       id="linearGradient2317"
       gradientUnits="userSpaceOnUse"
       gradientTransform="matrix(0.9478724,0.5466487,-4.1689478e-2,1.0037969,2.6533376,23.667227)"
       x1="16.021276"
       y1="-4.6088862"
       x2="19.423845"
       y2="-2.2712345" />
    <linearGradient
       inkscape:collect="always"
       xlink:href="#linearGradient9163"
       id="linearGradient6040"
       gradientUnits="userSpaceOnUse"
       gradientTransform="matrix(1.1814347,0,0,1.3953893,-2.6775891,-9.5613498)"
       x1="26.763683"
       y1="27.153692"
       x2="27.245525"
       y2="29.716953" />
    <linearGradient
       inkscape:collect="always"
       xlink:href="#linearGradient10142"
       id="linearGradient6043"
       gradientUnits="userSpaceOnUse"
       gradientTransform="matrix(1.1814347,0,0,1.3953893,-2.6775891,-9.5613498)"
       x1="22.034906"
       y1="33.155308"
       x2="23.842575"
       y2="29.098236" />
    <linearGradient
       inkscape:collect="always"
       xlink:href="#linearGradient11121"
       id="linearGradient6046"
       gradientUnits="userSpaceOnUse"
       gradientTransform="matrix(1.1814347,0,0,1.3953893,-2.6775891,-9.5613498)"
       x1="33.45713"
       y1="30.485912"
       x2="31.199669"
       y2="30.472965" />
    <linearGradient
       inkscape:collect="always"
       xlink:href="#linearGradient8184"
       id="linearGradient6049"
       gradientUnits="userSpaceOnUse"
       gradientTransform="matrix(1.1814347,0,0,1.3953893,-2.6775891,-9.5613498)"
       x1="29.680498"
       y1="29.562275"
       x2="28.261992"
       y2="32.700058" />
    <radialGradient
       inkscape:collect="always"
       xlink:href="#linearGradient6450"
       id="radialGradient6456"
       cx="10.237312"
       cy="15.91914"
       fx="10.237312"
       fy="15.91914"
       r="4.2743842"
       gradientTransform="matrix(0.3735155,1.0693127,-1.5850389,0.5536608,31.645974,-3.6109253)"
       gradientUnits="userSpaceOnUse" />
    <radialGradient
       inkscape:collect="always"
       xlink:href="#linearGradient7605"
       id="radialGradient7611"
       cx="19.598003"
       cy="10.176894"
       fx="19.598003"
       fy="10.176894"
       r="4.9881761"
       gradientTransform="matrix(9.5230024e-2,0.9541158,-1.5691141,0.1566128,33.700394,-9.2726556)"
       gradientUnits="userSpaceOnUse" />
    <radialGradient
       inkscape:collect="always"
       xlink:href="#linearGradient8381"
       id="radialGradient8387"
       cx="31.025066"
       cy="10.256534"
       fx="31.025066"
       fy="10.256534"
       r="3.8613743"
       gradientTransform="matrix(0.2321833,1.1523302,-1.8890333,0.380622,43.196497,-28.764912)"
       gradientUnits="userSpaceOnUse" />
    <radialGradient
       inkscape:collect="always"
       xlink:href="#linearGradient9536"
       id="radialGradient9542"
       cx="4.8218231"
       cy="25.272806"
       fx="4.8218231"
       fy="25.272806"
       r="4.7189359"
       gradientTransform="matrix(0.2715739,1.4382914,-2.0268789,0.3827093,54.73726,8.9658935)"
       gradientUnits="userSpaceOnUse" />
    <radialGradient
       inkscape:collect="always"
       xlink:href="#linearGradient29760"
       id="radialGradient3235"
       cx="11.216701"
       cy="15.236007"
       fx="11.216701"
       fy="15.236007"
       r="23.566086"
       gradientTransform="matrix(-5.4441796e-2,0.9163478,-1.3259412,-7.8776433e-2,32.029406,7.8849308)"
       gradientUnits="userSpaceOnUse" />
    <radialGradient
       inkscape:collect="always"
       xlink:href="#linearGradient5980"
       id="radialGradient4796"
       gradientUnits="userSpaceOnUse"
       gradientTransform="matrix(0.8062551,-0.1968494,0.178496,0.7310832,-4.8646246,11.410778)"
       cx="8.6349573"
       cy="37.263664"
       fx="8.6349573"
       fy="37.263664"
       r="5.8754181" />
    <linearGradient
       inkscape:collect="always"
       xlink:href="#linearGradient42491"
       id="linearGradient5183"
       gradientUnits="userSpaceOnUse"
       gradientTransform="matrix(1.0407413,0.3217306,-0.186288,1.072445,4.0278317,30.451369)"
       x1="20.660782"
       y1="-18.668919"
       x2="24.813282"
       y2="-15.543919" />
  </defs>
  <sodipodi:namedview
     stroke="#ef2929"
     fill="#eeeeec"
     id="base"
     pagecolor="#ffffff"
     bordercolor="#666666"
     borderopacity="0.25490196"
     inkscape:pageopacity="0.0"
     inkscape:pageshadow="2"
     inkscape:zoom="0.99999995"
     inkscape:cx="18.318182"
     inkscape:cy="15.374195"
     inkscape:current-layer="layer1"
     showgrid="false"
     inkscape:grid-bbox="true"
     inkscape:document-units="px"
     inkscape:showpageshadow="false"
     inkscape:window-width="906"
     inkscape:window-height="662"
     inkscape:window-x="287"
     inkscape:window-y="82"
     showguides="true"
     inkscape:guide-bbox="true" />
  <metadata
     id="metadata4">
    <rdf:RDF>
      <cc:Work
         rdf:about="">
        <dc:format>image/svg+xml</dc:format>
        <dc:type
           rdf:resource="http://purl.org/dc/dcmitype/StillImage" />
        <dc:creator>
          <cc:Agent>
            <dc:title>Patrick Niklaus</dc:title>
          </cc:Agent>
        </dc:creator>
        <dc:source />
        <cc:license
           rdf:resource="http://creativecommons.org/licenses/GPL/2.0/" />
        <dc:title>Image</dc:title>
        <dc:subject>
          <rdf:Bag />
        </dc:subject>
      </cc:Work>
      <cc:License
         rdf:about="http://creativecommons.org/licenses/GPL/2.0/">
        <cc:permits
           rdf:resource="http://web.resource.org/cc/Reproduction" />
        <cc:permits
           rdf:resource="http://web.resource.org/cc/Distribution" />
        <cc:requires
           rdf:resource="http://web.resource.org/cc/Notice" />
        <cc:permits
           rdf:resource="http://web.resource.org/cc/DerivativeWorks" />
        <cc:requires
           rdf:resource="http://web.resource.org/cc/ShareAlike" />
        <cc:requires
           rdf:resource="http://web.resource.org/cc/SourceCode" />
      </cc:License>
    </rdf:RDF>
  </metadata>
  <g
     id="layer1"
     inkscape:label="Layer 1"
     inkscape:groupmode="layer">
    <path
       sodipodi:type="arc"
       style="opacity:0.30400002;fill:url(#radialGradient30749);fill-opacity:1;fill-rule:evenodd;stroke:none;stroke-width:0.5;stroke-linecap:round;stroke-linejoin:round;stroke-miterlimit:4;stroke-dasharray:none;stroke-dashoffset:0;stroke-opacity:1"
       id="path29772"
       sodipodi:cx="10.5"
       sodipodi:cy="5.9999995"
       sodipodi:rx="9.5"
       sodipodi:ry="5.75"
       d="M 20,5.9999995 A 9.5,5.75 0 1 1 1,5.9999995 A 9.5,5.75 0 1 1 20,5.9999995 z"
       transform="matrix(2.2236842,0,0,1.3043478,0.2360252,32.234573)" />
    <path
       style="fill:url(#radialGradient3235);fill-opacity:1;fill-rule:evenodd;stroke:#553c17;stroke-width:1;stroke-linecap:butt;stroke-linejoin:miter;stroke-opacity:1;stroke-miterlimit:4;stroke-dasharray:none"
       d="M 27.338237,5.7443267 C 24.229948,5.7168082 19.965295,6.4388859 14.120936,8.9711645 C 7.2632601,11.942498 4.4059434,16.668301 1.8266308,23.099481 C -0.14753076,27.703528 1.0973005,33.995391 4.9648167,36.748133 C 9.4976193,40.619765 15.341692,42.432953 20.766506,42.896567 C 27.48518,43.199391 34.129974,41.579312 40.407858,38.579581 C 43.086049,37.111132 45.414401,34.772765 46.351951,31.86427 C 47.282122,28.978668 47.16181,26.968674 46.57347,25.236171 C 45.834466,23.060006 43.179884,21.402001 40.112499,21.61688 C 35.358279,21.901431 29.171354,22.332525 29.922625,19.69822 C 30.284577,18.429045 32.30732,19.180988 34.057647,18.651678 C 35.909694,18.091608 39.446938,16.50968 39.706381,14.378298 C 40.212302,10.222037 36.33268,7.5934994 33.688448,6.8780805 C 32.394841,6.5280848 30.446525,5.7718452 27.338237,5.7443267 z M 23.461654,19.218555 C 25.046453,19.187744 26.374866,19.81264 26.747519,20.831974 C 27.244389,22.191084 25.836702,23.785096 23.609333,24.407659 C 21.381965,25.030221 19.195866,24.414986 18.698995,23.055875 C 18.202125,21.696765 19.609813,20.102753 21.837181,19.48019 C 22.394023,19.32455 22.933387,19.228825 23.461654,19.218555 z"
       id="path2261" />
    <path
       style="fill:url(#radialGradient6456);fill-opacity:1;fill-rule:evenodd;stroke:#1c4b8f;stroke-width:0.5;stroke-linecap:butt;stroke-linejoin:miter;stroke-miterlimit:4;stroke-dasharray:none;stroke-opacity:1"
       d="M 10.318193,15.555658 C 9.1792601,15.270165 7.5939214,17.483931 8.5847141,18.446849 C 9.4124603,19.871265 11.519862,20.776098 12.524251,19.166911 C 12.954478,17.829083 13.752963,18.528081 14.405226,19.015001 C 15.17294,18.562783 15.476016,17.310248 16.179443,16.747697 C 16.102384,15.052732 13.98864,13.461802 12.652513,14.101821 C 11.913497,14.641957 11.329309,15.8712 10.318193,15.555658 z"
       id="path7161" />
    <path
       sodipodi:type="inkscape:offset"
       inkscape:radius="0.15914327"
       inkscape:original="M 25.40625 11.84375 C 22.894954 11.824926 19.400064 12.307624 14.53125 14.09375 C 8.9327162 16.147574 6.7412422 19.24776 4.59375 23.78125 C 4.5939377 23.791666 4.5939377 23.802084 4.59375 23.8125 C 3.1330277 26.696791 4.0625638 30.723822 6.90625 32.4375 C 6.9281321 32.457258 6.9489925 32.478118 6.96875 32.5 C 10.622821 35.142522 15.43215 36.395013 19.90625 36.71875 C 25.430721 36.92957 30.895961 35.812698 36.09375 33.71875 C 36.115362 33.708717 36.134709 33.697653 36.15625 33.6875 C 38.249859 32.700709 40.015723 31.139466 40.6875 29.375 C 41.418329 27.45543 41.301924 26.314416 40.875 25.25 C 40.459939 24.215164 38.584859 23.082119 36.28125 23.21875 C 36.270834 23.218938 36.260416 23.218938 36.25 23.21875 C 34.241064 23.320553 31.927763 23.453547 30.09375 23.3125 C 29.176743 23.241976 28.387545 23.117275 27.71875 22.78125 C 27.384352 22.613238 27.048674 22.359143 26.84375 21.96875 C 26.638826 21.578357 26.645435 21.090711 26.78125 20.6875 C 26.944108 20.204002 27.362083 19.861284 27.75 19.71875 C 28.137917 19.576216 28.517275 19.54574 28.875 19.53125 C 29.590449 19.50227 30.307589 19.520279 30.875 19.375 C 31.59727 19.190071 32.684521 18.81758 33.5625 18.34375 C 34.440479 17.86992 34.99615 17.275393 35.03125 17.03125 C 35.197265 15.876517 34.654911 14.971558 33.75 14.1875 C 32.845089 13.403442 31.577481 12.850347 30.59375 12.625 C 29.418514 12.355785 27.920828 11.862599 25.40625 11.84375 z M 22.125 19.75 C 22.896162 19.737307 23.592997 19.867999 24.21875 20.125 C 24.844503 20.382001 25.40669 20.787163 25.6875 21.4375 C 26.064846 22.311409 25.666566 23.263281 25.03125 23.875 C 24.395934 24.486719 23.501719 24.935653 22.4375 25.1875 C 21.370678 25.439963 20.344986 25.462972 19.4375 25.25 C 18.530014 25.037028 17.687391 24.586973 17.3125 23.71875 C 16.935154 22.844841 17.333434 21.892969 17.96875 21.28125 C 18.604066 20.669531 19.498281 20.220597 20.5625 19.96875 C 21.078404 19.846662 21.598909 19.75866 22.125 19.75 z "
       style="fill:none;fill-rule:evenodd;stroke:#f3bc7b;stroke-width:0.77883857000000001;stroke-linecap:butt;stroke-linejoin:miter;stroke-miterlimit:4;stroke-dasharray:none;stroke-opacity:1"
       id="path7613"
       d="M 25.40625,11.6875 C 22.873456,11.668515 19.351978,12.146086 14.46875,13.9375 C 8.8342091,16.004533 6.5909076,19.172772 4.4375,23.71875 C 4.4364749,23.729141 4.4364749,23.739609 4.4375,23.75 C 4.4364749,23.760391 4.4364749,23.770859 4.4375,23.78125 C 2.956359,26.741057 3.8961872,30.805055 6.8125,32.5625 C 6.8303687,32.578634 6.8276184,32.575884 6.84375,32.59375 C 6.8526627,32.605569 6.8631808,32.616087 6.875,32.625 C 10.563451,35.292385 15.410869,36.549723 19.90625,36.875 C 25.45612,37.086789 30.94079,35.976067 36.15625,33.875 C 36.185491,33.861426 36.2043,33.850561 36.21875,33.84375 C 38.339699,32.844073 40.150083,31.259461 40.84375,29.4375 C 41.58404,27.49308 41.469081,26.27911 41.03125,25.1875 C 40.800367,24.611858 40.177263,24.063971 39.34375,23.65625 C 38.510237,23.248529 37.461557,22.992494 36.28125,23.0625 C 36.272748,23.062653 36.258502,23.062653 36.25,23.0625 C 34.240234,23.164345 31.909936,23.295926 30.09375,23.15625 C 29.184083,23.086291 28.419281,22.945568 27.78125,22.625 C 27.466192,22.466705 27.184891,22.258479 27,21.90625 C 26.821078,21.565393 26.813577,21.117906 26.9375,20.75 C 27.081326,20.323005 27.467363,20.001815 27.8125,19.875 C 28.175783,19.741517 28.521745,19.701809 28.875,19.6875 C 29.583488,19.658802 30.304564,19.685305 30.90625,19.53125 C 31.641088,19.343103 32.729374,18.952104 33.625,18.46875 C 34.076122,18.225287 34.454292,17.967873 34.71875,17.71875 C 34.850979,17.594189 34.952593,17.483369 35.03125,17.375 C 35.109907,17.266631 35.171603,17.173074 35.1875,17.0625 C 35.362129,15.84785 34.77068,14.865636 33.84375,14.0625 C 32.911244,13.254532 31.634973,12.700108 30.625,12.46875 C 29.462314,12.20241 27.941161,11.706501 25.40625,11.6875 z M 22.125,19.90625 C 22.876612,19.893879 23.551365,20.03282 24.15625,20.28125 C 24.758616,20.528646 25.271548,20.898547 25.53125,21.5 C 25.875768,22.297883 25.506085,23.172444 24.90625,23.75 C 24.296657,24.336951 23.448667,24.784562 22.40625,25.03125 C 21.359564,25.278948 20.347786,25.300045 19.46875,25.09375 C 18.588482,24.887166 17.817172,24.463172 17.46875,23.65625 C 17.124232,22.858367 17.493915,21.983806 18.09375,21.40625 C 18.703343,20.819299 19.551333,20.371688 20.59375,20.125 C 21.102988,20.004489 21.614922,19.914646 22.125,19.90625 z"
       transform="matrix(1.1814347,0,0,1.3953893,-2.6775891,-9.5613498)" />
    <path
       style="fill:url(#radialGradient9542);fill-opacity:1;fill-rule:evenodd;stroke:#bf2424;stroke-width:0.5;stroke-linecap:butt;stroke-linejoin:miter;stroke-miterlimit:4;stroke-dasharray:none;stroke-opacity:1"
       d="M 4.4110192,26.718772 C 3.9420755,26.672444 3.7651513,27.38372 3.9887592,27.785902 C 4.1976278,28.185805 4.6368513,28.262088 4.9312698,28.550735 C 5.3850704,28.825263 5.27634,29.44402 5.4291274,29.908073 C 5.6827634,30.719599 6.4150083,31.43503 7.1784224,31.183977 C 7.8331547,30.993483 8.3827834,30.279196 9.0958913,30.422752 C 9.3673449,30.705849 9.7168345,30.835434 9.9315827,30.39069 C 10.285809,29.956776 10.560158,29.249272 11.144942,29.244621 C 11.603543,29.363199 12.212137,29.634678 12.499599,29.001722 C 12.881033,28.337802 12.63402,27.455148 12.209903,26.908199 C 11.783811,26.318644 11.12864,25.942605 10.466419,25.993646 C 9.7836576,25.810039 9.5126448,24.958737 9.2382964,24.294127 C 8.9300889,23.64849 8.1818772,23.612588 7.66206,23.882783 C 6.4699755,24.356915 6.0763838,26.040224 4.9367093,26.602097 C 4.7697817,26.679372 4.590673,26.722667 4.4110192,26.718772 z"
       id="path7159" />
    <path
       style="fill:url(#radialGradient8387);fill-opacity:1;fill-rule:evenodd;stroke:#c0bd2e;stroke-width:0.5;stroke-linecap:butt;stroke-linejoin:miter;stroke-miterlimit:4;stroke-dasharray:none;stroke-opacity:1"
       d="M 31.584018,9.9741005 C 30.509479,9.905806 29.840485,11.488318 29.088518,11.944326 C 28.908217,13.859731 31.200545,11.941022 31.536907,13.564719 C 32.232416,15.120344 33.803476,14.168711 34.906666,13.895973 C 36.539562,13.613234 36.523406,11.477132 35.163485,10.701497 C 34.122836,9.4724329 32.837616,10.062787 31.584018,9.9741005 z"
       id="path7165" />
    <path
       style="fill:url(#radialGradient7611);fill-opacity:1;fill-rule:evenodd;stroke:#00af00;stroke-width:0.50000000000000000;stroke-linecap:butt;stroke-linejoin:miter;stroke-miterlimit:4;stroke-dasharray:none;stroke-opacity:1"
       d="M 18.071358,11.36949 C 16.234315,12.137646 17.947757,15.392955 19.454125,14.218427 C 20.406874,14.346431 22.699275,13.495114 22.786394,14.818887 C 21.66723,15.991715 24.468475,16.041329 25.003622,15.423121 C 26.333553,14.790936 27.248568,13.007586 26.055734,11.692454 C 25.54096,9.3857332 23.331605,9.6201349 21.78935,9.8920251 C 20.804279,9.6565881 19.617618,9.9444527 19.454037,11.227541 C 19.030324,11.509315 18.530412,11.369299 18.071358,11.36949 z"
       id="path7167" />
    <path
       id="path15005"
       d="M 23.313975,31.515423 C 22.677547,32.299523 21.572606,32.089377 20.969818,32.930793 C 21.330657,34.171989 22.60641,33.394062 23.334353,33.780494 C 24.013894,34.586186 22.520876,35.134382 23.005325,35.970703 C 23.491052,36.984136 24.506704,36.58228 25.288466,36.540569 C 26.309808,36.533753 27.440096,36.72636 28.309231,35.931603 C 28.872221,35.515535 29.646345,34.715751 30.236219,35.510925 C 30.717617,36.035726 31.19792,36.883699 31.95509,36.669124 C 32.870187,36.603212 33.913822,35.89769 33.849155,34.689592 C 34.185683,33.850382 35.005911,34.311565 35.144434,34.993521 C 35.897871,35.573795 37.067943,35.251433 37.457963,34.270099 C 38.331912,33.909277 38.690189,32.43707 37.813353,31.869408 C 37.424787,30.897395 36.455517,30.31562 35.609413,30.852776 C 34.586448,31.097445 33.537475,30.875994 32.505419,30.981625 C 31.571011,30.975212 31.934473,29.513526 31.126568,29.387285 C 30.297742,29.127966 29.941917,27.892363 28.989617,28.045667 C 28.01504,28.007023 27.919611,29.687874 26.874098,29.50608 C 26.150262,29.557718 25.294415,29.228677 24.751432,29.992895 C 24.420851,30.718812 23.41367,30.701976 23.313975,31.515423 z"
       style="fill:url(#linearGradient6049);fill-opacity:1;fill-rule:evenodd;stroke:none;stroke-width:1px;stroke-linecap:butt;stroke-linejoin:miter;stroke-opacity:1" />
    <path
       id="path10150"
       d="M 23.313975,31.515423 C 22.677547,32.299523 21.572606,32.089377 20.969818,32.930793 C 21.330657,34.171989 22.60641,33.394062 23.334353,33.780494 C 24.013894,34.586186 22.520876,35.134382 23.005325,35.970703 C 23.491052,36.984136 24.506704,36.58228 25.288466,36.540569 C 26.309808,36.533753 27.440096,36.72636 28.309231,35.931603 C 28.872221,35.515535 29.646345,34.715751 30.236219,35.510925 C 30.717617,36.035726 31.19792,36.883699 31.95509,36.669124 C 32.870187,36.603212 33.913822,35.89769 33.849155,34.689592 C 34.185683,33.850382 35.005911,34.311565 35.144434,34.993521 C 35.897871,35.573795 37.067943,35.251433 37.457963,34.270099 C 38.331912,33.909277 38.690189,32.43707 37.813353,31.869408 C 37.424787,30.897395 36.455517,30.31562 35.609413,30.852776 C 34.586448,31.097445 33.537475,30.875994 32.505419,30.981625 C 31.571011,30.975212 31.934473,29.513526 31.126568,29.387285 C 30.297742,29.127966 29.941917,27.892363 28.989617,28.045667 C 28.01504,28.007023 27.919611,29.687874 26.874098,29.50608 C 26.150262,29.557718 25.294415,29.228677 24.751432,29.992895 C 24.420851,30.718812 23.41367,30.701976 23.313975,31.515423 z"
       style="fill:url(#linearGradient6046);fill-opacity:1;fill-rule:evenodd;stroke:none;stroke-width:1px;stroke-linecap:butt;stroke-linejoin:miter;stroke-opacity:1" />
    <path
       style="fill:url(#linearGradient6043);fill-opacity:1;fill-rule:evenodd;stroke:none;stroke-width:1px;stroke-linecap:butt;stroke-linejoin:miter;stroke-opacity:1"
       d="M 23.313975,31.515423 C 22.677547,32.299523 21.572606,32.089377 20.969818,32.930793 C 21.330657,34.171989 22.60641,33.394062 23.334353,33.780494 C 24.013894,34.586186 22.520876,35.134382 23.005325,35.970703 C 23.491052,36.984136 24.506704,36.58228 25.288466,36.540569 C 26.309808,36.533753 27.440096,36.72636 28.309231,35.931603 C 28.872221,35.515535 29.646345,34.715751 30.236219,35.510925 C 30.717617,36.035726 31.19792,36.883699 31.95509,36.669124 C 32.870187,36.603212 33.913822,35.89769 33.849155,34.689592 C 34.185683,33.850382 35.005911,34.311565 35.144434,34.993521 C 35.897871,35.573795 37.067943,35.251433 37.457963,34.270099 C 38.331912,33.909277 38.690189,32.43707 37.813353,31.869408 C 37.424787,30.897395 36.455517,30.31562 35.609413,30.852776 C 34.586448,31.097445 33.537475,30.875994 32.505419,30.981625 C 31.571011,30.975212 31.934473,29.513526 31.126568,29.387285 C 30.297742,29.127966 29.941917,27.892363 28.989617,28.045667 C 28.01504,28.007023 27.919611,29.687874 26.874098,29.50608 C 26.150262,29.557718 25.294415,29.228677 24.751432,29.992895 C 24.420851,30.718812 23.41367,30.701976 23.313975,31.515423 z"
       id="path9171" />
    <path
       id="path8192"
       d="M 23.313975,31.515423 C 22.677547,32.299523 21.572606,32.089377 20.969818,32.930793 C 21.330657,34.171989 22.60641,33.394062 23.334353,33.780494 C 24.013894,34.586186 22.520876,35.134382 23.005325,35.970703 C 23.491052,36.984136 24.506704,36.58228 25.288466,36.540569 C 26.309808,36.533753 27.440096,36.72636 28.309231,35.931603 C 28.872221,35.515535 29.646345,34.715751 30.236219,35.510925 C 30.717617,36.035726 31.19792,36.883699 31.95509,36.669124 C 32.870187,36.603212 33.913822,35.89769 33.849155,34.689592 C 34.185683,33.850382 35.005911,34.311565 35.144434,34.993521 C 35.897871,35.573795 37.067943,35.251433 37.457963,34.270099 C 38.331912,33.909277 38.690189,32.43707 37.813353,31.869408 C 37.424787,30.897395 36.455517,30.31562 35.609413,30.852776 C 34.586448,31.097445 33.537475,30.875994 32.505419,30.981625 C 31.571011,30.975212 31.934473,29.513526 31.126568,29.387285 C 30.297742,29.127966 29.941917,27.892363 28.989617,28.045667 C 28.01504,28.007023 27.919611,29.687874 26.874098,29.50608 C 26.150262,29.557718 25.294415,29.228677 24.751432,29.992895 C 24.420851,30.718812 23.41367,30.701976 23.313975,31.515423 z"
       style="fill:url(#linearGradient6040);fill-opacity:1;fill-rule:evenodd;stroke:none;stroke-width:1px;stroke-linecap:butt;stroke-linejoin:miter;stroke-opacity:1" />
    <path
       style="fill:none;fill-opacity:1;fill-rule:evenodd;stroke:#875826;stroke-width:0.5;stroke-linecap:butt;stroke-linejoin:miter;stroke-miterlimit:4;stroke-dasharray:none;stroke-opacity:1"
       d="M 23.313975,31.515423 C 22.677547,32.299523 21.572606,32.089377 20.969818,32.930793 C 21.330657,34.171989 22.60641,33.394062 23.334353,33.780494 C 24.013894,34.586186 22.520876,35.134382 23.005325,35.970703 C 23.491052,36.984136 24.506704,36.58228 25.288466,36.540569 C 26.309808,36.533753 27.440096,36.72636 28.309231,35.931603 C 28.872221,35.515535 29.646345,34.715751 30.236219,35.510925 C 30.717617,36.035726 31.19792,36.883699 31.95509,36.669124 C 32.870187,36.603212 33.913822,35.89769 33.849155,34.689592 C 34.185683,33.850382 35.005911,34.311565 35.144434,34.993521 C 35.897871,35.573795 37.067943,35.251433 37.457963,34.270099 C 38.331912,33.909277 38.690189,32.43707 37.813353,31.869408 C 37.424787,30.897395 36.455517,30.31562 35.609413,30.852776 C 34.586448,31.097445 33.537475,30.875994 32.505419,30.981625 C 31.571011,30.975212 31.934473,29.513526 31.126568,29.387285 C 30.297742,29.127966 29.941917,27.892363 28.989617,28.045667 C 28.01504,28.007023 27.919611,29.687874 26.874098,29.50608 C 26.150262,29.557718 25.294415,29.228677 24.751432,29.992895 C 24.420851,30.718812 23.41367,30.701976 23.313975,31.515423 z"
       id="path7169" />
    <g
       transform="matrix(1.119646,-1.013613,0.6967653,0.9405823,-35.12886,9.5400893)"
       id="g54724">
      <rect
         width="32.357079"
         height="6.3234997"
         x="9.3215466"
         y="41.809082"
         style="opacity:0.3;fill:url(#linearGradient2381);fill-opacity:1;fill-rule:evenodd;stroke:none;stroke-width:1.02400005;stroke-linecap:butt;stroke-linejoin:miter;stroke-miterlimit:4;stroke-dasharray:none;stroke-dashoffset:0;stroke-opacity:1"
         id="rect46899" />
      <path
         d="M 41.6785,41.799698 L 41.6785,48.126714 C 44.022298,48.102828 45.930248,46.705313 45.930248,44.974385 C 45.930248,43.243458 44.022299,41.823584 41.6785,41.799698 z"
         style="opacity:0.3;fill:url(#radialGradient2383);fill-opacity:1;fill-rule:evenodd;stroke:none;stroke-width:1.02400005;stroke-linecap:butt;stroke-linejoin:miter;stroke-miterlimit:4;stroke-dasharray:none;stroke-dashoffset:0;stroke-opacity:1"
         id="path48849" />
      <path
         d="M 9.3217476,41.799698 L 9.3217476,48.126714 C 6.9779494,48.102828 5.07,46.705313 5.07,44.974385 C 5.07,43.243458 6.9779484,41.823584 9.3217476,41.799698 z"
         style="opacity:0.3;fill:url(#radialGradient2385);fill-opacity:1;fill-rule:evenodd;stroke:none;stroke-width:1.02400005;stroke-linecap:butt;stroke-linejoin:miter;stroke-miterlimit:4;stroke-dasharray:none;stroke-dashoffset:0;stroke-opacity:1"
         id="path52742" />
    </g>
    <path
       style="fill:url(#linearGradient5183);fill-opacity:1;fill-rule:evenodd;stroke:#765626;stroke-width:1.08446872000000005px;stroke-linecap:butt;stroke-linejoin:miter;stroke-opacity:1"
       d="M 16.251849,31.025631 C 19.157958,27.129688 21.681073,23.764577 29.268647,17.470393 C 36.856216,11.176212 45.564127,5.1284829 46.602137,5.8488949 C 47.640146,6.5693096 40.660168,13.55073 33.420685,20.352048 C 26.1812,27.153367 21.936417,30.385771 17.644206,33.054167 C 13.351999,35.722563 13.345738,34.921573 16.251849,31.025631 z"
       id="path37633"
       sodipodi:nodetypes="czzzzz" />
    <path
       sodipodi:type="inkscape:offset"
       inkscape:radius="-0.73954761"
       inkscape:original="M 46.59375 5.84375 C 45.55574 5.123338 36.86882 11.17457 29.28125 17.46875 C 21.693676 23.762934 19.15611 27.135307 16.25 31.03125 C 13.343889 34.927192 13.364044 35.730894 17.65625 33.0625 C 21.948461 30.394104 26.166765 27.145068 33.40625 20.34375 C 40.645733 13.542432 47.631757 6.5641645 46.59375 5.84375 z "
       style="fill:none;fill-opacity:1;fill-rule:evenodd;stroke:#e6b468;stroke-width:0.50000000000000000;stroke-linecap:butt;stroke-linejoin:miter;stroke-miterlimit:4;stroke-dasharray:none;stroke-opacity:1"
       id="path3286"
       d="M 45.46875,6.875 C 45.267244,6.964495 45.125397,6.9940273 44.875,7.125 C 43.841433,7.665617 42.423727,8.529575 40.8125,9.625 C 37.590047,11.81585 33.526678,14.898351 29.75,18.03125 C 22.199972,24.294288 19.74879,27.574241 16.84375,31.46875 C 16.223938,32.299672 15.820884,32.922005 15.5,33.4375 C 15.980217,33.195981 16.476161,32.938011 17.28125,32.4375 C 21.529375,29.796511 25.685588,26.596134 32.90625,19.8125 C 36.52052,16.416981 40.062234,12.974473 42.5625,10.3125 C 43.812633,8.9815135 44.790411,7.8410951 45.375,7.03125 C 45.424928,6.962083 45.424985,6.9393986 45.46875,6.875 z" />
    <path
       style="fill:url(#radialGradient4796);fill-opacity:1;fill-rule:evenodd;stroke:#765225;stroke-width:1;stroke-linecap:butt;stroke-linejoin:miter;stroke-miterlimit:4;stroke-dasharray:none;stroke-opacity:1"
       d="M 6.8783119,36.040114 C 8.5775644,34.377841 11.057171,34.621713 12.418809,35.634433 C 13.780445,36.647151 13.747855,38.226796 13.154321,39.945643 C 12.578916,41.611988 11.003821,42.849223 8.3586038,43.550141 C 6.7283988,44.045657 3.8923437,44.534843 1.5667601,46.400802 C -0.79155448,48.293022 5.1462056,37.734527 6.8783119,36.040114 z"
       id="path30779"
       sodipodi:nodetypes="czzczz" />
    <path
       style="opacity:0.71753247;fill:#ff001e;fill-opacity:1;fill-rule:evenodd;stroke:none;stroke-width:0.5;stroke-linecap:butt;stroke-linejoin:miter;stroke-miterlimit:4;stroke-dasharray:none;stroke-opacity:1"
       d="M 5.7068176,38.576645 C 5.6118321,38.721794 5.5326512,38.8385 5.4351188,38.991685 C 4.683993,40.171409 3.8542559,41.564001 3.1613757,42.853145 C 2.5809332,43.933093 2.1938347,44.763904 1.9214757,45.445858 C 4.2570859,43.865608 6.8569476,43.404598 8.2639391,42.97693 C 8.270505,42.951658 8.2783863,42.926656 8.2875392,42.902063 C 8.4019871,42.871738 8.4853323,42.85244 8.5949348,42.820647 C 6.7552684,42.240962 5.598838,40.489465 5.7068176,38.576645 z"
       id="path32739" />
    <path
       sodipodi:type="inkscape:offset"
       inkscape:radius="0.019674242"
       inkscape:original="M 9.53125 36.28125 C 8.8141937 36.295717 8.0998859 36.538168 7.5 37.125 C 7.2382874 37.381017 6.6141167 38.236027 5.96875 39.25 C 5.3233833 40.263973 4.5955981 41.454076 4 42.5625 C 3.6159695 43.277191 3.4302159 43.769009 3.1875 44.3125 C 5.057921 43.20841 7.0327299 42.800755 8.125 42.46875 C 8.1354152 42.468502 8.1458348 42.468502 8.15625 42.46875 C 10.303369 41.899816 11.373291 40.962677 11.78125 39.78125 C 12.01742 39.097313 12.118789 38.479395 12.0625 38 C 12.006211 37.520605 11.826928 37.179872 11.375 36.84375 C 10.917824 36.503725 10.246075 36.266828 9.53125 36.28125 z "
       style="fill:none;fill-opacity:1;fill-rule:evenodd;stroke:#e4b276;stroke-width:0.42922807;stroke-linecap:butt;stroke-linejoin:miter;stroke-miterlimit:4;stroke-dasharray:none;stroke-opacity:1"
       id="path5179"
       d="M 9.53125,36.25 C 8.810025,36.264551 8.1035303,36.534603 7.5,37.125 C 7.3669064,37.255197 7.1447063,37.533363 6.875,37.90625 C 6.6052937,38.279137 6.260381,38.742703 5.9375,39.25 C 5.2919866,40.264204 4.5647319,41.453362 3.96875,42.5625 C 3.5841902,43.278176 3.3986879,43.769632 3.15625,44.3125 C 3.1599731,44.317364 3.1657493,44.320217 3.171875,44.320217 C 3.1780007,44.320217 3.1837769,44.317364 3.1875,44.3125 C 3.1826356,44.316223 3.1797826,44.321999 3.1797826,44.328125 C 3.1797826,44.334251 3.1826356,44.340027 3.1875,44.34375 C 5.0545262,43.241664 7.0307042,42.832621 8.125,42.5 C 8.135103,42.499759 8.146147,42.499759 8.15625,42.5 C 10.306975,41.93011 11.402125,40.969674 11.8125,39.78125 C 12.049296,39.095499 12.150586,38.484057 12.09375,38 C 12.037023,37.516872 11.830038,37.150935 11.375,36.8125 C 10.91393,36.469579 10.250668,36.235485 9.53125,36.25 z"
       transform="matrix(1.1648819,0,0,1.1648819,-1.3099372,-6.6666065)" />
    <g
       id="g5995">
      <path
         inkscape:transform-center-y="-1.5383773"
         sodipodi:nodetypes="ccccc"
         id="rect30783"
         d="M 17.806263,27.711354 C 18.337847,29.72588 19.487359,30.996006 20.920048,31.924992 L 12.264939,38.362567 C 11.285994,37.883651 10.663753,36.989869 10.336513,35.752984 L 17.806263,27.711354 z"
         style="fill:url(#linearGradient2317);fill-opacity:1;fill-rule:evenodd;stroke:#8d8d8d;stroke-width:1;stroke-linecap:round;stroke-linejoin:round;stroke-miterlimit:4;stroke-dasharray:none;stroke-dashoffset:0;stroke-opacity:1" />
      <path
         d="M 17.65625,28.96875 L 11.1875,35.90625 C 11.432839,36.629369 11.79561,37.130372 12.28125,37.46875 L 19.78125,31.875 C 18.87739,31.139525 18.181066,30.17302 17.65625,28.96875 z"
         id="path4433"
         style="fill:none;fill-opacity:1;fill-rule:evenodd;stroke:#e6e6e6;stroke-width:0.5;stroke-linecap:round;stroke-linejoin:round;stroke-miterlimit:4;stroke-dasharray:none;stroke-dashoffset:0;stroke-opacity:1"
         inkscape:original="M 17.8125 27.71875 L 10.34375 35.75 C 10.67099 36.986885 11.271055 37.896083 12.25 38.375 L 20.90625 31.9375 C 19.473561 31.008514 18.344084 29.733277 17.8125 27.71875 z "
         inkscape:radius="-0.7180391"
         sodipodi:type="inkscape:offset" />
    </g>
  </g>
</svg>
