<?xml version="1.0" encoding="UTF-8" standalone="no"?>
<!-- Created with Inkscape (http://www.inkscape.org/) -->
<svg
   xmlns:dc="http://purl.org/dc/elements/1.1/"
   xmlns:cc="http://web.resource.org/cc/"
   xmlns:rdf="http://www.w3.org/1999/02/22-rdf-syntax-ns#"
   xmlns:svg="http://www.w3.org/2000/svg"
   xmlns="http://www.w3.org/2000/svg"
   xmlns:xlink="http://www.w3.org/1999/xlink"
   xmlns:sodipodi="http://sodipodi.sourceforge.net/DTD/sodipodi-0.dtd"
   xmlns:inkscape="http://www.inkscape.org/namespaces/inkscape"
   inkscape:export-ydpi="90.000000"
   inkscape:export-xdpi="90.000000"
   inkscape:export-filename="/home/patrick/Desktop/visual-effects.png"
   width="48px"
   height="48px"
   id="svg11300"
   sodipodi:version="0.32"
   inkscape:version="0.45+devel"
   sodipodi:docbase="/home/patrick/Projects/Beryl/svn/beryl/trunk/beryl-settings/images"
   sodipodi:docname="visual-effects.svg"
   inkscape:output_extension="org.inkscape.output.svg.inkscape"
   sodipodi:modified="true">
  <sodipodi:namedview
     stroke="#ef2929"
     fill="#eeeeec"
     id="base"
     pagecolor="#ffffff"
     bordercolor="#666666"
     borderopacity="0.25490196"
     inkscape:pageopacity="0.0"
     inkscape:pageshadow="2"
     inkscape:zoom="5.656854"
     inkscape:cx="53.64873"
     inkscape:cy="29.141122"
     inkscape:current-layer="layer1"
     showgrid="false"
     inkscape:grid-bbox="true"
     inkscape:document-units="px"
     inkscape:showpageshadow="false"
     inkscape:window-width="906"
     inkscape:window-height="659"
     inkscape:window-x="333"
     inkscape:window-y="60"
     showguides="true"
     inkscape:guide-bbox="true" />
  <defs
     id="defs3">
    <linearGradient
       id="linearGradient19421">
      <stop
         style="stop-color:#ffffff;stop-opacity:0;"
         offset="0"
         id="stop19423" />
      <stop
         id="stop19429"
         offset="0.5"
         style="stop-color:#ffffff;stop-opacity:0.48510638;" />
      <stop
         style="stop-color:#ffffff;stop-opacity:0;"
         offset="1"
         id="stop19425" />
    </linearGradient>
    <linearGradient
       inkscape:collect="always"
       id="linearGradient8350">
      <stop
         style="stop-color:#000000;stop-opacity:1;"
         offset="0"
         id="stop8352" />
      <stop
         style="stop-color:#000000;stop-opacity:0;"
         offset="1"
         id="stop8354" />
    </linearGradient>
    <linearGradient
       id="linearGradient5426">
      <stop
         style="stop-color:#2e3436;stop-opacity:1;"
         offset="0"
         id="stop5428" />
      <stop
         style="stop-color:#bfbfbf;stop-opacity:1;"
         offset="1"
         id="stop5430" />
    </linearGradient>
    <linearGradient
       inkscape:collect="always"
       id="linearGradient13418">
      <stop
         offset="0"
         id="stop13420"
         style="stop-color:#ffb300;stop-opacity:1;" />
      <stop
         offset="1"
         id="stop13422"
         style="stop-color:#ffb300;stop-opacity:0;" />
    </linearGradient>
    <linearGradient
       id="linearGradient12435">
      <stop
         offset="0"
         id="stop12437"
         style="stop-color:#fffc8c;stop-opacity:1;" />
      <stop
         offset="1"
         id="stop12439"
         style="stop-color:#fffc85;stop-opacity:0;" />
    </linearGradient>
    <linearGradient
       id="linearGradient9156">
      <stop
         offset="0"
         id="stop9158"
         style="stop-color:#90ff81;stop-opacity:1;" />
      <stop
         offset="1"
         id="stop9160"
         style="stop-color:#1fff00;stop-opacity:0;" />
    </linearGradient>
    <linearGradient
       id="linearGradient9132">
      <stop
         offset="0"
         id="stop9134"
         style="stop-color:#55ffe8;stop-opacity:1;" />
      <stop
         offset="1"
         id="stop9136"
         style="stop-color:#00ffdc;stop-opacity:0;" />
    </linearGradient>
    <linearGradient
       id="linearGradient9116">
      <stop
         offset="0"
         id="stop9118"
         style="stop-color:#5b8cff;stop-opacity:1;" />
      <stop
         offset="1"
         id="stop9120"
         style="stop-color:#004bff;stop-opacity:0;" />
    </linearGradient>
    <linearGradient
       id="linearGradient6021">
      <stop
         offset="0"
         id="stop6023"
         style="stop-color:#ff5050;stop-opacity:1;" />
      <stop
         offset="1"
         id="stop6025"
         style="stop-color:#ff0000;stop-opacity:0;" />
    </linearGradient>
    <linearGradient
       id="linearGradient6013">
      <stop
         offset="0"
         id="stop6015"
         style="stop-color:#ffc548;stop-opacity:1;" />
      <stop
         offset="1"
         id="stop6017"
         style="stop-color:#ffae00;stop-opacity:0;" />
    </linearGradient>
    <linearGradient
       id="linearGradient5933">
      <stop
         offset="0"
         id="stop5935"
         style="stop-color:#fff162;stop-opacity:1;" />
      <stop
         offset="1"
         id="stop5937"
         style="stop-color:#ffe700;stop-opacity:0;" />
    </linearGradient>
    <linearGradient
       id="linearGradient47870">
      <stop
         offset="0"
         id="stop47872"
         style="stop-color:#000000;stop-opacity:0" />
      <stop
         offset="0.5"
         id="stop47878"
         style="stop-color:#000000;stop-opacity:1" />
      <stop
         offset="1"
         id="stop47874"
         style="stop-color:#000000;stop-opacity:0" />
    </linearGradient>
    <linearGradient
       id="linearGradient51765">
      <stop
         offset="0"
         id="stop51767"
         style="stop-color:#000000;stop-opacity:1" />
      <stop
         offset="1"
         id="stop51769"
         style="stop-color:#000000;stop-opacity:0" />
    </linearGradient>
    <linearGradient
       id="linearGradient9164-891-327-24-598-984-277">
      <stop
         offset="0"
         id="stop30352"
         style="stop-color:#b260ff;stop-opacity:1;" />
      <stop
         offset="1"
         id="stop30354"
         style="stop-color:#901bff;stop-opacity:0;" />
    </linearGradient>
    <linearGradient
       id="linearGradient9124-347-796-164-28-545-988">
      <stop
         offset="0"
         id="stop30382"
         style="stop-color:#cfab95;stop-opacity:1;" />
      <stop
         offset="1"
         id="stop30384"
         style="stop-color:#b47d5a;stop-opacity:0;" />
    </linearGradient>
    <linearGradient
       id="linearGradient9028-298-979-190-275-234-713">
      <stop
         offset="0"
         id="stop30454"
         style="stop-color:#ff8efb;stop-opacity:1;" />
      <stop
         offset="1"
         id="stop30456"
         style="stop-color:#ff5df9;stop-opacity:0;" />
    </linearGradient>
    <linearGradient
       inkscape:collect="always"
       xlink:href="#linearGradient47870"
       id="linearGradient8621"
       gradientUnits="userSpaceOnUse"
       gradientTransform="matrix(0.9788196,0,0,0.7154223,-8.5008021,52.112719)"
       x1="32.084972"
       y1="-14.402173"
       x2="32.084972"
       y2="-5.5633383" />
    <radialGradient
       inkscape:collect="always"
       xlink:href="#linearGradient51765"
       id="radialGradient8623"
       gradientUnits="userSpaceOnUse"
       gradientTransform="matrix(1.9576392,-8.146468e-7,6.6614241e-7,1.4565793,-59.017557,62.738067)"
       cx="51.4375"
       cy="-12.203125"
       fx="51.4375"
       fy="-12.203125"
       r="2.171875" />
    <radialGradient
       inkscape:collect="always"
       xlink:href="#linearGradient51765"
       id="radialGradient8625"
       gradientUnits="userSpaceOnUse"
       gradientTransform="matrix(-1.9576392,-9.2540676e-8,-1.2888861e-7,1.4565793,110.01781,62.73803)"
       cx="51.4375"
       cy="-12.203125"
       fx="51.4375"
       fy="-12.203125"
       r="2.171875" />
    <linearGradient
       inkscape:collect="always"
       xlink:href="#linearGradient8350"
       id="linearGradient18435"
       gradientUnits="userSpaceOnUse"
       x1="2.3125"
       y1="4.96875"
       x2="22.758909"
       y2="21.225491"
       gradientTransform="translate(-5.5880008e-2,-0.3535534)" />
    <linearGradient
       inkscape:collect="always"
       xlink:href="#linearGradient5426"
       id="linearGradient18442"
       gradientUnits="userSpaceOnUse"
       x1="23.097382"
       y1="2.8601623"
       x2="24.166634"
       y2="70.856285"
       gradientTransform="translate(-5.5880008e-2,-0.3535534)" />
    <linearGradient
       inkscape:collect="always"
       xlink:href="#linearGradient19421"
       id="linearGradient19427"
       x1="2.9186058"
       y1="2.8248534"
       x2="37.268898"
       y2="41.40625"
       gradientUnits="userSpaceOnUse"
       gradientTransform="matrix(1.0213989,0,0,1.037504,-0.2499553,1.7126805)" />
    <linearGradient
       inkscape:collect="always"
       xlink:href="#linearGradient12435"
       id="linearGradient5622"
       gradientUnits="userSpaceOnUse"
       gradientTransform="matrix(-0.7692775,-0.1265805,-0.1551581,0.6156722,39.6649,15.783282)"
       x1="14.500001"
       y1="15.499999"
       x2="18.55765"
       y2="49.263756" />
    <linearGradient
       inkscape:collect="always"
       xlink:href="#linearGradient13418"
       id="linearGradient5624"
       gradientUnits="userSpaceOnUse"
       gradientTransform="matrix(-0.7692775,-0.1265805,-0.1551581,0.6156722,39.6649,15.783282)"
       x1="14.500001"
       y1="15.499999"
       x2="18.55765"
       y2="49.263756" />
    <linearGradient
       inkscape:collect="always"
       xlink:href="#linearGradient12435"
       id="linearGradient5627"
       gradientUnits="userSpaceOnUse"
       gradientTransform="matrix(-0.8596225,-0.4210666,-0.4055572,0.7875735,52.076015,14.111671)"
       x1="14.500001"
       y1="15.499999"
       x2="17.599726"
       y2="49.682816" />
    <linearGradient
       inkscape:collect="always"
       xlink:href="#linearGradient13418"
       id="linearGradient5629"
       gradientUnits="userSpaceOnUse"
       gradientTransform="matrix(-0.8596225,-0.4210666,-0.4055572,0.7875735,52.076015,14.111671)"
       x1="14.500001"
       y1="15.499999"
       x2="17.599726"
       y2="49.682816" />
    <linearGradient
       inkscape:collect="always"
       xlink:href="#linearGradient12435"
       id="linearGradient5632"
       gradientUnits="userSpaceOnUse"
       gradientTransform="matrix(0.8116154,-2.5694153e-2,2.5005368e-2,0.7898584,3.9576892,5.5938649)"
       x1="14.500001"
       y1="15.499999"
       x2="19.339649"
       y2="49.789898" />
    <linearGradient
       inkscape:collect="always"
       xlink:href="#linearGradient13418"
       id="linearGradient5634"
       gradientUnits="userSpaceOnUse"
       gradientTransform="matrix(0.8116154,-2.5694153e-2,2.5005368e-2,0.7898584,3.9576892,5.5938649)"
       x1="14.500001"
       y1="15.499999"
       x2="19.339649"
       y2="49.789898" />
    <linearGradient
       inkscape:collect="always"
       xlink:href="#linearGradient5933"
       id="linearGradient5140"
       gradientUnits="userSpaceOnUse"
       gradientTransform="matrix(0.8190216,0,0,0.8426455,1.6618759,-4.2712171e-2)"
       x1="30.683731"
       y1="13.453852"
       x2="17.27836"
       y2="16.945192" />
    <linearGradient
       inkscape:collect="always"
       xlink:href="#linearGradient6021"
       id="linearGradient5143"
       gradientUnits="userSpaceOnUse"
       gradientTransform="matrix(0.8190216,0,0,0.8426455,1.6618759,-4.2712171e-2)"
       x1="23.425013"
       y1="28.673454"
       x2="17.233263"
       y2="18.199434" />
    <linearGradient
       inkscape:collect="always"
       xlink:href="#linearGradient6013"
       id="linearGradient5146"
       gradientUnits="userSpaceOnUse"
       gradientTransform="matrix(0.8190216,0,0,0.8426455,1.6618759,-4.2712171e-2)"
       x1="28.280239"
       y1="21.438738"
       x2="17.640259"
       y2="18.168367" />
    <linearGradient
       inkscape:collect="always"
       xlink:href="#linearGradient5933"
       id="linearGradient5149"
       gradientUnits="userSpaceOnUse"
       gradientTransform="matrix(0.8190216,0,0,0.8426455,1.6618759,-4.2712171e-2)"
       x1="18.385849"
       y1="3.9529786"
       x2="16.569323"
       y2="16.946066" />
    <linearGradient
       inkscape:collect="always"
       xlink:href="#linearGradient6013"
       id="linearGradient5152"
       gradientUnits="userSpaceOnUse"
       gradientTransform="matrix(0.8190216,0,0,0.8426455,1.6618759,-4.2712171e-2)"
       x1="3.8750002"
       y1="16.265987"
       x2="14.577285"
       y2="17.201984" />
    <linearGradient
       inkscape:collect="always"
       xlink:href="#linearGradient5933"
       id="linearGradient5155"
       gradientUnits="userSpaceOnUse"
       gradientTransform="matrix(0.8190216,0,0,0.8426455,1.6618759,-4.2712171e-2)"
       x1="6.861136"
       y1="23.445843"
       x2="14.772748"
       y2="18.275124" />
    <linearGradient
       inkscape:collect="always"
       xlink:href="#linearGradient6013"
       id="linearGradient5158"
       gradientUnits="userSpaceOnUse"
       gradientTransform="matrix(0.8190216,0,0,0.8426455,1.6618759,-4.2712171e-2)"
       x1="19.709713"
       y1="28.315639"
       x2="17.139574"
       y2="18.649363" />
    <linearGradient
       inkscape:collect="always"
       xlink:href="#linearGradient6021"
       id="linearGradient5161"
       gradientUnits="userSpaceOnUse"
       gradientTransform="matrix(0.8190216,0,0,0.8426455,1.6618759,-4.2712171e-2)"
       x1="29.336458"
       y1="16.773245"
       x2="17.359837"
       y2="17.383078" />
    <linearGradient
       inkscape:collect="always"
       xlink:href="#linearGradient5933"
       id="linearGradient5164"
       gradientUnits="userSpaceOnUse"
       gradientTransform="matrix(0.8190216,0,0,0.8426455,1.6618759,-4.2712171e-2)"
       x1="26.977995"
       y1="25.040514"
       x2="17.918188"
       y2="18.411386" />
    <linearGradient
       inkscape:collect="always"
       xlink:href="#linearGradient6021"
       id="linearGradient5167"
       gradientUnits="userSpaceOnUse"
       gradientTransform="matrix(0.8190216,0,0,0.8426455,1.6618759,-4.2712171e-2)"
       x1="13.566943"
       y1="28.899731"
       x2="15.753922"
       y2="18.823458" />
    <linearGradient
       inkscape:collect="always"
       xlink:href="#linearGradient6021"
       id="linearGradient5170"
       gradientUnits="userSpaceOnUse"
       gradientTransform="matrix(0.8190216,0,0,0.8426455,1.6618759,-4.2712171e-2)"
       x1="5.5451312"
       y1="20.729092"
       x2="15.279561"
       y2="17.41453" />
    <linearGradient
       inkscape:collect="always"
       xlink:href="#linearGradient6013"
       id="linearGradient5173"
       gradientUnits="userSpaceOnUse"
       gradientTransform="matrix(0.8190216,0,0,0.8426455,1.6618759,-4.2712171e-2)"
       x1="8.0275469"
       y1="28.932091"
       x2="14.847455"
       y2="18.900013" />
    <linearGradient
       inkscape:collect="always"
       xlink:href="#linearGradient5933"
       id="linearGradient5176"
       gradientUnits="userSpaceOnUse"
       gradientTransform="matrix(0.8190216,0,0,0.8426455,1.6618759,-4.2712171e-2)"
       x1="2.0593593"
       y1="13.800174"
       x2="14.358535"
       y2="15.833106" />
    <linearGradient
       inkscape:collect="always"
       xlink:href="#linearGradient6013"
       id="linearGradient5179"
       gradientUnits="userSpaceOnUse"
       gradientTransform="matrix(0.8190216,0,0,0.8426455,1.6618759,-4.2712171e-2)"
       x1="29.651886"
       y1="8.9410315"
       x2="17.321711"
       y2="16.952663" />
    <linearGradient
       inkscape:collect="always"
       xlink:href="#linearGradient6021"
       id="linearGradient5182"
       gradientUnits="userSpaceOnUse"
       gradientTransform="matrix(0.8190216,0,0,0.8426455,1.6618759,-4.2712171e-2)"
       x1="23.94607"
       y1="6.697998"
       x2="16.721827"
       y2="16.640163" />
    <linearGradient
       inkscape:collect="always"
       xlink:href="#linearGradient6013"
       id="linearGradient5185"
       gradientUnits="userSpaceOnUse"
       gradientTransform="matrix(0.8190216,0,0,0.8426455,1.6618759,-4.2712171e-2)"
       x1="12.691942"
       y1="5.0447607"
       x2="15.649894"
       y2="16.726456" />
    <linearGradient
       inkscape:collect="always"
       xlink:href="#linearGradient6021"
       id="linearGradient5188"
       gradientUnits="userSpaceOnUse"
       gradientTransform="matrix(0.8190216,0,0,0.8426455,1.6618759,-4.2712171e-2)"
       x1="5.6843591"
       y1="7.8200488"
       x2="15.121861"
       y2="16.128553" />
    <linearGradient
       inkscape:collect="always"
       xlink:href="#linearGradient5933"
       id="linearGradient5191"
       gradientUnits="userSpaceOnUse"
       gradientTransform="matrix(0.8093328,0.1281951,-0.1266193,0.8326772,4.5058622,-2.2954616)"
       x1="18.17754"
       y1="30.6171"
       x2="16.053219"
       y2="18.463701" />
    <linearGradient
       inkscape:collect="always"
       xlink:href="#linearGradient9028-298-979-190-275-234-713"
       id="linearGradient6183"
       gradientUnits="userSpaceOnUse"
       gradientTransform="matrix(1.1106368,0,0,1.1321939,-12.487161,-3.9353825)"
       x1="44.959618"
       y1="28.321177"
       x2="37.012405"
       y2="22.575933" />
    <linearGradient
       inkscape:collect="always"
       xlink:href="#linearGradient9028-298-979-190-275-234-713"
       id="linearGradient6186"
       gradientUnits="userSpaceOnUse"
       gradientTransform="matrix(1.1106368,0,0,1.1321939,-12.487161,-3.9353825)"
       x1="29.105017"
       y1="29.84421"
       x2="35.130463"
       y2="23.391861" />
    <linearGradient
       inkscape:collect="always"
       xlink:href="#linearGradient9164-891-327-24-598-984-277"
       id="linearGradient6189"
       gradientUnits="userSpaceOnUse"
       gradientTransform="matrix(1.1106368,0,0,1.1321939,-12.487161,-3.9353825)"
       x1="33.125595"
       y1="31.888535"
       x2="36.115559"
       y2="23.712612" />
    <linearGradient
       inkscape:collect="always"
       xlink:href="#linearGradient9124-347-796-164-28-545-988"
       id="linearGradient6192"
       gradientUnits="userSpaceOnUse"
       gradientTransform="matrix(1.1106368,0,0,1.1321939,-12.487161,-3.9353825)"
       x1="39.073582"
       y1="31.583334"
       x2="36.687706"
       y2="23.120756" />
    <linearGradient
       inkscape:collect="always"
       xlink:href="#linearGradient9028-298-979-190-275-234-713"
       id="linearGradient6195"
       gradientUnits="userSpaceOnUse"
       gradientTransform="matrix(1.1106368,0,0,1.1321939,-12.487161,-3.9353825)"
       x1="45.363613"
       y1="16.720882"
       x2="36.700859"
       y2="22.099878" />
    <linearGradient
       inkscape:collect="always"
       xlink:href="#linearGradient9124-347-796-164-28-545-988"
       id="linearGradient6198"
       gradientUnits="userSpaceOnUse"
       gradientTransform="matrix(1.1106368,0,0,1.1321939,-12.487161,-3.9353825)"
       x1="31.01125"
       y1="14.512192"
       x2="36.444862"
       y2="21.848425" />
    <linearGradient
       inkscape:collect="always"
       xlink:href="#linearGradient9028-298-979-190-275-234-713"
       id="linearGradient6201"
       gradientUnits="userSpaceOnUse"
       gradientTransform="matrix(1.1106368,0,0,1.1321939,-12.487161,-3.9353825)"
       x1="27.958891"
       y1="19.689766"
       x2="35.426796"
       y2="21.986027" />
    <linearGradient
       inkscape:collect="always"
       xlink:href="#linearGradient9124-347-796-164-28-545-988"
       id="linearGradient6204"
       gradientUnits="userSpaceOnUse"
       gradientTransform="matrix(1.1106368,0,0,1.1321939,-12.487161,-3.9353825)"
       x1="31.79067"
       y1="29.443935"
       x2="35.9062"
       y2="23.25675" />
    <linearGradient
       inkscape:collect="always"
       xlink:href="#linearGradient9164-891-327-24-598-984-277"
       id="linearGradient6207"
       gradientUnits="userSpaceOnUse"
       gradientTransform="matrix(1.1106368,0,0,1.1321939,-12.487161,-3.9353825)"
       x1="42.477005"
       y1="29.547321"
       x2="37.320538"
       y2="23.315943" />
    <linearGradient
       inkscape:collect="always"
       xlink:href="#linearGradient9028-298-979-190-275-234-713"
       id="linearGradient6210"
       gradientUnits="userSpaceOnUse"
       gradientTransform="matrix(1.1106368,0,0,1.1321939,-12.487161,-3.9353825)"
       x1="37.003944"
       y1="32.342167"
       x2="36.650814"
       y2="23.786844" />
    <linearGradient
       inkscape:collect="always"
       xlink:href="#linearGradient9164-891-327-24-598-984-277"
       id="linearGradient6213"
       gradientUnits="userSpaceOnUse"
       gradientTransform="matrix(1.1106368,0,0,1.1321939,-12.487161,-3.9353825)"
       x1="28.320587"
       y1="26.213604"
       x2="35.151104"
       y2="22.766457" />
    <linearGradient
       inkscape:collect="always"
       xlink:href="#linearGradient9164-891-327-24-598-984-277"
       id="linearGradient6216"
       gradientUnits="userSpaceOnUse"
       gradientTransform="matrix(1.1106368,0,0,1.1321939,-12.487161,-3.9353825)"
       x1="29.221025"
       y1="17.460054"
       x2="36.158665"
       y2="22.321413" />
    <linearGradient
       inkscape:collect="always"
       xlink:href="#linearGradient9124-347-796-164-28-545-988"
       id="linearGradient6219"
       gradientUnits="userSpaceOnUse"
       gradientTransform="matrix(1.1106368,0,0,1.1321939,-12.487161,-3.9353825)"
       x1="25.44035"
       y1="22.684866"
       x2="35.143578"
       y2="22.154535" />
    <linearGradient
       inkscape:collect="always"
       xlink:href="#linearGradient9028-298-979-190-275-234-713"
       id="linearGradient6222"
       gradientUnits="userSpaceOnUse"
       gradientTransform="matrix(1.1106368,0,0,1.1321939,-12.487161,-3.9353825)"
       x1="31.040445"
       y1="12.134123"
       x2="36.385365"
       y2="20.840376" />
    <linearGradient
       inkscape:collect="always"
       xlink:href="#linearGradient9124-347-796-164-28-545-988"
       id="linearGradient6225"
       gradientUnits="userSpaceOnUse"
       gradientTransform="matrix(1.1106368,0,0,1.1321939,-12.487161,-3.9353825)"
       x1="47.122013"
       y1="25.897078"
       x2="36.868969"
       y2="21.787018" />
    <linearGradient
       inkscape:collect="always"
       xlink:href="#linearGradient9164-891-327-24-598-984-277"
       id="linearGradient6228"
       gradientUnits="userSpaceOnUse"
       gradientTransform="matrix(1.1106368,0,0,1.1321939,-12.487161,-3.9353825)"
       x1="46.515327"
       y1="21.34849"
       x2="35.290009"
       y2="22.432522" />
    <linearGradient
       inkscape:collect="always"
       xlink:href="#linearGradient9124-347-796-164-28-545-988"
       id="linearGradient6231"
       gradientUnits="userSpaceOnUse"
       gradientTransform="matrix(1.1106368,0,0,1.1321939,-12.487161,-3.9353825)"
       x1="41.668274"
       y1="13.93441"
       x2="36.567703"
       y2="21.776133" />
    <linearGradient
       inkscape:collect="always"
       xlink:href="#linearGradient9164-891-327-24-598-984-277"
       id="linearGradient6234"
       gradientUnits="userSpaceOnUse"
       gradientTransform="matrix(1.1106368,0,0,1.1321939,-12.487161,-3.9353825)"
       x1="36.613846"
       y1="11.134278"
       x2="36.376907"
       y2="21.50703" />
    <linearGradient
       inkscape:collect="always"
       xlink:href="#linearGradient9116"
       id="linearGradient8268"
       gradientUnits="userSpaceOnUse"
       gradientTransform="matrix(0.9165972,0,0,0.9623739,1.6917024,-4.76893)"
       x1="36.613846"
       y1="11.134278"
       x2="36.376907"
       y2="21.50703" />
    <linearGradient
       inkscape:collect="always"
       xlink:href="#linearGradient9156"
       id="linearGradient8270"
       gradientUnits="userSpaceOnUse"
       gradientTransform="matrix(0.9165972,0,0,0.9623739,1.6917024,-4.76893)"
       x1="41.668274"
       y1="13.93441"
       x2="36.567703"
       y2="21.776133" />
    <linearGradient
       inkscape:collect="always"
       xlink:href="#linearGradient9116"
       id="linearGradient8272"
       gradientUnits="userSpaceOnUse"
       gradientTransform="matrix(0.9165972,0,0,0.9623739,1.6917024,-4.76893)"
       x1="46.515327"
       y1="21.34849"
       x2="35.290009"
       y2="22.432522" />
    <linearGradient
       inkscape:collect="always"
       xlink:href="#linearGradient9156"
       id="linearGradient8274"
       gradientUnits="userSpaceOnUse"
       gradientTransform="matrix(0.9165972,0,0,0.9623739,1.6917024,-4.76893)"
       x1="47.122013"
       y1="25.897078"
       x2="36.868969"
       y2="21.787018" />
    <linearGradient
       inkscape:collect="always"
       xlink:href="#linearGradient9132"
       id="linearGradient8276"
       gradientUnits="userSpaceOnUse"
       gradientTransform="matrix(0.9165972,0,0,0.9623739,1.6917024,-4.76893)"
       x1="31.040445"
       y1="12.134123"
       x2="36.385365"
       y2="20.840376" />
    <linearGradient
       inkscape:collect="always"
       xlink:href="#linearGradient9156"
       id="linearGradient8278"
       gradientUnits="userSpaceOnUse"
       gradientTransform="matrix(0.9165972,0,0,0.9623739,1.6917024,-4.76893)"
       x1="25.44035"
       y1="22.684866"
       x2="35.143578"
       y2="22.154535" />
    <linearGradient
       inkscape:collect="always"
       xlink:href="#linearGradient9116"
       id="linearGradient8280"
       gradientUnits="userSpaceOnUse"
       gradientTransform="matrix(0.9165972,0,0,0.9623739,1.6917024,-4.76893)"
       x1="29.221025"
       y1="17.460054"
       x2="36.158665"
       y2="22.321413" />
    <linearGradient
       inkscape:collect="always"
       xlink:href="#linearGradient9116"
       id="linearGradient8282"
       gradientUnits="userSpaceOnUse"
       gradientTransform="matrix(0.9165972,0,0,0.9623739,1.6917024,-4.76893)"
       x1="28.320587"
       y1="26.213604"
       x2="35.151104"
       y2="22.766457" />
    <linearGradient
       inkscape:collect="always"
       xlink:href="#linearGradient9132"
       id="linearGradient8284"
       gradientUnits="userSpaceOnUse"
       gradientTransform="matrix(0.9165972,0,0,0.9623739,1.6917024,-4.76893)"
       x1="37.003944"
       y1="32.342167"
       x2="36.650814"
       y2="23.786844" />
    <linearGradient
       inkscape:collect="always"
       xlink:href="#linearGradient9116"
       id="linearGradient8286"
       gradientUnits="userSpaceOnUse"
       gradientTransform="matrix(0.9165972,0,0,0.9623739,1.6917024,-4.76893)"
       x1="42.477005"
       y1="29.547321"
       x2="37.320538"
       y2="23.315943" />
    <linearGradient
       inkscape:collect="always"
       xlink:href="#linearGradient9156"
       id="linearGradient8288"
       gradientUnits="userSpaceOnUse"
       gradientTransform="matrix(0.9165972,0,0,0.9623739,1.6917024,-4.76893)"
       x1="31.79067"
       y1="29.443935"
       x2="35.9062"
       y2="23.25675" />
    <linearGradient
       inkscape:collect="always"
       xlink:href="#linearGradient9132"
       id="linearGradient8290"
       gradientUnits="userSpaceOnUse"
       gradientTransform="matrix(0.9165972,0,0,0.9623739,1.6917024,-4.76893)"
       x1="27.958891"
       y1="19.689766"
       x2="35.426796"
       y2="21.986027" />
    <linearGradient
       inkscape:collect="always"
       xlink:href="#linearGradient9156"
       id="linearGradient8292"
       gradientUnits="userSpaceOnUse"
       gradientTransform="matrix(0.9165972,0,0,0.9623739,1.6917024,-4.76893)"
       x1="31.01125"
       y1="14.512192"
       x2="36.444862"
       y2="21.848425" />
    <linearGradient
       inkscape:collect="always"
       xlink:href="#linearGradient9132"
       id="linearGradient8294"
       gradientUnits="userSpaceOnUse"
       gradientTransform="matrix(0.9165972,0,0,0.9623739,1.6917024,-4.76893)"
       x1="45.363613"
       y1="16.720882"
       x2="36.700859"
       y2="22.099878" />
    <linearGradient
       inkscape:collect="always"
       xlink:href="#linearGradient9156"
       id="linearGradient8296"
       gradientUnits="userSpaceOnUse"
       gradientTransform="matrix(0.9165972,0,0,0.9623739,1.6917024,-4.76893)"
       x1="39.073582"
       y1="31.583334"
       x2="36.687706"
       y2="23.120756" />
    <linearGradient
       inkscape:collect="always"
       xlink:href="#linearGradient9116"
       id="linearGradient8298"
       gradientUnits="userSpaceOnUse"
       gradientTransform="matrix(0.9165972,0,0,0.9623739,1.6917024,-4.76893)"
       x1="33.125595"
       y1="31.888535"
       x2="36.115559"
       y2="23.712612" />
    <linearGradient
       inkscape:collect="always"
       xlink:href="#linearGradient9132"
       id="linearGradient8300"
       gradientUnits="userSpaceOnUse"
       gradientTransform="matrix(0.9165972,0,0,0.9623739,1.6917024,-4.76893)"
       x1="29.105017"
       y1="29.84421"
       x2="35.130463"
       y2="23.391861" />
    <linearGradient
       inkscape:collect="always"
       xlink:href="#linearGradient9132"
       id="linearGradient8302"
       gradientUnits="userSpaceOnUse"
       gradientTransform="matrix(0.9165972,0,0,0.9623739,1.6917024,-4.76893)"
       x1="44.959618"
       y1="28.321177"
       x2="37.012405"
       y2="22.575933" />
    <linearGradient
       id="linearGradient5567">
      <stop
         style="stop-color:#3465a4;stop-opacity:1"
         offset="0"
         id="stop5569" />
      <stop
         style="stop-color:#729fcf;stop-opacity:1;"
         offset="1"
         id="stop5571" />
    </linearGradient>
    <linearGradient
       id="linearGradient3230">
      <stop
         id="stop3232"
         offset="0"
         style="stop-color:#c17d11;stop-opacity:1;" />
      <stop
         id="stop3234"
         offset="1"
         style="stop-color:#f5cc8b;stop-opacity:1;" />
    </linearGradient>
    <linearGradient
       inkscape:collect="always"
       xlink:href="#linearGradient47870"
       id="linearGradient2517"
       gradientUnits="userSpaceOnUse"
       gradientTransform="matrix(0.9788196,0,0,0.7154223,-8.5008021,52.112719)"
       x1="32.084972"
       y1="-14.402173"
       x2="32.084972"
       y2="-5.5633383" />
    <radialGradient
       inkscape:collect="always"
       xlink:href="#linearGradient51765"
       id="radialGradient2520"
       gradientUnits="userSpaceOnUse"
       gradientTransform="matrix(1.9576392,-8.146468e-7,6.6614241e-7,1.4565793,-59.017557,62.738067)"
       cx="51.4375"
       cy="-12.203125"
       fx="51.4375"
       fy="-12.203125"
       r="2.171875" />
    <radialGradient
       inkscape:collect="always"
       xlink:href="#linearGradient51765"
       id="radialGradient2522"
       gradientUnits="userSpaceOnUse"
       gradientTransform="matrix(-1.9576392,-9.2540676e-8,-1.2888861e-7,1.4565793,110.01781,62.73803)"
       cx="51.4375"
       cy="-12.203125"
       fx="51.4375"
       fy="-12.203125"
       r="2.171875" />
  </defs>
  <metadata
     id="metadata4">
    <rdf:RDF>
      <cc:Work
         rdf:about="">
        <dc:format>image/svg+xml</dc:format>
        <dc:type
           rdf:resource="http://purl.org/dc/dcmitype/StillImage" />
        <dc:creator>
          <cc:Agent>
            <dc:title>Patrick Niklaus</dc:title>
          </cc:Agent>
        </dc:creator>
        <dc:source />
        <cc:license
           rdf:resource="http://creativecommons.org/licenses/GPL/2.0/" />
        <dc:title>Visual Effects</dc:title>
        <dc:subject>
          <rdf:Bag />
        </dc:subject>
      </cc:Work>
      <cc:License
         rdf:about="http://creativecommons.org/licenses/GPL/2.0/">
        <cc:permits
           rdf:resource="http://web.resource.org/cc/Reproduction" />
        <cc:permits
           rdf:resource="http://web.resource.org/cc/Distribution" />
        <cc:requires
           rdf:resource="http://web.resource.org/cc/Notice" />
        <cc:permits
           rdf:resource="http://web.resource.org/cc/DerivativeWorks" />
        <cc:requires
           rdf:resource="http://web.resource.org/cc/ShareAlike" />
        <cc:requires
           rdf:resource="http://web.resource.org/cc/SourceCode" />
      </cc:License>
    </rdf:RDF>
  </metadata>
  <g
     inkscape:groupmode="layer"
     id="layer1"
     inkscape:label="Layer 1">
    <g
       transform="matrix(1.1767706,0,0,1.3757829,-5.9848818,-18.586937)"
       id="g2452">
      <rect
         width="32.357079"
         height="6.3234997"
         x="9.3215466"
         y="41.809082"
         style="opacity:0.3;fill:url(#linearGradient2517);fill-opacity:1;fill-rule:evenodd;stroke:none;stroke-width:1.02400005;stroke-linecap:butt;stroke-linejoin:miter;stroke-miterlimit:4;stroke-dasharray:none;stroke-dashoffset:0;stroke-opacity:1"
         id="rect2454" />
      <path
         d="M 41.6785,41.799698 L 41.6785,48.126714 C 44.022298,48.102828 45.930248,46.705313 45.930248,44.974385 C 45.930248,43.243458 44.022299,41.823584 41.6785,41.799698 z"
         style="opacity:0.3;fill:url(#radialGradient2520);fill-opacity:1;fill-rule:evenodd;stroke:none;stroke-width:1.02400005;stroke-linecap:butt;stroke-linejoin:miter;stroke-miterlimit:4;stroke-dasharray:none;stroke-dashoffset:0;stroke-opacity:1"
         id="path2456" />
      <path
         d="M 9.3217476,41.799698 L 9.3217476,48.126714 C 6.9779494,48.102828 5.07,46.705313 5.07,44.974385 C 5.07,43.243458 6.9779484,41.823584 9.3217476,41.799698 z"
         style="opacity:0.3;fill:url(#radialGradient2522);fill-opacity:1;fill-rule:evenodd;stroke:none;stroke-width:1.02400005;stroke-linecap:butt;stroke-linejoin:miter;stroke-miterlimit:4;stroke-dasharray:none;stroke-dashoffset:0;stroke-opacity:1"
         id="path2458" />
    </g>
    <g
       id="g54724"
       transform="matrix(1.1686912,0,0,1.3618401,-5.8374666,-20.708423)">
      <rect
         y="41.809082"
         x="9.3215466"
         height="6.3234997"
         width="32.357079"
         id="rect46899"
         style="opacity:0.3;fill:url(#linearGradient8621);fill-opacity:1;fill-rule:evenodd;stroke:none;stroke-width:1.02400005;stroke-linecap:butt;stroke-linejoin:miter;stroke-miterlimit:4;stroke-dasharray:none;stroke-dashoffset:0;stroke-opacity:1" />
      <path
         id="path48849"
         d="M 41.6785,41.799698 L 41.6785,48.126714 C 44.022298,48.102828 45.930248,46.705313 45.930248,44.974385 C 45.930248,43.243458 44.022299,41.823584 41.6785,41.799698 z"
         style="opacity:0.3;fill:url(#radialGradient8623);fill-opacity:1;fill-rule:evenodd;stroke:none;stroke-width:1.02400005;stroke-linecap:butt;stroke-linejoin:miter;stroke-miterlimit:4;stroke-dasharray:none;stroke-dashoffset:0;stroke-opacity:1" />
      <path
         style="opacity:0.3;fill:url(#radialGradient8625);fill-opacity:1;fill-rule:evenodd;stroke:none;stroke-width:1.02400005;stroke-linecap:butt;stroke-linejoin:miter;stroke-miterlimit:4;stroke-dasharray:none;stroke-dashoffset:0;stroke-opacity:1"
         d="M 9.3217476,41.799698 L 9.3217476,48.126714 C 6.9779494,48.102828 5.07,46.705313 5.07,44.974385 C 5.07,43.243458 6.9779484,41.823584 9.3217476,41.799698 z"
         id="path52742" />
    </g>
    <rect
       style="color:#000000;fill:url(#linearGradient18442);fill-opacity:1;fill-rule:nonzero;stroke:#6d7367;stroke-width:1.07518101;stroke-linecap:round;stroke-linejoin:miter;marker:none;marker-start:none;marker-mid:none;marker-end:none;stroke-miterlimit:4;stroke-dasharray:none;stroke-dashoffset:0;stroke-opacity:1;visibility:visible;display:inline;overflow:visible"
       id="rect1304"
       width="47.025265"
       height="41.225414"
       x="0.59812081"
       y="3.0441995"
       rx="1.6404161"
       ry="1.5855929" />
    <rect
       style="color:#000000;fill:none;fill-opacity:1;fill-rule:nonzero;stroke:#ffffff;stroke-width:1.07518101;stroke-linecap:round;stroke-linejoin:miter;marker:none;marker-start:none;marker-mid:none;marker-end:none;stroke-miterlimit:4;stroke-dasharray:none;stroke-dashoffset:0;stroke-opacity:1;visibility:visible;display:inline;overflow:visible"
       id="rect2179"
       width="44.838043"
       height="39.11129"
       x="1.6917317"
       y="4.1012616"
       rx="0.54680538"
       ry="0.52853096" />
    <path
       style="fill:url(#linearGradient18435);fill-opacity:1;fill-rule:evenodd;stroke:none;stroke-width:0.49556774;stroke-linecap:butt;stroke-linejoin:miter;stroke-miterlimit:4;stroke-dasharray:none;stroke-dashoffset:0;stroke-opacity:1"
       d="M 2.25662,4.6151966 L 2.25662,4.8651966 L 2.25662,42.427697 L 2.25662,42.646447 L 2.50662,42.646447 L 2.72537,42.646447 L 2.72537,42.177697 L 2.72537,5.3651966 L 2.72537,5.1151966 L 2.97537,5.1151966 L 45.47537,5.1151966 L 45.97537,5.1151966 L 45.97537,4.8651966 L 45.97537,4.6151966 L 45.72537,4.6151966 L 2.50662,4.6151966 L 2.25662,4.6151966 z"
       id="rect6403"
       sodipodi:nodetypes="ccccccccccccccccc" />
    <rect
       style="opacity:0.20779221;fill:url(#linearGradient19427);fill-opacity:1;fill-rule:evenodd;stroke:none;stroke-width:1.38721097;stroke-linecap:butt;stroke-linejoin:miter;stroke-miterlimit:4;stroke-dasharray:none;stroke-dashoffset:0;stroke-opacity:0.62820512"
       id="rect18450"
       width="43.256542"
       height="38.037792"
       x="2.7311072"
       y="4.6434774" />
    <g
       id="g8340"
       transform="translate(0,2.4748738)">
      <path
         sodipodi:nodetypes="ccccccc"
         style="fill:url(#linearGradient5632);fill-opacity:1;fill-rule:evenodd;stroke:url(#linearGradient5634);stroke-width:0.29507673;stroke-linecap:butt;stroke-linejoin:miter;stroke-miterlimit:4;stroke-dasharray:none;stroke-opacity:1"
         d="M 16.511856,15.871636 C 15.229147,13.498215 13.351277,13.859604 14.297353,17.026527 C 16.213831,21.67143 17.820438,26.439783 18.333729,31.452569 C 18.582581,34.044124 19.194942,36.641114 19.450233,39.242364 L 19.454345,39.22776 C 19.200108,36.637228 19.39356,33.978713 19.143782,31.377509 C 18.630733,26.367086 18.485763,20.655728 16.511856,15.871636 z"
         id="path11458" />
      <path
         sodipodi:nodetypes="ccccccc"
         style="fill:url(#linearGradient5627);fill-opacity:1;fill-rule:evenodd;stroke:url(#linearGradient5629);stroke-width:0.32578233;stroke-linecap:butt;stroke-linejoin:miter;stroke-miterlimit:4;stroke-dasharray:none;stroke-opacity:1"
         d="M 34.294743,13.460433 C 36.504382,11.309201 38.701653,11.773854 35.597153,15.92379 C 31.311252,19.693992 27.188413,28.470863 24.233616,33.296549 C 22.723761,35.799413 20.820772,38.130843 19.299351,40.64039 L 19.301934,40.623601 C 20.817086,38.124394 21.883864,35.338442 23.399342,32.826259 C 26.352744,28.002848 29.880411,17.343612 34.294743,13.460433 z"
         id="path16337" />
      <path
         sodipodi:nodetypes="ccccccc"
         style="fill:url(#linearGradient5622);fill-opacity:1;fill-rule:evenodd;stroke:url(#linearGradient5624);stroke-width:0.27909714;stroke-linecap:butt;stroke-linejoin:miter;stroke-miterlimit:4;stroke-dasharray:none;stroke-opacity:1"
         d="M 26.05648,21.820031 C 27.572998,19.910328 29.027239,19.915407 27.535496,22.718155 C 24.936621,26.106659 22.986391,30.300494 21.663725,34.161313 C 20.995659,36.159479 19.980232,38.114229 19.30442,40.119146 L 19.302928,40.107164 C 19.975955,38.110505 20.233592,36.001857 20.904145,33.996253 C 22.226185,30.137254 23.379726,25.310075 26.05648,21.820031 z"
         id="path31529" />
      <g
         id="g6162">
        <path
           style="fill:url(#linearGradient5191);fill-opacity:1;fill-rule:evenodd;stroke:#ff0000;stroke-width:0.30000001;stroke-linecap:round;stroke-linejoin:round;stroke-miterlimit:4;stroke-dasharray:none;stroke-opacity:0.47756407"
           d="M 15.08284,14.30168 C 14.869563,14.29521 14.666515,14.394953 14.538419,14.569112 C 14.410325,14.743271 14.373171,14.970111 14.4388,15.177323 C 15.336133,18.497628 15.373758,22.131529 14.49984,25.484971 C 14.402199,25.723621 14.447878,25.998317 14.6172,26.190724 C 14.786522,26.383131 15.049238,26.458878 15.292173,26.385332 C 15.535107,26.311785 15.714864,26.102084 15.754002,25.846568 C 16.689035,22.258615 16.667622,18.38265 15.705881,14.824018 C 15.639809,14.524892 15.383176,14.30974 15.08284,14.30168 z"
           id="path2413" />
        <path
           style="fill:url(#linearGradient5188);fill-opacity:1;fill-rule:evenodd;stroke:#ff0000;stroke-width:0.30000001;stroke-linecap:round;stroke-linejoin:round;stroke-miterlimit:4;stroke-dasharray:none;stroke-opacity:0.47756407"
           d="M 6.3724311,5.911131 C 6.0533027,5.9487009 5.8077127,6.2164941 5.7920605,6.5439695 C 5.7764084,6.8714459 5.9952962,7.1623635 6.3093258,7.2314552 C 7.5509226,7.5646602 9.2064928,8.5533148 10.600492,9.807697 C 11.994491,11.06208 13.128135,12.606394 13.440234,13.961888 C 13.468533,14.221129 13.641702,14.44003 13.884038,14.522898 C 14.126375,14.605767 14.393806,14.537531 14.569423,14.348021 C 14.74504,14.158511 14.796904,13.882191 14.702341,13.639857 C 14.288295,11.841588 13.010008,10.1504 11.483967,8.7772005 C 9.9579264,7.4040006 8.1733901,6.3589118 6.6248527,5.9433341 C 6.5435749,5.9159022 6.4578243,5.9049625 6.3724311,5.911131 z"
           id="path2379" />
        <path
           style="fill:url(#linearGradient5185);fill-opacity:1;fill-rule:evenodd;stroke:#ff0000;stroke-width:0.30000001;stroke-linecap:round;stroke-linejoin:round;stroke-miterlimit:4;stroke-dasharray:none;stroke-opacity:0.47756407"
           d="M 11.98881,3.4959039 C 11.782807,3.5318775 11.605903,3.6658287 11.512437,3.8566149 C 11.41897,4.0474001 11.420115,4.2722112 11.51552,4.4619948 C 12.880933,7.201646 12.666906,10.666494 13.97663,13.897482 C 14.043444,14.149256 14.247378,14.338551 14.499281,14.382618 C 14.751185,14.426684 15.005245,14.317507 15.150398,14.102813 C 15.295549,13.88812 15.305396,13.606956 15.175632,13.382233 C 14.023056,10.538914 14.261825,7.0502526 12.682969,3.8823403 C 12.562096,3.6097749 12.278787,3.4520573 11.98881,3.4959039 z"
           id="path2381" />
        <path
           style="fill:url(#linearGradient5182);fill-opacity:1;fill-rule:evenodd;stroke:#ff0000;stroke-width:0.30000001;stroke-linecap:round;stroke-linejoin:round;stroke-miterlimit:4;stroke-dasharray:none;stroke-opacity:0.47756407"
           d="M 21.328406,4.8484311 C 21.130693,4.8523037 20.945228,4.9469476 20.823563,5.1060553 C 18.768854,7.5823888 15.920578,9.7835298 14.891658,13.382233 C 14.808546,13.618945 14.862318,13.883225 15.030902,14.066593 C 15.199487,14.249961 15.454486,14.321532 15.691233,14.251927 C 15.92798,14.182322 16.106596,13.983267 16.153765,13.736466 C 17.037403,10.645896 19.652881,8.6033155 21.83325,5.9755371 C 22.015122,5.777184 22.061614,5.4863664 21.95095,5.2392975 C 21.840285,4.9922297 21.594378,4.8378355 21.328406,4.8484311 L 21.328406,4.8484311 z"
           id="path2383" />
        <path
           style="fill:url(#linearGradient5179);fill-opacity:1;fill-rule:evenodd;stroke:#ff0000;stroke-width:0.30000001;stroke-linecap:round;stroke-linejoin:round;stroke-miterlimit:4;stroke-dasharray:none;stroke-opacity:0.47756407"
           d="M 25.461809,7.038237 C 21.429244,7.5173325 17.823814,10.40017 15.364948,13.382233 C 15.129696,13.666797 15.165013,14.092122 15.44383,14.332222 C 15.722646,14.572323 16.139382,14.536278 16.374634,14.251715 C 18.690685,11.442855 22.109488,8.8077857 25.619572,8.3907642 C 25.98552,8.3463013 26.246862,8.0074832 26.203297,7.633993 C 26.159732,7.2605028 25.827757,6.9937742 25.461809,7.038237 z"
           id="path2385" />
        <path
           style="fill:url(#linearGradient5176);fill-opacity:1;fill-rule:evenodd;stroke:#ff0000;stroke-width:0.30000001;stroke-linecap:round;stroke-linejoin:round;stroke-miterlimit:4;stroke-dasharray:none;stroke-opacity:0.47756407"
           d="M 6.1515623,10.097524 C 5.1328314,10.207425 4.1249567,10.523266 3.1856094,11.063615 C 2.9455807,11.157116 2.7810696,11.384951 2.7646389,11.646627 C 2.7482083,11.908303 2.8828792,12.155706 3.1092509,12.279712 C 3.3356215,12.403719 3.6120715,12.381526 3.8166632,12.222924 C 6.9115964,10.442597 11.108836,11.76948 13.345576,14.509339 C 13.580828,14.793903 13.997563,14.829947 14.27638,14.589847 C 14.555197,14.349746 14.590514,13.924421 14.355262,13.639857 C 12.394307,11.237816 9.2077549,9.7678219 6.1515623,10.097524 z"
           id="path2387" />
        <path
           style="fill:url(#linearGradient5173);fill-opacity:1;fill-rule:evenodd;stroke:#ff0000;stroke-width:0.30000001;stroke-linecap:round;stroke-linejoin:round;stroke-miterlimit:4;stroke-dasharray:none;stroke-opacity:0.47756407"
           d="M 14.071288,14.799166 C 13.861206,14.841472 13.684554,14.985708 13.597997,15.185603 C 12.914555,16.565267 11.708851,17.840157 10.537386,19.210981 C 9.3659212,20.581806 8.2107212,22.049724 7.7923022,23.944826 C 7.6977401,24.18716 7.7496036,24.46348 7.9252203,24.65299 C 8.1008381,24.8425 8.3682686,24.910736 8.6106053,24.827867 C 8.8529421,24.744999 9.0261104,24.526098 9.0544098,24.266857 C 9.3905061,22.744608 10.377417,21.412247 11.51552,20.080463 C 12.653623,18.748679 13.953832,17.435866 14.765447,15.79746 C 14.897671,15.569793 14.886168,15.284015 14.736091,15.068184 C 14.586015,14.852353 14.325501,14.746935 14.071288,14.799166 z"
           id="path2389" />
        <path
           style="fill:url(#linearGradient5170);fill-opacity:1;fill-rule:evenodd;stroke:#ff0000;stroke-width:0.30000001;stroke-linecap:round;stroke-linejoin:round;stroke-miterlimit:4;stroke-dasharray:none;stroke-opacity:0.47756407"
           d="M 11.673283,13.736466 C 9.4086087,13.839911 7.2676542,15.079199 5.8044827,16.795754 C 5.6065297,16.965894 5.5250127,17.238868 5.5963359,17.49277 C 5.6676591,17.746672 5.8785058,17.934098 6.1347157,17.971347 C 6.3909266,18.008595 6.6446647,17.888713 6.7826161,17.665236 C 8.4403713,15.720399 11.172122,14.550101 13.566445,15.314415 C 13.914966,15.430019 14.289321,15.235379 14.402591,14.879674 C 14.515861,14.523969 14.325151,14.141898 13.97663,14.026294 C 13.222924,13.785696 12.428175,13.701985 11.673283,13.736466 z"
           id="path2391" />
        <path
           style="fill:url(#linearGradient5167);fill-opacity:1;fill-rule:evenodd;stroke:#ff0000;stroke-width:0.30000001;stroke-linecap:round;stroke-linejoin:round;stroke-miterlimit:4;stroke-dasharray:none;stroke-opacity:0.47756407"
           d="M 14.513025,14.992385 C 14.323408,15.005109 14.1485,15.101081 14.033518,15.255492 C 13.918536,15.409903 13.874766,15.607593 13.913524,15.79746 C 14.4258,18.760557 13.294414,20.964428 12.209679,23.848217 C 12.078983,24.19503 12.248502,24.584309 12.588311,24.717699 C 12.92812,24.851089 13.309538,24.678075 13.440234,24.331263 C 14.492556,21.533642 15.796597,18.981315 15.207185,15.572039 C 15.161396,15.222441 14.857847,14.968963 14.513025,14.992385 L 14.513025,14.992385 z"
           id="path2393" />
        <path
           style="fill:url(#linearGradient5164);fill-opacity:1;fill-rule:evenodd;stroke:#ff0000;stroke-width:0.30000001;stroke-linecap:round;stroke-linejoin:round;stroke-miterlimit:4;stroke-dasharray:none;stroke-opacity:0.47756407"
           d="M 16.658608,14.927978 C 16.292661,14.919086 15.988938,15.21465 15.980225,15.588141 C 15.971513,15.961631 16.261108,16.271614 16.627056,16.280506 C 18.124966,16.544789 19.180134,17.200079 20.160957,18.116078 C 21.14178,19.032078 22.045829,20.194689 23.12691,21.368584 C 23.270905,21.590201 23.529703,21.703908 23.786396,21.658341 C 24.043089,21.612775 24.249072,21.416562 24.311294,21.158339 C 24.373516,20.900116 24.280197,20.628779 24.073491,20.466899 C 23.048364,19.353765 22.141142,18.142012 21.044432,17.117784 C 19.947722,16.093557 18.620456,15.272918 16.847924,14.960182 C 16.786706,14.940037 16.722919,14.929187 16.658608,14.927978 z"
           id="path2395" />
        <path
           style="fill:url(#linearGradient5161);fill-opacity:1;fill-rule:evenodd;stroke:#ff0000;stroke-width:0.30000001;stroke-linecap:round;stroke-linejoin:round;stroke-miterlimit:4;stroke-dasharray:none;stroke-opacity:0.47756407"
           d="M 25.051624,13.575451 C 22.007412,13.27536 18.979869,14.373997 16.469292,13.67206 C 16.23736,13.587236 15.978418,13.642116 15.798753,13.814175 C 15.619088,13.986234 15.548962,14.246489 15.617161,14.488116 C 15.685361,14.729743 15.880396,14.91204 16.122213,14.960182 C 19.187867,15.817314 22.315146,14.638462 24.925413,14.895775 C 25.17479,14.957433 25.436504,14.865125 25.595371,14.659479 C 25.754239,14.453832 25.781126,14.172559 25.6642,13.939452 C 25.547273,13.706344 25.307975,13.56415 25.051624,13.575451 L 25.051624,13.575451 z"
           id="path2397" />
        <path
           style="fill:url(#linearGradient5158);fill-opacity:1;fill-rule:evenodd;stroke:#ff0000;stroke-width:0.30000001;stroke-linecap:round;stroke-linejoin:round;stroke-miterlimit:4;stroke-dasharray:none;stroke-opacity:0.47756407"
           d="M 15.333395,14.638151 C 15.11801,14.670257 14.932231,14.809255 14.837422,15.009231 C 14.742614,15.209207 14.75111,15.444146 14.860105,15.636445 C 16.071769,17.83008 17.340151,21.032368 17.100346,23.332969 C 17.039933,23.587485 17.130377,23.854594 17.33187,24.016735 C 17.533364,24.178878 17.808957,24.206319 18.037357,24.086982 C 18.265757,23.967646 18.405079,23.723416 18.394006,23.461781 C 18.694678,20.577247 17.271505,17.301596 15.996002,14.992385 C 15.869114,14.744845 15.605029,14.603664 15.333395,14.638151 z"
           id="path2399" />
        <path
           style="fill:url(#linearGradient5155);fill-opacity:1;fill-rule:evenodd;stroke:#ff0000;stroke-width:0.30000001;stroke-linecap:round;stroke-linejoin:round;stroke-miterlimit:4;stroke-dasharray:none;stroke-opacity:0.47756407"
           d="M 13.534892,14.444933 C 13.431496,14.464052 13.334109,14.508227 13.250918,14.573745 C 11.335136,15.935868 8.5146559,17.217429 6.7826161,19.339793 C 6.5963906,19.518443 6.5287073,19.791175 6.6091531,20.038761 C 6.6895998,20.286348 6.9035442,20.46376 7.1574611,20.493444 C 7.4113789,20.523127 7.6590873,20.399681 7.7923022,20.177072 C 9.2235161,18.423325 11.92817,17.147539 14.008182,15.668648 C 14.273715,15.496383 14.382121,15.156038 14.266596,14.857345 C 14.151072,14.558653 13.844118,14.385643 13.534892,14.444933 L 13.534892,14.444933 z"
           id="path2401" />
        <path
           style="fill:url(#linearGradient5152);fill-opacity:1;fill-rule:evenodd;stroke:#ff0000;stroke-width:0.30000001;stroke-linecap:round;stroke-linejoin:round;stroke-miterlimit:4;stroke-dasharray:none;stroke-opacity:0.47756407"
           d="M 7.4136699,12.641563 C 6.62447,12.629946 5.824219,12.719435 5.0156654,13.028 C 4.6758576,13.161389 4.5063374,13.550669 4.6370332,13.897482 C 4.7677289,14.244294 5.149148,14.417308 5.4889558,14.283918 C 6.7412735,13.806001 8.0495611,13.954829 9.4961475,14.219512 C 10.942734,14.484195 12.476001,14.873402 14.10284,14.638151 C 14.356237,14.637865 14.586839,14.488734 14.695305,14.255004 C 14.80377,14.021275 14.770722,13.744699 14.610398,13.544424 C 14.450074,13.344149 14.191115,13.255952 13.945077,13.317827 C 12.639744,13.506586 11.209475,13.172264 9.7170163,12.899188 C 8.9707866,12.76265 8.2028699,12.653181 7.4136699,12.641563 z"
           id="path2403" />
        <path
           style="fill:url(#linearGradient5149);fill-opacity:1;fill-rule:evenodd;stroke:#ff0000;stroke-width:0.30000001;stroke-linecap:round;stroke-linejoin:round;stroke-miterlimit:4;stroke-dasharray:none;stroke-opacity:0.47756407"
           d="M 16.658608,2.6586252 C 16.45357,2.7168277 16.288909,2.8728789 16.216871,3.0772646 C 14.988059,6.3053064 14.350676,10.020726 14.513025,13.478842 C 14.483202,13.74272 14.608962,13.999655 14.8336,14.133798 C 15.058238,14.26794 15.339314,14.253947 15.550092,14.098127 C 15.760871,13.942307 15.861532,13.674099 15.806686,13.414436 C 15.654313,10.168838 16.256058,6.6071039 17.415873,3.56031 C 17.506748,3.3287027 17.463983,3.064743 17.304898,2.8753181 C 17.145813,2.6858932 16.896767,2.602391 16.658608,2.6586252 L 16.658608,2.6586252 z"
           id="path2405" />
        <path
           style="fill:url(#linearGradient5146);fill-opacity:1;fill-rule:evenodd;stroke:#ff0000;stroke-width:0.30000001;stroke-linecap:round;stroke-linejoin:round;stroke-miterlimit:4;stroke-dasharray:none;stroke-opacity:0.47756407"
           d="M 15.996002,14.573745 C 15.638768,14.644887 15.405678,14.998122 15.475382,15.362719 C 15.545087,15.727316 15.891189,15.965211 16.248423,15.894069 C 18.943043,15.511728 21.750783,16.747419 23.663306,18.760139 C 23.915984,19.026917 24.332719,19.034126 24.59411,18.77624 C 24.855501,18.518354 24.862564,18.093029 24.609886,17.826251 C 22.437386,15.539932 19.248792,14.121159 16.059107,14.573745 C 16.038084,14.572713 16.017024,14.572713 15.996002,14.573745 L 15.996002,14.573745 z"
           id="path2409" />
        <path
           style="fill:url(#linearGradient5143);fill-opacity:1;fill-rule:evenodd;stroke:#ff0000;stroke-width:0.30000001;stroke-linecap:round;stroke-linejoin:round;stroke-miterlimit:4;stroke-dasharray:none;stroke-opacity:0.47756407"
           d="M 15.648922,14.638151 C 15.374994,14.696412 15.167375,14.925505 15.131793,15.208766 C 15.096211,15.492027 15.240491,15.767167 15.491159,15.894069 C 16.804246,16.565813 18.087358,17.80966 18.930402,19.275387 C 19.773446,20.741115 20.168388,22.407831 19.908535,23.88042 C 19.86311,24.118939 19.947794,24.363862 20.129834,24.520458 C 20.311875,24.677052 20.562726,24.720764 20.785362,24.634683 C 21.007998,24.548604 21.167508,24.346232 21.202196,24.105842 C 21.533943,22.225817 21.031484,20.277204 20.066299,18.599124 C 19.101114,16.921043 17.679239,15.515237 16.09066,14.702557 C 15.955302,14.629096 15.799019,14.60631 15.648922,14.638151 L 15.648922,14.638151 z"
           id="path2411" />
        <path
           style="fill:url(#linearGradient5140);fill-opacity:1;fill-rule:evenodd;stroke:#ff0000;stroke-width:0.30000001;stroke-linecap:round;stroke-linejoin:round;stroke-miterlimit:4;stroke-dasharray:none;stroke-opacity:0.47756407"
           d="M 25.840441,10.644976 C 25.759292,10.672802 25.68426,10.716561 25.619572,10.773788 C 23.04651,12.532991 19.082075,12.280868 15.775133,13.478842 C 15.519955,13.522854 15.313937,13.715793 15.249083,13.971496 C 15.184229,14.227198 15.27265,14.497925 15.474855,14.662773 C 15.677061,14.827621 15.955301,14.855814 16.185318,14.73476 C 19.089544,13.682675 23.244568,13.988653 26.345284,11.868691 C 26.62838,11.69841 26.744473,11.340707 26.616957,11.031614 C 26.48944,10.722521 26.157616,10.557301 25.840441,10.644976 L 25.840441,10.644976 z"
           id="path2417" />
      </g>
      <g
         transform="matrix(0.9435101,0,0,0.8762372,2.8877317,-1.2815236)"
         id="g8248">
        <path
           style="fill:url(#linearGradient8268);fill-opacity:1;fill-rule:evenodd;stroke:#000bff;stroke-width:0.30000001;stroke-linecap:round;stroke-linejoin:round;stroke-miterlimit:4;stroke-dasharray:none;stroke-opacity:0.6057692"
           d="M 35.104854,5.4801554 C 34.964292,5.5346372 34.852511,5.6520538 34.79837,5.8020925 C 34.744228,5.9521326 34.753033,6.1200875 34.822511,6.2625994 C 35.292054,7.344492 35.578915,9.1102614 35.548537,10.826856 C 35.518159,12.54345 35.146777,14.203198 34.459498,15.217236 C 34.292426,15.469312 34.346602,15.819625 34.580502,15.99968 C 34.814403,16.179735 35.139456,16.121349 35.306528,15.869273 C 36.201036,14.549482 36.523935,12.689999 36.556906,10.826856 C 36.589877,8.9637128 36.323664,7.105754 35.750211,5.7844392 C 35.642653,5.5160658 35.360742,5.3831449 35.104854,5.4801554 z"
           id="path6029" />
        <path
           style="fill:url(#linearGradient8270);fill-opacity:1;fill-rule:evenodd;stroke:#000bff;stroke-width:0.30000001;stroke-linecap:round;stroke-linejoin:round;stroke-miterlimit:4;stroke-dasharray:none;stroke-opacity:0.6057692"
           d="M 39.743352,8.0448329 C 39.576155,8.088352 39.440044,8.2187413 39.38034,8.3925857 C 38.398248,10.954789 36.090112,12.787039 34.782176,15.564989 C 34.648519,15.841073 34.747841,16.181655 35.004018,16.325698 C 35.260194,16.469742 35.576219,16.362702 35.709876,16.086618 C 36.872113,13.618121 39.185576,11.7557 40.308039,8.8272768 C 40.390292,8.637892 40.367088,8.4148002 40.247967,8.2497428 C 40.128847,8.0846867 39.933921,8.0055326 39.743352,8.0448329 z"
           id="path6031" />
        <path
           style="fill:url(#linearGradient8272);fill-opacity:1;fill-rule:evenodd;stroke:#000bff;stroke-width:0.30000001;stroke-linecap:round;stroke-linejoin:round;stroke-miterlimit:4;stroke-dasharray:none;stroke-opacity:0.6057692"
           d="M 39.824022,15.130298 C 38.414754,15.111918 36.990264,15.282819 35.588872,15.956211 C 35.405254,16.029445 35.275866,16.208302 35.254754,16.418074 C 35.23364,16.627847 35.324436,16.832442 35.489213,16.946402 C 35.653989,17.060362 35.8644,17.064079 36.032554,16.956 C 38.455862,15.791562 41.154695,16.454919 43.978503,16.47784 C 44.268095,16.47784 44.502855,16.224837 44.502855,15.912742 C 44.502855,15.600646 44.268095,15.347643 43.978503,15.347643 C 42.644491,15.336816 41.23329,15.148677 39.824022,15.130298 z"
           id="path6033" />
        <path
           style="fill:url(#linearGradient8274);fill-opacity:1;fill-rule:evenodd;stroke:#000bff;stroke-width:0.30000001;stroke-linecap:round;stroke-linejoin:round;stroke-miterlimit:4;stroke-dasharray:none;stroke-opacity:0.6057692"
           d="M 35.669541,16.303964 C 35.42604,16.387416 35.275798,16.650257 35.316166,16.922171 C 35.356536,17.194084 35.575375,17.393284 35.83088,17.390691 C 38.849297,17.404953 42.367069,18.312022 44.54319,20.563936 C 44.754815,20.780002 45.088896,20.770272 45.289383,20.542202 C 45.489869,20.314132 45.480841,19.954089 45.269215,19.738023 C 42.796701,17.179391 39.027008,16.319066 35.83088,16.303964 C 35.777433,16.294853 35.722988,16.294853 35.669541,16.303964 z"
           id="path6035" />
        <path
           style="fill:url(#linearGradient8276);fill-opacity:1;fill-rule:evenodd;stroke:#000bff;stroke-width:0.30000001;stroke-linecap:round;stroke-linejoin:round;stroke-miterlimit:4;stroke-dasharray:none;stroke-opacity:0.6057692"
           d="M 30.345352,6.3060685 C 30.10605,6.3513362 29.928404,6.5702772 29.918694,6.8319098 C 29.908983,7.093541 30.069834,7.3270737 30.305017,7.3927962 C 33.114543,8.5582482 34.563932,12.292114 34.056151,15.478051 C 34.011598,15.790146 34.210241,16.082072 34.499833,16.130087 C 34.789425,16.178102 35.060302,15.964023 35.104854,15.651927 C 35.69011,11.979904 34.040596,7.7485516 30.66803,6.3495376 C 30.567623,6.2979714 30.454448,6.2827245 30.345352,6.3060685 z"
           id="path6037" />
        <path
           style="fill:url(#linearGradient8278);fill-opacity:1;fill-rule:evenodd;stroke:#000bff;stroke-width:0.30000001;stroke-linecap:round;stroke-linejoin:round;stroke-miterlimit:4;stroke-dasharray:none;stroke-opacity:0.6057692"
           d="M 33.773807,16.043149 C 32.534517,16.358185 31.071451,16.253019 29.578992,16.217025 C 28.086532,16.181032 26.549492,16.247917 25.142167,17.042938 C 24.926289,17.085855 24.759191,17.271187 24.725583,17.504977 C 24.691977,17.738768 24.799211,17.9699 24.992921,18.081201 C 25.186631,18.1925 25.424464,18.159633 25.58585,17.999259 C 26.727775,17.354165 28.086843,17.312208 29.538657,17.347222 C 30.990471,17.382237 32.514299,17.501319 33.975481,17.129877 C 34.231264,17.047902 34.386947,16.769377 34.334613,16.48737 C 34.282278,16.205365 34.039171,16.012796 33.773807,16.043149 L 33.773807,16.043149 z"
           id="path6039" />
        <path
           style="fill:url(#linearGradient8280);fill-opacity:1;fill-rule:evenodd;stroke:#000bff;stroke-width:0.30000001;stroke-linecap:round;stroke-linejoin:round;stroke-miterlimit:4;stroke-dasharray:none;stroke-opacity:0.6057692"
           d="M 28.409283,11.478892 C 28.119691,11.5029 27.90299,11.775364 27.925266,12.08746 C 27.947543,12.399556 28.200361,12.633097 28.489953,12.609089 C 30.614685,12.65738 32.864236,13.884199 33.693138,16.043149 C 33.716254,16.276408 33.872624,16.46899 34.084084,16.524632 C 34.295543,16.580274 34.51667,16.487022 34.636931,16.29149 C 34.757192,16.095959 34.750755,15.840148 34.620837,15.651927 C 33.599991,12.993039 31.012689,11.535312 28.530288,11.478892 C 28.490092,11.473782 28.449479,11.473782 28.409283,11.478892 L 28.409283,11.478892 z"
           id="path6041" />
        <path
           style="fill:url(#linearGradient8282);fill-opacity:1;fill-rule:evenodd;stroke:#000bff;stroke-width:0.30000001;stroke-linecap:round;stroke-linejoin:round;stroke-miterlimit:4;stroke-dasharray:none;stroke-opacity:0.6057692"
           d="M 33.854477,16.434371 C 33.739917,16.469551 33.640167,16.546338 33.572133,16.651717 C 31.986298,18.734333 29.995081,19.187557 27.602588,20.085776 C 27.401847,20.122335 27.23978,20.282604 27.188762,20.49501 C 27.137746,20.707416 27.207302,20.932301 27.36637,21.069237 C 27.525438,21.206172 27.74432,21.229591 27.925266,21.129035 C 30.249264,20.25653 32.570489,19.722046 34.378829,17.347222 C 34.537483,17.163649 34.562544,16.888365 34.44002,16.675062 C 34.317495,16.461757 34.077686,16.363183 33.854477,16.434371 z"
           id="path6043" />
        <path
           style="fill:url(#linearGradient8284);fill-opacity:1;fill-rule:evenodd;stroke:#000bff;stroke-width:0.30000001;stroke-linecap:round;stroke-linejoin:round;stroke-miterlimit:4;stroke-dasharray:none;stroke-opacity:0.6057692"
           d="M 35.185524,17.912321 C 34.991251,17.90546 34.809865,18.016763 34.716191,18.200314 C 34.622518,18.383865 34.63243,18.608558 34.741842,18.781703 C 36.045118,21.223461 35.36261,23.46935 35.06452,26.345328 C 35.080115,26.613265 35.270992,26.831001 35.518324,26.862987 C 35.765657,26.894974 35.998915,26.732089 36.072889,26.475735 C 36.356936,23.735234 37.147641,21.061473 35.629206,18.216604 C 35.543911,18.035524 35.373858,17.9189 35.185524,17.912321 L 35.185524,17.912321 z"
           id="path6045" />
        <path
           style="fill:url(#linearGradient8286);fill-opacity:1;fill-rule:evenodd;stroke:#000bff;stroke-width:0.30000001;stroke-linecap:round;stroke-linejoin:round;stroke-miterlimit:4;stroke-dasharray:none;stroke-opacity:0.6057692"
           d="M 35.629206,16.869062 C 35.47409,16.903433 35.342185,17.012614 35.271364,17.165265 C 35.200543,17.317915 35.198636,17.497147 35.266193,17.651506 C 36.381001,20.289098 38.843719,21.816943 40.106365,23.82412 C 40.189973,24.026296 40.376815,24.155847 40.582194,24.154042 C 40.787574,24.152238 40.972432,24.019422 41.052969,23.815804 C 41.133507,23.612185 41.094407,23.376485 40.953395,23.215552 C 39.500986,20.906715 37.164706,19.374823 36.234228,17.173346 C 36.128712,16.926138 35.872787,16.797425 35.629206,16.869062 z"
           id="path6047" />
        <path
           style="fill:url(#linearGradient8288);fill-opacity:1;fill-rule:evenodd;stroke:#000bff;stroke-width:0.30000001;stroke-linecap:round;stroke-linejoin:round;stroke-miterlimit:4;stroke-dasharray:none;stroke-opacity:0.6057692"
           d="M 34.580502,16.825593 C 34.38818,16.86321 34.232055,17.014641 34.177155,17.216815 C 33.458276,19.343838 32.168193,22.092766 30.587361,23.259021 C 30.399762,23.349125 30.279553,23.550487 30.281227,23.771826 C 30.282901,23.993165 30.406141,24.192388 30.595077,24.279183 C 30.784014,24.36598 31.002718,24.323842 31.152047,24.171872 C 33.111688,22.726152 34.391618,19.794237 35.145189,17.564568 C 35.207145,17.379757 35.174061,17.173431 35.058149,17.021744 C 34.942238,16.870057 34.760686,16.795501 34.580502,16.825593 z"
           id="path6049" />
        <path
           style="fill:url(#linearGradient8290);fill-opacity:1;fill-rule:evenodd;stroke:#000bff;stroke-width:0.30000001;stroke-linecap:round;stroke-linejoin:round;stroke-miterlimit:4;stroke-dasharray:none;stroke-opacity:0.6057692"
           d="M 27.360579,13.652348 C 27.070987,13.688358 26.863316,13.970554 26.89673,14.28265 C 26.930144,14.594746 27.191992,14.818555 27.481584,14.782545 C 29.364205,14.780947 31.644023,15.950677 33.693138,16.564778 C 33.971591,16.636801 34.251497,16.451913 34.318327,16.151822 C 34.385156,15.85173 34.213599,15.550073 33.935146,15.478051 C 32.039528,14.90995 29.740848,13.65043 27.481584,13.652348 C 27.441388,13.647237 27.400775,13.647237 27.360579,13.652348 L 27.360579,13.652348 z"
           id="path6051" />
        <path
           style="fill:url(#linearGradient8292);fill-opacity:1;fill-rule:evenodd;stroke:#000bff;stroke-width:0.30000001;stroke-linecap:round;stroke-linejoin:round;stroke-miterlimit:4;stroke-dasharray:none;stroke-opacity:0.6057692"
           d="M 29.982339,8.6968695 C 29.776503,8.7683452 29.633804,8.9704898 29.624802,9.2033493 C 29.615799,9.4362088 29.7424,9.6504454 29.942004,9.7401281 C 30.929416,10.354677 31.541384,11.345782 32.160417,12.522151 C 32.779449,13.69852 33.357853,15.037654 34.378829,16.043149 C 34.590454,16.259215 34.924535,16.249485 35.125022,16.021414 C 35.325508,15.793344 35.31648,15.433302 35.104854,15.217236 C 34.271311,14.39633 33.68461,13.210709 33.047781,12.000522 C 32.410953,10.790335 31.679412,9.5204304 30.426022,8.7403386 C 30.291834,8.6542948 30.128724,8.6383149 29.982339,8.6968695 L 29.982339,8.6968695 z"
           id="path6053" />
        <path
           style="fill:url(#linearGradient8294);fill-opacity:1;fill-rule:evenodd;stroke:#000bff;stroke-width:0.30000001;stroke-linecap:round;stroke-linejoin:round;stroke-miterlimit:4;stroke-dasharray:none;stroke-opacity:0.6057692"
           d="M 42.929799,10.870325 C 42.874192,10.875324 42.819706,10.890005 42.76846,10.913794 C 40.083959,11.90839 37.421155,13.631263 35.346863,15.738865 C 35.156789,15.850612 35.051594,16.078293 35.083399,16.309105 C 35.115202,16.539915 35.27725,16.724828 35.489252,16.772225 C 35.701255,16.819624 35.918181,16.719439 36.032554,16.521309 C 37.986429,14.536058 40.551142,12.898108 43.091138,11.957053 C 43.334639,11.8736 43.484881,11.610759 43.444513,11.338845 C 43.404144,11.066932 43.185305,10.867732 42.929799,10.870325 L 42.929799,10.870325 z"
           id="path6055" />
        <path
           style="fill:url(#linearGradient8296);fill-opacity:1;fill-rule:evenodd;stroke:#000bff;stroke-width:0.30000001;stroke-linecap:round;stroke-linejoin:round;stroke-miterlimit:4;stroke-dasharray:none;stroke-opacity:0.6057692"
           d="M 34.943515,17.303753 C 34.760115,17.358225 34.619366,17.516967 34.577205,17.716891 C 34.535044,17.916812 34.598304,18.125524 34.741842,18.260074 C 36.453772,19.954853 37.22622,22.686274 37.000588,25.215131 C 36.978312,25.527227 37.195014,25.799691 37.484606,25.823699 C 37.774198,25.847706 38.027016,25.614165 38.049292,25.302069 C 38.302582,22.463219 37.467589,19.413848 35.467867,17.43416 C 35.329579,17.28821 35.127164,17.237868 34.943515,17.303753 L 34.943515,17.303753 z"
           id="path6057" />
        <path
           style="fill:url(#linearGradient8298);fill-opacity:1;fill-rule:evenodd;stroke:#000bff;stroke-width:0.30000001;stroke-linecap:round;stroke-linejoin:round;stroke-miterlimit:4;stroke-dasharray:none;stroke-opacity:0.6057692"
           d="M 34.701507,17.086408 C 34.436552,17.185353 34.293305,17.494112 34.378829,17.781913 C 34.672632,19.11072 34.560432,20.721854 34.096485,22.172293 C 33.632539,23.622733 32.827148,24.89185 31.757069,25.562884 C 31.585995,25.657005 31.477541,25.845688 31.475532,26.05268 C 31.473525,26.259671 31.578296,26.450755 31.747507,26.54871 C 31.916717,26.646666 32.122395,26.635298 32.281421,26.519204 C 33.63176,25.672422 34.5393,24.162045 35.06452,22.520046 C 35.589739,20.878048 35.736081,19.099023 35.387198,17.521099 C 35.362738,17.357411 35.271824,17.214004 35.139222,17.129941 C 35.006621,17.045879 34.846144,17.029919 34.701507,17.086408 z"
           id="path6059" />
        <path
           style="fill:url(#linearGradient8300);fill-opacity:1;fill-rule:evenodd;stroke:#000bff;stroke-width:0.30000001;stroke-linecap:round;stroke-linejoin:round;stroke-miterlimit:4;stroke-dasharray:none;stroke-opacity:0.6057692"
           d="M 34.177155,16.347433 C 33.994701,16.377335 33.840928,16.509913 33.773807,16.695186 C 32.55428,19.495012 30.56781,21.952487 28.20761,23.693712 C 27.973709,23.873768 27.919533,24.22408 28.086605,24.476156 C 28.253678,24.728233 28.578731,24.786619 28.812631,24.606564 C 31.329369,22.749854 33.401448,20.15806 34.701507,17.173346 C 34.799317,16.988333 34.790584,16.759389 34.679014,16.583653 C 34.567443,16.407917 34.3726,16.316206 34.177155,16.347433 L 34.177155,16.347433 z"
           id="path6061" />
        <path
           style="fill:url(#linearGradient8302);fill-opacity:1;fill-rule:evenodd;stroke:#000bff;stroke-width:0.30000001;stroke-linecap:round;stroke-linejoin:round;stroke-miterlimit:4;stroke-dasharray:none;stroke-opacity:0.6057692"
           d="M 35.588872,16.521309 C 35.373792,16.570655 35.211311,16.761395 35.184036,16.996552 C 35.15676,17.23171 35.270676,17.459683 35.467867,17.564568 C 37.711033,19.015327 39.733903,22.123333 42.728125,23.085145 C 43.006578,23.16917 43.295515,22.994014 43.373481,22.693923 C 43.451448,22.393831 43.288922,22.082442 43.010468,21.998417 C 40.500434,21.192137 38.524169,18.245777 35.992219,16.608247 C 35.874746,16.520312 35.728691,16.48883 35.588872,16.521309 z"
           id="path6063" />
      </g>
      <g
         transform="translate(-0.4375,0.3125)"
         id="g7205">
        <path
           style="fill:url(#linearGradient6234);fill-opacity:1;fill-rule:evenodd;stroke:#ff00e4;stroke-width:0.30000001;stroke-linecap:round;stroke-linejoin:round;stroke-miterlimit:4;stroke-dasharray:none;stroke-opacity:0.62820524"
           d="M 28.099977,7.985352 C 27.846101,8.0099849 27.620385,8.1554227 27.495321,8.3749565 C 27.370256,8.5944902 27.36159,8.8604783 27.472103,9.0874956 C 28.031869,10.339765 28.415663,12.381733 28.379031,14.391562 C 28.342399,16.40139 27.898711,18.397068 27.088403,19.55786 C 26.904122,19.784659 26.86462,20.094492 26.986222,20.359312 C 27.107825,20.624133 27.36988,20.798964 27.664086,20.811553 C 27.958293,20.824142 28.234683,20.67235 28.379031,20.418909 C 29.485366,18.834048 29.908588,16.627591 29.948715,14.426004 C 29.988842,12.224417 29.60629,10.042549 28.902259,8.4675398 C 28.773404,8.1483513 28.446309,7.9517609 28.099977,7.985352 z"
           id="path21269" />
        <path
           style="fill:url(#linearGradient6231);fill-opacity:1;fill-rule:evenodd;stroke:#ff00e4;stroke-width:0.30000001;stroke-linecap:round;stroke-linejoin:round;stroke-miterlimit:4;stroke-dasharray:none;stroke-opacity:0.62820524"
           d="M 33.646191,11.016247 C 33.355103,11.058048 33.112449,11.257709 33.018317,11.532877 C 31.840172,14.517183 29.070223,16.641149 27.472103,19.936722 C 27.279456,20.326668 27.443437,20.796984 27.838363,20.987202 C 28.233289,21.17742 28.709612,21.015508 28.902259,20.625561 C 30.297236,17.748903 33.076536,15.559137 34.448473,12.083949 C 34.556212,11.832309 34.521147,11.543175 34.356281,11.323768 C 34.191416,11.10436 33.921334,10.987395 33.646191,11.016247 z"
           id="path21271" />
        <path
           style="fill:url(#linearGradient6228);fill-opacity:1;fill-rule:evenodd;stroke:#ff00e4;stroke-width:0.30000001;stroke-linecap:round;stroke-linejoin:round;stroke-miterlimit:4;stroke-dasharray:none;stroke-opacity:0.62820524"
           d="M 33.750836,19.351208 C 32.027435,19.330049 30.249279,19.508128 28.518559,20.315584 C 28.123633,20.496291 27.951843,20.958897 28.134858,21.348843 C 28.317874,21.738789 28.786388,21.908412 29.181314,21.727705 C 32.052303,20.388264 35.286803,21.149429 38.738941,21.176633 C 39.172397,21.176633 39.523782,20.829678 39.523782,20.401688 C 39.523782,19.973699 39.172397,19.626744 38.738941,19.626744 C 37.137795,19.614126 35.474237,19.372367 33.750836,19.351208 z"
           id="path21273" />
        <path
           style="fill:url(#linearGradient6225);fill-opacity:1;fill-rule:evenodd;stroke:#ff00e4;stroke-width:0.30000001;stroke-linecap:round;stroke-linejoin:round;stroke-miterlimit:4;stroke-dasharray:none;stroke-opacity:0.62820524"
           d="M 28.72785,20.728887 C 28.294394,20.766931 27.974242,21.144726 28.012772,21.572716 C 28.051302,22.000706 28.433921,22.316821 28.867377,22.278777 C 32.489936,22.295394 36.698776,23.319046 39.29705,25.929628 C 39.605285,26.233976 40.105035,26.233976 40.41327,25.929628 C 40.721505,25.62528 40.721505,25.131832 40.41327,24.827484 C 37.378812,21.778655 32.809834,20.746813 28.902259,20.728887 C 28.844305,20.722461 28.785804,20.722461 28.72785,20.728887 z"
           id="path21275" />
        <path
           style="fill:url(#linearGradient6222);fill-opacity:1;fill-rule:evenodd;stroke:#ff00e4;stroke-width:0.30000001;stroke-linecap:round;stroke-linejoin:round;stroke-miterlimit:4;stroke-dasharray:none;stroke-opacity:0.62820524"
           d="M 22.344471,8.9497276 C 21.953029,8.9488536 21.621328,9.2340906 21.568438,9.6170525 C 21.515549,10.000015 21.757793,10.362531 22.13518,10.465175 C 25.439624,11.796069 27.209823,16.153294 26.600057,19.867838 C 26.522125,20.152852 26.615731,20.45679 26.841167,20.650716 C 27.066603,20.84464 27.384345,20.894552 27.6596,20.779278 C 27.934855,20.664004 28.119366,20.403755 28.134858,20.108932 C 28.849523,15.755371 26.879661,10.704708 22.69329,9.0186116 C 22.583927,8.969477 22.464561,8.9459043 22.344471,8.9497276 z"
           id="path21277" />
        <path
           style="fill:url(#linearGradient6219);fill-opacity:1;fill-rule:evenodd;stroke:#ff00e4;stroke-width:0.30000001;stroke-linecap:round;stroke-linejoin:round;stroke-miterlimit:4;stroke-dasharray:none;stroke-opacity:0.62820524"
           d="M 26.46053,20.418909 C 26.413047,20.426131 26.36634,20.43766 26.321002,20.453351 C 24.861148,20.813664 23.114389,20.702536 21.298016,20.660003 C 19.481643,20.617471 17.570655,20.665021 15.821565,21.624379 C 15.568001,21.754318 15.406457,22.010526 15.400282,22.292538 C 15.394106,22.57455 15.544281,22.837414 15.791921,22.978054 C 16.039561,23.118693 16.345191,23.114691 16.588966,22.967617 C 17.928792,22.232736 19.511943,22.134444 21.263134,22.175451 C 23.014325,22.216457 24.892408,22.416099 26.704703,21.968799 C 27.138158,21.902223 27.434884,21.501297 27.367458,21.073307 C 27.300031,20.645317 26.893985,20.352333 26.46053,20.418909 z"
           id="path21279" />
        <path
           style="fill:url(#linearGradient6216);fill-opacity:1;fill-rule:evenodd;stroke:#ff00e4;stroke-width:0.30000001;stroke-linecap:round;stroke-linejoin:round;stroke-miterlimit:4;stroke-dasharray:none;stroke-opacity:0.62820524"
           d="M 19.86786,15.080401 C 19.434404,15.108934 19.106444,15.479019 19.135341,15.907009 C 19.164238,16.334999 19.53905,16.658823 19.972506,16.630291 C 22.476934,16.685555 25.123551,18.092208 26.111711,20.591119 C 26.265829,20.990577 26.718726,21.191039 27.123285,21.038865 C 27.527844,20.886691 27.730866,20.439505 27.576749,20.040048 C 26.323581,16.870969 23.085403,15.148322 20.007387,15.080401 C 19.960972,15.076294 19.914276,15.076294 19.86786,15.080401 L 19.86786,15.080401 z"
           id="path21281" />
        <path
           style="fill:url(#linearGradient6213);fill-opacity:1;fill-rule:evenodd;stroke:#ff00e4;stroke-width:0.30000001;stroke-linecap:round;stroke-linejoin:round;stroke-miterlimit:4;stroke-dasharray:none;stroke-opacity:0.62820524"
           d="M 26.565175,20.866655 C 26.342836,20.886519 26.139717,20.999332 26.007066,21.176633 C 24.111128,23.594089 21.732729,24.145124 18.821405,25.206346 C 18.416845,25.35852 18.213823,25.805706 18.36794,26.205164 C 18.522058,26.604621 18.974955,26.805084 19.379514,26.65291 C 22.183143,25.630944 25.011161,24.967549 27.22793,22.141009 C 27.437464,21.902962 27.479176,21.562963 27.333263,21.282403 C 27.187352,21.001843 26.883197,20.837212 26.565175,20.866655 z"
           id="path21283" />
        <path
           style="fill:url(#linearGradient6210);fill-opacity:1;fill-rule:evenodd;stroke:#ff00e4;stroke-width:0.30000001;stroke-linecap:round;stroke-linejoin:round;stroke-miterlimit:4;stroke-dasharray:none;stroke-opacity:0.62820524"
           d="M 27.925567,22.657639 C 27.680479,22.707105 27.47419,22.869442 27.370675,23.094304 C 27.267159,23.319166 27.27893,23.579371 27.40234,23.794224 C 28.96076,26.629101 28.148208,29.253226 27.78604,32.645815 C 27.737878,33.073805 28.050221,33.459311 28.483677,33.506865 C 28.917133,33.554419 29.307562,33.246015 29.355723,32.818025 C 29.698929,29.603055 30.658247,26.455566 28.797614,23.070943 C 28.638597,22.75074 28.278054,22.57986 27.925567,22.657639 L 27.925567,22.657639 z"
           id="path21285" />
        <path
           style="fill:url(#linearGradient6207);fill-opacity:1;fill-rule:evenodd;stroke:#ff00e4;stroke-width:0.30000001;stroke-linecap:round;stroke-linejoin:round;stroke-miterlimit:4;stroke-dasharray:none;stroke-opacity:0.62820524"
           d="M 28.692968,21.383285 C 28.439093,21.407918 28.213377,21.553356 28.088312,21.77289 C 27.963248,21.992423 27.954581,22.258411 28.065095,22.485429 C 29.43202,25.625477 32.415113,27.456342 33.925246,29.78713 C 34.069594,30.040571 34.345984,30.192363 34.640191,30.179773 C 34.934397,30.167185 35.196452,29.992354 35.318055,29.727533 C 35.439657,29.462713 35.400155,29.15288 35.215874,28.926081 C 33.436185,26.179251 30.606589,24.418396 29.495251,21.865473 C 29.366395,21.546284 29.039301,21.349694 28.692968,21.383285 z"
           id="path21287" />
        <path
           style="fill:url(#linearGradient6204);fill-opacity:1;fill-rule:evenodd;stroke:#ff00e4;stroke-width:0.30000001;stroke-linecap:round;stroke-linejoin:round;stroke-miterlimit:4;stroke-dasharray:none;stroke-opacity:0.62820524"
           d="M 27.40234,21.348843 C 27.075889,21.370221 26.797485,21.590135 26.704703,21.899915 C 25.836453,24.394185 24.237622,27.595016 22.379353,28.926081 C 22.032589,29.182875 21.962311,29.668611 22.222385,30.011003 C 22.482458,30.353395 22.974398,30.422786 23.321163,30.165992 C 25.752873,28.424174 27.288707,25.013305 28.204622,22.382103 C 28.296264,22.134276 28.253309,21.857396 28.090738,21.64802 C 27.928165,21.438644 27.668517,21.325801 27.40234,21.348843 z"
           id="path21289" />
        <path
           style="fill:url(#linearGradient6201);fill-opacity:1;fill-rule:evenodd;stroke:#ff00e4;stroke-width:0.30000001;stroke-linecap:round;stroke-linejoin:round;stroke-miterlimit:4;stroke-dasharray:none;stroke-opacity:0.62820524"
           d="M 18.577232,17.629108 C 18.143776,17.676663 17.831433,18.062168 17.879595,18.490158 C 17.927756,18.918148 18.318185,19.226552 18.751641,19.178998 C 20.95896,19.177178 23.704973,20.514765 26.216357,21.245517 C 26.494207,21.393245 26.834779,21.36146 27.079675,21.164944 C 27.324571,20.968427 27.425722,20.645756 27.336082,20.346998 C 27.246443,20.048241 26.983609,19.832042 26.669821,19.798954 C 24.401392,19.138895 21.563024,17.626791 18.751641,17.629108 C 18.693687,17.622682 18.635186,17.622682 18.577232,17.629108 z"
           id="path21291" />
        <path
           style="fill:url(#linearGradient6198);fill-opacity:1;fill-rule:evenodd;stroke:#ff00e4;stroke-width:0.30000001;stroke-linecap:round;stroke-linejoin:round;stroke-miterlimit:4;stroke-dasharray:none;stroke-opacity:0.62820524"
           d="M 21.856125,11.773971 C 21.548806,11.849803 21.318254,12.101324 21.272385,12.410805 C 21.226518,12.720284 21.374408,13.02649 21.646834,13.186092 C 22.800608,13.8833 23.549481,15.077277 24.297855,16.458081 C 25.046229,17.838885 25.756574,19.384334 27.018639,20.591119 C 27.210186,20.8178 27.515938,20.916689 27.80619,20.845838 C 28.096442,20.774987 28.320306,20.546815 28.382813,20.25812 C 28.445321,19.969424 28.335516,19.670817 28.099977,19.488976 C 27.114929,18.547074 26.431594,17.161681 25.658247,15.734799 C 24.8849,14.307918 24.010513,12.820826 22.449117,11.877297 C 22.273369,11.766021 22.059832,11.728812 21.856125,11.773971 z"
           id="path21293" />
        <path
           style="fill:url(#linearGradient6195);fill-opacity:1;fill-rule:evenodd;stroke:#ff00e4;stroke-width:0.30000001;stroke-linecap:round;stroke-linejoin:round;stroke-miterlimit:4;stroke-dasharray:none;stroke-opacity:0.62820524"
           d="M 37.413431,14.35712 C 37.340719,14.370193 37.270253,14.393386 37.204139,14.426004 C 33.925232,15.605497 30.66406,17.613844 28.134858,20.108932 C 27.826623,20.41328 27.826623,20.906727 28.134858,21.211075 C 28.443093,21.515423 28.942843,21.515423 29.251078,21.211075 C 31.602787,18.891085 34.675773,16.97029 37.727367,15.872567 C 38.151191,15.786969 38.424491,15.378334 38.3378,14.959854 C 38.251108,14.541375 37.837255,14.271522 37.413431,14.35712 z"
           id="path21295" />
        <path
           style="fill:url(#linearGradient6192);fill-opacity:1;fill-rule:evenodd;stroke:#ff00e4;stroke-width:0.30000001;stroke-linecap:round;stroke-linejoin:round;stroke-miterlimit:4;stroke-dasharray:none;stroke-opacity:0.62820524"
           d="M 27.820922,21.899915 C 27.522648,21.949226 27.27997,22.164048 27.197873,22.451447 C 27.115777,22.738847 27.209003,23.047217 27.437221,23.243152 C 29.47334,25.200255 30.429495,28.348239 30.158006,31.302578 C 30.077139,31.59582 30.178147,31.908617 30.415995,32.10152 C 30.653845,32.294422 30.984223,32.331493 31.259844,32.196203 C 31.535464,32.060912 31.704975,31.778468 31.692807,31.474788 C 32.001625,28.114236 31.014716,24.506768 28.553441,22.141009 C 28.369343,21.938824 28.091061,21.847232 27.820922,21.899915 z"
           id="path21297" />
        <path
           style="fill:url(#linearGradient6189);fill-opacity:1;fill-rule:evenodd;stroke:#ff00e4;stroke-width:0.30000001;stroke-linecap:round;stroke-linejoin:round;stroke-miterlimit:4;stroke-dasharray:none;stroke-opacity:0.62820524"
           d="M 27.541867,21.658821 C 27.337569,21.70316 27.159802,21.826523 27.048351,22.001302 C 26.9369,22.176081 26.901068,22.387684 26.948876,22.588755 C 27.3008,24.134154 27.192206,26.063529 26.634939,27.755053 C 26.077672,29.446577 25.096151,30.884861 23.844391,31.646998 C 23.566146,31.767361 23.383763,32.036036 23.376744,32.3359 C 23.369727,32.635766 23.539345,32.912472 23.811661,33.045399 C 24.083978,33.178325 24.409635,33.143378 24.646673,32.955793 C 26.327724,31.932281 27.458674,30.149403 28.099977,28.202799 C 28.741279,26.256195 28.91049,24.118585 28.483677,22.244335 C 28.438771,22.042613 28.313833,21.867088 28.136822,21.757042 C 27.959811,21.646996 27.745506,21.611616 27.541867,21.658821 z"
           id="path21299" />
        <path
           style="fill:url(#linearGradient6186);fill-opacity:1;fill-rule:evenodd;stroke:#ff00e4;stroke-width:0.30000001;stroke-linecap:round;stroke-linejoin:round;stroke-miterlimit:4;stroke-dasharray:none;stroke-opacity:0.62820524"
           d="M 26.948876,20.797771 C 26.627513,20.794476 26.336877,20.985789 26.216357,21.279959 C 24.745787,24.557959 22.390124,27.445608 19.553923,29.477153 C 19.285893,29.619069 19.125605,29.901643 19.143072,30.201447 C 19.16054,30.501251 19.352589,30.763811 19.635333,30.874444 C 19.918076,30.985075 20.240143,30.923675 20.460851,30.717064 C 23.534018,28.515782 26.064114,25.427188 27.646513,21.899915 C 27.760677,21.662212 27.744315,21.383457 27.603104,21.160369 C 27.461893,20.937281 27.215296,20.800607 26.948876,20.797771 L 26.948876,20.797771 z"
           id="path21301" />
        <path
           style="fill:url(#linearGradient6183);fill-opacity:1;fill-rule:evenodd;stroke:#ff00e4;stroke-width:0.30000001;stroke-linecap:round;stroke-linejoin:round;stroke-miterlimit:4;stroke-dasharray:none;stroke-opacity:0.62820524"
           d="M 28.553441,21.004423 C 28.241162,21.070726 28.001188,21.318014 27.947431,21.628904 C 27.893675,21.939796 28.036958,22.251693 28.309268,22.416545 C 30.981556,24.094577 33.452019,27.766741 37.169258,28.926081 C 37.583449,29.059233 38.028538,28.83564 38.16339,28.426672 C 38.298243,28.017704 38.071794,27.578227 37.657604,27.445075 C 34.705363,26.524326 32.260131,23.062961 29.146432,21.107749 C 28.970685,20.996474 28.757147,20.959265 28.553441,21.004423 z"
           id="path21303" />
      </g>
    </g>
  </g>
</svg>
