<?xml version="1.0" encoding="UTF-8" standalone="no"?>
<!-- Created with Inkscape (http://www.inkscape.org/) -->
<svg
   xmlns:dc="http://purl.org/dc/elements/1.1/"
   xmlns:cc="http://web.resource.org/cc/"
   xmlns:rdf="http://www.w3.org/1999/02/22-rdf-syntax-ns#"
   xmlns:svg="http://www.w3.org/2000/svg"
   xmlns="http://www.w3.org/2000/svg"
   xmlns:xlink="http://www.w3.org/1999/xlink"
   xmlns:sodipodi="http://sodipodi.sourceforge.net/DTD/sodipodi-0.dtd"
   xmlns:inkscape="http://www.inkscape.org/namespaces/inkscape"
   inkscape:export-ydpi="90.000000"
   inkscape:export-xdpi="90.000000"
   inkscape:export-filename="/home/patrick/Desktop/desktop.png"
   width="48px"
   height="48px"
   id="svg11300"
   sodipodi:version="0.32"
   inkscape:version="0.45+devel"
   sodipodi:docbase="/home/patrick/Projects/Beryl/svn/beryl/trunk/beryl-settings/images"
   sodipodi:docname="accessibility.svg"
   inkscape:output_extension="org.inkscape.output.svg.inkscape"
   sodipodi:modified="true">
  <defs
     id="defs3">
    <linearGradient
       inkscape:collect="always"
       id="linearGradient15837">
      <stop
         style="stop-color:#000000;stop-opacity:1;"
         offset="0"
         id="stop15839" />
      <stop
         style="stop-color:#000000;stop-opacity:0;"
         offset="1"
         id="stop15841" />
    </linearGradient>
    <linearGradient
       id="linearGradient10969">
      <stop
         style="stop-color:#b6cce8;stop-opacity:1;"
         offset="0"
         id="stop10971" />
      <stop
         style="stop-color:#3465a4;stop-opacity:1;"
         offset="1"
         id="stop10973" />
    </linearGradient>
    <linearGradient
       id="linearGradient9023">
      <stop
         style="stop-color:#cddcf0;stop-opacity:1;"
         offset="0"
         id="stop9025" />
      <stop
         style="stop-color:#3465a4;stop-opacity:1;"
         offset="1"
         id="stop9027" />
    </linearGradient>
    <linearGradient
       id="linearGradient8440">
      <stop
         style="stop-color:#eff0ef;stop-opacity:1;"
         offset="0"
         id="stop8442" />
      <stop
         style="stop-color:#babdb6;stop-opacity:1;"
         offset="1"
         id="stop8444" />
    </linearGradient>
    <linearGradient
       id="linearGradient47870">
      <stop
         id="stop47872"
         offset="0"
         style="stop-color:#000000;stop-opacity:0" />
      <stop
         id="stop47878"
         offset="0.5"
         style="stop-color:#000000;stop-opacity:1" />
      <stop
         id="stop47874"
         offset="1"
         style="stop-color:#000000;stop-opacity:0" />
    </linearGradient>
    <linearGradient
       id="linearGradient51765">
      <stop
         id="stop51767"
         offset="0"
         style="stop-color:#000000;stop-opacity:1" />
      <stop
         id="stop51769"
         offset="1"
         style="stop-color:#000000;stop-opacity:0" />
    </linearGradient>
    <radialGradient
       gradientTransform="matrix(-1.9576392,-9.2540676e-8,-1.2888861e-7,1.4565793,110.01781,62.73803)"
       gradientUnits="userSpaceOnUse"
       xlink:href="#linearGradient51765"
       id="radialGradient54733"
       fy="-12.203125"
       fx="51.4375"
       r="2.171875"
       cy="-12.203125"
       cx="51.4375" />
    <radialGradient
       gradientTransform="matrix(1.9576392,-8.146468e-7,6.6614241e-7,1.4565793,-59.017557,62.738067)"
       gradientUnits="userSpaceOnUse"
       xlink:href="#linearGradient51765"
       id="radialGradient54731"
       fy="-12.203125"
       fx="51.4375"
       r="2.171875"
       cy="-12.203125"
       cx="51.4375" />
    <linearGradient
       gradientTransform="matrix(0.9788196,0,0,0.7154223,-8.5008021,52.112719)"
       gradientUnits="userSpaceOnUse"
       xlink:href="#linearGradient47870"
       id="linearGradient54729"
       y2="-5.5633383"
       x2="32.084972"
       y1="-14.402173"
       x1="32.084972" />
    <linearGradient
       id="linearGradient13816">
      <stop
         id="stop13818"
         offset="0"
         style="stop-color:#f7f7f6;stop-opacity:1" />
      <stop
         id="stop13820"
         offset="1"
         style="stop-color:#eff0ee;stop-opacity:0" />
    </linearGradient>
    <linearGradient
       id="linearGradient12914">
      <stop
         id="stop12916"
         offset="0"
         style="stop-color:#3465a4;stop-opacity:1" />
      <stop
         id="stop12918"
         offset="1"
         style="stop-color:#3465a4;stop-opacity:0" />
    </linearGradient>
    <radialGradient
       inkscape:collect="always"
       xlink:href="#linearGradient9023"
       id="radialGradient9029"
       cx="10.825692"
       cy="11.969925"
       fx="10.825692"
       fy="11.969925"
       r="18.374326"
       gradientTransform="matrix(-0.6986183,1.8222966,-1.9447619,-0.745568,44.994811,-4.554959)"
       gradientUnits="userSpaceOnUse" />
    <radialGradient
       inkscape:collect="always"
       xlink:href="#linearGradient10969"
       id="radialGradient10975"
       cx="9.328125"
       cy="20.171875"
       fx="9.328125"
       fy="20.171875"
       r="15.078125"
       gradientUnits="userSpaceOnUse"
       gradientTransform="matrix(-0.7719902,1.4204211,-1.8254664,-0.9921297,55.477425,26.810124)" />
    <radialGradient
       inkscape:collect="always"
       xlink:href="#linearGradient15837"
       id="radialGradient15843"
       cx="26.812502"
       cy="0.49999759"
       fx="26.812502"
       fy="0.49999759"
       r="25.312502"
       gradientTransform="matrix(1,0,0,7.4074073e-2,0,0.4629607)"
       gradientUnits="userSpaceOnUse" />
    <radialGradient
       inkscape:collect="always"
       xlink:href="#linearGradient9023"
       id="radialGradient15852"
       gradientUnits="userSpaceOnUse"
       gradientTransform="matrix(-0.6986183,1.8222966,-1.9447619,-0.745568,44.994811,-4.554959)"
       cx="10.825692"
       cy="11.969925"
       fx="10.825692"
       fy="11.969925"
       r="18.374326" />
    <radialGradient
       inkscape:collect="always"
       xlink:href="#linearGradient10969"
       id="radialGradient15854"
       gradientUnits="userSpaceOnUse"
       gradientTransform="matrix(-0.7719902,1.4204211,-1.8254664,-0.9921297,55.477425,26.810124)"
       cx="9.328125"
       cy="20.171875"
       fx="9.328125"
       fy="20.171875"
       r="15.078125" />
    <radialGradient
       inkscape:collect="always"
       xlink:href="#linearGradient15837"
       id="radialGradient15856"
       gradientUnits="userSpaceOnUse"
       gradientTransform="matrix(1,0,0,7.4074073e-2,0,0.4629607)"
       cx="26.812502"
       cy="0.49999759"
       fx="26.812502"
       fy="0.49999759"
       r="25.312502" />
  </defs>
  <sodipodi:namedview
     stroke="#ef2929"
     fill="#eeeeec"
     id="base"
     pagecolor="#ffffff"
     bordercolor="#666666"
     borderopacity="0.25490196"
     inkscape:pageopacity="0.0"
     inkscape:pageshadow="2"
     inkscape:zoom="0.99999995"
     inkscape:cx="31.519091"
     inkscape:cy="25.294072"
     inkscape:current-layer="layer1"
     showgrid="false"
     inkscape:grid-bbox="true"
     inkscape:document-units="px"
     inkscape:showpageshadow="false"
     inkscape:window-width="906"
     inkscape:window-height="659"
     inkscape:window-x="61"
     inkscape:window-y="44"
     showguides="true"
     inkscape:guide-bbox="true" />
  <metadata
     id="metadata4">
    <rdf:RDF>
      <cc:Work
         rdf:about="">
        <dc:format>image/svg+xml</dc:format>
        <dc:type
           rdf:resource="http://purl.org/dc/dcmitype/StillImage" />
        <dc:creator>
          <cc:Agent>
            <dc:title>Patrick Niklaus</dc:title>
          </cc:Agent>
        </dc:creator>
        <dc:source />
        <cc:license
           rdf:resource="http://creativecommons.org/licenses/GPL/2.0/" />
        <dc:title>Window Management</dc:title>
        <dc:subject>
          <rdf:Bag />
        </dc:subject>
      </cc:Work>
      <cc:License
         rdf:about="http://creativecommons.org/licenses/GPL/2.0/">
        <cc:permits
           rdf:resource="http://web.resource.org/cc/Reproduction" />
        <cc:permits
           rdf:resource="http://web.resource.org/cc/Distribution" />
        <cc:requires
           rdf:resource="http://web.resource.org/cc/Notice" />
        <cc:permits
           rdf:resource="http://web.resource.org/cc/DerivativeWorks" />
        <cc:requires
           rdf:resource="http://web.resource.org/cc/ShareAlike" />
        <cc:requires
           rdf:resource="http://web.resource.org/cc/SourceCode" />
      </cc:License>
    </rdf:RDF>
  </metadata>
  <g
     id="layer1"
     inkscape:label="Layer 1"
     inkscape:groupmode="layer">
    <g
       id="g15845"
       transform="translate(-0.5,-1.0000001)">
      <path
         id="path2210"
         d="M 14.716306,3.0643398 C 12.055271,3.0643398 9.9038058,5.2158056 9.9038058,7.8768398 C 9.9038058,10.360666 11.770422,12.396467 14.185056,12.65809 C 13.964546,12.964356 13.856219,13.3428 13.903806,13.72059 L 15.903806,31.72059 C 15.950094,32.125989 16.173265,32.5042 16.497556,32.75184 C 16.821846,32.999482 17.219276,33.095182 17.622556,33.03309 L 33.685056,30.50184 L 35.435056,40.68934 C 35.50356,41.084016 35.73134,41.429163 36.060056,41.65809 C 36.388772,41.887018 36.791116,41.980707 37.185056,41.90809 L 44.310056,40.53309 C 44.871039,40.471188 45.360797,40.092384 45.560056,39.56434 C 45.759315,39.036298 45.627796,38.450165 45.247556,38.03309 C 44.867316,37.616015 44.291722,37.445867 43.747556,37.59559 L 38.122556,38.68934 L 36.372556,28.56434 C 36.229263,27.770433 35.483756,27.232011 34.685056,27.34559 L 18.716306,29.84559 L 17.747556,21.03309 C 17.854036,21.027448 17.954683,20.999583 18.060056,20.97059 L 31.122556,18.50184 C 31.942354,18.381028 32.524618,17.634138 32.403806,16.81434 C 32.282994,15.994542 31.504854,15.412278 30.685056,15.53309 C 30.642961,15.541712 30.601256,15.552138 30.560056,15.56434 L 17.497556,18.03309 C 17.464464,18.036742 17.436285,18.058565 17.403806,18.06434 L 16.903806,13.40809 C 16.869459,12.996356 16.666613,12.62545 16.372556,12.37684 C 18.213352,11.69817 19.528806,9.952346 19.528806,7.8768398 C 19.528806,5.2158054 17.37734,3.06434 14.716306,3.0643398 z"
         style="opacity:1;fill:url(#radialGradient15852);fill-opacity:1;fill-rule:evenodd;stroke:#204a87;stroke-width:1;stroke-linecap:butt;stroke-linejoin:miter;stroke-miterlimit:4;stroke-dasharray:none;stroke-dashoffset:0;stroke-opacity:1" />
      <path
         sodipodi:nodetypes="cssccsscc"
         id="path5138"
         d="M 11.125,16.34375 C 6.2252581,18.913065 2.8750001,24.101281 2.8750001,30.0625 C 2.8750001,38.553037 9.6805816,45.500001 18.0625,45.5 C 24.324461,45.5 29.709303,41.62656 32.03125,36.125 L 28.71875,36.125 C 26.63556,39.935859 22.640163,42.5 18.0625,42.5 C 11.333418,42.500001 5.8750001,36.958964 5.8750001,30.0625 C 5.8750002,25.809218 7.9550352,22.084065 11.125,19.84375 L 11.125,16.34375 z"
         style="opacity:1;fill:url(#radialGradient15854);fill-opacity:1;fill-rule:evenodd;stroke:#204a87;stroke-width:1;stroke-linecap:round;stroke-linejoin:round;stroke-miterlimit:4;stroke-dasharray:none;stroke-dashoffset:0;stroke-opacity:1" />
      <path
         d="M 14.71875,3.75 C 12.434298,3.7499999 10.59375,5.5905489 10.59375,7.875 C 10.59375,10.008792 12.182915,11.744784 14.25,11.96875 C 14.49556,11.994786 14.709143,12.148501 14.811809,12.373084 C 14.914475,12.597666 14.890978,12.859761 14.75,13.0625 C 14.625557,13.235339 14.569824,13.435049 14.59375,13.625 C 14.593983,13.635415 14.593983,13.645835 14.59375,13.65625 L 16.59375,31.65625 C 16.616881,31.858834 16.763036,32.054273 16.9375,32.1875 C 17.111958,32.320725 17.302916,32.378906 17.53125,32.34375 L 33.59375,29.8125 C 33.962396,29.762085 34.305887,30.009398 34.375,30.375 L 36.125,40.5625 C 36.160616,40.767692 36.286075,40.96653 36.46875,41.09375 C 36.651426,41.220971 36.85732,41.256572 37.0625,41.21875 L 44.1875,39.84375 C 44.208323,39.842818 44.229177,39.842818 44.25,39.84375 C 44.546189,39.811067 44.801533,39.590003 44.90625,39.3125 C 45.009361,39.039254 44.933468,38.735518 44.71875,38.5 C 44.511276,38.272427 44.229627,38.200874 43.9375,38.28125 C 43.916677,38.282182 43.895823,38.282182 43.875,38.28125 L 38.25,39.375 C 37.870299,39.444058 37.506517,39.192208 37.4375,38.8125 L 35.6875,28.6875 C 35.609637,28.256101 35.215254,27.969533 34.78125,28.03125 L 18.8125,30.53125 C 18.62557,30.5544 18.437211,30.501099 18.290129,30.383433 C 18.143046,30.265767 18.049698,30.093702 18.03125,29.90625 L 17.0625,21.09375 C 17.048436,20.906891 17.110016,20.722213 17.233412,20.581189 C 17.356808,20.440165 17.531677,20.354615 17.71875,20.34375 C 17.727089,20.343308 17.768949,20.310429 17.875,20.28125 C 17.895823,20.280318 17.916677,20.280318 17.9375,20.28125 L 31,17.8125 C 31.010415,17.812267 31.020835,17.812267 31.03125,17.8125 C 31.487359,17.745283 31.783432,17.345168 31.71875,16.90625 C 31.65559,16.47766 31.237888,16.173349 30.8125,16.21875 C 30.801253,16.221054 30.792383,16.215967 30.78125,16.21875 C 30.770117,16.221533 30.761007,16.21549 30.75,16.21875 C 30.729701,16.230203 30.708841,16.240632 30.6875,16.25 L 17.625,18.71875 C 17.604177,18.719682 17.583323,18.719682 17.5625,18.71875 C 17.788082,18.693863 17.793853,18.703307 17.53125,18.75 C 17.339425,18.782493 17.142739,18.733537 16.988528,18.614913 C 16.834318,18.496289 16.736548,18.318741 16.71875,18.125 L 16.21875,13.46875 C 16.200457,13.249469 16.090894,13.035936 15.9375,12.90625 C 15.747409,12.748855 15.654448,12.502857 15.692939,12.259082 C 15.731429,12.015308 15.895663,11.809919 16.125,11.71875 C 17.70228,11.137233 18.84375,9.6552977 18.84375,7.875 C 18.843749,5.5905487 17.003201,3.7500002 14.71875,3.75 z"
         id="path13891"
         style="opacity:1;fill:none;fill-opacity:1;fill-rule:evenodd;stroke:#cdddf4;stroke-width:0.5;stroke-linecap:butt;stroke-linejoin:miter;stroke-miterlimit:4;stroke-dasharray:none;stroke-dashoffset:0;stroke-opacity:1"
         inkscape:original="M 14.71875 3.0625 C 12.057715 3.0624999 9.90625 5.2139658 9.90625 7.875 C 9.9062501 10.358826 11.772866 12.394627 14.1875 12.65625 C 13.96699 12.962516 13.858663 13.34096 13.90625 13.71875 L 15.90625 31.71875 C 15.952538 32.124148 16.175709 32.50236 16.5 32.75 C 16.824289 32.997643 17.22172 33.093342 17.625 33.03125 L 33.6875 30.5 L 35.4375 40.6875 C 35.506005 41.082177 35.733784 41.427323 36.0625 41.65625 C 36.391217 41.885179 36.79356 41.978867 37.1875 41.90625 L 44.3125 40.53125 C 44.873484 40.469349 45.363241 40.090544 45.5625 39.5625 C 45.76176 39.034459 45.63024 38.448325 45.25 38.03125 C 44.869761 37.614176 44.294166 37.444027 43.75 37.59375 L 38.125 38.6875 L 36.375 28.5625 C 36.231708 27.768592 35.4862 27.230171 34.6875 27.34375 L 18.71875 29.84375 L 17.75 21.03125 C 17.856479 21.025607 17.957127 20.997743 18.0625 20.96875 L 31.125 18.5 C 31.944797 18.379187 32.527062 17.632298 32.40625 16.8125 C 32.285439 15.992701 31.507298 15.410438 30.6875 15.53125 C 30.645404 15.539872 30.6037 15.550298 30.5625 15.5625 L 17.5 18.03125 C 17.466907 18.034901 17.438729 18.056725 17.40625 18.0625 L 16.90625 13.40625 C 16.871902 12.994516 16.669057 12.62361 16.375 12.375 C 18.215795 11.69633 19.53125 9.9505062 19.53125 7.875 C 19.531249 5.2139658 17.379784 3.0625002 14.71875 3.0625 z "
         inkscape:radius="-0.69866377"
         sodipodi:type="inkscape:offset" />
      <path
         d="M 10.53125,17.5 C 6.3350586,20.112885 3.46875,24.709522 3.46875,30.0625 C 3.4687501,38.239932 10.004333,44.906251 18.0625,44.90625 C 23.76314,44.90625 28.688203,41.567386 31.09375,36.71875 L 29,36.71875 C 26.77068,40.522963 22.722719,43.09375 18.0625,43.09375 C 11.011759,43.093751 5.28125,37.268136 5.28125,30.0625 C 5.2812502,25.739933 7.3626825,21.959022 10.53125,19.59375 L 10.53125,17.5 z"
         id="path14864"
         style="opacity:1;fill:none;fill-opacity:1;fill-rule:evenodd;stroke:#cdddf4;stroke-width:0.5;stroke-linecap:round;stroke-linejoin:round;stroke-miterlimit:4;stroke-dasharray:none;stroke-dashoffset:0;stroke-opacity:1"
         inkscape:original="M 11.125 16.34375 C 6.2252581 18.913065 2.875 24.101281 2.875 30.0625 C 2.8750001 38.553037 9.6805816 45.500001 18.0625 45.5 C 24.324461 45.5 29.709303 41.62656 32.03125 36.125 L 28.71875 36.125 C 26.63556 39.935859 22.640163 42.5 18.0625 42.5 C 11.333418 42.500001 5.875 36.958964 5.875 30.0625 C 5.8750002 25.809218 7.9550352 22.084065 11.125 19.84375 L 11.125 16.34375 z "
         inkscape:radius="-0.58593756"
         sodipodi:type="inkscape:offset" />
      <path
         transform="matrix(0.945679,0,0,1,-1.1685186,45.750002)"
         d="M 52.125004,0.49999759 A 25.312502,1.8750001 0 1 1 1.5,0.49999759 A 25.312502,1.8750001 0 1 1 52.125004,0.49999759 z"
         sodipodi:ry="1.8750001"
         sodipodi:rx="25.312502"
         sodipodi:cy="0.49999759"
         sodipodi:cx="26.812502"
         id="path14866"
         style="opacity:0.24694375;fill:url(#radialGradient15856);fill-opacity:1;fill-rule:evenodd;stroke:none;stroke-width:0.5;stroke-linecap:round;stroke-linejoin:round;stroke-miterlimit:4;stroke-dasharray:none;stroke-dashoffset:0;stroke-opacity:1"
         sodipodi:type="arc" />
    </g>
  </g>
</svg>
