<?xml version="1.0" encoding="UTF-8" standalone="no"?>
<!-- Created with Inkscape (http://www.inkscape.org/) -->
<svg
   xmlns:dc="http://purl.org/dc/elements/1.1/"
   xmlns:cc="http://web.resource.org/cc/"
   xmlns:rdf="http://www.w3.org/1999/02/22-rdf-syntax-ns#"
   xmlns:svg="http://www.w3.org/2000/svg"
   xmlns="http://www.w3.org/2000/svg"
   xmlns:xlink="http://www.w3.org/1999/xlink"
   xmlns:sodipodi="http://sodipodi.sourceforge.net/DTD/sodipodi-0.dtd"
   xmlns:inkscape="http://www.inkscape.org/namespaces/inkscape"
   inkscape:export-ydpi="90.000000"
   inkscape:export-xdpi="90.000000"
   inkscape:export-filename="/home/patrick/Desktop/extras.png"
   width="48px"
   height="48px"
   id="svg11300"
   sodipodi:version="0.32"
   inkscape:version="0.45+devel"
   sodipodi:docbase="/home/patrick/Projects/Beryl/svn/beryl/trunk/beryl-settings/images"
   sodipodi:docname="extras.svg"
   inkscape:output_extension="org.inkscape.output.svg.inkscape">
  <defs
     id="defs3">
    <linearGradient
       id="linearGradient12474">
      <stop
         style="stop-color:#888a85;stop-opacity:1;"
         offset="0"
         id="stop12476" />
      <stop
         id="stop12478"
         offset="0.43635526"
         style="stop-color:#d5d8d0;stop-opacity:1;" />
      <stop
         style="stop-color:#888a85;stop-opacity:1;"
         offset="1"
         id="stop12480" />
    </linearGradient>
    <linearGradient
       id="linearGradient10882">
      <stop
         id="stop10884"
         offset="0"
         style="stop-color:#888a85;stop-opacity:1;" />
      <stop
         style="stop-color:#d5d8d0;stop-opacity:1;"
         offset="0.29566121"
         id="stop10886" />
      <stop
         id="stop10888"
         offset="1"
         style="stop-color:#888a85;stop-opacity:1;" />
    </linearGradient>
    <linearGradient
       id="linearGradient7193">
      <stop
         style="stop-color:#cacdc6;stop-opacity:1;"
         offset="0"
         id="stop7195" />
      <stop
         style="stop-color:#888a85;stop-opacity:1;"
         offset="1"
         id="stop7197" />
    </linearGradient>
    <linearGradient
       id="linearGradient13113">
      <stop
         style="stop-color:#888a85;stop-opacity:1;"
         offset="0"
         id="stop13115" />
      <stop
         style="stop-color:#ffffff;stop-opacity:1;"
         offset="1"
         id="stop13117" />
    </linearGradient>
    <linearGradient
       id="linearGradient11167">
      <stop
         style="stop-color:#888a85;stop-opacity:1;"
         offset="0"
         id="stop11169" />
      <stop
         style="stop-color:#3e3f3d;stop-opacity:1;"
         offset="1"
         id="stop11171" />
    </linearGradient>
    <linearGradient
       id="linearGradient12083">
      <stop
         style="stop-color:#3d76c0;stop-opacity:1;"
         offset="0"
         id="stop12085" />
      <stop
         style="stop-color:#b8cde9;stop-opacity:1;"
         offset="1"
         id="stop12087" />
    </linearGradient>
    <linearGradient
       inkscape:collect="always"
       id="linearGradient30743">
      <stop
         style="stop-color:#000000;stop-opacity:1;"
         offset="0"
         id="stop30745" />
      <stop
         style="stop-color:#000000;stop-opacity:0;"
         offset="1"
         id="stop30747" />
    </linearGradient>
    <radialGradient
       inkscape:collect="always"
       xlink:href="#linearGradient30743"
       id="radialGradient19051"
       gradientUnits="userSpaceOnUse"
       gradientTransform="matrix(1,0,0,0.6052632,0,2.3684209)"
       cx="10.5"
       cy="5.9999995"
       fx="10.5"
       fy="5.9999995"
       r="9.5" />
    <linearGradient
       inkscape:collect="always"
       xlink:href="#linearGradient11167"
       id="linearGradient2338"
       gradientUnits="userSpaceOnUse"
       gradientTransform="matrix(1.1301011,0,0,1.1294876,-2.5345432,-7.7670243)"
       x1="33.754112"
       y1="20.884542"
       x2="47.7472"
       y2="66.316154" />
    <linearGradient
       inkscape:collect="always"
       xlink:href="#linearGradient13113"
       id="linearGradient2341"
       gradientUnits="userSpaceOnUse"
       gradientTransform="matrix(1.1300504,0,0,1.1475306,-2.5335709,-7.9780882)"
       x1="31.763943"
       y1="7.8864264"
       x2="-31.887341"
       y2="32.188019" />
    <linearGradient
       inkscape:collect="always"
       xlink:href="#linearGradient12083"
       id="linearGradient8559"
       gradientUnits="userSpaceOnUse"
       gradientTransform="matrix(5.6198796e-4,1.0326513,-0.723359,0.176583,13.123916,-10.287467)"
       x1="36.433189"
       y1="13.81597"
       x2="-11.985648"
       y2="72.788925" />
    <linearGradient
       inkscape:collect="always"
       xlink:href="#linearGradient10882"
       id="linearGradient10118"
       gradientUnits="userSpaceOnUse"
       gradientTransform="matrix(1.1301775,0,0,1.1364985,-2.5364409,-7.8500529)"
       x1="22.124538"
       y1="16.003416"
       x2="18.7372"
       y2="24.440916" />
    <linearGradient
       inkscape:collect="always"
       xlink:href="#linearGradient10882"
       id="linearGradient10915"
       gradientUnits="userSpaceOnUse"
       gradientTransform="matrix(-1.1301775,0,0,1.1364985,50.571388,-8.0268296)"
       x1="22.124538"
       y1="16.003416"
       x2="18.7372"
       y2="24.440916" />
    <linearGradient
       inkscape:collect="always"
       xlink:href="#linearGradient12474"
       id="linearGradient16327"
       gradientUnits="userSpaceOnUse"
       gradientTransform="matrix(1,0,0,0.6535952,0.6875,-3.7722587)"
       x1="9.7987633"
       y1="-6.8718114"
       x2="28.1395"
       y2="-22.475525" />
    <linearGradient
       inkscape:collect="always"
       xlink:href="#linearGradient12474"
       id="linearGradient16329"
       gradientUnits="userSpaceOnUse"
       gradientTransform="matrix(1,0,0,0.6535952,0.6875,-3.7722587)"
       x1="9.7987633"
       y1="-6.8718114"
       x2="28.1395"
       y2="-22.475525" />
    <radialGradient
       inkscape:collect="always"
       xlink:href="#linearGradient7193"
       id="radialGradient16720"
       cx="23.421877"
       cy="7.7656231"
       fx="23.421877"
       fy="7.7656231"
       r="2.265625"
       gradientUnits="userSpaceOnUse" />
  </defs>
  <sodipodi:namedview
     stroke="#ef2929"
     fill="#eeeeec"
     id="base"
     pagecolor="#ffffff"
     bordercolor="#666666"
     borderopacity="0.25490196"
     inkscape:pageopacity="0.0"
     inkscape:pageshadow="2"
     inkscape:zoom="0.99999996"
     inkscape:cx="27.576431"
     inkscape:cy="42.638245"
     inkscape:current-layer="layer1"
     showgrid="false"
     inkscape:grid-bbox="true"
     inkscape:document-units="px"
     inkscape:showpageshadow="false"
     inkscape:window-width="906"
     inkscape:window-height="662"
     inkscape:window-x="173"
     inkscape:window-y="60"
     showguides="true"
     inkscape:guide-bbox="true" />
  <metadata
     id="metadata4">
    <rdf:RDF>
      <cc:Work
         rdf:about="">
        <dc:format>image/svg+xml</dc:format>
        <dc:type
           rdf:resource="http://purl.org/dc/dcmitype/StillImage" />
        <dc:creator>
          <cc:Agent>
            <dc:title>Patrick Niklaus</dc:title>
          </cc:Agent>
        </dc:creator>
        <dc:source />
        <cc:license
           rdf:resource="http://creativecommons.org/licenses/GPL/2.0/" />
        <dc:title>Image</dc:title>
        <dc:subject>
          <rdf:Bag />
        </dc:subject>
      </cc:Work>
      <cc:License
         rdf:about="http://creativecommons.org/licenses/GPL/2.0/">
        <cc:permits
           rdf:resource="http://web.resource.org/cc/Reproduction" />
        <cc:permits
           rdf:resource="http://web.resource.org/cc/Distribution" />
        <cc:requires
           rdf:resource="http://web.resource.org/cc/Notice" />
        <cc:permits
           rdf:resource="http://web.resource.org/cc/DerivativeWorks" />
        <cc:requires
           rdf:resource="http://web.resource.org/cc/ShareAlike" />
        <cc:requires
           rdf:resource="http://web.resource.org/cc/SourceCode" />
      </cc:License>
    </rdf:RDF>
  </metadata>
  <g
     id="layer1"
     inkscape:label="Layer 1"
     inkscape:groupmode="layer">
    <path
       sodipodi:type="arc"
       style="opacity:0.53896107;fill:url(#radialGradient19051);fill-opacity:1;fill-rule:evenodd;stroke:none;stroke-width:0.5;stroke-linecap:round;stroke-linejoin:round;stroke-miterlimit:4;stroke-dasharray:none;stroke-dashoffset:0;stroke-opacity:1"
       id="path29772"
       sodipodi:cx="10.5"
       sodipodi:cy="5.9999995"
       sodipodi:rx="9.5"
       sodipodi:ry="5.75"
       d="M 20,5.9999995 A 9.5,5.75 0 1 1 1,5.9999995 A 9.5,5.75 0 1 1 20,5.9999995 z"
       transform="matrix(2.5131578,0,0,1.4823893,-2.1903808,30.712576)" />
    <g
       id="g8551"
       transform="translate(41.103555,8.2196703)">
      <path
         sodipodi:nodetypes="ccccccc"
         id="path2219"
         d="M -17.875001,-3.7812499 L -38.718751,1.0312501 L -38.718751,30.78125 L -18.000001,35.84375 L 2.7187486,30.78125 L 2.7187486,1.0312501 L -17.875001,-3.7812499 z"
         style="opacity:1;fill:url(#linearGradient8559);fill-opacity:1;fill-rule:evenodd;stroke:#33517a;stroke-width:1;stroke-linecap:butt;stroke-linejoin:miter;stroke-miterlimit:4;stroke-dasharray:none;stroke-dashoffset:0;stroke-opacity:1" />
      <path
         d="M -17.875,-2.75 L -37.71875,1.8125 L -37.71875,30 L -18,34.8125 L 1.71875,30 L 1.71875,1.8125 L -17.875,-2.75 z"
         id="path3961"
         style="opacity:1;fill:none;fill-opacity:1;fill-rule:evenodd;stroke:#e5ecf5;stroke-width:1;stroke-linecap:butt;stroke-linejoin:miter;stroke-miterlimit:4;stroke-dasharray:none;stroke-dashoffset:0;stroke-opacity:1"
         inkscape:original="M -17.875 -3.78125 L -38.71875 1.03125 L -38.71875 30.78125 L -18 35.84375 L 2.71875 30.78125 L 2.71875 1.03125 L -17.875 -3.78125 z "
         inkscape:radius="-0.99479598"
         sodipodi:type="inkscape:offset" />
      <path
         style="fill:none;fill-rule:evenodd;stroke:#e5ecf5;stroke-width:1px;stroke-linecap:butt;stroke-linejoin:miter;stroke-opacity:1"
         d="M -17.287875,5.4785269 L -17.332069,34.844448"
         id="path4346"
         sodipodi:nodetypes="cc" />
      <path
         id="path2811"
         d="M -38.750002,1.0624979 L -18.062501,6.1249986 L 2.5000002,0.93749794"
         style="fill:none;fill-rule:evenodd;stroke:#33517a;stroke-width:1px;stroke-linecap:butt;stroke-linejoin:miter;stroke-opacity:1" />
      <path
         sodipodi:nodetypes="cc"
         id="path2813"
         d="M -18.304341,6.0740376 L -18.348535,36.037689"
         style="fill:none;fill-rule:evenodd;stroke:#33517a;stroke-width:1px;stroke-linecap:butt;stroke-linejoin:miter;stroke-opacity:1" />
      <path
         sodipodi:nodetypes="ccc"
         style="fill:none;fill-rule:evenodd;stroke:#e5ecf5;stroke-width:1px;stroke-linecap:butt;stroke-linejoin:miter;stroke-opacity:1"
         d="M -34.375002,1.0955877 L -18.046876,5.0955884 L -1.71875,0.95496277"
         id="path3963" />
    </g>
    <path
       style="fill:url(#linearGradient2341);fill-opacity:1;fill-rule:evenodd;stroke:#5b5c58;stroke-width:1;stroke-linecap:butt;stroke-linejoin:miter;stroke-miterlimit:4;stroke-dasharray:none;stroke-opacity:1"
       d="M 9.6356008,40.691514 L 10.110047,10.922298 L 31.185419,5.495881 L 36.304438,6.6876637 L 14.979357,12.240865 L 14.380056,41.959369 L 9.6356008,40.691514 z"
       id="path2375"
       sodipodi:nodetypes="ccccccc" />
    <path
       style="fill:url(#linearGradient2338);fill-opacity:1;fill-rule:evenodd;stroke:#5b5c58;stroke-width:0.99999994;stroke-linecap:butt;stroke-linejoin:miter;stroke-miterlimit:4;stroke-dasharray:none;stroke-opacity:1"
       d="M 38.873037,40.106319 L 38.39857,10.80517 L 17.322249,5.4640749 L 12.203001,6.637119 L 33.529041,12.103006 L 34.128368,41.354239 L 38.873037,40.106319 z"
       id="path6271"
       sodipodi:nodetypes="ccccccc" />
    <path
       sodipodi:type="inkscape:offset"
       inkscape:radius="-0.73308986"
       inkscape:original="M 17.3125 5.46875 L 12.1875 6.65625 L 33.53125 12.1875 L 34.125 41.84375 L 38.875 40.5625 L 38.40625 10.875 L 17.3125 5.46875 z "
       style="fill:none;fill-opacity:1;fill-rule:evenodd;stroke:#d7d8d7;stroke-width:0.5041967;stroke-linecap:butt;stroke-linejoin:miter;stroke-miterlimit:4;stroke-dasharray:none;stroke-opacity:1"
       id="path8549"
       d="M 17.28125,6.21875 L 15.28125,6.6875 L 33.71875,11.46875 C 34.038278,11.560223 34.256302,11.855197 34.25,12.1875 L 34.8125,40.875 L 38.15625,40 L 37.6875,11.46875 L 17.28125,6.21875 z"
       transform="matrix(1,0,0,0.9834222,0,0.1030932)" />
    <path
       sodipodi:type="inkscape:offset"
       inkscape:radius="-0.76851851"
       inkscape:original="M 31.1875 5.5 L 10.125 10.9375 L 9.625 40.78125 L 14.375 42.0625 L 14.96875 12.25 L 36.3125 6.6875 L 31.1875 5.5 z "
       style="fill:none;fill-opacity:1;fill-rule:evenodd;stroke:#d7d8d7;stroke-width:0.50364155;stroke-linecap:butt;stroke-linejoin:miter;stroke-miterlimit:4;stroke-dasharray:none;stroke-opacity:1"
       id="path6636"
       d="M 31.1875,6.28125 L 10.90625,11.53125 L 10.40625,40.1875 L 13.625,41.0625 L 14.1875,12.25 C 14.186776,11.892292 14.43292,11.581373 14.78125,11.5 L 33.09375,6.71875 L 31.1875,6.28125 z"
       transform="matrix(1,0,0,0.9974587,0,1.5962317e-2)" />
    <g
       id="g10901">
      <path
         id="path9209"
         d="M 23.31965,7.5034452 L 17.118084,12.274974 L 15.940269,21.514311 L 18.16783,18.710111 L 20.779924,22.080836 L 21.230633,13.252739 L 25.067804,8.055938 L 23.31965,7.5034452 z"
         style="fill:url(#linearGradient10118);fill-opacity:1;fill-rule:evenodd;stroke:#5b5c58;stroke-width:0.50000000000000000;stroke-linecap:butt;stroke-linejoin:miter;stroke-miterlimit:4;stroke-dasharray:none;stroke-opacity:1"
         sodipodi:nodetypes="cccccccc" />
      <path
         style="fill:none;fill-opacity:1;fill-rule:evenodd;stroke:#d7d8d7;stroke-width:0.50000000000000000;stroke-linecap:butt;stroke-linejoin:miter;stroke-miterlimit:4;stroke-opacity:1"
         d="M 23.46875,8.0625 L 17.612595,12.455806 L 16.686738,19.715991 L 18.204263,17.895456 L 20.347514,20.695195 C 20.345033,20.697852 20.705932,13.064988 20.722486,13.074956 L 24.28125,8.34375 L 23.46875,8.0625 z"
         id="path8944"
         sodipodi:nodetypes="cccccccc" />
    </g>
    <path
       id="path10907"
       d="M 24.715297,7.3266685 L 30.916863,12.098197 L 32.801785,22.751748 L 29.469369,19.373023 L 26.768888,24.02538 L 26.804314,13.075962 L 22.967143,7.8791613 L 24.715297,7.3266685 z"
       style="fill:url(#linearGradient10915);fill-opacity:1;fill-rule:evenodd;stroke:#5b5c58;stroke-width:0.5;stroke-linecap:butt;stroke-linejoin:miter;stroke-miterlimit:4;stroke-dasharray:none;stroke-opacity:1"
       sodipodi:nodetypes="cccccccc" />
    <path
       style="fill:none;fill-opacity:1;fill-rule:evenodd;stroke:#d7d8d7;stroke-width:0.5;stroke-linecap:butt;stroke-linejoin:miter;stroke-miterlimit:4;stroke-opacity:1"
       d="M 24.566197,7.8857233 L 30.422352,12.279029 L 32.011122,21.24069 L 29.366645,18.536271 L 27.245491,22.286185 C 27.247972,22.288842 27.329015,12.888211 27.312461,12.898179 L 23.753697,8.1669733 L 24.566197,7.8857233 z"
       id="path10909"
       sodipodi:nodetypes="cccccccc" />
    <g
       id="g16305"
       transform="translate(-2.0625001,18.312501)">
      <path
         id="path12074"
         d="M 15.1875,-15.625 C 13.209036,-15.625 11.390697,-15.226237 10.03125,-14.53125 C 8.6718026,-13.836263 7.7499997,-12.799287 7.75,-11.65625 C 7.75,-10.513213 8.6718027,-9.4762374 10.03125,-8.78125 C 11.390697,-8.0862623 13.209036,-7.6875 15.1875,-7.6875 C 17.002446,-7.6874999 19.655011,-7.8008513 21.96875,-8.15625 C 23.12562,-8.3339489 24.210451,-8.5720459 25.09375,-8.9375 C 25.977049,-9.3029539 26.75,-9.9006896 26.75,-10.65625 C 26.75,-11.411811 26.090496,-12.012677 25.28125,-12.5625 C 24.472004,-13.112323 23.433623,-13.620217 22.28125,-14.0625 C 19.976504,-14.947066 17.329482,-15.624999 15.1875,-15.625 z M 15.375,-12.59375 C 15.537851,-12.59375 16.389403,-12.500536 17.3125,-12.3125 C 18.235597,-12.124464 19.317185,-11.870389 20.1875,-11.5625 C 18.78017,-11.516816 17.375664,-11.432058 15.96875,-11.375 C 15.086411,-11.404463 12.499896,-11.477658 12.625,-11.96875 C 12.708145,-12.028837 12.83434,-12.109438 13,-12.1875 C 13.468035,-12.408047 14.359115,-12.59375 15.375,-12.59375 z"
         style="fill:url(#linearGradient16329);fill-opacity:1;fill-rule:evenodd;stroke:#5b5c58;stroke-width:0.5;stroke-linecap:butt;stroke-linejoin:miter;stroke-miterlimit:4;stroke-dashoffset:0;stroke-opacity:1" />
      <path
         d="M 15.1875,-15.125 C 13.277297,-15.125 11.516097,-14.741014 10.25,-14.09375 C 8.9900407,-13.449624 8.2499998,-12.526162 8.25,-11.65625 C 8.25,-10.786338 8.9900407,-9.8628764 10.25,-9.21875 C 11.516097,-8.5714857 13.277297,-8.1875 15.1875,-8.1875 C 16.981294,-8.1874999 19.634079,-8.3072363 21.90625,-8.65625 C 23.042918,-8.8308458 24.086702,-9.067172 24.90625,-9.40625 C 25.30586,-9.5715836 25.667725,-9.8037928 25.90625,-10.03125 C 26.144775,-10.258707 26.25,-10.451705 26.25,-10.65625 C 26.25,-10.886221 26.153542,-11.08925 25.9375,-11.34375 C 25.721458,-11.59825 25.386531,-11.893631 25,-12.15625 C 24.237555,-12.674275 23.219969,-13.161505 22.09375,-13.59375 C 19.82942,-14.462804 17.222292,-15.124999 15.1875,-15.125 z M 15.375,-13.09375 C 15.553352,-13.09375 15.766206,-13.079422 16.125,-13.03125 C 16.483794,-12.983078 16.930851,-12.909339 17.40625,-12.8125 C 18.340998,-12.622091 19.431519,-12.353968 20.34375,-12.03125 C 20.551859,-11.941413 20.675283,-11.724583 20.646275,-11.499775 C 20.617267,-11.274967 20.442847,-11.096569 20.21875,-11.0625 C 18.82083,-11.017121 17.413589,-10.932329 16,-10.875 C 15.979186,-10.873717 15.958314,-10.873717 15.9375,-10.875 C 15.498855,-10.889647 14.648504,-10.913008 13.875,-11 C 13.488248,-11.043496 13.11545,-11.09055 12.8125,-11.1875 C 12.661025,-11.235975 12.522489,-11.286607 12.375,-11.40625 C 12.227511,-11.525893 12.057301,-11.827999 12.125,-12.09375 C 12.153568,-12.206153 12.219731,-12.305398 12.3125,-12.375 C 12.418628,-12.451696 12.583605,-12.563116 12.78125,-12.65625 C 13.374727,-12.935908 14.297205,-13.09375 15.375,-13.09375 z"
         id="path14394"
         style="fill:none;fill-opacity:1;fill-rule:evenodd;stroke:#d7d8d7;stroke-width:0.5;stroke-linecap:butt;stroke-linejoin:miter;stroke-miterlimit:4;stroke-dashoffset:0;stroke-opacity:1"
         inkscape:original="M 15.1875 -15.625 C 13.209036 -15.625 11.390697 -15.226237 10.03125 -14.53125 C 8.6718026 -13.836263 7.7499997 -12.799287 7.75 -11.65625 C 7.75 -10.513213 8.6718027 -9.4762374 10.03125 -8.78125 C 11.390697 -8.0862623 13.209036 -7.6875 15.1875 -7.6875 C 17.002446 -7.6874999 19.655011 -7.8008513 21.96875 -8.15625 C 23.12562 -8.3339489 24.210451 -8.5720459 25.09375 -8.9375 C 25.977049 -9.3029539 26.75 -9.9006896 26.75 -10.65625 C 26.75 -11.411811 26.090496 -12.012677 25.28125 -12.5625 C 24.472004 -13.112323 23.433623 -13.620217 22.28125 -14.0625 C 19.976504 -14.947066 17.329482 -15.624999 15.1875 -15.625 z M 15.375 -12.59375 C 15.537851 -12.59375 16.389403 -12.500536 17.3125 -12.3125 C 18.235597 -12.124464 19.317185 -11.870389 20.1875 -11.5625 C 18.78017 -11.516816 17.375664 -11.432058 15.96875 -11.375 C 15.086411 -11.404463 12.499896 -11.477658 12.625 -11.96875 C 12.708145 -12.028837 12.83434 -12.109438 13 -12.1875 C 13.468035 -12.408047 14.359115 -12.59375 15.375 -12.59375 z "
         inkscape:radius="-0.50801313"
         sodipodi:type="inkscape:offset" />
      <path
         sodipodi:nodetypes="cc"
         id="path10925"
         d="M 12.904699,-12.148273 C 10.189491,-10.755119 10.901509,-8.7463622 11.976621,-8.0382149"
         style="fill:none;fill-rule:evenodd;stroke:#5b5c58;stroke-width:0.5;stroke-linecap:butt;stroke-linejoin:miter;stroke-miterlimit:4;stroke-dasharray:none;stroke-opacity:1" />
      <path
         sodipodi:nodetypes="cc"
         id="path10927"
         d="M 20.10835,-11.573748 C 22.383354,-10.849884 22.929023,-8.89491 23.003069,-8.1928946"
         style="fill:none;fill-rule:evenodd;stroke:#5b5c58;stroke-width:0.5;stroke-linecap:butt;stroke-linejoin:miter;stroke-miterlimit:4;stroke-dasharray:none;stroke-opacity:1" />
      <path
         style="fill:none;fill-rule:evenodd;stroke:#d7d8d7;stroke-width:0.5;stroke-linecap:butt;stroke-linejoin:miter;stroke-miterlimit:4;stroke-dasharray:none;stroke-opacity:1"
         d="M 12.645058,-11.402498 C 10.545731,-10.047948 11.938758,-8.4721898 12.274932,-8.5243508"
         id="path14396"
         sodipodi:nodetypes="cc" />
      <path
         style="fill:none;fill-rule:evenodd;stroke:#d7d8d7;stroke-width:0.5;stroke-linecap:butt;stroke-linejoin:miter;stroke-miterlimit:4;stroke-dasharray:none;stroke-opacity:1"
         d="M 20.313465,-12.030204 C 22.479094,-11.314153 23.352889,-9.4216788 23.426935,-8.7196634"
         id="path15922"
         sodipodi:nodetypes="cc" />
    </g>
    <g
       id="g16313"
       transform="matrix(-0.9660463,0.1144608,0.1386145,1.169903,50.612432,17.373763)">
      <path
         style="fill:url(#linearGradient16327);fill-opacity:1;fill-rule:evenodd;stroke:#5b5c58;stroke-width:0.46705592;stroke-linecap:butt;stroke-linejoin:miter;stroke-miterlimit:4;stroke-dashoffset:0;stroke-opacity:1"
         d="M 15.1875,-15.625 C 13.209036,-15.625 11.390697,-15.226237 10.03125,-14.53125 C 8.6718026,-13.836263 7.7499997,-12.799287 7.75,-11.65625 C 7.75,-10.513213 8.6718027,-9.4762374 10.03125,-8.78125 C 11.390697,-8.0862623 13.209036,-7.6875 15.1875,-7.6875 C 17.002446,-7.6874999 19.655011,-7.8008513 21.96875,-8.15625 C 23.12562,-8.3339489 24.210451,-8.5720459 25.09375,-8.9375 C 25.977049,-9.3029539 26.75,-9.9006896 26.75,-10.65625 C 26.75,-11.411811 26.090496,-12.012677 25.28125,-12.5625 C 24.472004,-13.112323 23.433623,-13.620217 22.28125,-14.0625 C 19.976504,-14.947066 17.329482,-15.624999 15.1875,-15.625 z M 15.375,-12.59375 C 15.537851,-12.59375 16.389403,-12.500536 17.3125,-12.3125 C 18.235597,-12.124464 19.317185,-11.870389 20.1875,-11.5625 C 18.78017,-11.516816 17.375664,-11.432058 15.96875,-11.375 C 15.086411,-11.404463 12.499896,-11.477658 12.625,-11.96875 C 12.708145,-12.028837 12.83434,-12.109438 13,-12.1875 C 13.468035,-12.408047 14.359115,-12.59375 15.375,-12.59375 z"
         id="path16315" />
      <path
         sodipodi:type="inkscape:offset"
         inkscape:radius="-0.50801313"
         inkscape:original="M 15.1875 -15.625 C 13.209036 -15.625 11.390697 -15.226237 10.03125 -14.53125 C 8.6718026 -13.836263 7.7499997 -12.799287 7.75 -11.65625 C 7.75 -10.513213 8.6718027 -9.4762374 10.03125 -8.78125 C 11.390697 -8.0862623 13.209036 -7.6875 15.1875 -7.6875 C 17.002446 -7.6874999 19.655011 -7.8008513 21.96875 -8.15625 C 23.12562 -8.3339489 24.210451 -8.5720459 25.09375 -8.9375 C 25.977049 -9.3029539 26.75 -9.9006896 26.75 -10.65625 C 26.75 -11.411811 26.090496 -12.012677 25.28125 -12.5625 C 24.472004 -13.112323 23.433623 -13.620217 22.28125 -14.0625 C 19.976504 -14.947066 17.329482 -15.624999 15.1875 -15.625 z M 15.375 -12.59375 C 15.537851 -12.59375 16.389403 -12.500536 17.3125 -12.3125 C 18.235597 -12.124464 19.317185 -11.870389 20.1875 -11.5625 C 18.78017 -11.516816 17.375664 -11.432058 15.96875 -11.375 C 15.086411 -11.404463 12.499896 -11.477658 12.625 -11.96875 C 12.708145 -12.028837 12.83434 -12.109438 13 -12.1875 C 13.468035 -12.408047 14.359115 -12.59375 15.375 -12.59375 z "
         style="fill:none;fill-opacity:1;fill-rule:evenodd;stroke:#d7d8d7;stroke-width:0.46705592;stroke-linecap:butt;stroke-linejoin:miter;stroke-miterlimit:4;stroke-dashoffset:0;stroke-opacity:1"
         id="path16317"
         d="M 15.1875,-15.125 C 13.277297,-15.125 11.516097,-14.741014 10.25,-14.09375 C 8.9900407,-13.449624 8.2499998,-12.526162 8.25,-11.65625 C 8.25,-10.786338 8.9900407,-9.8628764 10.25,-9.21875 C 11.516097,-8.5714857 13.277297,-8.1875 15.1875,-8.1875 C 16.981294,-8.1874999 19.634079,-8.3072363 21.90625,-8.65625 C 23.042918,-8.8308458 24.086702,-9.067172 24.90625,-9.40625 C 25.30586,-9.5715836 25.667725,-9.8037928 25.90625,-10.03125 C 26.144775,-10.258707 26.25,-10.451705 26.25,-10.65625 C 26.25,-10.886221 26.153542,-11.08925 25.9375,-11.34375 C 25.721458,-11.59825 25.386531,-11.893631 25,-12.15625 C 24.237555,-12.674275 23.219969,-13.161505 22.09375,-13.59375 C 19.82942,-14.462804 17.222292,-15.124999 15.1875,-15.125 z M 15.375,-13.09375 C 15.553352,-13.09375 15.766206,-13.079422 16.125,-13.03125 C 16.483794,-12.983078 16.930851,-12.909339 17.40625,-12.8125 C 18.340998,-12.622091 19.431519,-12.353968 20.34375,-12.03125 C 20.551859,-11.941413 20.675283,-11.724583 20.646275,-11.499775 C 20.617267,-11.274967 20.442847,-11.096569 20.21875,-11.0625 C 18.82083,-11.017121 17.413589,-10.932329 16,-10.875 C 15.979186,-10.873717 15.958314,-10.873717 15.9375,-10.875 C 15.498855,-10.889647 14.648504,-10.913008 13.875,-11 C 13.488248,-11.043496 13.11545,-11.09055 12.8125,-11.1875 C 12.661025,-11.235975 12.522489,-11.286607 12.375,-11.40625 C 12.227511,-11.525893 12.057301,-11.827999 12.125,-12.09375 C 12.153568,-12.206153 12.219731,-12.305398 12.3125,-12.375 C 12.418628,-12.451696 12.583605,-12.563116 12.78125,-12.65625 C 13.374727,-12.935908 14.297205,-13.09375 15.375,-13.09375 z" />
      <path
         style="fill:none;fill-rule:evenodd;stroke:#5b5c58;stroke-width:0.46705592;stroke-linecap:butt;stroke-linejoin:miter;stroke-miterlimit:4;stroke-dasharray:none;stroke-opacity:1"
         d="M 12.904699,-12.148273 C 10.189491,-10.755119 10.901509,-8.7463622 11.976621,-8.0382149"
         id="path16319"
         sodipodi:nodetypes="cc" />
      <path
         style="fill:none;fill-rule:evenodd;stroke:#5b5c58;stroke-width:0.46705592;stroke-linecap:butt;stroke-linejoin:miter;stroke-miterlimit:4;stroke-dasharray:none;stroke-opacity:1"
         d="M 20.10835,-11.573748 C 22.383354,-10.849884 22.929023,-8.89491 23.003069,-8.1928946"
         id="path16321"
         sodipodi:nodetypes="cc" />
      <path
         sodipodi:nodetypes="cc"
         id="path16323"
         d="M 12.645058,-11.402498 C 10.545731,-10.047948 11.938758,-8.4721898 12.274932,-8.5243508"
         style="fill:none;fill-rule:evenodd;stroke:#d7d8d7;stroke-width:0.46705592;stroke-linecap:butt;stroke-linejoin:miter;stroke-miterlimit:4;stroke-dasharray:none;stroke-opacity:1" />
      <path
         sodipodi:nodetypes="cc"
         id="path16325"
         d="M 20.313465,-12.030204 C 22.479094,-11.314153 23.352889,-9.4216788 23.426935,-8.7196634"
         style="fill:none;fill-rule:evenodd;stroke:#d7d8d7;stroke-width:0.46705592;stroke-linecap:butt;stroke-linejoin:miter;stroke-miterlimit:4;stroke-dasharray:none;stroke-opacity:1" />
    </g>
    <path
       sodipodi:type="arc"
       style="opacity:1;fill:url(#radialGradient16720);fill-opacity:1;fill-rule:evenodd;stroke:#5b5c58;stroke-width:0.50000000000000000;stroke-linecap:butt;stroke-linejoin:miter;stroke-miterlimit:4;stroke-dasharray:none;stroke-dashoffset:0;stroke-opacity:1"
       id="path16331"
       sodipodi:cx="23.421877"
       sodipodi:cy="7.7656231"
       sodipodi:rx="2.015625"
       sodipodi:ry="2.015625"
       d="M 25.437502,7.7656231 A 2.015625,2.015625 0 1 1 21.406252,7.7656231 A 2.015625,2.015625 0 1 1 25.437502,7.7656231 z" />
    <path
       sodipodi:type="inkscape:offset"
       inkscape:radius="-0.50796705"
       inkscape:original="M 23.4375 5.75 C 22.324875 5.75 21.40625 6.637375 21.40625 7.75 C 21.40625 8.862625 22.324875 9.78125 23.4375 9.78125 C 24.550125 9.78125 25.4375 8.862625 25.4375 7.75 C 25.4375 6.637375 24.550125 5.75 23.4375 5.75 z "
       style="opacity:1;fill:none;fill-opacity:1;fill-rule:evenodd;stroke:#d7d8d7;stroke-width:0.5;stroke-linecap:butt;stroke-linejoin:miter;stroke-miterlimit:4;stroke-dasharray:none;stroke-dashoffset:0;stroke-opacity:1"
       id="path17867"
       d="M 23.4375,6.25 C 22.594961,6.25 21.90625,6.9169728 21.90625,7.75 C 21.90625,8.5830272 22.604473,9.28125 23.4375,9.28125 C 24.270527,9.28125 24.9375,8.5925386 24.9375,7.75 C 24.9375,6.9074614 24.280039,6.25 23.4375,6.25 z" />
  </g>
</svg>
