<?xml version="1.0" encoding="UTF-8" standalone="no"?>
<!-- Created with Inkscape (http://www.inkscape.org/) -->
<svg
   xmlns:dc="http://purl.org/dc/elements/1.1/"
   xmlns:cc="http://web.resource.org/cc/"
   xmlns:rdf="http://www.w3.org/1999/02/22-rdf-syntax-ns#"
   xmlns:svg="http://www.w3.org/2000/svg"
   xmlns="http://www.w3.org/2000/svg"
   xmlns:xlink="http://www.w3.org/1999/xlink"
   xmlns:sodipodi="http://sodipodi.sourceforge.net/DTD/sodipodi-0.dtd"
   xmlns:inkscape="http://www.inkscape.org/namespaces/inkscape"
   inkscape:export-ydpi="90.000000"
   inkscape:export-xdpi="90.000000"
   inkscape:export-filename="/home/patrick/Desktop/desktop.png"
   width="48px"
   height="48px"
   id="svg11300"
   sodipodi:version="0.32"
   inkscape:version="0.45+devel"
   sodipodi:docbase="/home/patrick/Projects/Beryl/svn/beryl/trunk/beryl-settings/images"
   sodipodi:docname="category-profiles.svg"
   inkscape:output_extension="org.inkscape.output.svg.inkscape">
  <defs
     id="defs3">
    <linearGradient
       id="linearGradient8440">
      <stop
         id="stop8442"
         offset="0"
         style="stop-color:#edeeec;stop-opacity:1;" />
      <stop
         id="stop8444"
         offset="1"
         style="stop-color:#babdb6;stop-opacity:1;" />
    </linearGradient>
    <radialGradient
       inkscape:collect="always"
       xlink:href="#linearGradient8440"
       id="radialGradient2393"
       gradientUnits="userSpaceOnUse"
       gradientTransform="matrix(0.3810944,0.455232,-0.594625,0.4977864,-8.1655377,-1.6212846)"
       cx="56.704376"
       cy="10.241054"
       fx="56.704376"
       fy="10.241054"
       r="14.75" />
    <linearGradient
       y2="38.070381"
       x2="34.170048"
       y1="36.921333"
       x1="33.396004"
       gradientTransform="matrix(-2.48131e-2,-0.756771,0.756567,-2.481981e-2,8.221918,36.1682)"
       gradientUnits="userSpaceOnUse"
       id="linearGradient1929"
       xlink:href="#linearGradient2251"
       inkscape:collect="always" />
    <radialGradient
       r="37.751713"
       fy="2.3667307"
       fx="31.863327"
       cy="2.3667307"
       cx="31.863327"
       gradientTransform="matrix(0.331735,0,0,0.353831,20.10526,9.5823)"
       gradientUnits="userSpaceOnUse"
       id="radialGradient1927"
       xlink:href="#linearGradient269"
       inkscape:collect="always" />
    <radialGradient
       r="86.708450"
       fy="14.9373"
       fx="30.653816"
       cy="14.9373"
       cx="30.653816"
       gradientTransform="matrix(0.148355,1.009137e-2,-1.104438e-2,0.162365,25.06011,12.81706)"
       gradientUnits="userSpaceOnUse"
       id="radialGradient1925"
       xlink:href="#linearGradient259"
       inkscape:collect="always" />
    <radialGradient
       r="4.2929165"
       fy="12.98915"
       fx="37.030354"
       cy="12.98915"
       cx="37.030354"
       gradientTransform="matrix(1.744653,0,0,1.283833,-26.58256,-3.478359)"
       gradientUnits="userSpaceOnUse"
       id="radialGradient1923"
       xlink:href="#linearGradient4790"
       inkscape:collect="always" />
    <linearGradient
       y2="39.999443"
       x2="25.058096"
       y1="47.027729"
       x1="25.058096"
       gradientUnits="userSpaceOnUse"
       id="linearGradient3721"
       xlink:href="#linearGradient3702"
       inkscape:collect="always" />
    <radialGradient
       r="2.5"
       fy="43.5"
       fx="4.9929786"
       cy="43.5"
       cx="4.9929786"
       gradientTransform="matrix(2.003784,0,0,1.4,-20.01187,-104.4)"
       gradientUnits="userSpaceOnUse"
       id="radialGradient3719"
       xlink:href="#linearGradient3688"
       inkscape:collect="always" />
    <radialGradient
       r="2.5"
       fy="43.5"
       fx="4.9929786"
       cy="43.5"
       cx="4.9929786"
       gradientTransform="matrix(2.003784,0,0,1.4,27.98813,-17.4)"
       gradientUnits="userSpaceOnUse"
       id="radialGradient3717"
       xlink:href="#linearGradient3688"
       inkscape:collect="always" />
    <radialGradient
       r="38.158695"
       fy="7.2678967"
       fx="8.1435566"
       cy="7.2678967"
       cx="8.1435566"
       gradientTransform="matrix(0.968273,0,0,1.032767,3.353553,0.646447)"
       gradientUnits="userSpaceOnUse"
       id="radialGradient15668"
       xlink:href="#linearGradient15662"
       inkscape:collect="always" />
    <radialGradient
       r="86.708450"
       fy="35.736916"
       fx="33.966679"
       cy="35.736916"
       cx="33.966679"
       gradientTransform="matrix(0.961084,0,0,1.044459,-4.060961e-3,-0.142424)"
       gradientUnits="userSpaceOnUse"
       id="radialGradient15658"
       xlink:href="#linearGradient259"
       inkscape:collect="always" />
    <radialGradient
       r="37.751713"
       fy="3.7561285"
       fx="8.8244190"
       cy="3.7561285"
       cx="8.8244190"
       gradientTransform="matrix(0.968868,0,0,1.036068,3.351554,0.506089)"
       gradientUnits="userSpaceOnUse"
       id="radialGradient15656"
       xlink:href="#linearGradient269"
       inkscape:collect="always" />
    <linearGradient
       id="linearGradient259">
      <stop
         style="stop-color:#fafafa;stop-opacity:1.0000000;"
         offset="0.0000000"
         id="stop260" />
      <stop
         style="stop-color:#bbbbbb;stop-opacity:1.0000000;"
         offset="1.0000000"
         id="stop261" />
    </linearGradient>
    <linearGradient
       id="linearGradient269">
      <stop
         style="stop-color:#a3a3a3;stop-opacity:1.0000000;"
         offset="0.0000000"
         id="stop270" />
      <stop
         style="stop-color:#8a8a8a;stop-opacity:1;"
         offset="1"
         id="stop271" />
    </linearGradient>
    <linearGradient
       id="linearGradient15662">
      <stop
         style="stop-color:#ffffff;stop-opacity:1.0000000;"
         offset="0.0000000"
         id="stop15664" />
      <stop
         style="stop-color:#f8f8f8;stop-opacity:1.0000000;"
         offset="1.0000000"
         id="stop15666" />
    </linearGradient>
    <linearGradient
       id="linearGradient2251"
       inkscape:collect="always">
      <stop
         id="stop2253"
         offset="0"
         style="stop-color:#ffffff;stop-opacity:1;" />
      <stop
         id="stop2255"
         offset="1"
         style="stop-color:#ffffff;stop-opacity:0;" />
    </linearGradient>
    <linearGradient
       id="linearGradient4790"
       inkscape:collect="always">
      <stop
         id="stop4792"
         offset="0"
         style="stop-color:#000000;stop-opacity:1;" />
      <stop
         id="stop4794"
         offset="1"
         style="stop-color:#000000;stop-opacity:0;" />
    </linearGradient>
    <linearGradient
       id="linearGradient3688"
       inkscape:collect="always">
      <stop
         id="stop3690"
         offset="0"
         style="stop-color:black;stop-opacity:1;" />
      <stop
         id="stop3692"
         offset="1"
         style="stop-color:black;stop-opacity:0;" />
    </linearGradient>
    <linearGradient
       id="linearGradient3702">
      <stop
         id="stop3704"
         offset="0"
         style="stop-color:black;stop-opacity:0;" />
      <stop
         style="stop-color:black;stop-opacity:1;"
         offset="0.5"
         id="stop3710" />
      <stop
         id="stop3706"
         offset="1"
         style="stop-color:black;stop-opacity:0;" />
    </linearGradient>
    <linearGradient
       y2="52.806263"
       x2="33.358002"
       y1="37.386215"
       x1="33.358002"
       gradientUnits="userSpaceOnUse"
       id="linearGradient6258"
       xlink:href="#linearGradient3315"
       inkscape:collect="always" />
    <linearGradient
       id="linearGradient3307"
       inkscape:collect="always">
      <stop
         id="stop3309"
         offset="0"
         style="stop-color:#888a85;stop-opacity:1;" />
      <stop
         id="stop3311"
         offset="1"
         style="stop-color:#888a85;stop-opacity:0;" />
    </linearGradient>
    <linearGradient
       id="linearGradient3315"
       inkscape:collect="always">
      <stop
         id="stop3317"
         offset="0"
         style="stop-color:white;stop-opacity:1;" />
      <stop
         id="stop3319"
         offset="1"
         style="stop-color:white;stop-opacity:0;" />
    </linearGradient>
    <linearGradient
       id="linearGradient3331"
       inkscape:collect="always">
      <stop
         id="stop3333"
         offset="0"
         style="stop-color:#d3d7cf;stop-opacity:1;" />
      <stop
         id="stop3335"
         offset="1"
         style="stop-color:#d3d7cf;stop-opacity:0;" />
    </linearGradient>
    <linearGradient
       id="linearGradient3355">
      <stop
         style="stop-color:#6f716c;stop-opacity:1;"
         offset="0"
         id="stop3357" />
      <stop
         style="stop-color:#888a85;stop-opacity:0;"
         offset="1"
         id="stop3359" />
    </linearGradient>
    <linearGradient
       y2="39.999443"
       x2="25.058096"
       y1="47.027729"
       x1="25.058096"
       gradientUnits="userSpaceOnUse"
       id="linearGradient2098"
       xlink:href="#linearGradient3702"
       inkscape:collect="always" />
    <radialGradient
       r="2.5"
       fy="43.5"
       fx="4.9929786"
       cy="43.5"
       cx="4.9929786"
       gradientTransform="matrix(2.003784,0,0,1.4,-20.01187,-104.4)"
       gradientUnits="userSpaceOnUse"
       id="radialGradient2096"
       xlink:href="#linearGradient3688"
       inkscape:collect="always" />
    <radialGradient
       r="2.5"
       fy="43.5"
       fx="4.9929786"
       cy="43.5"
       cx="4.9929786"
       gradientTransform="matrix(2.003784,0,0,1.4,27.98813,-17.4)"
       gradientUnits="userSpaceOnUse"
       id="radialGradient2094"
       xlink:href="#linearGradient3688"
       inkscape:collect="always" />
    <linearGradient
       id="linearGradient6732">
      <stop
         id="stop6734"
         offset="0"
         style="stop-color:#ffffff;stop-opacity:1;" />
      <stop
         id="stop6736"
         offset="1"
         style="stop-color:#dddddd;stop-opacity:1;" />
    </linearGradient>
    <linearGradient
       id="linearGradient4585">
      <stop
         id="stop4587"
         offset="0"
         style="stop-color:#9e9e9e;stop-opacity:1;" />
      <stop
         id="stop4589"
         offset="1"
         style="stop-color:#dddddd;stop-opacity:0;" />
    </linearGradient>
    <linearGradient
       id="linearGradient6010">
      <stop
         style="stop-color:#729fcf;stop-opacity:1"
         offset="0"
         id="stop6012" />
      <stop
         style="stop-color:#dddddd;stop-opacity:0;"
         offset="1"
         id="stop6014" />
    </linearGradient>
    <linearGradient
       inkscape:collect="always"
       xlink:href="#linearGradient6732"
       id="linearGradient2865"
       gradientUnits="userSpaceOnUse"
       gradientTransform="matrix(0.858045,0,0,0.8,-0.932219,9.3)"
       x1="11.511479"
       y1="0.75951481"
       x2="31.5"
       y2="36.625" />
    <linearGradient
       inkscape:collect="always"
       xlink:href="#linearGradient4585"
       id="linearGradient2867"
       gradientUnits="userSpaceOnUse"
       x1="9.117774"
       y1="18.345161"
       x2="8.4885712"
       y2="34.608616" />
    <linearGradient
       inkscape:collect="always"
       xlink:href="#linearGradient3331"
       id="linearGradient2873"
       gradientUnits="userSpaceOnUse"
       x1="35.197689"
       y1="46.093544"
       x2="33.665684"
       y2="50.415848" />
    <linearGradient
       inkscape:collect="always"
       xlink:href="#linearGradient3355"
       id="linearGradient2875"
       gradientUnits="userSpaceOnUse"
       x1="38.045502"
       y1="44.886215"
       x2="33.233128"
       y2="51.470303" />
    <linearGradient
       inkscape:collect="always"
       xlink:href="#linearGradient3315"
       id="linearGradient2877"
       gradientUnits="userSpaceOnUse"
       x1="33.358002"
       y1="37.386215"
       x2="33.358002"
       y2="52.806263" />
    <linearGradient
       inkscape:collect="always"
       xlink:href="#linearGradient3307"
       id="linearGradient2879"
       gradientUnits="userSpaceOnUse"
       x1="36.201752"
       y1="37.667465"
       x2="30.034962"
       y2="41.842426" />
    <linearGradient
       inkscape:collect="always"
       xlink:href="#linearGradient6010"
       id="linearGradient2892"
       gradientUnits="userSpaceOnUse"
       gradientTransform="matrix(1.102491,0,0,1.030637,56.40158,-37.058904)"
       x1="9.117774"
       y1="18.345161"
       x2="8.4885712"
       y2="34.608616" />
    <linearGradient
       inkscape:collect="always"
       xlink:href="#linearGradient6732"
       id="linearGradient2911"
       gradientUnits="userSpaceOnUse"
       gradientTransform="matrix(0.93233,0,0,0.832,55.798339,-27.701322)"
       x1="11.511479"
       y1="0.75951481"
       x2="31.5"
       y2="36.625" />
  </defs>
  <sodipodi:namedview
     stroke="#ef2929"
     fill="#eeeeec"
     id="base"
     pagecolor="#ffffff"
     bordercolor="#666666"
     borderopacity="0.25490196"
     inkscape:pageopacity="0.0"
     inkscape:pageshadow="2"
     inkscape:zoom="0.99999995"
     inkscape:cx="79.528736"
     inkscape:cy="30.146256"
     inkscape:current-layer="layer1"
     showgrid="false"
     inkscape:grid-bbox="true"
     inkscape:document-units="px"
     inkscape:showpageshadow="false"
     inkscape:window-width="906"
     inkscape:window-height="662"
     inkscape:window-x="338"
     inkscape:window-y="111"
     showguides="true"
     inkscape:guide-bbox="true" />
  <metadata
     id="metadata4">
    <rdf:RDF>
      <cc:Work
         rdf:about="">
        <dc:format>image/svg+xml</dc:format>
        <dc:type
           rdf:resource="http://purl.org/dc/dcmitype/StillImage" />
        <dc:creator>
          <cc:Agent>
            <dc:title />
          </cc:Agent>
        </dc:creator>
        <dc:source />
        <cc:license
           rdf:resource="http://creativecommons.org/licenses/GPL/2.0/" />
        <dc:title>Desktop</dc:title>
        <dc:subject>
          <rdf:Bag />
        </dc:subject>
      </cc:Work>
      <cc:License
         rdf:about="http://creativecommons.org/licenses/GPL/2.0/">
        <cc:permits
           rdf:resource="http://web.resource.org/cc/Reproduction" />
        <cc:permits
           rdf:resource="http://web.resource.org/cc/Distribution" />
        <cc:requires
           rdf:resource="http://web.resource.org/cc/Notice" />
        <cc:permits
           rdf:resource="http://web.resource.org/cc/DerivativeWorks" />
        <cc:requires
           rdf:resource="http://web.resource.org/cc/ShareAlike" />
        <cc:requires
           rdf:resource="http://web.resource.org/cc/SourceCode" />
      </cc:License>
    </rdf:RDF>
  </metadata>
  <g
     id="layer1"
     inkscape:label="Layer 1"
     inkscape:groupmode="layer">
    <g
       id="g2372"
       transform="translate(0.5856696,-1.9880784)">
      <g
         inkscape:label="Shadow"
         id="layer6">
        <g
           transform="matrix(1.052632,0,0,1.285713,-1.263158,-13.42854)"
           style="opacity:0.4"
           id="g3712">
          <rect
             style="opacity:1;fill:url(#radialGradient3717);fill-opacity:1;stroke:none;stroke-width:1;stroke-linecap:round;stroke-linejoin:miter;stroke-miterlimit:4;stroke-dasharray:none;stroke-opacity:1"
             id="rect2801"
             width="5"
             height="7"
             x="38"
             y="40" />
          <rect
             style="opacity:1;fill:url(#radialGradient3719);fill-opacity:1;stroke:none;stroke-width:1;stroke-linecap:round;stroke-linejoin:miter;stroke-miterlimit:4;stroke-dasharray:none;stroke-opacity:1"
             id="rect3696"
             width="5"
             height="7"
             x="-10"
             y="-47"
             transform="scale(-1,-1)" />
          <rect
             style="opacity:1;fill:url(#linearGradient3721);fill-opacity:1;stroke:none;stroke-width:1;stroke-linecap:round;stroke-linejoin:miter;stroke-miterlimit:4;stroke-dasharray:none;stroke-opacity:1"
             id="rect3700"
             width="28"
             height="7.0000005"
             x="10"
             y="40" />
        </g>
      </g>
      <g
         id="g2379"
         inkscape:label="Base"
         style="display:inline">
        <path
           sodipodi:nodetypes="ccccccccc"
           id="rect15391"
           d="M 7.7533083,3.5156762 L 36.217818,3.5000013 C 36.217818,3.5000013 41.500001,8.7962658 41.500001,9.4348733 L 41.500001,43.414232 C 41.500001,44.052839 40.98721,44.566952 40.350246,44.566952 L 7.7533083,44.566952 C 7.1163439,44.566952 6.603553,44.052839 6.603553,43.414232 L 6.603553,4.6683972 C 6.603553,4.0297898 7.1163439,3.5156762 7.7533083,3.5156762 z"
           style="color:#000000;fill:url(#radialGradient15658);fill-opacity:1;fill-rule:nonzero;stroke:url(#radialGradient15656);stroke-width:1.00000012;stroke-linecap:round;stroke-linejoin:round;marker:none;marker-start:none;marker-mid:none;marker-end:none;stroke-miterlimit:4;stroke-dashoffset:0;stroke-opacity:1;visibility:visible;display:block;overflow:visible" />
        <path
           sodipodi:nodetypes="ccccccccc"
           id="rect15660"
           d="M 7.8151023,4.5839462 L 36.691494,4.5839462 C 36.691494,4.5839462 40.44194,8.605373 40.44194,8.687946 L 40.44194,43.381282 C 40.44194,43.463855 40.375465,43.530331 40.292892,43.530331 L 7.8151023,43.530331 C 7.7325294,43.530331 7.6660538,43.463855 7.6660538,43.381282 L 7.6660538,4.7329948 C 7.6660538,4.6504219 7.7325294,4.5839462 7.8151023,4.5839462 z"
           style="color:#000000;fill:none;fill-opacity:1;fill-rule:nonzero;stroke:url(#radialGradient15668);stroke-width:1;stroke-linecap:round;stroke-linejoin:round;marker:none;marker-start:none;marker-mid:none;marker-end:none;stroke-miterlimit:4;stroke-dashoffset:0;stroke-opacity:1;visibility:visible;display:block;overflow:visible" />
      </g>
      <g
         style="display:inline"
         inkscape:label="Text"
         id="layer5">
        <g
           transform="matrix(0.589097,0,0,0.577622,17.11331,1.395056)"
           id="g1918">
          <path
             inkscape:r_cy="true"
             inkscape:r_cx="true"
             style="opacity:0.35714285;color:#000000;fill:url(#radialGradient1923);fill-opacity:1;fill-rule:evenodd;stroke:none;stroke-width:1.00000024;stroke-linecap:butt;stroke-linejoin:miter;marker:none;marker-start:none;marker-mid:none;marker-end:none;stroke-miterlimit:4;stroke-dasharray:none;stroke-dashoffset:0;stroke-opacity:1;visibility:visible;display:inline;overflow:visible"
             d="M 40.985189,13.861445 C 40.256827,12.514817 34.882221,10.130934 32.084635,9.3314083 C 32.254143,10.904354 31.961856,15.649439 31.961856,15.649439 C 34.024356,14.274439 40.204485,13.699331 40.985189,13.861445 z"
             id="path5348"
             sodipodi:nodetypes="cccc" />
          <path
             style="opacity:1;color:#000000;fill:url(#radialGradient1925);fill-opacity:1;fill-rule:nonzero;stroke:url(#radialGradient1927);stroke-width:1.71429098;stroke-linecap:butt;stroke-linejoin:round;marker:none;marker-start:none;marker-mid:none;marker-end:none;stroke-miterlimit:4;stroke-dasharray:none;stroke-dashoffset:0;stroke-opacity:1;visibility:visible;display:block;overflow:visible"
             d="M 41.410559,13.739267 C 41.423724,12.324125 35.058025,3.5320142 31.175441,3.6354934 C 32.148479,3.8684884 32.634036,9.5059668 31.244316,12.318467 C 33.994316,12.318467 40.446694,11.881093 41.410559,13.739267 z"
             id="path2210"
             sodipodi:nodetypes="cccc"
             inkscape:r_cx="true"
             inkscape:r_cy="true" />
          <path
             sodipodi:nodetypes="cccc"
             id="path2247"
             d="M 38.373065,10.820521 C 37.821714,9.8008851 35.225165,6.9819727 33.769819,6.0453244 C 33.950691,7.1249452 33.99069,8.6442222 33.524667,10.584399 C 33.524667,10.584399 37.782093,10.697772 38.373065,10.820521 z"
             style="opacity:1;color:#000000;fill:none;fill-opacity:1;fill-rule:evenodd;stroke:url(#linearGradient1929);stroke-width:1.71429169;stroke-linecap:butt;stroke-linejoin:miter;marker:none;marker-start:none;marker-mid:none;marker-end:none;stroke-miterlimit:4;stroke-dasharray:none;stroke-dashoffset:0;stroke-opacity:1;visibility:visible;display:inline;overflow:visible"
             inkscape:r_cx="true"
             inkscape:r_cy="true" />
        </g>
      </g>
    </g>
    <g
       id="g4182"
       transform="translate(13.440171,-12.423018)">
      <path
         id="path2591"
         d="M 9.9531058,23.254604 C 9.7206518,23.254604 9.5454497,23.437574 9.5454497,23.662259 L 9.5454497,26.971465 C 9.0151829,27.118301 8.5118161,27.344051 8.0347259,27.594938 L 5.8046096,25.48472 C 5.6416093,25.330077 5.389087,25.340064 5.2290957,25.5087 L 2.92704,27.906675 C 2.7670499,28.07531 2.7880202,28.351526 2.9510198,28.506169 L 5.0132777,30.448528 C 4.6803352,31.007382 4.4057729,31.607962 4.2219458,32.247009 L 1.0326399,32.247009 C 0.80795467,32.247009 0.62498371,32.422211 0.62498371,32.654665 L 0.62498371,36.01183 C 0.62498371,36.244284 0.8079553,36.419485 1.0326399,36.419485 L 4.1979661,36.419485 C 4.3644902,37.00841 4.6219574,37.55188 4.9173586,38.074088 L 2.6392827,40.448083 C 2.477727,40.61522 2.4777327,40.867441 2.6392827,41.023597 L 5.0132777,43.325653 C 5.1748283,43.481809 5.4272365,43.46881 5.5887916,43.301673 L 7.8428877,40.999617 C 8.3980153,41.311246 8.9884295,41.575451 9.617389,41.742989 L 9.617389,44.956276 C 9.617389,45.180961 9.7925905,45.363931 10.025045,45.363931 L 13.38221,45.363931 C 13.614664,45.363931 13.789865,45.180961 13.789865,44.956276 L 13.789865,41.69503 C 14.34322,41.528903 14.856633,41.279003 15.348549,40.999617 L 17.554686,43.181774 C 17.71427,43.339939 17.990545,43.346877 18.154179,43.181774 L 20.504194,40.807779 C 20.667828,40.642677 20.663779,40.390431 20.504194,40.232265 L 18.298058,38.026129 C 18.564189,37.537694 18.789072,37.013291 18.94551,36.467445 L 22.086858,36.467445 C 22.311543,36.467445 22.494513,36.292243 22.494513,36.059789 L 22.494513,32.702625 C 22.494513,32.470171 22.311542,32.294969 22.086858,32.294969 L 18.96949,32.294969 C 18.794096,31.666751 18.545533,31.073982 18.226119,30.520468 L 20.600114,28.362291 C 20.772242,28.206065 20.799076,27.953154 20.648073,27.786776 L 18.417956,25.316863 C 18.266952,25.150485 18.014572,25.160637 17.842442,25.316863 L 15.372529,27.546979 C 15.342737,27.574018 15.32102,27.610679 15.300589,27.642898 C 14.805137,27.366611 14.273258,27.132089 13.717926,26.971465 L 13.717926,23.662259 C 13.717926,23.437574 13.542726,23.254604 13.31027,23.254604 L 9.9531058,23.254604 z M 11.583728,31.407718 C 13.457898,31.407718 14.701096,32.777633 14.701096,34.357227 C 14.701094,35.936822 13.4579,37.306736 11.583728,37.306736 C 9.7095566,37.306736 8.4663612,35.936822 8.4663612,34.357227 C 8.4663599,32.777635 9.7095572,31.407718 11.583728,31.407718 z"
         style="fill:url(#radialGradient2393);fill-opacity:1;fill-rule:evenodd;stroke:#555753;stroke-width:1;stroke-linecap:butt;stroke-linejoin:miter;stroke-miterlimit:4;stroke-dasharray:none;stroke-dashoffset:0;stroke-opacity:1" />
      <path
         transform="matrix(0.7673519,0,0,0.7673519,-36.157612,21.484338)"
         d="M 60.875,3.625 L 60.875,7.15625 C 60.870014,7.7426213 60.469877,8.2756961 59.90625,8.4375 C 59.345099,8.5928889 58.789248,8.8249915 58.21875,9.125 C 57.722013,9.3849255 57.09878,9.3184948 56.6875,8.9375 L 54.375,6.71875 L 52.4375,8.71875 L 54.5625,10.71875 C 55.008058,11.134444 55.110012,11.811952 54.8125,12.34375 C 54.425111,12.993993 54.107519,13.706568 53.90625,14.40625 C 53.744446,14.969878 53.211371,15.338764 52.625,15.34375 L 49.25,15.34375 L 49.25,18.15625 L 52.59375,18.15625 C 53.180121,18.161236 53.713196,18.561372 53.875,19.125 C 54.050735,19.746502 54.331026,20.338578 54.6875,20.96875 C 54.971967,21.477749 54.904353,22.111132 54.5,22.53125 L 52.0625,25.09375 L 54,26.96875 L 56.375,24.53125 C 56.790694,24.085692 57.468202,23.983738 58,24.28125 C 58.656487,24.64978 59.322366,24.944497 60,25.125 C 60.563628,25.286804 60.963764,25.819879 60.96875,26.40625 L 60.96875,29.8125 L 63.78125,29.8125 L 63.78125,26.34375 C 63.779375,25.770941 64.143671,25.273653 64.6875,25.09375 C 64.68718,25.083336 64.68718,25.072914 64.6875,25.0625 C 65.270653,24.887429 65.876555,24.617591 66.46875,24.28125 C 66.977749,23.996783 67.611132,24.064397 68.03125,24.46875 L 70.375,26.78125 L 72.3125,24.84375 L 70,22.53125 C 69.571149,22.102959 69.502269,21.426926 69.8125,20.90625 C 70.122155,20.337939 70.359843,19.785574 70.53125,19.1875 C 70.693054,18.623872 71.226129,18.223736 71.8125,18.21875 L 75.125,18.21875 L 75.125,15.40625 L 71.84375,15.40625 C 71.257379,15.401264 70.724304,15.001128 70.5625,14.4375 C 70.364979,13.730033 70.082025,13.06702 69.71875,12.4375 C 69.421238,11.905702 69.523192,11.228194 69.96875,10.8125 L 72.5,8.5 L 70.6875,6.5 L 68.0625,8.875 L 68.03125,8.84375 C 67.630093,9.3181862 66.961014,9.4884739 66.40625,9.1875 C 65.827973,8.8650252 65.228045,8.6119242 64.625,8.4375 C 64.061373,8.2756961 63.692486,7.7426213 63.6875,7.15625 L 63.6875,3.625 L 60.875,3.625 z M 62.21875,11.625 C 65.319541,11.625 67.59375,14.015285 67.59375,16.78125 C 67.593749,19.547216 65.319542,21.937499 62.21875,21.9375 C 59.117957,21.937501 56.84375,19.547216 56.84375,16.78125 C 56.843748,14.015286 59.117957,11.625 62.21875,11.625 z"
         id="path4180"
         style="fill:none;fill-opacity:1;fill-rule:evenodd;stroke:#dddddd;stroke-width:1.30318308;stroke-linecap:butt;stroke-linejoin:miter;stroke-miterlimit:4;stroke-dasharray:none;stroke-dashoffset:0;stroke-opacity:1"
         inkscape:original="M 60.375 3.125 L 60.375 7.15625 C 60.371912 7.5194123 60.130326 7.8372886 59.78125 7.9375 C 59.169905 8.1067881 58.559537 8.3768222 57.96875 8.6875 C 57.661279 8.8483892 57.285825 8.7983287 57.03125 8.5625 L 54.34375 6 L 51.71875 8.75 L 54.21875 11.09375 C 54.494859 11.351352 54.559366 11.764199 54.375 12.09375 C 53.971871 12.770414 53.623576 13.494497 53.40625 14.25 C 53.306039 14.599076 52.988162 14.840662 52.625 14.84375 L 48.75 14.84375 L 48.75 18.65625 L 52.59375 18.65625 C 52.956912 18.659338 53.274789 18.900924 53.375 19.25 C 53.567737 19.931631 53.884546 20.572703 54.25 21.21875 C 54.426168 21.533968 54.375412 21.927325 54.125 22.1875 L 51.34375 25.09375 L 54 27.6875 L 56.75 24.875 C 57.007602 24.598891 57.420449 24.534384 57.75 24.71875 C 58.429534 25.100218 59.139208 25.429005 59.875 25.625 C 60.224076 25.725211 60.465662 26.043088 60.46875 26.40625 L 60.46875 30.3125 L 64.28125 30.3125 L 64.28125 26.34375 C 64.280089 25.989098 64.507041 25.673886 64.84375 25.5625 C 65.481753 25.370962 66.108157 25.06554 66.71875 24.71875 C 67.033968 24.542582 67.427325 24.593338 67.6875 24.84375 L 70.375 27.5 L 73.0625 24.84375 L 70.375 22.15625 C 70.109267 21.890864 70.057769 21.478881 70.25 21.15625 C 70.571694 20.565843 70.8464 19.957479 71.03125 19.3125 C 71.131461 18.963424 71.449338 18.721838 71.8125 18.71875 L 75.625 18.71875 L 75.625 14.90625 L 71.84375 14.90625 C 71.480588 14.903162 71.162711 14.661576 71.0625 14.3125 C 70.851959 13.5584 70.53788 12.848827 70.15625 12.1875 C 69.971884 11.857949 70.036391 11.445102 70.3125 11.1875 L 73.21875 8.53125 L 70.71875 5.78125 L 67.71875 8.5 C 67.479528 8.8411617 67.022497 8.9486984 66.65625 8.75 C 66.056217 8.415393 65.434546 8.1264586 64.78125 7.9375 C 64.432174 7.8372886 64.190588 7.5194123 64.1875 7.15625 L 64.1875 3.125 L 60.375 3.125 z M 62.21875 12.125 C 65.060709 12.125 67.09375 14.292516 67.09375 16.78125 C 67.093749 19.269985 65.06071 21.437499 62.21875 21.4375 C 59.376789 21.437501 57.34375 19.269985 57.34375 16.78125 C 57.343748 14.292517 59.376789 12.125 62.21875 12.125 z "
         inkscape:radius="-0.50905591"
         sodipodi:type="inkscape:offset" />
    </g>
    <g
       style="display:inline"
       inkscape:label="Base"
       id="g2679"
       transform="translate(53.97127,-33.713326)" />
    <path
       id="path6270"
       d="M 29.668625,25.255083 C 29.025305,25.293675 28.408619,25.414541 27.793625,25.630083 L 32.262375,30.098833 L 30.824875,32.942583 L 27.981125,34.348833 L 23.512375,29.911333 C 22.636841,32.377375 23.196113,35.220071 25.168625,37.192583 C 27.141138,39.165096 29.983829,39.693116 32.449875,38.817583 L 34.106125,40.473833 L 42.262375,40.473833 C 42.365837,40.473833 42.47418,40.452312 42.574875,40.442583 L 36.699875,34.567583 C 37.562043,32.107604 37.00904,29.251748 35.043625,27.286333 C 33.569564,25.812273 31.598586,25.139308 29.668625,25.255083 z"
       style="opacity:0.2;color:#000000;fill:#000000;fill-opacity:1;fill-rule:nonzero;stroke:#000000;stroke-width:1.00000036;stroke-linecap:round;stroke-linejoin:round;marker:none;marker-start:none;marker-mid:none;marker-end:none;stroke-miterlimit:4;stroke-dasharray:none;stroke-dashoffset:1.4;stroke-opacity:1;visibility:visible;display:inline;overflow:visible" />
    <g
       id="g3199"
       transform="translate(-60.583895,-1.6939125)">
      <path
         inkscape:transform-center-y="4.25"
         sodipodi:nodetypes="csccccsccccc"
         id="path3193"
         d="M 32.5,24.1875 C 30.13715,25.312159 28.5,27.710447 28.5,30.5 C 28.5,33.289555 30.137147,35.687838 32.5,36.8125 L 32.5,55.350096 L 38.53125,55.350096 L 38.53125,36.8125 C 40.880361,35.682677 42.5,33.279516 42.5,30.5 C 42.5,27.720486 40.880357,25.31732 38.53125,24.1875 L 38.53125,30.5 L 35.515625,31.5 L 32.5,30.5 L 32.5,24.1875 z"
         style="opacity:1;color:#000000;fill:url(#linearGradient2873);fill-opacity:1;fill-rule:nonzero;stroke:url(#linearGradient2875);stroke-width:1;stroke-linecap:round;stroke-linejoin:round;marker:none;marker-start:none;marker-mid:none;marker-end:none;stroke-miterlimit:4;stroke-dasharray:none;stroke-dashoffset:1.4;stroke-opacity:1;visibility:visible;display:inline;overflow:visible"
         transform="matrix(0.707107,-0.707107,0.707107,0.707107,44.01958,36.46818)" />
      <path
         sodipodi:nodetypes="cssccccsscccccccc"
         id="path3195"
         d="M 31.5,26.34375 C 30.359137,27.432066 29.5,28.792056 29.5,30.5 C 29.5,32.900502 30.909032,34.940748 32.9375,35.90625 C 33.284845,36.073728 33.504061,36.426909 33.5,36.8125 L 33.5,55.742212 L 37.53125,55.742212 L 37.53125,36.8125 C 37.527189,36.426909 37.746405,36.073728 38.09375,35.90625 C 40.107408,34.937766 41.5,32.893233 41.5,30.5 C 41.5,28.802203 40.65724,27.433848 39.53125,26.34375 L 39.53125,30.5 C 39.527628,30.92786 39.250736,31.305441 38.84375,31.4375 L 35.8125,32.4375 C 35.60958,32.504668 35.39042,32.504668 35.1875,32.4375 L 32.1875,31.4375 C 31.780514,31.305441 31.503622,30.92786 31.5,30.5 L 31.5,26.34375 z"
         style="color:#000000;fill:none;fill-opacity:1;fill-rule:nonzero;stroke:url(#linearGradient2877);stroke-width:1;stroke-linecap:round;stroke-linejoin:miter;marker:none;marker-start:none;marker-mid:none;marker-end:none;stroke-miterlimit:4;stroke-dashoffset:1.4;stroke-opacity:1;visibility:visible;display:inline;overflow:visible"
         transform="matrix(0.707107,-0.707107,0.707107,0.707107,44.01958,36.46818)" />
      <rect
         ry="1.0000045"
         rx="1.0000045"
         y="37.499985"
         x="34.500008"
         height="15.000015"
         width="2.0000091"
         id="rect3197"
         style="opacity:0.4;color:#000000;fill:none;fill-opacity:1;fill-rule:nonzero;stroke:url(#linearGradient2879);stroke-width:0.99999976;stroke-linecap:round;stroke-linejoin:miter;marker:none;marker-start:none;marker-mid:none;marker-end:none;stroke-miterlimit:4;stroke-dasharray:none;stroke-dashoffset:1.4;stroke-opacity:1;visibility:visible;display:inline;overflow:visible"
         transform="matrix(0.707107,-0.707107,0.707107,0.707107,44.01958,36.46818)" />
    </g>
  </g>
</svg>
