<?xml version="1.0" encoding="UTF-8" standalone="no"?>
<!-- Created with Inkscape (http://www.inkscape.org/) -->
<svg
   xmlns:dc="http://purl.org/dc/elements/1.1/"
   xmlns:cc="http://web.resource.org/cc/"
   xmlns:rdf="http://www.w3.org/1999/02/22-rdf-syntax-ns#"
   xmlns:svg="http://www.w3.org/2000/svg"
   xmlns="http://www.w3.org/2000/svg"
   xmlns:xlink="http://www.w3.org/1999/xlink"
   xmlns:sodipodi="http://sodipodi.sourceforge.net/DTD/sodipodi-0.dtd"
   xmlns:inkscape="http://www.inkscape.org/namespaces/inkscape"
   inkscape:export-ydpi="90.000000"
   inkscape:export-xdpi="90.000000"
   inkscape:export-filename="/home/jimmac/Desktop/wi-fi.png"
   width="48px"
   height="48px"
   id="svg11300"
   sodipodi:version="0.32"
   inkscape:version="0.45+devel"
   sodipodi:docbase="/home/patrick/Projects/Beryl/svn/beryl/trunk/beryl-settings/images"
   sodipodi:docname="category-desktop.svg"
   inkscape:output_extension="org.inkscape.output.svg.inkscape">
  <defs
     id="defs3">
    <linearGradient
       id="linearGradient4376">
      <stop
         style="stop-color:#babdb6;stop-opacity:1"
         offset="0"
         id="stop4378" />
      <stop
         style="stop-color:#eeeeec;stop-opacity:1"
         offset="1"
         id="stop4380" />
    </linearGradient>
    <linearGradient
       gradientUnits="userSpaceOnUse"
       y2="37.875011"
       x2="3.93751"
       y1="37.000011"
       x1="7.31251"
       id="linearGradient5540"
       xlink:href="#linearGradient5534"
       inkscape:collect="always" />
    <linearGradient
       gradientUnits="userSpaceOnUse"
       y2="39.375"
       x2="4.1875"
       y1="33.875"
       x1="3.875"
       id="linearGradient5532"
       xlink:href="#linearGradient5526"
       inkscape:collect="always" />
    <linearGradient
       id="linearGradient3678"
       inkscape:collect="always">
      <stop
         id="stop3680"
         offset="0"
         style="stop-color:white;stop-opacity:1;" />
      <stop
         id="stop3682"
         offset="1"
         style="stop-color:white;stop-opacity:0;" />
    </linearGradient>
    <linearGradient
       id="linearGradient5502"
       inkscape:collect="always">
      <stop
         id="stop5504"
         offset="0"
         style="stop-color:white;stop-opacity:1;" />
      <stop
         id="stop5506"
         offset="1"
         style="stop-color:white;stop-opacity:0;" />
    </linearGradient>
    <linearGradient
       id="linearGradient5526"
       inkscape:collect="always">
      <stop
         id="stop5528"
         offset="0"
         style="stop-color:white;stop-opacity:1;" />
      <stop
         id="stop5530"
         offset="1"
         style="stop-color:white;stop-opacity:0;" />
    </linearGradient>
    <linearGradient
       id="linearGradient5534"
       inkscape:collect="always">
      <stop
         id="stop5536"
         offset="0"
         style="stop-color:white;stop-opacity:1;" />
      <stop
         id="stop5538"
         offset="1"
         style="stop-color:white;stop-opacity:0;" />
    </linearGradient>
    <linearGradient
       id="linearGradient2853">
      <stop
         id="stop2855"
         offset="0"
         style="stop-color:#416797;stop-opacity:1;" />
      <stop
         id="stop2857"
         offset="1"
         style="stop-color:#a7bed8;stop-opacity:1;" />
    </linearGradient>
    <linearGradient
       inkscape:collect="always"
       xlink:href="#linearGradient5502"
       id="linearGradient2996"
       gradientUnits="userSpaceOnUse"
       gradientTransform="matrix(1,0,0,-1,1.1378255,46.516812)"
       x1="3.870008"
       y1="37.710594"
       x2="5.3180737"
       y2="33.51659" />
    <linearGradient
       inkscape:collect="always"
       xlink:href="#linearGradient4376"
       id="linearGradient3001"
       gradientUnits="userSpaceOnUse"
       x1="43.75"
       y1="39.187508"
       x2="42.375"
       y2="33.500008"
       gradientTransform="translate(0.1378255,-1.4832081)" />
    <linearGradient
       inkscape:collect="always"
       xlink:href="#linearGradient5502"
       id="linearGradient3004"
       gradientUnits="userSpaceOnUse"
       gradientTransform="matrix(-1,0,0,-1,47.137826,46.516812)"
       x1="5.5493865"
       y1="37.843178"
       x2="3.8596659"
       y2="33.251427" />
    <linearGradient
       inkscape:collect="always"
       xlink:href="#linearGradient4376"
       id="linearGradient3007"
       gradientUnits="userSpaceOnUse"
       x1="41.375"
       y1="14.75"
       x2="42.0625"
       y2="9.875"
       gradientTransform="translate(0.1378255,-1.4832081)" />
    <linearGradient
       inkscape:collect="always"
       xlink:href="#linearGradient4376"
       id="linearGradient3010"
       gradientUnits="userSpaceOnUse"
       x1="7.5"
       y1="15.75"
       x2="6.3125"
       y2="10"
       gradientTransform="translate(0.1378255,-1.4832081)" />
    <linearGradient
       inkscape:collect="always"
       xlink:href="#linearGradient4376"
       id="linearGradient3017"
       gradientUnits="userSpaceOnUse"
       x1="9.562501"
       y1="39.312511"
       x2="7.5000014"
       y2="34.187511"
       gradientTransform="translate(0.1378255,-1.4832081)" />
    <linearGradient
       inkscape:collect="always"
       xlink:href="#linearGradient3678"
       id="linearGradient3020"
       gradientUnits="userSpaceOnUse"
       gradientTransform="translate(1.1378255,-1.4832081)"
       x1="4.625"
       y1="-7.625"
       x2="23.875"
       y2="47.75" />
    <linearGradient
       inkscape:collect="always"
       xlink:href="#linearGradient2853"
       id="linearGradient4368"
       x1="-31.831854"
       y1="7.9310017"
       x2="-31.831854"
       y2="37.930984"
       gradientUnits="userSpaceOnUse"
       gradientTransform="translate(55.969671,-0.4142136)" />
    <linearGradient
       id="linearGradient8440">
      <stop
         style="stop-color:#edeeec;stop-opacity:1;"
         offset="0"
         id="stop8442" />
      <stop
         style="stop-color:#babdb6;stop-opacity:1;"
         offset="1"
         id="stop8444" />
    </linearGradient>
    <linearGradient
       id="linearGradient30743"
       inkscape:collect="always">
      <stop
         id="stop30745"
         offset="0"
         style="stop-color:#000000;stop-opacity:1;" />
      <stop
         id="stop30747"
         offset="1"
         style="stop-color:#000000;stop-opacity:0;" />
    </linearGradient>
    <radialGradient
       inkscape:collect="always"
       xlink:href="#linearGradient30743"
       id="radialGradient2533"
       gradientUnits="userSpaceOnUse"
       gradientTransform="matrix(1,0,0,0.6052632,0,2.3684209)"
       cx="10.5"
       cy="5.9999995"
       fx="10.5"
       fy="5.9999995"
       r="9.5" />
    <radialGradient
       inkscape:collect="always"
       xlink:href="#linearGradient30743"
       id="radialGradient2539"
       gradientUnits="userSpaceOnUse"
       gradientTransform="matrix(1,0,0,0.6052632,0,2.3684209)"
       cx="10.5"
       cy="5.9999995"
       fx="10.5"
       fy="5.9999995"
       r="9.5" />
    <radialGradient
       inkscape:collect="always"
       xlink:href="#linearGradient8440"
       id="radialGradient2544"
       gradientUnits="userSpaceOnUse"
       gradientTransform="matrix(0.3528149,0.2649361,-0.34606,0.4608477,9.1772366,-3.7418803)"
       cx="56.704376"
       cy="10.241054"
       fx="56.704376"
       fy="10.241054"
       r="14.75" />
    <radialGradient
       inkscape:collect="always"
       xlink:href="#linearGradient8440"
       id="radialGradient2554"
       gradientUnits="userSpaceOnUse"
       gradientTransform="matrix(0.2024501,0.2418344,-0.3158847,0.2644408,7.5292096,9.1306966)"
       cx="56.704376"
       cy="10.241054"
       fx="56.704376"
       fy="10.241054"
       r="14.75" />
  </defs>
  <sodipodi:namedview
     stroke="#ef2929"
     fill="#eeeeec"
     id="base"
     pagecolor="#ffffff"
     bordercolor="#666666"
     borderopacity="0.25490196"
     inkscape:pageopacity="0.0"
     inkscape:pageshadow="2"
     inkscape:zoom="16"
     inkscape:cx="24.279886"
     inkscape:cy="30.648224"
     inkscape:current-layer="layer1"
     showgrid="false"
     inkscape:grid-bbox="true"
     inkscape:document-units="px"
     inkscape:showpageshadow="false"
     inkscape:window-width="906"
     inkscape:window-height="661"
     inkscape:window-x="91"
     inkscape:window-y="61"
     showguides="true"
     inkscape:guide-bbox="true" />
  <metadata
     id="metadata4">
    <rdf:RDF>
      <cc:Work
         rdf:about="">
        <dc:format>image/svg+xml</dc:format>
        <dc:type
           rdf:resource="http://purl.org/dc/dcmitype/StillImage" />
        <dc:creator>
          <cc:Agent>
            <dc:title>Patrick Niklaus</dc:title>
          </cc:Agent>
        </dc:creator>
        <dc:source />
        <cc:license
           rdf:resource="http://creativecommons.org/licenses/GPL/2.0/" />
        <dc:title>Zoom</dc:title>
        <dc:subject>
          <rdf:Bag />
        </dc:subject>
      </cc:Work>
      <cc:License
         rdf:about="http://creativecommons.org/licenses/GPL/2.0/">
        <cc:permits
           rdf:resource="http://web.resource.org/cc/Reproduction" />
        <cc:permits
           rdf:resource="http://web.resource.org/cc/Distribution" />
        <cc:requires
           rdf:resource="http://web.resource.org/cc/Notice" />
        <cc:permits
           rdf:resource="http://web.resource.org/cc/DerivativeWorks" />
        <cc:requires
           rdf:resource="http://web.resource.org/cc/ShareAlike" />
        <cc:requires
           rdf:resource="http://web.resource.org/cc/SourceCode" />
      </cc:License>
    </rdf:RDF>
  </metadata>
  <g
     id="layer1"
     inkscape:label="Layer 1"
     inkscape:groupmode="layer">
    <path
       style="opacity:0.2;color:#000000;fill:#000000;fill-opacity:1;fill-rule:nonzero;stroke:#000000;stroke-width:0.99999964;stroke-linecap:round;stroke-linejoin:round;marker:none;marker-start:none;marker-mid:none;marker-end:none;stroke-miterlimit:4;stroke-dasharray:none;stroke-dashoffset:1.20000057;stroke-opacity:1;visibility:visible;display:inline;overflow:visible"
       d="M 5.1378255,8.0167919 C 4.8532035,8.0167919 4.6378255,8.2321709 4.6378255,8.5167919 L 4.6378255,15.516792 C 4.6378255,15.801415 4.8532035,16.016794 5.1378255,16.016793 L 5.6378255,15.516792 L 5.6378255,31.516793 L 5.1378255,31.016793 C 4.8532035,31.016793 4.6378255,31.232171 4.6378255,31.516793 L 4.6378255,38.016792 C 4.6378255,38.301414 4.8532035,38.516792 5.1378255,38.516792 L 12.137826,38.516792 C 12.422448,38.516792 12.637826,38.301416 12.637826,38.016792 L 12.137826,38.016792 L 38.137826,38.016792 L 37.637826,38.016792 C 37.637826,38.301414 37.853204,38.516792 38.137826,38.516792 L 44.637826,38.516792 C 44.922448,38.516792 45.137825,38.301414 45.137826,38.016792 L 45.137826,31.516793 C 45.137826,31.232171 44.92245,31.016793 44.637826,31.016793 L 44.637826,31.516793 L 44.637826,15.516792 L 44.637826,16.016793 C 44.922448,16.016793 45.137826,15.801415 45.137826,15.516792 L 45.137826,8.5167919 C 45.137826,8.2321699 44.92245,8.0167924 44.637826,8.0167919 L 38.137826,8.0167919 C 37.853204,8.0167919 37.637828,8.2321697 37.637826,8.5167919 L 38.137826,9.0167924 L 12.137826,9.0167924 L 12.637826,8.5167919 C 12.637826,8.2321704 12.422448,8.0167919 12.137826,8.0167919 L 5.1378255,8.0167919 z"
       id="rect5556"
       sodipodi:nodetypes="ccccccccccccccccccccccccccccccccc" />
    <rect
       style="color:#000000;fill:url(#linearGradient4368);fill-opacity:1;fill-rule:nonzero;stroke:#888a85;stroke-width:0.99999964;stroke-linecap:round;stroke-linejoin:round;marker:none;marker-start:none;marker-mid:none;marker-end:none;stroke-miterlimit:4;stroke-dasharray:none;stroke-dashoffset:1.20000057;stroke-opacity:1;visibility:visible;display:inline;overflow:visible"
       id="rect1879"
       width="38.999981"
       height="28.999983"
       x="4.637826"
       y="8.0167885" />
    <g
       id="g5550"
       style="opacity:0.1;display:inline"
       transform="matrix(-1,0,0,-1,47.137826,46.516812)">
      <path
         sodipodi:nodetypes="ccccccc"
         id="path5552"
         d="M 11.5,10.013768 L 4.013757,17.500012 C 3.729135,17.500012 3.5,17.270877 3.5,16.986255 L 3.5,10.013768 C 3.5,9.7291462 3.729135,9.5000105 4.013757,9.5000105 L 10.986243,9.5000105 C 11.270865,9.5000105 11.5,9.7291462 11.5,10.013768 z"
         style="color:#000000;fill:#000000;fill-opacity:1;fill-rule:nonzero;stroke:#000000;stroke-width:1.00000012;stroke-linecap:round;stroke-linejoin:round;marker:none;marker-start:none;marker-mid:none;marker-end:none;stroke-miterlimit:4;stroke-dashoffset:1.20000057;stroke-opacity:1;visibility:visible;display:inline;overflow:visible" />
      <path
         sodipodi:nodetypes="ccccccc"
         id="path5554"
         d="M 41.986242,17.50001 L 34.499998,10.013767 C 34.499998,9.729145 34.729133,9.50001 35.013755,9.50001 L 41.986242,9.50001 C 42.270864,9.50001 42.5,9.729145 42.5,10.013767 L 42.5,16.986253 C 42.5,17.270875 42.270864,17.50001 41.986242,17.50001 z"
         style="color:#000000;fill:#000000;fill-opacity:1;fill-rule:nonzero;stroke:#000000;stroke-width:1.00000012;stroke-linecap:round;stroke-linejoin:round;marker:none;marker-start:none;marker-mid:none;marker-end:none;stroke-miterlimit:4;stroke-dashoffset:1.20000057;stroke-opacity:1;visibility:visible;display:inline;overflow:visible" />
    </g>
    <rect
       style="color:#000000;fill:none;fill-opacity:1;fill-rule:nonzero;stroke:url(#linearGradient3020);stroke-width:0.99999958;stroke-linecap:round;stroke-linejoin:round;marker:none;marker-start:none;marker-mid:none;marker-end:none;stroke-miterlimit:4;stroke-dasharray:none;stroke-dashoffset:1.20000057;stroke-opacity:1;visibility:visible;display:inline;overflow:visible"
       id="rect3674"
       width="37.000023"
       height="26.999969"
       x="5.6378069"
       y="9.0167904" />
    <path
       style="color:#000000;fill:url(#linearGradient3017);fill-opacity:1;fill-rule:nonzero;stroke:#888a85;stroke-width:1.00000012;stroke-linecap:round;stroke-linejoin:round;marker:none;marker-start:none;marker-mid:none;marker-end:none;stroke-miterlimit:4;stroke-dashoffset:1.20000057;stroke-opacity:1;visibility:visible;display:inline;overflow:visible"
       d="M 4.1515835,30.016803 L 11.637828,37.503045 C 11.637828,37.787667 11.408693,38.016803 11.124071,38.016803 L 4.1515835,38.016803 C 3.8669615,38.016803 3.6378255,37.787667 3.6378255,37.503045 L 3.6378255,30.53056 C 3.6378255,30.245938 3.8669615,30.016803 4.1515835,30.016803 z"
       id="rect2768"
       sodipodi:nodetypes="ccccccc" />
    <path
       sodipodi:type="inkscape:offset"
       inkscape:radius="-0.9952234"
       inkscape:original="M 3 31.5 C 2.7153785 31.5 2.5 31.715378 2.5 32 L 2.5 39 C 2.5 39.284622 2.7153785 39.499999 3 39.5 L 10 39.5 C 10.284622 39.5 10.5 39.284623 10.5 39 L 3 31.5 z "
       style="opacity:0.6;color:#000000;fill:none;fill-opacity:1;fill-rule:nonzero;stroke:url(#linearGradient5532);stroke-width:1;stroke-linecap:round;stroke-linejoin:miter;marker:none;marker-start:none;marker-mid:none;marker-end:none;stroke-miterlimit:4;stroke-dasharray:none;stroke-dashoffset:1.20000057;stroke-opacity:1;visibility:visible;display:inline;overflow:visible"
       id="path3688"
       d="M 3.5,33.4375 L 3.5,38.5 L 8.5625,38.5 L 3.5,33.4375 z"
       transform="translate(1.1378255,-1.4832081)" />
    <g
       id="g5546"
       style="opacity:0.1"
       transform="translate(1.1378255,-1.4832081)">
      <path
         sodipodi:nodetypes="ccccccc"
         id="path5542"
         d="M 11.5,10.013768 L 4.013757,17.500012 C 3.729135,17.500012 3.5,17.270877 3.5,16.986255 L 3.5,10.013768 C 3.5,9.7291462 3.729135,9.5000105 4.013757,9.5000105 L 10.986243,9.5000105 C 11.270865,9.5000105 11.5,9.7291462 11.5,10.013768 z"
         style="color:#000000;fill:#000000;fill-opacity:1;fill-rule:nonzero;stroke:#000000;stroke-width:1.00000012;stroke-linecap:round;stroke-linejoin:round;marker:none;marker-start:none;marker-mid:none;marker-end:none;stroke-miterlimit:4;stroke-dashoffset:1.20000057;stroke-opacity:1;visibility:visible;display:inline;overflow:visible" />
      <path
         sodipodi:nodetypes="ccccccc"
         id="path5544"
         d="M 41.986242,17.50001 L 34.499998,10.013767 C 34.499998,9.729145 34.729133,9.50001 35.013755,9.50001 L 41.986242,9.50001 C 42.270864,9.50001 42.5,9.729145 42.5,10.013767 L 42.5,16.986253 C 42.5,17.270875 42.270864,17.50001 41.986242,17.50001 z"
         style="color:#000000;fill:#000000;fill-opacity:1;fill-rule:nonzero;stroke:#000000;stroke-width:1.00000012;stroke-linecap:round;stroke-linejoin:round;marker:none;marker-start:none;marker-mid:none;marker-end:none;stroke-miterlimit:4;stroke-dashoffset:1.20000057;stroke-opacity:1;visibility:visible;display:inline;overflow:visible" />
    </g>
    <path
       style="color:#000000;fill:url(#linearGradient3010);fill-opacity:1;fill-rule:nonzero;stroke:#888a85;stroke-width:1.00000012;stroke-linecap:round;stroke-linejoin:round;marker:none;marker-start:none;marker-mid:none;marker-end:none;stroke-miterlimit:4;stroke-dashoffset:1.20000057;stroke-opacity:1;visibility:visible;display:inline;overflow:visible"
       d="M 11.637826,7.5305596 L 4.1515825,15.016805 C 3.8669605,15.016805 3.6378255,14.787669 3.6378255,14.503047 L 3.6378255,7.5305596 C 3.6378255,7.2459381 3.8669605,7.0168024 4.1515825,7.0168024 L 11.124069,7.0168024 C 11.408691,7.0168024 11.637826,7.2459381 11.637826,7.5305596 z"
       id="path4583"
       sodipodi:nodetypes="ccccccc" />
    <path
       style="color:#000000;fill:url(#linearGradient3007);fill-opacity:1;fill-rule:nonzero;stroke:#888a85;stroke-width:1.00000012;stroke-linecap:round;stroke-linejoin:round;marker:none;marker-start:none;marker-mid:none;marker-end:none;stroke-miterlimit:4;stroke-dashoffset:1.20000057;stroke-opacity:1;visibility:visible;display:inline;overflow:visible"
       d="M 44.124068,15.016802 L 36.637824,7.5305589 C 36.637824,7.2459369 36.866959,7.0168019 37.151581,7.0168019 L 44.124068,7.0168019 C 44.40869,7.0168019 44.637826,7.2459369 44.637826,7.5305589 L 44.637826,14.503045 C 44.637826,14.787667 44.40869,15.016802 44.124068,15.016802 z"
       id="path4589"
       sodipodi:nodetypes="ccccccc" />
    <path
       style="opacity:0.5;color:#000000;fill:url(#linearGradient3004);fill-opacity:1;fill-rule:nonzero;stroke:none;stroke-width:1;stroke-linecap:round;stroke-linejoin:miter;marker:none;stroke-miterlimit:4;stroke-dashoffset:1.20000057;stroke-opacity:1;visibility:visible;display:inline;overflow:visible"
       d="M 37.356576,7.5167919 L 38.231576,8.3605419 L 38.387826,8.5167919 L 39.762826,8.5167919 L 43.137826,8.5167919 L 43.137826,11.891792 L 43.137826,13.266792 L 43.294076,13.423042 L 44.137826,14.298042 L 44.137826,13.079292 L 44.137826,8.0167919 L 44.137826,7.5167919 L 43.637826,7.5167919 L 38.575326,7.5167919 L 37.356576,7.5167919 z"
       id="path4591" />
    <path
       style="color:#000000;fill:url(#linearGradient3001);fill-opacity:1;fill-rule:nonzero;stroke:#888a85;stroke-width:1.00000012;stroke-linecap:round;stroke-linejoin:round;marker:none;marker-start:none;marker-mid:none;marker-end:none;stroke-miterlimit:4;stroke-dashoffset:1.20000057;stroke-opacity:1;visibility:visible;display:inline;overflow:visible"
       d="M 36.637825,37.503044 L 44.124068,30.016801 C 44.40869,30.016801 44.637825,30.245936 44.637825,30.530558 L 44.637825,37.503044 C 44.637825,37.787666 44.40869,38.016803 44.124068,38.016803 L 37.151582,38.016803 C 36.86696,38.016803 36.637825,37.787666 36.637825,37.503044 z"
       id="path4595"
       sodipodi:nodetypes="ccccccc" />
    <path
       sodipodi:type="inkscape:offset"
       inkscape:radius="-0.9952234"
       inkscape:original="M 3 31.5 C 2.7153785 31.5 2.5 31.715378 2.5 32 L 2.5 39 C 2.5 39.284622 2.7153785 39.499999 3 39.5 L 10 39.5 C 10.284622 39.5 10.5 39.284623 10.5 39 L 3 31.5 z "
       style="opacity:0.6;color:#000000;fill:none;fill-opacity:1;fill-rule:nonzero;stroke:url(#linearGradient5540);stroke-width:1;stroke-linecap:round;stroke-linejoin:miter;marker:none;marker-start:none;marker-mid:none;marker-end:none;stroke-miterlimit:4;stroke-dasharray:none;stroke-dashoffset:1.20000057;stroke-opacity:1;visibility:visible;display:inline;overflow:visible"
       id="path4597"
       d="M 3.5,33.4375 L 3.5,38.5 L 8.5625,38.5 L 3.5,33.4375 z"
       transform="matrix(0,-1,1,0,5.1378145,40.516802)" />
    <path
       style="opacity:0.5;color:#000000;fill:url(#linearGradient2996);fill-opacity:1;fill-rule:nonzero;stroke:none;stroke-width:1;stroke-linecap:round;stroke-linejoin:miter;marker:none;stroke-miterlimit:4;stroke-dashoffset:1.20000057;stroke-opacity:1;visibility:visible;display:inline;overflow:visible"
       d="M 10.919076,7.5167919 L 10.044076,8.3605419 L 9.8878256,8.5167919 L 8.5128255,8.5167919 L 5.1378255,8.5167919 L 5.1378255,11.891792 L 5.1378255,13.266792 L 4.9815755,13.423042 L 4.1378255,14.298042 L 4.1378255,13.079292 L 4.1378255,8.0167919 L 4.1378255,7.5167919 L 4.6378255,7.5167919 L 9.7003256,7.5167919 L 10.919076,7.5167919 z"
       id="path5522" />
    <g
       id="layer6"
       inkscape:label="Shadow"
       transform="translate(-42.70823,29.563374)" />
    <g
       style="display:inline"
       inkscape:label="Base"
       id="g6461"
       transform="translate(-42.70823,29.563374)" />
    <g
       id="g2637"
       inkscape:label="base"
       style="display:inline"
       transform="translate(-54.97336,77.063364)" />
    <path
       sodipodi:type="arc"
       style="opacity:0.25899999;fill:url(#radialGradient2533);fill-opacity:1;fill-rule:evenodd;stroke:none;stroke-width:0.5;stroke-linecap:round;stroke-linejoin:round;stroke-miterlimit:4;stroke-dasharray:none;stroke-dashoffset:0;stroke-opacity:1"
       id="path29772"
       sodipodi:cx="10.5"
       sodipodi:cy="5.9999995"
       sodipodi:rx="9.5"
       sodipodi:ry="5.75"
       d="M 20,5.9999995 A 9.5,5.75 0 1 1 1,5.9999995 A 9.5,5.75 0 1 1 20,5.9999995 z"
       transform="matrix(0.679996,0,0,0.1985185,11.195077,33.176553)" />
    <path
       style="fill:url(#radialGradient2554);fill-opacity:1;fill-rule:evenodd;stroke:#555753;stroke-width:1;stroke-linecap:butt;stroke-linejoin:miter;stroke-miterlimit:4;stroke-dasharray:none;stroke-dashoffset:0;stroke-opacity:1"
       d="M 17.154438,22.345599 C 17.030951,22.345599 16.937878,22.442799 16.937878,22.562159 L 16.937878,24.32012 C 16.656182,24.398124 16.388777,24.51805 16.135331,24.65133 L 14.950618,23.530312 C 14.864027,23.44816 14.729879,23.453465 14.644886,23.543051 L 13.421957,24.816935 C 13.336965,24.906519 13.348105,25.053255 13.434696,25.135406 L 14.530237,26.167252 C 14.353366,26.464134 14.20751,26.783182 14.109855,27.122665 L 12.415589,27.122665 C 12.296229,27.122665 12.199028,27.215738 12.199028,27.339226 L 12.199028,29.122664 C 12.199028,29.246151 12.296229,29.339224 12.415589,29.339224 L 14.097116,29.339224 C 14.185579,29.652081 14.322354,29.94079 14.479281,30.218204 L 13.269091,31.47935 C 13.183267,31.568139 13.18327,31.702127 13.269091,31.785082 L 14.530237,33.008011 C 14.616058,33.090966 14.750145,33.084061 14.835969,32.995272 L 16.03342,31.772343 C 16.328322,31.937891 16.64197,32.078245 16.976094,32.167247 L 16.976094,33.874252 C 16.976094,33.993613 17.069167,34.090812 17.192655,34.090812 L 18.976093,34.090812 C 19.09958,34.090812 19.192653,33.993613 19.192653,33.874252 L 19.192653,32.14177 C 19.486614,32.053517 19.759356,31.920762 20.020678,31.772343 L 21.192652,32.931578 C 21.277428,33.0156 21.424194,33.019286 21.511122,32.931578 L 22.759529,31.670432 C 22.846457,31.582725 22.844306,31.448723 22.759529,31.3647 L 21.587556,30.192727 C 21.728933,29.933254 21.848399,29.654674 21.931504,29.364702 L 23.600293,29.364702 C 23.719653,29.364702 23.816853,29.271629 23.816853,29.148141 L 23.816853,27.364704 C 23.816853,27.241216 23.719652,27.148143 23.600293,27.148143 L 21.944243,27.148143 C 21.851068,26.814413 21.719023,26.499514 21.549339,26.205469 L 22.810485,25.058973 C 22.901925,24.975981 22.91618,24.841626 22.835962,24.753241 L 21.651249,23.44114 C 21.571031,23.352755 21.436958,23.358148 21.345517,23.44114 L 20.033417,24.625852 C 20.01759,24.640216 20.006054,24.659692 19.9952,24.676808 C 19.731999,24.530035 19.449447,24.405449 19.154436,24.32012 L 19.154436,22.562159 C 19.154436,22.442799 19.061364,22.345599 18.937876,22.345599 L 17.154438,22.345599 z M 18.020679,26.676806 C 19.016301,26.676806 19.676729,27.404551 19.676729,28.243684 C 19.676728,29.082817 19.016302,29.810561 18.020679,29.810561 C 17.025057,29.810561 16.36463,29.082817 16.36463,28.243684 C 16.364629,27.404552 17.025057,26.676806 18.020679,26.676806 z"
       id="path2591" />
    <path
       sodipodi:type="inkscape:offset"
       inkscape:radius="-0.9599613"
       inkscape:original="M 60.375 3.125 L 60.375 7.15625 C 60.371912 7.5194123 60.130326 7.8372886 59.78125 7.9375 C 59.169905 8.1067881 58.559537 8.3768222 57.96875 8.6875 C 57.661279 8.8483892 57.285825 8.7983287 57.03125 8.5625 L 54.34375 6 L 51.71875 8.75 L 54.21875 11.09375 C 54.494859 11.351352 54.559366 11.764199 54.375 12.09375 C 53.971871 12.770414 53.623576 13.494497 53.40625 14.25 C 53.306039 14.599076 52.988162 14.840662 52.625 14.84375 L 48.75 14.84375 L 48.75 18.65625 L 52.59375 18.65625 C 52.956912 18.659338 53.274789 18.900924 53.375 19.25 C 53.567737 19.931631 53.884546 20.572703 54.25 21.21875 C 54.426168 21.533968 54.375412 21.927325 54.125 22.1875 L 51.34375 25.09375 L 54 27.6875 L 56.75 24.875 C 57.007602 24.598891 57.420449 24.534384 57.75 24.71875 C 58.429534 25.100218 59.139208 25.429005 59.875 25.625 C 60.224076 25.725211 60.465662 26.043088 60.46875 26.40625 L 60.46875 30.3125 L 64.28125 30.3125 L 64.28125 26.34375 C 64.280089 25.989098 64.507041 25.673886 64.84375 25.5625 C 65.481753 25.370962 66.108157 25.06554 66.71875 24.71875 C 67.033968 24.542582 67.427325 24.593338 67.6875 24.84375 L 70.375 27.5 L 73.0625 24.84375 L 70.375 22.15625 C 70.109267 21.890864 70.057769 21.478881 70.25 21.15625 C 70.571694 20.565843 70.8464 19.957479 71.03125 19.3125 C 71.131461 18.963424 71.449338 18.721838 71.8125 18.71875 L 75.625 18.71875 L 75.625 14.90625 L 71.84375 14.90625 C 71.480588 14.903162 71.162711 14.661576 71.0625 14.3125 C 70.851959 13.5584 70.53788 12.848827 70.15625 12.1875 C 69.971884 11.857949 70.036391 11.445102 70.3125 11.1875 L 73.21875 8.53125 L 70.71875 5.78125 L 67.71875 8.5 C 67.479528 8.8411617 67.022497 8.9486984 66.65625 8.75 C 66.056217 8.415393 65.434546 8.1264586 64.78125 7.9375 C 64.432174 7.8372886 64.190588 7.5194123 64.1875 7.15625 L 64.1875 3.125 L 60.375 3.125 z M 62.21875 12.125 C 65.060709 12.125 67.09375 14.292516 67.09375 16.78125 C 67.093749 19.269985 65.06071 21.437499 62.21875 21.4375 C 59.376789 21.437501 57.34375 19.269985 57.34375 16.78125 C 57.343748 14.292517 59.376789 12.125 62.21875 12.125 z "
       style="fill:none;fill-opacity:1;fill-rule:evenodd;stroke:#dddddd;stroke-width:1.22656345;stroke-linecap:butt;stroke-linejoin:miter;stroke-miterlimit:4;stroke-dasharray:none;stroke-dashoffset:0;stroke-opacity:1"
       id="path4180"
       d="M 61.34375,4.09375 L 61.34375,7.15625 C 61.337083,7.9403327 60.78492,8.6586394 60.03125,8.875 C 59.514559,9.0180774 58.958777,9.240692 58.40625,9.53125 C 57.741868,9.8788986 56.925085,9.7908282 56.375,9.28125 C 56.37483,9.270834 56.37483,9.260416 56.375,9.25 L 54.375,7.34375 L 53.0625,8.71875 L 54.875,10.40625 C 55.470651,10.961976 55.616483,11.851558 55.21875,12.5625 C 55.208574,12.573155 55.198155,12.583574 55.1875,12.59375 C 54.814054,13.220591 54.530796,13.849763 54.34375,14.5 C 54.12739,15.253672 53.409083,15.805833 52.625,15.8125 L 49.71875,15.8125 L 49.71875,17.6875 L 52.59375,17.6875 C 53.377833,17.694167 54.09614,18.246328 54.3125,19 C 54.473175,19.568241 54.74523,20.133889 55.09375,20.75 C 55.474146,21.430643 55.353209,22.28196 54.8125,22.84375 L 52.6875,25.0625 L 54,26.34375 L 56.0625,24.21875 C 56.618226,23.623099 57.507808,23.477267 58.21875,23.875 C 58.854822,24.23207 59.498881,24.520719 60.125,24.6875 C 60.878672,24.90386 61.430833,25.622167 61.4375,26.40625 L 61.4375,29.34375 L 63.3125,29.34375 L 63.3125,26.34375 C 63.309992,25.577705 63.803961,24.896843 64.53125,24.65625 C 64.541666,24.65608 64.552084,24.65608 64.5625,24.65625 C 65.097068,24.495765 65.674102,24.202085 66.25,23.875 C 66.930643,23.494604 67.78196,23.615541 68.34375,24.15625 C 68.354166,24.15608 68.364584,24.15608 68.375,24.15625 L 70.375,26.125 L 71.6875,24.84375 L 69.6875,22.84375 C 69.114164,22.271162 69.022748,21.352349 69.4375,20.65625 C 69.736491,20.10751 69.93425,19.619027 70.09375,19.0625 C 70.31011,18.308828 71.028417,17.756667 71.8125,17.75 L 74.65625,17.75 L 74.65625,15.875 L 71.84375,15.875 C 71.059667,15.868333 70.34136,15.316172 70.125,14.5625 C 69.939011,13.896339 69.659517,13.257596 69.3125,12.65625 C 68.914767,11.945308 69.060599,11.055726 69.65625,10.5 C 69.65608,10.489584 69.65608,10.479166 69.65625,10.46875 L 71.84375,8.46875 L 70.65625,7.15625 L 68.375,9.21875 L 68.34375,9.1875 C 67.802304,9.7879248 66.912206,9.9869213 66.1875,9.59375 C 65.628494,9.2820215 65.058535,9.03655 64.5,8.875 C 63.74633,8.6586394 63.225417,7.9403327 63.21875,7.15625 L 63.21875,4.09375 L 61.34375,4.09375 z M 62.21875,11.15625 C 65.548807,11.15625 68.0625,13.769723 68.0625,16.78125 C 68.062499,19.792777 65.548807,22.406249 62.21875,22.40625 C 58.888691,22.406251 56.375,19.792778 56.375,16.78125 C 56.374998,13.769723 58.888691,11.15625 62.21875,11.15625 z"
       transform="matrix(0.407643,0,0,0.407643,-7.3411152,21.405175)" />
    <path
       style="fill:url(#radialGradient2544);fill-opacity:1;fill-rule:evenodd;stroke:#555753;stroke-width:1;stroke-linecap:butt;stroke-linejoin:miter;stroke-miterlimit:4;stroke-dasharray:none;stroke-dashoffset:0;stroke-opacity:1"
       d="M 26.498386,11.19333 C 26.330172,11.232667 26.234351,11.394722 26.272374,11.557315 L 26.832378,13.952011 C 26.4735,14.148004 26.147443,14.396549 25.844655,14.658839 L 23.873734,13.509181 C 23.72961,13.424857 23.548563,13.474818 23.461323,13.623926 L 22.201248,15.74878 C 22.114009,15.897888 22.175927,16.094221 22.320051,16.178544 L 24.141095,17.235139 C 23.994735,17.695894 23.897683,18.176965 23.872801,18.670518 L 21.56487,19.210231 C 21.402277,19.248254 21.299519,19.406002 21.338856,19.574217 L 21.906976,22.003618 C 21.946314,22.171833 22.108369,22.267653 22.270962,22.229631 L 24.56154,21.693975 C 24.781706,22.091969 25.059991,22.441678 25.362128,22.769583 L 24.115348,24.873026 C 24.026723,25.021314 24.069409,25.203832 24.21274,25.289495 L 26.320241,26.553629 C 26.463573,26.639292 26.644028,26.587172 26.732652,26.438884 L 27.974254,24.391556 C 28.428706,24.523124 28.900668,24.614401 29.384164,24.629204 L 29.927936,26.954488 C 29.965959,27.117081 30.123706,27.219838 30.291921,27.180501 L 32.721323,26.612381 C 32.889537,26.573043 32.985358,26.410989 32.947336,26.248396 L 32.395447,23.888406 C 32.767768,23.674547 33.097008,23.406824 33.405702,23.121402 L 35.371444,24.327178 C 35.513692,24.414627 35.714792,24.372895 35.805266,24.225728 L 37.104105,22.11011 C 37.194578,21.962943 37.148962,21.781091 37.006713,21.693641 L 35.036913,20.470513 C 35.146842,20.072023 35.220836,19.654484 35.24167,19.233011 L 37.514896,18.701412 C 37.677488,18.66339 37.780246,18.505643 37.740909,18.337428 L 37.172788,15.908027 C 37.133451,15.739812 36.971396,15.643991 36.808804,15.682013 L 34.552931,16.209554 C 34.319696,15.784627 34.039513,15.397735 33.7147,15.051239 L 35.067414,13.087739 C 35.165537,12.945559 35.142156,12.757999 35.004728,12.663154 L 32.972937,11.253203 C 32.835508,11.158358 32.654592,11.208414 32.556468,11.350595 L 31.146517,13.382385 C 31.129534,13.406994 31.120023,13.437198 31.11069,13.463971 C 30.705403,13.34788 30.280823,13.268177 29.851776,13.245919 L 29.291772,10.851223 C 29.25375,10.68863 29.096003,10.585872 28.927788,10.62521 L 26.498386,11.19333 z M 29.058102,16.817362 C 30.414339,16.500203 31.5458,17.281156 31.813109,18.424224 C 32.080416,19.567293 31.412608,20.769008 30.05637,21.086167 C 28.700131,21.403326 27.568671,20.622373 27.301363,19.479304 C 27.034053,18.336238 27.701863,17.13452 29.058102,16.817362 z"
       id="path2212" />
    <path
       sodipodi:type="inkscape:offset"
       inkscape:radius="-0.50680035"
       inkscape:original="M 60.375 3.125 L 60.375 7.15625 C 60.371912 7.5194123 60.130326 7.8372886 59.78125 7.9375 C 59.169905 8.1067881 58.559537 8.3768222 57.96875 8.6875 C 57.661279 8.8483892 57.285825 8.7983287 57.03125 8.5625 L 54.34375 6 L 51.71875 8.75 L 54.21875 11.09375 C 54.494859 11.351352 54.559366 11.764199 54.375 12.09375 C 53.971871 12.770414 53.623576 13.494497 53.40625 14.25 C 53.306039 14.599076 52.988162 14.840662 52.625 14.84375 L 48.75 14.84375 L 48.75 18.65625 L 52.59375 18.65625 C 52.956912 18.659338 53.274789 18.900924 53.375 19.25 C 53.567737 19.931631 53.884546 20.572703 54.25 21.21875 C 54.426168 21.533968 54.375412 21.927325 54.125 22.1875 L 51.34375 25.09375 L 54 27.6875 L 56.75 24.875 C 57.007602 24.598891 57.420449 24.534384 57.75 24.71875 C 58.429534 25.100218 59.139208 25.429005 59.875 25.625 C 60.224076 25.725211 60.465662 26.043088 60.46875 26.40625 L 60.46875 30.3125 L 64.28125 30.3125 L 64.28125 26.34375 C 64.280089 25.989098 64.507041 25.673886 64.84375 25.5625 C 65.481753 25.370962 66.108157 25.06554 66.71875 24.71875 C 67.033968 24.542582 67.427325 24.593338 67.6875 24.84375 L 70.375 27.5 L 73.0625 24.84375 L 70.375 22.15625 C 70.109267 21.890864 70.057769 21.478881 70.25 21.15625 C 70.571694 20.565843 70.8464 19.957479 71.03125 19.3125 C 71.131461 18.963424 71.449338 18.721838 71.8125 18.71875 L 75.625 18.71875 L 75.625 14.90625 L 71.84375 14.90625 C 71.480588 14.903162 71.162711 14.661576 71.0625 14.3125 C 70.851959 13.5584 70.53788 12.848827 70.15625 12.1875 C 69.971884 11.857949 70.036391 11.445102 70.3125 11.1875 L 73.21875 8.53125 L 70.71875 5.78125 L 67.71875 8.5 C 67.479528 8.8411617 67.022497 8.9486984 66.65625 8.75 C 66.056217 8.415393 65.434546 8.1264586 64.78125 7.9375 C 64.432174 7.8372886 64.190588 7.5194123 64.1875 7.15625 L 64.1875 3.125 L 60.375 3.125 z M 62.21875 12.125 C 65.060709 12.125 67.09375 14.292516 67.09375 16.78125 C 67.093749 19.269985 65.06071 21.437499 62.21875 21.4375 C 59.376789 21.437501 57.34375 19.269985 57.34375 16.78125 C 57.343748 14.292517 59.376789 12.125 62.21875 12.125 z "
       style="fill:none;fill-opacity:1;fill-rule:evenodd;stroke:#dddddd;stroke-width:0.8767727;stroke-linecap:butt;stroke-linejoin:miter;stroke-miterlimit:4;stroke-dasharray:none;stroke-dashoffset:0;stroke-opacity:1"
       id="path3195"
       d="M 60.875,3.625 L 60.875,7.15625 C 60.870022,7.7416323 60.468927,8.275969 59.90625,8.4375 C 59.344876,8.5929505 58.789338,8.8249442 58.21875,9.125 C 57.722852,9.3844867 57.098086,9.3178515 56.6875,8.9375 L 54.375,6.71875 L 52.4375,8.71875 L 54.5625,10.71875 C 55.007308,11.133743 55.109511,11.812848 54.8125,12.34375 C 54.425042,12.99411 54.10759,13.675071 53.90625,14.375 C 53.744719,14.937678 53.210382,15.338772 52.625,15.34375 L 49.25,15.34375 L 49.25,18.15625 L 52.59375,18.15625 C 53.179132,18.161228 53.713469,18.562322 53.875,19.125 C 54.05081,19.746768 54.330986,20.338508 54.6875,20.96875 C 54.971488,21.47689 54.903671,22.111841 54.5,22.53125 L 52.0625,25.09375 L 54,26.96875 L 56.375,24.53125 C 56.789993,24.086442 57.469098,23.984239 58,24.28125 C 58.656589,24.649837 59.322109,24.944428 60,25.125 C 60.562678,25.286531 60.963772,25.820868 60.96875,26.40625 L 60.96875,29.8125 L 63.78125,29.8125 L 63.78125,26.34375 C 63.779378,25.771908 64.144589,25.273349 64.6875,25.09375 C 64.687179,25.083336 64.687179,25.072914 64.6875,25.0625 C 65.270896,24.887356 65.876474,24.617637 66.46875,24.28125 C 66.97689,23.997262 67.611841,24.065079 68.03125,24.46875 L 70.375,26.78125 L 72.34375,24.8125 L 70.03125,22.5 C 69.603121,22.072431 69.502792,21.426049 69.8125,20.90625 C 70.122208,20.337841 70.359783,19.785782 70.53125,19.1875 C 70.692781,18.624822 71.227118,18.223728 71.8125,18.21875 L 75.125,18.21875 L 75.125,15.40625 L 71.84375,15.40625 C 71.258368,15.401272 70.724031,15.000178 70.5625,14.4375 C 70.364921,13.729826 70.082107,13.067161 69.71875,12.4375 C 69.421739,11.906598 69.523942,11.227493 69.96875,10.8125 L 72.5,8.5 L 70.6875,6.5 L 68.0625,8.875 L 68.03125,8.84375 C 67.63077,9.3173884 66.960082,9.4879683 66.40625,9.1875 C 65.827877,8.8649714 65.228268,8.6119886 64.625,8.4375 C 64.062323,8.275969 63.692478,7.7416323 63.6875,7.15625 L 63.6875,3.625 L 60.875,3.625 z M 62.21875,11.625 C 65.318395,11.625 67.59375,14.016513 67.59375,16.78125 C 67.593749,19.545987 65.318395,21.937499 62.21875,21.9375 C 59.119103,21.937501 56.84375,19.545987 56.84375,16.78125 C 56.843748,14.016514 59.119103,11.625 62.21875,11.625 z"
       transform="matrix(0.5552918,-0.129856,0.129856,0.5552918,-7.1690643,17.715421)" />
    <path
       sodipodi:type="arc"
       style="opacity:0.25899999;fill:url(#radialGradient2539);fill-opacity:1;fill-rule:evenodd;stroke:none;stroke-width:0.5;stroke-linecap:round;stroke-linejoin:round;stroke-miterlimit:4;stroke-dasharray:none;stroke-dashoffset:0;stroke-opacity:1"
       id="path4186"
       sodipodi:cx="10.5"
       sodipodi:cy="5.9999995"
       sodipodi:rx="9.5"
       sodipodi:ry="5.75"
       d="M 20,5.9999995 A 9.5,5.75 0 1 1 1,5.9999995 A 9.5,5.75 0 1 1 20,5.9999995 z"
       transform="matrix(0.9211479,0,0,0.1985185,19.227634,33.034485)" />
  </g>
</svg>
