<?xml version="1.0" encoding="UTF-8" standalone="no"?>
<!-- Created with Inkscape (http://www.inkscape.org/) -->

<svg
   xmlns:dc="http://purl.org/dc/elements/1.1/"
   xmlns:cc="http://creativecommons.org/ns#"
   xmlns:rdf="http://www.w3.org/1999/02/22-rdf-syntax-ns#"
   xmlns:svg="http://www.w3.org/2000/svg"
   xmlns="http://www.w3.org/2000/svg"
   xmlns:sodipodi="http://sodipodi.sourceforge.net/DTD/sodipodi-0.dtd"
   xmlns:inkscape="http://www.inkscape.org/namespaces/inkscape"
   width="200mm"
   height="200mm"
   viewBox="0 0 708.66142 708.66141"
   id="svg5994"
   version="1.1"
   inkscape:version="0.91 r13725"
   sodipodi:docname="ccsm-fullscreen.svg">
  <defs
     id="defs5996" />
  <sodipodi:namedview
     id="base"
     pagecolor="#ffffff"
     bordercolor="#666666"
     borderopacity="1.0"
     inkscape:pageopacity="0.0"
     inkscape:pageshadow="2"
     inkscape:zoom="0.7"
     inkscape:cx="228.5322"
     inkscape:cy="347.62274"
     inkscape:document-units="px"
     inkscape:current-layer="layer1"
     showgrid="false"
     inkscape:window-width="1920"
     inkscape:window-height="1017"
     inkscape:window-x="0"
     inkscape:window-y="0"
     inkscape:window-maximized="1" />
  <metadata
     id="metadata5999">
    <rdf:RDF>
      <cc:Work
         rdf:about="">
        <dc:format>image/svg+xml</dc:format>
        <dc:type
           rdf:resource="http://purl.org/dc/dcmitype/StillImage" />
        <dc:title></dc:title>
      </cc:Work>
    </rdf:RDF>
  </metadata>
  <g
     inkscape:label="Layer 1"
     inkscape:groupmode="layer"
     id="layer1"
     transform="translate(0,-343.70079)">
    <path
       style="color:#000000;clip-rule:nonzero;display:inline;overflow:visible;visibility:visible;opacity:1;isolation:auto;mix-blend-mode:normal;color-interpolation:sRGB;color-interpolation-filters:linearRGB;solid-color:#000000;solid-opacity:1;fill:#000000;fill-opacity:1;fill-rule:nonzero;stroke:none;stroke-width:16;stroke-linecap:butt;stroke-linejoin:miter;stroke-miterlimit:4;stroke-dasharray:128, 16;stroke-dashoffset:112;stroke-opacity:1;color-rendering:auto;image-rendering:auto;shape-rendering:auto;text-rendering:auto;enable-background:accumulate"
       d="M 29.566406 141.69336 L 29.566406 566.96875 L 679.0957 566.96875 L 679.0957 141.69336 L 29.566406 141.69336 z M 195.79883 198.7793 L 196.63867 214.54883 L 144.51562 215.50977 L 285.13867 293.10156 L 266.7207 304.62109 L 126.0957 227.03125 L 127.73047 257.65234 L 100.88477 258.14648 L 98.128906 206.49609 L 107.88086 200.39844 L 195.79883 198.7793 z M 512.86328 198.7793 L 600.78125 200.39844 L 610.53125 206.49609 L 607.77734 258.14648 L 580.93164 257.65234 L 582.56445 227.03125 L 441.94141 304.62109 L 423.52148 293.10156 L 564.14648 215.50977 L 512.02148 214.54883 L 512.86328 198.7793 z M 266.7207 404.03906 L 285.13867 415.56055 L 144.51562 493.15234 L 196.63867 494.11133 L 195.79883 509.88281 L 107.88086 508.26367 L 98.128906 502.16406 L 100.88477 450.51562 L 127.73047 451.00977 L 126.0957 481.63086 L 266.7207 404.03906 z M 441.94141 404.03906 L 582.56445 481.63086 L 580.93164 451.00977 L 607.77734 450.51562 L 610.53125 502.16406 L 600.78125 508.26367 L 512.86328 509.88281 L 512.02148 494.11133 L 564.14648 493.15234 L 423.52148 415.56055 L 441.94141 404.03906 z "
       transform="translate(0,343.70079)"
       id="rect6542" />
  </g>
</svg>
