<?xml version="1.0" encoding="UTF-8" standalone="no"?>
<!-- Created with Inkscape (http://www.inkscape.org/) -->

<svg
   xmlns:dc="http://purl.org/dc/elements/1.1/"
   xmlns:cc="http://creativecommons.org/ns#"
   xmlns:rdf="http://www.w3.org/1999/02/22-rdf-syntax-ns#"
   xmlns:svg="http://www.w3.org/2000/svg"
   xmlns="http://www.w3.org/2000/svg"
   xmlns:sodipodi="http://sodipodi.sourceforge.net/DTD/sodipodi-0.dtd"
   xmlns:inkscape="http://www.inkscape.org/namespaces/inkscape"
   width="200mm"
   height="200mm"
   viewBox="0 0 708.66142 708.66141"
   id="svg5950"
   version="1.1"
   inkscape:version="0.91 r13725"
   sodipodi:docname="ccsm-demandsattention.svg">
  <defs
     id="defs5952" />
  <sodipodi:namedview
     id="base"
     pagecolor="#ffffff"
     bordercolor="#666666"
     borderopacity="1.0"
     inkscape:pageopacity="0.0"
     inkscape:pageshadow="2"
     inkscape:zoom="0.7"
     inkscape:cx="236.82555"
     inkscape:cy="426.31251"
     inkscape:document-units="px"
     inkscape:current-layer="layer1"
     showgrid="false"
     inkscape:window-width="1920"
     inkscape:window-height="1017"
     inkscape:window-x="0"
     inkscape:window-y="0"
     inkscape:window-maximized="1" />
  <metadata
     id="metadata5955">
    <rdf:RDF>
      <cc:Work
         rdf:about="">
        <dc:format>image/svg+xml</dc:format>
        <dc:type
           rdf:resource="http://purl.org/dc/dcmitype/StillImage" />
        <dc:title></dc:title>
      </cc:Work>
    </rdf:RDF>
  </metadata>
  <g
     inkscape:label="Layer 1"
     inkscape:groupmode="layer"
     id="layer1"
     transform="translate(0,-343.70079)">
    <path
       style="color:#000000;clip-rule:nonzero;display:inline;overflow:visible;visibility:visible;opacity:1;isolation:auto;mix-blend-mode:normal;color-interpolation:sRGB;color-interpolation-filters:linearRGB;solid-color:#000000;solid-opacity:1;fill:#000000;fill-opacity:1;fill-rule:nonzero;stroke:none;stroke-width:16;stroke-linecap:butt;stroke-linejoin:miter;stroke-miterlimit:4;stroke-dasharray:128, 16;stroke-dashoffset:96.00009155;stroke-opacity:1;color-rendering:auto;image-rendering:auto;shape-rendering:auto;text-rendering:auto;enable-background:accumulate"
       d="m 112.39907,461.65552 0,472.75195 483.86328,0 0,-472.75195 -483.86328,0 z m 241.93164,28.24023 c 21.69684,0 43.3937,10.06041 46.91211,30.18164 7.03681,40.24248 -32.83849,268.28321 -46.91211,268.28321 -14.07363,0 -53.94892,-228.04073 -46.91211,-268.28321 3.5184,-20.12123 25.21527,-30.18164 46.91211,-30.18164 z m 0,328.17969 a 41.42857,41.42857 0 0 1 41.42969,41.42969 41.42857,41.42857 0 0 1 -41.42969,41.42773 41.42857,41.42857 0 0 1 -41.42774,-41.42773 41.42857,41.42857 0 0 1 41.42774,-41.42969 z"
       id="rect5958"
       inkscape:connector-curvature="0" />
  </g>
</svg>
