<?xml version="1.0" encoding="UTF-8" standalone="no"?>
<!-- Created with Inkscape (http://www.inkscape.org/) -->
<svg
   xmlns:dc="http://purl.org/dc/elements/1.1/"
   xmlns:cc="http://web.resource.org/cc/"
   xmlns:rdf="http://www.w3.org/1999/02/22-rdf-syntax-ns#"
   xmlns:svg="http://www.w3.org/2000/svg"
   xmlns="http://www.w3.org/2000/svg"
   xmlns:xlink="http://www.w3.org/1999/xlink"
   xmlns:sodipodi="http://sodipodi.sourceforge.net/DTD/sodipodi-0.dtd"
   xmlns:inkscape="http://www.inkscape.org/namespaces/inkscape"
   version="1.0"
   width="64"
   height="64"
   id="svg11622"
   sodipodi:version="0.32"
   inkscape:version="0.45+devel"
   sodipodi:docname="plugin-tile.svg"
   sodipodi:docbase="/home/patrick/Projects/Beryl/svn/beryl/trunk/beryl-settings/images"
   inkscape:output_extension="org.inkscape.output.svg.inkscape">
  <metadata
     id="metadata212">
    <rdf:RDF>
      <cc:Work
         rdf:about="">
        <dc:format>image/svg+xml</dc:format>
        <dc:type
           rdf:resource="http://purl.org/dc/dcmitype/StillImage" />
        <cc:license
           rdf:resource="http://creativecommons.org/licenses/GPL/2.0/" />
        <dc:title>Tile</dc:title>
        <dc:creator>
          <cc:Agent>
            <dc:title>Patrick Niklaus</dc:title>
          </cc:Agent>
        </dc:creator>
      </cc:Work>
      <cc:License
         rdf:about="http://creativecommons.org/licenses/GPL/2.0/">
        <cc:permits
           rdf:resource="http://web.resource.org/cc/Reproduction" />
        <cc:permits
           rdf:resource="http://web.resource.org/cc/Distribution" />
        <cc:requires
           rdf:resource="http://web.resource.org/cc/Notice" />
        <cc:permits
           rdf:resource="http://web.resource.org/cc/DerivativeWorks" />
        <cc:requires
           rdf:resource="http://web.resource.org/cc/ShareAlike" />
        <cc:requires
           rdf:resource="http://web.resource.org/cc/SourceCode" />
      </cc:License>
    </rdf:RDF>
  </metadata>
  <sodipodi:namedview
     inkscape:window-height="662"
     inkscape:window-width="1001"
     inkscape:pageshadow="2"
     inkscape:pageopacity="0.0"
     guidetolerance="10.0"
     gridtolerance="10.0"
     objecttolerance="10.0"
     borderopacity="1.0"
     bordercolor="#666666"
     pagecolor="#ffffff"
     id="base"
     inkscape:zoom="1"
     inkscape:cx="41.915822"
     inkscape:cy="25.795399"
     inkscape:window-x="161"
     inkscape:window-y="85"
     inkscape:current-layer="svg11622"
     showguides="true"
     inkscape:guide-bbox="true" />
  <defs
     id="defs11624">
    <radialGradient
       gradientTransform="matrix(-1.9576392,-9.2540676e-8,-1.2888861e-7,1.4565793,110.01781,62.73803)"
       gradientUnits="userSpaceOnUse"
       xlink:href="#linearGradient51765"
       id="radialGradient54733"
       fy="-12.203125"
       fx="51.4375"
       r="2.171875"
       cy="-12.203125"
       cx="51.4375" />
    <radialGradient
       gradientTransform="matrix(1.9576392,-8.146468e-7,6.6614241e-7,1.4565793,-59.017557,62.738067)"
       gradientUnits="userSpaceOnUse"
       xlink:href="#linearGradient51765"
       id="radialGradient54731"
       fy="-12.203125"
       fx="51.4375"
       r="2.171875"
       cy="-12.203125"
       cx="51.4375" />
    <linearGradient
       gradientTransform="matrix(0.9788196,0,0,0.7154223,-8.5008021,52.112719)"
       gradientUnits="userSpaceOnUse"
       xlink:href="#linearGradient47870"
       id="linearGradient54729"
       y2="-5.5633383"
       x2="32.084972"
       y1="-14.402173"
       x1="32.084972" />
    <linearGradient
       id="linearGradient13816">
      <stop
         id="stop13818"
         offset="0"
         style="stop-color:#f7f7f6;stop-opacity:1" />
      <stop
         id="stop13820"
         offset="1"
         style="stop-color:#eff0ee;stop-opacity:0" />
    </linearGradient>
    <linearGradient
       id="linearGradient47870">
      <stop
         id="stop47872"
         offset="0"
         style="stop-color:#000000;stop-opacity:0" />
      <stop
         id="stop47878"
         offset="0.5"
         style="stop-color:#000000;stop-opacity:1" />
      <stop
         id="stop47874"
         offset="1"
         style="stop-color:#000000;stop-opacity:0" />
    </linearGradient>
    <linearGradient
       id="linearGradient51765">
      <stop
         id="stop51767"
         offset="0"
         style="stop-color:#000000;stop-opacity:1" />
      <stop
         id="stop51769"
         offset="1"
         style="stop-color:#000000;stop-opacity:0" />
    </linearGradient>
    <linearGradient
       id="linearGradient12914">
      <stop
         id="stop12916"
         offset="0"
         style="stop-color:#3465a4;stop-opacity:1" />
      <stop
         id="stop12918"
         offset="1"
         style="stop-color:#3465a4;stop-opacity:0" />
    </linearGradient>
    <linearGradient
       inkscape:collect="always"
       xlink:href="#linearGradient47870"
       id="linearGradient2626"
       gradientUnits="userSpaceOnUse"
       gradientTransform="matrix(0.9788196,0,0,0.7154223,-8.5008021,52.112719)"
       x1="32.084972"
       y1="-14.402173"
       x2="32.084972"
       y2="-5.5633383" />
    <radialGradient
       inkscape:collect="always"
       xlink:href="#linearGradient51765"
       id="radialGradient2628"
       gradientUnits="userSpaceOnUse"
       gradientTransform="matrix(1.9576392,-8.146468e-7,6.6614241e-7,1.4565793,-59.017557,62.738067)"
       cx="51.4375"
       cy="-12.203125"
       fx="51.4375"
       fy="-12.203125"
       r="2.171875" />
    <radialGradient
       inkscape:collect="always"
       xlink:href="#linearGradient51765"
       id="radialGradient2630"
       gradientUnits="userSpaceOnUse"
       gradientTransform="matrix(-1.9576392,-9.2540676e-8,-1.2888861e-7,1.4565793,110.01781,62.73803)"
       cx="51.4375"
       cy="-12.203125"
       fx="51.4375"
       fy="-12.203125"
       r="2.171875" />
    <linearGradient
       inkscape:collect="always"
       xlink:href="#linearGradient12914"
       id="linearGradient2761"
       gradientUnits="userSpaceOnUse"
       gradientTransform="matrix(0.6093646,0,0,0.754934,1.2679629,-0.3265619)"
       x1="12.838772"
       y1="1.4315225"
       x2="22.452898"
       y2="28.529707" />
    <linearGradient
       inkscape:collect="always"
       xlink:href="#linearGradient13816"
       id="linearGradient2765"
       gradientUnits="userSpaceOnUse"
       gradientTransform="matrix(0.697824,0,0,1.2808407,-0.249441,-18.891719)"
       x1="28.280043"
       y1="15.029495"
       x2="38.880146"
       y2="39.040752" />
    <linearGradient
       inkscape:collect="always"
       xlink:href="#linearGradient47870"
       id="linearGradient3779"
       gradientUnits="userSpaceOnUse"
       gradientTransform="matrix(0.9788196,0,0,0.7154223,-8.5008021,52.112719)"
       x1="32.084972"
       y1="-14.402173"
       x2="32.084972"
       y2="-5.5633383" />
    <radialGradient
       inkscape:collect="always"
       xlink:href="#linearGradient51765"
       id="radialGradient3781"
       gradientUnits="userSpaceOnUse"
       gradientTransform="matrix(1.9576392,-8.146468e-7,6.6614241e-7,1.4565793,-59.017557,62.738067)"
       cx="51.4375"
       cy="-12.203125"
       fx="51.4375"
       fy="-12.203125"
       r="2.171875" />
    <radialGradient
       inkscape:collect="always"
       xlink:href="#linearGradient51765"
       id="radialGradient3783"
       gradientUnits="userSpaceOnUse"
       gradientTransform="matrix(-1.9576392,-9.2540676e-8,-1.2888861e-7,1.4565793,110.01781,62.73803)"
       cx="51.4375"
       cy="-12.203125"
       fx="51.4375"
       fy="-12.203125"
       r="2.171875" />
    <linearGradient
       inkscape:collect="always"
       xlink:href="#linearGradient13816"
       id="linearGradient3785"
       gradientUnits="userSpaceOnUse"
       gradientTransform="matrix(0.697824,0,0,1.2808407,-0.249441,-18.891719)"
       x1="28.280043"
       y1="15.029495"
       x2="38.880146"
       y2="39.040752" />
    <linearGradient
       inkscape:collect="always"
       xlink:href="#linearGradient12914"
       id="linearGradient3787"
       gradientUnits="userSpaceOnUse"
       gradientTransform="matrix(0.6093646,0,0,0.754934,1.2679629,-0.3265619)"
       x1="12.838772"
       y1="1.4315225"
       x2="22.452898"
       y2="28.529707" />
    <linearGradient
       inkscape:collect="always"
       xlink:href="#linearGradient12914"
       id="linearGradient3790"
       gradientUnits="userSpaceOnUse"
       gradientTransform="matrix(1.4512737,0,0,0.8247873,-3.3623872,35.625395)"
       x1="12.838772"
       y1="1.4315225"
       x2="22.452898"
       y2="28.529707" />
    <linearGradient
       inkscape:collect="always"
       xlink:href="#linearGradient13816"
       id="linearGradient4780"
       gradientUnits="userSpaceOnUse"
       gradientTransform="matrix(1.5964118,0,0,0.951937,-4.7325485,23.337901)"
       x1="28.280043"
       y1="15.029495"
       x2="38.880146"
       y2="39.040752" />
    <linearGradient
       id="linearGradient8440">
      <stop
         style="stop-color:#edeeec;stop-opacity:1;"
         offset="0"
         id="stop8442" />
      <stop
         style="stop-color:#babdb6;stop-opacity:1;"
         offset="1"
         id="stop8444" />
    </linearGradient>
    <radialGradient
       gradientUnits="userSpaceOnUse"
       gradientTransform="matrix(1,0,0,0.3651452,0,-5.872409)"
       r="15.062501"
       fy="-4.6285543"
       fx="6.5573316"
       cy="-4.6285543"
       cx="6.5573316"
       id="radialGradient17800"
       xlink:href="#linearGradient17794"
       inkscape:collect="always" />
    <linearGradient
       gradientUnits="userSpaceOnUse"
       y2="12.055719"
       x2="37.11544"
       y1="9.2744694"
       x1="28.254738"
       id="linearGradient16815"
       xlink:href="#linearGradient16809"
       inkscape:collect="always" />
    <radialGradient
       r="9.5646261"
       fy="22.291353"
       fx="-54.677574"
       cy="22.291353"
       cx="-54.677574"
       gradientTransform="matrix(-0.6206335,0.2235578,-0.1682657,-0.5814385,-15.261905,58.912316)"
       gradientUnits="userSpaceOnUse"
       id="radialGradient15838"
       xlink:href="#linearGradient11931"
       inkscape:collect="always" />
    <linearGradient
       id="linearGradient11931">
      <stop
         id="stop11933"
         offset="0"
         style="stop-color:#b4b6b2;stop-opacity:1;" />
      <stop
         id="stop11935"
         offset="1"
         style="stop-color:#555753;stop-opacity:1;" />
    </linearGradient>
    <linearGradient
       id="linearGradient16809">
      <stop
         id="stop16811"
         offset="0"
         style="stop-color:#9ea09c;stop-opacity:1;" />
      <stop
         id="stop16813"
         offset="1"
         style="stop-color:#555753;stop-opacity:1;" />
    </linearGradient>
    <linearGradient
       id="linearGradient17794"
       inkscape:collect="always">
      <stop
         id="stop17796"
         offset="0"
         style="stop-color:#000000;stop-opacity:1;" />
      <stop
         id="stop17798"
         offset="1"
         style="stop-color:#000000;stop-opacity:0;" />
    </linearGradient>
    <linearGradient
       inkscape:collect="always"
       id="linearGradient11121">
      <stop
         style="stop-color:#006bc8;stop-opacity:1;"
         offset="0"
         id="stop11123" />
      <stop
         style="stop-color:#006bc8;stop-opacity:0;"
         offset="1"
         id="stop11125" />
    </linearGradient>
    <linearGradient
       inkscape:collect="always"
       id="linearGradient10142">
      <stop
         style="stop-color:#00b906;stop-opacity:1;"
         offset="0"
         id="stop10144" />
      <stop
         style="stop-color:#00b906;stop-opacity:0;"
         offset="1"
         id="stop10146" />
    </linearGradient>
    <linearGradient
       inkscape:collect="always"
       id="linearGradient9163">
      <stop
         style="stop-color:#e40000;stop-opacity:1;"
         offset="0"
         id="stop9165" />
      <stop
         style="stop-color:#e40000;stop-opacity:0;"
         offset="1"
         id="stop9167" />
    </linearGradient>
    <linearGradient
       inkscape:collect="always"
       id="linearGradient8184">
      <stop
         style="stop-color:#feff00;stop-opacity:1;"
         offset="0"
         id="stop8186" />
      <stop
         style="stop-color:#feff00;stop-opacity:0;"
         offset="1"
         id="stop8188" />
    </linearGradient>
    <linearGradient
       id="linearGradient42491">
      <stop
         style="stop-color:#8f5802;stop-opacity:1;"
         offset="0"
         id="stop42493" />
      <stop
         id="stop42499"
         offset="0.5"
         style="stop-color:#d68301;stop-opacity:1;" />
      <stop
         style="stop-color:#492d01;stop-opacity:1;"
         offset="1"
         id="stop42495" />
    </linearGradient>
    <linearGradient
       id="linearGradient33721">
      <stop
         style="stop-color:#b7b3b3;stop-opacity:1;"
         offset="0"
         id="stop33723" />
      <stop
         id="stop33729"
         offset="0.5"
         style="stop-color:#f5f5f5;stop-opacity:1;" />
      <stop
         style="stop-color:#c6c6c6;stop-opacity:1;"
         offset="0.75"
         id="stop33731" />
      <stop
         style="stop-color:#000000;stop-opacity:1;"
         offset="1"
         id="stop33725" />
    </linearGradient>
    <linearGradient
       id="linearGradient29760">
      <stop
         style="stop-color:#e9b96c;stop-opacity:1;"
         offset="0"
         id="stop29762" />
      <stop
         style="stop-color:#c17d11;stop-opacity:1;"
         offset="1"
         id="stop29764" />
    </linearGradient>
    <linearGradient
       id="linearGradient30743"
       inkscape:collect="always">
      <stop
         id="stop30745"
         offset="0"
         style="stop-color:#000000;stop-opacity:1;" />
      <stop
         id="stop30747"
         offset="1"
         style="stop-color:#000000;stop-opacity:0;" />
    </linearGradient>
    <radialGradient
       inkscape:collect="always"
       xlink:href="#linearGradient8440"
       id="radialGradient5304"
       gradientUnits="userSpaceOnUse"
       gradientTransform="matrix(0.5127519,0.3745031,-0.5029349,0.6514359,-11.643961,-16.193599)"
       cx="56.704376"
       cy="10.241054"
       fx="56.704376"
       fy="10.241054"
       r="14.75" />
    <radialGradient
       inkscape:collect="always"
       xlink:href="#linearGradient8440"
       id="radialGradient5306"
       gradientUnits="userSpaceOnUse"
       gradientTransform="matrix(0.2395866,0.4251895,-0.5706382,0.3059781,19.109791,-0.3381743)"
       cx="56.704376"
       cy="10.241054"
       fx="56.704376"
       fy="10.241054"
       r="14.75" />
    <linearGradient
       y2="-15.543919"
       x2="24.813282"
       y1="-18.668919"
       x1="20.660782"
       gradientTransform="matrix(1.0407413,0.3217306,-0.186288,1.072445,4.0278317,30.451369)"
       gradientUnits="userSpaceOnUse"
       id="linearGradient5183"
       xlink:href="#linearGradient42491"
       inkscape:collect="always" />
    <radialGradient
       r="5.8754181"
       fy="37.263664"
       fx="8.6349573"
       cy="37.263664"
       cx="8.6349573"
       gradientTransform="matrix(0.8062551,-0.1968494,0.178496,0.7310832,-4.8646246,11.410778)"
       gradientUnits="userSpaceOnUse"
       id="radialGradient4796"
       xlink:href="#linearGradient5980"
       inkscape:collect="always" />
    <radialGradient
       gradientUnits="userSpaceOnUse"
       gradientTransform="matrix(-5.4441796e-2,0.9163478,-1.3259412,-7.8776433e-2,32.029406,7.8849308)"
       r="23.566086"
       fy="15.236007"
       fx="11.216701"
       cy="15.236007"
       cx="11.216701"
       id="radialGradient3235"
       xlink:href="#linearGradient29760"
       inkscape:collect="always" />
    <radialGradient
       gradientUnits="userSpaceOnUse"
       gradientTransform="matrix(0.2715739,1.4382914,-2.0268789,0.3827093,54.73726,8.9658935)"
       r="4.7189359"
       fy="25.272806"
       fx="4.8218231"
       cy="25.272806"
       cx="4.8218231"
       id="radialGradient9542"
       xlink:href="#linearGradient9536"
       inkscape:collect="always" />
    <radialGradient
       gradientUnits="userSpaceOnUse"
       gradientTransform="matrix(0.2321833,1.1523302,-1.8890333,0.380622,43.196497,-28.764912)"
       r="3.8613743"
       fy="10.256534"
       fx="31.025066"
       cy="10.256534"
       cx="31.025066"
       id="radialGradient8387"
       xlink:href="#linearGradient8381"
       inkscape:collect="always" />
    <radialGradient
       gradientUnits="userSpaceOnUse"
       gradientTransform="matrix(9.5230024e-2,0.9541158,-1.5691141,0.1566128,33.700394,-9.2726556)"
       r="4.9881761"
       fy="10.176894"
       fx="19.598003"
       cy="10.176894"
       cx="19.598003"
       id="radialGradient7611"
       xlink:href="#linearGradient7605"
       inkscape:collect="always" />
    <radialGradient
       gradientUnits="userSpaceOnUse"
       gradientTransform="matrix(0.3735155,1.0693127,-1.5850389,0.5536608,31.645974,-3.6109253)"
       r="4.2743842"
       fy="15.91914"
       fx="10.237312"
       cy="15.91914"
       cx="10.237312"
       id="radialGradient6456"
       xlink:href="#linearGradient6450"
       inkscape:collect="always" />
    <linearGradient
       y2="32.700058"
       x2="28.261992"
       y1="29.562275"
       x1="29.680498"
       gradientTransform="matrix(1.1814347,0,0,1.3953893,-2.6775891,-9.5613498)"
       gradientUnits="userSpaceOnUse"
       id="linearGradient6049"
       xlink:href="#linearGradient8184"
       inkscape:collect="always" />
    <linearGradient
       y2="30.472965"
       x2="31.199669"
       y1="30.485912"
       x1="33.45713"
       gradientTransform="matrix(1.1814347,0,0,1.3953893,-2.6775891,-9.5613498)"
       gradientUnits="userSpaceOnUse"
       id="linearGradient6046"
       xlink:href="#linearGradient11121"
       inkscape:collect="always" />
    <linearGradient
       y2="29.098236"
       x2="23.842575"
       y1="33.155308"
       x1="22.034906"
       gradientTransform="matrix(1.1814347,0,0,1.3953893,-2.6775891,-9.5613498)"
       gradientUnits="userSpaceOnUse"
       id="linearGradient6043"
       xlink:href="#linearGradient10142"
       inkscape:collect="always" />
    <linearGradient
       y2="29.716953"
       x2="27.245525"
       y1="27.153692"
       x1="26.763683"
       gradientTransform="matrix(1.1814347,0,0,1.3953893,-2.6775891,-9.5613498)"
       gradientUnits="userSpaceOnUse"
       id="linearGradient6040"
       xlink:href="#linearGradient9163"
       inkscape:collect="always" />
    <linearGradient
       y2="-2.2712345"
       x2="19.423845"
       y1="-4.6088862"
       x1="16.021276"
       gradientTransform="matrix(0.9478724,0.5466487,-4.1689478e-2,1.0037969,2.6533376,23.667227)"
       gradientUnits="userSpaceOnUse"
       id="linearGradient2317"
       xlink:href="#linearGradient33721"
       inkscape:collect="always" />
    <radialGradient
       r="2.171875"
       fy="-12.203125"
       fx="51.4375"
       cy="-12.203125"
       cx="51.4375"
       gradientTransform="matrix(-1.9576392,-9.2540674e-8,-1.2888861e-7,1.4565793,110.01781,62.73803)"
       gradientUnits="userSpaceOnUse"
       id="radialGradient2385"
       xlink:href="#linearGradient51765"
       inkscape:collect="always" />
    <radialGradient
       r="2.171875"
       fy="-12.203125"
       fx="51.4375"
       cy="-12.203125"
       cx="51.4375"
       gradientTransform="matrix(1.9576392,-8.146468e-7,6.6614241e-7,1.4565793,-59.017557,62.738067)"
       gradientUnits="userSpaceOnUse"
       id="radialGradient2383"
       xlink:href="#linearGradient51765"
       inkscape:collect="always" />
    <linearGradient
       y2="-5.5633383"
       x2="32.084972"
       y1="-14.402173"
       x1="32.084972"
       gradientTransform="matrix(0.9788196,0,0,0.7154223,-8.5008021,52.112719)"
       gradientUnits="userSpaceOnUse"
       id="linearGradient2381"
       xlink:href="#linearGradient47870"
       inkscape:collect="always" />
    <radialGradient
       gradientUnits="userSpaceOnUse"
       gradientTransform="matrix(1,0,0,0.6052632,0,2.3684209)"
       r="9.5"
       fy="5.9999995"
       fx="10.5"
       cy="5.9999995"
       cx="10.5"
       id="radialGradient30749"
       xlink:href="#linearGradient30743"
       inkscape:collect="always" />
    <linearGradient
       id="linearGradient5980">
      <stop
         id="stop5982"
         offset="0"
         style="stop-color:#eecb7e;stop-opacity:1;" />
      <stop
         id="stop5984"
         offset="1"
         style="stop-color:#c28e1a;stop-opacity:1;" />
    </linearGradient>
    <linearGradient
       id="linearGradient6450">
      <stop
         id="stop6452"
         offset="0"
         style="stop-color:#a6c8ff;stop-opacity:1;" />
      <stop
         id="stop6454"
         offset="1"
         style="stop-color:#004bc7;stop-opacity:1;" />
    </linearGradient>
    <linearGradient
       id="linearGradient7605">
      <stop
         id="stop7607"
         offset="0"
         style="stop-color:#c8ffb8;stop-opacity:1;" />
      <stop
         id="stop7609"
         offset="1"
         style="stop-color:#2dc700;stop-opacity:1;" />
    </linearGradient>
    <linearGradient
       id="linearGradient8381">
      <stop
         id="stop8383"
         offset="0"
         style="stop-color:#feffe3;stop-opacity:1;" />
      <stop
         id="stop8385"
         offset="1"
         style="stop-color:#feff00;stop-opacity:1;" />
    </linearGradient>
    <linearGradient
       id="linearGradient9536">
      <stop
         id="stop9538"
         offset="0"
         style="stop-color:#ffb4b4;stop-opacity:1;" />
      <stop
         id="stop9540"
         offset="1"
         style="stop-color:#cc0000;stop-opacity:1;" />
    </linearGradient>
  </defs>
  <g
     id="g3751">
    <g
       id="g54724"
       transform="matrix(0.7017545,0,0,1.0164009,-1.774459,-14.493309)">
      <rect
         id="rect46899"
         style="opacity:0.3;fill:url(#linearGradient54729);fill-opacity:1;fill-rule:evenodd;stroke:none;stroke-width:1.02400005;stroke-linecap:butt;stroke-linejoin:miter;stroke-miterlimit:4;stroke-dasharray:none;stroke-dashoffset:0;stroke-opacity:1"
         y="41.809082"
         x="9.3215466"
         height="6.3234997"
         width="32.357079" />
      <path
         id="path48849"
         style="opacity:0.3;fill:url(#radialGradient54731);fill-opacity:1;fill-rule:evenodd;stroke:none;stroke-width:1.02400005;stroke-linecap:butt;stroke-linejoin:miter;stroke-miterlimit:4;stroke-dasharray:none;stroke-dashoffset:0;stroke-opacity:1"
         d="M 41.6785,41.799698 L 41.6785,48.126714 C 44.022298,48.102828 45.930248,46.705313 45.930248,44.974385 C 45.930248,43.243458 44.022299,41.823584 41.6785,41.799698 z" />
      <path
         id="path52742"
         style="opacity:0.3;fill:url(#radialGradient54733);fill-opacity:1;fill-rule:evenodd;stroke:none;stroke-width:1.02400005;stroke-linecap:butt;stroke-linejoin:miter;stroke-miterlimit:4;stroke-dasharray:none;stroke-dashoffset:0;stroke-opacity:1"
         d="M 9.3217476,41.799698 L 9.3217476,48.126714 C 6.9779494,48.102828 5.07,46.705313 5.07,44.974385 C 5.07,43.243458 6.9779484,41.823584 9.3217476,41.799698 z" />
    </g>
    <rect
       id="rect2168"
       style="fill:#cdcfca;fill-opacity:1;fill-rule:evenodd;stroke:#454743;stroke-width:1;stroke-linecap:butt;stroke-linejoin:miter;stroke-miterlimit:4;stroke-dasharray:none;stroke-dashoffset:0;stroke-opacity:1"
       y="1.8267883"
       x="2.6054535"
       ry="0.75909096"
       rx="0.62318766"
       height="29.150959"
       width="26.77132" />
    <rect
       id="rect8969"
       style="fill:url(#linearGradient2765);fill-opacity:1;fill-rule:evenodd;stroke:none;stroke-width:1.29999995;stroke-linecap:butt;stroke-linejoin:round;stroke-miterlimit:4;stroke-dasharray:none;stroke-dashoffset:0;stroke-opacity:1"
       y="2.8825722"
       x="3.4994335"
       ry="0"
       height="27.008316"
       width="25.007874" />
    <path
       sodipodi:nodetypes="cccccccccccccc"
       id="path44937"
       style="fill:#ffffff;fill-opacity:1;fill-rule:evenodd;stroke:none;stroke-width:1;stroke-linecap:butt;stroke-linejoin:miter;stroke-miterlimit:4;stroke-dashoffset:0;stroke-opacity:1"
       d="M 3.1116782,2.6006238 L 3.1039643,30.071439 C 3.093647,30.535767 3.2653609,30.488919 3.4636328,30.486869 L 28.521599,30.481344 C 28.916556,30.513993 28.880452,30.412739 28.874599,30.065914 L 28.872578,2.7485739 C 28.88126,2.3147845 28.806012,2.3227658 28.539586,2.3248982 L 3.508027,2.3316809 C 3.2870488,2.3331897 3.112833,2.2712767 3.1116782,2.6006238 z M 4.1041994,3.2342446 L 27.910641,3.2517483 L 27.910135,29.4915 L 4.1097237,29.485669 L 4.1041994,3.2342446 z" />
    <path
       id="rect9993"
       style="fill:url(#linearGradient2761);fill-opacity:1;fill-rule:evenodd;stroke:none;stroke-width:2.04888678;stroke-linecap:round;stroke-linejoin:round;stroke-miterlimit:4;stroke-dasharray:none;stroke-dashoffset:0;stroke-opacity:1"
       d="M 4.3338286,5.939597 L 4.3338286,6.6976978 C 4.3419815,8.2040572 4.6216035,9.4034609 4.9622355,9.3931696 L 27.280215,9.3931696 C 27.620847,9.4034609 27.900469,8.2040572 27.908621,6.6976978 L 27.908621,5.939597 C 27.900469,4.433238 27.620847,3.2338344 27.280215,3.2441257 L 4.9622355,3.2441257 C 4.3604959,3.8259219 4.3805848,4.9943732 4.3338286,5.939597 z" />
  </g>
  <g
     transform="matrix(1.5767259,0,0,0.9059107,-7.4902328,20.425331)"
     id="g2610">
    <rect
       width="32.357079"
       height="6.3234997"
       x="9.3215466"
       y="41.809082"
       style="opacity:0.3;fill:url(#linearGradient2626);fill-opacity:1;fill-rule:evenodd;stroke:none;stroke-width:1.02400005;stroke-linecap:butt;stroke-linejoin:miter;stroke-miterlimit:4;stroke-dasharray:none;stroke-dashoffset:0;stroke-opacity:1"
       id="rect2612" />
    <path
       d="M 41.6785,41.799698 L 41.6785,48.126714 C 44.022298,48.102828 45.930248,46.705313 45.930248,44.974385 C 45.930248,43.243458 44.022299,41.823584 41.6785,41.799698 z"
       style="opacity:0.3;fill:url(#radialGradient2628);fill-opacity:1;fill-rule:evenodd;stroke:none;stroke-width:1.02400005;stroke-linecap:butt;stroke-linejoin:miter;stroke-miterlimit:4;stroke-dasharray:none;stroke-dashoffset:0;stroke-opacity:1"
       id="path2614" />
    <path
       d="M 9.3217476,41.799698 L 9.3217476,48.126714 C 6.9779494,48.102828 5.07,46.705313 5.07,44.974385 C 5.07,43.243458 6.9779484,41.823584 9.3217476,41.799698 z"
       style="opacity:0.3;fill:url(#radialGradient2630);fill-opacity:1;fill-rule:evenodd;stroke:none;stroke-width:1.02400005;stroke-linecap:butt;stroke-linejoin:miter;stroke-miterlimit:4;stroke-dasharray:none;stroke-dashoffset:0;stroke-opacity:1"
       id="path2616" />
  </g>
  <rect
     width="60.150711"
     height="22.976833"
     rx="1.4001992"
     ry="0.67657226"
     x="2.3507032"
     y="37.976521"
     style="fill:#cdcfca;fill-opacity:1;fill-rule:evenodd;stroke:#454743;stroke-width:1;stroke-linecap:butt;stroke-linejoin:miter;stroke-miterlimit:4;stroke-dasharray:none;stroke-dashoffset:0;stroke-opacity:1"
     id="rect2618" />
  <rect
     width="57.210503"
     height="20.072922"
     ry="0"
     x="3.84375"
     y="39.520828"
     style="fill:url(#linearGradient4780);fill-opacity:1;fill-rule:evenodd;stroke:none;stroke-width:1.29999995;stroke-linecap:butt;stroke-linejoin:round;stroke-miterlimit:4;stroke-dasharray:none;stroke-dashoffset:0;stroke-opacity:1"
     id="rect2620" />
  <path
     d="M 2.8601955,38.896884 L 2.8442503,60.087792 C 2.8912826,60.369343 3.2068818,60.459889 3.6523657,60.458061 L 61.214641,60.448583 C 61.707092,60.446349 61.994592,60.335212 62.007772,60.078314 L 62.004857,38.886648 C 62.094576,38.653205 61.618324,38.500165 61.256679,38.509029 L 3.7507255,38.493541 C 3.289331,38.473996 2.8627902,38.603339 2.8601955,38.896884 z M 3.8574027,39.537686 L 61.081086,39.522351 L 61.054865,59.590358 L 3.8417777,59.592283 L 3.8574027,39.537686 z"
     style="fill:#ffffff;fill-opacity:1;fill-rule:evenodd;stroke:none;stroke-width:1;stroke-linecap:butt;stroke-linejoin:miter;stroke-miterlimit:4;stroke-dashoffset:0;stroke-opacity:1"
     id="path2622"
     sodipodi:nodetypes="cccccccccccccc" />
  <path
     d="M 3.9393334,42.471356 L 3.9393334,43.299603 C 3.9587508,44.945344 4.6247042,46.255728 5.4359594,46.244484 L 58.588857,46.244484 C 59.400114,46.255728 60.066065,44.945344 60.085484,43.299603 L 60.085484,42.471356 C 60.066065,40.825615 59.400114,39.515232 58.588857,39.526475 L 5.4359594,39.526475 C 4.0028466,40.162105 4.0506901,41.438671 3.9393334,42.471356 z"
     style="fill:url(#linearGradient3790);fill-opacity:1;fill-rule:evenodd;stroke:none;stroke-width:2.04888678;stroke-linecap:round;stroke-linejoin:round;stroke-miterlimit:4;stroke-dasharray:none;stroke-dashoffset:0;stroke-opacity:1"
     id="path2624" />
  <g
     id="g3761"
     transform="translate(32.625,-7.6788306e-2)">
    <g
       transform="matrix(0.7017545,0,0,1.0164009,-1.774459,-14.493309)"
       id="g3763">
      <rect
         width="32.357079"
         height="6.3234997"
         x="9.3215466"
         y="41.809082"
         style="opacity:0.3;fill:url(#linearGradient3779);fill-opacity:1;fill-rule:evenodd;stroke:none;stroke-width:1.02400005;stroke-linecap:butt;stroke-linejoin:miter;stroke-miterlimit:4;stroke-dasharray:none;stroke-dashoffset:0;stroke-opacity:1"
         id="rect3765" />
      <path
         d="M 41.6785,41.799698 L 41.6785,48.126714 C 44.022298,48.102828 45.930248,46.705313 45.930248,44.974385 C 45.930248,43.243458 44.022299,41.823584 41.6785,41.799698 z"
         style="opacity:0.3;fill:url(#radialGradient3781);fill-opacity:1;fill-rule:evenodd;stroke:none;stroke-width:1.02400005;stroke-linecap:butt;stroke-linejoin:miter;stroke-miterlimit:4;stroke-dasharray:none;stroke-dashoffset:0;stroke-opacity:1"
         id="path3767" />
      <path
         d="M 9.3217476,41.799698 L 9.3217476,48.126714 C 6.9779494,48.102828 5.07,46.705313 5.07,44.974385 C 5.07,43.243458 6.9779484,41.823584 9.3217476,41.799698 z"
         style="opacity:0.3;fill:url(#radialGradient3783);fill-opacity:1;fill-rule:evenodd;stroke:none;stroke-width:1.02400005;stroke-linecap:butt;stroke-linejoin:miter;stroke-miterlimit:4;stroke-dasharray:none;stroke-dashoffset:0;stroke-opacity:1"
         id="path3769" />
    </g>
    <rect
       width="26.77132"
       height="29.150959"
       rx="0.62318766"
       ry="0.75909096"
       x="2.6054535"
       y="1.8267883"
       style="fill:#cdcfca;fill-opacity:1;fill-rule:evenodd;stroke:#454743;stroke-width:1;stroke-linecap:butt;stroke-linejoin:miter;stroke-miterlimit:4;stroke-dasharray:none;stroke-dashoffset:0;stroke-opacity:1"
       id="rect3771" />
    <rect
       width="25.007874"
       height="27.008316"
       ry="0"
       x="3.4994335"
       y="2.8825722"
       style="fill:url(#linearGradient3785);fill-opacity:1;fill-rule:evenodd;stroke:none;stroke-width:1.29999995;stroke-linecap:butt;stroke-linejoin:round;stroke-miterlimit:4;stroke-dasharray:none;stroke-dashoffset:0;stroke-opacity:1"
       id="rect3773" />
    <path
       d="M 3.1116782,2.6006238 L 3.1039643,30.071439 C 3.093647,30.535767 3.2653609,30.488919 3.4636328,30.486869 L 28.521599,30.481344 C 28.916556,30.513993 28.880452,30.412739 28.874599,30.065914 L 28.872578,2.7485739 C 28.88126,2.3147845 28.806012,2.3227658 28.539586,2.3248982 L 3.508027,2.3316809 C 3.2870488,2.3331897 3.112833,2.2712767 3.1116782,2.6006238 z M 4.1041994,3.2342446 L 27.910641,3.2517483 L 27.910135,29.4915 L 4.1097237,29.485669 L 4.1041994,3.2342446 z"
       style="fill:#ffffff;fill-opacity:1;fill-rule:evenodd;stroke:none;stroke-width:1;stroke-linecap:butt;stroke-linejoin:miter;stroke-miterlimit:4;stroke-dashoffset:0;stroke-opacity:1"
       id="path3775"
       sodipodi:nodetypes="cccccccccccccc" />
    <path
       d="M 4.3338286,5.939597 L 4.3338286,6.6976978 C 4.3419815,8.2040572 4.6216035,9.4034609 4.9622355,9.3931696 L 27.280215,9.3931696 C 27.620847,9.4034609 27.900469,8.2040572 27.908621,6.6976978 L 27.908621,5.939597 C 27.900469,4.433238 27.620847,3.2338344 27.280215,3.2441257 L 4.9622355,3.2441257 C 4.3604959,3.8259219 4.3805848,4.9943732 4.3338286,5.939597 z"
       style="fill:url(#linearGradient3787);fill-opacity:1;fill-rule:evenodd;stroke:none;stroke-width:2.04888678;stroke-linecap:round;stroke-linejoin:round;stroke-miterlimit:4;stroke-dasharray:none;stroke-dashoffset:0;stroke-opacity:1"
       id="path3777" />
  </g>
  <g
     id="g6244"
     transform="matrix(0.3499603,-0.1166137,0.1202736,0.360944,42.21535,17.065458)">
    <path
       id="path2212"
       d="M 13.529155,4.9182174 C 13.284693,4.973823 13.14543,5.2028973 13.200694,5.4327315 L 14.014551,8.8177785 C 13.492992,9.0948261 13.019123,9.44616 12.579077,9.8169231 L 9.714708,8.1918116 C 9.5052507,8.0726153 9.2421281,8.1432376 9.115342,8.3540104 L 7.2840536,11.35762 C 7.1572675,11.568393 7.2472577,11.845921 7.456715,11.965117 L 10.103266,13.458677 C 9.890558,14.109983 9.7495121,14.790005 9.7133492,15.487672 L 6.3591912,16.250589 C 6.1228974,16.304337 5.9735597,16.527322 6.0307223,16.765104 L 6.856384,20.199208 C 6.9135543,20.43699 7.1490683,20.572438 7.3853698,20.518691 L 10.714305,19.761509 C 11.034281,20.324097 11.438712,20.818432 11.877816,21.281946 L 10.065844,24.255289 C 9.9370509,24.464903 9.9990851,24.722903 10.207392,24.843993 L 13.270255,26.630922 C 13.478562,26.752012 13.74082,26.678336 13.869621,26.468723 L 15.674058,23.574702 C 16.334524,23.760682 17.020437,23.889707 17.723111,23.910631 L 18.513382,27.19756 C 18.568637,27.427395 18.797898,27.572649 19.042367,27.517043 L 22.573055,26.713971 C 22.817524,26.658365 22.956787,26.429292 22.901524,26.199457 L 22.099456,22.863469 C 22.640555,22.561167 23.119049,22.182725 23.56768,21.779263 L 26.424521,23.483699 C 26.631253,23.607315 26.923513,23.548324 27.055001,23.340294 L 28.942626,20.349741 C 29.074114,20.141711 29.007818,19.884653 28.801086,19.761037 L 25.938346,18.032072 C 26.098106,17.468782 26.205637,16.878566 26.235917,16.282789 L 29.539637,15.531343 C 29.775938,15.477596 29.925276,15.254611 29.868106,15.01683 L 29.042444,11.582725 C 28.985282,11.344942 28.74976,11.209494 28.513466,11.263241 L 25.234961,12.008951 C 24.896,11.408292 24.488805,10.861396 24.016751,10.371604 L 25.982669,7.5960788 C 26.125274,7.395098 26.091297,7.129971 25.891567,6.995902 L 22.938729,5.0028517 C 22.739007,4.8687829 22.476077,4.93954 22.333472,5.1405213 L 20.284365,8.012579 C 20.259683,8.0473644 20.245863,8.0900603 20.232298,8.1279051 C 19.643285,7.9638037 19.026239,7.8511383 18.402693,7.8196751 L 17.588836,4.4346281 C 17.533572,4.2047938 17.30432,4.0595399 17.05985,4.1151463 L 13.529155,4.9182174 z M 17.249234,12.868124 C 19.220279,12.419802 20.864646,13.523725 21.253134,15.139521 C 21.641614,16.755317 20.671077,18.454013 18.700032,18.902336 C 16.728988,19.350659 15.08462,18.246736 14.69614,16.630939 C 14.307652,15.015147 15.278189,13.316447 17.249234,12.868124 z"
       style="fill:url(#radialGradient5304);fill-opacity:1;fill-rule:evenodd;stroke:#555753;stroke-width:1;stroke-linecap:butt;stroke-linejoin:miter;stroke-miterlimit:4;stroke-dasharray:none;stroke-dashoffset:0;stroke-opacity:1" />
    <path
       transform="matrix(0.807015,-0.1835593,0.188722,0.7849383,-35.400318,14.137586)"
       d="M 60.78125,3.53125 L 60.78125,7.15625 C 60.77668,7.6936877 60.422842,8.1641989 59.90625,8.3125 C 59.895837,8.3129096 59.885413,8.3129096 59.875,8.3125 C 59.302845,8.470936 58.731196,8.7289025 58.15625,9.03125 C 57.701006,9.269464 57.126926,9.1929203 56.75,8.84375 L 54.34375,6.5625 L 52.28125,8.75 L 54.5,10.8125 C 54.90841,11.193535 54.991457,11.79379 54.71875,12.28125 C 54.71916,12.291663 54.71916,12.302087 54.71875,12.3125 C 54.327911,12.968535 53.986039,13.663081 53.78125,14.375 C 53.632949,14.891592 53.162437,15.24543 52.625,15.25 L 49.15625,15.25 L 49.15625,18.25 L 52.59375,18.25 C 53.131187,18.25457 53.601699,18.608408 53.75,19.125 C 53.75041,19.135413 53.75041,19.145837 53.75,19.15625 C 53.929462,19.790934 54.235307,20.397598 54.59375,21.03125 C 54.854475,21.497766 54.776855,22.083696 54.40625,22.46875 L 51.90625,25.09375 L 54,27.125 L 56.46875,24.59375 C 56.849785,24.18534 57.45004,24.102293 57.9375,24.375 C 58.599039,24.746366 59.278366,25.066101 59.96875,25.25 C 59.979163,25.24959 59.989587,25.24959 60,25.25 C 60.516592,25.398301 60.87043,25.868813 60.875,26.40625 L 60.875,29.90625 L 63.875,29.90625 L 63.875,26.34375 C 63.873281,25.818767 64.220328,25.352382 64.71875,25.1875 C 65.313928,25.008819 65.935022,24.713631 66.53125,24.375 C 66.997766,24.114275 67.583696,24.191895 67.96875,24.5625 L 70.375,26.9375 L 72.5,24.84375 L 70.09375,22.4375 C 69.700659,22.044922 69.621888,21.414759 69.90625,20.9375 C 70.218544,20.364345 70.481896,19.795857 70.65625,19.1875 C 70.804551,18.670908 71.275063,18.31707 71.8125,18.3125 L 75.21875,18.3125 L 75.21875,15.3125 L 71.84375,15.3125 C 71.306313,15.30793 70.835801,14.954092 70.6875,14.4375 C 70.68709,14.427087 70.68709,14.416663 70.6875,14.40625 C 70.487124,13.68856 70.179799,13.011493 69.8125,12.375 C 69.539793,11.88754 69.62284,11.287285 70.03125,10.90625 L 72.65625,8.5 L 70.6875,6.34375 L 68,8.78125 L 67.96875,8.75 C 67.605078,9.2077617 66.988291,9.3756143 66.46875,9.09375 C 65.885703,8.7686155 65.270312,8.4901105 64.65625,8.3125 C 64.139658,8.1641989 63.78582,7.6936877 63.78125,7.15625 L 63.78125,3.53125 L 60.78125,3.53125 z M 62.21875,11.71875 C 65.262798,11.71875 67.5,14.076062 67.5,16.78125 C 67.499999,19.486439 65.262799,21.843749 62.21875,21.84375 C 59.1747,21.843751 56.9375,19.486439 56.9375,16.78125 C 56.937498,14.076062 59.1747,11.71875 62.21875,11.71875 z"
       id="path3195"
       style="fill:none;fill-opacity:1;fill-rule:evenodd;stroke:#dddddd;stroke-width:1.22343159;stroke-linecap:butt;stroke-linejoin:miter;stroke-miterlimit:4;stroke-dasharray:none;stroke-dashoffset:0;stroke-opacity:1"
       inkscape:original="M 60.375 3.125 L 60.375 7.15625 C 60.371912 7.5194123 60.130326 7.8372886 59.78125 7.9375 C 59.169905 8.1067881 58.559537 8.3768222 57.96875 8.6875 C 57.661279 8.8483892 57.285825 8.7983287 57.03125 8.5625 L 54.34375 6 L 51.71875 8.75 L 54.21875 11.09375 C 54.494859 11.351352 54.559366 11.764199 54.375 12.09375 C 53.971871 12.770414 53.623576 13.494497 53.40625 14.25 C 53.306039 14.599076 52.988162 14.840662 52.625 14.84375 L 48.75 14.84375 L 48.75 18.65625 L 52.59375 18.65625 C 52.956912 18.659338 53.274789 18.900924 53.375 19.25 C 53.567737 19.931631 53.884546 20.572703 54.25 21.21875 C 54.426168 21.533968 54.375412 21.927325 54.125 22.1875 L 51.34375 25.09375 L 54 27.6875 L 56.75 24.875 C 57.007602 24.598891 57.420449 24.534384 57.75 24.71875 C 58.429534 25.100218 59.139208 25.429005 59.875 25.625 C 60.224076 25.725211 60.465662 26.043088 60.46875 26.40625 L 60.46875 30.3125 L 64.28125 30.3125 L 64.28125 26.34375 C 64.280089 25.989098 64.507041 25.673886 64.84375 25.5625 C 65.481753 25.370962 66.108157 25.06554 66.71875 24.71875 C 67.033968 24.542582 67.427325 24.593338 67.6875 24.84375 L 70.375 27.5 L 73.0625 24.84375 L 70.375 22.15625 C 70.109267 21.890864 70.057769 21.478881 70.25 21.15625 C 70.571694 20.565843 70.8464 19.957479 71.03125 19.3125 C 71.131461 18.963424 71.449338 18.721838 71.8125 18.71875 L 75.625 18.71875 L 75.625 14.90625 L 71.84375 14.90625 C 71.480588 14.903162 71.162711 14.661576 71.0625 14.3125 C 70.851959 13.5584 70.53788 12.848827 70.15625 12.1875 C 69.971884 11.857949 70.036391 11.445102 70.3125 11.1875 L 73.21875 8.53125 L 70.71875 5.78125 L 67.71875 8.5 C 67.479528 8.8411617 67.022497 8.9486984 66.65625 8.75 C 66.056217 8.415393 65.434546 8.1264586 64.78125 7.9375 C 64.432174 7.8372886 64.190588 7.5194123 64.1875 7.15625 L 64.1875 3.125 L 60.375 3.125 z M 62.21875 12.125 C 65.060709 12.125 67.09375 14.292516 67.09375 16.78125 C 67.093749 19.269985 65.06071 21.437499 62.21875 21.4375 C 59.376789 21.437501 57.34375 19.269985 57.34375 16.78125 C 57.343748 14.292517 59.376789 12.125 62.21875 12.125 z "
       inkscape:radius="-0.39745662"
       sodipodi:type="inkscape:offset" />
    <path
       id="path2320"
       d="M 29.974023,22.470736 C 29.782653,22.434203 29.608601,22.553485 29.572001,22.73378 L 29.032896,25.389179 C 28.572418,25.423661 28.121225,25.525691 27.687575,25.652025 L 26.195337,23.608209 C 26.086335,23.458499 25.876808,23.426822 25.717618,23.536994 L 23.431725,25.099373 C 23.272535,25.209545 23.244804,25.434485 23.353806,25.584194 L 24.735194,27.466932 C 24.370046,27.863043 24.046165,28.301811 23.790716,28.785708 L 21.165016,28.284429 C 20.98004,28.249116 20.800863,28.360945 20.762989,28.54747 L 20.216077,31.241356 C 20.178209,31.427884 20.300301,31.597228 20.485282,31.632544 L 23.091238,32.130052 C 23.132396,32.628797 23.255825,33.105358 23.413952,33.570823 L 21.151704,35.117727 C 20.991475,35.226453 20.950388,35.428842 21.057952,35.579538 L 22.637389,37.799904 C 22.744952,37.950599 22.954873,37.979841 23.115107,37.871118 L 25.345888,36.378168 C 25.752149,36.715481 26.195187,37.020285 26.685705,37.25358 L 26.162228,39.832012 C 26.125623,40.012304 26.240058,40.186663 26.431434,40.223199 L 29.195325,40.750859 C 29.3867,40.787395 29.560751,40.668113 29.597352,40.487818 L 30.12864,37.870901 C 30.61127,37.82457 31.074667,37.704739 31.525168,37.557869 L 32.985943,39.655641 C 33.09156,39.80764 33.317881,39.85663 33.479495,39.749866 L 35.800967,38.214267 C 35.962581,38.107504 36.00034,37.904458 35.894724,37.752459 L 34.437855,35.635444 C 34.736525,35.285339 35.007095,34.899888 35.224811,34.486474 L 37.811027,34.980214 C 37.996008,35.01553 38.175186,34.903701 38.213054,34.717174 L 38.759966,32.023288 C 38.79784,31.836762 38.675742,31.667415 38.490766,31.632102 L 35.924289,31.14213 C 35.882235,30.610463 35.774166,30.09574 35.601371,29.601381 L 37.907423,28.242728 C 38.074585,28.144424 38.13788,27.945698 38.040665,27.788458 L 36.60702,25.45601 C 36.50981,25.298772 36.300376,25.267251 36.133213,25.365556 L 33.73647,26.766857 C 33.707538,26.783871 33.683689,26.809876 33.661618,26.832518 C 33.29873,26.532944 32.899051,26.26116 32.468019,26.044985 L 33.007124,23.389586 C 33.043725,23.209291 32.929295,23.034934 32.737919,22.998399 L 29.974023,22.470736 z M 29.988267,29.269321 C 31.531239,29.563894 32.331566,30.858549 32.074237,32.126063 C 31.816904,33.393573 30.570233,34.297432 29.02726,34.00286 C 27.484288,33.708288 26.683961,32.413632 26.941295,31.146121 C 27.198622,29.878611 28.445294,28.974749 29.988267,29.269321 z"
       style="fill:url(#radialGradient5306);fill-opacity:1;fill-rule:evenodd;stroke:#555753;stroke-width:1;stroke-linecap:butt;stroke-linejoin:miter;stroke-miterlimit:4;stroke-dasharray:none;stroke-dashoffset:0;stroke-opacity:1" />
    <path
       transform="matrix(0.631747,0.1206081,-0.1250089,0.6157451,-7.6997053,13.802796)"
       d="M 61.15625,3.90625 L 61.15625,7.15625 C 61.150199,7.8679111 60.684057,8.4911235 60,8.6875 C 60.000205,8.6979157 60.000205,8.7083343 60,8.71875 C 59.467023,8.8663371 58.90286,9.1122303 58.34375,9.40625 C 57.740776,9.7217657 56.999241,9.6187281 56.5,9.15625 C 56.489296,9.146125 56.478875,9.1357043 56.46875,9.125 L 54.375,7.125 L 52.84375,8.71875 L 54.75,10.5 C 55.290672,11.004432 55.423522,11.823429 55.0625,12.46875 C 55.062705,12.479166 55.062705,12.489584 55.0625,12.5 C 54.683947,13.135413 54.348505,13.800401 54.15625,14.46875 C 53.959874,15.152809 53.336661,15.618949 52.625,15.625 L 49.53125,15.625 L 49.53125,17.875 L 52.59375,17.875 C 53.305411,17.881051 53.928624,18.347191 54.125,19.03125 C 54.291191,19.619 54.586067,20.191239 54.9375,20.8125 C 54.937705,20.822916 54.937705,20.833334 54.9375,20.84375 C 55.282757,21.46152 55.178262,22.240104 54.6875,22.75 L 52.46875,25.0625 L 54,26.5625 L 56.1875,24.3125 C 56.691932,23.771828 57.479679,23.670228 58.125,24.03125 C 58.76855,24.392518 59.448761,24.671943 60.09375,24.84375 C 60.093955,24.854166 60.093955,24.864584 60.09375,24.875 C 60.777809,25.071376 61.243949,25.694589 61.25,26.40625 L 61.25,29.53125 L 63.5,29.53125 L 63.5,26.34375 C 63.497724,25.648487 63.933662,25.030862 64.59375,24.8125 C 64.604166,24.812295 64.614584,24.812295 64.625,24.8125 C 65.177365,24.646672 65.730632,24.361725 66.3125,24.03125 C 66.322916,24.031045 66.333334,24.031045 66.34375,24.03125 C 66.96152,23.685993 67.740104,23.790488 68.25,24.28125 L 70.375,26.375 L 71.9375,24.84375 L 69.8125,22.71875 C 69.292089,22.199018 69.186034,21.381842 69.5625,20.75 C 69.865397,20.194091 70.117389,19.665495 70.28125,19.09375 C 70.477626,18.409691 71.100839,17.943551 71.8125,17.9375 L 74.84375,17.9375 L 74.84375,15.6875 L 71.84375,15.6875 C 71.132089,15.681449 70.508876,15.215309 70.3125,14.53125 C 70.122287,13.849958 69.821723,13.205416 69.46875,12.59375 C 69.468545,12.583334 69.468545,12.572916 69.46875,12.5625 C 69.107728,11.917179 69.240578,11.098182 69.78125,10.59375 L 72.09375,8.46875 L 70.65625,6.90625 L 68.375,8.96875 L 68.25,9.09375 L 68.21875,9.0625 C 67.727654,9.6096533 66.940239,9.7950184 66.28125,9.4375 C 65.715185,9.1218351 65.137339,8.8537658 64.5625,8.6875 C 63.878443,8.4911235 63.412301,7.8679111 63.40625,7.15625 L 63.40625,3.90625 L 61.15625,3.90625 z M 62.21875,11.34375 C 65.464827,11.34375 67.875,13.859672 67.875,16.78125 C 67.874999,19.702828 65.464827,22.218749 62.21875,22.21875 C 58.972671,22.218751 56.5625,19.702828 56.5625,16.78125 C 56.562498,13.859672 58.972671,11.34375 62.21875,11.34375 z"
       id="path2322"
       style="fill:none;fill-opacity:1;fill-rule:evenodd;stroke:#dddddd;stroke-width:1.57315135;stroke-linecap:butt;stroke-linejoin:miter;stroke-miterlimit:4;stroke-dasharray:none;stroke-dashoffset:0;stroke-opacity:1"
       inkscape:original="M 60.375 3.125 L 60.375 7.15625 C 60.371912 7.5194123 60.130326 7.8372886 59.78125 7.9375 C 59.169905 8.1067881 58.559537 8.3768222 57.96875 8.6875 C 57.661279 8.8483892 57.285825 8.7983287 57.03125 8.5625 L 54.34375 6 L 51.71875 8.75 L 54.21875 11.09375 C 54.494859 11.351352 54.559366 11.764199 54.375 12.09375 C 53.971871 12.770414 53.623576 13.494497 53.40625 14.25 C 53.306039 14.599076 52.988162 14.840662 52.625 14.84375 L 48.75 14.84375 L 48.75 18.65625 L 52.59375 18.65625 C 52.956912 18.659338 53.274789 18.900924 53.375 19.25 C 53.567737 19.931631 53.884546 20.572703 54.25 21.21875 C 54.426168 21.533968 54.375412 21.927325 54.125 22.1875 L 51.34375 25.09375 L 54 27.6875 L 56.75 24.875 C 57.007602 24.598891 57.420449 24.534384 57.75 24.71875 C 58.429534 25.100218 59.139208 25.429005 59.875 25.625 C 60.224076 25.725211 60.465662 26.043088 60.46875 26.40625 L 60.46875 30.3125 L 64.28125 30.3125 L 64.28125 26.34375 C 64.280089 25.989098 64.507041 25.673886 64.84375 25.5625 C 65.481753 25.370962 66.108157 25.06554 66.71875 24.71875 C 67.033968 24.542582 67.427325 24.593338 67.6875 24.84375 L 70.375 27.5 L 73.0625 24.84375 L 70.375 22.15625 C 70.109267 21.890864 70.057769 21.478881 70.25 21.15625 C 70.571694 20.565843 70.8464 19.957479 71.03125 19.3125 C 71.131461 18.963424 71.449338 18.721838 71.8125 18.71875 L 75.625 18.71875 L 75.625 14.90625 L 71.84375 14.90625 C 71.480588 14.903162 71.162711 14.661576 71.0625 14.3125 C 70.851959 13.5584 70.53788 12.848827 70.15625 12.1875 C 69.971884 11.857949 70.036391 11.445102 70.3125 11.1875 L 73.21875 8.53125 L 70.71875 5.78125 L 67.71875 8.5 C 67.479528 8.8411617 67.022497 8.9486984 66.65625 8.75 C 66.056217 8.415393 65.434546 8.1264586 64.78125 7.9375 C 64.432174 7.8372886 64.190588 7.5194123 64.1875 7.15625 L 64.1875 3.125 L 60.375 3.125 z M 62.21875 12.125 C 65.060709 12.125 67.09375 14.292516 67.09375 16.78125 C 67.093749 19.269985 65.06071 21.437499 62.21875 21.4375 C 59.376789 21.437501 57.34375 19.269985 57.34375 16.78125 C 57.343748 14.292517 59.376789 12.125 62.21875 12.125 z "
       inkscape:radius="-0.79479486"
       sodipodi:type="inkscape:offset" />
  </g>
  <g
     id="g5261"
     transform="matrix(0.380251,0,0,0.380251,28.00496,28.18504)">
    <g
       transform="translate(-44.637135,-40.300617)"
       id="g16817">
      <path
         style="fill:url(#radialGradient15838);fill-opacity:1;fill-rule:evenodd;stroke:#23282a;stroke-width:0.77473879;stroke-linecap:butt;stroke-linejoin:miter;stroke-miterlimit:4;stroke-dashoffset:0;stroke-opacity:1"
         d="M 22.87387,37.087625 C 22.164124,39.416974 19.595353,40.436282 15.919744,40.519705 C 12.244135,40.603128 9.1198213,39.938045 8.6637132,36.920208 C 8.2146201,33.948781 12.890195,31.937087 16.859747,31.988423 C 20.829299,32.03976 23.579606,34.77143 22.87387,37.087625 z"
         id="path4160"
         sodipodi:nodetypes="czzzz" />
      <path
         style="fill:none;fill-rule:evenodd;stroke:#23282a;stroke-width:1.31347382;stroke-linecap:round;stroke-linejoin:round;stroke-miterlimit:4;stroke-dasharray:none;stroke-opacity:1"
         d="M 28.198179,9.5235563 C 27.106388,16.865222 23.501967,20.918656 22.739871,36.70875"
         id="path6102"
         sodipodi:nodetypes="cc" />
      <path
         sodipodi:nodetypes="csssscc"
         id="path9014"
         d="M 28.038528,9.1872606 C 28.084331,9.1566556 29.38346,8.475911 30.557534,8.6645127 C 32.063763,8.9064712 34.087596,11.233508 35.629661,11.379615 C 37.017773,11.511137 42.526659,11.86426 40.526328,11.805972 C 39.711256,11.782221 35.373874,13.341177 32.820542,11.308179 C 31.736455,10.445015 30.183582,10.284103 28.416484,11.0365 C 27.462891,11.28649 27.815736,10.341838 28.038528,9.1872606 z"
         style="fill:url(#linearGradient16815);fill-opacity:1;fill-rule:evenodd;stroke:#23282a;stroke-width:0.87564921;stroke-linejoin:round;stroke-miterlimit:4;stroke-dasharray:none;stroke-opacity:1" />
      <path
         sodipodi:type="inkscape:offset"
         inkscape:radius="-0.89794469"
         inkscape:original="M -47.96875 21.5 C -53.002777 21.441647 -58.944523 23.747403 -58.375 27.125 C -57.796582 30.55535 -53.848759 31.313577 -49.1875 31.21875 C -44.526239 31.123924 -41.243822 29.960252 -40.34375 27.3125 C -39.448764 24.679701 -42.934721 21.558353 -47.96875 21.5 z "
         style="fill:none;fill-opacity:1;fill-rule:evenodd;stroke:#d0d6d8;stroke-width:0.93017274;stroke-linecap:butt;stroke-linejoin:miter;stroke-miterlimit:4;stroke-dashoffset:0;stroke-opacity:1"
         id="path12910"
         d="M -47.96875,22.40625 C -50.3446,22.37871 -52.995633,22.93203 -54.875,23.84375 C -55.814683,24.29961 -56.563595,24.832856 -57,25.375 C -57.436405,25.917144 -57.597031,26.393298 -57.5,26.96875 C -57.264679,28.36434 -56.452572,29.119693 -55,29.65625 C -53.547428,30.192807 -51.495567,30.358819 -49.21875,30.3125 C -46.958511,30.266519 -45.04333,29.973119 -43.6875,29.40625 C -42.33167,28.839381 -41.543383,28.078154 -41.1875,27.03125 C -40.889148,26.153583 -41.298353,25.091193 -42.5,24.125 C -43.701647,23.158807 -45.634886,22.433303 -47.96875,22.40625 z"
         transform="matrix(0.788544,0,0,0.8797462,54.695384,13.067523)" />
    </g>
    <path
       transform="matrix(1.1223629,0,0,0.5993232,-35.746839,3.51457)"
       d="M 29.500002,-9.2500038 A 14.812501,5.2500005 0 1 1 -0.125,-9.2500038 A 14.812501,5.2500005 0 1 1 29.500002,-9.2500038 z"
       sodipodi:ry="5.2500005"
       sodipodi:rx="14.812501"
       sodipodi:cy="-9.2500038"
       sodipodi:cx="14.687501"
       id="path16823"
       style="opacity:0.34229832;fill:url(#radialGradient17800);fill-opacity:1;fill-rule:evenodd;stroke:none;stroke-width:0.5;stroke-linecap:round;stroke-linejoin:round;stroke-miterlimit:4;stroke-dasharray:none;stroke-dashoffset:0;stroke-opacity:1"
       sodipodi:type="arc" />
  </g>
  <g
     inkscape:label="Layer 1"
     id="layer1"
     transform="matrix(0.3201953,0,0,0.3201953,45.641813,44.353741)">
    <path
       transform="matrix(2.2236842,0,0,1.3043478,0.2360252,32.234573)"
       d="M 20,5.9999995 A 9.5,5.75 0 1 1 1,5.9999995 A 9.5,5.75 0 1 1 20,5.9999995 z"
       sodipodi:ry="5.75"
       sodipodi:rx="9.5"
       sodipodi:cy="5.9999995"
       sodipodi:cx="10.5"
       id="path29772"
       style="opacity:0.30400002;fill:url(#radialGradient30749);fill-opacity:1;fill-rule:evenodd;stroke:none;stroke-width:0.5;stroke-linecap:round;stroke-linejoin:round;stroke-miterlimit:4;stroke-dasharray:none;stroke-dashoffset:0;stroke-opacity:1"
       sodipodi:type="arc" />
    <path
       id="path2261"
       d="M 27.338237,5.7443267 C 24.229948,5.7168082 19.965295,6.4388859 14.120936,8.9711645 C 7.2632601,11.942498 4.4059434,16.668301 1.8266308,23.099481 C -0.14753076,27.703528 1.0973005,33.995391 4.9648167,36.748133 C 9.4976193,40.619765 15.341692,42.432953 20.766506,42.896567 C 27.48518,43.199391 34.129974,41.579312 40.407858,38.579581 C 43.086049,37.111132 45.414401,34.772765 46.351951,31.86427 C 47.282122,28.978668 47.16181,26.968674 46.57347,25.236171 C 45.834466,23.060006 43.179884,21.402001 40.112499,21.61688 C 35.358279,21.901431 29.171354,22.332525 29.922625,19.69822 C 30.284577,18.429045 32.30732,19.180988 34.057647,18.651678 C 35.909694,18.091608 39.446938,16.50968 39.706381,14.378298 C 40.212302,10.222037 36.33268,7.5934994 33.688448,6.8780805 C 32.394841,6.5280848 30.446525,5.7718452 27.338237,5.7443267 z M 23.461654,19.218555 C 25.046453,19.187744 26.374866,19.81264 26.747519,20.831974 C 27.244389,22.191084 25.836702,23.785096 23.609333,24.407659 C 21.381965,25.030221 19.195866,24.414986 18.698995,23.055875 C 18.202125,21.696765 19.609813,20.102753 21.837181,19.48019 C 22.394023,19.32455 22.933387,19.228825 23.461654,19.218555 z"
       style="fill:url(#radialGradient3235);fill-opacity:1;fill-rule:evenodd;stroke:#553c17;stroke-width:1;stroke-linecap:butt;stroke-linejoin:miter;stroke-miterlimit:4;stroke-dasharray:none;stroke-opacity:1" />
    <path
       id="path7161"
       d="M 10.318193,15.555658 C 9.1792601,15.270165 7.5939214,17.483931 8.5847141,18.446849 C 9.4124603,19.871265 11.519862,20.776098 12.524251,19.166911 C 12.954478,17.829083 13.752963,18.528081 14.405226,19.015001 C 15.17294,18.562783 15.476016,17.310248 16.179443,16.747697 C 16.102384,15.052732 13.98864,13.461802 12.652513,14.101821 C 11.913497,14.641957 11.329309,15.8712 10.318193,15.555658 z"
       style="fill:url(#radialGradient6456);fill-opacity:1;fill-rule:evenodd;stroke:#1c4b8f;stroke-width:0.5;stroke-linecap:butt;stroke-linejoin:miter;stroke-miterlimit:4;stroke-dasharray:none;stroke-opacity:1" />
    <path
       transform="matrix(1.1814347,0,0,1.3953893,-2.6775891,-9.5613498)"
       d="M 25.40625,11.6875 C 22.873456,11.668515 19.351978,12.146086 14.46875,13.9375 C 8.8342091,16.004533 6.5909076,19.172772 4.4375,23.71875 C 4.4364749,23.729141 4.4364749,23.739609 4.4375,23.75 C 4.4364749,23.760391 4.4364749,23.770859 4.4375,23.78125 C 2.956359,26.741057 3.8961872,30.805055 6.8125,32.5625 C 6.8303687,32.578634 6.8276184,32.575884 6.84375,32.59375 C 6.8526627,32.605569 6.8631808,32.616087 6.875,32.625 C 10.563451,35.292385 15.410869,36.549723 19.90625,36.875 C 25.45612,37.086789 30.94079,35.976067 36.15625,33.875 C 36.185491,33.861426 36.2043,33.850561 36.21875,33.84375 C 38.339699,32.844073 40.150083,31.259461 40.84375,29.4375 C 41.58404,27.49308 41.469081,26.27911 41.03125,25.1875 C 40.800367,24.611858 40.177263,24.063971 39.34375,23.65625 C 38.510237,23.248529 37.461557,22.992494 36.28125,23.0625 C 36.272748,23.062653 36.258502,23.062653 36.25,23.0625 C 34.240234,23.164345 31.909936,23.295926 30.09375,23.15625 C 29.184083,23.086291 28.419281,22.945568 27.78125,22.625 C 27.466192,22.466705 27.184891,22.258479 27,21.90625 C 26.821078,21.565393 26.813577,21.117906 26.9375,20.75 C 27.081326,20.323005 27.467363,20.001815 27.8125,19.875 C 28.175783,19.741517 28.521745,19.701809 28.875,19.6875 C 29.583488,19.658802 30.304564,19.685305 30.90625,19.53125 C 31.641088,19.343103 32.729374,18.952104 33.625,18.46875 C 34.076122,18.225287 34.454292,17.967873 34.71875,17.71875 C 34.850979,17.594189 34.952593,17.483369 35.03125,17.375 C 35.109907,17.266631 35.171603,17.173074 35.1875,17.0625 C 35.362129,15.84785 34.77068,14.865636 33.84375,14.0625 C 32.911244,13.254532 31.634973,12.700108 30.625,12.46875 C 29.462314,12.20241 27.941161,11.706501 25.40625,11.6875 z M 22.125,19.90625 C 22.876612,19.893879 23.551365,20.03282 24.15625,20.28125 C 24.758616,20.528646 25.271548,20.898547 25.53125,21.5 C 25.875768,22.297883 25.506085,23.172444 24.90625,23.75 C 24.296657,24.336951 23.448667,24.784562 22.40625,25.03125 C 21.359564,25.278948 20.347786,25.300045 19.46875,25.09375 C 18.588482,24.887166 17.817172,24.463172 17.46875,23.65625 C 17.124232,22.858367 17.493915,21.983806 18.09375,21.40625 C 18.703343,20.819299 19.551333,20.371688 20.59375,20.125 C 21.102988,20.004489 21.614922,19.914646 22.125,19.90625 z"
       id="path7613"
       style="fill:none;fill-rule:evenodd;stroke:#f3bc7b;stroke-width:0.77883857;stroke-linecap:butt;stroke-linejoin:miter;stroke-miterlimit:4;stroke-dasharray:none;stroke-opacity:1"
       inkscape:original="M 25.40625 11.84375 C 22.894954 11.824926 19.400064 12.307624 14.53125 14.09375 C 8.9327162 16.147574 6.7412422 19.24776 4.59375 23.78125 C 4.5939377 23.791666 4.5939377 23.802084 4.59375 23.8125 C 3.1330277 26.696791 4.0625638 30.723822 6.90625 32.4375 C 6.9281321 32.457258 6.9489925 32.478118 6.96875 32.5 C 10.622821 35.142522 15.43215 36.395013 19.90625 36.71875 C 25.430721 36.92957 30.895961 35.812698 36.09375 33.71875 C 36.115362 33.708717 36.134709 33.697653 36.15625 33.6875 C 38.249859 32.700709 40.015723 31.139466 40.6875 29.375 C 41.418329 27.45543 41.301924 26.314416 40.875 25.25 C 40.459939 24.215164 38.584859 23.082119 36.28125 23.21875 C 36.270834 23.218938 36.260416 23.218938 36.25 23.21875 C 34.241064 23.320553 31.927763 23.453547 30.09375 23.3125 C 29.176743 23.241976 28.387545 23.117275 27.71875 22.78125 C 27.384352 22.613238 27.048674 22.359143 26.84375 21.96875 C 26.638826 21.578357 26.645435 21.090711 26.78125 20.6875 C 26.944108 20.204002 27.362083 19.861284 27.75 19.71875 C 28.137917 19.576216 28.517275 19.54574 28.875 19.53125 C 29.590449 19.50227 30.307589 19.520279 30.875 19.375 C 31.59727 19.190071 32.684521 18.81758 33.5625 18.34375 C 34.440479 17.86992 34.99615 17.275393 35.03125 17.03125 C 35.197265 15.876517 34.654911 14.971558 33.75 14.1875 C 32.845089 13.403442 31.577481 12.850347 30.59375 12.625 C 29.418514 12.355785 27.920828 11.862599 25.40625 11.84375 z M 22.125 19.75 C 22.896162 19.737307 23.592997 19.867999 24.21875 20.125 C 24.844503 20.382001 25.40669 20.787163 25.6875 21.4375 C 26.064846 22.311409 25.666566 23.263281 25.03125 23.875 C 24.395934 24.486719 23.501719 24.935653 22.4375 25.1875 C 21.370678 25.439963 20.344986 25.462972 19.4375 25.25 C 18.530014 25.037028 17.687391 24.586973 17.3125 23.71875 C 16.935154 22.844841 17.333434 21.892969 17.96875 21.28125 C 18.604066 20.669531 19.498281 20.220597 20.5625 19.96875 C 21.078404 19.846662 21.598909 19.75866 22.125 19.75 z "
       inkscape:radius="0.15914327"
       sodipodi:type="inkscape:offset" />
    <path
       id="path7159"
       d="M 4.4110192,26.718772 C 3.9420755,26.672444 3.7651513,27.38372 3.9887592,27.785902 C 4.1976278,28.185805 4.6368513,28.262088 4.9312698,28.550735 C 5.3850704,28.825263 5.27634,29.44402 5.4291274,29.908073 C 5.6827634,30.719599 6.4150083,31.43503 7.1784224,31.183977 C 7.8331547,30.993483 8.3827834,30.279196 9.0958913,30.422752 C 9.3673449,30.705849 9.7168345,30.835434 9.9315827,30.39069 C 10.285809,29.956776 10.560158,29.249272 11.144942,29.244621 C 11.603543,29.363199 12.212137,29.634678 12.499599,29.001722 C 12.881033,28.337802 12.63402,27.455148 12.209903,26.908199 C 11.783811,26.318644 11.12864,25.942605 10.466419,25.993646 C 9.7836576,25.810039 9.5126448,24.958737 9.2382964,24.294127 C 8.9300889,23.64849 8.1818772,23.612588 7.66206,23.882783 C 6.4699755,24.356915 6.0763838,26.040224 4.9367093,26.602097 C 4.7697817,26.679372 4.590673,26.722667 4.4110192,26.718772 z"
       style="fill:url(#radialGradient9542);fill-opacity:1;fill-rule:evenodd;stroke:#bf2424;stroke-width:0.5;stroke-linecap:butt;stroke-linejoin:miter;stroke-miterlimit:4;stroke-dasharray:none;stroke-opacity:1" />
    <path
       id="path7165"
       d="M 31.584018,9.9741005 C 30.509479,9.905806 29.840485,11.488318 29.088518,11.944326 C 28.908217,13.859731 31.200545,11.941022 31.536907,13.564719 C 32.232416,15.120344 33.803476,14.168711 34.906666,13.895973 C 36.539562,13.613234 36.523406,11.477132 35.163485,10.701497 C 34.122836,9.4724329 32.837616,10.062787 31.584018,9.9741005 z"
       style="fill:url(#radialGradient8387);fill-opacity:1;fill-rule:evenodd;stroke:#c0bd2e;stroke-width:0.5;stroke-linecap:butt;stroke-linejoin:miter;stroke-miterlimit:4;stroke-dasharray:none;stroke-opacity:1" />
    <path
       id="path7167"
       d="M 18.071358,11.36949 C 16.234315,12.137646 17.947757,15.392955 19.454125,14.218427 C 20.406874,14.346431 22.699275,13.495114 22.786394,14.818887 C 21.66723,15.991715 24.468475,16.041329 25.003622,15.423121 C 26.333553,14.790936 27.248568,13.007586 26.055734,11.692454 C 25.54096,9.3857332 23.331605,9.6201349 21.78935,9.8920251 C 20.804279,9.6565881 19.617618,9.9444527 19.454037,11.227541 C 19.030324,11.509315 18.530412,11.369299 18.071358,11.36949 z"
       style="fill:url(#radialGradient7611);fill-opacity:1;fill-rule:evenodd;stroke:#00af00;stroke-width:0.5;stroke-linecap:butt;stroke-linejoin:miter;stroke-miterlimit:4;stroke-dasharray:none;stroke-opacity:1" />
    <path
       style="fill:url(#linearGradient6049);fill-opacity:1;fill-rule:evenodd;stroke:none;stroke-width:1px;stroke-linecap:butt;stroke-linejoin:miter;stroke-opacity:1"
       d="M 23.313975,31.515423 C 22.677547,32.299523 21.572606,32.089377 20.969818,32.930793 C 21.330657,34.171989 22.60641,33.394062 23.334353,33.780494 C 24.013894,34.586186 22.520876,35.134382 23.005325,35.970703 C 23.491052,36.984136 24.506704,36.58228 25.288466,36.540569 C 26.309808,36.533753 27.440096,36.72636 28.309231,35.931603 C 28.872221,35.515535 29.646345,34.715751 30.236219,35.510925 C 30.717617,36.035726 31.19792,36.883699 31.95509,36.669124 C 32.870187,36.603212 33.913822,35.89769 33.849155,34.689592 C 34.185683,33.850382 35.005911,34.311565 35.144434,34.993521 C 35.897871,35.573795 37.067943,35.251433 37.457963,34.270099 C 38.331912,33.909277 38.690189,32.43707 37.813353,31.869408 C 37.424787,30.897395 36.455517,30.31562 35.609413,30.852776 C 34.586448,31.097445 33.537475,30.875994 32.505419,30.981625 C 31.571011,30.975212 31.934473,29.513526 31.126568,29.387285 C 30.297742,29.127966 29.941917,27.892363 28.989617,28.045667 C 28.01504,28.007023 27.919611,29.687874 26.874098,29.50608 C 26.150262,29.557718 25.294415,29.228677 24.751432,29.992895 C 24.420851,30.718812 23.41367,30.701976 23.313975,31.515423 z"
       id="path15005" />
    <path
       style="fill:url(#linearGradient6046);fill-opacity:1;fill-rule:evenodd;stroke:none;stroke-width:1px;stroke-linecap:butt;stroke-linejoin:miter;stroke-opacity:1"
       d="M 23.313975,31.515423 C 22.677547,32.299523 21.572606,32.089377 20.969818,32.930793 C 21.330657,34.171989 22.60641,33.394062 23.334353,33.780494 C 24.013894,34.586186 22.520876,35.134382 23.005325,35.970703 C 23.491052,36.984136 24.506704,36.58228 25.288466,36.540569 C 26.309808,36.533753 27.440096,36.72636 28.309231,35.931603 C 28.872221,35.515535 29.646345,34.715751 30.236219,35.510925 C 30.717617,36.035726 31.19792,36.883699 31.95509,36.669124 C 32.870187,36.603212 33.913822,35.89769 33.849155,34.689592 C 34.185683,33.850382 35.005911,34.311565 35.144434,34.993521 C 35.897871,35.573795 37.067943,35.251433 37.457963,34.270099 C 38.331912,33.909277 38.690189,32.43707 37.813353,31.869408 C 37.424787,30.897395 36.455517,30.31562 35.609413,30.852776 C 34.586448,31.097445 33.537475,30.875994 32.505419,30.981625 C 31.571011,30.975212 31.934473,29.513526 31.126568,29.387285 C 30.297742,29.127966 29.941917,27.892363 28.989617,28.045667 C 28.01504,28.007023 27.919611,29.687874 26.874098,29.50608 C 26.150262,29.557718 25.294415,29.228677 24.751432,29.992895 C 24.420851,30.718812 23.41367,30.701976 23.313975,31.515423 z"
       id="path10150" />
    <path
       id="path9171"
       d="M 23.313975,31.515423 C 22.677547,32.299523 21.572606,32.089377 20.969818,32.930793 C 21.330657,34.171989 22.60641,33.394062 23.334353,33.780494 C 24.013894,34.586186 22.520876,35.134382 23.005325,35.970703 C 23.491052,36.984136 24.506704,36.58228 25.288466,36.540569 C 26.309808,36.533753 27.440096,36.72636 28.309231,35.931603 C 28.872221,35.515535 29.646345,34.715751 30.236219,35.510925 C 30.717617,36.035726 31.19792,36.883699 31.95509,36.669124 C 32.870187,36.603212 33.913822,35.89769 33.849155,34.689592 C 34.185683,33.850382 35.005911,34.311565 35.144434,34.993521 C 35.897871,35.573795 37.067943,35.251433 37.457963,34.270099 C 38.331912,33.909277 38.690189,32.43707 37.813353,31.869408 C 37.424787,30.897395 36.455517,30.31562 35.609413,30.852776 C 34.586448,31.097445 33.537475,30.875994 32.505419,30.981625 C 31.571011,30.975212 31.934473,29.513526 31.126568,29.387285 C 30.297742,29.127966 29.941917,27.892363 28.989617,28.045667 C 28.01504,28.007023 27.919611,29.687874 26.874098,29.50608 C 26.150262,29.557718 25.294415,29.228677 24.751432,29.992895 C 24.420851,30.718812 23.41367,30.701976 23.313975,31.515423 z"
       style="fill:url(#linearGradient6043);fill-opacity:1;fill-rule:evenodd;stroke:none;stroke-width:1px;stroke-linecap:butt;stroke-linejoin:miter;stroke-opacity:1" />
    <path
       style="fill:url(#linearGradient6040);fill-opacity:1;fill-rule:evenodd;stroke:none;stroke-width:1px;stroke-linecap:butt;stroke-linejoin:miter;stroke-opacity:1"
       d="M 23.313975,31.515423 C 22.677547,32.299523 21.572606,32.089377 20.969818,32.930793 C 21.330657,34.171989 22.60641,33.394062 23.334353,33.780494 C 24.013894,34.586186 22.520876,35.134382 23.005325,35.970703 C 23.491052,36.984136 24.506704,36.58228 25.288466,36.540569 C 26.309808,36.533753 27.440096,36.72636 28.309231,35.931603 C 28.872221,35.515535 29.646345,34.715751 30.236219,35.510925 C 30.717617,36.035726 31.19792,36.883699 31.95509,36.669124 C 32.870187,36.603212 33.913822,35.89769 33.849155,34.689592 C 34.185683,33.850382 35.005911,34.311565 35.144434,34.993521 C 35.897871,35.573795 37.067943,35.251433 37.457963,34.270099 C 38.331912,33.909277 38.690189,32.43707 37.813353,31.869408 C 37.424787,30.897395 36.455517,30.31562 35.609413,30.852776 C 34.586448,31.097445 33.537475,30.875994 32.505419,30.981625 C 31.571011,30.975212 31.934473,29.513526 31.126568,29.387285 C 30.297742,29.127966 29.941917,27.892363 28.989617,28.045667 C 28.01504,28.007023 27.919611,29.687874 26.874098,29.50608 C 26.150262,29.557718 25.294415,29.228677 24.751432,29.992895 C 24.420851,30.718812 23.41367,30.701976 23.313975,31.515423 z"
       id="path8192" />
    <path
       id="path7169"
       d="M 23.313975,31.515423 C 22.677547,32.299523 21.572606,32.089377 20.969818,32.930793 C 21.330657,34.171989 22.60641,33.394062 23.334353,33.780494 C 24.013894,34.586186 22.520876,35.134382 23.005325,35.970703 C 23.491052,36.984136 24.506704,36.58228 25.288466,36.540569 C 26.309808,36.533753 27.440096,36.72636 28.309231,35.931603 C 28.872221,35.515535 29.646345,34.715751 30.236219,35.510925 C 30.717617,36.035726 31.19792,36.883699 31.95509,36.669124 C 32.870187,36.603212 33.913822,35.89769 33.849155,34.689592 C 34.185683,33.850382 35.005911,34.311565 35.144434,34.993521 C 35.897871,35.573795 37.067943,35.251433 37.457963,34.270099 C 38.331912,33.909277 38.690189,32.43707 37.813353,31.869408 C 37.424787,30.897395 36.455517,30.31562 35.609413,30.852776 C 34.586448,31.097445 33.537475,30.875994 32.505419,30.981625 C 31.571011,30.975212 31.934473,29.513526 31.126568,29.387285 C 30.297742,29.127966 29.941917,27.892363 28.989617,28.045667 C 28.01504,28.007023 27.919611,29.687874 26.874098,29.50608 C 26.150262,29.557718 25.294415,29.228677 24.751432,29.992895 C 24.420851,30.718812 23.41367,30.701976 23.313975,31.515423 z"
       style="fill:none;fill-opacity:1;fill-rule:evenodd;stroke:#875826;stroke-width:0.5;stroke-linecap:butt;stroke-linejoin:miter;stroke-miterlimit:4;stroke-dasharray:none;stroke-opacity:1" />
    <g
       id="g2564"
       transform="matrix(1.119646,-1.013613,0.6967653,0.9405823,-35.12886,9.5400893)">
      <rect
         id="rect2566"
         style="opacity:0.3;fill:url(#linearGradient2381);fill-opacity:1;fill-rule:evenodd;stroke:none;stroke-width:1.02400005;stroke-linecap:butt;stroke-linejoin:miter;stroke-miterlimit:4;stroke-dasharray:none;stroke-dashoffset:0;stroke-opacity:1"
         y="41.809082"
         x="9.3215466"
         height="6.3234997"
         width="32.357079" />
      <path
         id="path2568"
         style="opacity:0.3;fill:url(#radialGradient2383);fill-opacity:1;fill-rule:evenodd;stroke:none;stroke-width:1.02400005;stroke-linecap:butt;stroke-linejoin:miter;stroke-miterlimit:4;stroke-dasharray:none;stroke-dashoffset:0;stroke-opacity:1"
         d="M 41.6785,41.799698 L 41.6785,48.126714 C 44.022298,48.102828 45.930248,46.705313 45.930248,44.974385 C 45.930248,43.243458 44.022299,41.823584 41.6785,41.799698 z" />
      <path
         id="path2570"
         style="opacity:0.3;fill:url(#radialGradient2385);fill-opacity:1;fill-rule:evenodd;stroke:none;stroke-width:1.02400005;stroke-linecap:butt;stroke-linejoin:miter;stroke-miterlimit:4;stroke-dasharray:none;stroke-dashoffset:0;stroke-opacity:1"
         d="M 9.3217476,41.799698 L 9.3217476,48.126714 C 6.9779494,48.102828 5.07,46.705313 5.07,44.974385 C 5.07,43.243458 6.9779484,41.823584 9.3217476,41.799698 z" />
    </g>
    <path
       sodipodi:nodetypes="czzzzz"
       id="path37633"
       d="M 16.251849,31.025631 C 19.157958,27.129688 21.681073,23.764577 29.268647,17.470393 C 36.856216,11.176212 45.564127,5.1284829 46.602137,5.8488949 C 47.640146,6.5693096 40.660168,13.55073 33.420685,20.352048 C 26.1812,27.153367 21.936417,30.385771 17.644206,33.054167 C 13.351999,35.722563 13.345738,34.921573 16.251849,31.025631 z"
       style="fill:url(#linearGradient5183);fill-opacity:1;fill-rule:evenodd;stroke:#765626;stroke-width:1.08446872px;stroke-linecap:butt;stroke-linejoin:miter;stroke-opacity:1" />
    <path
       d="M 45.46875,6.875 C 45.267244,6.964495 45.125397,6.9940273 44.875,7.125 C 43.841433,7.665617 42.423727,8.529575 40.8125,9.625 C 37.590047,11.81585 33.526678,14.898351 29.75,18.03125 C 22.199972,24.294288 19.74879,27.574241 16.84375,31.46875 C 16.223938,32.299672 15.820884,32.922005 15.5,33.4375 C 15.980217,33.195981 16.476161,32.938011 17.28125,32.4375 C 21.529375,29.796511 25.685588,26.596134 32.90625,19.8125 C 36.52052,16.416981 40.062234,12.974473 42.5625,10.3125 C 43.812633,8.9815135 44.790411,7.8410951 45.375,7.03125 C 45.424928,6.962083 45.424985,6.9393986 45.46875,6.875 z"
       id="path3286"
       style="fill:none;fill-opacity:1;fill-rule:evenodd;stroke:#e6b468;stroke-width:0.5;stroke-linecap:butt;stroke-linejoin:miter;stroke-miterlimit:4;stroke-dasharray:none;stroke-opacity:1"
       inkscape:original="M 46.59375 5.84375 C 45.55574 5.123338 36.86882 11.17457 29.28125 17.46875 C 21.693676 23.762934 19.15611 27.135307 16.25 31.03125 C 13.343889 34.927192 13.364044 35.730894 17.65625 33.0625 C 21.948461 30.394104 26.166765 27.145068 33.40625 20.34375 C 40.645733 13.542432 47.631757 6.5641645 46.59375 5.84375 z "
       inkscape:radius="-0.73954761"
       sodipodi:type="inkscape:offset" />
    <path
       sodipodi:nodetypes="czzczz"
       id="path30779"
       d="M 6.8783119,36.040114 C 8.5775644,34.377841 11.057171,34.621713 12.418809,35.634433 C 13.780445,36.647151 13.747855,38.226796 13.154321,39.945643 C 12.578916,41.611988 11.003821,42.849223 8.3586038,43.550141 C 6.7283988,44.045657 3.8923437,44.534843 1.5667601,46.400802 C -0.79155448,48.293022 5.1462056,37.734527 6.8783119,36.040114 z"
       style="fill:url(#radialGradient4796);fill-opacity:1;fill-rule:evenodd;stroke:#765225;stroke-width:1;stroke-linecap:butt;stroke-linejoin:miter;stroke-miterlimit:4;stroke-dasharray:none;stroke-opacity:1" />
    <path
       id="path32739"
       d="M 5.7068176,38.576645 C 5.6118321,38.721794 5.5326512,38.8385 5.4351188,38.991685 C 4.683993,40.171409 3.8542559,41.564001 3.1613757,42.853145 C 2.5809332,43.933093 2.1938347,44.763904 1.9214757,45.445858 C 4.2570859,43.865608 6.8569476,43.404598 8.2639391,42.97693 C 8.270505,42.951658 8.2783863,42.926656 8.2875392,42.902063 C 8.4019871,42.871738 8.4853323,42.85244 8.5949348,42.820647 C 6.7552684,42.240962 5.598838,40.489465 5.7068176,38.576645 z"
       style="opacity:0.71753247;fill:#ff001e;fill-opacity:1;fill-rule:evenodd;stroke:none;stroke-width:0.5;stroke-linecap:butt;stroke-linejoin:miter;stroke-miterlimit:4;stroke-dasharray:none;stroke-opacity:1" />
    <path
       transform="matrix(1.1648819,0,0,1.1648819,-1.3099372,-6.6666065)"
       d="M 9.53125,36.25 C 8.810025,36.264551 8.1035303,36.534603 7.5,37.125 C 7.3669064,37.255197 7.1447063,37.533363 6.875,37.90625 C 6.6052937,38.279137 6.260381,38.742703 5.9375,39.25 C 5.2919866,40.264204 4.5647319,41.453362 3.96875,42.5625 C 3.5841902,43.278176 3.3986879,43.769632 3.15625,44.3125 C 3.1599731,44.317364 3.1657493,44.320217 3.171875,44.320217 C 3.1780007,44.320217 3.1837769,44.317364 3.1875,44.3125 C 3.1826356,44.316223 3.1797826,44.321999 3.1797826,44.328125 C 3.1797826,44.334251 3.1826356,44.340027 3.1875,44.34375 C 5.0545262,43.241664 7.0307042,42.832621 8.125,42.5 C 8.135103,42.499759 8.146147,42.499759 8.15625,42.5 C 10.306975,41.93011 11.402125,40.969674 11.8125,39.78125 C 12.049296,39.095499 12.150586,38.484057 12.09375,38 C 12.037023,37.516872 11.830038,37.150935 11.375,36.8125 C 10.91393,36.469579 10.250668,36.235485 9.53125,36.25 z"
       id="path5179"
       style="fill:none;fill-opacity:1;fill-rule:evenodd;stroke:#e4b276;stroke-width:0.42922807;stroke-linecap:butt;stroke-linejoin:miter;stroke-miterlimit:4;stroke-dasharray:none;stroke-opacity:1"
       inkscape:original="M 9.53125 36.28125 C 8.8141937 36.295717 8.0998859 36.538168 7.5 37.125 C 7.2382874 37.381017 6.6141167 38.236027 5.96875 39.25 C 5.3233833 40.263973 4.5955981 41.454076 4 42.5625 C 3.6159695 43.277191 3.4302159 43.769009 3.1875 44.3125 C 5.057921 43.20841 7.0327299 42.800755 8.125 42.46875 C 8.1354152 42.468502 8.1458348 42.468502 8.15625 42.46875 C 10.303369 41.899816 11.373291 40.962677 11.78125 39.78125 C 12.01742 39.097313 12.118789 38.479395 12.0625 38 C 12.006211 37.520605 11.826928 37.179872 11.375 36.84375 C 10.917824 36.503725 10.246075 36.266828 9.53125 36.28125 z "
       inkscape:radius="0.019674242"
       sodipodi:type="inkscape:offset" />
    <g
       id="g5995">
      <path
         style="fill:url(#linearGradient2317);fill-opacity:1;fill-rule:evenodd;stroke:#8d8d8d;stroke-width:1;stroke-linecap:round;stroke-linejoin:round;stroke-miterlimit:4;stroke-dasharray:none;stroke-dashoffset:0;stroke-opacity:1"
         d="M 17.806263,27.711354 C 18.337847,29.72588 19.487359,30.996006 20.920048,31.924992 L 12.264939,38.362567 C 11.285994,37.883651 10.663753,36.989869 10.336513,35.752984 L 17.806263,27.711354 z"
         id="rect30783"
         sodipodi:nodetypes="ccccc"
         inkscape:transform-center-y="-1.5383773" />
      <path
         sodipodi:type="inkscape:offset"
         inkscape:radius="-0.7180391"
         inkscape:original="M 17.8125 27.71875 L 10.34375 35.75 C 10.67099 36.986885 11.271055 37.896083 12.25 38.375 L 20.90625 31.9375 C 19.473561 31.008514 18.344084 29.733277 17.8125 27.71875 z "
         style="fill:none;fill-opacity:1;fill-rule:evenodd;stroke:#e6e6e6;stroke-width:0.5;stroke-linecap:round;stroke-linejoin:round;stroke-miterlimit:4;stroke-dasharray:none;stroke-dashoffset:0;stroke-opacity:1"
         id="path4433"
         d="M 17.65625,28.96875 L 11.1875,35.90625 C 11.432839,36.629369 11.79561,37.130372 12.28125,37.46875 L 19.78125,31.875 C 18.87739,31.139525 18.181066,30.17302 17.65625,28.96875 z" />
    </g>
  </g>
</svg>
