<?xml version="1.0" encoding="UTF-8" standalone="no"?>
<!-- Created with Inkscape (http://www.inkscape.org/) -->
<svg
   xmlns:dc="http://purl.org/dc/elements/1.1/"
   xmlns:cc="http://web.resource.org/cc/"
   xmlns:rdf="http://www.w3.org/1999/02/22-rdf-syntax-ns#"
   xmlns:svg="http://www.w3.org/2000/svg"
   xmlns="http://www.w3.org/2000/svg"
   xmlns:xlink="http://www.w3.org/1999/xlink"
   xmlns:sodipodi="http://sodipodi.sourceforge.net/DTD/sodipodi-0.dtd"
   xmlns:inkscape="http://www.inkscape.org/namespaces/inkscape"
   width="48"
   height="48"
   id="svg2"
   sodipodi:version="0.32"
   inkscape:version="0.45"
   version="1.0"
   sodipodi:docbase="/home/andrew/Desktop"
   sodipodi:docname="mouse gestures_blue.svg"
   inkscape:output_extension="org.inkscape.output.svg.inkscape"
   sodipodi:modified="true">
  <defs
     id="defs4">
    <linearGradient
       inkscape:collect="always"
       id="linearGradient4728">
      <stop
         style="stop-color:#204a87;stop-opacity:1"
         offset="0"
         id="stop4730" />
      <stop
         style="stop-color:#3465a4;stop-opacity:0"
         offset="1"
         id="stop4732" />
    </linearGradient>
    <linearGradient
       inkscape:collect="always"
       id="linearGradient4717">
      <stop
         style="stop-color:#3465a4;stop-opacity:1"
         offset="0"
         id="stop4719" />
      <stop
         style="stop-color:#729fcf;stop-opacity:0"
         offset="1"
         id="stop4721" />
    </linearGradient>
    <linearGradient
       id="linearGradient3801">
      <stop
         style="stop-color:#8ae234;stop-opacity:1"
         offset="0"
         id="stop3803" />
      <stop
         style="stop-color:#4e9a06;stop-opacity:1"
         offset="1"
         id="stop3805" />
    </linearGradient>
    <linearGradient
       inkscape:collect="always"
       xlink:href="#linearGradient4717"
       id="linearGradient4723"
       x1="20.625"
       y1="15.25"
       x2="5"
       y2="29"
       gradientUnits="userSpaceOnUse" />
    <linearGradient
       inkscape:collect="always"
       xlink:href="#linearGradient4728"
       id="linearGradient4734"
       x1="27.25"
       y1="17.625"
       x2="11.625"
       y2="8.375"
       gradientUnits="userSpaceOnUse" />
  </defs>
  <sodipodi:namedview
     id="base"
     pagecolor="#ffffff"
     bordercolor="#666666"
     borderopacity="1.0"
     gridtolerance="10000"
     guidetolerance="10"
     objecttolerance="10"
     inkscape:pageopacity="0.0"
     inkscape:pageshadow="2"
     inkscape:zoom="7.9999999"
     inkscape:cx="41.311861"
     inkscape:cy="16.635623"
     inkscape:document-units="px"
     inkscape:current-layer="layer1"
     width="48px"
     height="48px"
     inkscape:showpageshadow="false"
     inkscape:window-width="1440"
     inkscape:window-height="821"
     inkscape:window-x="0"
     inkscape:window-y="51"
     borderlayer="true"
     showborder="true"
     showguides="true"
     inkscape:guide-bbox="true" />
  <metadata
     id="metadata7">
    <rdf:RDF>
      <cc:Work
         rdf:about="">
        <dc:format>image/svg+xml</dc:format>
        <dc:type
           rdf:resource="http://purl.org/dc/dcmitype/StillImage" />
      </cc:Work>
    </rdf:RDF>
  </metadata>
  <g
     inkscape:label="Layer 1"
     inkscape:groupmode="layer"
     id="layer1">
    <path
       style="opacity:0.26599995;fill:#d3d7cf;fill-opacity:1;stroke:#2e3436;stroke-width:0.64129597;stroke-linecap:round;stroke-miterlimit:4;stroke-dasharray:none;stroke-opacity:1"
       d="M 3.2704399,18.636356 C 6.2598412,21.341485 9.2492428,24.046613 12.238644,26.751742 C 11.003768,27.192122 9.7688931,27.632503 8.5340179,28.072883 C 9.3449563,29.499835 10.155893,30.926787 10.966832,32.353738 C 10.187902,32.633003 9.4089729,32.912269 8.6300431,33.191536 C 7.871236,31.706247 7.1124282,30.220958 6.3536208,28.735669 C 5.3258939,29.066907 4.2981669,29.398143 3.2704399,29.729379 C 3.2704399,26.031705 3.2704399,22.334031 3.2704399,18.636356 z "
       id="rect3658" />
    <path
       style="opacity:0.43999999;fill:#d3d7cf;fill-opacity:1;stroke:#2e3436;stroke-width:0.72471553;stroke-linecap:round;stroke-miterlimit:4;stroke-dasharray:none;stroke-opacity:1"
       d="M 7.3701088,8.0141045 C 10.74837,11.071115 14.126632,14.128126 17.504892,17.185137 C 16.109385,17.682801 14.713878,18.180465 13.318371,18.67813 C 14.234796,20.290699 15.151219,21.903269 16.067643,23.515839 C 15.187391,23.831429 14.307139,24.147021 13.426887,24.462614 C 12.569373,22.78412 11.711862,21.105626 10.854348,19.427132 C 9.6929351,19.801457 8.5315219,20.175781 7.3701088,20.550105 C 7.3701088,16.371439 7.3701088,12.192771 7.3701088,8.0141045 z "
       id="path3661" />
    <path
       style="opacity:0.59080003;fill:#d3d7cf;fill-opacity:1;stroke:#2e3436;stroke-width:0.87354958;stroke-linecap:round;stroke-miterlimit:4;stroke-dasharray:none;stroke-opacity:1"
       d="M 15.346772,1.7407677 C 19.948925,5.4167465 24.551076,9.0927254 29.153229,12.768704 C 27.252151,13.367134 25.351074,13.965562 23.449996,14.563991 C 24.698427,16.503066 25.946858,18.442141 27.195288,20.381215 C 25.996134,20.760706 24.796981,21.140198 23.597827,21.51969 C 22.42965,19.501342 21.261473,17.482995 20.093296,15.464648 C 18.511121,15.914763 16.928947,16.364879 15.346772,16.814995 C 15.346772,11.790253 15.346772,6.7655101 15.346772,1.7407677 z "
       id="path3663" />
    <path
       style="opacity:0.57960008;fill:#d3d7cf;fill-opacity:1;stroke:#2e3436;stroke-width:0.91658044;stroke-linecap:round;stroke-miterlimit:4;stroke-dasharray:none;stroke-opacity:1"
       d="M 27.966041,2.7350372 C 32.23868,6.6013767 36.51132,10.467716 40.783959,14.334056 C 39.018997,14.963474 37.254036,15.592893 35.489075,16.222312 C 36.64812,18.261801 37.807163,20.301291 38.966206,22.34078 C 37.852911,22.739923 36.739617,23.139066 35.626323,23.538209 C 34.541786,21.415343 33.457251,19.292476 32.372714,17.169609 C 30.903824,17.643034 29.434933,18.116459 27.966041,18.589884 C 27.966041,13.304935 27.966041,8.019986 27.966041,2.7350372 z "
       id="path3665" />
    <path
       style="opacity:0.74340012;fill:#d3d7cf;fill-opacity:1;stroke:#2e3436;stroke-width:0.94160634;stroke-linecap:round;stroke-miterlimit:4;stroke-dasharray:none;stroke-opacity:1"
       d="M 33.478554,13.372551 C 37.867851,17.344455 42.257149,21.316358 46.646446,25.288263 C 44.833294,25.934867 43.020144,26.581471 41.206993,27.228075 C 42.397684,29.323249 43.588373,31.418423 44.779063,33.513597 C 43.635371,33.923638 42.49168,34.33368 41.347988,34.743722 C 40.23384,32.562894 39.119693,30.382065 38.005545,28.201237 C 36.496548,28.687588 34.987552,29.173939 33.478554,29.66029 C 33.478554,24.231043 33.478554,18.801797 33.478554,13.372551 z "
       id="path3667" />
    <path
       style="fill:#eeeeec;fill-opacity:1;stroke:#2e3436;stroke-width:1;stroke-miterlimit:4;stroke-opacity:1;stroke-linejoin:round;stroke-linecap:round;stroke-dasharray:none;opacity:0.87"
       d="M 29.257751,22.401749 C 33.91925,26.61997 38.58075,30.838191 43.242249,35.056412 C 41.316655,35.743116 39.391062,36.42982 37.465469,37.116524 C 38.73,39.341629 39.99453,41.566734 41.25906,43.79184 C 40.044442,44.22731 38.829825,44.662781 37.615208,45.098251 C 36.431966,42.78218 35.248725,40.466108 34.065483,38.150036 C 32.462906,38.666547 30.860329,39.183058 29.257751,39.69957 C 29.257751,33.933629 29.257751,28.167689 29.257751,22.401749 z "
       id="path3669" />
    <path
       style="color:#000000;fill:url(#linearGradient4723);fill-opacity:1.0;fill-rule:evenodd;stroke:url(#linearGradient4734);stroke-width:2;stroke-linecap:butt;stroke-linejoin:miter;marker:none;marker-start:none;marker-mid:none;marker-end:none;stroke-miterlimit:4;stroke-dasharray:none;stroke-dashoffset:0;stroke-opacity:1;visibility:visible;display:inline;overflow:visible;enable-background:accumulate;opacity:0.6372"
       d="M 7.2812506,25.34375 L 13.500001,24.40625 C 12.724587,19.24487 18.032362,14.125128 23.375001,13.125 C 30.260905,12.297544 35.016033,19.121512 33.593751,26.0625 L 28.843751,25.3125 L 35.125001,34 L 43.812501,27.71875 L 39.781251,27.0625 C 40.175951,25.298113 40.288363,23.475258 40.062501,21.625 C 39.730738,18.907281 38.745405,16.413024 37.281251,14.28125 C 35.02358,10.994155 31.628926,8.5985168 27.750001,7.6249998 C 16.078151,4.8091869 6.8323196,13.549356 7.2812506,25.34375 z "
       id="mee"
       sodipodi:nodetypes="ccccccccsscc"
       inkscape:label="#125435674" />
  </g>
</svg>
