<?xml version="1.0" encoding="UTF-8" standalone="no"?>
<!-- Created with Inkscape (http://www.inkscape.org/) -->
<svg
   xmlns:dc="http://purl.org/dc/elements/1.1/"
   xmlns:cc="http://web.resource.org/cc/"
   xmlns:rdf="http://www.w3.org/1999/02/22-rdf-syntax-ns#"
   xmlns:svg="http://www.w3.org/2000/svg"
   xmlns="http://www.w3.org/2000/svg"
   xmlns:xlink="http://www.w3.org/1999/xlink"
   xmlns:sodipodi="http://sodipodi.sourceforge.net/DTD/sodipodi-0.dtd"
   xmlns:inkscape="http://www.inkscape.org/namespaces/inkscape"
   inkscape:export-ydpi="90.000000"
   inkscape:export-xdpi="90.000000"
   inkscape:export-filename="/home/jimmac/Desktop/wi-fi.png"
   width="48px"
   height="48px"
   id="svg11300"
   sodipodi:version="0.32"
   inkscape:version="0.45+devel"
   sodipodi:docbase="/home/patrick/Projects/Beryl/svn/beryl/trunk/beryl-settings/images"
   sodipodi:docname="beryl-settings-section-fakeargb.svg"
   inkscape:output_extension="org.inkscape.output.svg.inkscape"
   sodipodi:modified="true">
  <defs
     id="defs3">
    <linearGradient
       id="linearGradient13816">
      <stop
         id="stop13818"
         offset="0"
         style="stop-color:#f7f7f6;stop-opacity:1" />
      <stop
         id="stop13820"
         offset="1"
         style="stop-color:#eff0ee;stop-opacity:0" />
    </linearGradient>
    <linearGradient
       id="linearGradient47870">
      <stop
         id="stop47872"
         offset="0"
         style="stop-color:#000000;stop-opacity:0" />
      <stop
         id="stop47878"
         offset="0.5"
         style="stop-color:#000000;stop-opacity:1" />
      <stop
         id="stop47874"
         offset="1"
         style="stop-color:#000000;stop-opacity:0" />
    </linearGradient>
    <linearGradient
       id="linearGradient51765">
      <stop
         id="stop51767"
         offset="0"
         style="stop-color:#000000;stop-opacity:1" />
      <stop
         id="stop51769"
         offset="1"
         style="stop-color:#000000;stop-opacity:0" />
    </linearGradient>
    <linearGradient
       id="linearGradient12914">
      <stop
         id="stop12916"
         offset="0"
         style="stop-color:#3465a4;stop-opacity:1" />
      <stop
         id="stop12918"
         offset="1"
         style="stop-color:#3465a4;stop-opacity:0" />
    </linearGradient>
    <linearGradient
       inkscape:collect="always"
       xlink:href="#linearGradient47870"
       id="linearGradient2215"
       gradientUnits="userSpaceOnUse"
       gradientTransform="matrix(0.9788196,0,0,0.7154223,-8.5008021,52.112719)"
       x1="32.084972"
       y1="-14.402173"
       x2="32.084972"
       y2="-5.5633383" />
    <radialGradient
       inkscape:collect="always"
       xlink:href="#linearGradient51765"
       id="radialGradient2217"
       gradientUnits="userSpaceOnUse"
       gradientTransform="matrix(1.9576392,-8.146468e-7,6.6614241e-7,1.4565793,-59.017557,62.738067)"
       cx="51.4375"
       cy="-12.203125"
       fx="51.4375"
       fy="-12.203125"
       r="2.171875" />
    <radialGradient
       inkscape:collect="always"
       xlink:href="#linearGradient51765"
       id="radialGradient2219"
       gradientUnits="userSpaceOnUse"
       gradientTransform="matrix(-1.9576392,-9.2540676e-8,-1.2888861e-7,1.4565793,110.01781,62.73803)"
       cx="51.4375"
       cy="-12.203125"
       fx="51.4375"
       fy="-12.203125"
       r="2.171875" />
    <linearGradient
       inkscape:collect="always"
       xlink:href="#linearGradient13816"
       id="linearGradient2221"
       gradientUnits="userSpaceOnUse"
       gradientTransform="matrix(1.1560613,0,0,1.7161538,-2.7575076,-25.924613)"
       x1="28.280043"
       y1="15.029495"
       x2="38.880146"
       y2="39.040752" />
    <linearGradient
       inkscape:collect="always"
       xlink:href="#linearGradient12914"
       id="linearGradient2223"
       gradientUnits="userSpaceOnUse"
       gradientTransform="matrix(1.0700727,0,0,1.0115097,-1.8986825,-1.5194787)"
       x1="12.838772"
       y1="1.4315225"
       x2="22.452898"
       y2="28.529707" />
    <linearGradient
       inkscape:collect="always"
       xlink:href="#linearGradient12914"
       id="linearGradient2226"
       gradientUnits="userSpaceOnUse"
       gradientTransform="matrix(1.0700727,0,0,1.0115097,-2.5079623,1.0689529)"
       x1="12.838772"
       y1="1.4315225"
       x2="22.452898"
       y2="28.529707" />
    <linearGradient
       inkscape:collect="always"
       xlink:href="#linearGradient13816"
       id="linearGradient2230"
       gradientUnits="userSpaceOnUse"
       gradientTransform="matrix(1.1560613,0,0,1.7161538,-3.3667874,-23.336181)"
       x1="28.280043"
       y1="15.029495"
       x2="38.880146"
       y2="39.040752" />
    <linearGradient
       inkscape:collect="always"
       xlink:href="#linearGradient47870"
       id="linearGradient8125"
       gradientUnits="userSpaceOnUse"
       gradientTransform="matrix(1.137949,0,0,0.9742908,-15.088534,65.776286)"
       x1="32.084972"
       y1="-14.402173"
       x2="32.084972"
       y2="-5.5633383" />
    <radialGradient
       inkscape:collect="always"
       xlink:href="#linearGradient51765"
       id="radialGradient8127"
       gradientUnits="userSpaceOnUse"
       gradientTransform="matrix(2.2758981,-1.2389479e-6,8.7403426e-7,1.945858,-73.817938,79.785404)"
       cx="51.4375"
       cy="-12.203125"
       fx="51.4375"
       fy="-12.203125"
       r="2.171875" />
    <radialGradient
       inkscape:collect="always"
       xlink:href="#linearGradient51765"
       id="radialGradient8129"
       gradientUnits="userSpaceOnUse"
       gradientTransform="matrix(-2.2758981,-2.2021361e-6,-1.8832597e-6,1.9080885,122.69796,79.324548)"
       cx="51.4375"
       cy="-12.203125"
       fx="51.4375"
       fy="-12.203125"
       r="2.171875" />
    <radialGradient
       r="14.75"
       fy="10.241054"
       fx="56.704376"
       cy="10.241054"
       cx="56.704376"
       gradientTransform="matrix(0.664143,0.4987188,-0.6514275,0.8675051,-6.5927319,-24.793918)"
       gradientUnits="userSpaceOnUse"
       id="radialGradient2188"
       xlink:href="#linearGradient8440"
       inkscape:collect="always" />
    <radialGradient
       r="9.5"
       fy="5.9999995"
       fx="10.5"
       cy="5.9999995"
       cx="10.5"
       gradientTransform="matrix(1,0,0,0.6052632,0,2.3684209)"
       gradientUnits="userSpaceOnUse"
       id="radialGradient4188"
       xlink:href="#linearGradient30743"
       inkscape:collect="always" />
    <radialGradient
       r="14.75"
       fy="10.241054"
       fx="56.704376"
       cy="10.241054"
       cx="56.704376"
       gradientTransform="matrix(0.3810944,0.455232,-0.594625,0.4977864,-8.1655377,-1.6212846)"
       gradientUnits="userSpaceOnUse"
       id="radialGradient3193"
       xlink:href="#linearGradient8440"
       inkscape:collect="always" />
    <radialGradient
       r="9.5"
       fy="5.9999995"
       fx="10.5"
       cy="5.9999995"
       cx="10.5"
       gradientTransform="matrix(1,0,0,0.6052632,0,2.3684209)"
       gradientUnits="userSpaceOnUse"
       id="radialGradient9570"
       xlink:href="#linearGradient30743"
       inkscape:collect="always" />
    <linearGradient
       inkscape:collect="always"
       id="linearGradient30743">
      <stop
         style="stop-color:#000000;stop-opacity:1;"
         offset="0"
         id="stop30745" />
      <stop
         style="stop-color:#000000;stop-opacity:0;"
         offset="1"
         id="stop30747" />
    </linearGradient>
    <linearGradient
       id="linearGradient8440">
      <stop
         id="stop8442"
         offset="0"
         style="stop-color:#edeeec;stop-opacity:1;" />
      <stop
         id="stop8444"
         offset="1"
         style="stop-color:#babdb6;stop-opacity:1;" />
    </linearGradient>
    <linearGradient
       inkscape:collect="always"
       xlink:href="#linearGradient47870"
       id="linearGradient9195"
       gradientUnits="userSpaceOnUse"
       gradientTransform="matrix(1.137949,0,0,0.9742908,-15.088534,65.776286)"
       x1="32.084972"
       y1="-14.402173"
       x2="32.084972"
       y2="-5.5633383" />
    <radialGradient
       inkscape:collect="always"
       xlink:href="#linearGradient51765"
       id="radialGradient9197"
       gradientUnits="userSpaceOnUse"
       gradientTransform="matrix(2.2758981,-1.2389479e-6,8.7403426e-7,1.945858,-73.817938,79.785404)"
       cx="51.4375"
       cy="-12.203125"
       fx="51.4375"
       fy="-12.203125"
       r="2.171875" />
    <radialGradient
       inkscape:collect="always"
       xlink:href="#linearGradient51765"
       id="radialGradient9199"
       gradientUnits="userSpaceOnUse"
       gradientTransform="matrix(-2.2758981,-2.2021361e-6,-1.8832597e-6,1.9080885,122.69796,79.324548)"
       cx="51.4375"
       cy="-12.203125"
       fx="51.4375"
       fy="-12.203125"
       r="2.171875" />
    <linearGradient
       inkscape:collect="always"
       xlink:href="#linearGradient13816"
       id="linearGradient9201"
       gradientUnits="userSpaceOnUse"
       gradientTransform="matrix(1.1560613,0,0,1.7161538,-3.3667874,-23.336181)"
       x1="28.280043"
       y1="15.029495"
       x2="38.880146"
       y2="39.040752" />
    <linearGradient
       inkscape:collect="always"
       xlink:href="#linearGradient12914"
       id="linearGradient9203"
       gradientUnits="userSpaceOnUse"
       gradientTransform="matrix(1.0700727,0,0,1.0115097,-2.5079623,1.0689529)"
       x1="12.838772"
       y1="1.4315225"
       x2="22.452898"
       y2="28.529707" />
    <radialGradient
       inkscape:collect="always"
       xlink:href="#linearGradient30743"
       id="radialGradient9205"
       gradientUnits="userSpaceOnUse"
       gradientTransform="matrix(1,0,0,0.6052632,0,2.3684209)"
       cx="10.5"
       cy="5.9999995"
       fx="10.5"
       fy="5.9999995"
       r="9.5" />
    <radialGradient
       inkscape:collect="always"
       xlink:href="#linearGradient8440"
       id="radialGradient9207"
       gradientUnits="userSpaceOnUse"
       gradientTransform="matrix(0.3810944,0.455232,-0.594625,0.4977864,-8.1655377,-1.6212846)"
       cx="56.704376"
       cy="10.241054"
       fx="56.704376"
       fy="10.241054"
       r="14.75" />
    <radialGradient
       inkscape:collect="always"
       xlink:href="#linearGradient8440"
       id="radialGradient9209"
       gradientUnits="userSpaceOnUse"
       gradientTransform="matrix(0.664143,0.4987188,-0.6514275,0.8675051,-6.5927319,-24.793918)"
       cx="56.704376"
       cy="10.241054"
       fx="56.704376"
       fy="10.241054"
       r="14.75" />
    <radialGradient
       inkscape:collect="always"
       xlink:href="#linearGradient30743"
       id="radialGradient9211"
       gradientUnits="userSpaceOnUse"
       gradientTransform="matrix(1,0,0,0.6052632,0,2.3684209)"
       cx="10.5"
       cy="5.9999995"
       fx="10.5"
       fy="5.9999995"
       r="9.5" />
    <radialGradient
       inkscape:collect="always"
       xlink:href="#linearGradient8440"
       id="radialGradient9216"
       gradientUnits="userSpaceOnUse"
       gradientTransform="matrix(-0.3851881,0.2892458,0.3778134,0.5031336,40.305041,1.5105315)"
       cx="56.704376"
       cy="10.241054"
       fx="56.704376"
       fy="10.241054"
       r="14.75" />
    <radialGradient
       inkscape:collect="always"
       xlink:href="#linearGradient8440"
       id="radialGradient9228"
       gradientUnits="userSpaceOnUse"
       gradientTransform="matrix(0.3810944,0.455232,-0.594625,0.4977864,-8.1655377,-1.6212846)"
       cx="56.704376"
       cy="10.241054"
       fx="56.704376"
       fy="10.241054"
       r="14.75" />
    <radialGradient
       inkscape:collect="always"
       xlink:href="#linearGradient8440"
       id="radialGradient9230"
       gradientUnits="userSpaceOnUse"
       gradientTransform="matrix(-0.3851881,0.2892458,0.3778134,0.5031336,40.305041,1.5105315)"
       cx="56.704376"
       cy="10.241054"
       fx="56.704376"
       fy="10.241054"
       r="14.75" />
    <radialGradient
       inkscape:collect="always"
       xlink:href="#linearGradient30743"
       id="radialGradient9242"
       gradientUnits="userSpaceOnUse"
       gradientTransform="matrix(1,0,0,0.6052632,0,2.3684209)"
       cx="10.5"
       cy="5.9999995"
       fx="10.5"
       fy="5.9999995"
       r="9.5" />
    <radialGradient
       inkscape:collect="always"
       xlink:href="#linearGradient8440"
       id="radialGradient9244"
       gradientUnits="userSpaceOnUse"
       gradientTransform="matrix(0.3810944,0.455232,-0.594625,0.4977864,-8.1655377,-1.6212846)"
       cx="56.704376"
       cy="10.241054"
       fx="56.704376"
       fy="10.241054"
       r="14.75" />
    <radialGradient
       inkscape:collect="always"
       xlink:href="#linearGradient8440"
       id="radialGradient9246"
       gradientUnits="userSpaceOnUse"
       gradientTransform="matrix(-0.3851881,0.2892458,0.3778134,0.5031336,40.305041,1.5105315)"
       cx="56.704376"
       cy="10.241054"
       fx="56.704376"
       fy="10.241054"
       r="14.75" />
    <radialGradient
       inkscape:collect="always"
       xlink:href="#linearGradient30743"
       id="radialGradient9248"
       gradientUnits="userSpaceOnUse"
       gradientTransform="matrix(1,0,0,0.6052632,0,2.3684209)"
       cx="10.5"
       cy="5.9999995"
       fx="10.5"
       fy="5.9999995"
       r="9.5" />
  </defs>
  <sodipodi:namedview
     stroke="#ef2929"
     fill="#eeeeec"
     id="base"
     pagecolor="#ffffff"
     bordercolor="#666666"
     borderopacity="0.25490196"
     inkscape:pageopacity="0.0"
     inkscape:pageshadow="2"
     inkscape:zoom="7.9999999"
     inkscape:cx="26.853977"
     inkscape:cy="14.915618"
     inkscape:current-layer="layer1"
     showgrid="false"
     inkscape:grid-bbox="true"
     inkscape:document-units="px"
     inkscape:showpageshadow="false"
     inkscape:window-width="1270"
     inkscape:window-height="941"
     inkscape:window-x="1283"
     inkscape:window-y="49"
     showguides="true"
     inkscape:guide-bbox="true" />
  <metadata
     id="metadata4">
    <rdf:RDF>
      <cc:Work
         rdf:about="">
        <dc:format>image/svg+xml</dc:format>
        <dc:type
           rdf:resource="http://purl.org/dc/dcmitype/StillImage" />
        <dc:creator>
          <cc:Agent>
            <dc:title>Patrick Niklaus</dc:title>
          </cc:Agent>
        </dc:creator>
        <dc:source />
        <cc:license
           rdf:resource="http://creativecommons.org/licenses/GPL/2.0/" />
        <dc:title>Fakeargb</dc:title>
        <dc:subject>
          <rdf:Bag />
        </dc:subject>
      </cc:Work>
      <cc:License
         rdf:about="http://creativecommons.org/licenses/GPL/2.0/">
        <cc:permits
           rdf:resource="http://web.resource.org/cc/Reproduction" />
        <cc:permits
           rdf:resource="http://web.resource.org/cc/Distribution" />
        <cc:requires
           rdf:resource="http://web.resource.org/cc/Notice" />
        <cc:permits
           rdf:resource="http://web.resource.org/cc/DerivativeWorks" />
        <cc:requires
           rdf:resource="http://web.resource.org/cc/ShareAlike" />
        <cc:requires
           rdf:resource="http://web.resource.org/cc/SourceCode" />
      </cc:License>
    </rdf:RDF>
  </metadata>
  <g
     id="layer1"
     inkscape:label="Layer 1"
     inkscape:groupmode="layer">
    <g
       transform="matrix(0.8427039,0,0,0.8456217,7.8170656,-0.2161219)"
       id="g2197">
      <g
         transform="matrix(1.1625728,0,0,1.3618401,-5.283953,-20.031337)"
         id="g2199">
        <rect
           width="32.357079"
           height="6.3234997"
           x="9.3215466"
           y="41.809082"
           style="opacity:0.3;fill:url(#linearGradient2215);fill-opacity:1;fill-rule:evenodd;stroke:none;stroke-width:1.02400005;stroke-linecap:butt;stroke-linejoin:miter;stroke-miterlimit:4;stroke-dasharray:none;stroke-dashoffset:0;stroke-opacity:1"
           id="rect2201" />
        <path
           d="M 41.6785,41.799698 L 41.6785,48.126714 C 44.022298,48.102828 45.930248,46.705313 45.930248,44.974385 C 45.930248,43.243458 44.022299,41.823584 41.6785,41.799698 z"
           style="opacity:0.3;fill:url(#radialGradient2217);fill-opacity:1;fill-rule:evenodd;stroke:none;stroke-width:1.02400005;stroke-linecap:butt;stroke-linejoin:miter;stroke-miterlimit:4;stroke-dasharray:none;stroke-dashoffset:0;stroke-opacity:1"
           id="path2203" />
        <path
           d="M 9.3217476,41.799698 L 9.3217476,48.126714 C 6.9779494,48.102828 5.07,46.705313 5.07,44.974385 C 5.07,43.243458 6.9779484,41.823584 9.3217476,41.799698 z"
           style="opacity:0.3;fill:url(#radialGradient2219);fill-opacity:1;fill-rule:evenodd;stroke:none;stroke-width:1.02400005;stroke-linecap:butt;stroke-linejoin:miter;stroke-miterlimit:4;stroke-dasharray:none;stroke-dashoffset:0;stroke-opacity:1"
           id="path2205" />
      </g>
      <rect
         width="44.351135"
         height="39.058353"
         rx="1.331708"
         ry="1.3074017"
         x="1.9720987"
         y="1.8353919"
         style="fill:#cdcfca;fill-opacity:1;fill-rule:evenodd;stroke:#454743;stroke-width:1.28767025;stroke-linecap:butt;stroke-linejoin:miter;stroke-miterlimit:4;stroke-dasharray:none;stroke-dashoffset:0;stroke-opacity:1"
         id="rect2207" />
      <rect
         width="41.429691"
         height="36.1875"
         ry="0"
         x="3.453125"
         y="3.25"
         style="fill:url(#linearGradient2221);fill-opacity:1;fill-rule:evenodd;stroke:none;stroke-width:1.29999995;stroke-linecap:butt;stroke-linejoin:round;stroke-miterlimit:4;stroke-dasharray:none;stroke-dashoffset:0;stroke-opacity:1"
         id="rect2209" />
      <path
         d="M 2.4629728,2.9331736 L 2.4684971,39.827448 C 2.5031756,40.250699 2.7358775,40.386815 3.0643477,40.384068 L 45.235962,40.384068 C 45.599063,40.380709 45.811046,40.213639 45.820764,39.827448 L 45.81524,2.9055523 C 45.881393,2.5546223 45.530236,2.3245592 45.263583,2.337884 L 3.1195904,2.3268355 C 2.7793888,2.297454 2.464886,2.4918929 2.4629728,2.9331736 z M 3.4574659,3.2622831 L 44.889719,3.2466581 L 44.881906,39.442703 L 3.4574659,39.434891 L 3.4574659,3.2622831 z"
         style="fill:#ffffff;fill-opacity:1;fill-rule:evenodd;stroke:none;stroke-width:1;stroke-linecap:butt;stroke-linejoin:miter;stroke-miterlimit:4;stroke-dashoffset:0;stroke-opacity:1"
         id="path2211" />
      <path
         d="M 3.4851207,6.8763289 L 3.4851207,7.8920817 C 3.4994378,9.9103999 3.9904675,11.517439 4.5886332,11.50365 L 43.780045,11.50365 C 44.378212,11.517439 44.86924,9.9103999 44.883558,7.8920817 L 44.883558,6.8763289 C 44.86924,4.8580109 44.378212,3.2509719 43.780045,3.2647608 L 4.5886332,3.2647608 C 3.5319511,4.0442893 3.5672277,5.6098563 3.4851207,6.8763289 z"
         style="fill:url(#linearGradient2223);fill-opacity:1;fill-rule:evenodd;stroke:none;stroke-width:2.04888678;stroke-linecap:round;stroke-linejoin:round;stroke-miterlimit:4;stroke-dasharray:none;stroke-dashoffset:0;stroke-opacity:1"
         id="path2213" />
    </g>
    <g
       id="g9175"
       transform="matrix(0.8908201,0,0,0.9763145,0.5089994,1.2181945)">
      <g
         transform="translate(-0.8838835,-12.551146)"
         id="g8120">
        <path
           style="opacity:0.3;fill:url(#linearGradient9195);fill-opacity:1;fill-rule:evenodd;stroke:none;stroke-width:1.02400005;stroke-linecap:butt;stroke-linejoin:miter;stroke-miterlimit:4;stroke-dashoffset:0;stroke-opacity:1"
           d="M 5.6312437,56.033444 L 43.248702,56.033444 L 43.248702,60.355976 L 5.6312437,60.355976 L 5.6312437,56.033444 z"
           id="rect46899"
           sodipodi:nodetypes="ccccc" />
        <path
           style="opacity:0.3;fill:url(#radialGradient9197);fill-opacity:1;fill-rule:evenodd;stroke:none;stroke-width:1.02400005;stroke-linecap:butt;stroke-linejoin:miter;stroke-miterlimit:4;stroke-dashoffset:0;stroke-opacity:1"
           d="M 43.248558,56.028475 L 43.248558,60.347984 C 45.973393,60.315455 48.191524,58.412263 48.191524,56.055016 C 48.191524,56.01027 48.012458,56.029754 43.248558,56.028475 z"
           id="path48849"
           sodipodi:nodetypes="ccsc" />
        <path
           style="opacity:0.3;fill:url(#radialGradient9199);fill-opacity:1;fill-rule:evenodd;stroke:none;stroke-width:1.02400005;stroke-linecap:butt;stroke-linejoin:miter;stroke-miterlimit:4;stroke-dashoffset:0;stroke-opacity:1"
           d="M 5.6314774,56.028475 L 5.6314774,60.347984 C 2.9066414,60.315455 0.6885113,58.412263 0.6885113,56.055016 C 0.6885113,56.018083 1.1332027,56.037567 5.6314774,56.028475 z"
           id="path52742"
           sodipodi:nodetypes="ccsc" />
      </g>
      <rect
         id="rect2168"
         style="fill:none;fill-opacity:1;fill-rule:evenodd;stroke:#454743;stroke-width:1.0722847;stroke-linecap:butt;stroke-linejoin:miter;stroke-miterlimit:4;stroke-dasharray:none;stroke-dashoffset:0;stroke-opacity:1"
         y="4.4238234"
         x="1.362819"
         ry="1.041754"
         rx="1.1589473"
         height="39.058353"
         width="44.351135" />
      <rect
         id="rect8969"
         style="opacity:0.77750609;fill:url(#linearGradient9201);fill-opacity:1;fill-rule:evenodd;stroke:none;stroke-width:1.29999995;stroke-linecap:butt;stroke-linejoin:round;stroke-miterlimit:4;stroke-dasharray:none;stroke-dashoffset:0;stroke-opacity:1"
         y="5.8384318"
         x="2.8438451"
         ry="0"
         height="36.1875"
         width="41.429691" />
      <path
         id="path44937"
         style="fill:#ffffff;fill-opacity:1;fill-rule:evenodd;stroke:none;stroke-width:1;stroke-linecap:butt;stroke-linejoin:miter;stroke-miterlimit:4;stroke-dashoffset:0;stroke-opacity:1"
         d="M 1.853693,5.5216052 L 1.8592173,42.41588 C 1.8938958,42.839131 2.1265977,42.975247 2.4550679,42.9725 L 44.626682,42.9725 C 44.989783,42.969141 45.201766,42.802071 45.211484,42.41588 L 45.20596,5.4939839 C 45.272113,5.1430539 44.920956,4.9129908 44.654303,4.9263156 L 2.5103106,4.9152671 C 2.170109,4.8858856 1.8556062,5.0803245 1.853693,5.5216052 z M 2.8481861,5.8507147 L 44.280439,5.8350897 L 44.272626,42.031135 L 2.8481861,42.023323 L 2.8481861,5.8507147 z" />
      <path
         id="rect9993"
         style="opacity:1;fill:url(#linearGradient9203);fill-opacity:1;fill-rule:evenodd;stroke:none;stroke-width:2.04888678;stroke-linecap:round;stroke-linejoin:round;stroke-miterlimit:4;stroke-dasharray:none;stroke-dashoffset:0;stroke-opacity:1"
         d="M 2.8758409,9.4647605 L 2.8758409,10.480513 C 2.890158,12.498831 3.3811877,14.105871 3.9793534,14.092082 L 43.170765,14.092082 C 43.768932,14.105871 44.25996,12.498831 44.274278,10.480513 L 44.274278,9.4647605 C 44.25996,7.4464425 43.768932,5.8394035 43.170765,5.8531924 L 3.9793534,5.8531924 C 2.9226713,6.6327209 2.9579479,8.1982879 2.8758409,9.4647605 z" />
    </g>
    <g
       id="g9232"
       transform="translate(-2.1830583,-3.642767)">
      <path
         transform="matrix(-0.7423902,0,0,0.216734,37.214998,41.202371)"
         d="M 20,5.9999995 A 9.5,5.75 0 1 1 1,5.9999995 A 9.5,5.75 0 1 1 20,5.9999995 z"
         sodipodi:ry="5.75"
         sodipodi:rx="9.5"
         sodipodi:cy="5.9999995"
         sodipodi:cx="10.5"
         id="path29772"
         style="opacity:0.25899999;fill:url(#radialGradient9242);fill-opacity:1;fill-rule:evenodd;stroke:none;stroke-width:0.5;stroke-linecap:round;stroke-linejoin:round;stroke-miterlimit:4;stroke-dasharray:none;stroke-dashoffset:0;stroke-opacity:1"
         sodipodi:type="arc" />
      <g
         transform="matrix(-0.5435278,0.2023651,0.2023651,0.5435278,30.086654,13.510718)"
         id="g4182">
        <path
           style="fill:url(#radialGradient9244);fill-opacity:1;fill-rule:evenodd;stroke:#555753;stroke-width:1;stroke-linecap:butt;stroke-linejoin:miter;stroke-miterlimit:4;stroke-dasharray:none;stroke-dashoffset:0;stroke-opacity:1"
           d="M 9.9531058,23.254604 C 9.7206518,23.254604 9.5454497,23.437574 9.5454497,23.662259 L 9.5454497,26.971465 C 9.0151829,27.118301 8.5118161,27.344051 8.0347259,27.594938 L 5.8046096,25.48472 C 5.6416093,25.330077 5.389087,25.340064 5.2290957,25.5087 L 2.92704,27.906675 C 2.7670499,28.07531 2.7880202,28.351526 2.9510198,28.506169 L 5.0132777,30.448528 C 4.6803352,31.007382 4.4057729,31.607962 4.2219458,32.247009 L 1.0326399,32.247009 C 0.80795467,32.247009 0.62498371,32.422211 0.62498371,32.654665 L 0.62498371,36.01183 C 0.62498371,36.244284 0.8079553,36.419485 1.0326399,36.419485 L 4.1979661,36.419485 C 4.3644902,37.00841 4.6219574,37.55188 4.9173586,38.074088 L 2.6392827,40.448083 C 2.477727,40.61522 2.4777327,40.867441 2.6392827,41.023597 L 5.0132777,43.325653 C 5.1748283,43.481809 5.4272365,43.46881 5.5887916,43.301673 L 7.8428877,40.999617 C 8.3980153,41.311246 8.9884295,41.575451 9.617389,41.742989 L 9.617389,44.956276 C 9.617389,45.180961 9.7925905,45.363931 10.025045,45.363931 L 13.38221,45.363931 C 13.614664,45.363931 13.789865,45.180961 13.789865,44.956276 L 13.789865,41.69503 C 14.34322,41.528903 14.856633,41.279003 15.348549,40.999617 L 17.554686,43.181774 C 17.71427,43.339939 17.990545,43.346877 18.154179,43.181774 L 20.504194,40.807779 C 20.667828,40.642677 20.663779,40.390431 20.504194,40.232265 L 18.298058,38.026129 C 18.564189,37.537694 18.789072,37.013291 18.94551,36.467445 L 22.086858,36.467445 C 22.311543,36.467445 22.494513,36.292243 22.494513,36.059789 L 22.494513,32.702625 C 22.494513,32.470171 22.311542,32.294969 22.086858,32.294969 L 18.96949,32.294969 C 18.794096,31.666751 18.545533,31.073982 18.226119,30.520468 L 20.600114,28.362291 C 20.772242,28.206065 20.799076,27.953154 20.648073,27.786776 L 18.417956,25.316863 C 18.266952,25.150485 18.014572,25.160637 17.842442,25.316863 L 15.372529,27.546979 C 15.342737,27.574018 15.32102,27.610679 15.300589,27.642898 C 14.805137,27.366611 14.273258,27.132089 13.717926,26.971465 L 13.717926,23.662259 C 13.717926,23.437574 13.542726,23.254604 13.31027,23.254604 L 9.9531058,23.254604 z M 11.583728,31.407718 C 13.457898,31.407718 14.701096,32.777633 14.701096,34.357227 C 14.701094,35.936822 13.4579,37.306736 11.583728,37.306736 C 9.7095566,37.306736 8.4663612,35.936822 8.4663612,34.357227 C 8.4663599,32.777635 9.7095572,31.407718 11.583728,31.407718 z"
           id="path2591" />
        <path
           sodipodi:type="inkscape:offset"
           inkscape:radius="-0.50905591"
           inkscape:original="M 60.375 3.125 L 60.375 7.15625 C 60.371912 7.5194123 60.130326 7.8372886 59.78125 7.9375 C 59.169905 8.1067881 58.559537 8.3768222 57.96875 8.6875 C 57.661279 8.8483892 57.285825 8.7983287 57.03125 8.5625 L 54.34375 6 L 51.71875 8.75 L 54.21875 11.09375 C 54.494859 11.351352 54.559366 11.764199 54.375 12.09375 C 53.971871 12.770414 53.623576 13.494497 53.40625 14.25 C 53.306039 14.599076 52.988162 14.840662 52.625 14.84375 L 48.75 14.84375 L 48.75 18.65625 L 52.59375 18.65625 C 52.956912 18.659338 53.274789 18.900924 53.375 19.25 C 53.567737 19.931631 53.884546 20.572703 54.25 21.21875 C 54.426168 21.533968 54.375412 21.927325 54.125 22.1875 L 51.34375 25.09375 L 54 27.6875 L 56.75 24.875 C 57.007602 24.598891 57.420449 24.534384 57.75 24.71875 C 58.429534 25.100218 59.139208 25.429005 59.875 25.625 C 60.224076 25.725211 60.465662 26.043088 60.46875 26.40625 L 60.46875 30.3125 L 64.28125 30.3125 L 64.28125 26.34375 C 64.280089 25.989098 64.507041 25.673886 64.84375 25.5625 C 65.481753 25.370962 66.108157 25.06554 66.71875 24.71875 C 67.033968 24.542582 67.427325 24.593338 67.6875 24.84375 L 70.375 27.5 L 73.0625 24.84375 L 70.375 22.15625 C 70.109267 21.890864 70.057769 21.478881 70.25 21.15625 C 70.571694 20.565843 70.8464 19.957479 71.03125 19.3125 C 71.131461 18.963424 71.449338 18.721838 71.8125 18.71875 L 75.625 18.71875 L 75.625 14.90625 L 71.84375 14.90625 C 71.480588 14.903162 71.162711 14.661576 71.0625 14.3125 C 70.851959 13.5584 70.53788 12.848827 70.15625 12.1875 C 69.971884 11.857949 70.036391 11.445102 70.3125 11.1875 L 73.21875 8.53125 L 70.71875 5.78125 L 67.71875 8.5 C 67.479528 8.8411617 67.022497 8.9486984 66.65625 8.75 C 66.056217 8.415393 65.434546 8.1264586 64.78125 7.9375 C 64.432174 7.8372886 64.190588 7.5194123 64.1875 7.15625 L 64.1875 3.125 L 60.375 3.125 z M 62.21875 12.125 C 65.060709 12.125 67.09375 14.292516 67.09375 16.78125 C 67.093749 19.269985 65.06071 21.437499 62.21875 21.4375 C 59.376789 21.437501 57.34375 19.269985 57.34375 16.78125 C 57.343748 14.292517 59.376789 12.125 62.21875 12.125 z "
           style="fill:none;fill-opacity:1;fill-rule:evenodd;stroke:#dddddd;stroke-width:1.30318308;stroke-linecap:butt;stroke-linejoin:miter;stroke-miterlimit:4;stroke-dasharray:none;stroke-dashoffset:0;stroke-opacity:1"
           id="path4180"
           d="M 60.875,3.625 L 60.875,7.15625 C 60.870014,7.7426213 60.469877,8.2756961 59.90625,8.4375 C 59.345099,8.5928889 58.789248,8.8249915 58.21875,9.125 C 57.722013,9.3849255 57.09878,9.3184948 56.6875,8.9375 L 54.375,6.71875 L 52.4375,8.71875 L 54.5625,10.71875 C 55.008058,11.134444 55.110012,11.811952 54.8125,12.34375 C 54.425111,12.993993 54.107519,13.706568 53.90625,14.40625 C 53.744446,14.969878 53.211371,15.338764 52.625,15.34375 L 49.25,15.34375 L 49.25,18.15625 L 52.59375,18.15625 C 53.180121,18.161236 53.713196,18.561372 53.875,19.125 C 54.050735,19.746502 54.331026,20.338578 54.6875,20.96875 C 54.971967,21.477749 54.904353,22.111132 54.5,22.53125 L 52.0625,25.09375 L 54,26.96875 L 56.375,24.53125 C 56.790694,24.085692 57.468202,23.983738 58,24.28125 C 58.656487,24.64978 59.322366,24.944497 60,25.125 C 60.563628,25.286804 60.963764,25.819879 60.96875,26.40625 L 60.96875,29.8125 L 63.78125,29.8125 L 63.78125,26.34375 C 63.779375,25.770941 64.143671,25.273653 64.6875,25.09375 C 64.68718,25.083336 64.68718,25.072914 64.6875,25.0625 C 65.270653,24.887429 65.876555,24.617591 66.46875,24.28125 C 66.977749,23.996783 67.611132,24.064397 68.03125,24.46875 L 70.375,26.78125 L 72.3125,24.84375 L 70,22.53125 C 69.571149,22.102959 69.502269,21.426926 69.8125,20.90625 C 70.122155,20.337939 70.359843,19.785574 70.53125,19.1875 C 70.693054,18.623872 71.226129,18.223736 71.8125,18.21875 L 75.125,18.21875 L 75.125,15.40625 L 71.84375,15.40625 C 71.257379,15.401264 70.724304,15.001128 70.5625,14.4375 C 70.364979,13.730033 70.082025,13.06702 69.71875,12.4375 C 69.421238,11.905702 69.523192,11.228194 69.96875,10.8125 L 72.5,8.5 L 70.6875,6.5 L 68.0625,8.875 L 68.03125,8.84375 C 67.630093,9.3181862 66.961014,9.4884739 66.40625,9.1875 C 65.827973,8.8650252 65.228045,8.6119242 64.625,8.4375 C 64.061373,8.2756961 63.692486,7.7426213 63.6875,7.15625 L 63.6875,3.625 L 60.875,3.625 z M 62.21875,11.625 C 65.319541,11.625 67.59375,14.015285 67.59375,16.78125 C 67.593749,19.547216 65.319542,21.937499 62.21875,21.9375 C 59.117957,21.937501 56.84375,19.547216 56.84375,16.78125 C 56.843748,14.015286 59.117957,11.625 62.21875,11.625 z"
           transform="matrix(0.7673519,0,0,0.7673519,-36.157612,21.484338)" />
      </g>
      <g
         transform="matrix(0.937153,-0.3489188,0.3489188,0.937153,-9.6464787,11.347983)"
         id="g9222">
        <path
           style="fill:url(#radialGradient9246);fill-opacity:1;fill-rule:evenodd;stroke:#555753;stroke-width:0.57997769;stroke-linecap:butt;stroke-linejoin:miter;stroke-miterlimit:4;stroke-dasharray:none;stroke-dashoffset:0;stroke-opacity:1"
           d="M 21.394558,17.816149 C 21.578207,17.859096 21.682821,18.03602 21.641309,18.213532 L 21.029921,20.827958 C 21.421727,21.041934 21.777703,21.313286 22.108274,21.599643 L 24.26004,20.344495 C 24.417388,20.252435 24.615047,20.306979 24.710292,20.469769 L 26.085988,22.789594 C 26.181231,22.952382 26.113632,23.166731 25.956284,23.258791 L 23.968146,24.412335 C 24.127936,24.915369 24.233893,25.440581 24.261059,25.979421 L 26.780758,26.568656 C 26.958271,26.610168 27.070457,26.78239 27.02751,26.96604 L 26.407261,29.618356 C 26.364314,29.802005 26.187389,29.906618 26.009878,29.865106 L 23.509123,29.2803 C 23.268755,29.714813 22.964936,30.09661 22.635076,30.454603 L 23.996257,32.751052 C 24.093014,32.912946 24.046411,33.112211 23.889928,33.205735 L 21.589049,34.585861 C 21.432565,34.679384 21.235553,34.622481 21.138796,34.460588 L 19.78327,32.225403 C 19.287118,32.369044 18.77185,32.468696 18.24399,32.484856 L 17.650323,35.023502 C 17.608812,35.201013 17.43659,35.3132 17.25294,35.270253 L 14.600624,34.650004 C 14.416975,34.607057 14.312362,34.430133 14.353873,34.252621 L 14.956401,31.676085 C 14.549917,31.442603 14.190467,31.150316 13.853449,30.838704 L 11.707336,32.155118 C 11.552036,32.250591 11.332483,32.20503 11.233709,32.044359 L 9.8156922,29.734618 C 9.7169173,29.573948 9.7667194,29.37541 9.9220206,29.279936 L 12.072563,27.944578 C 11.952547,27.509523 11.871764,27.053672 11.849018,26.593526 L 9.3672082,26.01315 C 9.1896967,25.971638 9.0775105,25.799417 9.1204572,25.615768 L 9.7407063,22.963452 C 9.783653,22.779802 9.9605775,22.675189 10.138089,22.7167 L 12.600954,23.292646 C 12.855589,22.828729 13.161481,22.406337 13.516098,22.028048 L 12.039263,19.884384 C 11.932136,19.729157 11.957663,19.524387 12.107701,19.42084 L 14.325923,17.881516 C 14.475962,17.777969 14.673478,17.832618 14.780606,17.987844 L 16.319929,20.206066 C 16.338471,20.232932 16.348854,20.265908 16.359043,20.295137 C 16.801519,20.168394 17.265057,20.081378 17.733471,20.057077 L 18.344859,17.442651 C 18.386371,17.26514 18.558592,17.152954 18.742242,17.195901 L 21.394558,17.816149 z M 18.599971,23.956225 C 17.11929,23.609965 15.884009,24.462575 15.592173,25.710528 C 15.300338,26.958481 16.029422,28.270461 17.510105,28.616722 C 18.990788,28.962982 20.226067,28.110372 20.517903,26.862419 C 20.80974,25.614468 20.080654,24.302485 18.599971,23.956225 z"
           id="path2212" />
        <path
           sodipodi:type="inkscape:offset"
           inkscape:radius="-0.1160666"
           inkscape:original="M 60.375 3.125 L 60.375 7.15625 C 60.371912 7.5194123 60.130326 7.8372886 59.78125 7.9375 C 59.169905 8.1067881 58.559537 8.3768222 57.96875 8.6875 C 57.661279 8.8483892 57.285825 8.7983287 57.03125 8.5625 L 54.34375 6 L 51.71875 8.75 L 54.21875 11.09375 C 54.494859 11.351352 54.559366 11.764199 54.375 12.09375 C 53.971871 12.770414 53.623576 13.494497 53.40625 14.25 C 53.306039 14.599076 52.988162 14.840662 52.625 14.84375 L 48.75 14.84375 L 48.75 18.65625 L 52.59375 18.65625 C 52.956912 18.659338 53.274789 18.900924 53.375 19.25 C 53.567737 19.931631 53.884546 20.572703 54.25 21.21875 C 54.426168 21.533968 54.375412 21.927325 54.125 22.1875 L 51.34375 25.09375 L 54 27.6875 L 56.75 24.875 C 57.007602 24.598891 57.420449 24.534384 57.75 24.71875 C 58.429534 25.100218 59.139208 25.429005 59.875 25.625 C 60.224076 25.725211 60.465662 26.043088 60.46875 26.40625 L 60.46875 30.3125 L 64.28125 30.3125 L 64.28125 26.34375 C 64.280089 25.989098 64.507041 25.673886 64.84375 25.5625 C 65.481753 25.370962 66.108157 25.06554 66.71875 24.71875 C 67.033968 24.542582 67.427325 24.593338 67.6875 24.84375 L 70.375 27.5 L 73.0625 24.84375 L 70.375 22.15625 C 70.109267 21.890864 70.057769 21.478881 70.25 21.15625 C 70.571694 20.565843 70.8464 19.957479 71.03125 19.3125 C 71.131461 18.963424 71.449338 18.721838 71.8125 18.71875 L 75.625 18.71875 L 75.625 14.90625 L 71.84375 14.90625 C 71.480588 14.903162 71.162711 14.661576 71.0625 14.3125 C 70.851959 13.5584 70.53788 12.848827 70.15625 12.1875 C 69.971884 11.857949 70.036391 11.445102 70.3125 11.1875 L 73.21875 8.53125 L 70.71875 5.78125 L 67.71875 8.5 C 67.479528 8.8411617 67.022497 8.9486984 66.65625 8.75 C 66.056217 8.415393 65.434546 8.1264586 64.78125 7.9375 C 64.432174 7.8372886 64.190588 7.5194123 64.1875 7.15625 L 64.1875 3.125 L 60.375 3.125 z M 62.21875 12.125 C 65.060709 12.125 67.09375 14.292516 67.09375 16.78125 C 67.093749 19.269985 65.06071 21.437499 62.21875 21.4375 C 59.376789 21.437501 57.34375 19.269985 57.34375 16.78125 C 57.343748 14.292517 59.376789 12.125 62.21875 12.125 z "
           style="fill:none;fill-opacity:1;fill-rule:evenodd;stroke:#dddddd;stroke-width:0.93154186;stroke-linecap:butt;stroke-linejoin:miter;stroke-miterlimit:4;stroke-dasharray:none;stroke-dashoffset:0;stroke-opacity:1"
           id="path3195"
           d="M 60.5,3.25 L 60.5,7.15625 C 60.496479,7.5703048 60.210494,7.9482453 59.8125,8.0625 C 59.212599,8.228619 58.617411,8.4730048 58.03125,8.78125 C 57.680626,8.9647198 57.227804,8.9251771 56.9375,8.65625 L 54.34375,6.1875 L 51.90625,8.75 L 54.3125,11 C 54.627244,11.293647 54.678914,11.780586 54.46875,12.15625 C 54.06921,12.82689 53.744915,13.538474 53.53125,14.28125 C 53.416996,14.679245 53.039055,14.965229 52.625,14.96875 L 48.875,14.96875 L 48.875,18.53125 L 52.59375,18.53125 C 53.007805,18.534771 53.385746,18.820755 53.5,19.21875 C 53.68886,19.886671 53.980343,20.513823 54.34375,21.15625 C 54.544611,21.515651 54.504261,21.984607 54.21875,22.28125 L 51.53125,25.09375 L 54,27.5 L 56.65625,24.78125 C 56.949897,24.466506 57.436836,24.414836 57.8125,24.625 C 58.486779,25.003518 59.183718,25.307537 59.90625,25.5 C 60.304245,25.614254 60.590229,25.992195 60.59375,26.40625 L 60.59375,30.1875 L 64.15625,30.1875 L 64.15625,26.34375 C 64.154926,25.939357 64.428567,25.564508 64.8125,25.4375 C 65.437997,25.249716 66.049852,24.969408 66.65625,24.625 C 67.015651,24.424139 67.484607,24.464489 67.78125,24.75 L 70.375,27.3125 L 72.875,24.84375 L 70.28125,22.25 C 69.978325,21.947471 69.937115,21.461536 70.15625,21.09375 C 70.475199,20.508381 70.724465,19.915534 70.90625,19.28125 C 71.020504,18.883255 71.398445,18.597271 71.8125,18.59375 L 75.5,18.59375 L 75.5,15.03125 L 71.84375,15.03125 C 71.429695,15.027729 71.051754,14.741745 70.9375,14.34375 C 70.729928,13.600282 70.439945,12.904075 70.0625,12.25 C 69.852336,11.874336 69.904006,11.387397 70.21875,11.09375 L 73.0625,8.5 L 70.71875,5.9375 L 67.8125,8.5625 L 67.78125,8.59375 C 67.502398,8.9541153 66.997961,9.0630449 66.59375,8.84375 C 65.998677,8.5119092 65.391839,8.2481447 64.75,8.0625 C 64.352006,7.9482453 64.066021,7.5703048 64.0625,7.15625 L 64.0625,3.25 L 60.5,3.25 z M 62.21875,12 C 65.119724,12 67.21875,14.229306 67.21875,16.78125 C 67.218749,19.333195 65.119725,21.562499 62.21875,21.5625 C 59.317774,21.562501 57.21875,19.333195 57.21875,16.78125 C 57.218748,14.229307 59.317774,12 62.21875,12 z"
           transform="matrix(-0.6062436,-0.1417712,-0.1417712,0.6062436,58.151227,24.936687)" />
      </g>
      <path
         transform="matrix(-1.0056696,0,0,0.216734,28.445399,40.979032)"
         d="M 20,5.9999995 A 9.5,5.75 0 1 1 1,5.9999995 A 9.5,5.75 0 1 1 20,5.9999995 z"
         sodipodi:ry="5.75"
         sodipodi:rx="9.5"
         sodipodi:cy="5.9999995"
         sodipodi:cx="10.5"
         id="path4186"
         style="opacity:0.25899999;fill:url(#radialGradient9248);fill-opacity:1;fill-rule:evenodd;stroke:none;stroke-width:0.5;stroke-linecap:round;stroke-linejoin:round;stroke-miterlimit:4;stroke-dasharray:none;stroke-dashoffset:0;stroke-opacity:1"
         sodipodi:type="arc" />
    </g>
  </g>
</svg>
