<?xml version="1.0" encoding="UTF-8" standalone="no"?>
<!-- Created with Inkscape (http://www.inkscape.org/) -->
<svg
   xmlns:dc="http://purl.org/dc/elements/1.1/"
   xmlns:cc="http://web.resource.org/cc/"
   xmlns:rdf="http://www.w3.org/1999/02/22-rdf-syntax-ns#"
   xmlns:svg="http://www.w3.org/2000/svg"
   xmlns="http://www.w3.org/2000/svg"
   xmlns:xlink="http://www.w3.org/1999/xlink"
   xmlns:sodipodi="http://sodipodi.sourceforge.net/DTD/sodipodi-0.dtd"
   xmlns:inkscape="http://www.inkscape.org/namespaces/inkscape"
   inkscape:export-ydpi="90.000000"
   inkscape:export-xdpi="90.000000"
   inkscape:export-filename="/home/patrick/Desktop/desktop.png"
   width="48px"
   height="48px"
   id="svg11300"
   sodipodi:version="0.32"
   inkscape:version="0.45+devel"
   sodipodi:docbase="/home/patrick/Projects/Beryl/svn/beryl/trunk/beryl-settings/images"
   sodipodi:docname="plugin-extrawm.svg"
   inkscape:output_extension="org.inkscape.output.svg.inkscape">
  <defs
     id="defs3">
    <linearGradient
       id="linearGradient47870">
      <stop
         id="stop47872"
         offset="0"
         style="stop-color:#000000;stop-opacity:0" />
      <stop
         id="stop47878"
         offset="0.5"
         style="stop-color:#000000;stop-opacity:1" />
      <stop
         id="stop47874"
         offset="1"
         style="stop-color:#000000;stop-opacity:0" />
    </linearGradient>
    <linearGradient
       id="linearGradient51765">
      <stop
         id="stop51767"
         offset="0"
         style="stop-color:#000000;stop-opacity:1" />
      <stop
         id="stop51769"
         offset="1"
         style="stop-color:#000000;stop-opacity:0" />
    </linearGradient>
    <radialGradient
       gradientTransform="matrix(-1.9576392,-9.2540676e-8,-1.2888861e-7,1.4565793,110.01781,62.73803)"
       gradientUnits="userSpaceOnUse"
       xlink:href="#linearGradient51765"
       id="radialGradient54733"
       fy="-12.203125"
       fx="51.4375"
       r="2.171875"
       cy="-12.203125"
       cx="51.4375" />
    <radialGradient
       gradientTransform="matrix(1.9576392,-8.146468e-7,6.6614241e-7,1.4565793,-59.017557,62.738067)"
       gradientUnits="userSpaceOnUse"
       xlink:href="#linearGradient51765"
       id="radialGradient54731"
       fy="-12.203125"
       fx="51.4375"
       r="2.171875"
       cy="-12.203125"
       cx="51.4375" />
    <linearGradient
       gradientTransform="matrix(0.9788196,0,0,0.7154223,-8.5008021,52.112719)"
       gradientUnits="userSpaceOnUse"
       xlink:href="#linearGradient47870"
       id="linearGradient54729"
       y2="-5.5633383"
       x2="32.084972"
       y1="-14.402173"
       x1="32.084972" />
    <linearGradient
       id="linearGradient13816">
      <stop
         id="stop13818"
         offset="0"
         style="stop-color:#f7f7f6;stop-opacity:1" />
      <stop
         id="stop13820"
         offset="1"
         style="stop-color:#eff0ee;stop-opacity:0" />
    </linearGradient>
    <linearGradient
       id="linearGradient12914">
      <stop
         id="stop12916"
         offset="0"
         style="stop-color:#3465a4;stop-opacity:1" />
      <stop
         id="stop12918"
         offset="1"
         style="stop-color:#3465a4;stop-opacity:0" />
    </linearGradient>
    <linearGradient
       inkscape:collect="always"
       xlink:href="#linearGradient12914"
       id="linearGradient2305"
       gradientUnits="userSpaceOnUse"
       gradientTransform="matrix(0.8873106,0,0,0.8684217,-62.413895,2.509679)"
       x1="12.838772"
       y1="1.4315225"
       x2="22.452898"
       y2="28.529707" />
    <linearGradient
       inkscape:collect="always"
       xlink:href="#linearGradient13816"
       id="linearGradient2309"
       gradientUnits="userSpaceOnUse"
       gradientTransform="matrix(0.976579,0,0,1.473387,-63.471442,-18.619887)"
       x1="28.280043"
       y1="15.029495"
       x2="38.880146"
       y2="39.040752" />
    <linearGradient
       inkscape:collect="always"
       xlink:href="#linearGradient47870"
       id="linearGradient4302"
       gradientUnits="userSpaceOnUse"
       gradientTransform="matrix(0.9788196,0,0,0.7154223,-8.5008021,52.112719)"
       x1="32.084972"
       y1="-14.402173"
       x2="32.084972"
       y2="-5.5633383" />
    <radialGradient
       inkscape:collect="always"
       xlink:href="#linearGradient51765"
       id="radialGradient4304"
       gradientUnits="userSpaceOnUse"
       gradientTransform="matrix(1.9576392,-8.146468e-7,6.6614241e-7,1.4565793,-59.017557,62.738067)"
       cx="51.4375"
       cy="-12.203125"
       fx="51.4375"
       fy="-12.203125"
       r="2.171875" />
    <radialGradient
       inkscape:collect="always"
       xlink:href="#linearGradient51765"
       id="radialGradient4306"
       gradientUnits="userSpaceOnUse"
       gradientTransform="matrix(-1.9576392,-9.2540676e-8,-1.2888861e-7,1.4565793,110.01781,62.73803)"
       cx="51.4375"
       cy="-12.203125"
       fx="51.4375"
       fy="-12.203125"
       r="2.171875" />
    <linearGradient
       inkscape:collect="always"
       xlink:href="#linearGradient13816"
       id="linearGradient4308"
       gradientUnits="userSpaceOnUse"
       gradientTransform="matrix(0.8427276,0,0,1.1382752,7.6311146,-53.736222)"
       x1="28.280043"
       y1="15.029495"
       x2="38.880146"
       y2="39.040752" />
    <linearGradient
       inkscape:collect="always"
       xlink:href="#linearGradient12914"
       id="linearGradient4310"
       gradientUnits="userSpaceOnUse"
       gradientTransform="matrix(0.7609047,0,0,0.6709052,8.7029492,-37.111501)"
       x1="12.838772"
       y1="1.4315225"
       x2="22.452898"
       y2="28.529707" />
    <linearGradient
       id="linearGradient4168">
      <stop
         id="stop4170"
         offset="0"
         style="stop-color:#eef0ec;stop-opacity:1;" />
      <stop
         id="stop4172"
         offset="1"
         style="stop-color:#d3d7cf;stop-opacity:1;" />
    </linearGradient>
    <linearGradient
       id="linearGradient8078">
      <stop
         id="stop8080"
         offset="0"
         style="stop-color:#c3c5c2;stop-opacity:1;" />
      <stop
         id="stop8082"
         offset="1"
         style="stop-color:#555753;stop-opacity:1;" />
    </linearGradient>
    <linearGradient
       id="linearGradient15242"
       inkscape:collect="always">
      <stop
         id="stop15244"
         offset="0"
         style="stop-color:#3465a4;stop-opacity:1;" />
      <stop
         id="stop15246"
         offset="1"
         style="stop-color:#3465a4;stop-opacity:0;" />
    </linearGradient>
    <linearGradient
       inkscape:collect="always"
       xlink:href="#linearGradient47870"
       id="linearGradient4041"
       gradientUnits="userSpaceOnUse"
       gradientTransform="matrix(0.9788196,0,0,0.7154223,-8.5008021,52.112719)"
       x1="32.084972"
       y1="-14.402173"
       x2="32.084972"
       y2="-5.5633383" />
    <radialGradient
       inkscape:collect="always"
       xlink:href="#linearGradient51765"
       id="radialGradient4043"
       gradientUnits="userSpaceOnUse"
       gradientTransform="matrix(1.9576392,-8.146468e-7,6.6614241e-7,1.4565793,-59.017557,62.738067)"
       cx="51.4375"
       cy="-12.203125"
       fx="51.4375"
       fy="-12.203125"
       r="2.171875" />
    <radialGradient
       inkscape:collect="always"
       xlink:href="#linearGradient51765"
       id="radialGradient4045"
       gradientUnits="userSpaceOnUse"
       gradientTransform="matrix(-1.9576392,-9.2540676e-8,-1.2888861e-7,1.4565793,110.01781,62.73803)"
       cx="51.4375"
       cy="-12.203125"
       fx="51.4375"
       fy="-12.203125"
       r="2.171875" />
    <linearGradient
       inkscape:collect="always"
       xlink:href="#linearGradient47870"
       id="linearGradient4047"
       gradientUnits="userSpaceOnUse"
       gradientTransform="matrix(0.9788196,0,0,0.7154223,-8.5008021,52.112719)"
       x1="32.084972"
       y1="-14.402173"
       x2="32.084972"
       y2="-5.5633383" />
    <radialGradient
       inkscape:collect="always"
       xlink:href="#linearGradient51765"
       id="radialGradient4049"
       gradientUnits="userSpaceOnUse"
       gradientTransform="matrix(1.9576392,-8.146468e-7,6.6614241e-7,1.4565793,-59.017557,62.738067)"
       cx="51.4375"
       cy="-12.203125"
       fx="51.4375"
       fy="-12.203125"
       r="2.171875" />
    <radialGradient
       inkscape:collect="always"
       xlink:href="#linearGradient51765"
       id="radialGradient4051"
       gradientUnits="userSpaceOnUse"
       gradientTransform="matrix(-1.9576392,-9.2540676e-8,-1.2888861e-7,1.4565793,110.01781,62.73803)"
       cx="51.4375"
       cy="-12.203125"
       fx="51.4375"
       fy="-12.203125"
       r="2.171875" />
    <radialGradient
       inkscape:collect="always"
       xlink:href="#linearGradient8078"
       id="radialGradient4053"
       gradientUnits="userSpaceOnUse"
       gradientTransform="matrix(1.271346e-2,2.4192609,-2.8852163,1.6809701e-2,1.8174656,-5.9826988)"
       cx="2.6878376"
       cy="-0.28982243"
       fx="2.6878376"
       fy="-0.28982243"
       r="14.703465" />
    <radialGradient
       inkscape:collect="always"
       xlink:href="#linearGradient8078"
       id="radialGradient4059"
       gradientUnits="userSpaceOnUse"
       gradientTransform="matrix(1.271346e-2,2.4192609,-2.8852163,1.6809701e-2,1.8174656,-5.9826988)"
       cx="2.6878376"
       cy="-0.28982243"
       fx="2.6878376"
       fy="-0.28982243"
       r="14.703465" />
    <radialGradient
       inkscape:collect="always"
       xlink:href="#linearGradient4168"
       id="radialGradient2312"
       gradientUnits="userSpaceOnUse"
       gradientTransform="matrix(1.3618102,2.3049146e-3,-2.519648e-3,0.9336372,14.319298,19.508257)"
       cx="9.5901356"
       cy="25.283739"
       fx="9.5901356"
       fy="25.283739"
       r="13.183728" />
    <linearGradient
       inkscape:collect="always"
       xlink:href="#linearGradient15242"
       id="linearGradient2316"
       gradientUnits="userSpaceOnUse"
       gradientTransform="matrix(-3.6329205e-3,-0.6863148,0.6960515,-3.5821013e-3,29.163797,50.051204)"
       x1="40.792271"
       y1="3.1201954"
       x2="40.792271"
       y2="35.052448" />
    <radialGradient
       inkscape:collect="always"
       xlink:href="#linearGradient4168"
       id="radialGradient2325"
       gradientUnits="userSpaceOnUse"
       gradientTransform="matrix(0.8669199,1.8692967e-3,-1.6039923e-3,0.7571842,10.46849,7.0316333)"
       cx="9.5901356"
       cy="25.283739"
       fx="9.5901356"
       fy="25.283739"
       r="13.183728" />
  </defs>
  <sodipodi:namedview
     stroke="#ef2929"
     fill="#eeeeec"
     id="base"
     pagecolor="#ffffff"
     bordercolor="#666666"
     borderopacity="0.25490196"
     inkscape:pageopacity="0.0"
     inkscape:pageshadow="2"
     inkscape:zoom="0.99999995"
     inkscape:cx="33.864768"
     inkscape:cy="19.472373"
     inkscape:current-layer="layer1"
     showgrid="false"
     inkscape:grid-bbox="true"
     inkscape:document-units="px"
     inkscape:showpageshadow="false"
     inkscape:window-width="906"
     inkscape:window-height="662"
     inkscape:window-x="374"
     inkscape:window-y="55"
     showguides="true"
     inkscape:guide-bbox="true">
    <inkscape:grid
       type="xygrid"
       id="grid4012" />
  </sodipodi:namedview>
  <metadata
     id="metadata4">
    <rdf:RDF>
      <cc:Work
         rdf:about="">
        <dc:format>image/svg+xml</dc:format>
        <dc:type
           rdf:resource="http://purl.org/dc/dcmitype/StillImage" />
        <dc:creator>
          <cc:Agent>
            <dc:title>Patrick Niklaus</dc:title>
          </cc:Agent>
        </dc:creator>
        <dc:source />
        <cc:license
           rdf:resource="http://creativecommons.org/licenses/GPL/2.0/" />
        <dc:title>Window Management</dc:title>
        <dc:subject>
          <rdf:Bag />
        </dc:subject>
      </cc:Work>
      <cc:License
         rdf:about="http://creativecommons.org/licenses/GPL/2.0/">
        <cc:permits
           rdf:resource="http://web.resource.org/cc/Reproduction" />
        <cc:permits
           rdf:resource="http://web.resource.org/cc/Distribution" />
        <cc:requires
           rdf:resource="http://web.resource.org/cc/Notice" />
        <cc:permits
           rdf:resource="http://web.resource.org/cc/DerivativeWorks" />
        <cc:requires
           rdf:resource="http://web.resource.org/cc/ShareAlike" />
        <cc:requires
           rdf:resource="http://web.resource.org/cc/SourceCode" />
      </cc:License>
    </rdf:RDF>
  </metadata>
  <g
     id="layer1"
     inkscape:label="Layer 1"
     inkscape:groupmode="layer">
    <g
       id="g3293"
       transform="translate(61.250003,1.2500001)">
      <g
         id="g54724"
         transform="matrix(0.9820795,0,0,1.1691945,-65.605649,-13.560272)">
        <rect
           id="rect46899"
           style="opacity:0.3;fill:url(#linearGradient54729);fill-opacity:1;fill-rule:evenodd;stroke:none;stroke-width:1.02400005;stroke-linecap:butt;stroke-linejoin:miter;stroke-miterlimit:4;stroke-dasharray:none;stroke-dashoffset:0;stroke-opacity:1"
           y="41.809082"
           x="9.3215466"
           height="6.3234997"
           width="32.357079" />
        <path
           id="path48849"
           style="opacity:0.3;fill:url(#radialGradient54731);fill-opacity:1;fill-rule:evenodd;stroke:none;stroke-width:1.02400005;stroke-linecap:butt;stroke-linejoin:miter;stroke-miterlimit:4;stroke-dasharray:none;stroke-dashoffset:0;stroke-opacity:1"
           d="M 41.6785,41.799698 L 41.6785,48.126714 C 44.022298,48.102828 45.930248,46.705313 45.930248,44.974385 C 45.930248,43.243458 44.022299,41.823584 41.6785,41.799698 z" />
        <path
           id="path52742"
           style="opacity:0.3;fill:url(#radialGradient54733);fill-opacity:1;fill-rule:evenodd;stroke:none;stroke-width:1.02400005;stroke-linecap:butt;stroke-linejoin:miter;stroke-miterlimit:4;stroke-dasharray:none;stroke-dashoffset:0;stroke-opacity:1"
           d="M 9.3217476,41.799698 L 9.3217476,48.126714 C 6.9779494,48.102828 5.07,46.705313 5.07,44.974385 C 5.07,43.243458 6.9779484,41.823584 9.3217476,41.799698 z" />
      </g>
      <rect
         id="rect2168"
         style="fill:#cdcfca;fill-opacity:1;fill-rule:evenodd;stroke:#454743;stroke-width:1;stroke-linecap:butt;stroke-linejoin:miter;stroke-miterlimit:4;stroke-dasharray:none;stroke-dashoffset:0;stroke-opacity:1"
         y="5.2131934"
         x="-59.476124"
         ry="0.87320364"
         rx="0.87212807"
         height="33.533165"
         width="37.465477" />
      <rect
         id="rect8969"
         style="fill:url(#linearGradient2309);fill-opacity:1;fill-rule:evenodd;stroke:none;stroke-width:1.29999995;stroke-linecap:butt;stroke-linejoin:round;stroke-miterlimit:4;stroke-dasharray:none;stroke-dashoffset:0;stroke-opacity:1"
         y="6.4276915"
         x="-58.225033"
         ry="0"
         height="31.068424"
         width="34.997597" />
      <path
         sodipodi:nodetypes="cccccccccccccc"
         id="path44937"
         style="fill:#ffffff;fill-opacity:1;fill-rule:evenodd;stroke:none;stroke-width:1;stroke-linecap:butt;stroke-linejoin:miter;stroke-miterlimit:4;stroke-dashoffset:0;stroke-opacity:1"
         d="M -58.973071,6.2440716 L -58.979452,37.76461 C -58.950158,38.127988 -58.753584,38.244849 -58.476109,38.242491 L -23.006457,38.231442 C -22.699729,38.228558 -22.520657,38.085121 -22.512448,37.753561 L -22.517114,6.2093091 C -22.461232,5.9080215 -22.75787,5.7105031 -22.983125,5.721943 L -58.418395,5.723506 C -58.705779,5.6982808 -58.971455,5.8652144 -58.973071,6.2440716 z M -58.276607,6.8580818 L -23.630401,6.6678903 L -23.614904,37.102834 L -57.923053,37.096128 L -58.276607,6.8580818 z" />
      <path
         id="rect9993"
         style="fill:url(#linearGradient2305);fill-opacity:1;fill-rule:evenodd;stroke:none;stroke-width:2.04888678;stroke-linecap:round;stroke-linejoin:round;stroke-miterlimit:4;stroke-dasharray:none;stroke-dashoffset:0;stroke-opacity:1"
         d="M -57.949614,9.7178173 L -57.949614,10.589882 C -57.937742,12.32269 -57.530578,13.702397 -57.034575,13.690559 L -24.536826,13.690559 C -24.040823,13.702397 -23.63366,12.32269 -23.621787,10.589882 L -23.621787,9.7178173 C -23.63366,7.9850101 -24.040823,6.6053026 -24.536826,6.6171409 L -57.034575,6.6171409 C -57.910782,7.2863974 -57.88153,8.6304996 -57.949614,9.7178173 z" />
    </g>
    <g
       id="g4292"
       transform="translate(3.2500002,37.000002)">
      <g
         id="g2278"
         transform="matrix(0.8474743,0,0,0.9032692,5.7894255,-49.827382)">
        <rect
           id="rect2280"
           style="opacity:0.3;fill:url(#linearGradient4302);fill-opacity:1;fill-rule:evenodd;stroke:none;stroke-width:1.02400005;stroke-linecap:butt;stroke-linejoin:miter;stroke-miterlimit:4;stroke-dasharray:none;stroke-dashoffset:0;stroke-opacity:1"
           y="41.809082"
           x="9.3215466"
           height="6.3234997"
           width="32.357079" />
        <path
           id="path2282"
           style="opacity:0.3;fill:url(#radialGradient4304);fill-opacity:1;fill-rule:evenodd;stroke:none;stroke-width:1.02400005;stroke-linecap:butt;stroke-linejoin:miter;stroke-miterlimit:4;stroke-dasharray:none;stroke-dashoffset:0;stroke-opacity:1"
           d="M 41.6785,41.799698 L 41.6785,48.126714 C 44.022298,48.102828 45.930248,46.705313 45.930248,44.974385 C 45.930248,43.243458 44.022299,41.823584 41.6785,41.799698 z" />
        <path
           id="path2284"
           style="opacity:0.3;fill:url(#radialGradient4306);fill-opacity:1;fill-rule:evenodd;stroke:none;stroke-width:1.02400005;stroke-linecap:butt;stroke-linejoin:miter;stroke-miterlimit:4;stroke-dasharray:none;stroke-dashoffset:0;stroke-opacity:1"
           d="M 9.3217476,41.799698 L 9.3217476,48.126714 C 6.9779494,48.102828 5.07,46.705313 5.07,44.974385 C 5.07,43.243458 6.9779484,41.823584 9.3217476,41.799698 z" />
      </g>
      <rect
         id="rect2286"
         style="fill:#cdcfca;fill-opacity:1;fill-rule:evenodd;stroke:#454743;stroke-width:1;stroke-linecap:butt;stroke-linejoin:miter;stroke-miterlimit:4;stroke-dasharray:none;stroke-dashoffset:0;stroke-opacity:1"
         y="-35.323814"
         x="11.07883"
         ry="0.67459941"
         rx="0.75259298"
         height="25.906277"
         width="32.330402" />
      <rect
         id="rect2288"
         style="fill:url(#linearGradient4308);fill-opacity:1;fill-rule:evenodd;stroke:none;stroke-width:1.29999995;stroke-linecap:butt;stroke-linejoin:round;stroke-miterlimit:4;stroke-dasharray:none;stroke-dashoffset:0;stroke-opacity:1"
         y="-34.385544"
         x="12.158445"
         ry="0"
         height="24.002123"
         width="30.200775" />
      <path
         sodipodi:nodetypes="cccccccccccccc"
         id="path2290"
         style="fill:#ffffff;fill-opacity:1;fill-rule:evenodd;stroke:none;stroke-width:1;stroke-linecap:butt;stroke-linejoin:miter;stroke-miterlimit:4;stroke-dashoffset:0;stroke-opacity:1"
         d="M 11.585097,-34.415998 L 11.596936,-10.28103 C 11.622216,-10.0003 11.791847,-9.9100178 12.03129,-9.9118398 L 42.499462,-9.9196523 C 42.76415,-9.9218802 42.918678,-10.032693 42.925762,-10.288843 L 43.038923,-34.614006 C 43.087146,-34.846768 42.831165,-34.999362 42.636785,-34.990524 L 12.063748,-34.818164 C 11.815753,-34.837652 11.586492,-34.708686 11.585097,-34.415998 z M 12.520986,-33.924271 L 41.973626,-33.926823 L 41.975743,-10.879971 L 12.53661,-10.877339 L 12.520986,-33.924271 z" />
      <path
         id="path2292"
         style="fill:url(#linearGradient4310);fill-opacity:1;fill-rule:evenodd;stroke:none;stroke-width:2.04888678;stroke-linecap:round;stroke-linejoin:round;stroke-miterlimit:4;stroke-dasharray:none;stroke-dashoffset:0;stroke-opacity:1"
         d="M 12.531251,-31.542805 L 12.531251,-30.869085 C 12.541432,-29.530393 12.890592,-28.464491 13.315934,-28.473636 L 41.184068,-28.473636 C 41.609412,-28.464491 41.958571,-29.530393 41.968752,-30.869085 L 41.968752,-31.542805 C 41.958571,-32.881497 41.609412,-33.947399 41.184068,-33.938254 L 13.315934,-33.938254 C 12.564551,-33.421215 12.589635,-32.382819 12.531251,-31.542805 z" />
    </g>
    <g
       transform="matrix(0.5652341,0,0,0.9442331,20.942321,2.1488276)"
       id="g2514">
      <rect
         width="32.357079"
         height="6.3234997"
         x="9.3215466"
         y="41.809082"
         style="opacity:0.3;fill:url(#linearGradient4041);fill-opacity:1;fill-rule:evenodd;stroke:none;stroke-width:1.02400005;stroke-linecap:butt;stroke-linejoin:miter;stroke-miterlimit:4;stroke-dasharray:none;stroke-dashoffset:0;stroke-opacity:1"
         id="rect2516" />
      <path
         d="M 41.6785,41.799698 L 41.6785,48.126714 C 44.022298,48.102828 45.930248,46.705313 45.930248,44.974385 C 45.930248,43.243458 44.022299,41.823584 41.6785,41.799698 z"
         style="opacity:0.3;fill:url(#radialGradient4043);fill-opacity:1;fill-rule:evenodd;stroke:none;stroke-width:1.02400005;stroke-linecap:butt;stroke-linejoin:miter;stroke-miterlimit:4;stroke-dasharray:none;stroke-dashoffset:0;stroke-opacity:1"
         id="path2518" />
      <path
         d="M 9.3217476,41.799698 L 9.3217476,48.126714 C 6.9779494,48.102828 5.07,46.705313 5.07,44.974385 C 5.07,43.243458 6.9779484,41.823584 9.3217476,41.799698 z"
         style="opacity:0.3;fill:url(#radialGradient4045);fill-opacity:1;fill-rule:evenodd;stroke:none;stroke-width:1.02400005;stroke-linecap:butt;stroke-linejoin:miter;stroke-miterlimit:4;stroke-dasharray:none;stroke-dashoffset:0;stroke-opacity:1"
         id="path2520" />
    </g>
    <g
       id="g15413"
       transform="matrix(0.3636717,0,0,0.6462028,14.586257,-0.2353542)">
      <rect
         id="rect15415"
         style="opacity:0.3;fill:url(#linearGradient4047);fill-opacity:1;fill-rule:evenodd;stroke:none;stroke-width:1.02400005;stroke-linecap:butt;stroke-linejoin:miter;stroke-miterlimit:4;stroke-dasharray:none;stroke-dashoffset:0;stroke-opacity:1"
         y="41.809082"
         x="9.3215466"
         height="6.3234997"
         width="32.357079" />
      <path
         id="path15417"
         style="opacity:0.3;fill:url(#radialGradient4049);fill-opacity:1;fill-rule:evenodd;stroke:none;stroke-width:1.02400005;stroke-linecap:butt;stroke-linejoin:miter;stroke-miterlimit:4;stroke-dasharray:none;stroke-dashoffset:0;stroke-opacity:1"
         d="M 41.6785,41.799698 L 41.6785,48.126714 C 44.022298,48.102828 45.930248,46.705313 45.930248,44.974385 C 45.930248,43.243458 44.022299,41.823584 41.6785,41.799698 z" />
      <path
         id="path15419"
         style="opacity:0.3;fill:url(#radialGradient4051);fill-opacity:1;fill-rule:evenodd;stroke:none;stroke-width:1.02400005;stroke-linecap:butt;stroke-linejoin:miter;stroke-miterlimit:4;stroke-dasharray:none;stroke-dashoffset:0;stroke-opacity:1"
         d="M 9.3217476,41.799698 L 9.3217476,48.126714 C 6.9779494,48.102828 5.07,46.705313 5.07,44.974385 C 5.07,43.243458 6.9779484,41.823584 9.3217476,41.799698 z" />
    </g>
    <path
       sodipodi:type="inkscape:offset"
       inkscape:radius="2.2980971"
       inkscape:original="M 4 1.5625 C 3.7157039 1.5625 3.46875 1.8005355 3.46875 2.09375 L 3.46875 23 C 3.46875 23.293214 3.7157038 23.53125 4 23.53125 L 26.78125 23.53125 C 27.065546 23.53125 27.28125 23.293214 27.28125 23 L 27.28125 2.09375 C 27.28125 1.8005355 27.065547 1.5625 26.78125 1.5625 L 4 1.5625 z "
       style="fill:url(#radialGradient4053);fill-opacity:1;fill-rule:evenodd;stroke:#9f9f94;stroke-width:1.41249681;stroke-linecap:round;stroke-linejoin:round;stroke-miterlimit:4;stroke-dasharray:none;stroke-dashoffset:0;stroke-opacity:1"
       id="path5159"
       d="M 4,-0.75 C 2.4329364,-0.75 1.15625,0.51018538 1.15625,2.09375 L 1.15625,23 C 1.15625,24.583566 2.432934,25.84375 4,25.84375 L 26.78125,25.84375 C 28.348317,25.84375 29.59375,24.420283 29.59375,23 L 29.59375,2.09375 C 29.59375,0.67347335 28.34831,-0.75 26.78125,-0.75 L 4,-0.75 z"
       transform="matrix(0.4471096,0,0,0.4246269,16.99324,17.237631)" />
    <rect
       style="fill:url(#radialGradient2325);fill-opacity:1;fill-rule:evenodd;stroke:#9f9f94;stroke-width:0.60033548;stroke-linecap:round;stroke-linejoin:round;stroke-miterlimit:4;stroke-dasharray:none;stroke-dashoffset:0;stroke-opacity:1"
       id="rect2224"
       width="10.1184"
       height="8.8212681"
       x="18.301117"
       y="17.764006"
       rx="0.21810603"
       ry="0.21269377" />
    <path
       sodipodi:type="inkscape:offset"
       inkscape:radius="0.29437608"
       inkscape:original="M 4 -2.1875 C 1.6509001 -2.1875 -0.28125 -0.27365371 -0.28125 2.09375 L -0.28125 23 C -0.28125 25.367403 1.650899 27.28125 4 27.28125 L 26.78125 27.28125 C 29.205846 27.28125 31.03125 25.248455 31.03125 23 L 31.03125 2.09375 C 31.03125 -0.15470562 29.205845 -2.1875 26.78125 -2.1875 L 4 -2.1875 z "
       style="fill:none;fill-opacity:1;fill-rule:evenodd;stroke:#3465a4;stroke-width:2.29503465;stroke-linecap:round;stroke-linejoin:round;stroke-miterlimit:4;stroke-dasharray:none;stroke-dashoffset:0;stroke-opacity:1"
       id="path3244"
       d="M 4,-2.46875 C 1.4910118,-2.46875 -0.5625,-0.4338232 -0.5625,2.09375 L -0.5625,23 C -0.5625,25.527572 1.4910107,27.5625 4,27.5625 L 26.78125,27.5625 C 29.370384,27.5625 31.3125,25.407781 31.3125,23 L 31.3125,2.09375 C 31.3125,-0.31403144 29.370383,-2.46875 26.78125,-2.46875 L 4,-2.46875 z"
       transform="matrix(0.4471096,0,0,0.4246269,16.991427,17.324179)" />
    <path
       style="fill:none;fill-rule:evenodd;stroke:#9f9f94;stroke-width:0.61926591px;stroke-linecap:butt;stroke-linejoin:miter;stroke-opacity:1"
       d="M 28.264783,26.51103 L 29.955279,27.640852"
       id="path5163"
       sodipodi:nodetypes="cc" />
    <path
       style="fill:none;fill-rule:evenodd;stroke:#9f9f94;stroke-width:0.61926591px;stroke-linecap:butt;stroke-linejoin:miter;stroke-opacity:1"
       d="M 28.3085,17.804062 L 29.692313,17.234912"
       id="path5165"
       sodipodi:nodetypes="cc" />
    <path
       style="fill:none;fill-rule:evenodd;stroke:#9f9f94;stroke-width:0.61926591px;stroke-linecap:round;stroke-linejoin:round;stroke-opacity:1"
       d="M 18.328259,26.570371 L 17.877626,27.828685"
       id="path5167"
       sodipodi:nodetypes="cc" />
    <path
       style="font-size:7.25598335px;font-style:normal;font-weight:normal;fill:#000000;fill-opacity:1;stroke:none;stroke-width:1px;stroke-linecap:butt;stroke-linejoin:miter;stroke-opacity:1;font-family:'Bitstream Vera Sans'"
       d="M 23.737221,19.213882 L 23.737221,20.04785 C 23.419089,19.892633 23.118943,19.776923 22.836782,19.700718 C 22.554614,19.624523 22.282131,19.586422 22.019334,19.586417 C 21.562888,19.586422 21.210183,19.676734 20.961215,19.857351 C 20.715011,20.037979 20.591909,20.294801 20.591912,20.627819 C 20.591909,20.907224 20.673516,21.118892 20.83673,21.262821 C 21.002708,21.403937 21.315302,21.518237 21.774514,21.605722 L 22.280752,21.711555 C 22.905936,21.832915 23.36653,22.047405 23.66253,22.355024 C 23.961287,22.659827 24.110669,23.06905 24.110674,23.582694 C 24.110669,24.195119 23.908728,24.659375 23.504849,24.975465 C 23.103728,25.291554 22.514501,25.449598 21.737169,25.449598 C 21.443936,25.449598 21.131342,25.415731 20.799386,25.347998 C 20.470192,25.280265 20.128551,25.180076 19.774462,25.047431 L 19.774462,24.166895 C 20.114719,24.36163 20.448061,24.508387 20.774488,24.607163 C 21.100912,24.705942 21.421806,24.75533 21.737169,24.75533 C 22.21574,24.75533 22.585044,24.659375 22.845081,24.467463 C 23.105111,24.275552 23.235129,24.001797 23.235132,23.646194 C 23.235129,23.33575 23.141074,23.09304 22.952967,22.918059 C 22.767621,22.743083 22.461942,22.61185 22.035932,22.524358 L 21.525545,22.422757 C 20.900354,22.29576 20.448061,22.096793 20.168664,21.825856 C 19.889265,21.554926 19.749565,21.178158 19.749566,20.695553 C 19.749565,20.136757 19.941824,19.696489 20.326343,19.37475 C 20.713628,19.053022 21.246145,18.892155 21.923896,18.892148 C 22.214357,18.892155 22.510352,18.918965 22.811885,18.972582 C 23.11341,19.02621 23.421855,19.106643 23.737221,19.213882"
       id="text8141" />
    <path
       id="path3274"
       d="M 31.187659,22.088952 L 34.603326,17.922333 L 34.645609,20.467244 C 40.291225,20.716305 43.999655,24.08548 43.387604,30.506505 L 40.117009,30.489037 C 40.549035,25.808135 37.956253,23.721065 34.697723,23.603994 L 34.739678,26.129178 L 31.187659,22.088952 z"
       style="color:#000000;fill:url(#linearGradient2316);fill-opacity:1;fill-rule:evenodd;stroke:none;stroke-width:1;stroke-linecap:round;stroke-linejoin:round;marker:none;marker-start:none;marker-mid:none;marker-end:none;stroke-miterlimit:4;stroke-dasharray:none;stroke-dashoffset:0;stroke-opacity:1;visibility:visible;display:inline;overflow:visible"
       sodipodi:nodetypes="cccccccc" />
    <path
       transform="matrix(0.7023467,0,0,0.4950587,24.511875,31.877284)"
       d="M 4,-0.75 C 2.4329364,-0.75 1.15625,0.51018538 1.15625,2.09375 L 1.15625,23 C 1.15625,24.583566 2.432934,25.84375 4,25.84375 L 26.78125,25.84375 C 28.348317,25.84375 29.59375,24.420283 29.59375,23 L 29.59375,2.09375 C 29.59375,0.67347335 28.34831,-0.75 26.78125,-0.75 L 4,-0.75 z"
       id="path8119"
       style="fill:url(#radialGradient4059);fill-opacity:1;fill-rule:evenodd;stroke:#9f9f94;stroke-width:1.41249681;stroke-linecap:round;stroke-linejoin:round;stroke-miterlimit:4;stroke-dasharray:none;stroke-dashoffset:0;stroke-opacity:1"
       inkscape:original="M 4 1.5625 C 3.7157039 1.5625 3.46875 1.8005355 3.46875 2.09375 L 3.46875 23 C 3.46875 23.293214 3.7157038 23.53125 4 23.53125 L 26.78125 23.53125 C 27.065546 23.53125 27.28125 23.293214 27.28125 23 L 27.28125 2.09375 C 27.28125 1.8005355 27.065547 1.5625 26.78125 1.5625 L 4 1.5625 z "
       inkscape:radius="2.2980971"
       sodipodi:type="inkscape:offset" />
    <rect
       ry="0.2622596"
       rx="0.34261411"
       y="32.741684"
       x="26.623264"
       height="10.876964"
       width="15.894593"
       id="rect8121"
       style="fill:url(#radialGradient2312);fill-opacity:1;fill-rule:evenodd;stroke:#9f9f94;stroke-width:0.81243271;stroke-linecap:round;stroke-linejoin:round;stroke-miterlimit:4;stroke-dasharray:none;stroke-dashoffset:0;stroke-opacity:1" />
    <path
       transform="matrix(0.677266,0,0,0.4996788,24.899065,31.828376)"
       d="M 4,-2.46875 C 1.4910118,-2.46875 -0.5625,-0.4338232 -0.5625,2.09375 L -0.5625,23 C -0.5625,25.527572 1.4910107,27.5625 4,27.5625 L 26.78125,27.5625 C 29.370384,27.5625 31.3125,25.407781 31.3125,23 L 31.3125,2.09375 C 31.3125,-0.31403144 29.370383,-2.46875 26.78125,-2.46875 L 4,-2.46875 z"
       id="path4010"
       style="fill:none;fill-opacity:1;fill-rule:evenodd;stroke:#3465a4;stroke-width:1.71899617;stroke-linecap:round;stroke-linejoin:round;stroke-miterlimit:4;stroke-dasharray:none;stroke-dashoffset:0;stroke-opacity:1"
       inkscape:original="M 4 -2.1875 C 1.6509001 -2.1875 -0.28125 -0.27365371 -0.28125 2.09375 L -0.28125 23 C -0.28125 25.367403 1.650899 27.28125 4 27.28125 L 26.78125 27.28125 C 29.205846 27.28125 31.03125 25.248455 31.03125 23 L 31.03125 2.09375 C 31.03125 -0.15470562 29.205845 -2.1875 26.78125 -2.1875 L 4 -2.1875 z "
       inkscape:radius="0.29437608"
       sodipodi:type="inkscape:offset" />
    <path
       sodipodi:nodetypes="cc"
       id="path8123"
       d="M 42.342895,43.607973 L 44.873428,44.006064"
       style="fill:none;fill-rule:evenodd;stroke:#9f9f94;stroke-width:0.83805126px;stroke-linecap:butt;stroke-linejoin:miter;stroke-opacity:1" />
    <path
       sodipodi:nodetypes="cc"
       id="path8125"
       d="M 42.313389,32.793151 L 44.460345,31.874115"
       style="fill:none;fill-rule:evenodd;stroke:#9f9f94;stroke-width:0.83805126px;stroke-linecap:butt;stroke-linejoin:miter;stroke-opacity:1" />
    <path
       sodipodi:nodetypes="cc"
       id="path8127"
       d="M 26.586734,43.617324 L 25.901122,44.225051"
       style="fill:none;fill-rule:evenodd;stroke:#9f9f94;stroke-width:0.83805126px;stroke-linecap:round;stroke-linejoin:round;stroke-opacity:1" />
    <path
       style="font-size:8.26188469px;font-style:normal;font-weight:normal;fill:#000000;fill-opacity:1;stroke:none;stroke-width:1px;stroke-linecap:butt;stroke-linejoin:miter;stroke-opacity:1;font-family:'Bitstream Vera Sans'"
       d="M 30.950873,35.480864 L 29.514379,39.37618 L 32.392612,39.37618 L 30.950873,35.480864 M 30.353207,34.437569 L 31.553783,34.437569 L 34.536871,42.2649 L 33.435907,42.2649 L 32.722901,40.25695 L 29.194574,40.25695 L 28.481569,42.2649 L 27.364877,42.2649 L 30.353207,34.437569 M 35.632593,34.107281 L 36.597246,34.107281 L 36.597246,42.2649 L 35.632593,42.2649 L 35.632593,34.107281 M 39.564606,34.725917 L 39.564606,36.393091 L 41.551584,36.393091 L 41.551584,37.142795 L 39.564606,37.142795 L 39.564606,40.330348 C 39.564603,40.809181 39.629264,41.116752 39.758586,41.253061 C 39.891398,41.389372 40.158775,41.457526 40.560716,41.457526 L 41.551584,41.457526 L 41.551584,42.2649 L 40.560716,42.2649 C 39.816252,42.2649 39.302471,42.126842 39.019366,41.850727 C 38.736261,41.571118 38.594708,41.064325 38.594709,40.330348 L 38.594709,37.142795 L 37.886947,37.142795 L 37.886947,36.393091 L 38.594709,36.393091 L 38.594709,34.725917 L 39.564606,34.725917"
       id="text8145" />
  </g>
</svg>
