<?xml version="1.0" encoding="UTF-8" standalone="no"?>
<!-- Created with Inkscape (http://www.inkscape.org/) -->
<svg
   xmlns:dc="http://purl.org/dc/elements/1.1/"
   xmlns:cc="http://web.resource.org/cc/"
   xmlns:rdf="http://www.w3.org/1999/02/22-rdf-syntax-ns#"
   xmlns:svg="http://www.w3.org/2000/svg"
   xmlns="http://www.w3.org/2000/svg"
   xmlns:xlink="http://www.w3.org/1999/xlink"
   xmlns:sodipodi="http://sodipodi.sourceforge.net/DTD/sodipodi-0.dtd"
   xmlns:inkscape="http://www.inkscape.org/namespaces/inkscape"
   inkscape:export-ydpi="90.000000"
   inkscape:export-xdpi="90.000000"
   inkscape:export-filename="/home/patrick/Desktop/desktop.png"
   width="48px"
   height="48px"
   id="svg11300"
   sodipodi:version="0.32"
   inkscape:version="0.45+devel"
   sodipodi:docbase="/home/patrick/Projects/Beryl/svn/beryl/trunk/beryl-settings/images"
   sodipodi:docname="plugin-fs.svg"
   inkscape:output_extension="org.inkscape.output.svg.inkscape">
  <defs
     id="defs3">
    <linearGradient
       id="linearGradient6969">
      <stop
         style="stop-color:#78a1d5;stop-opacity:1;"
         offset="0"
         id="stop6971" />
      <stop
         style="stop-color:#3465a4;stop-opacity:1;"
         offset="1"
         id="stop6973" />
    </linearGradient>
    <linearGradient
       id="linearGradient5810">
      <stop
         style="stop-color:#d4d4d4;stop-opacity:1;"
         offset="0"
         id="stop5812" />
      <stop
         style="stop-color:#999999;stop-opacity:1;"
         offset="1"
         id="stop5814" />
    </linearGradient>
    <linearGradient
       id="linearGradient4169">
      <stop
         style="stop-color:#ffffff;stop-opacity:1;"
         offset="0"
         id="stop4171" />
      <stop
         style="stop-color:#eeeeec;stop-opacity:1;"
         offset="1"
         id="stop4173" />
    </linearGradient>
    <linearGradient
       id="linearGradient3818">
      <stop
         style="stop-color:#c4c5c2;stop-opacity:1;"
         offset="0"
         id="stop3820" />
      <stop
         style="stop-color:#888a85;stop-opacity:1;"
         offset="1"
         id="stop3822" />
    </linearGradient>
    <radialGradient
       inkscape:collect="always"
       xlink:href="#linearGradient3818"
       id="radialGradient3824"
       cx="31.129313"
       cy="25.871546"
       fx="31.129313"
       fy="25.871546"
       r="11.629839"
       gradientTransform="matrix(1.4944179,1.5477429,-0.8638634,0.8341003,6.3431696,-47.688882)"
       gradientUnits="userSpaceOnUse" />
    <radialGradient
       r="14.75"
       fy="10.241054"
       fx="56.704376"
       cy="10.241054"
       cx="56.704376"
       gradientTransform="matrix(0.664143,0.4987188,-0.6514275,0.8675051,44.222441,-44.466936)"
       gradientUnits="userSpaceOnUse"
       id="radialGradient2387"
       xlink:href="#linearGradient8440"
       inkscape:collect="always" />
    <linearGradient
       id="linearGradient8440">
      <stop
         style="stop-color:#edeeec;stop-opacity:1;"
         offset="0"
         id="stop8442" />
      <stop
         style="stop-color:#babdb6;stop-opacity:1;"
         offset="1"
         id="stop8444" />
    </linearGradient>
    <linearGradient
       id="linearGradient30743"
       inkscape:collect="always">
      <stop
         id="stop30745"
         offset="0"
         style="stop-color:#000000;stop-opacity:1;" />
      <stop
         id="stop30747"
         offset="1"
         style="stop-color:#000000;stop-opacity:0;" />
    </linearGradient>
    <radialGradient
       inkscape:collect="always"
       xlink:href="#linearGradient30743"
       id="radialGradient9570"
       gradientUnits="userSpaceOnUse"
       gradientTransform="matrix(1,0,0,0.6052632,0,2.3684209)"
       cx="10.5"
       cy="5.9999995"
       fx="10.5"
       fy="5.9999995"
       r="9.5" />
    <radialGradient
       inkscape:collect="always"
       xlink:href="#linearGradient8440"
       id="radialGradient3193"
       gradientUnits="userSpaceOnUse"
       gradientTransform="matrix(0.3810944,0.455232,-0.594625,0.4977864,-8.1655377,-1.6212846)"
       cx="56.704376"
       cy="10.241054"
       fx="56.704376"
       fy="10.241054"
       r="14.75" />
    <radialGradient
       inkscape:collect="always"
       xlink:href="#linearGradient30743"
       id="radialGradient4188"
       gradientUnits="userSpaceOnUse"
       gradientTransform="matrix(1,0,0,0.6052632,0,2.3684209)"
       cx="10.5"
       cy="5.9999995"
       fx="10.5"
       fy="5.9999995"
       r="9.5" />
    <radialGradient
       inkscape:collect="always"
       xlink:href="#linearGradient8440"
       id="radialGradient2188"
       gradientUnits="userSpaceOnUse"
       gradientTransform="matrix(0.664143,0.4987188,-0.6514275,0.8675051,-6.5927319,-24.793918)"
       cx="56.704376"
       cy="10.241054"
       fx="56.704376"
       fy="10.241054"
       r="14.75" />
    <linearGradient
       id="linearGradient11995">
      <stop
         style="stop-color:#f2f2f0;stop-opacity:1;"
         offset="0"
         id="stop11997" />
      <stop
         style="stop-color:#eeeeec;stop-opacity:0;"
         offset="1"
         id="stop11999" />
    </linearGradient>
    <linearGradient
       id="linearGradient6159">
      <stop
         style="stop-color:#aeaea6;stop-opacity:1;"
         offset="0"
         id="stop6161" />
      <stop
         style="stop-color:#eeeeec;stop-opacity:1;"
         offset="1"
         id="stop6163" />
    </linearGradient>
    <radialGradient
       gradientUnits="userSpaceOnUse"
       gradientTransform="matrix(1.4944179,1.5477429,-0.8638634,0.8341003,6.3431696,-47.688882)"
       r="11.629839"
       fy="25.871546"
       fx="31.129313"
       cy="25.871546"
       cx="31.129313"
       id="radialGradient9035"
       xlink:href="#linearGradient3818"
       inkscape:collect="always" />
    <linearGradient
       id="linearGradient5316">
      <stop
         style="stop-color: rgb(239, 41, 41); stop-opacity: 0;"
         offset="0"
         id="stop5318" />
      <stop
         style="stop-color: rgb(164, 0, 0); stop-opacity: 1;"
         offset="1"
         id="stop5320" />
    </linearGradient>
    <linearGradient
       inkscape:collect="always"
       id="linearGradient5308">
      <stop
         style="stop-color: rgb(138, 226, 52); stop-opacity: 1;"
         offset="0"
         id="stop5310" />
      <stop
         style="stop-color: rgb(138, 226, 52); stop-opacity: 0;"
         offset="1"
         id="stop5312" />
    </linearGradient>
    <linearGradient
       id="linearGradient5268">
      <stop
         style="stop-color: rgb(204, 0, 0); stop-opacity: 1;"
         offset="0"
         id="stop5270" />
      <stop
         style="stop-color: rgb(164, 0, 60); stop-opacity: 0;"
         offset="1"
         id="stop5272" />
    </linearGradient>
    <linearGradient
       inkscape:collect="always"
       id="linearGradient5252">
      <stop
         style="stop-color: rgb(138, 226, 52); stop-opacity: 1;"
         offset="0"
         id="stop5254" />
      <stop
         style="stop-color: rgb(138, 226, 52); stop-opacity: 0;"
         offset="1"
         id="stop5256" />
    </linearGradient>
    <linearGradient
       inkscape:collect="always"
       id="linearGradient5244">
      <stop
         style="stop-color: rgb(138, 226, 52); stop-opacity: 1;"
         offset="0"
         id="stop5246" />
      <stop
         style="stop-color: rgb(138, 226, 52); stop-opacity: 0;"
         offset="1"
         id="stop5248" />
    </linearGradient>
    <linearGradient
       id="linearGradient4743">
      <stop
         style="stop-color: rgb(78, 154, 6); stop-opacity: 1;"
         offset="0"
         id="stop4745" />
      <stop
         id="stop4751"
         offset="0.5"
         style="stop-color: rgb(115, 210, 22); stop-opacity: 1;" />
      <stop
         style="stop-color: rgb(78, 154, 6); stop-opacity: 1;"
         offset="1"
         id="stop4747" />
    </linearGradient>
    <linearGradient
       inkscape:collect="always"
       xlink:href="#linearGradient5316"
       id="linearGradient15044"
       gradientUnits="userSpaceOnUse"
       gradientTransform="matrix(0.953602,2.11153e-2,-2.11153e-2,0.953602,63.9493,-1.59483)"
       x1="-36.785713"
       y1="28"
       x2="-40.535713"
       y2="46.214287" />
    <linearGradient
       inkscape:collect="always"
       xlink:href="#linearGradient5308"
       id="linearGradient15047"
       gradientUnits="userSpaceOnUse"
       gradientTransform="matrix(0.953602,2.11153e-2,-2.11153e-2,0.953602,63.9448,-1.87839)"
       x1="-46.42857"
       y1="28.357143"
       x2="-42.67857"
       y2="46.392857" />
    <linearGradient
       inkscape:collect="always"
       xlink:href="#linearGradient5268"
       id="linearGradient15050"
       gradientUnits="userSpaceOnUse"
       gradientTransform="matrix(0.953602,2.11153e-2,-2.11153e-2,0.953602,63.9493,-1.59483)"
       x1="-28.392857"
       y1="25.5"
       x2="-37.142857"
       y2="43.714287" />
    <linearGradient
       inkscape:collect="always"
       xlink:href="#linearGradient5268"
       id="linearGradient15053"
       gradientUnits="userSpaceOnUse"
       gradientTransform="matrix(0.953602,2.11153e-2,-2.11153e-2,0.953602,63.9493,-1.59483)"
       x1="-55.892857"
       y1="25.321428"
       x2="-45.714287"
       y2="44.785713" />
    <radialGradient
       inkscape:collect="always"
       xlink:href="#linearGradient5268"
       id="radialGradient15056"
       gradientUnits="userSpaceOnUse"
       gradientTransform="matrix(0.953602,2.11153e-2,-8.80252e-3,0.397533,55.0517,0.141148)"
       cx="-32.547497"
       cy="20.01099"
       fx="-32.547497"
       fy="20.01099"
       r="12.182409" />
    <linearGradient
       inkscape:collect="always"
       xlink:href="#linearGradient5268"
       id="linearGradient15059"
       gradientUnits="userSpaceOnUse"
       gradientTransform="matrix(0.953602,2.11153e-2,-2.11153e-2,0.953602,63.9493,-1.59483)"
       x1="-23.214285"
       y1="13.535714"
       x2="-28.928572"
       y2="9.4285717" />
    <linearGradient
       inkscape:collect="always"
       xlink:href="#linearGradient5268"
       id="linearGradient15062"
       gradientUnits="userSpaceOnUse"
       gradientTransform="matrix(0.953602,2.11153e-2,-2.11153e-2,0.953602,63.9493,-1.59483)"
       x1="-61.42857"
       y1="14.607143"
       x2="-53.392857"
       y2="9.0714283" />
    <linearGradient
       inkscape:collect="always"
       xlink:href="#linearGradient5268"
       id="linearGradient15065"
       gradientUnits="userSpaceOnUse"
       gradientTransform="matrix(0.953602,2.11153e-2,-2.11153e-2,0.953602,63.9493,-1.59483)"
       x1="-24.107143"
       y1="22.642857"
       x2="-31.071428"
       y2="13.892857" />
    <linearGradient
       inkscape:collect="always"
       xlink:href="#linearGradient5252"
       id="linearGradient15068"
       gradientUnits="userSpaceOnUse"
       gradientTransform="matrix(0.953602,2.11153e-2,-2.11153e-2,0.953602,63.9448,-1.87839)"
       x1="-37.142857"
       y1="27.107143"
       x2="-36.546818"
       y2="20.142857" />
    <linearGradient
       inkscape:collect="always"
       xlink:href="#linearGradient5244"
       id="linearGradient15071"
       gradientUnits="userSpaceOnUse"
       gradientTransform="matrix(0.953602,2.11153e-2,-2.11153e-2,0.953602,63.8732,-1.95327)"
       x1="-47.013756"
       y1="28.04245"
       x2="-47.013756"
       y2="20.321428" />
    <linearGradient
       inkscape:collect="always"
       xlink:href="#linearGradient5268"
       id="linearGradient15074"
       gradientUnits="userSpaceOnUse"
       gradientTransform="matrix(0.953602,2.11153e-2,-2.11153e-2,0.953602,63.9493,-1.59483)"
       x1="-58.035713"
       y1="23"
       x2="-50.535713"
       y2="13.892857" />
    <linearGradient
       inkscape:collect="always"
       xlink:href="#linearGradient4743"
       id="linearGradient15077"
       gradientUnits="userSpaceOnUse"
       gradientTransform="matrix(1.16034,2.56928e-2,-2.56928e-2,1.16034,-3.33514,9.0572e-2)"
       x1="12.184965"
       y1="8.4777822"
       x2="23.65625"
       y2="8.2883787" />
    <linearGradient
       inkscape:collect="always"
       xlink:href="#linearGradient5268"
       id="linearGradient15080"
       gradientUnits="userSpaceOnUse"
       gradientTransform="matrix(0.997557,2.20884e-2,-2.10785e-2,0.951947,1.1525,0.313109)"
       x1="23.809519"
       y1="26.765266"
       x2="24.701157"
       y2="-15.75837" />
    <linearGradient
       id="linearGradient51765">
      <stop
         style="stop-color:#000000;stop-opacity:1"
         offset="0"
         id="stop51767" />
      <stop
         style="stop-color:#000000;stop-opacity:0"
         offset="1"
         id="stop51769" />
    </linearGradient>
    <linearGradient
       id="linearGradient47870">
      <stop
         style="stop-color:#000000;stop-opacity:0"
         offset="0"
         id="stop47872" />
      <stop
         style="stop-color:#000000;stop-opacity:1"
         offset="0.5"
         id="stop47878" />
      <stop
         style="stop-color:#000000;stop-opacity:0"
         offset="1"
         id="stop47874" />
    </linearGradient>
    <linearGradient
       id="linearGradient8990">
      <stop
         id="stop8992"
         offset="0"
         style="stop-color:#c4c5c2;stop-opacity:1;" />
      <stop
         id="stop8994"
         offset="1"
         style="stop-color:#888a85;stop-opacity:1;" />
    </linearGradient>
    <linearGradient
       inkscape:collect="always"
       xlink:href="#linearGradient47870"
       id="linearGradient9129"
       gradientUnits="userSpaceOnUse"
       gradientTransform="matrix(0.982794,0,0,0.9842658,-9.9809772,53.029792)"
       x1="32.084972"
       y1="-14.402173"
       x2="32.084972"
       y2="-5.5633383" />
    <radialGradient
       inkscape:collect="always"
       xlink:href="#linearGradient51765"
       id="radialGradient9131"
       gradientUnits="userSpaceOnUse"
       gradientTransform="matrix(1.965588,-1.1207771e-6,6.6884721e-7,2.0039369,-60.70285,67.647964)"
       cx="51.4375"
       cy="-12.203125"
       fx="51.4375"
       fy="-12.203125"
       r="2.171875" />
    <radialGradient
       inkscape:collect="always"
       xlink:href="#linearGradient51765"
       id="radialGradient9133"
       gradientUnits="userSpaceOnUse"
       gradientTransform="matrix(-1.965588,-1.2731588e-7,-1.2941195e-7,2.0039369,109.01887,67.647913)"
       cx="51.4375"
       cy="-12.203125"
       fx="51.4375"
       fy="-12.203125"
       r="2.171875" />
    <radialGradient
       inkscape:collect="always"
       xlink:href="#linearGradient6969"
       id="radialGradient9137"
       gradientUnits="userSpaceOnUse"
       gradientTransform="matrix(3.1627684e-2,1.2044819,-1.898884,4.9861567e-2,23.905448,2.3037761)"
       cx="9.7973356"
       cy="7.1979012"
       fx="9.7973356"
       fy="7.1979012"
       r="22.562502" />
    <radialGradient
       inkscape:collect="always"
       xlink:href="#linearGradient5810"
       id="radialGradient9141"
       gradientUnits="userSpaceOnUse"
       gradientTransform="matrix(0.191332,2.6247762,-2.5727803,0.1875417,24.873639,-0.6031611)"
       cx="3.3189297"
       cy="8.3332911"
       fx="3.3189297"
       fy="8.3332911"
       r="18.265773" />
    <radialGradient
       inkscape:collect="always"
       xlink:href="#linearGradient8440"
       id="radialGradient9145"
       gradientUnits="userSpaceOnUse"
       gradientTransform="matrix(0.5995759,0.2750639,-0.359289,0.7831675,-16.471458,-33.846293)"
       cx="56.704376"
       cy="10.241054"
       fx="56.704376"
       fy="10.241054"
       r="14.75" />
    <radialGradient
       inkscape:collect="always"
       xlink:href="#linearGradient8440"
       id="radialGradient9536"
       gradientUnits="userSpaceOnUse"
       gradientTransform="matrix(0.5995759,0.2750639,-0.359289,0.7831675,-16.471458,-33.846293)"
       cx="56.704376"
       cy="10.241054"
       fx="56.704376"
       fy="10.241054"
       r="14.75" />
  </defs>
  <sodipodi:namedview
     stroke="#ef2929"
     fill="#eeeeec"
     id="base"
     pagecolor="#ffffff"
     bordercolor="#666666"
     borderopacity="0.25490196"
     inkscape:pageopacity="0.0"
     inkscape:pageshadow="2"
     inkscape:zoom="3.9999998"
     inkscape:cx="20.86707"
     inkscape:cy="23.935797"
     inkscape:current-layer="layer1"
     showgrid="false"
     inkscape:grid-bbox="true"
     inkscape:document-units="px"
     inkscape:showpageshadow="false"
     inkscape:window-width="906"
     inkscape:window-height="662"
     inkscape:window-x="282"
     inkscape:window-y="93"
     showguides="true"
     inkscape:guide-bbox="true" />
  <metadata
     id="metadata4">
    <rdf:RDF>
      <cc:Work
         rdf:about="">
        <dc:format>image/svg+xml</dc:format>
        <dc:type
           rdf:resource="http://purl.org/dc/dcmitype/StillImage" />
        <dc:creator>
          <cc:Agent>
            <dc:title />
          </cc:Agent>
        </dc:creator>
        <dc:source />
        <cc:license
           rdf:resource="http://creativecommons.org/licenses/GPL/2.0/" />
        <dc:title>Desktop</dc:title>
        <dc:subject>
          <rdf:Bag />
        </dc:subject>
      </cc:Work>
      <cc:License
         rdf:about="http://creativecommons.org/licenses/GPL/2.0/">
        <cc:permits
           rdf:resource="http://web.resource.org/cc/Reproduction" />
        <cc:permits
           rdf:resource="http://web.resource.org/cc/Distribution" />
        <cc:requires
           rdf:resource="http://web.resource.org/cc/Notice" />
        <cc:permits
           rdf:resource="http://web.resource.org/cc/DerivativeWorks" />
        <cc:requires
           rdf:resource="http://web.resource.org/cc/ShareAlike" />
        <cc:requires
           rdf:resource="http://web.resource.org/cc/SourceCode" />
      </cc:License>
    </rdf:RDF>
  </metadata>
  <g
     id="layer1"
     inkscape:label="Layer 1"
     inkscape:groupmode="layer">
    <g
       id="g7423"
       transform="matrix(0.9960174,0,0,0.9710853,-3.1414238,-0.944683)">
      <rect
         width="32.488461"
         height="8.6997623"
         x="7.9137373"
         y="38.854225"
         style="opacity:0.4;fill:url(#linearGradient9129);fill-opacity:1;fill-rule:evenodd;stroke:none;stroke-width:1.02400005;stroke-linecap:butt;stroke-linejoin:miter;stroke-miterlimit:4;stroke-dasharray:none;stroke-dashoffset:0;stroke-opacity:1"
         id="rect2402" />
      <path
         d="M 40.402073,38.841314 L 40.402073,47.545914 C 42.755388,47.513052 44.671085,45.590375 44.671085,43.208994 C 44.671085,40.827614 42.755389,38.874176 40.402073,38.841314 z"
         style="opacity:0.4;fill:url(#radialGradient9131);fill-opacity:1;fill-rule:evenodd;stroke:none;stroke-width:1.02400005;stroke-linecap:butt;stroke-linejoin:miter;stroke-miterlimit:4;stroke-dasharray:none;stroke-dashoffset:0;stroke-opacity:1"
         id="path2404" />
      <path
         d="M 7.9139392,38.841314 L 7.9139392,47.545914 C 5.5606243,47.513052 3.6449278,45.590375 3.6449278,43.208994 C 3.6449278,40.827614 5.5606233,38.874176 7.9139392,38.841314 z"
         style="opacity:0.4;fill:url(#radialGradient9133);fill-opacity:1;fill-rule:evenodd;stroke:none;stroke-width:1.02400005;stroke-linecap:butt;stroke-linejoin:miter;stroke-miterlimit:4;stroke-dasharray:none;stroke-dashoffset:0;stroke-opacity:1"
         id="path2406" />
    </g>
    <path
       style="fill:url(#radialGradient9141);fill-opacity:1;fill-rule:evenodd;stroke:#888a85;stroke-width:1;stroke-linecap:round;stroke-linejoin:round;stroke-miterlimit:4;stroke-dashoffset:0;stroke-opacity:1"
       d="M 5.75,8.4999981 L 36.125004,8.4999981 C 37.787004,8.4999981 39.125004,9.837998 39.125004,11.499998 C 39.115963,21.353223 39.137444,31.206531 39.123835,41.059734 C 39.138741,41.09458 14.7714,41.035873 2.5969425,41.057994 L 2.75,11.499998 C 2.75,9.837998 4.088,8.4999981 5.75,8.4999981 z"
       id="rect5037"
       sodipodi:nodetypes="ccccccc" />
    <path
       sodipodi:type="inkscape:offset"
       inkscape:radius="-1.0113667"
       inkscape:original="M 5 9 C 3.338 9 2 10.338 2 12 L 1.84375 41.5625 C 14.018208 41.540379 38.389904 41.597346 38.375 41.5625 C 38.388609 31.709297 38.365959 21.853225 38.375 12 C 38.375 10.338 37.037 9 35.375 9 L 5 9 z "
       style="fill:none;fill-opacity:1;fill-rule:evenodd;stroke:#d6d6d5;stroke-width:1;stroke-linecap:round;stroke-linejoin:round;stroke-miterlimit:4;stroke-dashoffset:0;stroke-opacity:1"
       id="path8507"
       d="M 5,10 C 3.8808033,10 3,10.880803 3,12 L 2.84375,40.5625 C 8.9138621,40.553536 17.407904,40.555691 24.6875,40.5625 C 28.493927,40.56606 31.90285,40.562405 34.375,40.5625 C 35.611075,40.562547 36.625613,40.564315 37.3125,40.5625 C 37.339975,40.562427 37.348521,40.562576 37.375,40.5625 C 37.385851,31.044662 37.366263,21.522019 37.375,12 C 37.375,10.880803 36.494197,10 35.375,10 L 5,10 z"
       transform="translate(0.75,-0.5)" />
    <g
       id="g9532"
       transform="translate(-4.5961943,21.920311)">
      <path
         id="path2591"
         d="M 13.576433,-17.524861 C 13.343159,-17.413985 13.254612,-17.146801 13.361782,-16.921323 L 14.940209,-13.60044 C 14.478109,-13.200158 14.080644,-12.733516 13.721538,-12.254181 L 10.47702,-13.308124 C 10.239682,-13.385564 9.9910327,-13.255094 9.9109129,-13.00955 L 8.7445207,-9.5050776 C 8.6644017,-9.2595354 8.8171956,-8.9923471 9.0545321,-8.914906 L 12.050534,-7.9493494 C 11.982979,-7.2297163 11.993913,-6.4960561 12.11425,-5.7670722 L 8.9136899,-4.2458357 C 8.6882118,-4.1386653 8.5881631,-3.8755715 8.6990391,-3.6422972 L 10.300341,-0.27328543 C 10.411217,-0.040011151 10.678402,0.048534236 10.903879,-0.058635914 L 14.080375,-1.5684345 C 14.528393,-1.05686 15.045993,-0.63427902 15.591519,-0.25112883 L 14.437754,3.2178411 C 14.355349,3.4626268 14.475659,3.7157351 14.712263,3.795386 L 18.192671,4.9732164 C 18.429275,5.0528669 18.676373,4.9194283 18.758777,4.6746429 L 19.922792,1.2893037 C 20.62852,1.3372474 21.347038,1.3207688 22.058129,1.1888966 L 23.590804,4.4135227 C 23.697974,4.6390005 23.961067,4.7390485 24.194342,4.6281723 L 27.563354,3.0268704 C 27.796628,2.9159944 27.885174,2.6488113 27.778004,2.4233334 L 26.222454,-0.8494209 C 26.698522,-1.2800736 27.094549,-1.7757434 27.454939,-2.2907496 L 30.709708,-1.1531763 C 30.945296,-1.0705716 31.225856,-1.1953869 31.311316,-1.4391227 L 32.537275,-4.9424062 C 32.622736,-5.186141 32.498356,-5.4373458 32.262766,-5.519951 L 28.996561,-6.6815884 C 29.030657,-7.2986863 29.006204,-7.9322046 28.902836,-8.5545946 L 32.055269,-10.052956 C 32.280747,-10.160126 32.380795,-10.42322 32.269919,-10.656494 L 30.668618,-14.025505 C 30.557742,-14.258779 30.290557,-14.347326 30.06508,-14.240156 L 26.936712,-12.753232 C 26.461051,-13.300008 25.928872,-13.776309 25.344315,-14.179422 L 26.697279,-17.477564 C 26.795498,-17.716443 26.701793,-17.983046 26.470898,-18.077985 L 23.054812,-19.492892 C 22.823916,-19.587831 22.575487,-19.457263 22.477267,-19.218383 L 21.062359,-15.802297 C 21.045359,-15.760953 21.041052,-15.713804 21.035917,-15.671726 C 20.406933,-15.712667 19.761315,-15.694321 19.127409,-15.590629 L 17.548982,-18.911512 C 17.441812,-19.13699 17.178721,-19.237039 16.945444,-19.126162 L 13.576433,-17.524861 z M 19.101685,-10.120751 C 20.982469,-11.014693 22.883477,-10.232925 23.636912,-8.6477569 C 24.390346,-7.0625868 23.796187,-5.0948595 21.915401,-4.2009162 C 20.034616,-3.3069732 18.133612,-4.0887415 17.380176,-5.6739106 C 16.62674,-7.259076 17.220901,-9.2268079 19.101685,-10.120751 z"
         style="fill:url(#radialGradient9536);fill-opacity:1;fill-rule:evenodd;stroke:#555753;stroke-width:0.99999994;stroke-linecap:butt;stroke-linejoin:miter;stroke-miterlimit:4;stroke-dasharray:none;stroke-dashoffset:0;stroke-opacity:1" />
      <path
         transform="matrix(0.7700597,-0.3660118,0.3660118,0.7700597,-33.541382,2.6925352)"
         d="M 60.84375,3.53125 C 60.841746,3.5415703 60.841746,3.5521797 60.84375,3.5625 C 60.83343,3.5604959 60.82282,3.5604959 60.8125,3.5625 C 60.810496,3.5728203 60.810496,3.5834297 60.8125,3.59375 C 60.799419,3.6011089 60.788609,3.6119186 60.78125,3.625 L 60.78125,7.15625 C 60.776577,7.7057634 60.402627,8.1922807 59.875,8.34375 C 59.307035,8.5010257 58.761996,8.7603892 58.1875,9.0625 C 57.720796,9.3067102 57.134484,9.2311717 56.75,8.875 L 54.4375,6.65625 C 54.42718,6.6542459 54.41657,6.6542459 54.40625,6.65625 C 54.398891,6.6431686 54.388081,6.6323589 54.375,6.625 C 54.361919,6.6323589 54.351109,6.6431686 54.34375,6.65625 C 54.33343,6.6542459 54.32282,6.6542459 54.3125,6.65625 L 52.375,8.65625 C 52.372996,8.6665703 52.372996,8.6771797 52.375,8.6875 C 52.361919,8.6948589 52.351109,8.7056686 52.34375,8.71875 C 52.351109,8.7318314 52.361919,8.7426411 52.375,8.75 C 52.372996,8.7603203 52.372996,8.7709297 52.375,8.78125 L 54.5,10.78125 C 54.91764,11.170897 55.029136,11.813548 54.75,12.3125 C 54.359217,12.96844 54.016014,13.667513 53.8125,14.375 C 53.661252,14.901856 53.177425,15.245303 52.625,15.25 L 49.25,15.25 C 49.23968,15.247996 49.22907,15.247996 49.21875,15.25 C 49.216746,15.26032 49.216746,15.27093 49.21875,15.28125 C 49.20843,15.279246 49.19782,15.279246 49.1875,15.28125 C 49.185496,15.29157 49.185496,15.30218 49.1875,15.3125 C 49.174419,15.319859 49.163609,15.330669 49.15625,15.34375 L 49.15625,18.15625 C 49.154246,18.16657 49.154246,18.17718 49.15625,18.1875 C 49.16657,18.189504 49.17718,18.189504 49.1875,18.1875 C 49.185496,18.19782 49.185496,18.20843 49.1875,18.21875 C 49.19782,18.220754 49.20843,18.220754 49.21875,18.21875 C 49.226109,18.231831 49.236919,18.242641 49.25,18.25 L 52.59375,18.25 C 53.143263,18.254673 53.629781,18.628622 53.78125,19.15625 C 53.959485,19.786594 54.266759,20.366705 54.625,21 C 54.892644,21.478897 54.816478,22.074996 54.4375,22.46875 L 52,25.03125 C 51.997996,25.04157 51.997996,25.05218 52,25.0625 C 51.986919,25.069859 51.976109,25.080669 51.96875,25.09375 C 51.976109,25.106831 51.986919,25.117641 52,25.125 C 51.997996,25.13532 51.997996,25.14593 52,25.15625 L 53.9375,27.03125 C 53.94782,27.033254 53.95843,27.033254 53.96875,27.03125 C 53.976109,27.044331 53.986919,27.055141 54,27.0625 C 54.013081,27.055141 54.023891,27.044331 54.03125,27.03125 C 54.04157,27.033254 54.05218,27.033254 54.0625,27.03125 L 56.4375,24.59375 C 56.827147,24.17611 57.469798,24.064614 57.96875,24.34375 C 58.629601,24.71473 59.282579,25.035973 59.96875,25.21875 C 60.496378,25.370219 60.870327,25.856737 60.875,26.40625 L 60.875,29.8125 C 60.872996,29.82282 60.872996,29.83343 60.875,29.84375 C 60.88532,29.845754 60.89593,29.845754 60.90625,29.84375 C 60.904246,29.85407 60.904246,29.86468 60.90625,29.875 C 60.91657,29.877004 60.92718,29.877004 60.9375,29.875 C 60.944859,29.888081 60.955669,29.898891 60.96875,29.90625 L 63.78125,29.90625 C 63.79157,29.908254 63.80218,29.908254 63.8125,29.90625 C 63.814504,29.89593 63.814504,29.88532 63.8125,29.875 C 63.82282,29.877004 63.83343,29.877004 63.84375,29.875 C 63.845754,29.86468 63.845754,29.85407 63.84375,29.84375 C 63.856831,29.836391 63.867641,29.825581 63.875,29.8125 L 63.875,26.34375 C 63.873239,25.805844 64.207315,25.325437 64.71875,25.15625 C 64.727883,25.153508 64.740857,25.159037 64.75,25.15625 C 64.762735,25.152368 64.768497,25.12897 64.78125,25.125 C 65.351215,24.947575 65.925387,24.670105 66.5,24.34375 C 66.978897,24.076106 67.574996,24.152272 67.96875,24.53125 L 70.3125,26.84375 C 70.32282,26.845754 70.33343,26.845754 70.34375,26.84375 C 70.351109,26.856831 70.361919,26.867641 70.375,26.875 C 70.388081,26.867641 70.398891,26.856831 70.40625,26.84375 C 70.41657,26.845754 70.42718,26.845754 70.4375,26.84375 L 72.375,24.90625 C 72.377004,24.89593 72.377004,24.88532 72.375,24.875 C 72.388081,24.867641 72.398891,24.856831 72.40625,24.84375 C 72.398891,24.830669 72.388081,24.819859 72.375,24.8125 C 72.377004,24.80218 72.377004,24.79157 72.375,24.78125 L 70.0625,22.46875 C 69.661055,22.06783 69.583466,21.426796 69.875,20.9375 C 70.186899,20.36507 70.451747,19.823266 70.625,19.21875 C 70.776469,18.691122 71.262987,18.317173 71.8125,18.3125 L 75.125,18.3125 C 75.13532,18.314504 75.14593,18.314504 75.15625,18.3125 C 75.158254,18.30218 75.158254,18.29157 75.15625,18.28125 C 75.16657,18.283254 75.17718,18.283254 75.1875,18.28125 C 75.189504,18.27093 75.189504,18.26032 75.1875,18.25 C 75.200581,18.242641 75.211391,18.231831 75.21875,18.21875 L 75.21875,15.40625 C 75.220754,15.39593 75.220754,15.38532 75.21875,15.375 C 75.20843,15.372996 75.19782,15.372996 75.1875,15.375 C 75.189504,15.36468 75.189504,15.35407 75.1875,15.34375 C 75.17718,15.341746 75.16657,15.341746 75.15625,15.34375 C 75.148891,15.330669 75.138081,15.319859 75.125,15.3125 L 71.84375,15.3125 C 71.294237,15.307827 70.807719,14.933878 70.65625,14.40625 C 70.456844,13.692031 70.147768,13.04139 69.78125,12.40625 C 69.502114,11.907298 69.61361,11.264647 70.03125,10.875 L 72.5625,8.5625 C 72.564504,8.5521797 72.564504,8.5415703 72.5625,8.53125 C 72.575581,8.5238911 72.586391,8.5130814 72.59375,8.5 C 72.586391,8.4869186 72.575581,8.4761089 72.5625,8.46875 C 72.564504,8.4584297 72.564504,8.4478203 72.5625,8.4375 L 70.75,6.4375 C 70.73968,6.4354959 70.72907,6.4354959 70.71875,6.4375 C 70.711391,6.4244186 70.700581,6.4136089 70.6875,6.40625 C 70.674419,6.4136089 70.663609,6.4244186 70.65625,6.4375 C 70.64593,6.4354959 70.63532,6.4354959 70.625,6.4375 L 68.0625,8.75 C 68.05218,8.7479959 68.04157,8.7479959 68.03125,8.75 C 68.018169,8.7573589 68.007359,8.7681686 68,8.78125 C 67.98968,8.7792459 67.97907,8.7792459 67.96875,8.78125 C 67.59036,9.2287602 66.956597,9.4066236 66.4375,9.125 C 65.854096,8.7996663 65.265686,8.5200228 64.65625,8.34375 C 64.129395,8.1925024 63.785947,7.7086749 63.78125,7.15625 L 63.78125,3.625 C 63.783254,3.6146797 63.783254,3.6040703 63.78125,3.59375 C 63.77093,3.5917459 63.76032,3.5917459 63.75,3.59375 C 63.752004,3.5834297 63.752004,3.5728203 63.75,3.5625 C 63.73968,3.5604959 63.72907,3.5604959 63.71875,3.5625 C 63.711391,3.5494186 63.700581,3.5386089 63.6875,3.53125 L 60.875,3.53125 C 60.86468,3.5292459 60.85407,3.5292459 60.84375,3.53125 z M 61.65625,11.71875 C 61.840633,11.70085 62.027583,11.71875 62.21875,11.71875 C 65.277423,11.71875 67.5,14.060208 67.5,16.78125 C 67.499999,19.502293 65.277424,21.843749 62.21875,21.84375 C 59.160075,21.843751 56.9375,19.502293 56.9375,16.78125 C 56.937498,14.230275 58.890504,11.987251 61.65625,11.71875 z"
         id="path9530"
         style="fill:none;fill-opacity:1;fill-rule:evenodd;stroke:#dddddd;stroke-width:1.17285872;stroke-linecap:butt;stroke-linejoin:miter;stroke-miterlimit:4;stroke-dasharray:none;stroke-dashoffset:0;stroke-opacity:1"
         inkscape:original="M 60.84375 3.53125 C 60.841746 3.5415703 60.841746 3.5521797 60.84375 3.5625 C 60.83343 3.5604959 60.82282 3.5604959 60.8125 3.5625 C 60.810496 3.5728203 60.810496 3.5834297 60.8125 3.59375 C 60.799419 3.6011089 60.788609 3.6119186 60.78125 3.625 L 60.78125 7.15625 C 60.776577 7.7057634 60.402627 8.1922807 59.875 8.34375 C 59.307035 8.5010257 58.761996 8.7603892 58.1875 9.0625 C 57.720796 9.3067102 57.134484 9.2311717 56.75 8.875 L 54.4375 6.65625 C 54.42718 6.6542459 54.41657 6.6542459 54.40625 6.65625 C 54.398891 6.6431686 54.388081 6.6323589 54.375 6.625 C 54.361919 6.6323589 54.351109 6.6431686 54.34375 6.65625 C 54.33343 6.6542459 54.32282 6.6542459 54.3125 6.65625 L 52.375 8.65625 C 52.372996 8.6665703 52.372996 8.6771797 52.375 8.6875 C 52.361919 8.6948589 52.351109 8.7056686 52.34375 8.71875 C 52.351109 8.7318314 52.361919 8.7426411 52.375 8.75 C 52.372996 8.7603203 52.372996 8.7709297 52.375 8.78125 L 54.5 10.78125 C 54.91764 11.170897 55.029136 11.813548 54.75 12.3125 C 54.359217 12.96844 54.016014 13.667513 53.8125 14.375 C 53.661252 14.901856 53.177425 15.245303 52.625 15.25 L 49.25 15.25 C 49.23968 15.247996 49.22907 15.247996 49.21875 15.25 C 49.216746 15.26032 49.216746 15.27093 49.21875 15.28125 C 49.20843 15.279246 49.19782 15.279246 49.1875 15.28125 C 49.185496 15.29157 49.185496 15.30218 49.1875 15.3125 C 49.174419 15.319859 49.163609 15.330669 49.15625 15.34375 L 49.15625 18.15625 C 49.154246 18.16657 49.154246 18.17718 49.15625 18.1875 C 49.16657 18.189504 49.17718 18.189504 49.1875 18.1875 C 49.185496 18.19782 49.185496 18.20843 49.1875 18.21875 C 49.19782 18.220754 49.20843 18.220754 49.21875 18.21875 C 49.226109 18.231831 49.236919 18.242641 49.25 18.25 L 52.59375 18.25 C 53.143263 18.254673 53.629781 18.628622 53.78125 19.15625 C 53.959485 19.786594 54.266759 20.366705 54.625 21 C 54.892644 21.478897 54.816478 22.074996 54.4375 22.46875 L 52 25.03125 C 51.997996 25.04157 51.997996 25.05218 52 25.0625 C 51.986919 25.069859 51.976109 25.080669 51.96875 25.09375 C 51.976109 25.106831 51.986919 25.117641 52 25.125 C 51.997996 25.13532 51.997996 25.14593 52 25.15625 L 53.9375 27.03125 C 53.94782 27.033254 53.95843 27.033254 53.96875 27.03125 C 53.976109 27.044331 53.986919 27.055141 54 27.0625 C 54.013081 27.055141 54.023891 27.044331 54.03125 27.03125 C 54.04157 27.033254 54.05218 27.033254 54.0625 27.03125 L 56.4375 24.59375 C 56.827147 24.17611 57.469798 24.064614 57.96875 24.34375 C 58.629601 24.71473 59.282579 25.035973 59.96875 25.21875 C 60.496378 25.370219 60.870327 25.856737 60.875 26.40625 L 60.875 29.8125 C 60.872996 29.82282 60.872996 29.83343 60.875 29.84375 C 60.88532 29.845754 60.89593 29.845754 60.90625 29.84375 C 60.904246 29.85407 60.904246 29.86468 60.90625 29.875 C 60.91657 29.877004 60.92718 29.877004 60.9375 29.875 C 60.944859 29.888081 60.955669 29.898891 60.96875 29.90625 L 63.78125 29.90625 C 63.79157 29.908254 63.80218 29.908254 63.8125 29.90625 C 63.814504 29.89593 63.814504 29.88532 63.8125 29.875 C 63.82282 29.877004 63.83343 29.877004 63.84375 29.875 C 63.845754 29.86468 63.845754 29.85407 63.84375 29.84375 C 63.856831 29.836391 63.867641 29.825581 63.875 29.8125 L 63.875 26.34375 C 63.873239 25.805844 64.207315 25.325437 64.71875 25.15625 C 64.727883 25.153508 64.740857 25.159037 64.75 25.15625 C 64.762735 25.152368 64.768497 25.12897 64.78125 25.125 C 65.351215 24.947575 65.925387 24.670105 66.5 24.34375 C 66.978897 24.076106 67.574996 24.152272 67.96875 24.53125 L 70.3125 26.84375 C 70.32282 26.845754 70.33343 26.845754 70.34375 26.84375 C 70.351109 26.856831 70.361919 26.867641 70.375 26.875 C 70.388081 26.867641 70.398891 26.856831 70.40625 26.84375 C 70.41657 26.845754 70.42718 26.845754 70.4375 26.84375 L 72.375 24.90625 C 72.377004 24.89593 72.377004 24.88532 72.375 24.875 C 72.388081 24.867641 72.398891 24.856831 72.40625 24.84375 C 72.398891 24.830669 72.388081 24.819859 72.375 24.8125 C 72.377004 24.80218 72.377004 24.79157 72.375 24.78125 L 70.0625 22.46875 C 69.661055 22.06783 69.583466 21.426796 69.875 20.9375 C 70.186899 20.36507 70.451747 19.823266 70.625 19.21875 C 70.776469 18.691122 71.262987 18.317173 71.8125 18.3125 L 75.125 18.3125 C 75.13532 18.314504 75.14593 18.314504 75.15625 18.3125 C 75.158254 18.30218 75.158254 18.29157 75.15625 18.28125 C 75.16657 18.283254 75.17718 18.283254 75.1875 18.28125 C 75.189504 18.27093 75.189504 18.26032 75.1875 18.25 C 75.200581 18.242641 75.211391 18.231831 75.21875 18.21875 L 75.21875 15.40625 C 75.220754 15.39593 75.220754 15.38532 75.21875 15.375 C 75.20843 15.372996 75.19782 15.372996 75.1875 15.375 C 75.189504 15.36468 75.189504 15.35407 75.1875 15.34375 C 75.17718 15.341746 75.16657 15.341746 75.15625 15.34375 C 75.148891 15.330669 75.138081 15.319859 75.125 15.3125 L 71.84375 15.3125 C 71.294237 15.307827 70.807719 14.933878 70.65625 14.40625 C 70.456844 13.692031 70.147768 13.04139 69.78125 12.40625 C 69.502114 11.907298 69.61361 11.264647 70.03125 10.875 L 72.5625 8.5625 C 72.564504 8.5521797 72.564504 8.5415703 72.5625 8.53125 C 72.575581 8.5238911 72.586391 8.5130814 72.59375 8.5 C 72.586391 8.4869186 72.575581 8.4761089 72.5625 8.46875 C 72.564504 8.4584297 72.564504 8.4478203 72.5625 8.4375 L 70.75 6.4375 C 70.73968 6.4354959 70.72907 6.4354959 70.71875 6.4375 C 70.711391 6.4244186 70.700581 6.4136089 70.6875 6.40625 C 70.674419 6.4136089 70.663609 6.4244186 70.65625 6.4375 C 70.64593 6.4354959 70.63532 6.4354959 70.625 6.4375 L 68.0625 8.75 C 68.05218 8.7479959 68.04157 8.7479959 68.03125 8.75 C 68.018169 8.7573589 68.007359 8.7681686 68 8.78125 C 67.98968 8.7792459 67.97907 8.7792459 67.96875 8.78125 C 67.59036 9.2287602 66.956597 9.4066236 66.4375 9.125 C 65.854096 8.7996663 65.265686 8.5200228 64.65625 8.34375 C 64.129395 8.1925024 63.785947 7.7086749 63.78125 7.15625 L 63.78125 3.625 C 63.783254 3.6146797 63.783254 3.6040703 63.78125 3.59375 C 63.77093 3.5917459 63.76032 3.5917459 63.75 3.59375 C 63.752004 3.5834297 63.752004 3.5728203 63.75 3.5625 C 63.73968 3.5604959 63.72907 3.5604959 63.71875 3.5625 C 63.711391 3.5494186 63.700581 3.5386089 63.6875 3.53125 L 60.875 3.53125 C 60.86468 3.5292459 60.85407 3.5292459 60.84375 3.53125 z M 61.65625 11.71875 C 61.840633 11.70085 62.027583 11.71875 62.21875 11.71875 C 65.277423 11.71875 67.5 14.060208 67.5 16.78125 C 67.499999 19.502293 65.277424 21.843749 62.21875 21.84375 C 59.160075 21.843751 56.9375 19.502293 56.9375 16.78125 C 56.937498 14.230275 58.890504 11.987251 61.65625 11.71875 z "
         inkscape:radius="-0.0059234626"
         sodipodi:type="inkscape:offset" />
    </g>
    <path
       style="fill:url(#radialGradient9137);fill-opacity:1;fill-rule:evenodd;stroke:#204a87;stroke-width:1;stroke-linecap:round;stroke-linejoin:round;stroke-miterlimit:4;stroke-dashoffset:0;stroke-opacity:1"
       d="M 10.359835,13.838386 L 46.734839,13.838386 L 38.984839,41.08839 L 2.6098353,41.08839 L 10.359835,13.838386 z"
       id="rect5425"
       sodipodi:nodetypes="ccccc" />
    <path
       sodipodi:type="inkscape:offset"
       inkscape:radius="-0.98437506"
       inkscape:original="M 9.625 14.34375 L 1.875 41.59375 L 38.25 41.59375 L 46 14.34375 L 9.625 14.34375 z "
       style="fill:none;fill-opacity:1;fill-rule:evenodd;stroke:#8fb2e7;stroke-width:1;stroke-linecap:round;stroke-linejoin:miter;stroke-miterlimit:4;stroke-dashoffset:0;stroke-opacity:1"
       id="path7360"
       d="M 10.34375,15.34375 L 3.1875,40.59375 L 37.53125,40.59375 L 44.6875,15.34375 L 10.34375,15.34375 z"
       transform="translate(0.75,-0.5)" />
    <g
       id="g6737"
       transform="translate(-2.2369584,0.9114265)">
      <path
         style="opacity:1;color:#000000;fill:url(#radialGradient3824);fill-opacity:1;fill-rule:nonzero;stroke:#454643;stroke-width:0.9999997;stroke-linecap:butt;stroke-linejoin:miter;marker:none;marker-start:none;marker-mid:none;marker-end:none;stroke-miterlimit:4;stroke-dasharray:none;stroke-dashoffset:0;stroke-opacity:1;visibility:visible;display:inline;overflow:visible"
         d="M 36.331228,19.379925 C 36.018738,19.404198 35.715008,19.443402 35.393728,19.504925 L 34.112474,20.661175 L 38.081228,24.411175 L 38.299978,27.692425 L 35.331228,30.379925 L 31.831224,30.004925 L 28.206224,26.598675 C 28.206223,26.598675 26.924974,27.848675 26.924974,27.848675 C 26.334211,33.489993 32.237474,38.536175 38.299978,35.161175 L 50.143728,47.286174 L 50.143728,36.911175 L 43.581228,29.879925 C 45.708178,23.971722 41.732838,18.960344 36.331228,19.379925 z"
         id="path2140" />
      <path
         d="M 36.40625,20.375 C 36.212782,20.390028 36.033979,20.407994 35.84375,20.4375 L 35.59375,20.6875 L 38.78125,23.6875 C 38.9643,23.859122 39.075892,24.093465 39.09375,24.34375 L 39.3125,27.625 C 39.330526,27.934557 39.203469,28.234873 38.96875,28.4375 L 36,31.125 C 35.795144,31.308145 35.523772,31.398602 35.25,31.375 L 31.75,31 C 31.525988,30.97604 31.316698,30.876903 31.15625,30.71875 L 28.21875,27.96875 C 28.09271,28.091715 28.068864,28.121078 27.96875,28.21875 C 27.829956,30.559302 28.918614,32.77491 30.71875,34.0625 C 32.593484,35.403447 35.085836,35.799186 37.8125,34.28125 C 38.21331,34.05484 38.717028,34.132335 39.03125,34.46875 L 49.15625,44.84375 L 49.15625,37.28125 L 42.875,30.5625 C 42.611411,30.288582 42.526564,29.88859 42.65625,29.53125 C 43.622272,26.847853 43.203599,24.506905 42,22.84375 C 40.796401,21.180595 38.782763,20.1904 36.40625,20.375 z"
         id="path5766"
         style="opacity:1;color:#000000;fill:none;fill-opacity:1;fill-rule:nonzero;stroke:#e3e3e2;stroke-width:0.9999997;stroke-linecap:butt;stroke-linejoin:miter;marker:none;marker-start:none;marker-mid:none;marker-end:none;stroke-miterlimit:4;stroke-dasharray:none;stroke-dashoffset:0;stroke-opacity:1;visibility:visible;display:inline;overflow:visible"
         inkscape:original="M 36.34375 19.375 C 36.031262 19.399273 35.72753 19.438477 35.40625 19.5 L 34.125 20.65625 L 38.09375 24.40625 L 38.3125 27.6875 L 35.34375 30.375 L 31.84375 30 L 28.21875 26.59375 C 28.218749 26.59375 26.9375 27.84375 26.9375 27.84375 C 26.346737 33.485068 32.249996 38.53125 38.3125 35.15625 L 50.15625 47.28125 L 50.15625 36.90625 L 43.59375 29.875 C 45.720702 23.966797 41.74536 18.955419 36.34375 19.375 z "
         inkscape:radius="-0.99672222"
         sodipodi:type="inkscape:offset" />
    </g>
  </g>
</svg>
