<?xml version="1.0" encoding="UTF-8" standalone="no"?>
<!-- Created with Inkscape (http://www.inkscape.org/) -->
<svg
   xmlns:svg="http://www.w3.org/2000/svg"
   xmlns="http://www.w3.org/2000/svg"
   xmlns:xlink="http://www.w3.org/1999/xlink"
   version="1.0"
   width="48"
   height="48"
   id="svg11300">
  <defs
     id="defs3">
    <linearGradient
       id="linearGradient3172">
      <stop
         style="stop-color:#ffffff;stop-opacity:1"
         offset="0"
         id="stop3174" />
      <stop
         style="stop-color:#ffffff;stop-opacity:0"
         offset="1"
         id="stop3176" />
    </linearGradient>
    <linearGradient
       id="linearGradient3237">
      <stop
         style="stop-color:#ffe828;stop-opacity:0.89803922"
         offset="0"
         id="stop3239" />
      <stop
         style="stop-color:#fc2020;stop-opacity:1"
         offset="1"
         id="stop3241" />
    </linearGradient>
    <linearGradient
       id="linearGradient5980">
      <stop
         style="stop-color:#eecb7e;stop-opacity:1"
         offset="0"
         id="stop5982" />
      <stop
         style="stop-color:#c28e1a;stop-opacity:1"
         offset="1"
         id="stop5984" />
    </linearGradient>
    <linearGradient
       id="linearGradient42491">
      <stop
         style="stop-color:#8f5802;stop-opacity:1"
         offset="0"
         id="stop42493" />
      <stop
         style="stop-color:#e5a849;stop-opacity:1"
         offset="0.5"
         id="stop42499" />
      <stop
         style="stop-color:#492d01;stop-opacity:1"
         offset="1"
         id="stop42495" />
    </linearGradient>
    <linearGradient
       id="linearGradient33721">
      <stop
         style="stop-color:#b7b3b3;stop-opacity:1"
         offset="0"
         id="stop33723" />
      <stop
         style="stop-color:#f5f5f5;stop-opacity:1"
         offset="0.5"
         id="stop33729" />
      <stop
         style="stop-color:#c6c6c6;stop-opacity:1"
         offset="0.75"
         id="stop33731" />
      <stop
         style="stop-color:#000000;stop-opacity:1"
         offset="1"
         id="stop33725" />
    </linearGradient>
    <linearGradient
       id="linearGradient47870">
      <stop
         style="stop-color:#000000;stop-opacity:0"
         offset="0"
         id="stop47872" />
      <stop
         style="stop-color:#000000;stop-opacity:1"
         offset="0.5"
         id="stop47878" />
      <stop
         style="stop-color:#000000;stop-opacity:0"
         offset="1"
         id="stop47874" />
    </linearGradient>
    <linearGradient
       id="linearGradient51765">
      <stop
         style="stop-color:#000000;stop-opacity:1"
         offset="0"
         id="stop51767" />
      <stop
         style="stop-color:#000000;stop-opacity:0"
         offset="1"
         id="stop51769" />
    </linearGradient>
    <linearGradient
       x1="16.454552"
       y1="-4.5023899"
       x2="19.423845"
       y2="-2.2712345"
       id="linearGradient2317"
       xlink:href="#linearGradient33721"
       gradientUnits="userSpaceOnUse"
       gradientTransform="matrix(0.9478724,0.5466487,-4.1689478e-2,1.0037969,2.6533376,23.667227)" />
    <radialGradient
       cx="8.688611"
       cy="37.717064"
       r="5.8754182"
       fx="8.688611"
       fy="37.717064"
       id="radialGradient5986"
       xlink:href="#linearGradient5980"
       gradientUnits="userSpaceOnUse"
       gradientTransform="matrix(1,0,0,0.9466848,0,2.1692861)" />
    <radialGradient
       cx="8.386631"
       cy="30.394686"
       r="5.3551712"
       fx="8.386631"
       fy="30.394686"
       id="radialGradient7086"
       xlink:href="#linearGradient3237"
       gradientUnits="userSpaceOnUse"
       gradientTransform="matrix(3.6340908,-3.5272953,3.0000374,2.5133576,-107.53114,-16.883207)" />
    <linearGradient
       x1="20.660782"
       y1="-18.668919"
       x2="24.813282"
       y2="-15.543919"
       id="linearGradient7524"
       xlink:href="#linearGradient42491"
       gradientUnits="userSpaceOnUse"
       gradientTransform="matrix(1.1909701,-1.0438678,-0.9010606,-1.3638166,18.794795,50.247015)" />
    <radialGradient
       cx="51.4375"
       cy="-12.203125"
       r="2.171875"
       fx="51.4375"
       fy="-12.203125"
       id="radialGradient7535"
       xlink:href="#linearGradient51765"
       gradientUnits="userSpaceOnUse"
       gradientTransform="matrix(-4.1286086,-1.3335451,0.5183972,-2.2626183,233.69981,74.644887)" />
    <linearGradient
       x1="32.084972"
       y1="-14.402173"
       x2="32.084972"
       y2="-5.5633383"
       id="linearGradient3274"
       xlink:href="#linearGradient47870"
       gradientUnits="userSpaceOnUse"
       gradientTransform="matrix(2.0643043,0.6667727,0.2546192,-1.1113212,-20.034319,10.415044)" />
    <linearGradient
       x1="40.622032"
       y1="42.869034"
       x2="46.536469"
       y2="45.03899"
       id="linearGradient3280"
       xlink:href="#linearGradient3172"
       gradientUnits="userSpaceOnUse" />
    <mask
       id="mask3276">
      <path
         d="M 8.0261509,22.852881 L 48.083264,32.367508 L 48.145764,49.400887 L 3.7905538,38.092067 L 8.0261509,22.852881 z "
         style="fill:url(#linearGradient3280);fill-opacity:1;fill-rule:evenodd;stroke:none;stroke-width:1;stroke-linecap:butt;stroke-linejoin:bevel;stroke-miterlimit:4;stroke-dashoffset:0;stroke-opacity:1"
         id="path3278" />
    </mask>
    <linearGradient
       x1="40.622032"
       y1="42.869034"
       x2="46.536469"
       y2="45.03899"
       id="linearGradient3286"
       xlink:href="#linearGradient3172"
       gradientUnits="userSpaceOnUse" />
    <mask
       id="mask3282">
      <path
         d="M 8.0261509,22.852881 L 48.083264,32.367508 L 48.145764,49.400887 L 3.7905538,38.092067 L 8.0261509,22.852881 z "
         style="fill:url(#linearGradient3286);fill-opacity:1;fill-rule:evenodd;stroke:none;stroke-width:1;stroke-linecap:butt;stroke-linejoin:bevel;stroke-miterlimit:4;stroke-dashoffset:0;stroke-opacity:1"
         id="path3284" />
    </mask>
  </defs>
  <g
     id="layer1">
    <path
       d="M 16.125,28.743032 L 13.875,38.57211 L 43.0625,48 L 48.03125,48 L 48.03125,39.059265 L 16.125,28.743032 z "
       style="opacity:0.3;fill:url(#linearGradient3274);fill-opacity:1;fill-rule:evenodd;stroke:none;stroke-width:1.02400005;stroke-linecap:butt;stroke-linejoin:miter;stroke-miterlimit:4;stroke-dasharray:none;stroke-dashoffset:0;stroke-opacity:1"
       mask="url(#mask3282)"
       id="rect46899" />
    <g
       mask="url(#mask3276)"
       id="g3193">
      <path
         d="M 31.28125,38.34375 C 28.610557,38.328972 30.03572,39.626947 34.71875,42.375 C 38.021448,44.313061 40.821361,45.601252 45.043544,47.491767 L 47.50092,47.513864 L 47.50092,41.53282 C 42.636377,40.129814 39.201173,39.399652 35.34375,38.78125 C 33.507798,38.486919 32.171481,38.348676 31.28125,38.34375 z "
         style="fill:url(#linearGradient7524);fill-opacity:1;fill-rule:evenodd;stroke:#473418;stroke-width:1.08446872px;stroke-linecap:butt;stroke-linejoin:miter;stroke-opacity:1"
         id="path37633" />
      <path
         d="M 31.0625,39.0625 C 31.213281,39.199381 31.318747,39.318289 31.5625,39.5 C 32.324225,40.067847 33.543712,40.809171 35.09375,41.71875 C 38.775073,43.878991 40.22424,44.568099 45.211706,46.696272 L 46.793813,46.762563 L 46.749619,42.150238 C 41.852711,40.716169 39.18377,40.151872 35.3125,39.53125 C 33.493203,39.239589 32.12586,39.065988 31.3125,39.0625 C 31.18946,39.061972 31.160626,39.05643 31.0625,39.0625 z "
         style="fill:none;fill-opacity:1;fill-rule:evenodd;stroke:#e6d1b0;stroke-width:0.5;stroke-linecap:butt;stroke-linejoin:miter;stroke-miterlimit:4;stroke-dasharray:none;stroke-opacity:1"
         id="path3286" />
    </g>
    <path
       d="M 13.88255,38.575798 L 16.134339,28.74755 C 11.182831,27.188057 6.66164,28.059229 6.0456017,30.748015 C 5.4295638,33.436799 8.9480418,36.942096 13.88255,38.575798 z "
       style="opacity:0.3;fill:url(#radialGradient7535);fill-opacity:1;fill-rule:evenodd;stroke:none;stroke-width:1.02400005;stroke-linecap:butt;stroke-linejoin:miter;stroke-miterlimit:4;stroke-dasharray:none;stroke-dashoffset:0;stroke-opacity:1"
       id="path52742" />
    <g
       transform="matrix(1.3325275,-0.5787988,-0.6087275,-1.3722288,31.964184,94.364565)"
       id="g5990">
      <path
         d="M 7.0292526,36.661846 C 8.4879863,35.234857 10.61662,35.444211 11.785526,36.313586 C 12.954431,37.18296 12.926454,38.539016 12.416931,40.014571 C 11.922971,41.445055 10.570821,42.507167 8.3000182,43.108874 C 6.9005588,43.534253 4.4659299,43.954198 2.4695184,45.556042 C 0.44500882,47.18043 5.5423153,38.116425 7.0292526,36.661846 z "
         style="fill:url(#radialGradient5986);fill-opacity:1;fill-rule:evenodd;stroke:#60431e;stroke-width:0.67715138;stroke-linecap:butt;stroke-linejoin:miter;stroke-miterlimit:4;stroke-dasharray:none;stroke-opacity:1"
         id="path30779" />
      <path
         d="M 9.53125,36.09375 C 8.7726252,36.109055 7.9811285,36.376492 7.34375,37 C 7.0501795,37.287182 6.4608297,38.137622 5.8125,39.15625 C 5.1641703,40.174878 4.4417551,41.387096 3.84375,42.5 C 3.3291423,43.457699 2.9860354,44.240795 2.75,44.84375 C 4.736585,43.482611 6.9617723,43.028821 8.1875,42.65625 C 10.370433,42.077826 11.535889,41.097294 11.96875,39.84375 C 12.210303,39.144223 12.311368,38.491395 12.25,37.96875 C 12.188632,37.446105 11.990302,37.052162 11.5,36.6875 C 11.00597,36.320065 10.288289,36.078477 9.53125,36.09375 z "
         style="fill:none;fill-opacity:1;fill-rule:evenodd;stroke:#ead4b9;stroke-width:0.33857569;stroke-linecap:butt;stroke-linejoin:miter;stroke-miterlimit:4;stroke-dasharray:none;stroke-opacity:1"
         id="path5597" />
    </g>
    <g
       transform="matrix(1.3325275,-0.5787988,-0.6087275,-1.3722288,32.859738,94.49791)"
       id="g5995">
      <path
         d="M 17.806263,27.711354 C 18.337847,29.72588 19.487359,30.996006 20.920048,31.924992 L 12.264939,38.362567 C 11.285994,37.883651 10.663753,36.989869 10.336513,35.752984 L 17.806263,27.711354 z "
         style="fill:url(#linearGradient2317);fill-opacity:1;fill-rule:evenodd;stroke:#585858;stroke-width:0.67715138;stroke-linecap:round;stroke-linejoin:round;stroke-miterlimit:4;stroke-dasharray:none;stroke-dashoffset:0;stroke-opacity:1"
         id="rect30783" />
      <path
         d="M 17.625,28.59375 L 10.90625,35.84375 C 11.183295,36.740669 11.61891,37.385496 12.25,37.78125 L 20.125,31.9375 C 19.057256,31.12709 18.166772,30.047475 17.625,28.59375 z "
         style="fill:none;fill-opacity:1;fill-rule:evenodd;stroke:#e6e6e6;stroke-width:0.33857569;stroke-linecap:round;stroke-linejoin:round;stroke-miterlimit:4;stroke-dasharray:none;stroke-dashoffset:0;stroke-opacity:1"
         id="path4433" />
    </g>
    <path
       d="M 6.6633734,30.463775 C 4.9623298,27.668163 7.6980261,15.69125 9.9204633,10.488318 C 11.071903,12.989608 10.65568,17.646195 11.533912,25.540837 C 11.259326,15.947292 13.246859,12.519132 15.815577,5.9665166 C 17.291286,11.557773 17.909359,15.846128 16.619663,25.523325 C 17.344421,22.792985 18.607457,17.127992 20.32273,15.087833 C 20.798793,16.405185 23.000138,23.496788 21.870148,30.717907 C 16.825066,30.646798 15.448626,32.981721 13.090953,35.461832 C 12.223043,36.374814 7.2692048,31.562351 6.6633734,30.463775 z "
       style="fill:url(#radialGradient7086);fill-opacity:1;fill-rule:evenodd;stroke:#d27212;stroke-width:1px;stroke-linecap:round;stroke-linejoin:round;stroke-opacity:1"
       id="path2275" />
    <path
       d="M 15.625,8.90625 C 13.642321,13.791371 12.145559,17.483726 12.375,25.5 C 12.409518,25.96599 12.05974,26.371732 11.59375,26.40625 C 11.12776,26.440768 10.722018,26.09099 10.6875,25.625 C 10.076537,20.132901 10.006271,16.263864 9.71875,13.65625 C 8.9330045,16.032504 8.1774706,18.746782 7.65625,21.53125 C 7.2880348,23.498332 7.0179282,25.407594 6.96875,26.9375 C 6.9195718,28.467406 7.1411952,29.646999 7.375,30.03125 C 7.3856871,30.041393 7.3961074,30.051813 7.40625,30.0625 C 7.4480426,30.138284 7.8626414,30.679925 8.40625,31.25 C 8.9498586,31.820075 9.6552453,32.501073 10.34375,33.09375 C 11.032255,33.686427 11.708476,34.209219 12.21875,34.5 C 12.415062,34.611869 12.554141,34.621304 12.65625,34.65625 C 13.714382,33.519048 14.677767,32.360353 16,31.4375 C 17.237861,30.573534 18.891851,30.071419 21.0625,29.96875 C 21.770185,24.47106 20.710267,19.801984 20,17.34375 C 19.611125,18.208754 19.238108,19.229532 18.90625,20.3125 C 18.300647,22.28879 17.806233,24.360894 17.4375,25.75 C 17.342576,26.207361 16.894861,26.501174 16.4375,26.40625 C 15.980139,26.311326 15.686326,25.863611 15.78125,25.40625 C 16.844119,17.43104 16.573629,13.262918 15.625,8.90625 z "
       style="fill:none;fill-opacity:1;fill-rule:evenodd;stroke:#e69748;stroke-width:1px;stroke-linecap:round;stroke-linejoin:miter;stroke-opacity:1"
       id="path6197" />
    <path
       d="M 9.242188,13.507811 L 9.8750005,11.984373 L 10.218751,13.617186 L 9.242188,13.507811 z "
       style="fill:#e69748;fill-opacity:1;fill-rule:evenodd;stroke:none;stroke-width:1px;stroke-linecap:butt;stroke-linejoin:miter;stroke-opacity:1"
       id="path6199" />
  </g>
</svg>
