<?xml version="1.0" encoding="UTF-8" standalone="no"?>
<!-- Created with Inkscape (http://www.inkscape.org/) -->
<svg
   xmlns:dc="http://purl.org/dc/elements/1.1/"
   xmlns:cc="http://web.resource.org/cc/"
   xmlns:rdf="http://www.w3.org/1999/02/22-rdf-syntax-ns#"
   xmlns:svg="http://www.w3.org/2000/svg"
   xmlns="http://www.w3.org/2000/svg"
   xmlns:xlink="http://www.w3.org/1999/xlink"
   xmlns:sodipodi="http://sodipodi.sourceforge.net/DTD/sodipodi-0.dtd"
   xmlns:inkscape="http://www.inkscape.org/namespaces/inkscape"
   inkscape:export-ydpi="90.000000"
   inkscape:export-xdpi="90.000000"
   inkscape:export-filename="/home/patrick/Desktop/images.png"
   width="48px"
   height="48px"
   id="svg11300"
   sodipodi:version="0.32"
   inkscape:version="0.45+devel"
   sodipodi:docbase="/home/patrick/Projects/Beryl/svn/beryl/trunk/beryl-settings/images"
   sodipodi:docname="plugin-firepaint.svg"
   inkscape:output_extension="org.inkscape.output.svg.inkscape">
  <defs
     id="defs3">
    <linearGradient
       id="linearGradient3237">
      <stop
         style="stop-color:#fce94f;stop-opacity:0.89565217;"
         offset="0"
         id="stop3239" />
      <stop
         style="stop-color:#fc2020;stop-opacity:1;"
         offset="1"
         id="stop3241" />
    </linearGradient>
    <linearGradient
       id="linearGradient5980">
      <stop
         style="stop-color:#eecb7e;stop-opacity:1;"
         offset="0"
         id="stop5982" />
      <stop
         style="stop-color:#c28e1a;stop-opacity:1;"
         offset="1"
         id="stop5984" />
    </linearGradient>
    <linearGradient
       id="linearGradient42491">
      <stop
         style="stop-color:#8f5802;stop-opacity:1;"
         offset="0"
         id="stop42493" />
      <stop
         id="stop42499"
         offset="0.5"
         style="stop-color:#e5a849;stop-opacity:1;" />
      <stop
         style="stop-color:#492d01;stop-opacity:1;"
         offset="1"
         id="stop42495" />
    </linearGradient>
    <linearGradient
       id="linearGradient33721">
      <stop
         style="stop-color:#b7b3b3;stop-opacity:1;"
         offset="0"
         id="stop33723" />
      <stop
         id="stop33729"
         offset="0.5"
         style="stop-color:#f5f5f5;stop-opacity:1;" />
      <stop
         style="stop-color:#c6c6c6;stop-opacity:1;"
         offset="0.75"
         id="stop33731" />
      <stop
         style="stop-color:#000000;stop-opacity:1;"
         offset="1"
         id="stop33725" />
    </linearGradient>
    <linearGradient
       id="linearGradient47870">
      <stop
         id="stop47872"
         offset="0"
         style="stop-color:#000000;stop-opacity:0" />
      <stop
         id="stop47878"
         offset="0.5"
         style="stop-color:#000000;stop-opacity:1" />
      <stop
         id="stop47874"
         offset="1"
         style="stop-color:#000000;stop-opacity:0" />
    </linearGradient>
    <linearGradient
       id="linearGradient51765">
      <stop
         id="stop51767"
         offset="0"
         style="stop-color:#000000;stop-opacity:1" />
      <stop
         id="stop51769"
         offset="1"
         style="stop-color:#000000;stop-opacity:0" />
    </linearGradient>
    <linearGradient
       inkscape:collect="always"
       xlink:href="#linearGradient33721"
       id="linearGradient2317"
       gradientUnits="userSpaceOnUse"
       gradientTransform="matrix(0.9478724,0.5466487,-4.1689478e-2,1.0037969,2.6533376,23.667227)"
       x1="16.454552"
       y1="-4.5023899"
       x2="19.423845"
       y2="-2.2712345" />
    <radialGradient
       inkscape:collect="always"
       xlink:href="#linearGradient5980"
       id="radialGradient5986"
       cx="8.688611"
       cy="37.717064"
       fx="8.688611"
       fy="37.717064"
       r="5.8754181"
       gradientTransform="matrix(1,0,0,0.9466848,0,2.1692861)"
       gradientUnits="userSpaceOnUse" />
    <radialGradient
       inkscape:collect="always"
       xlink:href="#linearGradient3237"
       id="radialGradient7086"
       gradientUnits="userSpaceOnUse"
       gradientTransform="matrix(3.6340908,-3.5272953,3.0000374,2.5133576,-107.53114,-16.883207)"
       cx="8.386631"
       cy="30.394686"
       fx="8.386631"
       fy="30.394686"
       r="5.3551711" />
    <linearGradient
       inkscape:collect="always"
       xlink:href="#linearGradient42491"
       id="linearGradient7524"
       gradientUnits="userSpaceOnUse"
       gradientTransform="matrix(1.1909701,-1.0438678,-0.9010606,-1.3638166,18.794795,50.247015)"
       x1="20.660782"
       y1="-18.668919"
       x2="24.813282"
       y2="-15.543919" />
    <radialGradient
       inkscape:collect="always"
       xlink:href="#linearGradient51765"
       id="radialGradient7535"
       gradientUnits="userSpaceOnUse"
       gradientTransform="matrix(-4.1286086,-1.3335451,0.5183972,-2.2626183,233.69981,74.644887)"
       cx="51.4375"
       cy="-12.203125"
       fx="51.4375"
       fy="-12.203125"
       r="2.171875" />
    <linearGradient
       inkscape:collect="always"
       xlink:href="#linearGradient47870"
       id="linearGradient7541"
       gradientUnits="userSpaceOnUse"
       gradientTransform="matrix(2.0643043,0.6667727,0.2546192,-1.1113212,-20.034319,10.415044)"
       x1="32.084972"
       y1="-14.402173"
       x2="32.084972"
       y2="-5.5633383" />
  </defs>
  <sodipodi:namedview
     stroke="#ef2929"
     fill="#eeeeec"
     id="base"
     pagecolor="#ffffff"
     bordercolor="#666666"
     borderopacity="0.25490196"
     inkscape:pageopacity="0.0"
     inkscape:pageshadow="2"
     inkscape:zoom="0.99999995"
     inkscape:cx="14.866751"
     inkscape:cy="23.829048"
     inkscape:current-layer="layer1"
     showgrid="false"
     inkscape:grid-bbox="true"
     inkscape:document-units="px"
     inkscape:showpageshadow="false"
     inkscape:window-width="1280"
     inkscape:window-height="724"
     inkscape:window-x="0"
     inkscape:window-y="49"
     showguides="true"
     inkscape:guide-bbox="true" />
  <metadata
     id="metadata4">
    <rdf:RDF>
      <cc:Work
         rdf:about="">
        <dc:format>image/svg+xml</dc:format>
        <dc:type
           rdf:resource="http://purl.org/dc/dcmitype/StillImage" />
        <dc:creator>
          <cc:Agent>
            <dc:title>Patrick Niklaus</dc:title>
          </cc:Agent>
        </dc:creator>
        <dc:source />
        <cc:license
           rdf:resource="http://creativecommons.org/licenses/GPL/2.0/" />
        <dc:title>Image</dc:title>
        <dc:subject>
          <rdf:Bag />
        </dc:subject>
      </cc:Work>
      <cc:License
         rdf:about="http://creativecommons.org/licenses/GPL/2.0/">
        <cc:permits
           rdf:resource="http://web.resource.org/cc/Reproduction" />
        <cc:permits
           rdf:resource="http://web.resource.org/cc/Distribution" />
        <cc:requires
           rdf:resource="http://web.resource.org/cc/Notice" />
        <cc:permits
           rdf:resource="http://web.resource.org/cc/DerivativeWorks" />
        <cc:requires
           rdf:resource="http://web.resource.org/cc/ShareAlike" />
        <cc:requires
           rdf:resource="http://web.resource.org/cc/SourceCode" />
      </cc:License>
    </rdf:RDF>
  </metadata>
  <g
     id="layer1"
     inkscape:label="Layer 1"
     inkscape:groupmode="layer">
    <path
       style="opacity:0.3;fill:url(#linearGradient7541);fill-opacity:1;fill-rule:evenodd;stroke:none;stroke-width:1.02400005;stroke-linecap:butt;stroke-linejoin:miter;stroke-miterlimit:4;stroke-dasharray:none;stroke-dashoffset:0;stroke-opacity:1"
       d="M 16.125,28.743032 L 13.875,38.57211 L 43.0625,48 L 48.03125,48 L 48.03125,39.059265 L 16.125,28.743032 z"
       id="rect46899" />
    <path
       id="path52742"
       style="opacity:0.3;fill:url(#radialGradient7535);fill-opacity:1;fill-rule:evenodd;stroke:none;stroke-width:1.02400005;stroke-linecap:butt;stroke-linejoin:miter;stroke-miterlimit:4;stroke-dasharray:none;stroke-dashoffset:0;stroke-opacity:1"
       d="M 13.88255,38.575798 L 16.134339,28.74755 C 11.182831,27.188057 6.66164,28.059229 6.0456017,30.748015 C 5.4295638,33.436799 8.9480418,36.942096 13.88255,38.575798 z" />
    <path
       style="fill:url(#linearGradient7524);fill-opacity:1;fill-rule:evenodd;stroke:#473418;stroke-width:1.08446872000000005px;stroke-linecap:butt;stroke-linejoin:miter;stroke-opacity:1"
       d="M 31.28125,38.34375 C 28.610557,38.328972 30.03572,39.626947 34.71875,42.375 C 38.021448,44.313061 40.821361,45.601252 45.043544,47.491767 L 47.50092,47.513864 L 47.50092,41.53282 C 42.636377,40.129814 39.201173,39.399652 35.34375,38.78125 C 33.507798,38.486919 32.171481,38.348676 31.28125,38.34375 z"
       id="path37633"
       sodipodi:nodetypes="cscccsc" />
    <path
       style="fill:none;fill-opacity:1;fill-rule:evenodd;stroke:#e6d1b0;stroke-width:0.5;stroke-linecap:butt;stroke-linejoin:miter;stroke-miterlimit:4;stroke-dasharray:none;stroke-opacity:1"
       d="M 31.0625,39.0625 C 31.213281,39.199381 31.318747,39.318289 31.5625,39.5 C 32.324225,40.067847 33.543712,40.809171 35.09375,41.71875 C 38.775073,43.878991 40.22424,44.568099 45.211706,46.696272 L 46.793813,46.762563 L 46.749619,42.150238 C 41.852711,40.716169 39.18377,40.151872 35.3125,39.53125 C 33.493203,39.239589 32.12586,39.065988 31.3125,39.0625 C 31.18946,39.061972 31.160626,39.05643 31.0625,39.0625 z"
       id="path3286"
       sodipodi:nodetypes="csscccssc" />
    <g
       id="g5990"
       transform="matrix(1.3325275,-0.5787988,-0.6087275,-1.3722288,31.964184,94.364565)">
      <path
         sodipodi:nodetypes="czzczz"
         id="path30779"
         d="M 7.0292526,36.661846 C 8.4879863,35.234857 10.61662,35.444211 11.785526,36.313586 C 12.954431,37.18296 12.926454,38.539016 12.416931,40.014571 C 11.922971,41.445055 10.570821,42.507167 8.3000182,43.108874 C 6.9005588,43.534253 4.4659299,43.954198 2.4695184,45.556042 C 0.44500882,47.18043 5.5423153,38.116425 7.0292526,36.661846 z"
         style="fill:url(#radialGradient5986);fill-opacity:1;fill-rule:evenodd;stroke:#60431e;stroke-width:0.67715138;stroke-linecap:butt;stroke-linejoin:miter;stroke-miterlimit:4;stroke-dasharray:none;stroke-opacity:1" />
      <path
         d="M 9.53125,36.09375 C 8.7726252,36.109055 7.9811285,36.376492 7.34375,37 C 7.0501795,37.287182 6.4608297,38.137622 5.8125,39.15625 C 5.1641703,40.174878 4.4417551,41.387096 3.84375,42.5 C 3.3291423,43.457699 2.9860354,44.240795 2.75,44.84375 C 4.736585,43.482611 6.9617723,43.028821 8.1875,42.65625 C 10.370433,42.077826 11.535889,41.097294 11.96875,39.84375 C 12.210303,39.144223 12.311368,38.491395 12.25,37.96875 C 12.188632,37.446105 11.990302,37.052162 11.5,36.6875 C 11.00597,36.320065 10.288289,36.078477 9.53125,36.09375 z"
         id="path5597"
         style="fill:none;fill-opacity:1;fill-rule:evenodd;stroke:#ead4b9;stroke-width:0.33857569;stroke-linecap:butt;stroke-linejoin:miter;stroke-miterlimit:4;stroke-dasharray:none;stroke-opacity:1"
         inkscape:original="M 9.53125 35.625 C 8.6706366 35.642363 7.7606169 35.942755 7.03125 36.65625 C 5.5443127 38.110829 0.4442404 47.186888 2.46875 45.5625 C 4.4651615 43.960656 6.9130405 43.519128 8.3125 43.09375 C 10.583303 42.492043 11.91229 41.430483 12.40625 40 C 12.915773 38.524445 12.950155 37.181873 11.78125 36.3125 C 11.196797 35.877813 10.391863 35.607637 9.53125 35.625 z "
         inkscape:radius="-0.46710816"
         sodipodi:type="inkscape:offset" />
    </g>
    <g
       id="g5995"
       transform="matrix(1.3325275,-0.5787988,-0.6087275,-1.3722288,31.964184,94.364565)">
      <path
         inkscape:transform-center-y="-1.5383773"
         sodipodi:nodetypes="ccccc"
         id="rect30783"
         d="M 17.806263,27.711354 C 18.337847,29.72588 19.487359,30.996006 20.920048,31.924992 L 12.264939,38.362567 C 11.285994,37.883651 10.663753,36.989869 10.336513,35.752984 L 17.806263,27.711354 z"
         style="fill:url(#linearGradient2317);fill-opacity:1;fill-rule:evenodd;stroke:#585858;stroke-width:0.67715138;stroke-linecap:round;stroke-linejoin:round;stroke-miterlimit:4;stroke-dasharray:none;stroke-dashoffset:0;stroke-opacity:1" />
      <path
         d="M 17.625,28.59375 L 10.90625,35.84375 C 11.183295,36.740669 11.61891,37.385496 12.25,37.78125 L 20.125,31.9375 C 19.057256,31.12709 18.166772,30.047475 17.625,28.59375 z"
         id="path4433"
         style="fill:none;fill-opacity:1;fill-rule:evenodd;stroke:#e6e6e6;stroke-width:0.33857569;stroke-linecap:round;stroke-linejoin:round;stroke-miterlimit:4;stroke-dasharray:none;stroke-dashoffset:0;stroke-opacity:1"
         inkscape:original="M 17.8125 27.71875 L 10.34375 35.75 C 10.67099 36.986885 11.271055 37.896083 12.25 38.375 L 20.90625 31.9375 C 19.473561 31.008514 18.344084 29.733277 17.8125 27.71875 z "
         inkscape:radius="-0.46965063"
         sodipodi:type="inkscape:offset" />
    </g>
    <path
       style="fill:url(#radialGradient7086);fill-opacity:1;fill-rule:evenodd;stroke:#d27212;stroke-width:1px;stroke-linecap:round;stroke-linejoin:round;stroke-opacity:1"
       d="M 6.7883734,30.713775 C 6.2086503,21.917401 7.6355261,16.50375 9.8579633,11.300818 C 11.009403,13.802108 11.677127,21.303365 12.033912,25.665837 C 12.530997,17.963847 11.549766,7.3648769 14.028642,2.392752 C 15.098864,16.865734 15.215812,16.061629 14.748247,20.42888 C 15.814865,14.407719 15.192817,8.2939086 17.836488,4.8036127 C 18.382387,8.1101221 19.663094,9.1466993 17.271054,26.972893 C 17.253115,27.106577 20.278039,13.573876 21.01023,14.337833 C 21.673793,15.030185 24.506958,31.404181 22.807648,31.780407 C 19.972935,30.972508 17.050472,31.343606 12.403453,34.586832 C 11.370469,35.307767 7.3942048,31.812351 6.7883734,30.713775 z"
       id="path2275"
       sodipodi:nodetypes="ccccccsscsc" />
    <path
       style="fill:none;fill-opacity:1;fill-rule:evenodd;stroke:#f9ebac;stroke-width:0.5;stroke-linecap:butt;stroke-linejoin:miter;stroke-miterlimit:4;stroke-opacity:1"
       d="M 13.587257,6.5854511 C 13.217388,8.885585 13.025681,10.557569 12.948084,13.108128 C 12.820785,17.292348 12.940629,21.850536 12.689612,25.709804 C 12.665229,26.019875 12.376153,26.259827 12.028766,26.258349 C 11.681379,26.256869 11.394867,26.014468 11.373783,25.704204 C 11.195553,23.541814 10.947873,20.606921 10.595861,17.911317 C 10.387521,16.31591 10.034647,14.717321 9.757742,13.512926 C 7.4689514,17.943378 7.1736048,24.357748 7.3784709,30.093283 C 7.4434221,30.853602 10.809565,33.888334 12.005516,33.961715 C 13.363893,34.045061 16.197649,29.433502 22.452529,31.177186 C 23.440532,31.452613 21.506947,18.373859 20.836697,16.288571 C 19.767909,19.136997 18.208527,26.340765 17.989917,27.005607 C 17.74691,27.74465 16.908485,27.745096 16.54216,27.209223 C 17.782764,18.145908 18.086879,13.578949 18.012925,10.677265 C 17.969343,8.9672725 17.685113,7.9497177 17.493533,7.0243136 C 16.863521,8.3785732 16.564954,9.9564303 16.348081,11.825666 C 16.038263,14.496003 15.926155,17.530253 15.384302,20.565411 C 15.313566,20.865374 14.997857,21.066875 14.657854,21.029065 C 14.317852,20.991255 14.066871,20.726736 14.080347,20.420406 C 14.314075,18.254166 14.301168,17.440374 14.251057,15.320027 C 14.194754,12.846908 13.840271,9.9980725 13.587257,6.5854511 z"
       id="path4773"
       sodipodi:nodetypes="cscscsccsscscscscscsc" />
    <path
       style="fill:#f9ebac;fill-opacity:1;fill-rule:evenodd;stroke:none;stroke-width:1px;stroke-linecap:butt;stroke-linejoin:miter;stroke-opacity:1"
       d="M 13.692615,4.7281425 C 13.574177,5.2496913 13.362379,6.2408736 13.336142,6.5777148 L 13.836341,6.5871848 C 13.78542,6.1435665 13.756564,5.1688373 13.692615,4.7281425 z"
       id="path6302"
       sodipodi:nodetypes="cccc" />
  </g>
</svg>
