<?xml version="1.0" encoding="UTF-8" standalone="no"?>
<!-- Created with Inkscape (http://www.inkscape.org/) -->
<svg
   xmlns:dc="http://purl.org/dc/elements/1.1/"
   xmlns:cc="http://web.resource.org/cc/"
   xmlns:rdf="http://www.w3.org/1999/02/22-rdf-syntax-ns#"
   xmlns:svg="http://www.w3.org/2000/svg"
   xmlns="http://www.w3.org/2000/svg"
   xmlns:xlink="http://www.w3.org/1999/xlink"
   xmlns:sodipodi="http://sodipodi.sourceforge.net/DTD/sodipodi-0.dtd"
   xmlns:inkscape="http://www.inkscape.org/namespaces/inkscape"
   inkscape:export-ydpi="90.000000"
   inkscape:export-xdpi="90.000000"
   inkscape:export-filename="/home/jimmac/Desktop/wi-fi.png"
   width="48px"
   height="48px"
   id="svg11300"
   sodipodi:version="0.32"
   inkscape:version="0.45"
   sodipodi:docbase="/home/patrick/Projects/Fusion/config/ccsm/images"
   sodipodi:docname="plugin-ring.svg"
   inkscape:output_extension="org.inkscape.output.svg.inkscape"
   sodipodi:modified="true">
  <defs
     id="defs3">
    <linearGradient
       inkscape:collect="always"
       id="linearGradient3427">
      <stop
         style="stop-color:#000000;stop-opacity:1;"
         offset="0"
         id="stop3429" />
      <stop
         style="stop-color:#000000;stop-opacity:0;"
         offset="1"
         id="stop3431" />
    </linearGradient>
    <linearGradient
       id="linearGradient8440">
      <stop
         style="stop-color:#edeeec;stop-opacity:1;"
         offset="0"
         id="stop8442" />
      <stop
         style="stop-color:#babdb6;stop-opacity:1;"
         offset="1"
         id="stop8444" />
    </linearGradient>
    <linearGradient
       id="linearGradient11931">
      <stop
         id="stop11933"
         offset="0"
         style="stop-color:#b4b6b2;stop-opacity:1;" />
      <stop
         id="stop11935"
         offset="1"
         style="stop-color:#555753;stop-opacity:1;" />
    </linearGradient>
    <linearGradient
       id="linearGradient16809">
      <stop
         id="stop16811"
         offset="0"
         style="stop-color:#9ea09c;stop-opacity:1;" />
      <stop
         id="stop16813"
         offset="1"
         style="stop-color:#555753;stop-opacity:1;" />
    </linearGradient>
    <linearGradient
       id="linearGradient17794"
       inkscape:collect="always">
      <stop
         id="stop17796"
         offset="0"
         style="stop-color:#000000;stop-opacity:1;" />
      <stop
         id="stop17798"
         offset="1"
         style="stop-color:#000000;stop-opacity:0;" />
    </linearGradient>
    <radialGradient
       inkscape:collect="always"
       xlink:href="#linearGradient11931"
       id="radialGradient2419"
       gradientUnits="userSpaceOnUse"
       gradientTransform="matrix(-0.6206335,0.2235578,-0.1682657,-0.5814385,-15.261905,58.912316)"
       cx="-54.677574"
       cy="22.291353"
       fx="-54.677574"
       fy="22.291353"
       r="9.5646261" />
    <linearGradient
       inkscape:collect="always"
       xlink:href="#linearGradient16809"
       id="linearGradient2421"
       gradientUnits="userSpaceOnUse"
       x1="28.254738"
       y1="9.2744694"
       x2="37.11544"
       y2="12.055719" />
    <radialGradient
       inkscape:collect="always"
       xlink:href="#linearGradient17794"
       id="radialGradient2423"
       gradientUnits="userSpaceOnUse"
       gradientTransform="matrix(1,0,0,0.3651452,0,-5.872409)"
       cx="6.5573316"
       cy="-4.6285543"
       fx="6.5573316"
       fy="-4.6285543"
       r="15.062501" />
    <radialGradient
       inkscape:collect="always"
       xlink:href="#linearGradient8440"
       id="radialGradient2245"
       gradientUnits="userSpaceOnUse"
       gradientTransform="matrix(0.5127519,0.3745031,-0.5029349,0.6514359,-11.643961,-16.193599)"
       cx="56.704376"
       cy="10.241054"
       fx="56.704376"
       fy="10.241054"
       r="14.75" />
    <radialGradient
       inkscape:collect="always"
       xlink:href="#linearGradient8440"
       id="radialGradient2247"
       gradientUnits="userSpaceOnUse"
       gradientTransform="matrix(0.2395866,0.4251895,-0.5706382,0.3059781,19.109791,-0.3381743)"
       cx="56.704376"
       cy="10.241054"
       fx="56.704376"
       fy="10.241054"
       r="14.75" />
    <radialGradient
       inkscape:collect="always"
       xlink:href="#linearGradient3427"
       id="radialGradient2249"
       gradientUnits="userSpaceOnUse"
       gradientTransform="matrix(1,0,0,0.1985816,0,23.79211)"
       cx="17.03125"
       cy="29.6875"
       fx="17.03125"
       fy="29.6875"
       r="4.40625" />
    <radialGradient
       inkscape:collect="always"
       xlink:href="#linearGradient3427"
       id="radialGradient2251"
       gradientUnits="userSpaceOnUse"
       gradientTransform="matrix(1,0,0,0.1985816,0,23.79211)"
       cx="17.03125"
       cy="29.6875"
       fx="17.03125"
       fy="29.6875"
       r="4.40625" />
    <radialGradient
       r="17.890625"
       fy="9.8194771"
       fx="9.8119087"
       cy="9.8194771"
       cx="9.8119087"
       gradientTransform="matrix(6.2470754e-3,1.3863151,-3.5482495,1.5989371e-2,44.592567,-6.9594387)"
       gradientUnits="userSpaceOnUse"
       id="radialGradient15931"
       xlink:href="#linearGradient11995"
       inkscape:collect="always" />
    <linearGradient
       y2="5.3968143"
       x2="10.834411"
       y1="66.738335"
       x1="101.05743"
       gradientUnits="userSpaceOnUse"
       id="linearGradient15929"
       xlink:href="#linearGradient6159"
       inkscape:collect="always" />
    <linearGradient
       id="linearGradient42491">
      <stop
         style="stop-color:#8f5802;stop-opacity:1;"
         offset="0"
         id="stop42493" />
      <stop
         id="stop42499"
         offset="0.5"
         style="stop-color:#d68301;stop-opacity:1;" />
      <stop
         style="stop-color:#492d01;stop-opacity:1;"
         offset="1"
         id="stop42495" />
    </linearGradient>
    <linearGradient
       id="linearGradient33721">
      <stop
         style="stop-color:#b7b3b3;stop-opacity:1;"
         offset="0"
         id="stop33723" />
      <stop
         id="stop33729"
         offset="0.5"
         style="stop-color:#f5f5f5;stop-opacity:1;" />
      <stop
         style="stop-color:#c6c6c6;stop-opacity:1;"
         offset="0.75"
         id="stop33731" />
      <stop
         style="stop-color:#000000;stop-opacity:1;"
         offset="1"
         id="stop33725" />
    </linearGradient>
    <linearGradient
       id="linearGradient29760">
      <stop
         style="stop-color:#e9b96c;stop-opacity:1;"
         offset="0"
         id="stop29762" />
      <stop
         style="stop-color:#c17d11;stop-opacity:1;"
         offset="1"
         id="stop29764" />
    </linearGradient>
    <linearGradient
       y2="-5.5633383"
       x2="32.084972"
       y1="-14.402173"
       x1="32.084972"
       gradientTransform="matrix(0.982794,0,0,0.9842658,-9.9809772,53.029792)"
       gradientUnits="userSpaceOnUse"
       id="linearGradient6452"
       xlink:href="#linearGradient47870"
       inkscape:collect="always" />
    <radialGradient
       r="2.171875"
       fy="-12.203125"
       fx="51.4375"
       cy="-12.203125"
       cx="51.4375"
       gradientTransform="matrix(1.965588,-1.1207771e-6,6.6884721e-7,2.0039369,-60.70285,67.647964)"
       gradientUnits="userSpaceOnUse"
       id="radialGradient6449"
       xlink:href="#linearGradient51765"
       inkscape:collect="always" />
    <radialGradient
       r="2.171875"
       fy="-12.203125"
       fx="51.4375"
       cy="-12.203125"
       cx="51.4375"
       gradientTransform="matrix(-1.965588,-1.2731588e-7,-1.2941195e-7,2.0039369,109.01887,67.647913)"
       gradientUnits="userSpaceOnUse"
       id="radialGradient6446"
       xlink:href="#linearGradient51765"
       inkscape:collect="always" />
    <linearGradient
       id="linearGradient47870">
      <stop
         id="stop47872"
         offset="0"
         style="stop-color:#000000;stop-opacity:0" />
      <stop
         id="stop47878"
         offset="0.5"
         style="stop-color:#000000;stop-opacity:1" />
      <stop
         id="stop47874"
         offset="1"
         style="stop-color:#000000;stop-opacity:0" />
    </linearGradient>
    <linearGradient
       id="linearGradient51765">
      <stop
         id="stop51767"
         offset="0"
         style="stop-color:#000000;stop-opacity:1" />
      <stop
         id="stop51769"
         offset="1"
         style="stop-color:#000000;stop-opacity:0" />
    </linearGradient>
    <linearGradient
       id="linearGradient6159">
      <stop
         id="stop6161"
         offset="0"
         style="stop-color:#aeaea6;stop-opacity:1;" />
      <stop
         id="stop6163"
         offset="1"
         style="stop-color:#eeeeec;stop-opacity:1;" />
    </linearGradient>
    <linearGradient
       id="linearGradient11995">
      <stop
         id="stop11997"
         offset="0"
         style="stop-color:#f2f2f0;stop-opacity:1;" />
      <stop
         id="stop11999"
         offset="1"
         style="stop-color:#eeeeec;stop-opacity:0;" />
    </linearGradient>
    <radialGradient
       gradientUnits="userSpaceOnUse"
       gradientTransform="matrix(-0.4720009,0.9937479,-1.9178274,-0.6529879,88.031469,23.363445)"
       r="7.041481"
       fy="26.903492"
       fx="22.839315"
       cy="26.903492"
       cx="22.839315"
       id="radialGradient11838"
       xlink:href="#linearGradient27730"
       inkscape:collect="always" />
    <radialGradient
       gradientUnits="userSpaceOnUse"
       gradientTransform="matrix(0.2715739,1.4382914,-2.0268789,0.3827093,54.73726,8.9658935)"
       r="4.7189359"
       fy="25.272806"
       fx="4.8218231"
       cy="25.272806"
       cx="4.8218231"
       id="radialGradient9542"
       xlink:href="#linearGradient9536"
       inkscape:collect="always" />
    <radialGradient
       gradientUnits="userSpaceOnUse"
       gradientTransform="matrix(0.2321833,1.1523302,-1.8890333,0.380622,43.196497,-28.764912)"
       r="3.8613743"
       fy="10.256534"
       fx="31.025066"
       cy="10.256534"
       cx="31.025066"
       id="radialGradient8387"
       xlink:href="#linearGradient8381"
       inkscape:collect="always" />
    <radialGradient
       gradientUnits="userSpaceOnUse"
       gradientTransform="matrix(9.5230024e-2,0.9541158,-1.5691141,0.1566128,33.700394,-9.2726556)"
       r="4.9881761"
       fy="10.176894"
       fx="19.598003"
       cy="10.176894"
       cx="19.598003"
       id="radialGradient7611"
       xlink:href="#linearGradient7605"
       inkscape:collect="always" />
    <radialGradient
       gradientUnits="userSpaceOnUse"
       gradientTransform="matrix(0.3735155,1.0693127,-1.5850389,0.5536608,31.645974,-3.6109253)"
       r="4.2743842"
       fy="15.91914"
       fx="10.237312"
       cy="15.91914"
       cx="10.237312"
       id="radialGradient6456"
       xlink:href="#linearGradient6450"
       inkscape:collect="always" />
    <linearGradient
       gradientTransform="matrix(1.1814347,0,0,1.3953893,-2.573164,-14.494796)"
       y2="41.589939"
       x2="38.422722"
       y1="20.329428"
       x1="6.067977"
       gradientUnits="userSpaceOnUse"
       id="linearGradient6065"
       xlink:href="#linearGradient29760"
       inkscape:collect="always" />
    <linearGradient
       y2="32.700058"
       x2="28.261992"
       y1="29.562275"
       x1="29.680498"
       gradientTransform="matrix(1.1814347,0,0,1.3953893,-2.6775891,-9.5613498)"
       gradientUnits="userSpaceOnUse"
       id="linearGradient6049"
       xlink:href="#linearGradient8184"
       inkscape:collect="always" />
    <linearGradient
       y2="30.472965"
       x2="31.199669"
       y1="30.485912"
       x1="33.45713"
       gradientTransform="matrix(1.1814347,0,0,1.3953893,-2.6775891,-9.5613498)"
       gradientUnits="userSpaceOnUse"
       id="linearGradient6046"
       xlink:href="#linearGradient11121"
       inkscape:collect="always" />
    <linearGradient
       y2="29.098236"
       x2="23.842575"
       y1="33.155308"
       x1="22.034906"
       gradientTransform="matrix(1.1814347,0,0,1.3953893,-2.6775891,-9.5613498)"
       gradientUnits="userSpaceOnUse"
       id="linearGradient6043"
       xlink:href="#linearGradient10142"
       inkscape:collect="always" />
    <linearGradient
       y2="29.716953"
       x2="27.245525"
       y1="27.153692"
       x1="26.763683"
       gradientTransform="matrix(1.1814347,0,0,1.3953893,-2.6775891,-9.5613498)"
       gradientUnits="userSpaceOnUse"
       id="linearGradient6040"
       xlink:href="#linearGradient9163"
       inkscape:collect="always" />
    <radialGradient
       gradientUnits="userSpaceOnUse"
       gradientTransform="matrix(1,0,0,0.9466848,0,2.1692861)"
       r="5.8754181"
       fy="37.717064"
       fx="8.688611"
       cy="37.717064"
       cx="8.688611"
       id="radialGradient5986"
       xlink:href="#linearGradient5980"
       inkscape:collect="always" />
    <linearGradient
       y2="-15.543919"
       x2="24.813282"
       y1="-18.668919"
       x1="20.660782"
       gradientTransform="matrix(1.0407413,0.3217306,-0.186288,1.072445,4.0278317,30.451369)"
       gradientUnits="userSpaceOnUse"
       id="linearGradient2320"
       xlink:href="#linearGradient42491"
       inkscape:collect="always" />
    <linearGradient
       y2="-2.2712345"
       x2="19.423845"
       y1="-4.5023899"
       x1="16.454552"
       gradientTransform="matrix(0.9478724,0.5466487,-4.1689478e-2,1.0037969,2.6533376,23.667227)"
       gradientUnits="userSpaceOnUse"
       id="linearGradient2317"
       xlink:href="#linearGradient33721"
       inkscape:collect="always" />
    <radialGradient
       r="2.171875"
       fy="-12.203125"
       fx="51.4375"
       cy="-12.203125"
       cx="51.4375"
       gradientTransform="matrix(-1.9576392,-9.2540674e-8,-1.2888861e-7,1.4565793,110.01781,62.73803)"
       gradientUnits="userSpaceOnUse"
       id="radialGradient2385"
       xlink:href="#linearGradient51765"
       inkscape:collect="always" />
    <radialGradient
       r="2.171875"
       fy="-12.203125"
       fx="51.4375"
       cy="-12.203125"
       cx="51.4375"
       gradientTransform="matrix(1.9576392,-8.146468e-7,6.6614241e-7,1.4565793,-59.017557,62.738067)"
       gradientUnits="userSpaceOnUse"
       id="radialGradient2383"
       xlink:href="#linearGradient51765"
       inkscape:collect="always" />
    <linearGradient
       y2="-5.5633383"
       x2="32.084972"
       y1="-14.402173"
       x1="32.084972"
       gradientTransform="matrix(0.9788196,0,0,0.7154223,-8.5008021,52.112719)"
       gradientUnits="userSpaceOnUse"
       id="linearGradient2381"
       xlink:href="#linearGradient47870"
       inkscape:collect="always" />
    <radialGradient
       gradientUnits="userSpaceOnUse"
       gradientTransform="matrix(1,0,0,0.6052632,0,2.3684209)"
       r="9.5"
       fy="5.9999995"
       fx="10.5"
       cy="5.9999995"
       cx="10.5"
       id="radialGradient30749"
       xlink:href="#linearGradient30743"
       inkscape:collect="always" />
    <linearGradient
       id="linearGradient8184"
       inkscape:collect="always">
      <stop
         id="stop8186"
         offset="0"
         style="stop-color:#feff00;stop-opacity:1;" />
      <stop
         id="stop8188"
         offset="1"
         style="stop-color:#feff00;stop-opacity:0;" />
    </linearGradient>
    <linearGradient
       id="linearGradient9163"
       inkscape:collect="always">
      <stop
         id="stop9165"
         offset="0"
         style="stop-color:#e40000;stop-opacity:1;" />
      <stop
         id="stop9167"
         offset="1"
         style="stop-color:#e40000;stop-opacity:0;" />
    </linearGradient>
    <linearGradient
       id="linearGradient10142"
       inkscape:collect="always">
      <stop
         id="stop10144"
         offset="0"
         style="stop-color:#00b906;stop-opacity:1;" />
      <stop
         id="stop10146"
         offset="1"
         style="stop-color:#00b906;stop-opacity:0;" />
    </linearGradient>
    <linearGradient
       id="linearGradient11121"
       inkscape:collect="always">
      <stop
         id="stop11123"
         offset="0"
         style="stop-color:#006bc8;stop-opacity:1;" />
      <stop
         id="stop11125"
         offset="1"
         style="stop-color:#006bc8;stop-opacity:0;" />
    </linearGradient>
    <linearGradient
       id="linearGradient27730"
       inkscape:collect="always">
      <stop
         id="stop27732"
         offset="0"
         style="stop-color:#ffffff;stop-opacity:1;" />
      <stop
         id="stop27734"
         offset="1"
         style="stop-color:#ffffff;stop-opacity:0;" />
    </linearGradient>
    <linearGradient
       id="linearGradient30743"
       inkscape:collect="always">
      <stop
         id="stop30745"
         offset="0"
         style="stop-color:#000000;stop-opacity:1;" />
      <stop
         id="stop30747"
         offset="1"
         style="stop-color:#000000;stop-opacity:0;" />
    </linearGradient>
    <linearGradient
       id="linearGradient5980">
      <stop
         id="stop5982"
         offset="0"
         style="stop-color:#eecb7e;stop-opacity:1;" />
      <stop
         id="stop5984"
         offset="1"
         style="stop-color:#c28e1a;stop-opacity:1;" />
    </linearGradient>
    <linearGradient
       id="linearGradient6450">
      <stop
         id="stop6452"
         offset="0"
         style="stop-color:#a6c8ff;stop-opacity:1;" />
      <stop
         id="stop6454"
         offset="1"
         style="stop-color:#004bc7;stop-opacity:1;" />
    </linearGradient>
    <linearGradient
       id="linearGradient7605">
      <stop
         id="stop7607"
         offset="0"
         style="stop-color:#c8ffb8;stop-opacity:1;" />
      <stop
         id="stop7609"
         offset="1"
         style="stop-color:#2dc700;stop-opacity:1;" />
    </linearGradient>
    <linearGradient
       id="linearGradient8381">
      <stop
         id="stop8383"
         offset="0"
         style="stop-color:#feffe3;stop-opacity:1;" />
      <stop
         id="stop8385"
         offset="1"
         style="stop-color:#feff00;stop-opacity:1;" />
    </linearGradient>
    <linearGradient
       id="linearGradient9536">
      <stop
         id="stop9538"
         offset="0"
         style="stop-color:#ffb4b4;stop-opacity:1;" />
      <stop
         id="stop9540"
         offset="1"
         style="stop-color:#cc0000;stop-opacity:1;" />
    </linearGradient>
    <linearGradient
       id="linearGradient4138"
       inkscape:collect="always">
      <stop
         id="stop4140"
         offset="0"
         style="stop-color:#3465a4;stop-opacity:1;" />
      <stop
         id="stop4142"
         offset="1"
         style="stop-color:#3465a4;stop-opacity:0;" />
    </linearGradient>
    <linearGradient
       inkscape:collect="always"
       xlink:href="#linearGradient4138"
       id="linearGradient2465"
       gradientUnits="userSpaceOnUse"
       gradientTransform="matrix(0,-1.2333591,1.212376,0,-13.339305,61.442422)"
       x1="22.958183"
       y1="13.433893"
       x2="22.958183"
       y2="27.137815" />
    <linearGradient
       inkscape:collect="always"
       xlink:href="#linearGradient4138"
       id="linearGradient2468"
       gradientUnits="userSpaceOnUse"
       gradientTransform="matrix(0,-0.8855224,-0.8699482,0,76.834134,52.454121)"
       x1="22.958183"
       y1="13.433893"
       x2="22.958183"
       y2="27.137815" />
    <linearGradient
       inkscape:collect="always"
       xlink:href="#linearGradient4138"
       id="linearGradient2478"
       gradientUnits="userSpaceOnUse"
       gradientTransform="matrix(0,-1.2333591,-1.212376,0,61.358855,61.389701)"
       x1="22.958183"
       y1="13.433893"
       x2="22.958183"
       y2="27.137815" />
  </defs>
  <sodipodi:namedview
     stroke="#ef2929"
     fill="#eeeeec"
     id="base"
     pagecolor="#ffffff"
     bordercolor="#666666"
     borderopacity="0.25490196"
     inkscape:pageopacity="0.0"
     inkscape:pageshadow="2"
     inkscape:zoom="1"
     inkscape:cx="27.734742"
     inkscape:cy="20.90039"
     inkscape:current-layer="layer1"
     showgrid="false"
     inkscape:grid-bbox="true"
     inkscape:document-units="px"
     inkscape:showpageshadow="false"
     inkscape:window-width="906"
     inkscape:window-height="676"
     inkscape:window-x="268"
     inkscape:window-y="49"
     showguides="true"
     inkscape:guide-bbox="true" />
  <metadata
     id="metadata4">
    <rdf:RDF>
      <cc:Work
         rdf:about="">
        <dc:format>image/svg+xml</dc:format>
        <dc:type
           rdf:resource="http://purl.org/dc/dcmitype/StillImage" />
        <dc:creator>
          <cc:Agent>
            <dc:title>Patrick Niklaus, Andrew Wedderburn</dc:title>
          </cc:Agent>
        </dc:creator>
        <dc:source />
        <cc:license
           rdf:resource="http://creativecommons.org/licenses/LGPL/2.1/" />
        <dc:title>Switcher</dc:title>
        <dc:subject>
          <rdf:Bag />
        </dc:subject>
      </cc:Work>
      <cc:License
         rdf:about="http://creativecommons.org/licenses/LGPL/2.1/">
        <cc:permits
           rdf:resource="http://web.resource.org/cc/Reproduction" />
        <cc:permits
           rdf:resource="http://web.resource.org/cc/Distribution" />
        <cc:requires
           rdf:resource="http://web.resource.org/cc/Notice" />
        <cc:permits
           rdf:resource="http://web.resource.org/cc/DerivativeWorks" />
        <cc:requires
           rdf:resource="http://web.resource.org/cc/ShareAlike" />
        <cc:requires
           rdf:resource="http://web.resource.org/cc/SourceCode" />
      </cc:License>
    </rdf:RDF>
  </metadata>
  <g
     id="layer1"
     inkscape:label="Layer 1"
     inkscape:groupmode="layer">
    <g
       id="g2411"
       transform="matrix(0.3146687,0,0,0.3146687,45.302192,16.737704)">
      <g
         transform="translate(-43.931844,-13.174549)"
         id="g16817">
        <path
           style="fill:url(#radialGradient2419);fill-opacity:1;fill-rule:evenodd;stroke:#23282a;stroke-width:0.77473879;stroke-linecap:butt;stroke-linejoin:miter;stroke-miterlimit:4;stroke-dashoffset:0;stroke-opacity:1"
           d="M 22.87387,37.087625 C 22.164124,39.416974 19.595353,40.436282 15.919744,40.519705 C 12.244135,40.603128 9.1198213,39.938045 8.6637132,36.920208 C 8.2146201,33.948781 12.890195,31.937087 16.859747,31.988423 C 20.829299,32.03976 23.579606,34.77143 22.87387,37.087625 z"
           id="path4160"
           sodipodi:nodetypes="czzzz" />
        <path
           style="fill:none;fill-rule:evenodd;stroke:#23282a;stroke-width:1.31347382;stroke-linecap:round;stroke-linejoin:round;stroke-miterlimit:4;stroke-dasharray:none;stroke-opacity:1"
           d="M 28.198179,9.5235563 C 27.106388,16.865222 23.501967,20.918656 22.739871,36.70875"
           id="path6102"
           sodipodi:nodetypes="cc" />
        <path
           sodipodi:nodetypes="csssscc"
           id="path9014"
           d="M 28.038528,9.1872606 C 28.084331,9.1566556 29.38346,8.475911 30.557534,8.6645127 C 32.063763,8.9064712 34.087596,11.233508 35.629661,11.379615 C 37.017773,11.511137 42.526659,11.86426 40.526328,11.805972 C 39.711256,11.782221 35.373874,13.341177 32.820542,11.308179 C 31.736455,10.445015 30.183582,10.284103 28.416484,11.0365 C 27.462891,11.28649 27.815736,10.341838 28.038528,9.1872606 z"
           style="fill:url(#linearGradient2421);fill-opacity:1;fill-rule:evenodd;stroke:#23282a;stroke-width:0.87564921;stroke-linejoin:round;stroke-miterlimit:4;stroke-dasharray:none;stroke-opacity:1" />
        <path
           sodipodi:type="inkscape:offset"
           inkscape:radius="-0.89794469"
           inkscape:original="M -47.96875 21.5 C -53.002777 21.441647 -58.944523 23.747403 -58.375 27.125 C -57.796582 30.55535 -53.848759 31.313577 -49.1875 31.21875 C -44.526239 31.123924 -41.243822 29.960252 -40.34375 27.3125 C -39.448764 24.679701 -42.934721 21.558353 -47.96875 21.5 z "
           style="fill:none;fill-opacity:1;fill-rule:evenodd;stroke:#d0d6d8;stroke-width:0.93017274;stroke-linecap:butt;stroke-linejoin:miter;stroke-miterlimit:4;stroke-dashoffset:0;stroke-opacity:1"
           id="path12910"
           d="M -47.96875,22.40625 C -50.3446,22.37871 -52.995633,22.93203 -54.875,23.84375 C -55.814683,24.29961 -56.563595,24.832856 -57,25.375 C -57.436405,25.917144 -57.597031,26.393298 -57.5,26.96875 C -57.264679,28.36434 -56.452572,29.119693 -55,29.65625 C -53.547428,30.192807 -51.495567,30.358819 -49.21875,30.3125 C -46.958511,30.266519 -45.04333,29.973119 -43.6875,29.40625 C -42.33167,28.839381 -41.543383,28.078154 -41.1875,27.03125 C -40.889148,26.153583 -41.298353,25.091193 -42.5,24.125 C -43.701647,23.158807 -45.634886,22.433303 -47.96875,22.40625 z"
           transform="matrix(0.788544,0,0,0.8797462,54.695384,13.067523)" />
      </g>
      <path
         transform="matrix(1.1223629,0,0,0.5993232,-35.041548,30.640638)"
         d="M 29.500002,-9.2500038 A 14.812501,5.2500005 0 1 1 -0.125,-9.2500038 A 14.812501,5.2500005 0 1 1 29.500002,-9.2500038 z"
         sodipodi:ry="5.2500005"
         sodipodi:rx="14.812501"
         sodipodi:cy="-9.2500038"
         sodipodi:cx="14.687501"
         id="path16823"
         style="opacity:0.34229832;fill:url(#radialGradient2423);fill-opacity:1;fill-rule:evenodd;stroke:none;stroke-width:0.5;stroke-linecap:round;stroke-linejoin:round;stroke-miterlimit:4;stroke-dasharray:none;stroke-dashoffset:0;stroke-opacity:1"
         sodipodi:type="arc" />
    </g>
    <g
       inkscape:label="Layer 1"
       id="g2568"
       transform="matrix(0.1642212,0,0,0.1642212,20.326235,9.225212)">
      <path
         transform="matrix(2.2236842,0,0,1.3043478,0.2360252,32.234573)"
         d="M 20,5.9999995 A 9.5,5.75 0 1 1 1,5.9999995 A 9.5,5.75 0 1 1 20,5.9999995 z"
         sodipodi:ry="5.75"
         sodipodi:rx="9.5"
         sodipodi:cy="5.9999995"
         sodipodi:cx="10.5"
         id="path29772"
         style="opacity:0.30400002;fill:url(#radialGradient30749);fill-opacity:1;fill-rule:evenodd;stroke:none;stroke-width:0.5;stroke-linecap:round;stroke-linejoin:round;stroke-miterlimit:4;stroke-dasharray:none;stroke-dashoffset:0;stroke-opacity:1"
         sodipodi:type="arc" />
      <path
         id="path2261"
         d="M 27.338237,5.7443267 C 24.229948,5.7168082 19.965295,6.4388859 14.120936,8.9711645 C 7.2632601,11.942498 4.4059434,16.668301 1.8266308,23.099481 C -0.14753076,27.703528 1.0973005,33.995391 4.9648167,36.748133 C 9.4976193,40.619765 15.341692,42.432953 20.766506,42.896567 C 27.48518,43.199391 34.129974,41.579312 40.407858,38.579581 C 43.086049,37.111132 45.414401,34.772765 46.351951,31.86427 C 47.282122,28.978668 47.16181,26.968674 46.57347,25.236171 C 45.834466,23.060006 43.179884,21.402001 40.112499,21.61688 C 35.358279,21.901431 29.171354,22.332525 29.922625,19.69822 C 30.284577,18.429045 32.30732,19.180988 34.057647,18.651678 C 35.909694,18.091608 39.446938,16.50968 39.706381,14.378298 C 40.212302,10.222037 36.33268,7.5934994 33.688448,6.8780805 C 32.394841,6.5280848 30.446525,5.7718452 27.338237,5.7443267 z M 23.461654,19.218555 C 25.046453,19.187744 26.374866,19.81264 26.747519,20.831974 C 27.244389,22.191084 25.836702,23.785096 23.609333,24.407659 C 21.381965,25.030221 19.195866,24.414986 18.698995,23.055875 C 18.202125,21.696765 19.609813,20.102753 21.837181,19.48019 C 22.394023,19.32455 22.933387,19.228825 23.461654,19.218555 z"
         style="fill:url(#linearGradient6065);fill-opacity:1;fill-rule:evenodd;stroke:#553c17;stroke-width:1;stroke-linecap:butt;stroke-linejoin:miter;stroke-miterlimit:4;stroke-dasharray:none;stroke-opacity:1" />
      <path
         id="path7161"
         d="M 10.318193,15.555658 C 9.1792601,15.270165 7.5939214,17.483931 8.5847141,18.446849 C 9.4124603,19.871265 11.519862,20.776098 12.524251,19.166911 C 12.954478,17.829083 13.752963,18.528081 14.405226,19.015001 C 15.17294,18.562783 15.476016,17.310248 16.179443,16.747697 C 16.102384,15.052732 13.98864,13.461802 12.652513,14.101821 C 11.913497,14.641957 11.329309,15.8712 10.318193,15.555658 z"
         style="fill:url(#radialGradient6456);fill-opacity:1;fill-rule:evenodd;stroke:#1c4b8f;stroke-width:0.5;stroke-linecap:butt;stroke-linejoin:miter;stroke-miterlimit:4;stroke-dasharray:none;stroke-opacity:1" />
      <path
         d="M 13.65625,14.46875 C 13.360341,14.403319 13.12079,14.43614 12.90625,14.53125 C 12.90188,14.534622 12.8794,14.52777 12.875,14.53125 C 12.606351,14.743736 12.302478,15.13405 11.90625,15.5 C 11.698501,15.691874 11.483204,15.886024 11.1875,16 C 10.900749,16.110526 10.529451,16.129858 10.1875,16.03125 C 10.176824,16.028171 10.166914,16.034578 10.15625,16.03125 C 10.03934,16.010364 9.8922114,16.02938 9.6875,16.15625 C 9.4699941,16.291049 9.2321902,16.519568 9.0625,16.78125 C 8.8928098,17.042932 8.7988383,17.363229 8.78125,17.59375 C 8.7636617,17.824271 8.8018941,17.961959 8.9375,18.09375 C 8.9619031,18.122467 8.9828777,18.153929 9,18.1875 C 9.3464774,18.78373 10.018217,19.305853 10.625,19.46875 C 11.231783,19.631647 11.725032,19.547061 12.125,18.90625 C 12.243914,18.578228 12.396805,18.306624 12.625,18.125 C 12.880911,17.921317 13.200386,17.852084 13.46875,17.90625 C 13.820464,17.97724 14.105743,18.165666 14.34375,18.34375 C 14.524705,18.166432 14.716232,17.972914 14.90625,17.65625 C 15.106121,17.323167 15.359098,16.980234 15.65625,16.65625 C 15.600391,16.203221 15.394333,15.707016 15.03125,15.3125 C 14.63516,14.882119 14.113694,14.5699 13.65625,14.46875 z"
         id="path7222"
         style="fill:none;fill-opacity:1;fill-rule:evenodd;stroke:#c8daf5;stroke-width:0.5;stroke-linecap:butt;stroke-linejoin:miter;stroke-miterlimit:4;stroke-dasharray:none;stroke-opacity:1"
         inkscape:original="M 13.75 14 C 13.36274 13.914369 12.990282 13.933745 12.65625 14.09375 C 11.917234 14.633886 11.323616 15.878042 10.3125 15.5625 C 9.1735667 15.277007 7.6029573 17.474582 8.59375 18.4375 C 9.4214964 19.861915 11.526861 20.765437 12.53125 19.15625 C 12.961477 17.818423 13.753987 18.51308 14.40625 19 C 15.173964 18.547782 15.484073 17.312551 16.1875 16.75 C 16.129705 15.478776 14.911781 14.256892 13.75 14 z "
         inkscape:radius="-0.4851996"
         sodipodi:type="inkscape:offset" />
      <path
         transform="matrix(1.1814347,0,0,1.3953893,-2.6775891,-9.5613498)"
         d="M 25.40625,11.71875 C 22.879215,11.699808 19.379367,12.178753 14.5,13.96875 C 8.8751042,16.032245 6.651823,19.176117 4.5,23.71875 C 4.4985969,23.729119 4.4985969,23.739631 4.5,23.75 C 4.4896306,23.748597 4.4791194,23.748597 4.46875,23.75 C 4.4673469,23.760369 4.4673469,23.770881 4.46875,23.78125 C 4.4689125,23.790267 4.4689125,23.803483 4.46875,23.8125 C 3.0240409,26.748669 3.9611395,30.794115 6.84375,32.53125 C 6.8626937,32.548355 6.8578972,32.543558 6.875,32.5625 C 6.8833279,32.574815 6.8939353,32.585422 6.90625,32.59375 C 10.585492,35.254475 15.416569,36.518886 19.90625,36.84375 C 25.449316,37.05528 30.914273,35.91166 36.125,33.8125 C 36.135369,33.813903 36.145881,33.813903 36.15625,33.8125 C 36.183447,33.799874 36.2024,33.788956 36.21875,33.78125 C 38.332375,32.785025 40.093447,31.21281 40.78125,29.40625 C 41.519006,27.468487 41.403659,26.303076 40.96875,25.21875 C 40.744122,24.658704 40.170591,24.091958 39.34375,23.6875 C 38.516909,23.283042 37.453922,23.024197 36.28125,23.09375 C 36.272236,23.093913 36.259014,23.093913 36.25,23.09375 C 34.240457,23.195584 31.914711,23.327543 30.09375,23.1875 C 29.182117,23.117389 28.427521,23.012208 27.78125,22.6875 C 27.461012,22.526602 27.127757,22.268702 26.9375,21.90625 C 26.751613,21.552124 26.779142,21.096113 26.90625,20.71875 C 27.055174,20.27662 27.424654,19.943526 27.78125,19.8125 C 28.151131,19.676593 28.520548,19.670607 28.875,19.65625 C 29.585353,19.627476 30.313745,19.651704 30.90625,19.5 C 31.637722,19.312715 32.734101,18.918303 33.625,18.4375 C 34.072872,18.195791 34.426097,17.933745 34.6875,17.6875 C 34.818202,17.564378 34.923461,17.4492 35,17.34375 C 35.076539,17.2383 35.142261,17.159805 35.15625,17.0625 C 35.328572,15.863899 34.733532,14.891776 33.8125,14.09375 C 32.887386,13.292187 31.627944,12.729748 30.625,12.5 C 29.458952,12.23289 27.935715,11.737711 25.40625,11.71875 z M 22.125,19.875 C 22.881848,19.862543 23.577025,19.968024 24.1875,20.21875 C 24.796131,20.468719 25.328394,20.854203 25.59375,21.46875 C 25.947062,22.286997 25.546839,23.194543 24.9375,23.78125 C 24.321017,24.374836 23.454507,24.81443 22.40625,25.0625 C 21.35417,25.311474 20.355407,25.333084 19.46875,25.125 C 18.581191,24.916705 17.761762,24.510843 17.40625,23.6875 C 17.052938,22.869253 17.453161,21.961707 18.0625,21.375 C 18.678983,20.781414 19.545493,20.34182 20.59375,20.09375 C 21.104774,19.972817 21.610632,19.883467 22.125,19.875 z"
         id="path7613"
         style="fill:none;fill-rule:evenodd;stroke:#f8dab7;stroke-width:0.77883857;stroke-linecap:butt;stroke-linejoin:miter;stroke-miterlimit:4;stroke-dasharray:none;stroke-opacity:1"
         inkscape:original="M 25.40625 11.84375 C 22.894954 11.824926 19.400064 12.307624 14.53125 14.09375 C 8.9327162 16.147574 6.7412422 19.24776 4.59375 23.78125 C 4.5939377 23.791666 4.5939377 23.802084 4.59375 23.8125 C 3.1330277 26.696791 4.0625638 30.723822 6.90625 32.4375 C 6.9281321 32.457258 6.9489925 32.478118 6.96875 32.5 C 10.622821 35.142522 15.43215 36.395013 19.90625 36.71875 C 25.430721 36.92957 30.895961 35.812698 36.09375 33.71875 C 36.115362 33.708717 36.134709 33.697653 36.15625 33.6875 C 38.249859 32.700709 40.015723 31.139466 40.6875 29.375 C 41.418329 27.45543 41.301924 26.314416 40.875 25.25 C 40.459939 24.215164 38.584859 23.082119 36.28125 23.21875 C 36.270834 23.218938 36.260416 23.218938 36.25 23.21875 C 34.241064 23.320553 31.927763 23.453547 30.09375 23.3125 C 29.176743 23.241976 28.387545 23.117275 27.71875 22.78125 C 27.384352 22.613238 27.048674 22.359143 26.84375 21.96875 C 26.638826 21.578357 26.645435 21.090711 26.78125 20.6875 C 26.944108 20.204002 27.362083 19.861284 27.75 19.71875 C 28.137917 19.576216 28.517275 19.54574 28.875 19.53125 C 29.590449 19.50227 30.307589 19.520279 30.875 19.375 C 31.59727 19.190071 32.684521 18.81758 33.5625 18.34375 C 34.440479 17.86992 34.99615 17.275393 35.03125 17.03125 C 35.197265 15.876517 34.654911 14.971558 33.75 14.1875 C 32.845089 13.403442 31.577481 12.850347 30.59375 12.625 C 29.418514 12.355785 27.920828 11.862599 25.40625 11.84375 z M 22.125 19.75 C 22.896162 19.737307 23.592997 19.867999 24.21875 20.125 C 24.844503 20.382001 25.40669 20.787163 25.6875 21.4375 C 26.064846 22.311409 25.666566 23.263281 25.03125 23.875 C 24.395934 24.486719 23.501719 24.935653 22.4375 25.1875 C 21.370678 25.439963 20.344986 25.462972 19.4375 25.25 C 18.530014 25.037028 17.687391 24.586973 17.3125 23.71875 C 16.935154 22.844841 17.333434 21.892969 17.96875 21.28125 C 18.604066 20.669531 19.498281 20.220597 20.5625 19.96875 C 21.078404 19.846662 21.598909 19.75866 22.125 19.75 z "
         inkscape:radius="0.11651425"
         sodipodi:type="inkscape:offset" />
      <path
         id="path7159"
         d="M 4.4110192,26.718772 C 3.9420755,26.672444 3.7651513,27.38372 3.9887592,27.785902 C 4.1976278,28.185805 4.6368513,28.262088 4.9312698,28.550735 C 5.3850704,28.825263 5.27634,29.44402 5.4291274,29.908073 C 5.6827634,30.719599 6.4150083,31.43503 7.1784224,31.183977 C 7.8331547,30.993483 8.3827834,30.279196 9.0958913,30.422752 C 9.3673449,30.705849 9.7168345,30.835434 9.9315827,30.39069 C 10.285809,29.956776 10.560158,29.249272 11.144942,29.244621 C 11.603543,29.363199 12.212137,29.634678 12.499599,29.001722 C 12.881033,28.337802 12.63402,27.455148 12.209903,26.908199 C 11.783811,26.318644 11.12864,25.942605 10.466419,25.993646 C 9.7836576,25.810039 9.5126448,24.958737 9.2382964,24.294127 C 8.9300889,23.64849 8.1818772,23.612588 7.66206,23.882783 C 6.4699755,24.356915 6.0763838,26.040224 4.9367093,26.602097 C 4.7697817,26.679372 4.590673,26.722667 4.4110192,26.718772 z"
         style="fill:url(#radialGradient9542);fill-opacity:1;fill-rule:evenodd;stroke:#bf2424;stroke-width:0.64198154;stroke-linecap:butt;stroke-linejoin:miter;stroke-miterlimit:4;stroke-dasharray:none;stroke-opacity:1" />
      <path
         id="path7165"
         d="M 31.584018,9.9741005 C 30.509479,9.905806 29.840485,11.488318 29.088518,11.944326 C 28.908217,13.859731 31.200545,11.941022 31.536907,13.564719 C 32.232416,15.120344 33.803476,14.168711 34.906666,13.895973 C 36.539562,13.613234 36.523406,11.477132 35.163485,10.701497 C 34.122836,9.4724329 32.837616,10.062787 31.584018,9.9741005 z"
         style="fill:url(#radialGradient8387);fill-opacity:1;fill-rule:evenodd;stroke:#888621;stroke-width:0.64198154;stroke-linecap:butt;stroke-linejoin:miter;stroke-miterlimit:4;stroke-dasharray:none;stroke-opacity:1" />
      <path
         id="path7167"
         d="M 18.071358,11.36949 C 16.234315,12.137646 17.947757,15.392955 19.454125,14.218427 C 20.406874,14.346431 22.699275,13.495114 22.786394,14.818887 C 21.66723,15.991715 24.468475,16.041329 25.003622,15.423121 C 26.333553,14.790936 27.248568,13.007586 26.055734,11.692454 C 25.54096,9.3857332 23.331605,9.6201349 21.78935,9.8920251 C 20.804279,9.6565881 19.617618,9.9444527 19.454037,11.227541 C 19.030324,11.509315 18.530412,11.369299 18.071358,11.36949 z"
         style="fill:url(#radialGradient7611);fill-opacity:1;fill-rule:evenodd;stroke:#00af00;stroke-width:0.5;stroke-linecap:butt;stroke-linejoin:miter;stroke-miterlimit:4;stroke-dasharray:none;stroke-opacity:1" />
      <path
         style="fill:url(#linearGradient6049);fill-opacity:1;fill-rule:evenodd;stroke:none;stroke-width:1px;stroke-linecap:butt;stroke-linejoin:miter;stroke-opacity:1"
         d="M 23.313975,31.515423 C 22.677547,32.299523 21.572606,32.089377 20.969818,32.930793 C 21.330657,34.171989 22.60641,33.394062 23.334353,33.780494 C 24.013894,34.586186 22.520876,35.134382 23.005325,35.970703 C 23.491052,36.984136 24.506704,36.58228 25.288466,36.540569 C 26.309808,36.533753 27.440096,36.72636 28.309231,35.931603 C 28.872221,35.515535 29.646345,34.715751 30.236219,35.510925 C 30.717617,36.035726 31.19792,36.883699 31.95509,36.669124 C 32.870187,36.603212 33.913822,35.89769 33.849155,34.689592 C 34.185683,33.850382 35.005911,34.311565 35.144434,34.993521 C 35.897871,35.573795 37.067943,35.251433 37.457963,34.270099 C 38.331912,33.909277 38.690189,32.43707 37.813353,31.869408 C 37.424787,30.897395 36.455517,30.31562 35.609413,30.852776 C 34.586448,31.097445 33.537475,30.875994 32.505419,30.981625 C 31.571011,30.975212 31.934473,29.513526 31.126568,29.387285 C 30.297742,29.127966 29.941917,27.892363 28.989617,28.045667 C 28.01504,28.007023 27.919611,29.687874 26.874098,29.50608 C 26.150262,29.557718 25.294415,29.228677 24.751432,29.992895 C 24.420851,30.718812 23.41367,30.701976 23.313975,31.515423 z"
         id="path15005" />
      <path
         style="fill:url(#linearGradient6046);fill-opacity:1;fill-rule:evenodd;stroke:none;stroke-width:1px;stroke-linecap:butt;stroke-linejoin:miter;stroke-opacity:1"
         d="M 23.313975,31.515423 C 22.677547,32.299523 21.572606,32.089377 20.969818,32.930793 C 21.330657,34.171989 22.60641,33.394062 23.334353,33.780494 C 24.013894,34.586186 22.520876,35.134382 23.005325,35.970703 C 23.491052,36.984136 24.506704,36.58228 25.288466,36.540569 C 26.309808,36.533753 27.440096,36.72636 28.309231,35.931603 C 28.872221,35.515535 29.646345,34.715751 30.236219,35.510925 C 30.717617,36.035726 31.19792,36.883699 31.95509,36.669124 C 32.870187,36.603212 33.913822,35.89769 33.849155,34.689592 C 34.185683,33.850382 35.005911,34.311565 35.144434,34.993521 C 35.897871,35.573795 37.067943,35.251433 37.457963,34.270099 C 38.331912,33.909277 38.690189,32.43707 37.813353,31.869408 C 37.424787,30.897395 36.455517,30.31562 35.609413,30.852776 C 34.586448,31.097445 33.537475,30.875994 32.505419,30.981625 C 31.571011,30.975212 31.934473,29.513526 31.126568,29.387285 C 30.297742,29.127966 29.941917,27.892363 28.989617,28.045667 C 28.01504,28.007023 27.919611,29.687874 26.874098,29.50608 C 26.150262,29.557718 25.294415,29.228677 24.751432,29.992895 C 24.420851,30.718812 23.41367,30.701976 23.313975,31.515423 z"
         id="path10150" />
      <path
         id="path9171"
         d="M 23.313975,31.515423 C 22.677547,32.299523 21.572606,32.089377 20.969818,32.930793 C 21.330657,34.171989 22.60641,33.394062 23.334353,33.780494 C 24.013894,34.586186 22.520876,35.134382 23.005325,35.970703 C 23.491052,36.984136 24.506704,36.58228 25.288466,36.540569 C 26.309808,36.533753 27.440096,36.72636 28.309231,35.931603 C 28.872221,35.515535 29.646345,34.715751 30.236219,35.510925 C 30.717617,36.035726 31.19792,36.883699 31.95509,36.669124 C 32.870187,36.603212 33.913822,35.89769 33.849155,34.689592 C 34.185683,33.850382 35.005911,34.311565 35.144434,34.993521 C 35.897871,35.573795 37.067943,35.251433 37.457963,34.270099 C 38.331912,33.909277 38.690189,32.43707 37.813353,31.869408 C 37.424787,30.897395 36.455517,30.31562 35.609413,30.852776 C 34.586448,31.097445 33.537475,30.875994 32.505419,30.981625 C 31.571011,30.975212 31.934473,29.513526 31.126568,29.387285 C 30.297742,29.127966 29.941917,27.892363 28.989617,28.045667 C 28.01504,28.007023 27.919611,29.687874 26.874098,29.50608 C 26.150262,29.557718 25.294415,29.228677 24.751432,29.992895 C 24.420851,30.718812 23.41367,30.701976 23.313975,31.515423 z"
         style="fill:url(#linearGradient6043);fill-opacity:1;fill-rule:evenodd;stroke:none;stroke-width:1px;stroke-linecap:butt;stroke-linejoin:miter;stroke-opacity:1" />
      <path
         style="fill:url(#linearGradient6040);fill-opacity:1;fill-rule:evenodd;stroke:none;stroke-width:1px;stroke-linecap:butt;stroke-linejoin:miter;stroke-opacity:1"
         d="M 23.313975,31.515423 C 22.677547,32.299523 21.572606,32.089377 20.969818,32.930793 C 21.330657,34.171989 22.60641,33.394062 23.334353,33.780494 C 24.013894,34.586186 22.520876,35.134382 23.005325,35.970703 C 23.491052,36.984136 24.506704,36.58228 25.288466,36.540569 C 26.309808,36.533753 27.440096,36.72636 28.309231,35.931603 C 28.872221,35.515535 29.646345,34.715751 30.236219,35.510925 C 30.717617,36.035726 31.19792,36.883699 31.95509,36.669124 C 32.870187,36.603212 33.913822,35.89769 33.849155,34.689592 C 34.185683,33.850382 35.005911,34.311565 35.144434,34.993521 C 35.897871,35.573795 37.067943,35.251433 37.457963,34.270099 C 38.331912,33.909277 38.690189,32.43707 37.813353,31.869408 C 37.424787,30.897395 36.455517,30.31562 35.609413,30.852776 C 34.586448,31.097445 33.537475,30.875994 32.505419,30.981625 C 31.571011,30.975212 31.934473,29.513526 31.126568,29.387285 C 30.297742,29.127966 29.941917,27.892363 28.989617,28.045667 C 28.01504,28.007023 27.919611,29.687874 26.874098,29.50608 C 26.150262,29.557718 25.294415,29.228677 24.751432,29.992895 C 24.420851,30.718812 23.41367,30.701976 23.313975,31.515423 z"
         id="path8192" />
      <path
         id="path7169"
         d="M 23.313975,31.515423 C 22.677547,32.299523 21.572606,32.089377 20.969818,32.930793 C 21.330657,34.171989 22.60641,33.394062 23.334353,33.780494 C 24.013894,34.586186 22.520876,35.134382 23.005325,35.970703 C 23.491052,36.984136 24.506704,36.58228 25.288466,36.540569 C 26.309808,36.533753 27.440096,36.72636 28.309231,35.931603 C 28.872221,35.515535 29.646345,34.715751 30.236219,35.510925 C 30.717617,36.035726 31.19792,36.883699 31.95509,36.669124 C 32.870187,36.603212 33.913822,35.89769 33.849155,34.689592 C 34.185683,33.850382 35.005911,34.311565 35.144434,34.993521 C 35.897871,35.573795 37.067943,35.251433 37.457963,34.270099 C 38.331912,33.909277 38.690189,32.43707 37.813353,31.869408 C 37.424787,30.897395 36.455517,30.31562 35.609413,30.852776 C 34.586448,31.097445 33.537475,30.875994 32.505419,30.981625 C 31.571011,30.975212 31.934473,29.513526 31.126568,29.387285 C 30.297742,29.127966 29.941917,27.892363 28.989617,28.045667 C 28.01504,28.007023 27.919611,29.687874 26.874098,29.50608 C 26.150262,29.557718 25.294415,29.228677 24.751432,29.992895 C 24.420851,30.718812 23.41367,30.701976 23.313975,31.515423 z"
         style="fill:none;fill-opacity:1;fill-rule:evenodd;stroke:#875826;stroke-width:0.64198154;stroke-linecap:butt;stroke-linejoin:miter;stroke-miterlimit:4;stroke-dasharray:none;stroke-opacity:1" />
      <path
         transform="matrix(1.1814347,0,0,1.3953893,-2.6775891,-9.5613498)"
         d="M 26.8125,27.1875 C 26.668064,27.182651 26.576295,27.228834 26.46875,27.3125 C 26.361205,27.396166 26.24671,27.511163 26.125,27.65625 C 26.00329,27.801337 25.874787,27.97183 25.6875,28.09375 C 25.507962,28.210625 25.263797,28.280349 25,28.25 C 24.988613,28.24869 24.980239,28.251691 24.96875,28.25 C 24.636372,28.265612 24.33001,28.207705 24.0625,28.21875 C 23.802805,28.229473 23.606564,28.288385 23.4375,28.46875 C 23.42989,28.482899 23.414342,28.486517 23.40625,28.5 C 23.211721,28.824136 22.896195,28.96826 22.65625,29.09375 C 22.531287,29.159105 22.409587,29.220285 22.34375,29.28125 C 22.277913,29.342215 22.262501,29.382387 22.25,29.46875 C 22.241456,29.515505 22.219778,29.558862 22.1875,29.59375 C 22.188151,29.604157 22.188151,29.614593 22.1875,29.625 C 21.860437,29.966167 21.421049,30.052595 21.0625,30.15625 C 20.776351,30.238975 20.563829,30.35165 20.375,30.5 C 20.414299,30.54877 20.447271,30.629263 20.5,30.65625 C 20.600725,30.707801 20.730661,30.713984 20.90625,30.71875 C 21.257428,30.728283 21.711485,30.657892 22.125,30.84375 C 22.158016,30.847834 22.189887,30.858457 22.21875,30.875 C 22.404794,31.06176 22.45607,31.330443 22.40625,31.53125 C 22.35643,31.732057 22.255396,31.875198 22.15625,32 C 22.057104,32.124802 21.967791,32.237201 21.9375,32.3125 C 21.907209,32.387799 21.907209,32.378799 21.96875,32.46875 C 21.969401,32.479157 21.969401,32.489593 21.96875,32.5 C 22.131558,32.787602 22.32912,32.862459 22.625,32.875 C 22.92088,32.887541 23.293659,32.79763 23.65625,32.78125 C 24.548224,32.776211 25.425748,32.899234 26.0625,32.40625 C 26.071975,32.394932 26.082432,32.384475 26.09375,32.375 C 26.316365,32.235707 26.600015,32.030042 26.9375,31.90625 C 27.106242,31.844354 27.304492,31.779134 27.5,31.8125 C 27.682156,31.843587 27.850358,31.968142 28,32.125 C 28.010969,32.136497 28.020613,32.144109 28.03125,32.15625 C 28.238424,32.351686 28.431459,32.575046 28.625,32.71875 C 28.828996,32.870216 29.012274,32.93204 29.25,32.875 C 29.270752,32.872389 29.291748,32.872389 29.3125,32.875 C 29.652655,32.854256 30.021813,32.730951 30.28125,32.53125 C 30.540687,32.331549 30.678136,32.096186 30.65625,31.75 C 30.655581,31.70632 30.666355,31.663226 30.6875,31.625 C 30.779292,31.431193 30.925758,31.25969 31.09375,31.1875 C 31.261742,31.11531 31.435594,31.138762 31.59375,31.1875 C 31.861399,31.26998 32.044098,31.484283 32.15625,31.75 C 32.659615,32.046628 33.498634,31.847989 33.75,31.3125 C 33.757443,31.290308 33.767963,31.26927 33.78125,31.25 C 33.790725,31.238682 33.801182,31.228225 33.8125,31.21875 C 33.829461,31.194374 33.850624,31.173211 33.875,31.15625 C 34.155372,31.058243 34.378227,30.824376 34.4375,30.5625 C 34.496773,30.300624 34.434404,30.058716 34.15625,29.90625 C 34.117142,29.883994 34.084756,29.851608 34.0625,29.8125 C 34.061849,29.802093 34.061849,29.791657 34.0625,29.78125 C 33.786943,29.197624 33.11156,28.875574 32.53125,29.1875 C 32.51198,29.200787 32.490942,29.211307 32.46875,29.21875 C 31.541808,29.406459 30.641856,29.240631 29.8125,29.3125 C 29.802093,29.313151 29.791657,29.313151 29.78125,29.3125 C 29.527455,29.311025 29.320435,29.209152 29.1875,29.0625 C 29.054565,28.915848 28.991483,28.736637 28.9375,28.59375 C 28.883517,28.450863 28.831335,28.352739 28.78125,28.28125 C 28.731165,28.209761 28.69913,28.170192 28.59375,28.15625 C 28.583343,28.156901 28.572907,28.156901 28.5625,28.15625 C 28.124498,28.040223 27.845486,27.721315 27.59375,27.5 C 27.342014,27.278685 27.152698,27.14539 26.84375,27.1875 C 26.833343,27.188151 26.822907,27.188151 26.8125,27.1875 z"
         id="path27738"
         style="opacity:0.53896107;fill:url(#radialGradient11838);fill-opacity:1;fill-rule:evenodd;stroke:none;stroke-width:0.5;stroke-linecap:butt;stroke-linejoin:miter;stroke-miterlimit:4;stroke-dasharray:none;stroke-opacity:1"
         inkscape:original="M 26.8125 26.9375 C 25.98759 26.909806 25.884952 28.130282 25 28 C 24.387324 28.037006 23.678346 27.796076 23.21875 28.34375 C 22.938937 28.863974 22.084385 28.854547 22 29.4375 C 21.461309 29.999422 20.541467 29.834503 20.03125 30.4375 C 20.336674 31.326999 21.415098 30.785565 22.03125 31.0625 C 22.606434 31.639895 21.339949 32.025654 21.75 32.625 C 22.161133 33.351271 22.994544 33.061142 23.65625 33.03125 C 24.520742 33.026366 25.48309 33.16331 26.21875 32.59375 C 26.695281 32.295577 27.344464 31.742642 27.84375 32.3125 C 28.25122 32.688596 28.67161 33.278774 29.3125 33.125 C 30.087063 33.077765 30.960986 32.584529 30.90625 31.71875 C 31.191098 31.117334 31.88275 31.448779 32 31.9375 C 32.63773 32.353351 33.638626 32.109519 33.96875 31.40625 C 34.708486 31.147669 35.023429 30.094313 34.28125 29.6875 C 33.952358 28.990912 33.122417 28.583799 32.40625 28.96875 C 31.540386 29.14409 30.654812 28.9868 29.78125 29.0625 C 28.990341 29.057904 29.308833 27.99672 28.625 27.90625 C 27.923457 27.720411 27.618554 26.827635 26.8125 26.9375 z "
         inkscape:radius="-0.25030288"
         sodipodi:type="inkscape:offset" />
      <path
         d="M 33.4375,10.53125 C 32.925091,10.516815 32.299238,10.645871 31.5625,10.59375 C 31.333299,10.579183 31.050316,10.750414 30.6875,11.15625 C 30.412097,11.464308 30.078237,11.835155 29.71875,12.15625 C 29.721576,12.185912 29.71598,12.238545 29.71875,12.25 C 29.734094,12.243696 29.850583,12.264897 30.09375,12.25 C 30.377445,12.23262 30.728284,12.181952 31.15625,12.3125 C 31.547333,12.431797 31.908988,12.817634 32.0625,13.3125 L 32.09375,13.3125 C 32.222866,13.60129 32.346211,13.691042 32.46875,13.75 C 32.591289,13.808958 32.762678,13.841038 33,13.8125 C 33.474644,13.755425 34.104957,13.471972 34.75,13.3125 C 34.77082,13.311441 34.79168,13.311441 34.8125,13.3125 C 35.368884,13.216161 35.512545,12.911948 35.53125,12.46875 C 35.549955,12.025552 35.311457,11.485508 34.84375,11.21875 C 34.785196,11.185887 34.732415,11.143663 34.6875,11.09375 C 34.27581,10.607522 33.955412,10.54584 33.4375,10.53125 z"
         id="path9153"
         style="fill:none;fill-opacity:1;fill-rule:evenodd;stroke:#f0f0bc;stroke-width:0.64198154;stroke-linecap:butt;stroke-linejoin:miter;stroke-miterlimit:4;stroke-dasharray:none;stroke-opacity:1"
         inkscape:original="M 33.46875 9.90625 C 32.860664 9.8891197 32.220549 10.013093 31.59375 9.96875 C 30.51921 9.9004559 29.845717 11.481492 29.09375 11.9375 C 28.913449 13.852905 31.194888 11.938803 31.53125 13.5625 C 32.226759 15.118125 33.80306 14.178988 34.90625 13.90625 C 36.539146 13.623511 36.516171 11.463135 35.15625 10.6875 C 34.635925 10.072968 34.076836 9.9233803 33.46875 9.90625 z "
         inkscape:radius="-0.61528331"
         sodipodi:type="inkscape:offset" />
      <g
         id="g6003">
        <g
           transform="matrix(1.119646,-1.013613,0.6967653,0.9405823,-35.12886,9.5400893)"
           id="g54724">
          <rect
             width="32.357079"
             height="6.3234997"
             x="9.3215466"
             y="41.809082"
             style="opacity:0.3;fill:url(#linearGradient2381);fill-opacity:1;fill-rule:evenodd;stroke:none;stroke-width:1.02400005;stroke-linecap:butt;stroke-linejoin:miter;stroke-miterlimit:4;stroke-dasharray:none;stroke-dashoffset:0;stroke-opacity:1"
             id="rect2587" />
          <path
             d="M 41.6785,41.799698 L 41.6785,48.126714 C 44.022298,48.102828 45.930248,46.705313 45.930248,44.974385 C 45.930248,43.243458 44.022299,41.823584 41.6785,41.799698 z"
             style="opacity:0.3;fill:url(#radialGradient2383);fill-opacity:1;fill-rule:evenodd;stroke:none;stroke-width:1.02400005;stroke-linecap:butt;stroke-linejoin:miter;stroke-miterlimit:4;stroke-dasharray:none;stroke-dashoffset:0;stroke-opacity:1"
             id="path2589" />
          <path
             d="M 9.3217476,41.799698 L 9.3217476,48.126714 C 6.9779494,48.102828 5.07,46.705313 5.07,44.974385 C 5.07,43.243458 6.9779484,41.823584 9.3217476,41.799698 z"
             style="opacity:0.3;fill:url(#radialGradient2385);fill-opacity:1;fill-rule:evenodd;stroke:none;stroke-width:1.02400005;stroke-linecap:butt;stroke-linejoin:miter;stroke-miterlimit:4;stroke-dasharray:none;stroke-dashoffset:0;stroke-opacity:1"
             id="path2591" />
        </g>
        <g
           id="g5999">
          <path
             sodipodi:nodetypes="czzzzz"
             id="path37633"
             d="M 16.251849,31.025631 C 19.157958,27.129688 21.681073,23.764577 29.268647,17.470393 C 36.856216,11.176212 45.564127,5.1284829 46.602137,5.8488949 C 47.640146,6.5693096 40.660168,13.55073 33.420685,20.352048 C 26.1812,27.153367 21.936417,30.385771 17.644206,33.054167 C 13.351999,35.722563 13.345738,34.921573 16.251849,31.025631 z"
             style="fill:url(#linearGradient2320);fill-opacity:1;fill-rule:evenodd;stroke:#473418;stroke-width:1.08446872px;stroke-linecap:butt;stroke-linejoin:miter;stroke-opacity:1" />
          <path
             d="M 45.46875,6.875 C 45.267244,6.964495 45.125397,6.9940273 44.875,7.125 C 43.841433,7.665617 42.423727,8.529575 40.8125,9.625 C 37.590047,11.81585 33.526678,14.898351 29.75,18.03125 C 22.199972,24.294288 19.74879,27.574241 16.84375,31.46875 C 16.223938,32.299672 15.820884,32.922005 15.5,33.4375 C 15.980217,33.195981 16.476161,32.938011 17.28125,32.4375 C 21.529375,29.796511 25.685588,26.596134 32.90625,19.8125 C 36.52052,16.416981 40.062234,12.974473 42.5625,10.3125 C 43.812633,8.9815135 44.790411,7.8410951 45.375,7.03125 C 45.424928,6.962083 45.424985,6.9393986 45.46875,6.875 z"
             id="path3286"
             style="fill:none;fill-opacity:1;fill-rule:evenodd;stroke:#e6d1b0;stroke-width:0.5;stroke-linecap:butt;stroke-linejoin:miter;stroke-miterlimit:4;stroke-dasharray:none;stroke-opacity:1"
             inkscape:original="M 46.59375 5.84375 C 45.55574 5.123338 36.86882 11.17457 29.28125 17.46875 C 21.693676 23.762934 19.15611 27.135307 16.25 31.03125 C 13.343889 34.927192 13.364044 35.730894 17.65625 33.0625 C 21.948461 30.394104 26.166765 27.145068 33.40625 20.34375 C 40.645733 13.542432 47.631757 6.5641645 46.59375 5.84375 z "
             inkscape:radius="-0.73954761"
             sodipodi:type="inkscape:offset" />
        </g>
        <g
           id="g5990">
          <path
             sodipodi:nodetypes="czzczz"
             id="path30779"
             d="M 7.0292526,36.661846 C 8.4879863,35.234857 10.61662,35.444211 11.785526,36.313586 C 12.954431,37.18296 12.926454,38.539016 12.416931,40.014571 C 11.922971,41.445055 10.570821,42.507167 8.3000182,43.108874 C 6.9005588,43.534253 4.4659299,43.954198 2.4695184,45.556042 C 0.44500882,47.18043 5.5423153,38.116425 7.0292526,36.661846 z"
             style="fill:url(#radialGradient5986);fill-opacity:1;fill-rule:evenodd;stroke:#60431e;stroke-width:1;stroke-linecap:butt;stroke-linejoin:miter;stroke-miterlimit:4;stroke-dasharray:none;stroke-opacity:1" />
          <path
             id="path32739"
             d="M 6.0235761,38.839346 C 5.9420352,38.96395 5.8740619,39.064137 5.7903346,39.19564 C 5.1455261,40.208381 4.4332332,41.40386 3.8384259,42.510534 C 3.3401415,43.437622 3.0078344,44.150837 2.7740262,44.736264 C 4.7790451,43.379689 7.0109123,42.983932 8.2187527,42.616798 C 8.2243893,42.595103 8.231155,42.57364 8.2390124,42.552528 C 8.3372609,42.526495 8.4088091,42.509929 8.502898,42.482636 C 6.9236251,41.985002 5.9308804,40.481418 6.0235761,38.839346 z"
             style="opacity:0.71753247;fill:#ff001e;fill-opacity:1;fill-rule:evenodd;stroke:none;stroke-width:0.5;stroke-linecap:butt;stroke-linejoin:miter;stroke-miterlimit:4;stroke-dasharray:none;stroke-opacity:1" />
          <path
             d="M 9.53125,36.28125 C 8.8141937,36.295717 8.0998859,36.538168 7.5,37.125 C 7.2382874,37.381017 6.6141167,38.236027 5.96875,39.25 C 5.3233833,40.263973 4.5955981,41.454076 4,42.5625 C 3.6159695,43.277191 3.4302159,43.769009 3.1875,44.3125 C 5.057921,43.20841 7.0327299,42.800755 8.125,42.46875 C 8.1354152,42.468502 8.1458348,42.468502 8.15625,42.46875 C 10.303369,41.899816 11.373291,40.962677 11.78125,39.78125 C 12.01742,39.097313 12.118789,38.479395 12.0625,38 C 12.006211,37.520605 11.826928,37.179872 11.375,36.84375 C 10.917824,36.503725 10.246075,36.266828 9.53125,36.28125 z"
             id="path5597"
             style="fill:none;fill-opacity:1;fill-rule:evenodd;stroke:#ead4b9;stroke-width:0.5;stroke-linecap:butt;stroke-linejoin:miter;stroke-miterlimit:4;stroke-dasharray:none;stroke-opacity:1"
             inkscape:original="M 9.53125 35.625 C 8.6706366 35.642363 7.7606169 35.942755 7.03125 36.65625 C 5.5443127 38.110829 0.4442404 47.186888 2.46875 45.5625 C 4.4651615 43.960656 6.9130405 43.519128 8.3125 43.09375 C 10.583303 42.492043 11.91229 41.430483 12.40625 40 C 12.915773 38.524445 12.950155 37.181873 11.78125 36.3125 C 11.196797 35.877813 10.391863 35.607637 9.53125 35.625 z "
             inkscape:radius="-0.65749174"
             sodipodi:type="inkscape:offset" />
        </g>
        <g
           id="g5995">
          <path
             inkscape:transform-center-y="-1.5383773"
             sodipodi:nodetypes="ccccc"
             id="rect30783"
             d="M 17.806263,27.711354 C 18.337847,29.72588 19.487359,30.996006 20.920048,31.924992 L 12.264939,38.362567 C 11.285994,37.883651 10.663753,36.989869 10.336513,35.752984 L 17.806263,27.711354 z"
             style="fill:url(#linearGradient2317);fill-opacity:1;fill-rule:evenodd;stroke:#585858;stroke-width:1;stroke-linecap:round;stroke-linejoin:round;stroke-miterlimit:4;stroke-dasharray:none;stroke-dashoffset:0;stroke-opacity:1" />
          <path
             d="M 17.65625,28.96875 L 11.1875,35.90625 C 11.432839,36.629369 11.79561,37.130372 12.28125,37.46875 L 19.78125,31.875 C 18.87739,31.139525 18.181066,30.17302 17.65625,28.96875 z"
             id="path4433"
             style="fill:none;fill-opacity:1;fill-rule:evenodd;stroke:#e6e6e6;stroke-width:0.5;stroke-linecap:round;stroke-linejoin:round;stroke-miterlimit:4;stroke-dasharray:none;stroke-dashoffset:0;stroke-opacity:1"
             inkscape:original="M 17.8125 27.71875 L 10.34375 35.75 C 10.67099 36.986885 11.271055 37.896083 12.25 38.375 L 20.90625 31.9375 C 19.473561 31.008514 18.344084 29.733277 17.8125 27.71875 z "
             inkscape:radius="-0.7180391"
             sodipodi:type="inkscape:offset" />
        </g>
      </g>
      <path
         d="M 23.0625,10.25 C 22.660903,10.278146 22.257539,10.338811 21.875,10.40625 C 21.802902,10.421704 21.728348,10.421704 21.65625,10.40625 C 21.251931,10.309616 20.82287,10.336431 20.53125,10.46875 C 20.23963,10.601069 20.062726,10.789243 20,11.28125 C 19.97772,11.437646 19.885796,11.575531 19.75,11.65625 C 19.15561,12.051526 18.567348,11.929652 18.1875,11.90625 C 17.95831,12.028826 17.852417,12.187489 17.8125,12.40625 C 17.76698,12.655714 17.817211,12.987453 17.96875,13.28125 C 18.120289,13.575047 18.362091,13.818471 18.5625,13.90625 C 18.762909,13.994029 18.910036,14.004475 19.15625,13.8125 C 19.260024,13.723274 19.394695,13.678384 19.53125,13.6875 C 19.800859,13.723722 20.66767,13.567677 21.4375,13.53125 C 21.822415,13.513037 22.186358,13.55007 22.5625,13.71875 C 22.938642,13.88743 23.280715,14.298277 23.3125,14.78125 C 23.322069,14.93296 23.265014,15.081303 23.15625,15.1875 C 23.133981,15.210837 23.140206,15.199678 23.125,15.21875 C 23.17317,15.239684 23.186793,15.259515 23.34375,15.28125 C 23.589586,15.315293 23.895514,15.300444 24.15625,15.25 C 24.416986,15.199556 24.610689,15.074181 24.59375,15.09375 C 24.646401,15.038926 24.710393,14.996264 24.78125,14.96875 C 25.314909,14.715074 25.803309,14.205653 26,13.65625 C 26.196691,13.106847 26.159093,12.551194 25.6875,12.03125 C 25.628593,11.969636 25.585676,11.894531 25.5625,11.8125 C 25.340519,10.817795 24.854627,10.473831 24.1875,10.3125 C 23.858431,10.232921 23.464097,10.221854 23.0625,10.25 z"
         id="path7998"
         style="fill:none;fill-opacity:1;fill-rule:evenodd;stroke:#b4eeb4;stroke-width:0.5;stroke-linecap:butt;stroke-linejoin:miter;stroke-miterlimit:4;stroke-dasharray:none;stroke-opacity:1"
         inkscape:original="M 24.3125 9.8125 C 23.503033 9.6167466 22.552377 9.7703049 21.78125 9.90625 C 20.796178 9.6708131 19.632331 9.9356617 19.46875 11.21875 C 19.045037 11.500524 18.521554 11.374809 18.0625 11.375 C 16.225457 12.143156 17.962382 15.393278 19.46875 14.21875 C 20.4215 14.346754 22.694131 13.488727 22.78125 14.8125 C 21.662086 15.985328 24.464853 16.055708 25 15.4375 C 26.329931 14.805315 27.255334 13.002632 26.0625 11.6875 C 25.805113 10.534139 25.121967 10.008253 24.3125 9.8125 z "
         inkscape:radius="-0.52181923"
         sodipodi:type="inkscape:offset" />
      <path
         d="M 8.40625,24.375 C 8.2634599,24.347526 8.0590774,24.374305 7.9375,24.4375 C 7.9172625,24.449068 7.8963969,24.459501 7.875,24.46875 C 7.4944348,24.620113 7.1652804,25.018247 6.78125,25.5625 C 6.3972196,26.106753 5.9864009,26.777789 5.21875,27.15625 C 5.2083349,27.156509 5.1979151,27.156509 5.1875,27.15625 C 4.994019,27.245817 4.780128,27.295396 4.53125,27.3125 C 4.5261602,27.37489 4.5585084,27.461571 4.5625,27.46875 C 4.5627591,27.479165 4.5627591,27.489585 4.5625,27.5 C 4.5934484,27.559254 4.6401477,27.5976 4.78125,27.6875 C 4.8924599,27.758354 5.0705688,27.886706 5.25,28.03125 C 5.2982298,28.070102 5.3255433,28.076513 5.375,28.125 C 5.6965203,28.385529 5.8505657,28.755396 5.90625,29.03125 C 5.9692889,29.343538 5.9937982,29.605 6.03125,29.71875 C 6.1224642,30.010596 6.3381514,30.313053 6.53125,30.46875 C 6.7243486,30.624447 6.844473,30.644896 7,30.59375 C 7.172648,30.543518 7.466787,30.361736 7.8125,30.15625 C 8.158213,29.950764 8.6376803,29.695525 9.21875,29.8125 C 9.3104115,29.834868 9.3958588,29.877591 9.46875,29.9375 C 9.5864374,29.781173 9.750771,29.553844 9.96875,29.28125 C 10.204918,28.98591 10.607664,28.629363 11.15625,28.625 C 11.209448,28.628743 11.261954,28.639245 11.3125,28.65625 C 11.587318,28.727308 11.825418,28.780651 11.90625,28.78125 C 11.987082,28.781849 11.875177,28.887227 11.9375,28.75 C 11.946749,28.728603 11.957182,28.707738 11.96875,28.6875 C 12.173967,28.330301 12.012155,27.659631 11.71875,27.28125 C 11.400884,26.84144 10.930971,26.594191 10.53125,26.625 C 10.45706,26.627588 10.382998,26.617007 10.3125,26.59375 C 9.7500904,26.442507 9.3826516,26.020989 9.15625,25.625 C 8.9376448,25.242648 8.8110696,24.866398 8.6875,24.5625 C 8.6794898,24.54572 8.664201,24.544764 8.65625,24.53125 C 8.602183,24.439352 8.5408057,24.40089 8.40625,24.375 z"
         id="path10308"
         style="fill:none;fill-opacity:1;fill-rule:evenodd;stroke:#f3b8b8;stroke-width:0.64198154;stroke-linecap:butt;stroke-linejoin:miter;stroke-miterlimit:4;stroke-dasharray:none;stroke-opacity:1"
         inkscape:original="M 8.53125 23.75 C 8.240694 23.694094 7.9161586 23.739902 7.65625 23.875 C 6.4641657 24.349131 6.0771745 26.031877 4.9375 26.59375 C 4.7705723 26.671025 4.5859038 26.722645 4.40625 26.71875 C 3.9373062 26.672421 3.7763921 27.379068 4 27.78125 C 4.2088685 28.181153 4.6430815 28.273853 4.9375 28.5625 C 5.3913008 28.837028 5.2847126 29.442197 5.4375 29.90625 C 5.6911362 30.717776 6.4240859 31.438553 7.1875 31.1875 C 7.8422322 30.997006 8.3806421 30.293944 9.09375 30.4375 C 9.3652039 30.720597 9.7227518 30.850994 9.9375 30.40625 C 10.291727 29.972336 10.571466 29.254651 11.15625 29.25 C 11.614851 29.368578 12.212538 29.632956 12.5 29 C 12.881434 28.33608 12.642867 27.453199 12.21875 26.90625 C 11.792658 26.316695 11.130971 25.948959 10.46875 26 C 9.7859884 25.816392 9.5243484 24.94586 9.25 24.28125 C 9.0958962 23.958432 8.821806 23.805906 8.53125 23.75 z "
         inkscape:radius="-0.62826264"
         sodipodi:type="inkscape:offset" />
      <path
         d="M 28.96875,28.625 C 28.895652,28.622101 28.902894,28.635631 28.8125,28.71875 C 28.722106,28.801869 28.580995,28.953036 28.4375,29.15625 C 28.294005,29.359464 28.143049,29.606593 27.875,29.8125 C 27.637532,29.994915 27.272,30.085599 26.90625,30.0625 L 26.90625,30.09375 C 26.854773,30.097422 26.830954,30.092294 26.78125,30.09375 C 26.383276,30.105404 26.028353,30.047247 25.78125,30.0625 C 25.503286,30.079658 25.382953,30.112644 25.21875,30.34375 C 24.947656,30.833629 24.51281,31.06173 24.25,31.21875 C 24.108686,31.30318 24.014031,31.388858 23.96875,31.4375 C 23.923469,31.486142 23.916504,31.478838 23.90625,31.5625 C 23.895788,31.676589 23.852356,31.785169 23.78125,31.875 C 23.34318,32.414717 22.768193,32.596203 22.34375,32.75 C 22.094718,32.840237 21.96912,32.962202 21.8125,33.0625 C 21.872389,33.078428 21.915858,33.091863 22.03125,33.09375 C 22.396416,33.099722 22.987838,32.91176 23.625,33.25 C 23.686453,33.291785 23.739465,33.344797 23.78125,33.40625 C 24.041663,33.715006 24.16455,34.139933 24.09375,34.46875 C 24.02295,34.797567 23.839294,35.009565 23.71875,35.1875 C 23.598206,35.365435 23.523049,35.526992 23.5,35.59375 C 23.476951,35.660508 23.459408,35.617425 23.5,35.6875 C 23.510803,35.697523 23.521227,35.707947 23.53125,35.71875 C 23.691547,36.053197 23.777878,36.04926 24.0625,36.0625 C 24.347122,36.07574 24.770111,35.963105 25.25,35.9375 C 25.260415,35.937224 25.270835,35.937224 25.28125,35.9375 C 25.833425,35.933815 26.365691,35.978831 26.8125,35.9375 C 27.259309,35.896169 27.585512,35.79329 27.90625,35.5 C 27.926448,35.488358 27.947318,35.477924 27.96875,35.46875 C 28.207208,35.292522 28.558444,34.936575 29.03125,34.71875 C 29.267653,34.609837 29.5497,34.537148 29.875,34.59375 C 30.178058,34.646482 30.445763,34.86691 30.65625,35.125 L 30.6875,35.09375 C 30.705016,35.112845 30.701599,35.137044 30.71875,35.15625 C 30.977155,35.445624 31.215689,35.732731 31.40625,35.90625 C 31.609459,36.091285 31.661218,36.136622 31.8125,36.09375 C 31.852902,36.078804 31.894818,36.068325 31.9375,36.0625 C 32.262561,36.039086 32.623264,35.88749 32.875,35.65625 C 33.126736,35.42501 33.273116,35.150603 33.25,34.71875 C 33.242307,34.634139 33.252966,34.548864 33.28125,34.46875 C 33.403943,34.162788 33.621306,33.890956 33.90625,33.75 C 34.191194,33.609044 34.525869,33.625831 34.78125,33.71875 C 35.171,33.860559 35.429732,34.162062 35.59375,34.53125 C 36.033168,34.81559 36.660018,34.682048 36.90625,34.0625 C 36.973312,33.915733 37.097525,33.802812 37.25,33.75 C 37.449668,33.667564 37.663179,33.375137 37.71875,33.0625 C 37.774321,32.749863 37.712465,32.512549 37.5,32.375 C 37.38822,32.311029 37.300425,32.212259 37.25,32.09375 C 37.102004,31.723532 36.864385,31.436574 36.625,31.3125 C 36.385615,31.188426 36.192445,31.181896 35.9375,31.34375 C 35.878956,31.374971 35.815568,31.396101 35.75,31.40625 C 34.556728,31.691652 33.468865,31.469733 32.5625,31.5625 C 32.541681,31.563604 32.520819,31.563604 32.5,31.5625 C 32.112301,31.559839 31.726593,31.343037 31.53125,31.09375 C 31.335907,30.844463 31.284752,30.606338 31.21875,30.40625 C 31.152748,30.206162 31.068302,30.029926 31.03125,29.96875 C 30.999182,29.960972 30.967822,29.950518 30.9375,29.9375 C 30.289851,29.734867 29.967597,29.261623 29.6875,28.96875 C 29.547451,28.822313 29.432056,28.704829 29.34375,28.65625 C 29.255444,28.607671 29.20326,28.607371 29.09375,28.625 C 29.052201,28.629423 29.010299,28.629423 28.96875,28.625 z"
         id="path11074"
         style="fill:none;fill-opacity:1;fill-rule:evenodd;stroke:#edd6bc;stroke-width:0.64198154;stroke-linecap:butt;stroke-linejoin:miter;stroke-miterlimit:4;stroke-dasharray:none;stroke-opacity:1"
         inkscape:original="M 29 28.03125 C 28.025424 27.992605 27.920513 29.681794 26.875 29.5 C 26.151164 29.551637 25.292983 29.235782 24.75 30 C 24.419419 30.725917 23.412195 30.686553 23.3125 31.5 C 22.676073 32.2841 21.571538 32.096084 20.96875 32.9375 C 21.329589 34.178695 22.615807 33.394818 23.34375 33.78125 C 24.023292 34.586941 22.515551 35.132429 23 35.96875 C 23.485727 36.982183 24.499488 36.572961 25.28125 36.53125 C 26.302593 36.524434 27.443365 36.732257 28.3125 35.9375 C 28.87549 35.521433 29.660126 34.704826 30.25 35.5 C 30.731398 36.024801 31.21158 36.870825 31.96875 36.65625 C 32.883847 36.590337 33.908417 35.895598 33.84375 34.6875 C 34.180278 33.848292 35.017727 34.318044 35.15625 35 C 35.909685 35.580272 37.07873 35.262584 37.46875 34.28125 C 38.3427 33.920427 38.689336 32.442662 37.8125 31.875 C 37.423933 30.902987 36.471104 30.306594 35.625 30.84375 C 34.602035 31.088419 33.532056 30.863119 32.5 30.96875 C 31.56559 30.962337 31.932905 29.501241 31.125 29.375 C 30.296174 29.115681 29.9523 27.877946 29 28.03125 z "
         inkscape:radius="-0.5903163"
         sodipodi:type="inkscape:offset" />
    </g>
    <g
       inkscape:label="Layer 1"
       id="g2359"
       transform="matrix(0.2332155,0,0,0.2332155,2.7982313,14.607162)">
      <g
         transform="matrix(0.9396322,0,0,1,1.1552727,0.4559792)"
         id="g7423">
        <rect
           id="rect46899"
           style="opacity:0.4;fill:url(#linearGradient6452);fill-opacity:1;fill-rule:evenodd;stroke:none;stroke-width:1.02400005;stroke-linecap:butt;stroke-linejoin:miter;stroke-miterlimit:4;stroke-dasharray:none;stroke-dashoffset:0;stroke-opacity:1"
           y="38.854225"
           x="7.9137373"
           height="8.6997623"
           width="32.488461" />
        <path
           id="path48849"
           style="opacity:0.4;fill:url(#radialGradient6449);fill-opacity:1;fill-rule:evenodd;stroke:none;stroke-width:1.02400005;stroke-linecap:butt;stroke-linejoin:miter;stroke-miterlimit:4;stroke-dasharray:none;stroke-dashoffset:0;stroke-opacity:1"
           d="M 40.402073,38.841314 L 40.402073,47.545914 C 42.755388,47.513052 44.671085,45.590375 44.671085,43.208994 C 44.671085,40.827614 42.755389,38.874176 40.402073,38.841314 z" />
        <path
           id="path52742"
           style="opacity:0.4;fill:url(#radialGradient6446);fill-opacity:1;fill-rule:evenodd;stroke:none;stroke-width:1.02400005;stroke-linecap:butt;stroke-linejoin:miter;stroke-miterlimit:4;stroke-dasharray:none;stroke-dashoffset:0;stroke-opacity:1"
           d="M 7.9139392,38.841314 L 7.9139392,47.545914 C 5.5606243,47.513052 3.6449278,45.590375 3.6449278,43.208994 C 3.6449278,40.827614 5.5606233,38.874176 7.9139392,38.841314 z" />
      </g>
      <g
         transform="translate(-0.5003605,-0.3335737)"
         id="g15920">
        <rect
           style="opacity:1;fill:url(#linearGradient15929);fill-opacity:1;fill-rule:evenodd;stroke:#555753;stroke-width:1;stroke-linecap:round;stroke-linejoin:round;stroke-miterlimit:4;stroke-dasharray:none;stroke-dashoffset:0;stroke-opacity:1"
           id="rect2280"
           width="36.763309"
           height="44.629875"
           x="6.0980158"
           y="1.2898779"
           rx="2.6324642"
           ry="2.8908169" />
        <path
           sodipodi:type="inkscape:offset"
           inkscape:radius="-1"
           inkscape:original="M 8.71875 1.28125 C 7.2603648 1.28125 6.09375 2.5859877 6.09375 4.1875 L 6.09375 43.03125 C 6.09375 44.632763 7.2603646 45.906249 8.71875 45.90625 L 40.21875 45.90625 C 41.677135 45.90625 42.875001 44.632764 42.875 43.03125 L 42.875 4.1875 C 42.875 2.5859874 41.677133 1.28125 40.21875 1.28125 L 8.71875 1.28125 z "
           style="opacity:1;fill:url(#radialGradient15931);fill-opacity:1;fill-rule:evenodd;stroke:#ffffff;stroke-width:1;stroke-linecap:round;stroke-linejoin:round;stroke-miterlimit:4;stroke-dasharray:none;stroke-dashoffset:0;stroke-opacity:1"
           id="path10047"
           d="M 8.71875,2.28125 C 7.8567951,2.28125 7.09375,3.0716182 7.09375,4.1875 L 7.09375,43.03125 C 7.09375,44.147133 7.8425085,44.906249 8.71875,44.90625 L 40.21875,44.90625 C 41.094991,44.90625 41.875001,44.134125 41.875,43.03125 L 41.875,4.1875 C 41.875,3.0846272 41.080702,2.28125 40.21875,2.28125 L 8.71875,2.28125 z" />
        <rect
           style="opacity:1;fill:#a4a4a4;fill-opacity:1;fill-rule:evenodd;stroke:none;stroke-width:0.2;stroke-linecap:round;stroke-linejoin:round;stroke-miterlimit:4;stroke-dasharray:none;stroke-dashoffset:0;stroke-opacity:1"
           id="rect12006"
           width="1.5818895"
           height="2.6723526"
           x="8.2385483"
           y="7.3459086"
           rx="0.69999999"
           ry="0.69999999" />
        <rect
           style="opacity:1;fill:#a4a4a4;fill-opacity:1;fill-rule:evenodd;stroke:none;stroke-width:1.50999999;stroke-linecap:round;stroke-linejoin:round;stroke-miterlimit:4;stroke-dasharray:none;stroke-dashoffset:0;stroke-opacity:1"
           id="rect13952"
           width="1.5818895"
           height="2.6723526"
           x="8.2555285"
           y="36.875126"
           rx="0.69999999"
           ry="0.69999999" />
        <rect
           style="opacity:1;fill:#a4a4a4;fill-opacity:1;fill-rule:evenodd;stroke:none;stroke-width:1.50999999;stroke-linecap:round;stroke-linejoin:round;stroke-miterlimit:4;stroke-dasharray:none;stroke-dashoffset:0;stroke-opacity:1"
           id="rect13954"
           width="1.5818895"
           height="2.6723526"
           x="8.2555285"
           y="16.94392"
           rx="0.69999999"
           ry="0.69999999" />
        <rect
           style="opacity:1;fill:#a4a4a4;fill-opacity:1;fill-rule:evenodd;stroke:none;stroke-width:1.50999999;stroke-linecap:round;stroke-linejoin:round;stroke-miterlimit:4;stroke-dasharray:none;stroke-dashoffset:0;stroke-opacity:1"
           id="rect13956"
           width="1.5818895"
           height="2.6723526"
           x="8.2555285"
           y="27.204365"
           rx="0.69999999"
           ry="0.69999999" />
        <path
           style="fill:none;fill-rule:evenodd;stroke:#ffffff;stroke-width:0.48995638;stroke-linecap:butt;stroke-linejoin:miter;stroke-miterlimit:4;stroke-dasharray:none;stroke-opacity:1"
           d="M 11.591687,2.6239845 L 11.591687,44.424073"
           id="path13960" />
      </g>
    </g>
    <g
       id="g2236"
       transform="matrix(1.5524297,0,0,1.5524297,-5.8070926,-7.4805435)">
      <g
         transform="matrix(0.2780668,-1.4054005e-2,1.4495097e-2,0.2867941,12.496255,16.43183)"
         id="g6244">
        <path
           style="fill:url(#radialGradient2245);fill-opacity:1;fill-rule:evenodd;stroke:#555753;stroke-width:1;stroke-linecap:butt;stroke-linejoin:miter;stroke-miterlimit:4;stroke-dasharray:none;stroke-dashoffset:0;stroke-opacity:1"
           d="M 13.529155,4.9182174 C 13.284693,4.973823 13.14543,5.2028973 13.200694,5.4327315 L 14.014551,8.8177785 C 13.492992,9.0948261 13.019123,9.44616 12.579077,9.8169231 L 9.714708,8.1918116 C 9.5052507,8.0726153 9.2421281,8.1432376 9.115342,8.3540104 L 7.2840536,11.35762 C 7.1572675,11.568393 7.2472577,11.845921 7.456715,11.965117 L 10.103266,13.458677 C 9.890558,14.109983 9.7495121,14.790005 9.7133492,15.487672 L 6.3591912,16.250589 C 6.1228974,16.304337 5.9735597,16.527322 6.0307223,16.765104 L 6.856384,20.199208 C 6.9135543,20.43699 7.1490683,20.572438 7.3853698,20.518691 L 10.714305,19.761509 C 11.034281,20.324097 11.438712,20.818432 11.877816,21.281946 L 10.065844,24.255289 C 9.9370509,24.464903 9.9990851,24.722903 10.207392,24.843993 L 13.270255,26.630922 C 13.478562,26.752012 13.74082,26.678336 13.869621,26.468723 L 15.674058,23.574702 C 16.334524,23.760682 17.020437,23.889707 17.723111,23.910631 L 18.513382,27.19756 C 18.568637,27.427395 18.797898,27.572649 19.042367,27.517043 L 22.573055,26.713971 C 22.817524,26.658365 22.956787,26.429292 22.901524,26.199457 L 22.099456,22.863469 C 22.640555,22.561167 23.119049,22.182725 23.56768,21.779263 L 26.424521,23.483699 C 26.631253,23.607315 26.923513,23.548324 27.055001,23.340294 L 28.942626,20.349741 C 29.074114,20.141711 29.007818,19.884653 28.801086,19.761037 L 25.938346,18.032072 C 26.098106,17.468782 26.205637,16.878566 26.235917,16.282789 L 29.539637,15.531343 C 29.775938,15.477596 29.925276,15.254611 29.868106,15.01683 L 29.042444,11.582725 C 28.985282,11.344942 28.74976,11.209494 28.513466,11.263241 L 25.234961,12.008951 C 24.896,11.408292 24.488805,10.861396 24.016751,10.371604 L 25.982669,7.5960788 C 26.125274,7.395098 26.091297,7.129971 25.891567,6.995902 L 22.938729,5.0028517 C 22.739007,4.8687829 22.476077,4.93954 22.333472,5.1405213 L 20.284365,8.012579 C 20.259683,8.0473644 20.245863,8.0900603 20.232298,8.1279051 C 19.643285,7.9638037 19.026239,7.8511383 18.402693,7.8196751 L 17.588836,4.4346281 C 17.533572,4.2047938 17.30432,4.0595399 17.05985,4.1151463 L 13.529155,4.9182174 z M 17.249234,12.868124 C 19.220279,12.419802 20.864646,13.523725 21.253134,15.139521 C 21.641614,16.755317 20.671077,18.454013 18.700032,18.902336 C 16.728988,19.350659 15.08462,18.246736 14.69614,16.630939 C 14.307652,15.015147 15.278189,13.316447 17.249234,12.868124 z"
           id="path2212" />
        <path
           sodipodi:type="inkscape:offset"
           inkscape:radius="-0.39745662"
           inkscape:original="M 60.375 3.125 L 60.375 7.15625 C 60.371912 7.5194123 60.130326 7.8372886 59.78125 7.9375 C 59.169905 8.1067881 58.559537 8.3768222 57.96875 8.6875 C 57.661279 8.8483892 57.285825 8.7983287 57.03125 8.5625 L 54.34375 6 L 51.71875 8.75 L 54.21875 11.09375 C 54.494859 11.351352 54.559366 11.764199 54.375 12.09375 C 53.971871 12.770414 53.623576 13.494497 53.40625 14.25 C 53.306039 14.599076 52.988162 14.840662 52.625 14.84375 L 48.75 14.84375 L 48.75 18.65625 L 52.59375 18.65625 C 52.956912 18.659338 53.274789 18.900924 53.375 19.25 C 53.567737 19.931631 53.884546 20.572703 54.25 21.21875 C 54.426168 21.533968 54.375412 21.927325 54.125 22.1875 L 51.34375 25.09375 L 54 27.6875 L 56.75 24.875 C 57.007602 24.598891 57.420449 24.534384 57.75 24.71875 C 58.429534 25.100218 59.139208 25.429005 59.875 25.625 C 60.224076 25.725211 60.465662 26.043088 60.46875 26.40625 L 60.46875 30.3125 L 64.28125 30.3125 L 64.28125 26.34375 C 64.280089 25.989098 64.507041 25.673886 64.84375 25.5625 C 65.481753 25.370962 66.108157 25.06554 66.71875 24.71875 C 67.033968 24.542582 67.427325 24.593338 67.6875 24.84375 L 70.375 27.5 L 73.0625 24.84375 L 70.375 22.15625 C 70.109267 21.890864 70.057769 21.478881 70.25 21.15625 C 70.571694 20.565843 70.8464 19.957479 71.03125 19.3125 C 71.131461 18.963424 71.449338 18.721838 71.8125 18.71875 L 75.625 18.71875 L 75.625 14.90625 L 71.84375 14.90625 C 71.480588 14.903162 71.162711 14.661576 71.0625 14.3125 C 70.851959 13.5584 70.53788 12.848827 70.15625 12.1875 C 69.971884 11.857949 70.036391 11.445102 70.3125 11.1875 L 73.21875 8.53125 L 70.71875 5.78125 L 67.71875 8.5 C 67.479528 8.8411617 67.022497 8.9486984 66.65625 8.75 C 66.056217 8.415393 65.434546 8.1264586 64.78125 7.9375 C 64.432174 7.8372886 64.190588 7.5194123 64.1875 7.15625 L 64.1875 3.125 L 60.375 3.125 z M 62.21875 12.125 C 65.060709 12.125 67.09375 14.292516 67.09375 16.78125 C 67.093749 19.269985 65.06071 21.437499 62.21875 21.4375 C 59.376789 21.437501 57.34375 19.269985 57.34375 16.78125 C 57.343748 14.292517 59.376789 12.125 62.21875 12.125 z "
           style="fill:none;fill-opacity:1;fill-rule:evenodd;stroke:#dddddd;stroke-width:1.22343159;stroke-linecap:butt;stroke-linejoin:miter;stroke-miterlimit:4;stroke-dasharray:none;stroke-dashoffset:0;stroke-opacity:1"
           id="path3195"
           d="M 60.78125,3.53125 L 60.78125,7.15625 C 60.77668,7.6936877 60.422842,8.1641989 59.90625,8.3125 C 59.895837,8.3129096 59.885413,8.3129096 59.875,8.3125 C 59.302845,8.470936 58.731196,8.7289025 58.15625,9.03125 C 57.701006,9.269464 57.126926,9.1929203 56.75,8.84375 L 54.34375,6.5625 L 52.28125,8.75 L 54.5,10.8125 C 54.90841,11.193535 54.991457,11.79379 54.71875,12.28125 C 54.71916,12.291663 54.71916,12.302087 54.71875,12.3125 C 54.327911,12.968535 53.986039,13.663081 53.78125,14.375 C 53.632949,14.891592 53.162437,15.24543 52.625,15.25 L 49.15625,15.25 L 49.15625,18.25 L 52.59375,18.25 C 53.131187,18.25457 53.601699,18.608408 53.75,19.125 C 53.75041,19.135413 53.75041,19.145837 53.75,19.15625 C 53.929462,19.790934 54.235307,20.397598 54.59375,21.03125 C 54.854475,21.497766 54.776855,22.083696 54.40625,22.46875 L 51.90625,25.09375 L 54,27.125 L 56.46875,24.59375 C 56.849785,24.18534 57.45004,24.102293 57.9375,24.375 C 58.599039,24.746366 59.278366,25.066101 59.96875,25.25 C 59.979163,25.24959 59.989587,25.24959 60,25.25 C 60.516592,25.398301 60.87043,25.868813 60.875,26.40625 L 60.875,29.90625 L 63.875,29.90625 L 63.875,26.34375 C 63.873281,25.818767 64.220328,25.352382 64.71875,25.1875 C 65.313928,25.008819 65.935022,24.713631 66.53125,24.375 C 66.997766,24.114275 67.583696,24.191895 67.96875,24.5625 L 70.375,26.9375 L 72.5,24.84375 L 70.09375,22.4375 C 69.700659,22.044922 69.621888,21.414759 69.90625,20.9375 C 70.218544,20.364345 70.481896,19.795857 70.65625,19.1875 C 70.804551,18.670908 71.275063,18.31707 71.8125,18.3125 L 75.21875,18.3125 L 75.21875,15.3125 L 71.84375,15.3125 C 71.306313,15.30793 70.835801,14.954092 70.6875,14.4375 C 70.68709,14.427087 70.68709,14.416663 70.6875,14.40625 C 70.487124,13.68856 70.179799,13.011493 69.8125,12.375 C 69.539793,11.88754 69.62284,11.287285 70.03125,10.90625 L 72.65625,8.5 L 70.6875,6.34375 L 68,8.78125 L 67.96875,8.75 C 67.605078,9.2077617 66.988291,9.3756143 66.46875,9.09375 C 65.885703,8.7686155 65.270312,8.4901105 64.65625,8.3125 C 64.139658,8.1641989 63.78582,7.6936877 63.78125,7.15625 L 63.78125,3.53125 L 60.78125,3.53125 z M 62.21875,11.71875 C 65.262798,11.71875 67.5,14.076062 67.5,16.78125 C 67.499999,19.486439 65.262799,21.843749 62.21875,21.84375 C 59.1747,21.843751 56.9375,19.486439 56.9375,16.78125 C 56.937498,14.076062 59.1747,11.71875 62.21875,11.71875 z"
           transform="matrix(0.807015,-0.1835593,0.188722,0.7849383,-35.400318,14.137586)" />
        <path
           style="fill:url(#radialGradient2247);fill-opacity:1;fill-rule:evenodd;stroke:#555753;stroke-width:1;stroke-linecap:butt;stroke-linejoin:miter;stroke-miterlimit:4;stroke-dasharray:none;stroke-dashoffset:0;stroke-opacity:1"
           d="M 29.974023,22.470736 C 29.782653,22.434203 29.608601,22.553485 29.572001,22.73378 L 29.032896,25.389179 C 28.572418,25.423661 28.121225,25.525691 27.687575,25.652025 L 26.195337,23.608209 C 26.086335,23.458499 25.876808,23.426822 25.717618,23.536994 L 23.431725,25.099373 C 23.272535,25.209545 23.244804,25.434485 23.353806,25.584194 L 24.735194,27.466932 C 24.370046,27.863043 24.046165,28.301811 23.790716,28.785708 L 21.165016,28.284429 C 20.98004,28.249116 20.800863,28.360945 20.762989,28.54747 L 20.216077,31.241356 C 20.178209,31.427884 20.300301,31.597228 20.485282,31.632544 L 23.091238,32.130052 C 23.132396,32.628797 23.255825,33.105358 23.413952,33.570823 L 21.151704,35.117727 C 20.991475,35.226453 20.950388,35.428842 21.057952,35.579538 L 22.637389,37.799904 C 22.744952,37.950599 22.954873,37.979841 23.115107,37.871118 L 25.345888,36.378168 C 25.752149,36.715481 26.195187,37.020285 26.685705,37.25358 L 26.162228,39.832012 C 26.125623,40.012304 26.240058,40.186663 26.431434,40.223199 L 29.195325,40.750859 C 29.3867,40.787395 29.560751,40.668113 29.597352,40.487818 L 30.12864,37.870901 C 30.61127,37.82457 31.074667,37.704739 31.525168,37.557869 L 32.985943,39.655641 C 33.09156,39.80764 33.317881,39.85663 33.479495,39.749866 L 35.800967,38.214267 C 35.962581,38.107504 36.00034,37.904458 35.894724,37.752459 L 34.437855,35.635444 C 34.736525,35.285339 35.007095,34.899888 35.224811,34.486474 L 37.811027,34.980214 C 37.996008,35.01553 38.175186,34.903701 38.213054,34.717174 L 38.759966,32.023288 C 38.79784,31.836762 38.675742,31.667415 38.490766,31.632102 L 35.924289,31.14213 C 35.882235,30.610463 35.774166,30.09574 35.601371,29.601381 L 37.907423,28.242728 C 38.074585,28.144424 38.13788,27.945698 38.040665,27.788458 L 36.60702,25.45601 C 36.50981,25.298772 36.300376,25.267251 36.133213,25.365556 L 33.73647,26.766857 C 33.707538,26.783871 33.683689,26.809876 33.661618,26.832518 C 33.29873,26.532944 32.899051,26.26116 32.468019,26.044985 L 33.007124,23.389586 C 33.043725,23.209291 32.929295,23.034934 32.737919,22.998399 L 29.974023,22.470736 z M 29.988267,29.269321 C 31.531239,29.563894 32.331566,30.858549 32.074237,32.126063 C 31.816904,33.393573 30.570233,34.297432 29.02726,34.00286 C 27.484288,33.708288 26.683961,32.413632 26.941295,31.146121 C 27.198622,29.878611 28.445294,28.974749 29.988267,29.269321 z"
           id="path2320" />
        <path
           sodipodi:type="inkscape:offset"
           inkscape:radius="-0.79479486"
           inkscape:original="M 60.375 3.125 L 60.375 7.15625 C 60.371912 7.5194123 60.130326 7.8372886 59.78125 7.9375 C 59.169905 8.1067881 58.559537 8.3768222 57.96875 8.6875 C 57.661279 8.8483892 57.285825 8.7983287 57.03125 8.5625 L 54.34375 6 L 51.71875 8.75 L 54.21875 11.09375 C 54.494859 11.351352 54.559366 11.764199 54.375 12.09375 C 53.971871 12.770414 53.623576 13.494497 53.40625 14.25 C 53.306039 14.599076 52.988162 14.840662 52.625 14.84375 L 48.75 14.84375 L 48.75 18.65625 L 52.59375 18.65625 C 52.956912 18.659338 53.274789 18.900924 53.375 19.25 C 53.567737 19.931631 53.884546 20.572703 54.25 21.21875 C 54.426168 21.533968 54.375412 21.927325 54.125 22.1875 L 51.34375 25.09375 L 54 27.6875 L 56.75 24.875 C 57.007602 24.598891 57.420449 24.534384 57.75 24.71875 C 58.429534 25.100218 59.139208 25.429005 59.875 25.625 C 60.224076 25.725211 60.465662 26.043088 60.46875 26.40625 L 60.46875 30.3125 L 64.28125 30.3125 L 64.28125 26.34375 C 64.280089 25.989098 64.507041 25.673886 64.84375 25.5625 C 65.481753 25.370962 66.108157 25.06554 66.71875 24.71875 C 67.033968 24.542582 67.427325 24.593338 67.6875 24.84375 L 70.375 27.5 L 73.0625 24.84375 L 70.375 22.15625 C 70.109267 21.890864 70.057769 21.478881 70.25 21.15625 C 70.571694 20.565843 70.8464 19.957479 71.03125 19.3125 C 71.131461 18.963424 71.449338 18.721838 71.8125 18.71875 L 75.625 18.71875 L 75.625 14.90625 L 71.84375 14.90625 C 71.480588 14.903162 71.162711 14.661576 71.0625 14.3125 C 70.851959 13.5584 70.53788 12.848827 70.15625 12.1875 C 69.971884 11.857949 70.036391 11.445102 70.3125 11.1875 L 73.21875 8.53125 L 70.71875 5.78125 L 67.71875 8.5 C 67.479528 8.8411617 67.022497 8.9486984 66.65625 8.75 C 66.056217 8.415393 65.434546 8.1264586 64.78125 7.9375 C 64.432174 7.8372886 64.190588 7.5194123 64.1875 7.15625 L 64.1875 3.125 L 60.375 3.125 z M 62.21875 12.125 C 65.060709 12.125 67.09375 14.292516 67.09375 16.78125 C 67.093749 19.269985 65.06071 21.437499 62.21875 21.4375 C 59.376789 21.437501 57.34375 19.269985 57.34375 16.78125 C 57.343748 14.292517 59.376789 12.125 62.21875 12.125 z "
           style="fill:none;fill-opacity:1;fill-rule:evenodd;stroke:#dddddd;stroke-width:1.57315135;stroke-linecap:butt;stroke-linejoin:miter;stroke-miterlimit:4;stroke-dasharray:none;stroke-dashoffset:0;stroke-opacity:1"
           id="path2322"
           d="M 61.15625,3.90625 L 61.15625,7.15625 C 61.150199,7.8679111 60.684057,8.4911235 60,8.6875 C 60.000205,8.6979157 60.000205,8.7083343 60,8.71875 C 59.467023,8.8663371 58.90286,9.1122303 58.34375,9.40625 C 57.740776,9.7217657 56.999241,9.6187281 56.5,9.15625 C 56.489296,9.146125 56.478875,9.1357043 56.46875,9.125 L 54.375,7.125 L 52.84375,8.71875 L 54.75,10.5 C 55.290672,11.004432 55.423522,11.823429 55.0625,12.46875 C 55.062705,12.479166 55.062705,12.489584 55.0625,12.5 C 54.683947,13.135413 54.348505,13.800401 54.15625,14.46875 C 53.959874,15.152809 53.336661,15.618949 52.625,15.625 L 49.53125,15.625 L 49.53125,17.875 L 52.59375,17.875 C 53.305411,17.881051 53.928624,18.347191 54.125,19.03125 C 54.291191,19.619 54.586067,20.191239 54.9375,20.8125 C 54.937705,20.822916 54.937705,20.833334 54.9375,20.84375 C 55.282757,21.46152 55.178262,22.240104 54.6875,22.75 L 52.46875,25.0625 L 54,26.5625 L 56.1875,24.3125 C 56.691932,23.771828 57.479679,23.670228 58.125,24.03125 C 58.76855,24.392518 59.448761,24.671943 60.09375,24.84375 C 60.093955,24.854166 60.093955,24.864584 60.09375,24.875 C 60.777809,25.071376 61.243949,25.694589 61.25,26.40625 L 61.25,29.53125 L 63.5,29.53125 L 63.5,26.34375 C 63.497724,25.648487 63.933662,25.030862 64.59375,24.8125 C 64.604166,24.812295 64.614584,24.812295 64.625,24.8125 C 65.177365,24.646672 65.730632,24.361725 66.3125,24.03125 C 66.322916,24.031045 66.333334,24.031045 66.34375,24.03125 C 66.96152,23.685993 67.740104,23.790488 68.25,24.28125 L 70.375,26.375 L 71.9375,24.84375 L 69.8125,22.71875 C 69.292089,22.199018 69.186034,21.381842 69.5625,20.75 C 69.865397,20.194091 70.117389,19.665495 70.28125,19.09375 C 70.477626,18.409691 71.100839,17.943551 71.8125,17.9375 L 74.84375,17.9375 L 74.84375,15.6875 L 71.84375,15.6875 C 71.132089,15.681449 70.508876,15.215309 70.3125,14.53125 C 70.122287,13.849958 69.821723,13.205416 69.46875,12.59375 C 69.468545,12.583334 69.468545,12.572916 69.46875,12.5625 C 69.107728,11.917179 69.240578,11.098182 69.78125,10.59375 L 72.09375,8.46875 L 70.65625,6.90625 L 68.375,8.96875 L 68.25,9.09375 L 68.21875,9.0625 C 67.727654,9.6096533 66.940239,9.7950184 66.28125,9.4375 C 65.715185,9.1218351 65.137339,8.8537658 64.5625,8.6875 C 63.878443,8.4911235 63.412301,7.8679111 63.40625,7.15625 L 63.40625,3.90625 L 61.15625,3.90625 z M 62.21875,11.34375 C 65.464827,11.34375 67.875,13.859672 67.875,16.78125 C 67.874999,19.702828 65.464827,22.218749 62.21875,22.21875 C 58.972671,22.218751 56.5625,19.702828 56.5625,16.78125 C 56.562498,13.859672 58.972671,11.34375 62.21875,11.34375 z"
           transform="matrix(0.631747,0.1206081,-0.1250089,0.6157451,-7.6997053,13.802796)" />
      </g>
      <path
         transform="matrix(1.035461,0,0,1,-0.510195,-1.375)"
         d="M 21.4375,29.6875 A 4.40625,0.875 0 1 1 12.625,29.6875 A 4.40625,0.875 0 1 1 21.4375,29.6875 z"
         sodipodi:ry="0.875"
         sodipodi:rx="4.40625"
         sodipodi:cy="29.6875"
         sodipodi:cx="17.03125"
         id="path2456"
         style="opacity:0.31540342;fill:url(#radialGradient2249);fill-opacity:1;fill-rule:evenodd;stroke:none;stroke-width:1;stroke-linecap:round;stroke-linejoin:round;stroke-miterlimit:4;stroke-dasharray:none;stroke-dashoffset:0;stroke-opacity:1"
         sodipodi:type="arc" />
      <path
         transform="matrix(0.8014184,0,0,1,7.6008421,-1.4999999)"
         d="M 21.4375,29.6875 A 4.40625,0.875 0 1 1 12.625,29.6875 A 4.40625,0.875 0 1 1 21.4375,29.6875 z"
         sodipodi:ry="0.875"
         sodipodi:rx="4.40625"
         sodipodi:cy="29.6875"
         sodipodi:cx="17.03125"
         id="path3435"
         style="opacity:0.31540342;fill:url(#radialGradient2251);fill-opacity:1;fill-rule:evenodd;stroke:none;stroke-width:1;stroke-linecap:round;stroke-linejoin:round;stroke-miterlimit:4;stroke-dasharray:none;stroke-dashoffset:0;stroke-opacity:1"
         sodipodi:type="arc" />
    </g>
    <path
       sodipodi:nodetypes="cccccccc"
       id="path2207"
       d="M 1.8434543,33.163839 L 8.4277541,39.708296 L 8.4048623,35.626466 L 14.426096,35.612268 L 14.36623,30.549712 L 8.3766521,30.59537 L 8.3539397,26.545185 L 1.8434543,33.163839 z "
       style="color:#000000;fill:url(#linearGradient2465);fill-opacity:1;fill-rule:evenodd;stroke:#204a87;stroke-width:0.43885037;stroke-linecap:round;stroke-linejoin:round;marker:none;marker-start:none;marker-mid:none;marker-end:none;stroke-miterlimit:4;stroke-dasharray:none;stroke-dashoffset:0;stroke-opacity:1;visibility:visible;display:inline;overflow:visible" />
    <path
       style="color:#000000;fill:url(#linearGradient2478);fill-opacity:1;fill-rule:evenodd;stroke:#204a87;stroke-width:0.43885037;stroke-linecap:round;stroke-linejoin:round;marker:none;marker-start:none;marker-mid:none;marker-end:none;stroke-miterlimit:4;stroke-dasharray:none;stroke-dashoffset:0;stroke-opacity:1;visibility:visible;display:inline;overflow:visible"
       d="M 46.176096,33.111118 L 39.591796,39.655575 L 39.614688,35.573745 L 33.593454,35.559547 L 33.65332,30.496991 L 39.642898,30.542649 L 39.665611,26.492464 L 46.176096,33.111118 z "
       id="path2476"
       sodipodi:nodetypes="cccccccc" />
  </g>
</svg>
