<?xml version="1.0" encoding="UTF-8" standalone="no"?>
<!-- Created with Inkscape (http://www.inkscape.org/) -->
<svg
   xmlns:dc="http://purl.org/dc/elements/1.1/"
   xmlns:cc="http://web.resource.org/cc/"
   xmlns:rdf="http://www.w3.org/1999/02/22-rdf-syntax-ns#"
   xmlns:svg="http://www.w3.org/2000/svg"
   xmlns="http://www.w3.org/2000/svg"
   xmlns:xlink="http://www.w3.org/1999/xlink"
   xmlns:sodipodi="http://sodipodi.sourceforge.net/DTD/sodipodi-0.dtd"
   xmlns:inkscape="http://www.inkscape.org/namespaces/inkscape"
   inkscape:export-ydpi="90.000000"
   inkscape:export-xdpi="90.000000"
   inkscape:export-filename="/home/patrick/Desktop/desktop.png"
   width="48px"
   height="48px"
   id="svg11300"
   sodipodi:version="0.32"
   inkscape:version="0.45+devel"
   sodipodi:docbase="/home/patrick/Projects/Beryl/svn/beryl/trunk/beryl-settings/images"
   sodipodi:docname="plugin-unknown.svg"
   inkscape:output_extension="org.inkscape.output.svg.inkscape">
  <defs
     id="defs3">
    <linearGradient
       id="linearGradient3990">
      <stop
         style="stop-color:#6795cf;stop-opacity:1;"
         offset="0"
         id="stop3992" />
      <stop
         style="stop-color:#3465a4;stop-opacity:1;"
         offset="1"
         id="stop3994" />
    </linearGradient>
    <linearGradient
       id="linearGradient2277">
      <stop
         id="stop2279"
         offset="0"
         style="stop-color:#eff0ef;stop-opacity:1;" />
      <stop
         id="stop2281"
         offset="1"
         style="stop-color:#babdb6;stop-opacity:1;" />
    </linearGradient>
    <radialGradient
       inkscape:collect="always"
       xlink:href="#linearGradient3990"
       id="radialGradient2262"
       gradientUnits="userSpaceOnUse"
       gradientTransform="matrix(0.6461339,0.222705,-0.2929393,0.8425366,-18.075775,0.3108908)"
       cx="56.704376"
       cy="10.241054"
       fx="56.704376"
       fy="10.241054"
       r="14.75" />
    <linearGradient
       id="linearGradient259">
      <stop
         style="stop-color:#fafafa;stop-opacity:1.0000000;"
         offset="0.0000000"
         id="stop260" />
      <stop
         style="stop-color:#bbbbbb;stop-opacity:1.0000000;"
         offset="1.0000000"
         id="stop261" />
    </linearGradient>
    <linearGradient
       id="linearGradient269">
      <stop
         style="stop-color:#a3a3a3;stop-opacity:1.0000000;"
         offset="0.0000000"
         id="stop270" />
      <stop
         style="stop-color:#8a8a8a;stop-opacity:1;"
         offset="1"
         id="stop271" />
    </linearGradient>
    <linearGradient
       id="linearGradient15662">
      <stop
         style="stop-color:#ffffff;stop-opacity:1.0000000;"
         offset="0.0000000"
         id="stop15664" />
      <stop
         style="stop-color:#f8f8f8;stop-opacity:1.0000000;"
         offset="1.0000000"
         id="stop15666" />
    </linearGradient>
    <linearGradient
       id="linearGradient2251"
       inkscape:collect="always">
      <stop
         id="stop2253"
         offset="0"
         style="stop-color:#ffffff;stop-opacity:1;" />
      <stop
         id="stop2255"
         offset="1"
         style="stop-color:#ffffff;stop-opacity:0;" />
    </linearGradient>
    <linearGradient
       id="linearGradient4790"
       inkscape:collect="always">
      <stop
         id="stop4792"
         offset="0"
         style="stop-color:#000000;stop-opacity:1;" />
      <stop
         id="stop4794"
         offset="1"
         style="stop-color:#000000;stop-opacity:0;" />
    </linearGradient>
    <linearGradient
       id="linearGradient3688"
       inkscape:collect="always">
      <stop
         id="stop3690"
         offset="0"
         style="stop-color:black;stop-opacity:1;" />
      <stop
         id="stop3692"
         offset="1"
         style="stop-color:black;stop-opacity:0;" />
    </linearGradient>
    <linearGradient
       id="linearGradient3702">
      <stop
         id="stop3704"
         offset="0"
         style="stop-color:black;stop-opacity:0;" />
      <stop
         style="stop-color:black;stop-opacity:1;"
         offset="0.5"
         id="stop3710" />
      <stop
         id="stop3706"
         offset="1"
         style="stop-color:black;stop-opacity:0;" />
    </linearGradient>
    <radialGradient
       inkscape:collect="always"
       xlink:href="#linearGradient3688"
       id="radialGradient2401"
       gradientUnits="userSpaceOnUse"
       gradientTransform="matrix(2.003784,0,0,1.4,27.98813,-17.4)"
       cx="4.9929786"
       cy="43.5"
       fx="4.9929786"
       fy="43.5"
       r="2.5" />
    <radialGradient
       inkscape:collect="always"
       xlink:href="#linearGradient3688"
       id="radialGradient2403"
       gradientUnits="userSpaceOnUse"
       gradientTransform="matrix(2.003784,0,0,1.4,-20.01187,-104.4)"
       cx="4.9929786"
       cy="43.5"
       fx="4.9929786"
       fy="43.5"
       r="2.5" />
    <linearGradient
       inkscape:collect="always"
       xlink:href="#linearGradient3702"
       id="linearGradient2405"
       gradientUnits="userSpaceOnUse"
       x1="25.058096"
       y1="47.027729"
       x2="25.058096"
       y2="39.999443" />
    <radialGradient
       inkscape:collect="always"
       xlink:href="#linearGradient259"
       id="radialGradient2407"
       gradientUnits="userSpaceOnUse"
       gradientTransform="matrix(0.961084,0,0,1.044459,-4.060961e-3,-0.142424)"
       cx="33.966679"
       cy="35.736916"
       fx="33.966679"
       fy="35.736916"
       r="86.708450" />
    <radialGradient
       inkscape:collect="always"
       xlink:href="#linearGradient269"
       id="radialGradient2409"
       gradientUnits="userSpaceOnUse"
       gradientTransform="matrix(0.968868,0,0,1.036068,3.351554,0.506089)"
       cx="8.8244190"
       cy="3.7561285"
       fx="8.8244190"
       fy="3.7561285"
       r="37.751713" />
    <radialGradient
       inkscape:collect="always"
       xlink:href="#linearGradient15662"
       id="radialGradient2411"
       gradientUnits="userSpaceOnUse"
       gradientTransform="matrix(0.968273,0,0,1.032767,3.353553,0.646447)"
       cx="8.1435566"
       cy="7.2678967"
       fx="8.1435566"
       fy="7.2678967"
       r="38.158695" />
    <radialGradient
       inkscape:collect="always"
       xlink:href="#linearGradient4790"
       id="radialGradient2413"
       gradientUnits="userSpaceOnUse"
       gradientTransform="matrix(1.744653,0,0,1.283833,-26.58256,-3.478359)"
       cx="37.030354"
       cy="12.98915"
       fx="37.030354"
       fy="12.98915"
       r="4.2929165" />
    <radialGradient
       inkscape:collect="always"
       xlink:href="#linearGradient259"
       id="radialGradient2415"
       gradientUnits="userSpaceOnUse"
       gradientTransform="matrix(0.148355,1.009137e-2,-1.104438e-2,0.162365,25.06011,12.81706)"
       cx="30.653816"
       cy="14.9373"
       fx="30.653816"
       fy="14.9373"
       r="86.708450" />
    <radialGradient
       inkscape:collect="always"
       xlink:href="#linearGradient269"
       id="radialGradient2417"
       gradientUnits="userSpaceOnUse"
       gradientTransform="matrix(0.331735,0,0,0.353831,20.10526,9.5823)"
       cx="31.863327"
       cy="2.3667307"
       fx="31.863327"
       fy="2.3667307"
       r="37.751713" />
    <linearGradient
       inkscape:collect="always"
       xlink:href="#linearGradient2251"
       id="linearGradient2419"
       gradientUnits="userSpaceOnUse"
       gradientTransform="matrix(-2.48131e-2,-0.756771,0.756567,-2.481981e-2,8.221918,36.1682)"
       x1="33.396004"
       y1="36.921333"
       x2="34.170048"
       y2="38.070381" />
    <linearGradient
       id="linearGradient15837"
       inkscape:collect="always">
      <stop
         id="stop15839"
         offset="0"
         style="stop-color:#000000;stop-opacity:1;" />
      <stop
         id="stop15841"
         offset="1"
         style="stop-color:#000000;stop-opacity:0;" />
    </linearGradient>
    <radialGradient
       inkscape:collect="always"
       xlink:href="#linearGradient15837"
       id="radialGradient4085"
       gradientUnits="userSpaceOnUse"
       gradientTransform="matrix(1,0,0,7.4074073e-2,0,0.4629607)"
       cx="26.812502"
       cy="0.49999759"
       fx="26.812502"
       fy="0.49999759"
       r="25.312502" />
    <radialGradient
       inkscape:collect="always"
       xlink:href="#linearGradient2277"
       id="radialGradient4087"
       gradientUnits="userSpaceOnUse"
       gradientTransform="matrix(4.7031029e-3,2.1657386,-2.7879239,6.3326526e-3,27.911065,-23.766194)"
       cx="12.077888"
       cy="5.1155567"
       fx="12.077888"
       fy="5.1155567"
       r="5.5790009" />
    <radialGradient
       inkscape:collect="always"
       xlink:href="#linearGradient2277"
       id="radialGradient4089"
       gradientUnits="userSpaceOnUse"
       gradientTransform="matrix(-0.2845599,2.8526856,-1.985305,-0.1980374,-23.581481,-70.216125)"
       cx="13.154457"
       cy="-21.555107"
       fx="13.154457"
       fy="-21.555107"
       r="12.3125" />
  </defs>
  <sodipodi:namedview
     stroke="#ef2929"
     fill="#eeeeec"
     id="base"
     pagecolor="#ffffff"
     bordercolor="#666666"
     borderopacity="0.25490196"
     inkscape:pageopacity="0.0"
     inkscape:pageshadow="2"
     inkscape:zoom="1.4142135"
     inkscape:cx="33.774601"
     inkscape:cy="16.124203"
     inkscape:current-layer="layer1"
     showgrid="false"
     inkscape:grid-bbox="true"
     inkscape:document-units="px"
     inkscape:showpageshadow="false"
     inkscape:window-width="906"
     inkscape:window-height="662"
     inkscape:window-x="244"
     inkscape:window-y="87"
     showguides="true"
     inkscape:guide-bbox="true">
    <sodipodi:guide
       orientation="vertical"
       position="5.0000002"
       id="guide2367" />
    <sodipodi:guide
       orientation="horizontal"
       position="5.0000002"
       id="guide2369" />
  </sodipodi:namedview>
  <metadata
     id="metadata4">
    <rdf:RDF>
      <cc:Work
         rdf:about="">
        <dc:format>image/svg+xml</dc:format>
        <dc:type
           rdf:resource="http://purl.org/dc/dcmitype/StillImage" />
        <dc:creator>
          <cc:Agent>
            <dc:title>Patrick Niklaus</dc:title>
          </cc:Agent>
        </dc:creator>
        <dc:source />
        <cc:license
           rdf:resource="http://creativecommons.org/licenses/GPL/2.0/" />
        <dc:title>SchemeP</dc:title>
        <dc:subject>
          <rdf:Bag />
        </dc:subject>
      </cc:Work>
      <cc:License
         rdf:about="http://creativecommons.org/licenses/GPL/2.0/">
        <cc:permits
           rdf:resource="http://web.resource.org/cc/Reproduction" />
        <cc:permits
           rdf:resource="http://web.resource.org/cc/Distribution" />
        <cc:requires
           rdf:resource="http://web.resource.org/cc/Notice" />
        <cc:permits
           rdf:resource="http://web.resource.org/cc/DerivativeWorks" />
        <cc:requires
           rdf:resource="http://web.resource.org/cc/ShareAlike" />
        <cc:requires
           rdf:resource="http://web.resource.org/cc/SourceCode" />
      </cc:License>
    </rdf:RDF>
  </metadata>
  <g
     id="layer1"
     inkscape:label="Layer 1"
     inkscape:groupmode="layer">
    <g
       id="g2385"
       transform="translate(-1.0944649,-2.067845)">
      <g
         inkscape:label="Shadow"
         id="layer6">
        <g
           transform="matrix(1.052632,0,0,1.285713,-1.263158,-13.42854)"
           style="opacity:0.4"
           id="g3712">
          <rect
             style="opacity:1;fill:url(#radialGradient2401);fill-opacity:1;stroke:none;stroke-width:1;stroke-linecap:round;stroke-linejoin:miter;stroke-miterlimit:4;stroke-dasharray:none;stroke-opacity:1"
             id="rect2801"
             width="5"
             height="7"
             x="38"
             y="40" />
          <rect
             style="opacity:1;fill:url(#radialGradient2403);fill-opacity:1;stroke:none;stroke-width:1;stroke-linecap:round;stroke-linejoin:miter;stroke-miterlimit:4;stroke-dasharray:none;stroke-opacity:1"
             id="rect3696"
             width="5"
             height="7"
             x="-10"
             y="-47"
             transform="scale(-1,-1)" />
          <rect
             style="opacity:1;fill:url(#linearGradient2405);fill-opacity:1;stroke:none;stroke-width:1;stroke-linecap:round;stroke-linejoin:miter;stroke-miterlimit:4;stroke-dasharray:none;stroke-opacity:1"
             id="rect3700"
             width="28"
             height="7.0000005"
             x="10"
             y="40" />
        </g>
      </g>
      <g
         id="g2392"
         inkscape:label="Base"
         style="display:inline">
        <path
           sodipodi:nodetypes="ccccccccc"
           id="rect15391"
           d="M 7.7533083,3.5156762 L 36.217818,3.5000013 C 36.217818,3.5000013 41.500001,8.7962658 41.500001,9.4348733 L 41.500001,43.414232 C 41.500001,44.052839 40.98721,44.566952 40.350246,44.566952 L 7.7533083,44.566952 C 7.1163439,44.566952 6.603553,44.052839 6.603553,43.414232 L 6.603553,4.6683972 C 6.603553,4.0297898 7.1163439,3.5156762 7.7533083,3.5156762 z"
           style="color:#000000;fill:url(#radialGradient2407);fill-opacity:1;fill-rule:nonzero;stroke:url(#radialGradient2409);stroke-width:1.00000012;stroke-linecap:round;stroke-linejoin:round;marker:none;marker-start:none;marker-mid:none;marker-end:none;stroke-miterlimit:4;stroke-dashoffset:0;stroke-opacity:1;visibility:visible;display:block;overflow:visible" />
        <path
           sodipodi:nodetypes="ccccccccc"
           id="rect15660"
           d="M 7.8151023,4.5839462 L 36.691494,4.5839462 C 36.691494,4.5839462 40.44194,8.605373 40.44194,8.687946 L 40.44194,43.381282 C 40.44194,43.463855 40.375465,43.530331 40.292892,43.530331 L 7.8151023,43.530331 C 7.7325294,43.530331 7.6660538,43.463855 7.6660538,43.381282 L 7.6660538,4.7329948 C 7.6660538,4.6504219 7.7325294,4.5839462 7.8151023,4.5839462 z"
           style="color:#000000;fill:none;fill-opacity:1;fill-rule:nonzero;stroke:url(#radialGradient2411);stroke-width:1;stroke-linecap:round;stroke-linejoin:round;marker:none;marker-start:none;marker-mid:none;marker-end:none;stroke-miterlimit:4;stroke-dashoffset:0;stroke-opacity:1;visibility:visible;display:block;overflow:visible" />
      </g>
      <g
         style="display:inline"
         inkscape:label="Text"
         id="layer5">
        <g
           transform="matrix(0.589097,0,0,0.577622,17.11331,1.395056)"
           id="g1918">
          <path
             inkscape:r_cy="true"
             inkscape:r_cx="true"
             style="opacity:0.35714285;color:#000000;fill:url(#radialGradient2413);fill-opacity:1;fill-rule:evenodd;stroke:none;stroke-width:1.00000024;stroke-linecap:butt;stroke-linejoin:miter;marker:none;marker-start:none;marker-mid:none;marker-end:none;stroke-miterlimit:4;stroke-dasharray:none;stroke-dashoffset:0;stroke-opacity:1;visibility:visible;display:inline;overflow:visible"
             d="M 40.985189,13.861445 C 40.256827,12.514817 34.882221,10.130934 32.084635,9.3314083 C 32.254143,10.904354 31.961856,15.649439 31.961856,15.649439 C 34.024356,14.274439 40.204485,13.699331 40.985189,13.861445 z"
             id="path5348"
             sodipodi:nodetypes="cccc" />
          <path
             style="opacity:1;color:#000000;fill:url(#radialGradient2415);fill-opacity:1;fill-rule:nonzero;stroke:url(#radialGradient2417);stroke-width:1.71429098;stroke-linecap:butt;stroke-linejoin:round;marker:none;marker-start:none;marker-mid:none;marker-end:none;stroke-miterlimit:4;stroke-dasharray:none;stroke-dashoffset:0;stroke-opacity:1;visibility:visible;display:block;overflow:visible"
             d="M 41.410559,13.739267 C 41.423724,12.324125 35.058025,3.5320142 31.175441,3.6354934 C 32.148479,3.8684884 32.634036,9.5059668 31.244316,12.318467 C 33.994316,12.318467 40.446694,11.881093 41.410559,13.739267 z"
             id="path2210"
             sodipodi:nodetypes="cccc"
             inkscape:r_cx="true"
             inkscape:r_cy="true" />
          <path
             sodipodi:nodetypes="cccc"
             id="path2247"
             d="M 38.373065,10.820521 C 37.821714,9.8008851 35.225165,6.9819727 33.769819,6.0453244 C 33.950691,7.1249452 33.99069,8.6442222 33.524667,10.584399 C 33.524667,10.584399 37.782093,10.697772 38.373065,10.820521 z"
             style="opacity:1;color:#000000;fill:none;fill-opacity:1;fill-rule:evenodd;stroke:url(#linearGradient2419);stroke-width:1.71429169;stroke-linecap:butt;stroke-linejoin:miter;marker:none;marker-start:none;marker-mid:none;marker-end:none;stroke-miterlimit:4;stroke-dasharray:none;stroke-dashoffset:0;stroke-opacity:1;visibility:visible;display:inline;overflow:visible"
             inkscape:r_cx="true"
             inkscape:r_cy="true" />
        </g>
      </g>
    </g>
    <path
       style="fill:url(#radialGradient2262);fill-opacity:1;fill-rule:evenodd;stroke:#204a87;stroke-width:0.82255423000000005;stroke-linecap:butt;stroke-linejoin:miter;stroke-miterlimit:4;stroke-dasharray:none;stroke-dashoffset:0;stroke-opacity:1"
       d="M 14.557556,14.08325 C 14.327831,14.220931 14.263009,14.504937 14.396031,14.726262 L 16.355191,17.985987 C 15.918081,18.444703 15.554273,18.965218 15.231317,19.494932 L 11.778057,18.737153 C 11.525416,18.681366 11.281771,18.840771 11.223495,19.101648 L 10.368142,22.827263 C 10.309868,23.088139 10.49412,23.347803 10.746761,23.40359 L 13.934754,24.095442 C 13.93658,24.84314 14.020804,25.597362 14.217472,26.335734 L 11.065601,28.224742 C 10.843553,28.357823 10.766455,28.638777 10.904075,28.867756 L 12.891629,32.174723 C 13.02925,32.403701 13.313799,32.46791 13.535847,32.33483 L 16.664019,30.460024 C 17.177252,30.941512 17.753449,31.324359 18.354548,31.663794 L 17.508696,35.351584 C 17.447987,35.611911 17.597316,35.860358 17.849419,35.918493 L 21.558443,36.780023 C 21.810547,36.838158 22.052297,36.675854 22.113005,36.415528 L 22.977749,32.812804 C 23.710856,32.790975 24.450758,32.70153 25.171523,32.494034 L 27.073896,35.659274 C 27.206917,35.880599 27.488387,35.957063 27.718113,35.819382 L 31.035872,33.83095 C 31.265598,33.693269 31.330418,33.409264 31.197397,33.187938 L 29.26663,29.975455 C 29.715138,29.484064 30.074575,28.933808 30.395311,28.36724 L 33.867463,29.210086 C 34.118813,29.271365 34.395953,29.114563 34.45992,28.855009 L 35.376867,25.124609 C 35.440834,24.865056 35.287495,24.618981 35.036143,24.557701 L 31.549795,23.691234 C 31.523632,23.052475 31.435413,22.402715 31.266855,21.772374 L 34.37133,19.91177 C 34.593378,19.77869 34.670476,19.497736 34.532855,19.268758 L 32.545301,15.961791 C 32.40768,15.732812 32.123132,15.668603 31.901084,15.801683 L 28.820308,17.648083 C 28.275046,17.133143 27.678462,16.69646 27.035097,16.34041 L 28.103514,12.808397 C 28.181132,12.552557 28.057919,12.287534 27.810187,12.213082 L 24.143975,11.100986 C 23.896242,11.026535 23.652835,11.186019 23.575216,11.44186 L 22.454598,15.101548 C 22.441163,15.145828 22.441406,15.194803 22.44029,15.238642 C 21.787082,15.25994 21.122601,15.343953 20.478692,15.514652 L 18.519532,12.254927 C 18.386511,12.033601 18.105042,11.957137 17.875315,12.094819 L 14.557556,14.08325 z M 20.995956,21.148647 C 22.848128,20.038586 24.887768,20.651677 25.822941,22.207653 C 26.758112,23.76363 26.340545,25.849398 24.488372,26.95946 C 22.636198,28.069523 20.59656,27.45643 19.661387,25.900454 C 18.726215,24.344481 19.143783,22.258709 20.995956,21.148647 z"
       id="path2212" />
    <path
       sodipodi:type="inkscape:offset"
       inkscape:radius="-0.1160666"
       inkscape:original="M 60.375 3.125 L 60.375 7.15625 C 60.371912 7.5194123 60.130326 7.8372886 59.78125 7.9375 C 59.169905 8.1067881 58.559537 8.3768222 57.96875 8.6875 C 57.661279 8.8483892 57.285825 8.7983287 57.03125 8.5625 L 54.34375 6 L 51.71875 8.75 L 54.21875 11.09375 C 54.494859 11.351352 54.559366 11.764199 54.375 12.09375 C 53.971871 12.770414 53.623576 13.494497 53.40625 14.25 C 53.306039 14.599076 52.988162 14.840662 52.625 14.84375 L 48.75 14.84375 L 48.75 18.65625 L 52.59375 18.65625 C 52.956912 18.659338 53.274789 18.900924 53.375 19.25 C 53.567737 19.931631 53.884546 20.572703 54.25 21.21875 C 54.426168 21.533968 54.375412 21.927325 54.125 22.1875 L 51.34375 25.09375 L 54 27.6875 L 56.75 24.875 C 57.007602 24.598891 57.420449 24.534384 57.75 24.71875 C 58.429534 25.100218 59.139208 25.429005 59.875 25.625 C 60.224076 25.725211 60.465662 26.043088 60.46875 26.40625 L 60.46875 30.3125 L 64.28125 30.3125 L 64.28125 26.34375 C 64.280089 25.989098 64.507041 25.673886 64.84375 25.5625 C 65.481753 25.370962 66.108157 25.06554 66.71875 24.71875 C 67.033968 24.542582 67.427325 24.593338 67.6875 24.84375 L 70.375 27.5 L 73.0625 24.84375 L 70.375 22.15625 C 70.109267 21.890864 70.057769 21.478881 70.25 21.15625 C 70.571694 20.565843 70.8464 19.957479 71.03125 19.3125 C 71.131461 18.963424 71.449338 18.721838 71.8125 18.71875 L 75.625 18.71875 L 75.625 14.90625 L 71.84375 14.90625 C 71.480588 14.903162 71.162711 14.661576 71.0625 14.3125 C 70.851959 13.5584 70.53788 12.848827 70.15625 12.1875 C 69.971884 11.857949 70.036391 11.445102 70.3125 11.1875 L 73.21875 8.53125 L 70.71875 5.78125 L 67.71875 8.5 C 67.479528 8.8411617 67.022497 8.9486984 66.65625 8.75 C 66.056217 8.415393 65.434546 8.1264586 64.78125 7.9375 C 64.432174 7.8372886 64.190588 7.5194123 64.1875 7.15625 L 64.1875 3.125 L 60.375 3.125 z M 62.21875 12.125 C 65.060709 12.125 67.09375 14.292516 67.09375 16.78125 C 67.093749 19.269985 65.06071 21.437499 62.21875 21.4375 C 59.376789 21.437501 57.34375 19.269985 57.34375 16.78125 C 57.343748 14.292517 59.376789 12.125 62.21875 12.125 z "
       style="fill:none;fill-opacity:1;fill-rule:evenodd;stroke:#b4cdee;stroke-width:0.93154186000000005;stroke-linecap:butt;stroke-linejoin:miter;stroke-miterlimit:4;stroke-dasharray:none;stroke-dashoffset:0;stroke-opacity:1"
       id="path3195"
       d="M 60.5,3.25 L 60.5,7.15625 C 60.496479,7.5703048 60.210494,7.9482453 59.8125,8.0625 C 59.212599,8.228619 58.617411,8.4730048 58.03125,8.78125 C 57.680626,8.9647198 57.227804,8.9251771 56.9375,8.65625 L 54.34375,6.1875 L 51.90625,8.75 L 54.3125,11 C 54.627244,11.293647 54.678914,11.780586 54.46875,12.15625 C 54.06921,12.82689 53.744915,13.538474 53.53125,14.28125 C 53.416996,14.679245 53.039055,14.965229 52.625,14.96875 L 48.875,14.96875 L 48.875,18.53125 L 52.59375,18.53125 C 53.007805,18.534771 53.385746,18.820755 53.5,19.21875 C 53.68886,19.886671 53.980343,20.513823 54.34375,21.15625 C 54.544611,21.515651 54.504261,21.984607 54.21875,22.28125 L 51.53125,25.09375 L 54,27.5 L 56.65625,24.78125 C 56.949897,24.466506 57.436836,24.414836 57.8125,24.625 C 58.486779,25.003518 59.183718,25.307537 59.90625,25.5 C 60.304245,25.614254 60.590229,25.992195 60.59375,26.40625 L 60.59375,30.1875 L 64.15625,30.1875 L 64.15625,26.34375 C 64.154926,25.939357 64.428567,25.564508 64.8125,25.4375 C 65.437997,25.249716 66.049852,24.969408 66.65625,24.625 C 67.015651,24.424139 67.484607,24.464489 67.78125,24.75 L 70.375,27.3125 L 72.875,24.84375 L 70.28125,22.25 C 69.978325,21.947471 69.937115,21.461536 70.15625,21.09375 C 70.475199,20.508381 70.724465,19.915534 70.90625,19.28125 C 71.020504,18.883255 71.398445,18.597271 71.8125,18.59375 L 75.5,18.59375 L 75.5,15.03125 L 71.84375,15.03125 C 71.429695,15.027729 71.051754,14.741745 70.9375,14.34375 C 70.729928,13.600282 70.439945,12.904075 70.0625,12.25 C 69.852336,11.874336 69.904006,11.387397 70.21875,11.09375 L 73.0625,8.5 L 70.71875,5.9375 L 67.8125,8.5625 L 67.78125,8.59375 C 67.502398,8.9541153 66.997961,9.0630449 66.59375,8.84375 C 65.998677,8.5119092 65.391839,8.2481447 64.75,8.0625 C 64.352006,7.9482453 64.066021,7.5703048 64.0625,7.15625 L 64.0625,3.25 L 60.5,3.25 z M 62.21875,12 C 65.119724,12 67.21875,14.229306 67.21875,16.78125 C 67.218749,19.333195 65.119725,21.562499 62.21875,21.5625 C 59.317774,21.562501 57.21875,19.333195 57.21875,16.78125 C 57.218748,14.229307 59.317774,12 62.21875,12 z"
       transform="matrix(0.758345,-0.4544985,0.454298,0.7558782,-32.059985,39.650589)" />
    <g
       id="g4096"
       transform="translate(1.767767,49.85103)">
      <path
         transform="matrix(0.3927156,0,0,0.6885273,25.587279,-4.7901341)"
         d="M 52.125004,0.49999759 A 25.312502,1.8750001 0 1 1 1.5,0.49999759 A 25.312502,1.8750001 0 1 1 52.125004,0.49999759 z"
         sodipodi:ry="1.8750001"
         sodipodi:rx="25.312502"
         sodipodi:cy="0.49999759"
         sodipodi:cx="26.812502"
         id="path14866"
         style="opacity:0.24694375;fill:url(#radialGradient4085);fill-opacity:1;fill-rule:evenodd;stroke:none;stroke-width:0.5;stroke-linecap:round;stroke-linejoin:round;stroke-miterlimit:4;stroke-dasharray:none;stroke-dashoffset:0;stroke-opacity:1"
         sodipodi:type="arc" />
      <path
         transform="matrix(0.5842792,0,0,0.5910381,24.39552,-13.432231)"
         d="M 24.925515,9.285902 A 4.9497476,4.9497476 0 1 1 15.02602,9.285902 A 4.9497476,4.9497476 0 1 1 24.925515,9.285902 z"
         sodipodi:ry="4.9497476"
         sodipodi:rx="4.9497476"
         sodipodi:cy="9.285902"
         sodipodi:cx="19.975767"
         id="path2222"
         style="fill:url(#radialGradient4087);fill-opacity:1;fill-rule:evenodd;stroke:#888a85;stroke-width:1.70169616;stroke-linecap:butt;stroke-linejoin:round;stroke-miterlimit:4;stroke-dasharray:none;stroke-dashoffset:0;stroke-opacity:1"
         sodipodi:type="arc" />
      <path
         transform="matrix(0.5842792,0,0,0.5910381,24.39552,-13.432231)"
         d="M 19.96875,6 C 18.119987,6 16.6875,7.4324876 16.6875,9.28125 C 16.6875,11.12882 18.134502,12.59375 19.96875,12.59375 C 21.8018,12.59375 23.28125,11.1143 23.28125,9.28125 C 23.28125,7.4470031 21.81632,6 19.96875,6 z"
         id="path2317"
         style="fill:none;fill-opacity:1;fill-rule:evenodd;stroke:#dddddd;stroke-width:1.70169616;stroke-linecap:butt;stroke-linejoin:round;stroke-miterlimit:4;stroke-dasharray:none;stroke-dashoffset:0;stroke-opacity:1"
         inkscape:original="M 19.96875 5.625 C 17.922508 5.625 16.3125 7.2350084 16.3125 9.28125 C 16.3125 11.327492 17.932229 12.96875 19.96875 12.96875 C 22.005271 12.96875 23.65625 11.317771 23.65625 9.28125 C 23.65625 7.2447298 22.014992 5.625 19.96875 5.625 z "
         inkscape:radius="-0.37647972"
         sodipodi:type="inkscape:offset" />
      <path
         transform="matrix(0.6885273,0,0,0.6885273,22.910173,-14.091369)"
         d="M 20.1875,-26.75 C 16.570522,-26.539805 13.609713,-25.435515 11.5,-23.375 C 9.384005,-21.30835 8.082709,-18.240266 7.90625,-13.875 C 7.9062498,-11.827846 9.52131,-10.25 11.59375,-10.25 C 13.66619,-10.25 15.183693,-11.86089 15.375,-13.96875 C 15.576418,-16.048732 15.952842,-17.554701 16.8125,-18.5625 C 17.643072,-19.515441 18.801245,-19.999966 20.03125,-20 C 21.124035,-19.999967 22.094497,-19.759778 22.75,-19.03125 C 23.405148,-18.347831 23.656231,-17.401009 23.65625,-16.34375 C 23.656228,-15.108185 22.915375,-13.925092 21.625,-12.71875 C 19.345636,-10.550835 17.853118,-9.0050998 17.25,-8.21875 C 16.65471,-7.4245432 16.250271,-6.5262838 15.9375,-5.53125 C 15.632992,-4.5784039 15.437491,-3.3409255 15.4375,-1.71875 L 15.4375,-0.71875 C 15.4375,1.2958206 17.047929,2.90625 19.0625,2.90625 C 21.065084,2.90625 22.65625,1.2393119 22.65625,-0.78125 C 22.656252,-0.90548776 22.660122,-0.91817991 22.65625,-0.96875 C 22.654112,-0.99996344 22.654112,-1.0312866 22.65625,-1.0625 C 22.69107,-2.3428215 22.932442,-3.4100441 23.34375,-4.28125 C 23.343513,-4.2916653 23.343513,-4.3020847 23.34375,-4.3125 C 23.828687,-5.3222879 24.822477,-6.4328195 26.375,-7.84375 C 28.53173,-9.7892558 29.959101,-11.401077 30.59375,-12.625 C 31.249943,-13.89052 31.531225,-15.225035 31.53125,-16.59375 C 31.531225,-19.962778 30.316524,-22.51685 27.71875,-24.53125 C 25.845805,-25.990553 23.374759,-26.744453 20.21875,-26.75 C 20.207305,-26.75002 20.198963,-26.75 20.1875,-26.75 z"
         id="path2864"
         style="font-size:28px;font-style:normal;font-weight:normal;fill:url(#radialGradient4089);fill-opacity:1;stroke:#888a85;stroke-width:1.45237529px;stroke-linecap:butt;stroke-linejoin:miter;stroke-opacity:1;font-family:Arial Black"
         inkscape:original="M 20.1875 -27.4375 C 12.691257 -27.013184 7.581816 -22.887823 7.21875 -13.90625 C 7.2187498 -11.49164 9.1589798 -9.5625 11.59375 -9.5625 C 14.02852 -9.5625002 15.843353 -11.49164 16.0625 -13.90625 C 16.258339 -15.92862 16.65073 -17.312555 17.34375 -18.125 C 18.051814 -18.937384 18.96159 -19.31247 20.03125 -19.3125 C 21.025553 -19.31247 21.767891 -19.098318 22.25 -18.5625 C 22.747141 -18.043906 22.968733 -17.294424 22.96875 -16.34375 C 22.968733 -15.393023 22.376533 -14.359565 21.15625 -13.21875 C 18.866293 -11.04076 17.381617 -9.489251 16.71875 -8.625 C 16.070927 -7.7607066 15.61268 -6.804395 15.28125 -5.75 C 14.949802 -4.712856 14.749991 -3.395424 14.75 -1.71875 L 14.75 -0.71875 C 14.75 1.665617 16.678133 3.59375 19.0625 3.59375 C 21.446868 3.59375 23.34375 1.603115 23.34375 -0.78125 C 23.343751 -0.841938 23.352186 -0.92105995 23.34375 -1.03125 C 23.376461 -2.2340321 23.60787 -3.235607 23.96875 -4 C 24.375497 -4.8469721 25.322121 -5.960896 26.84375 -7.34375 C 29.028213 -9.3142728 30.4794 -10.946927 31.1875 -12.3125 C 31.895548 -13.678026 32.218723 -15.124459 32.21875 -16.59375 C 32.218724 -20.137235 30.866883 -22.936353 28.125 -25.0625 C 26.106211 -26.635438 23.471745 -27.437462 20.1875 -27.4375 z "
         inkscape:radius="-0.68594623"
         sodipodi:type="inkscape:offset" />
      <path
         sodipodi:type="inkscape:offset"
         inkscape:radius="-2.1079733"
         inkscape:original="M 20.1875 -27.4375 C 12.691257 -27.013184 7.581816 -22.887823 7.21875 -13.90625 C 7.2187498 -11.49164 9.1589798 -9.5625 11.59375 -9.5625 C 14.02852 -9.5625002 15.843353 -11.49164 16.0625 -13.90625 C 16.258339 -15.92862 16.65073 -17.312555 17.34375 -18.125 C 18.051814 -18.937384 18.96159 -19.31247 20.03125 -19.3125 C 21.025553 -19.31247 21.767891 -19.098318 22.25 -18.5625 C 22.747141 -18.043906 22.968733 -17.294424 22.96875 -16.34375 C 22.968733 -15.393023 22.376533 -14.359565 21.15625 -13.21875 C 18.866293 -11.04076 17.381617 -9.489251 16.71875 -8.625 C 16.070927 -7.7607066 15.61268 -6.804395 15.28125 -5.75 C 14.949802 -4.712856 14.749991 -3.395424 14.75 -1.71875 L 14.75 -0.71875 C 14.75 1.665617 16.678133 3.59375 19.0625 3.59375 C 21.446868 3.59375 23.34375 1.603115 23.34375 -0.78125 C 23.343751 -0.841938 23.352186 -0.92105995 23.34375 -1.03125 C 23.376461 -2.2340321 23.60787 -3.235607 23.96875 -4 C 24.375497 -4.8469721 25.322121 -5.960896 26.84375 -7.34375 C 29.028213 -9.3142728 30.4794 -10.946927 31.1875 -12.3125 C 31.895548 -13.678026 32.218723 -15.124459 32.21875 -16.59375 C 32.218724 -20.137235 30.866883 -22.936353 28.125 -25.0625 C 26.106211 -26.635438 23.471745 -27.437462 20.1875 -27.4375 z "
         style="font-size:28px;font-style:normal;font-weight:normal;fill:none;fill-opacity:1;stroke:#dddddd;stroke-width:1.45237529px;stroke-linecap:butt;stroke-linejoin:miter;stroke-opacity:1;font-family:Arial Black"
         id="path3261"
         d="M 20.25,-25.34375 C 16.892875,-25.142513 14.305796,-24.138685 12.5,-22.375 C 10.682071,-20.599465 9.4784402,-17.91755 9.3125,-13.8125 C 9.3124999,-12.527114 10.272453,-11.65625 11.59375,-11.65625 C 12.915047,-11.65625 13.835159,-12.62181 13.96875,-14.09375 C 13.968673,-14.104167 13.968673,-14.114583 13.96875,-14.125 C 14.181733,-16.324415 14.544887,-18.087216 15.75,-19.5 C 16.834542,-20.744329 18.468837,-21.406206 20.03125,-21.40625 C 21.328197,-21.406211 22.797537,-21.096784 23.8125,-19.96875 C 24.79521,-18.943634 25.062477,-17.621968 25.0625,-16.34375 C 25.062467,-14.517691 24.029431,-13.029686 22.59375,-11.6875 C 20.336345,-9.5404708 18.885503,-7.9686038 18.40625,-7.34375 C 17.919865,-6.6948389 17.555339,-5.9969728 17.28125,-5.125 C 17.281327,-5.1145835 17.281327,-5.1041665 17.28125,-5.09375 C 17.03259,-4.315661 16.843742,-3.2279451 16.84375,-1.71875 L 16.84375,-0.71875 C 16.84375,0.52919995 17.81455,1.5 19.0625,1.5 C 20.273614,1.5 21.25,0.48511596 21.25,-0.78125 C 21.250004,-1.037232 21.244409,-0.94802736 21.25,-0.875 C 21.246214,-0.94786753 21.246214,-1.0208825 21.25,-1.09375 C 21.289191,-2.5348174 21.546651,-3.8136116 22.0625,-4.90625 C 22.709532,-6.2535694 23.820931,-7.4371143 25.4375,-8.90625 C 27.536737,-10.799893 28.830121,-12.350981 29.3125,-13.28125 C 29.861193,-14.339447 30.124979,-15.433537 30.125,-16.59375 C 30.124978,-19.601115 29.142772,-21.623512 26.84375,-23.40625 C 25.27793,-24.626257 23.179881,-25.321877 20.3125,-25.34375 C 20.289016,-25.343929 20.273592,-25.34366 20.25,-25.34375 z"
         transform="matrix(0.6885273,0,0,0.6885273,22.910173,-14.091369)" />
    </g>
  </g>
</svg>
