<?xml version="1.0" encoding="UTF-8" standalone="no"?>
<!-- Created with Inkscape (http://www.inkscape.org/) -->
<svg
   xmlns:dc="http://purl.org/dc/elements/1.1/"
   xmlns:cc="http://web.resource.org/cc/"
   xmlns:rdf="http://www.w3.org/1999/02/22-rdf-syntax-ns#"
   xmlns:svg="http://www.w3.org/2000/svg"
   xmlns="http://www.w3.org/2000/svg"
   xmlns:xlink="http://www.w3.org/1999/xlink"
   xmlns:sodipodi="http://sodipodi.sourceforge.net/DTD/sodipodi-0.dtd"
   xmlns:inkscape="http://www.inkscape.org/namespaces/inkscape"
   version="1.0"
   width="48"
   height="48"
   id="svg11300"
   sodipodi:version="0.32"
   inkscape:version="0.45+devel"
   sodipodi:docname="plugin-expo.svg"
   inkscape:output_extension="org.inkscape.output.svg.inkscape">
  <metadata
     id="metadata153">
    <rdf:RDF>
      <cc:Work
         rdf:about="">
        <dc:format>image/svg+xml</dc:format>
        <dc:type
           rdf:resource="http://purl.org/dc/dcmitype/StillImage" />
      </cc:Work>
    </rdf:RDF>
  </metadata>
  <sodipodi:namedview
     inkscape:window-height="662"
     inkscape:window-width="666"
     inkscape:pageshadow="2"
     inkscape:pageopacity="0.0"
     guidetolerance="10.0"
     gridtolerance="10.0"
     objecttolerance="10.0"
     borderopacity="1.0"
     bordercolor="#666666"
     pagecolor="#ffffff"
     id="base"
     inkscape:zoom="1.1432292"
     inkscape:cx="24"
     inkscape:cy="30.185171"
     inkscape:window-x="2"
     inkscape:window-y="49"
     inkscape:current-layer="svg11300" />
  <defs
     id="defs3">
    <linearGradient
       id="linearGradient3503">
      <stop
         id="stop3505"
         style="stop-color:#ffffff;stop-opacity:1"
         offset="0" />
      <stop
         id="stop3507"
         style="stop-color:#ffffff;stop-opacity:0"
         offset="1" />
    </linearGradient>
    <linearGradient
       id="linearGradient3260">
      <stop
         id="stop3262"
         style="stop-color:#204a87;stop-opacity:1"
         offset="0" />
      <stop
         id="stop3264"
         style="stop-color:#204a87;stop-opacity:0"
         offset="1" />
    </linearGradient>
    <linearGradient
       id="linearGradient2301">
      <stop
         id="stop2303"
         style="stop-color:#000000;stop-opacity:1"
         offset="0" />
      <stop
         id="stop2305"
         style="stop-color:#000000;stop-opacity:0"
         offset="1" />
    </linearGradient>
    <linearGradient
       id="linearGradient13816">
      <stop
         id="stop13818"
         style="stop-color:#f7f7f6;stop-opacity:1"
         offset="0" />
      <stop
         id="stop13820"
         style="stop-color:#eff0ee;stop-opacity:0"
         offset="1" />
    </linearGradient>
    <linearGradient
       id="linearGradient47870">
      <stop
         id="stop47872"
         style="stop-color:#000000;stop-opacity:0"
         offset="0" />
      <stop
         id="stop47878"
         style="stop-color:#000000;stop-opacity:1"
         offset="0.5" />
      <stop
         id="stop47874"
         style="stop-color:#000000;stop-opacity:0"
         offset="1" />
    </linearGradient>
    <linearGradient
       id="linearGradient51765">
      <stop
         id="stop51767"
         style="stop-color:#000000;stop-opacity:1"
         offset="0" />
      <stop
         id="stop51769"
         style="stop-color:#000000;stop-opacity:0"
         offset="1" />
    </linearGradient>
    <linearGradient
       id="linearGradient12914">
      <stop
         id="stop12916"
         style="stop-color:#3465a4;stop-opacity:1"
         offset="0" />
      <stop
         id="stop12918"
         style="stop-color:#3465a4;stop-opacity:0"
         offset="1" />
    </linearGradient>
    <radialGradient
       cx="22.5"
       cy="41"
       r="22.5"
       fx="22.5"
       fy="41"
       id="radialGradient2936"
       xlink:href="#linearGradient2301"
       gradientUnits="userSpaceOnUse"
       gradientTransform="matrix(1,0,0,0.222222,0,31.88889)" />
    <linearGradient
       x1="-16.136068"
       y1="-24.025835"
       x2="78.608597"
       y2="70.401054"
       id="linearGradient2938"
       xlink:href="#linearGradient3260"
       gradientUnits="userSpaceOnUse"
       gradientTransform="matrix(0.292385,0.2887877,-0.2891082,0.2920608,24.400249,6.0875964)" />
    <linearGradient
       x1="32.084972"
       y1="-14.402173"
       x2="32.084972"
       y2="-5.5633383"
       id="linearGradient2940"
       xlink:href="#linearGradient47870"
       gradientUnits="userSpaceOnUse"
       gradientTransform="matrix(0.9788196,0,0,0.7154223,-8.5008021,52.112719)" />
    <radialGradient
       cx="51.4375"
       cy="-12.203125"
       r="2.171875"
       fx="51.4375"
       fy="-12.203125"
       id="radialGradient2942"
       xlink:href="#linearGradient51765"
       gradientUnits="userSpaceOnUse"
       gradientTransform="matrix(1.9576392,-8.146468e-7,6.6614241e-7,1.4565793,-59.017557,62.738067)" />
    <radialGradient
       cx="51.4375"
       cy="-12.203125"
       r="2.171875"
       fx="51.4375"
       fy="-12.203125"
       id="radialGradient2944"
       xlink:href="#linearGradient51765"
       gradientUnits="userSpaceOnUse"
       gradientTransform="matrix(-1.9576392,-9.2540676e-8,-1.2888861e-7,1.4565793,110.01781,62.73803)" />
    <linearGradient
       x1="28.280043"
       y1="15.029495"
       x2="38.880146"
       y2="39.040752"
       id="linearGradient2946"
       xlink:href="#linearGradient13816"
       gradientUnits="userSpaceOnUse"
       gradientTransform="matrix(1.1560613,0,0,1.7161538,-2.7575076,-25.924613)" />
    <linearGradient
       x1="12.838772"
       y1="1.4315225"
       x2="22.452898"
       y2="28.529707"
       id="linearGradient2948"
       xlink:href="#linearGradient12914"
       gradientUnits="userSpaceOnUse"
       gradientTransform="matrix(1.0700727,0,0,1.0115097,-1.8986825,-1.5194787)" />
    <linearGradient
       x1="32.084972"
       y1="-14.402173"
       x2="32.084972"
       y2="-5.5633383"
       id="linearGradient2950"
       xlink:href="#linearGradient47870"
       gradientUnits="userSpaceOnUse"
       gradientTransform="matrix(0.9788196,0,0,0.7154223,-8.5008021,52.112719)" />
    <radialGradient
       cx="51.4375"
       cy="-12.203125"
       r="2.171875"
       fx="51.4375"
       fy="-12.203125"
       id="radialGradient2952"
       xlink:href="#linearGradient51765"
       gradientUnits="userSpaceOnUse"
       gradientTransform="matrix(1.9576392,-8.146468e-7,6.6614241e-7,1.4565793,-59.017557,62.738067)" />
    <radialGradient
       cx="51.4375"
       cy="-12.203125"
       r="2.171875"
       fx="51.4375"
       fy="-12.203125"
       id="radialGradient2954"
       xlink:href="#linearGradient51765"
       gradientUnits="userSpaceOnUse"
       gradientTransform="matrix(-1.9576392,-9.2540676e-8,-1.2888861e-7,1.4565793,110.01781,62.73803)" />
    <linearGradient
       x1="28.280043"
       y1="15.029495"
       x2="38.880146"
       y2="39.040752"
       id="linearGradient2956"
       xlink:href="#linearGradient13816"
       gradientUnits="userSpaceOnUse"
       gradientTransform="matrix(1.1560613,0,0,1.7161538,-2.7575076,-25.924613)" />
    <linearGradient
       x1="12.838772"
       y1="1.4315225"
       x2="22.452898"
       y2="28.529707"
       id="linearGradient2958"
       xlink:href="#linearGradient12914"
       gradientUnits="userSpaceOnUse"
       gradientTransform="matrix(1.0700727,0,0,1.0115097,-1.8986825,-1.5194787)" />
    <linearGradient
       x1="32.084972"
       y1="-14.402173"
       x2="32.084972"
       y2="-5.5633383"
       id="linearGradient2960"
       xlink:href="#linearGradient47870"
       gradientUnits="userSpaceOnUse"
       gradientTransform="matrix(0.9788196,0,0,0.7154223,-8.5008021,52.112719)" />
    <radialGradient
       cx="51.4375"
       cy="-12.203125"
       r="2.171875"
       fx="51.4375"
       fy="-12.203125"
       id="radialGradient2962"
       xlink:href="#linearGradient51765"
       gradientUnits="userSpaceOnUse"
       gradientTransform="matrix(1.9576392,-8.146468e-7,6.6614241e-7,1.4565793,-59.017557,62.738067)" />
    <radialGradient
       cx="51.4375"
       cy="-12.203125"
       r="2.171875"
       fx="51.4375"
       fy="-12.203125"
       id="radialGradient2964"
       xlink:href="#linearGradient51765"
       gradientUnits="userSpaceOnUse"
       gradientTransform="matrix(-1.9576392,-9.2540676e-8,-1.2888861e-7,1.4565793,110.01781,62.73803)" />
    <linearGradient
       x1="28.280043"
       y1="15.029495"
       x2="38.880146"
       y2="39.040752"
       id="linearGradient2966"
       xlink:href="#linearGradient13816"
       gradientUnits="userSpaceOnUse"
       gradientTransform="matrix(1.1560613,0,0,1.7161538,-2.7575076,-25.924613)" />
    <linearGradient
       x1="12.838772"
       y1="1.4315225"
       x2="22.452898"
       y2="28.529707"
       id="linearGradient2968"
       xlink:href="#linearGradient12914"
       gradientUnits="userSpaceOnUse"
       gradientTransform="matrix(1.0700727,0,0,1.0115097,-1.8986825,-1.5194787)" />
    <linearGradient
       x1="22.174751"
       y1="32.366211"
       x2="22.148865"
       y2="45.67981"
       id="linearGradient3531"
       xlink:href="#linearGradient3503"
       gradientUnits="userSpaceOnUse"
       gradientTransform="matrix(1,0,0,2.1956254,-4.7335004e-2,-117.61721)" />
    <mask
       id="mask3527">
      <rect
         width="39.59798"
         height="40.074978"
         rx="1.9145299"
         ry="4.0988584"
         x="4.814024"
         y="-37.358955"
         transform="scale(1,-1)"
         id="rect3529"
         style="opacity:1;fill:url(#linearGradient3531);fill-opacity:1;fill-rule:evenodd;stroke:none;stroke-width:0.75;stroke-linecap:round;stroke-linejoin:round;stroke-miterlimit:4;stroke-dasharray:none;stroke-dashoffset:0;stroke-opacity:1" />
    </mask>
    <linearGradient
       inkscape:collect="always"
       xlink:href="#linearGradient47870"
       id="linearGradient2399"
       gradientUnits="userSpaceOnUse"
       gradientTransform="matrix(0.9788196,0,0,0.7154223,-8.5008021,52.112719)"
       x1="32.084972"
       y1="-14.402173"
       x2="32.084972"
       y2="-5.5633383" />
    <radialGradient
       inkscape:collect="always"
       xlink:href="#linearGradient51765"
       id="radialGradient2401"
       gradientUnits="userSpaceOnUse"
       gradientTransform="matrix(1.9576392,-8.146468e-7,6.6614241e-7,1.4565793,-59.017557,62.738067)"
       cx="51.4375"
       cy="-12.203125"
       fx="51.4375"
       fy="-12.203125"
       r="2.171875" />
    <radialGradient
       inkscape:collect="always"
       xlink:href="#linearGradient51765"
       id="radialGradient2403"
       gradientUnits="userSpaceOnUse"
       gradientTransform="matrix(-1.9576392,-9.2540676e-8,-1.2888861e-7,1.4565793,110.01781,62.73803)"
       cx="51.4375"
       cy="-12.203125"
       fx="51.4375"
       fy="-12.203125"
       r="2.171875" />
    <linearGradient
       inkscape:collect="always"
       xlink:href="#linearGradient13816"
       id="linearGradient2405"
       gradientUnits="userSpaceOnUse"
       gradientTransform="matrix(1.1560613,0,0,1.7161538,-2.7575076,-25.924613)"
       x1="28.280043"
       y1="15.029495"
       x2="38.880146"
       y2="39.040752" />
    <linearGradient
       inkscape:collect="always"
       xlink:href="#linearGradient12914"
       id="linearGradient2407"
       gradientUnits="userSpaceOnUse"
       gradientTransform="matrix(1.0700727,0,0,1.0115097,-1.8986825,-1.5194787)"
       x1="12.838772"
       y1="1.4315225"
       x2="22.452898"
       y2="28.529707" />
    <linearGradient
       inkscape:collect="always"
       xlink:href="#linearGradient47870"
       id="linearGradient2409"
       gradientUnits="userSpaceOnUse"
       gradientTransform="matrix(0.9788196,0,0,0.7154223,-8.5008021,52.112719)"
       x1="32.084972"
       y1="-14.402173"
       x2="32.084972"
       y2="-5.5633383" />
    <radialGradient
       inkscape:collect="always"
       xlink:href="#linearGradient51765"
       id="radialGradient2411"
       gradientUnits="userSpaceOnUse"
       gradientTransform="matrix(1.9576392,-8.146468e-7,6.6614241e-7,1.4565793,-59.017557,62.738067)"
       cx="51.4375"
       cy="-12.203125"
       fx="51.4375"
       fy="-12.203125"
       r="2.171875" />
    <radialGradient
       inkscape:collect="always"
       xlink:href="#linearGradient51765"
       id="radialGradient2413"
       gradientUnits="userSpaceOnUse"
       gradientTransform="matrix(-1.9576392,-9.2540676e-8,-1.2888861e-7,1.4565793,110.01781,62.73803)"
       cx="51.4375"
       cy="-12.203125"
       fx="51.4375"
       fy="-12.203125"
       r="2.171875" />
    <linearGradient
       inkscape:collect="always"
       xlink:href="#linearGradient13816"
       id="linearGradient2415"
       gradientUnits="userSpaceOnUse"
       gradientTransform="matrix(1.1560613,0,0,1.7161538,-2.7575076,-25.924613)"
       x1="28.280043"
       y1="15.029495"
       x2="38.880146"
       y2="39.040752" />
    <linearGradient
       inkscape:collect="always"
       xlink:href="#linearGradient12914"
       id="linearGradient2417"
       gradientUnits="userSpaceOnUse"
       gradientTransform="matrix(1.0700727,0,0,1.0115097,-1.8986825,-1.5194787)"
       x1="12.838772"
       y1="1.4315225"
       x2="22.452898"
       y2="28.529707" />
    <linearGradient
       inkscape:collect="always"
       xlink:href="#linearGradient47870"
       id="linearGradient2419"
       gradientUnits="userSpaceOnUse"
       gradientTransform="matrix(0.9788196,0,0,0.7154223,-8.5008021,52.112719)"
       x1="32.084972"
       y1="-14.402173"
       x2="32.084972"
       y2="-5.5633383" />
    <radialGradient
       inkscape:collect="always"
       xlink:href="#linearGradient51765"
       id="radialGradient2421"
       gradientUnits="userSpaceOnUse"
       gradientTransform="matrix(1.9576392,-8.146468e-7,6.6614241e-7,1.4565793,-59.017557,62.738067)"
       cx="51.4375"
       cy="-12.203125"
       fx="51.4375"
       fy="-12.203125"
       r="2.171875" />
    <radialGradient
       inkscape:collect="always"
       xlink:href="#linearGradient51765"
       id="radialGradient2423"
       gradientUnits="userSpaceOnUse"
       gradientTransform="matrix(-1.9576392,-9.2540676e-8,-1.2888861e-7,1.4565793,110.01781,62.73803)"
       cx="51.4375"
       cy="-12.203125"
       fx="51.4375"
       fy="-12.203125"
       r="2.171875" />
    <linearGradient
       inkscape:collect="always"
       xlink:href="#linearGradient13816"
       id="linearGradient2425"
       gradientUnits="userSpaceOnUse"
       gradientTransform="matrix(1.1560613,0,0,1.7161538,-2.7575076,-25.924613)"
       x1="28.280043"
       y1="15.029495"
       x2="38.880146"
       y2="39.040752" />
    <linearGradient
       inkscape:collect="always"
       xlink:href="#linearGradient12914"
       id="linearGradient2427"
       gradientUnits="userSpaceOnUse"
       gradientTransform="matrix(1.0700727,0,0,1.0115097,-1.8986825,-1.5194787)"
       x1="12.838772"
       y1="1.4315225"
       x2="22.452898"
       y2="28.529707" />
    <linearGradient
       inkscape:collect="always"
       xlink:href="#linearGradient3260"
       id="linearGradient2464"
       gradientUnits="userSpaceOnUse"
       gradientTransform="matrix(0.292385,0.2887877,-0.2891082,0.2920608,24.400249,6.0875964)"
       x1="-16.136068"
       y1="-24.025835"
       x2="78.608597"
       y2="70.401054" />
    <radialGradient
       inkscape:collect="always"
       xlink:href="#linearGradient2301"
       id="radialGradient2467"
       gradientUnits="userSpaceOnUse"
       gradientTransform="matrix(0.9962264,0,0,7.371266e-2,1.2075667,33.361206)"
       cx="22.5"
       cy="41"
       fx="22.5"
       fy="41"
       r="22.5" />
  </defs>
  <g
     id="g2862"
     mask="url(#mask3527)"
     transform="matrix(1,0,0,-0.4554511,4.7335004e-2,53.568889)">
    <path
       style="opacity:0.2;color:#000000;fill:url(#radialGradient2936);fill-opacity:1;fill-rule:nonzero;stroke:none;stroke-width:1;stroke-linecap:round;stroke-linejoin:miter;marker:none;marker-start:none;marker-mid:none;marker-end:none;stroke-miterlimit:4;stroke-dasharray:none;stroke-dashoffset:0;stroke-opacity:1;visibility:visible;display:inline;overflow:visible"
       id="path2864"
       transform="matrix(0.9962264,0,0,0.3317073,1.2075667,22.783428)"
       d="M 45,41 C 45,43.761424 34.926407,46 22.5,46 C 10.073593,46 -4.0916739e-09,43.761424 1.2197274e-18,41 C -4.0916825e-09,38.238576 10.073593,36 22.5,36 C 34.926407,36 45,38.238576 45,41 L 45,41 z" />
    <rect
       style="color:#000000;fill:url(#linearGradient2938);fill-opacity:1;fill-rule:nonzero;stroke:#babdb6;stroke-width:1;stroke-linecap:round;stroke-linejoin:miter;marker:none;marker-start:none;marker-mid:none;marker-end:none;stroke-miterlimit:4;stroke-dasharray:none;stroke-dashoffset:0;stroke-opacity:1;visibility:visible;display:inline;overflow:visible"
       id="rect2866"
       y="3.6273341"
       x="5.7736044"
       ry="1.5000001"
       rx="1.5"
       height="32.341465"
       width="35.698112" />
    <g
       id="g2868"
       transform="matrix(0.2375321,0,0,0.2232569,24.782502,24.204913)">
      <g
         id="g2870"
         transform="matrix(1.1625728,0,0,1.3618401,-5.283953,-20.031337)">
        <rect
           style="opacity:0.3;fill:url(#linearGradient2940);fill-opacity:1;fill-rule:evenodd;stroke:none;stroke-width:1.02400005;stroke-linecap:butt;stroke-linejoin:miter;stroke-miterlimit:4;stroke-dasharray:none;stroke-dashoffset:0;stroke-opacity:1"
           id="rect2872"
           y="41.809082"
           x="9.3215466"
           height="6.3234997"
           width="32.357079" />
        <path
           style="opacity:0.3;fill:url(#radialGradient2942);fill-opacity:1;fill-rule:evenodd;stroke:none;stroke-width:1.02400005;stroke-linecap:butt;stroke-linejoin:miter;stroke-miterlimit:4;stroke-dasharray:none;stroke-dashoffset:0;stroke-opacity:1"
           id="path2874"
           d="M 41.6785,41.799698 L 41.6785,48.126714 C 44.022298,48.102828 45.930248,46.705313 45.930248,44.974385 C 45.930248,43.243458 44.022299,41.823584 41.6785,41.799698 z" />
        <path
           style="opacity:0.3;fill:url(#radialGradient2944);fill-opacity:1;fill-rule:evenodd;stroke:none;stroke-width:1.02400005;stroke-linecap:butt;stroke-linejoin:miter;stroke-miterlimit:4;stroke-dasharray:none;stroke-dashoffset:0;stroke-opacity:1"
           id="path2876"
           d="M 9.3217476,41.799698 L 9.3217476,48.126714 C 6.9779494,48.102828 5.07,46.705313 5.07,44.974385 C 5.07,43.243458 6.9779484,41.823584 9.3217476,41.799698 z" />
      </g>
      <rect
         style="fill:#cdcfca;fill-opacity:1;fill-rule:evenodd;stroke:#454743;stroke-width:1.20521367;stroke-linecap:butt;stroke-linejoin:miter;stroke-miterlimit:4;stroke-dasharray:none;stroke-dashoffset:0;stroke-opacity:1"
         id="rect2878"
         y="1.8353919"
         x="1.9720987"
         ry="1.2264782"
         rx="1.2435893"
         height="39.058353"
         width="44.351135" />
      <rect
         style="fill:url(#linearGradient2946);fill-opacity:1;fill-rule:evenodd;stroke:none;stroke-width:1.29999995;stroke-linecap:butt;stroke-linejoin:round;stroke-miterlimit:4;stroke-dasharray:none;stroke-dashoffset:0;stroke-opacity:1"
         id="rect2880"
         y="3.25"
         x="3.453125"
         ry="0"
         height="36.1875"
         width="41.429691" />
      <path
         style="fill:#ffffff;fill-opacity:1;fill-rule:evenodd;stroke:none;stroke-width:1;stroke-linecap:butt;stroke-linejoin:miter;stroke-miterlimit:4;stroke-dashoffset:0;stroke-opacity:1"
         id="path2882"
         d="M 2.4629728,2.9331736 L 2.4684971,39.827448 C 2.5031756,40.250699 2.7358775,40.386815 3.0643477,40.384068 L 45.235962,40.384068 C 45.599063,40.380709 45.811046,40.213639 45.820764,39.827448 L 45.81524,2.9055523 C 45.881393,2.5546223 45.530236,2.3245592 45.263583,2.337884 L 3.1195904,2.3268355 C 2.7793888,2.297454 2.464886,2.4918929 2.4629728,2.9331736 z M 3.4574659,3.2622831 L 44.889719,3.2466581 L 44.881906,39.442703 L 3.4574659,39.434891 L 3.4574659,3.2622831 z" />
      <path
         style="fill:url(#linearGradient2948);fill-opacity:1;fill-rule:evenodd;stroke:none;stroke-width:2.04888678;stroke-linecap:round;stroke-linejoin:round;stroke-miterlimit:4;stroke-dasharray:none;stroke-dashoffset:0;stroke-opacity:1"
         id="path2884"
         d="M 3.4851207,6.8763289 L 3.4851207,7.8920817 C 3.4994378,9.9103999 3.9904675,11.517439 4.5886332,11.50365 L 43.780045,11.50365 C 44.378212,11.517439 44.86924,9.9103999 44.883558,7.8920817 L 44.883558,6.8763289 C 44.86924,4.8580109 44.378212,3.2509719 43.780045,3.2647608 L 4.5886332,3.2647608 C 3.5319511,4.0442893 3.5672277,5.6098563 3.4851207,6.8763289 z" />
    </g>
    <g
       id="g2886"
       transform="matrix(0.2375321,0,0,0.2232569,28.406988,21.089628)">
      <g
         id="g2888"
         transform="matrix(1.1625728,0,0,1.3618401,-5.283953,-20.031337)">
        <rect
           style="opacity:0.3;fill:url(#linearGradient2950);fill-opacity:1;fill-rule:evenodd;stroke:none;stroke-width:1.02400005;stroke-linecap:butt;stroke-linejoin:miter;stroke-miterlimit:4;stroke-dasharray:none;stroke-dashoffset:0;stroke-opacity:1"
           id="rect2890"
           y="41.809082"
           x="9.3215466"
           height="6.3234997"
           width="32.357079" />
        <path
           style="opacity:0.3;fill:url(#radialGradient2952);fill-opacity:1;fill-rule:evenodd;stroke:none;stroke-width:1.02400005;stroke-linecap:butt;stroke-linejoin:miter;stroke-miterlimit:4;stroke-dasharray:none;stroke-dashoffset:0;stroke-opacity:1"
           id="path2892"
           d="M 41.6785,41.799698 L 41.6785,48.126714 C 44.022298,48.102828 45.930248,46.705313 45.930248,44.974385 C 45.930248,43.243458 44.022299,41.823584 41.6785,41.799698 z" />
        <path
           style="opacity:0.3;fill:url(#radialGradient2954);fill-opacity:1;fill-rule:evenodd;stroke:none;stroke-width:1.02400005;stroke-linecap:butt;stroke-linejoin:miter;stroke-miterlimit:4;stroke-dasharray:none;stroke-dashoffset:0;stroke-opacity:1"
           id="path2894"
           d="M 9.3217476,41.799698 L 9.3217476,48.126714 C 6.9779494,48.102828 5.07,46.705313 5.07,44.974385 C 5.07,43.243458 6.9779484,41.823584 9.3217476,41.799698 z" />
      </g>
      <rect
         style="fill:#cdcfca;fill-opacity:1;fill-rule:evenodd;stroke:#454743;stroke-width:1.20521367;stroke-linecap:butt;stroke-linejoin:miter;stroke-miterlimit:4;stroke-dasharray:none;stroke-dashoffset:0;stroke-opacity:1"
         id="rect2896"
         y="1.8353919"
         x="1.9720987"
         ry="1.2264782"
         rx="1.2435893"
         height="39.058353"
         width="44.351135" />
      <rect
         style="fill:url(#linearGradient2956);fill-opacity:1;fill-rule:evenodd;stroke:none;stroke-width:1.29999995;stroke-linecap:butt;stroke-linejoin:round;stroke-miterlimit:4;stroke-dasharray:none;stroke-dashoffset:0;stroke-opacity:1"
         id="rect2898"
         y="3.25"
         x="3.453125"
         ry="0"
         height="36.1875"
         width="41.429691" />
      <path
         style="fill:#ffffff;fill-opacity:1;fill-rule:evenodd;stroke:none;stroke-width:1;stroke-linecap:butt;stroke-linejoin:miter;stroke-miterlimit:4;stroke-dashoffset:0;stroke-opacity:1"
         id="path2900"
         d="M 2.4629728,2.9331736 L 2.4684971,39.827448 C 2.5031756,40.250699 2.7358775,40.386815 3.0643477,40.384068 L 45.235962,40.384068 C 45.599063,40.380709 45.811046,40.213639 45.820764,39.827448 L 45.81524,2.9055523 C 45.881393,2.5546223 45.530236,2.3245592 45.263583,2.337884 L 3.1195904,2.3268355 C 2.7793888,2.297454 2.464886,2.4918929 2.4629728,2.9331736 z M 3.4574659,3.2622831 L 44.889719,3.2466581 L 44.881906,39.442703 L 3.4574659,39.434891 L 3.4574659,3.2622831 z" />
      <path
         style="fill:url(#linearGradient2958);fill-opacity:1;fill-rule:evenodd;stroke:none;stroke-width:2.04888678;stroke-linecap:round;stroke-linejoin:round;stroke-miterlimit:4;stroke-dasharray:none;stroke-dashoffset:0;stroke-opacity:1"
         id="path2902"
         d="M 3.4851207,6.8763289 L 3.4851207,7.8920817 C 3.4994378,9.9103999 3.9904675,11.517439 4.5886332,11.50365 L 43.780045,11.50365 C 44.378212,11.517439 44.86924,9.9103999 44.883558,7.8920817 L 44.883558,6.8763289 C 44.86924,4.8580109 44.378212,3.2509719 43.780045,3.2647608 L 4.5886332,3.2647608 C 3.5319511,4.0442893 3.5672277,5.6098563 3.4851207,6.8763289 z" />
    </g>
    <path
       style="opacity:1;fill:#000000;fill-opacity:0.35467978;fill-rule:evenodd;stroke:none;stroke-width:0;stroke-linecap:round;stroke-linejoin:miter;stroke-miterlimit:4;stroke-dasharray:none;stroke-dashoffset:0;stroke-opacity:1"
       id="path2904"
       d="M 24.454791,4.8693009 L 24.454791,20.625398 L 7.0467726,20.625398 L 7.0467726,34.722959 L 40.228376,34.710002 L 40.228376,4.8693009 L 24.454791,4.8693009 z" />
    <g
       style="opacity:0.07000002"
       id="g2906"
       transform="matrix(0.8301887,0,0,0.8292683,3.6981327,1.5541633)">
      <path
         style="opacity:1;fill:none;fill-opacity:0.75;fill-rule:evenodd;stroke:#000000;stroke-width:1.20521367;stroke-linecap:round;stroke-linejoin:miter;stroke-miterlimit:4;stroke-dasharray:none;stroke-opacity:1"
         id="path2908"
         d="M 23.5,3.5 L 23.5,40.5" />
      <path
         style="opacity:1;fill:none;fill-opacity:0.75;fill-rule:evenodd;stroke:#000000;stroke-width:1.20521367;stroke-linecap:round;stroke-linejoin:miter;stroke-miterlimit:4;stroke-dasharray:none;stroke-opacity:1"
         id="path2910"
         d="M 3.5,21.5 L 44.5,21.5" />
    </g>
    <path
       style="fill:#ffffff;fill-opacity:1;fill-rule:evenodd;stroke:#eeeeec;stroke-width:1;stroke-linecap:round;stroke-linejoin:miter;stroke-miterlimit:4;stroke-dasharray:none;stroke-opacity:1"
       id="path2912"
       d="M 6.9049209,20.2127 L 40.384596,20.2127" />
    <path
       style="fill:#ffffff;fill-opacity:1;fill-rule:evenodd;stroke:#eeeeec;stroke-width:0.99999994;stroke-linecap:round;stroke-linejoin:miter;stroke-miterlimit:4;stroke-dasharray:none;stroke-opacity:1"
       id="path2914"
       d="M 24.037756,4.887328 L 24.037756,34.885581" />
    <path
       style="color:#000000;fill:none;fill-opacity:1;fill-rule:nonzero;stroke:#ffffff;stroke-width:1;stroke-linecap:round;stroke-linejoin:miter;marker:none;marker-start:none;marker-mid:none;marker-end:none;stroke-miterlimit:4;stroke-dasharray:none;stroke-dashoffset:0;stroke-opacity:1;visibility:visible;display:inline;overflow:visible"
       id="path2916"
       d="M 7.09375,4.59375 C 6.8879074,4.59375 6.71875,4.7629074 6.71875,4.96875 L 6.71875,34.625 C 6.71875,34.830843 6.8879068,34.999999 7.09375,35 L 40.15625,35 C 40.362092,35 40.531249,34.830842 40.53125,34.625 L 40.53125,4.96875 C 40.53125,4.7629077 40.362091,4.59375 40.15625,4.59375 L 7.09375,4.59375 z" />
    <g
       id="g2918"
       transform="matrix(0.2375321,0,0,0.2232569,9.2730798,7.1955515)">
      <g
         id="g2920"
         transform="matrix(1.1625728,0,0,1.3618401,-5.283953,-20.031337)">
        <rect
           style="opacity:0.3;fill:url(#linearGradient2960);fill-opacity:1;fill-rule:evenodd;stroke:none;stroke-width:1.02400005;stroke-linecap:butt;stroke-linejoin:miter;stroke-miterlimit:4;stroke-dasharray:none;stroke-dashoffset:0;stroke-opacity:1"
           id="rect2922"
           y="41.809082"
           x="9.3215466"
           height="6.3234997"
           width="32.357079" />
        <path
           style="opacity:0.3;fill:url(#radialGradient2962);fill-opacity:1;fill-rule:evenodd;stroke:none;stroke-width:1.02400005;stroke-linecap:butt;stroke-linejoin:miter;stroke-miterlimit:4;stroke-dasharray:none;stroke-dashoffset:0;stroke-opacity:1"
           id="path2924"
           d="M 41.6785,41.799698 L 41.6785,48.126714 C 44.022298,48.102828 45.930248,46.705313 45.930248,44.974385 C 45.930248,43.243458 44.022299,41.823584 41.6785,41.799698 z" />
        <path
           style="opacity:0.3;fill:url(#radialGradient2964);fill-opacity:1;fill-rule:evenodd;stroke:none;stroke-width:1.02400005;stroke-linecap:butt;stroke-linejoin:miter;stroke-miterlimit:4;stroke-dasharray:none;stroke-dashoffset:0;stroke-opacity:1"
           id="path2926"
           d="M 9.3217476,41.799698 L 9.3217476,48.126714 C 6.9779494,48.102828 5.07,46.705313 5.07,44.974385 C 5.07,43.243458 6.9779484,41.823584 9.3217476,41.799698 z" />
      </g>
      <rect
         style="fill:#cdcfca;fill-opacity:1;fill-rule:evenodd;stroke:#454743;stroke-width:1.20521367;stroke-linecap:butt;stroke-linejoin:miter;stroke-miterlimit:4;stroke-dasharray:none;stroke-dashoffset:0;stroke-opacity:1"
         id="rect2928"
         y="1.8353919"
         x="1.9720987"
         ry="1.2264782"
         rx="1.2435893"
         height="39.058353"
         width="44.351135" />
      <rect
         style="fill:url(#linearGradient2966);fill-opacity:1;fill-rule:evenodd;stroke:none;stroke-width:1.29999995;stroke-linecap:butt;stroke-linejoin:round;stroke-miterlimit:4;stroke-dasharray:none;stroke-dashoffset:0;stroke-opacity:1"
         id="rect2930"
         y="3.25"
         x="3.453125"
         ry="0"
         height="36.1875"
         width="41.429691" />
      <path
         style="fill:#ffffff;fill-opacity:1;fill-rule:evenodd;stroke:none;stroke-width:1;stroke-linecap:butt;stroke-linejoin:miter;stroke-miterlimit:4;stroke-dashoffset:0;stroke-opacity:1"
         id="path2932"
         d="M 2.4629728,2.9331736 L 2.4684971,39.827448 C 2.5031756,40.250699 2.7358775,40.386815 3.0643477,40.384068 L 45.235962,40.384068 C 45.599063,40.380709 45.811046,40.213639 45.820764,39.827448 L 45.81524,2.9055523 C 45.881393,2.5546223 45.530236,2.3245592 45.263583,2.337884 L 3.1195904,2.3268355 C 2.7793888,2.297454 2.464886,2.4918929 2.4629728,2.9331736 z M 3.4574659,3.2622831 L 44.889719,3.2466581 L 44.881906,39.442703 L 3.4574659,39.434891 L 3.4574659,3.2622831 z" />
      <path
         style="fill:url(#linearGradient2968);fill-opacity:1;fill-rule:evenodd;stroke:none;stroke-width:2.04888678;stroke-linecap:round;stroke-linejoin:round;stroke-miterlimit:4;stroke-dasharray:none;stroke-dashoffset:0;stroke-opacity:1"
         id="path2934"
         d="M 3.4851207,6.8763289 L 3.4851207,7.8920817 C 3.4994378,9.9103999 3.9904675,11.517439 4.5886332,11.50365 L 43.780045,11.50365 C 44.378212,11.517439 44.86924,9.9103999 44.883558,7.8920817 L 44.883558,6.8763289 C 44.86924,4.8580109 44.378212,3.2509719 43.780045,3.2647608 L 4.5886332,3.2647608 C 3.5319511,4.0442893 3.5672277,5.6098563 3.4851207,6.8763289 z" />
    </g>
  </g>
  <path
     d="M 46.037755,36.383427 C 46.037755,37.299412 36.002175,38.041964 23.622661,38.041964 C 11.243146,38.041964 1.2075667,37.299412 1.2075667,36.383427 C 1.2075667,35.467443 11.243146,34.724891 23.622661,34.724891 C 36.002175,34.724891 46.037755,35.467443 46.037755,36.383427 L 46.037755,36.383427 z"
     id="path2299"
     style="opacity:0.2;color:#000000;fill:url(#radialGradient2467);fill-opacity:1;fill-rule:nonzero;stroke:none;stroke-width:1;stroke-linecap:round;stroke-linejoin:miter;marker:none;marker-start:none;marker-mid:none;marker-end:none;stroke-miterlimit:4;stroke-dasharray:none;stroke-dashoffset:0;stroke-opacity:1;visibility:visible;display:inline;overflow:visible" />
  <rect
     width="35.698112"
     height="32.341465"
     rx="1.5"
     ry="1.5000001"
     x="5.7736044"
     y="3.6273341"
     id="rect1304"
     style="color:#000000;fill:url(#linearGradient2464);fill-opacity:1;fill-rule:nonzero;stroke:#babdb6;stroke-width:1;stroke-linecap:round;stroke-linejoin:miter;marker:none;marker-start:none;marker-mid:none;marker-end:none;stroke-miterlimit:4;stroke-dasharray:none;stroke-dashoffset:0;stroke-opacity:1;visibility:visible;display:inline;overflow:visible" />
  <g
     transform="matrix(0.2375321,0,0,0.2232569,24.782502,24.204913)"
     id="g2284">
    <g
       transform="matrix(1.1625728,0,0,1.3618401,-5.283953,-20.031337)"
       id="g2286">
      <rect
         width="32.357079"
         height="6.3234997"
         x="9.3215466"
         y="41.809082"
         id="rect2288"
         style="opacity:0.3;fill:url(#linearGradient2399);fill-opacity:1;fill-rule:evenodd;stroke:none;stroke-width:1.02400005;stroke-linecap:butt;stroke-linejoin:miter;stroke-miterlimit:4;stroke-dasharray:none;stroke-dashoffset:0;stroke-opacity:1" />
      <path
         d="M 41.6785,41.799698 L 41.6785,48.126714 C 44.022298,48.102828 45.930248,46.705313 45.930248,44.974385 C 45.930248,43.243458 44.022299,41.823584 41.6785,41.799698 z"
         id="path2290"
         style="opacity:0.3;fill:url(#radialGradient2401);fill-opacity:1;fill-rule:evenodd;stroke:none;stroke-width:1.02400005;stroke-linecap:butt;stroke-linejoin:miter;stroke-miterlimit:4;stroke-dasharray:none;stroke-dashoffset:0;stroke-opacity:1" />
      <path
         d="M 9.3217476,41.799698 L 9.3217476,48.126714 C 6.9779494,48.102828 5.07,46.705313 5.07,44.974385 C 5.07,43.243458 6.9779484,41.823584 9.3217476,41.799698 z"
         id="path2292"
         style="opacity:0.3;fill:url(#radialGradient2403);fill-opacity:1;fill-rule:evenodd;stroke:none;stroke-width:1.02400005;stroke-linecap:butt;stroke-linejoin:miter;stroke-miterlimit:4;stroke-dasharray:none;stroke-dashoffset:0;stroke-opacity:1" />
    </g>
    <rect
       width="44.351135"
       height="39.058353"
       rx="1.2435893"
       ry="1.2264782"
       x="1.9720987"
       y="1.8353919"
       id="rect2294"
       style="fill:#cdcfca;fill-opacity:1;fill-rule:evenodd;stroke:#454743;stroke-width:1.20521367;stroke-linecap:butt;stroke-linejoin:miter;stroke-miterlimit:4;stroke-dasharray:none;stroke-dashoffset:0;stroke-opacity:1" />
    <rect
       width="41.429691"
       height="36.1875"
       ry="0"
       x="3.453125"
       y="3.25"
       id="rect2296"
       style="fill:url(#linearGradient2405);fill-opacity:1;fill-rule:evenodd;stroke:none;stroke-width:1.29999995;stroke-linecap:butt;stroke-linejoin:round;stroke-miterlimit:4;stroke-dasharray:none;stroke-dashoffset:0;stroke-opacity:1" />
    <path
       d="M 2.4629728,2.9331736 L 2.4684971,39.827448 C 2.5031756,40.250699 2.7358775,40.386815 3.0643477,40.384068 L 45.235962,40.384068 C 45.599063,40.380709 45.811046,40.213639 45.820764,39.827448 L 45.81524,2.9055523 C 45.881393,2.5546223 45.530236,2.3245592 45.263583,2.337884 L 3.1195904,2.3268355 C 2.7793888,2.297454 2.464886,2.4918929 2.4629728,2.9331736 z M 3.4574659,3.2622831 L 44.889719,3.2466581 L 44.881906,39.442703 L 3.4574659,39.434891 L 3.4574659,3.2622831 z"
       id="path2298"
       style="fill:#ffffff;fill-opacity:1;fill-rule:evenodd;stroke:none;stroke-width:1;stroke-linecap:butt;stroke-linejoin:miter;stroke-miterlimit:4;stroke-dashoffset:0;stroke-opacity:1" />
    <path
       d="M 3.4851207,6.8763289 L 3.4851207,7.8920817 C 3.4994378,9.9103999 3.9904675,11.517439 4.5886332,11.50365 L 43.780045,11.50365 C 44.378212,11.517439 44.86924,9.9103999 44.883558,7.8920817 L 44.883558,6.8763289 C 44.86924,4.8580109 44.378212,3.2509719 43.780045,3.2647608 L 4.5886332,3.2647608 C 3.5319511,4.0442893 3.5672277,5.6098563 3.4851207,6.8763289 z"
       id="path2300"
       style="fill:url(#linearGradient2407);fill-opacity:1;fill-rule:evenodd;stroke:none;stroke-width:2.04888678;stroke-linecap:round;stroke-linejoin:round;stroke-miterlimit:4;stroke-dasharray:none;stroke-dashoffset:0;stroke-opacity:1" />
  </g>
  <g
     transform="matrix(0.2375321,0,0,0.2232569,28.406988,21.089628)"
     id="g2312">
    <g
       transform="matrix(1.1625728,0,0,1.3618401,-5.283953,-20.031337)"
       id="g2314">
      <rect
         width="32.357079"
         height="6.3234997"
         x="9.3215466"
         y="41.809082"
         id="rect2316"
         style="opacity:0.3;fill:url(#linearGradient2409);fill-opacity:1;fill-rule:evenodd;stroke:none;stroke-width:1.02400005;stroke-linecap:butt;stroke-linejoin:miter;stroke-miterlimit:4;stroke-dasharray:none;stroke-dashoffset:0;stroke-opacity:1" />
      <path
         d="M 41.6785,41.799698 L 41.6785,48.126714 C 44.022298,48.102828 45.930248,46.705313 45.930248,44.974385 C 45.930248,43.243458 44.022299,41.823584 41.6785,41.799698 z"
         id="path2318"
         style="opacity:0.3;fill:url(#radialGradient2411);fill-opacity:1;fill-rule:evenodd;stroke:none;stroke-width:1.02400005;stroke-linecap:butt;stroke-linejoin:miter;stroke-miterlimit:4;stroke-dasharray:none;stroke-dashoffset:0;stroke-opacity:1" />
      <path
         d="M 9.3217476,41.799698 L 9.3217476,48.126714 C 6.9779494,48.102828 5.07,46.705313 5.07,44.974385 C 5.07,43.243458 6.9779484,41.823584 9.3217476,41.799698 z"
         id="path2320"
         style="opacity:0.3;fill:url(#radialGradient2413);fill-opacity:1;fill-rule:evenodd;stroke:none;stroke-width:1.02400005;stroke-linecap:butt;stroke-linejoin:miter;stroke-miterlimit:4;stroke-dasharray:none;stroke-dashoffset:0;stroke-opacity:1" />
    </g>
    <rect
       width="44.351135"
       height="39.058353"
       rx="1.2435893"
       ry="1.2264782"
       x="1.9720987"
       y="1.8353919"
       id="rect2322"
       style="fill:#cdcfca;fill-opacity:1;fill-rule:evenodd;stroke:#454743;stroke-width:1.20521367;stroke-linecap:butt;stroke-linejoin:miter;stroke-miterlimit:4;stroke-dasharray:none;stroke-dashoffset:0;stroke-opacity:1" />
    <rect
       width="41.429691"
       height="36.1875"
       ry="0"
       x="3.453125"
       y="3.25"
       id="rect2324"
       style="fill:url(#linearGradient2415);fill-opacity:1;fill-rule:evenodd;stroke:none;stroke-width:1.29999995;stroke-linecap:butt;stroke-linejoin:round;stroke-miterlimit:4;stroke-dasharray:none;stroke-dashoffset:0;stroke-opacity:1" />
    <path
       d="M 2.4629728,2.9331736 L 2.4684971,39.827448 C 2.5031756,40.250699 2.7358775,40.386815 3.0643477,40.384068 L 45.235962,40.384068 C 45.599063,40.380709 45.811046,40.213639 45.820764,39.827448 L 45.81524,2.9055523 C 45.881393,2.5546223 45.530236,2.3245592 45.263583,2.337884 L 3.1195904,2.3268355 C 2.7793888,2.297454 2.464886,2.4918929 2.4629728,2.9331736 z M 3.4574659,3.2622831 L 44.889719,3.2466581 L 44.881906,39.442703 L 3.4574659,39.434891 L 3.4574659,3.2622831 z"
       id="path2326"
       style="fill:#ffffff;fill-opacity:1;fill-rule:evenodd;stroke:none;stroke-width:1;stroke-linecap:butt;stroke-linejoin:miter;stroke-miterlimit:4;stroke-dashoffset:0;stroke-opacity:1" />
    <path
       d="M 3.4851207,6.8763289 L 3.4851207,7.8920817 C 3.4994378,9.9103999 3.9904675,11.517439 4.5886332,11.50365 L 43.780045,11.50365 C 44.378212,11.517439 44.86924,9.9103999 44.883558,7.8920817 L 44.883558,6.8763289 C 44.86924,4.8580109 44.378212,3.2509719 43.780045,3.2647608 L 4.5886332,3.2647608 C 3.5319511,4.0442893 3.5672277,5.6098563 3.4851207,6.8763289 z"
       id="path2328"
       style="fill:url(#linearGradient2417);fill-opacity:1;fill-rule:evenodd;stroke:none;stroke-width:2.04888678;stroke-linecap:round;stroke-linejoin:round;stroke-miterlimit:4;stroke-dasharray:none;stroke-dashoffset:0;stroke-opacity:1" />
  </g>
  <path
     d="M 24.454791,4.8693009 L 24.454791,20.625398 L 7.0467726,20.625398 L 7.0467726,34.722959 L 40.228376,34.710002 L 40.228376,4.8693009 L 24.454791,4.8693009 z"
     id="rect2244"
     style="fill:#000000;fill-opacity:0.18719211;fill-rule:evenodd;stroke:none;stroke-width:0;stroke-linecap:round;stroke-linejoin:miter;stroke-miterlimit:4;stroke-dasharray:none;stroke-dashoffset:0;stroke-opacity:1" />
  <g
     transform="matrix(0.8301887,0,0,0.8292683,3.6981327,1.5541633)"
     id="g2295"
     style="opacity:0.07000002">
    <path
       d="M 23.5,3.5 L 23.5,40.5"
       id="path2209"
       style="opacity:1;fill:none;fill-opacity:0.75;fill-rule:evenodd;stroke:#000000;stroke-width:1.20521367;stroke-linecap:round;stroke-linejoin:miter;stroke-miterlimit:4;stroke-dasharray:none;stroke-opacity:1" />
    <path
       d="M 3.5,21.5 L 44.5,21.5"
       id="path2211"
       style="opacity:1;fill:none;fill-opacity:0.75;fill-rule:evenodd;stroke:#000000;stroke-width:1.20521367;stroke-linecap:round;stroke-linejoin:miter;stroke-miterlimit:4;stroke-dasharray:none;stroke-opacity:1" />
  </g>
  <path
     d="M 6.9049209,20.2127 L 40.384596,20.2127"
     id="path2205"
     style="fill:none;fill-opacity:1;fill-rule:evenodd;stroke:#eeeeec;stroke-width:1;stroke-linecap:round;stroke-linejoin:miter;stroke-miterlimit:4;stroke-dasharray:none;stroke-opacity:1" />
  <path
     d="M 24.037756,4.887328 L 24.037756,34.885581"
     id="path2207"
     style="fill:none;fill-opacity:1;fill-rule:evenodd;stroke:#eeeeec;stroke-width:0.99999994000000003;stroke-linecap:round;stroke-linejoin:miter;stroke-miterlimit:4;stroke-dasharray:none;stroke-opacity:1" />
  <path
     d="M 7.09375,4.59375 C 6.8879074,4.59375 6.71875,4.7629074 6.71875,4.96875 L 6.71875,34.625 C 6.71875,34.830843 6.8879068,34.999999 7.09375,35 L 40.15625,35 C 40.362092,35 40.531249,34.830842 40.53125,34.625 L 40.53125,4.96875 C 40.53125,4.7629077 40.362091,4.59375 40.15625,4.59375 L 7.09375,4.59375 z"
     id="path2822"
     style="color:#000000;fill:none;fill-opacity:1;fill-rule:nonzero;stroke:#ffffff;stroke-width:1;stroke-linecap:round;stroke-linejoin:miter;marker:none;marker-start:none;marker-mid:none;marker-end:none;stroke-miterlimit:4;stroke-dasharray:none;stroke-dashoffset:0;stroke-opacity:1;visibility:visible;display:inline;overflow:visible" />
  <g
     transform="matrix(0.2375321,0,0,0.2232569,9.2730798,7.1955515)"
     id="g2274">
    <g
       transform="matrix(1.1625728,0,0,1.3618401,-5.283953,-20.031337)"
       id="g54724">
      <rect
         width="32.357079"
         height="6.3234997"
         x="9.3215466"
         y="41.809082"
         id="rect46899"
         style="opacity:0.3;fill:url(#linearGradient2419);fill-opacity:1;fill-rule:evenodd;stroke:none;stroke-width:1.02400005;stroke-linecap:butt;stroke-linejoin:miter;stroke-miterlimit:4;stroke-dasharray:none;stroke-dashoffset:0;stroke-opacity:1" />
      <path
         d="M 41.6785,41.799698 L 41.6785,48.126714 C 44.022298,48.102828 45.930248,46.705313 45.930248,44.974385 C 45.930248,43.243458 44.022299,41.823584 41.6785,41.799698 z"
         id="path48849"
         style="opacity:0.3;fill:url(#radialGradient2421);fill-opacity:1;fill-rule:evenodd;stroke:none;stroke-width:1.02400005;stroke-linecap:butt;stroke-linejoin:miter;stroke-miterlimit:4;stroke-dasharray:none;stroke-dashoffset:0;stroke-opacity:1" />
      <path
         d="M 9.3217476,41.799698 L 9.3217476,48.126714 C 6.9779494,48.102828 5.07,46.705313 5.07,44.974385 C 5.07,43.243458 6.9779484,41.823584 9.3217476,41.799698 z"
         id="path52742"
         style="opacity:0.3;fill:url(#radialGradient2423);fill-opacity:1;fill-rule:evenodd;stroke:none;stroke-width:1.02400005;stroke-linecap:butt;stroke-linejoin:miter;stroke-miterlimit:4;stroke-dasharray:none;stroke-dashoffset:0;stroke-opacity:1" />
    </g>
    <rect
       width="44.351135"
       height="39.058353"
       rx="1.2435893"
       ry="1.2264782"
       x="1.9720987"
       y="1.8353919"
       id="rect2168"
       style="fill:#cdcfca;fill-opacity:1;fill-rule:evenodd;stroke:#454743;stroke-width:1.20521367;stroke-linecap:butt;stroke-linejoin:miter;stroke-miterlimit:4;stroke-dasharray:none;stroke-dashoffset:0;stroke-opacity:1" />
    <rect
       width="41.429691"
       height="36.1875"
       ry="0"
       x="3.453125"
       y="3.25"
       id="rect8969"
       style="fill:url(#linearGradient2425);fill-opacity:1;fill-rule:evenodd;stroke:none;stroke-width:1.29999995;stroke-linecap:butt;stroke-linejoin:round;stroke-miterlimit:4;stroke-dasharray:none;stroke-dashoffset:0;stroke-opacity:1" />
    <path
       d="M 2.4629728,2.9331736 L 2.4684971,39.827448 C 2.5031756,40.250699 2.7358775,40.386815 3.0643477,40.384068 L 45.235962,40.384068 C 45.599063,40.380709 45.811046,40.213639 45.820764,39.827448 L 45.81524,2.9055523 C 45.881393,2.5546223 45.530236,2.3245592 45.263583,2.337884 L 3.1195904,2.3268355 C 2.7793888,2.297454 2.464886,2.4918929 2.4629728,2.9331736 z M 3.4574659,3.2622831 L 44.889719,3.2466581 L 44.881906,39.442703 L 3.4574659,39.434891 L 3.4574659,3.2622831 z"
       id="path44937"
       style="fill:#ffffff;fill-opacity:1;fill-rule:evenodd;stroke:none;stroke-width:1;stroke-linecap:butt;stroke-linejoin:miter;stroke-miterlimit:4;stroke-dashoffset:0;stroke-opacity:1" />
    <path
       d="M 3.4851207,6.8763289 L 3.4851207,7.8920817 C 3.4994378,9.9103999 3.9904675,11.517439 4.5886332,11.50365 L 43.780045,11.50365 C 44.378212,11.517439 44.86924,9.9103999 44.883558,7.8920817 L 44.883558,6.8763289 C 44.86924,4.8580109 44.378212,3.2509719 43.780045,3.2647608 L 4.5886332,3.2647608 C 3.5319511,4.0442893 3.5672277,5.6098563 3.4851207,6.8763289 z"
       id="rect9993"
       style="fill:url(#linearGradient2427);fill-opacity:1;fill-rule:evenodd;stroke:none;stroke-width:2.04888678;stroke-linecap:round;stroke-linejoin:round;stroke-miterlimit:4;stroke-dasharray:none;stroke-dashoffset:0;stroke-opacity:1" />
  </g>
</svg>
