<?xml version="1.0" encoding="UTF-8" standalone="no"?>
<!-- Created with Inkscape (http://www.inkscape.org/) -->
<svg
   xmlns:svg="http://www.w3.org/2000/svg"
   xmlns="http://www.w3.org/2000/svg"
   xmlns:xlink="http://www.w3.org/1999/xlink"
   version="1.0"
   width="48"
   height="48"
   id="svg11300">
  <defs
     id="defs3">
    <linearGradient
       id="linearGradient2291">
      <stop
         id="stop2293"
         style="stop-color:#ffffff;stop-opacity:1"
         offset="0" />
      <stop
         id="stop2295"
         style="stop-color:#ffffff;stop-opacity:0"
         offset="1" />
    </linearGradient>
    <linearGradient
       id="linearGradient6482">
      <stop
         id="stop6484"
         style="stop-color:#000000;stop-opacity:1"
         offset="0" />
      <stop
         id="stop6486"
         style="stop-color:#000000;stop-opacity:0"
         offset="1" />
    </linearGradient>
    <linearGradient
       id="linearGradient13816">
      <stop
         id="stop13818"
         style="stop-color:#f7f7f6;stop-opacity:1"
         offset="0" />
      <stop
         id="stop13820"
         style="stop-color:#eff0ee;stop-opacity:0"
         offset="1" />
    </linearGradient>
    <linearGradient
       id="linearGradient12914">
      <stop
         id="stop12916"
         style="stop-color:#3465a4;stop-opacity:1"
         offset="0" />
      <stop
         id="stop12918"
         style="stop-color:#3465a4;stop-opacity:0"
         offset="1" />
    </linearGradient>
    <linearGradient
       x1="12.838772"
       y1="1.4315225"
       x2="22.452898"
       y2="28.529707"
       id="linearGradient3548"
       xlink:href="#linearGradient12914"
       gradientUnits="userSpaceOnUse"
       gradientTransform="matrix(0.4746709,-0.2681253,3.0691746e-3,0.4362617,21.16054,23.360472)" />
    <linearGradient
       x1="28.280043"
       y1="15.029495"
       x2="38.880146"
       y2="39.040752"
       id="linearGradient3552"
       xlink:href="#linearGradient13816"
       gradientUnits="userSpaceOnUse"
       gradientTransform="matrix(0.588972,0,0,0.7401913,23.581332,24.648296)" />
    <linearGradient
       x1="28.280043"
       y1="15.029495"
       x2="38.880146"
       y2="39.040752"
       id="linearGradient5509"
       xlink:href="#linearGradient13816"
       gradientUnits="userSpaceOnUse"
       gradientTransform="matrix(0.6018086,0,0,0.8798454,-12.046092,2.4212822)" />
    <radialGradient
       cx="13.030141"
       cy="-7.0069871"
       r="18.143234"
       fx="13.030141"
       fy="-7.0069871"
       id="radialGradient6488"
       xlink:href="#linearGradient6482"
       gradientUnits="userSpaceOnUse"
       gradientTransform="matrix(1,0,0,0.3954545,0,-4.2360423)" />
    <linearGradient
       x1="28.280043"
       y1="15.029495"
       x2="38.880146"
       y2="39.040752"
       id="linearGradient2279"
       xlink:href="#linearGradient13816"
       gradientUnits="userSpaceOnUse"
       gradientTransform="matrix(0.5070937,0,0,0.741525,4.6911566,-1.7481315)" />
    <linearGradient
       x1="12.838772"
       y1="1.4315225"
       x2="22.452898"
       y2="28.529707"
       id="linearGradient2281"
       xlink:href="#linearGradient12914"
       gradientUnits="userSpaceOnUse"
       gradientTransform="matrix(0.4017821,0.2426618,3.8641107e-3,0.4370415,4.4158352,11.416657)" />
    <linearGradient
       x1="28.280043"
       y1="15.029495"
       x2="38.880146"
       y2="39.040752"
       id="linearGradient2283"
       xlink:href="#linearGradient13816"
       gradientUnits="userSpaceOnUse"
       gradientTransform="matrix(0.588972,0,0,0.7401913,23.581332,24.648296)" />
    <linearGradient
       x1="12.838772"
       y1="1.4315225"
       x2="22.452898"
       y2="28.529707"
       id="linearGradient2285"
       xlink:href="#linearGradient12914"
       gradientUnits="userSpaceOnUse"
       gradientTransform="matrix(0.4746709,-0.2681253,3.0691746e-3,0.4362617,21.16054,23.360472)" />
    <linearGradient
       x1="28.280043"
       y1="15.029495"
       x2="38.880146"
       y2="39.040752"
       id="linearGradient2287"
       xlink:href="#linearGradient13816"
       gradientUnits="userSpaceOnUse"
       gradientTransform="matrix(0.6018086,0,0,0.8798454,-12.046092,2.4212822)" />
    <linearGradient
       x1="28.401997"
       y1="43.177021"
       x2="28.535969"
       y2="76.89666"
       id="linearGradient2313"
       xlink:href="#linearGradient2291"
       gradientUnits="userSpaceOnUse"
       gradientTransform="matrix(1,0,0,0.5582822,56.000164,-65.279698)" />
    <mask
       id="mask2309">
      <rect
         width="42.602997"
         height="24.382847"
         rx="0.67276233"
         ry="0.67975968"
         x="58.143711"
         y="-41.473911"
         transform="scale(1,-1)"
         id="rect2311"
         style="opacity:1;fill:url(#linearGradient2313);fill-opacity:1;fill-rule:evenodd;stroke:none;stroke-width:1;stroke-linecap:round;stroke-linejoin:miter;stroke-miterlimit:4;stroke-dasharray:none;stroke-dashoffset:0;stroke-opacity:1" />
    </mask>
    <linearGradient
       x1="12.838772"
       y1="1.4315225"
       x2="22.452898"
       y2="28.529707"
       id="linearGradient2335"
       xlink:href="#linearGradient12914"
       gradientUnits="userSpaceOnUse"
       gradientTransform="matrix(0.3035608,0.1951851,2.9194744e-3,0.3515344,8.2416098,9.4961321)" />
    <linearGradient
       x1="28.280043"
       y1="15.029495"
       x2="38.880146"
       y2="39.040752"
       id="linearGradient2339"
       xlink:href="#linearGradient13816"
       gradientUnits="userSpaceOnUse"
       gradientTransform="matrix(0.3898974,0,0,0.596443,9.4669526,-4.2623375)" />
    <linearGradient
       x1="12.838772"
       y1="1.4315225"
       x2="22.452898"
       y2="28.529707"
       id="linearGradient2920"
       xlink:href="#linearGradient12914"
       gradientUnits="userSpaceOnUse"
       gradientTransform="matrix(0.3586309,-0.2156666,2.3188716e-3,0.3509072,20.892835,19.103142)" />
    <linearGradient
       x1="28.280043"
       y1="15.029495"
       x2="38.880146"
       y2="39.040752"
       id="linearGradient2924"
       xlink:href="#linearGradient13816"
       gradientUnits="userSpaceOnUse"
       gradientTransform="matrix(0.4521116,0,0,0.5953713,23.800574,23.075951)" />
    <linearGradient
       x1="28.280043"
       y1="15.029495"
       x2="38.880146"
       y2="39.040752"
       id="linearGradient2929"
       xlink:href="#linearGradient13816"
       gradientUnits="userSpaceOnUse"
       gradientTransform="matrix(0.4591758,0,0,0.6718337,-6.6769231,4.908625)" />
  </defs>
  <g
     id="layer1">
    <path
       d="M 31.173375,-7.0069871 A 18.143234,7.1748242 0 1 1 -5.1130934,-7.0069871 A 18.143234,7.1748242 0 1 1 31.173375,-7.0069871 z"
       transform="matrix(0.7795757,0,0,0.9892583,12.754457,34.775868)"
       id="path5511"
       style="opacity:0.3;fill:url(#radialGradient6488);fill-opacity:1;fill-rule:evenodd;stroke:none;stroke-width:1;stroke-linecap:round;stroke-linejoin:round;stroke-miterlimit:4;stroke-dasharray:none;stroke-dashoffset:0;stroke-opacity:1" />
    <rect
       width="14.958026"
       height="13.574587"
       rx="0.34819564"
       ry="0.35348225"
       x="11.062078"
       y="5.3855505"
       transform="matrix(0.8411296,0.5408336,8.3046606e-3,0.9999655,0,0)"
       id="rect2168"
       style="fill:#cdcfca;fill-opacity:1;fill-rule:evenodd;stroke:#454743;stroke-width:1.09329832;stroke-linecap:butt;stroke-linejoin:miter;stroke-miterlimit:4;stroke-dasharray:none;stroke-dashoffset:0;stroke-opacity:1" />
    <rect
       width="13.972729"
       height="12.576834"
       ry="0"
       x="11.561573"
       y="5.877192"
       transform="matrix(0.8411296,0.5408336,8.3046606e-3,0.9999655,0,0)"
       id="rect8969"
       style="fill:url(#linearGradient2339);fill-opacity:1;fill-rule:evenodd;stroke:none;stroke-width:1.29999995;stroke-linecap:butt;stroke-linejoin:round;stroke-miterlimit:4;stroke-dasharray:none;stroke-dashoffset:0;stroke-opacity:1" />
    <path
       d="M 9.4917862,11.839163 L 9.5998395,24.662199 C 9.610899,24.81562 9.6773053,24.90537 9.7704786,24.964329 L 21.733824,32.656581 C 21.83682,32.721644 21.896473,32.702248 21.898116,32.569806 L 21.789983,19.73717 C 21.807737,19.627277 21.707455,19.48327 21.631849,19.439262 L 9.6763068,11.748209 C 9.579713,11.675944 9.4910553,11.686152 9.4917862,11.839163 z M 9.9455839,12.457413 L 21.403797,19.919068 L 21.506051,31.949756 L 10.055495,24.594763 L 9.9455839,12.457413 z"
       id="path44937"
       style="fill:#ffffff;fill-opacity:1;fill-rule:evenodd;stroke:none;stroke-width:1;stroke-linecap:butt;stroke-linejoin:miter;stroke-miterlimit:4;stroke-dashoffset:0;stroke-opacity:1" />
    <path
       d="M 9.7931326,13.395989 L 9.7960643,13.748997 C 9.8059511,14.453044 9.9498861,15.101111 10.119535,15.205426 L 21.23745,22.354079 C 21.407179,22.467979 21.541837,21.999043 21.540074,21.300219 L 21.537141,20.94721 C 21.527254,20.243163 21.38332,19.595096 21.213671,19.490781 L 10.095756,12.342129 C 9.7982435,12.420299 9.8127695,12.970822 9.7931326,13.395989 z"
       id="rect9993"
       style="fill:url(#linearGradient2335);fill-opacity:1;fill-rule:evenodd;stroke:none;stroke-width:2.04888678;stroke-linecap:round;stroke-linejoin:round;stroke-miterlimit:4;stroke-dasharray:none;stroke-dashoffset:0;stroke-opacity:1" />
    <rect
       width="17.344807"
       height="13.550198"
       rx="0.40375558"
       ry="0.35284713"
       x="25.650225"
       y="32.706501"
       transform="matrix(0.8569779,-0.5153532,6.6080745e-3,0.9999782,0,0)"
       id="rect2385"
       style="fill:#cdcfca;fill-opacity:1;fill-rule:evenodd;stroke:#454743;stroke-width:1.07809913;stroke-linecap:butt;stroke-linejoin:miter;stroke-miterlimit:4;stroke-dasharray:none;stroke-dashoffset:0;stroke-opacity:1" />
    <rect
       width="16.20229"
       height="12.554236"
       ry="0"
       x="26.229424"
       y="33.197262"
       transform="matrix(0.8569779,-0.5153532,6.6080745e-3,0.9999782,0,0)"
       id="rect2387"
       style="fill:url(#linearGradient2924);fill-opacity:1;fill-rule:evenodd;stroke:none;stroke-width:1.29999995;stroke-linecap:butt;stroke-linejoin:round;stroke-miterlimit:4;stroke-dasharray:none;stroke-dashoffset:0;stroke-opacity:1" />
    <path
       d="M 22.364835,19.768765 L 22.451266,32.566804 C 22.46386,32.706647 22.54216,32.706967 22.65224,32.639814 L 36.7859,24.14038 C 36.907584,24.066034 36.978246,23.965351 36.980618,23.829418 L 36.894123,11.021797 C 36.91549,10.886722 36.797273,10.877682 36.707937,10.936048 L 22.583509,19.426081 C 22.469424,19.484454 22.364465,19.615294 22.364835,19.768765 z M 22.823507,20.13026 L 36.491258,11.475916 L 36.478155,23.752497 L 22.898644,31.94938 L 22.823507,20.13026 z"
       id="path2389"
       style="fill:#ffffff;fill-opacity:1;fill-rule:evenodd;stroke:none;stroke-width:1;stroke-linecap:butt;stroke-linejoin:miter;stroke-miterlimit:4;stroke-dashoffset:0;stroke-opacity:1" />
    <path
       d="M 22.716444,20.930695 L 22.718773,21.283074 C 22.728198,21.980372 22.896449,22.438913 23.09689,22.313572 L 36.231746,14.414781 C 36.432251,14.299008 36.593134,13.642539 36.593305,12.93947 L 36.590977,12.587091 C 36.581551,11.889793 36.413301,11.431252 36.212859,11.556593 L 23.078003,19.455384 C 22.725647,19.938782 22.741059,20.474789 22.716444,20.930695 z"
       id="path2391"
       style="fill:url(#linearGradient2920);fill-opacity:1;fill-rule:evenodd;stroke:none;stroke-width:2.04888678;stroke-linecap:round;stroke-linejoin:round;stroke-miterlimit:4;stroke-dasharray:none;stroke-dashoffset:0;stroke-opacity:1" />
    <rect
       width="17.615822"
       height="15.290425"
       rx="0.41006425"
       ry="0.39816263"
       x="-4.7983713"
       y="15.776012"
       transform="matrix(0.8533439,-0.5213485,0.8408836,0.541216,0,0)"
       id="rect2507"
       style="fill:#cdcfca;fill-opacity:1;fill-rule:evenodd;stroke:#454743;stroke-width:1.05395389;stroke-linecap:butt;stroke-linejoin:miter;stroke-miterlimit:4;stroke-dasharray:none;stroke-dashoffset:0;stroke-opacity:1" />
    <rect
       width="16.455454"
       height="14.166553"
       ry="0"
       x="-4.2101231"
       y="16.329798"
       transform="matrix(0.8533439,-0.5213485,0.8408836,0.541216,0,0)"
       id="rect2509"
       style="fill:url(#linearGradient2929);fill-opacity:1;fill-rule:evenodd;stroke:none;stroke-width:1.29999995;stroke-linecap:butt;stroke-linejoin:round;stroke-miterlimit:4;stroke-dasharray:none;stroke-dashoffset:0;stroke-opacity:1" />
    <path
       d="M 24,2.1875 L 9.71875,10.90625 C 9.5937706,10.970473 9.5428848,11.062359 9.6875,11.15625 L 21.84375,19 C 21.994831,19.082495 22.108323,19.03735 22.21875,18.96875 L 36.53125,10.25 C 36.653212,10.174099 36.655085,10.083836 36.53125,10 L 24.375,2.1875 C 24.281901,2.0994486 24.085993,2.1294597 24,2.1875 z M 24.15625,2.6875 L 35.90625,10.125 L 22.0625,18.5 L 10.40625,11.0625 L 24.15625,2.6875 z"
       id="path2932"
       style="fill:#ffffff;fill-opacity:1;fill-rule:evenodd;stroke:none;stroke-width:1;stroke-linecap:butt;stroke-linejoin:miter;stroke-miterlimit:4;stroke-dashoffset:0;stroke-opacity:1" />
    <g
       transform="matrix(0.7555359,0,0,-0.7555359,-37.607284,63.537332)"
       mask="url(#mask2309)"
       id="g2263">
      <g
         transform="matrix(1,0,0,1.0646089,56.268108,-3.1834493)"
         id="g2208">
        <rect
           width="19.454144"
           height="16.876543"
           rx="0.45285708"
           ry="0.43946517"
           x="6.7657475"
           y="10.246561"
           transform="matrix(0.8559925,0.5169883,8.8411738e-3,0.9999609,0,0)"
           id="rect2210"
           style="fill:#cdcfca;fill-opacity:1;fill-rule:evenodd;stroke:#454743;stroke-width:1.08376765;stroke-linecap:butt;stroke-linejoin:miter;stroke-miterlimit:4;stroke-dasharray:none;stroke-dashoffset:0;stroke-opacity:1" />
        <rect
           width="18.172684"
           height="15.63609"
           ry="0"
           x="7.4153833"
           y="10.857792"
           transform="matrix(0.8559925,0.5169883,8.8411738e-3,0.9999609,0,0)"
           id="rect2212"
           style="fill:url(#linearGradient2279);fill-opacity:1;fill-rule:evenodd;stroke:none;stroke-width:1.29999995;stroke-linecap:butt;stroke-linejoin:round;stroke-miterlimit:4;stroke-dasharray:none;stroke-dashoffset:0;stroke-opacity:1" />
        <path
           d="M 6.0705235,14.329606 L 6.2135389,30.271712 C 6.2281768,30.46245 6.3160698,30.574031 6.4393906,30.647332 L 22.273642,40.210644 C 22.409964,40.291533 22.488919,40.267419 22.491093,40.102762 L 22.347972,24.148721 C 22.37147,24.012097 22.238741,23.833062 22.138671,23.77835 L 6.3147483,14.216528 C 6.1869002,14.126685 6.069556,14.139376 6.0705235,14.329606 z M 6.6711537,15.098239 L 21.83683,24.374863 L 21.97217,39.331891 L 6.8166276,30.187873 L 6.6711537,15.098239 z"
           id="path2214"
           style="fill:#ffffff;fill-opacity:1;fill-rule:evenodd;stroke:none;stroke-width:1;stroke-linecap:butt;stroke-linejoin:miter;stroke-miterlimit:4;stroke-dashoffset:0;stroke-opacity:1" />
        <path
           d="M 6.4693746,16.265113 L 6.4732549,16.703987 C 6.4863408,17.579286 6.6768479,18.384988 6.9013893,18.514677 L 21.616659,27.402165 C 21.841307,27.54377 22.019535,26.96077 22.017201,26.091965 L 22.01332,25.65309 C 22.000234,24.777791 21.809728,23.972089 21.585186,23.8424 L 6.8699156,14.954913 C 6.4761392,15.052097 6.4953654,15.736529 6.4693746,16.265113 z"
           id="path2216"
           style="fill:url(#linearGradient2281);fill-opacity:1;fill-rule:evenodd;stroke:none;stroke-width:2.04888678;stroke-linecap:round;stroke-linejoin:round;stroke-miterlimit:4;stroke-dasharray:none;stroke-dashoffset:0;stroke-opacity:1" />
      </g>
      <g
         transform="matrix(1,0,0,1.0646089,56.268108,-3.1834493)"
         id="g2218">
        <rect
           width="22.59532"
           height="16.846191"
           rx="0.52597797"
           ry="0.43867481"
           x="25.990896"
           y="36.621414"
           transform="matrix(0.8706939,-0.4918252,7.0349941e-3,0.9999753,0,0)"
           id="rect2220"
           style="fill:#cdcfca;fill-opacity:1;fill-rule:evenodd;stroke:#454743;stroke-width:1.06957543;stroke-linecap:butt;stroke-linejoin:miter;stroke-miterlimit:4;stroke-dasharray:none;stroke-dashoffset:0;stroke-opacity:1" />
        <rect
           width="21.106947"
           height="15.607969"
           ry="0"
           x="26.745426"
           y="37.231548"
           transform="matrix(0.8706939,-0.4918252,7.0349941e-3,0.9999753,0,0)"
           id="rect2222"
           style="fill:url(#linearGradient2283);fill-opacity:1;fill-rule:evenodd;stroke:none;stroke-width:1.29999995;stroke-linecap:butt;stroke-linejoin:round;stroke-miterlimit:4;stroke-dasharray:none;stroke-dashoffset:0;stroke-opacity:1" />
        <path
           d="M 23.108826,24.188001 L 23.223223,40.099029 C 23.239891,40.272887 23.343527,40.273286 23.489224,40.189798 L 42.196025,29.622966 C 42.357082,29.530536 42.450608,29.405363 42.453747,29.236365 L 42.339266,13.313424 C 42.367546,13.145493 42.211079,13.134255 42.092836,13.206817 L 23.398254,23.761962 C 23.247255,23.834534 23.108336,23.997199 23.108826,24.188001 z M 23.715907,24.637425 L 41.806048,13.878003 L 41.788706,29.140734 L 23.815356,39.331423 L 23.715907,24.637425 z"
           id="path2224"
           style="fill:#ffffff;fill-opacity:1;fill-rule:evenodd;stroke:none;stroke-width:1;stroke-linecap:butt;stroke-linejoin:miter;stroke-miterlimit:4;stroke-dashoffset:0;stroke-opacity:1" />
        <path
           d="M 23.574203,25.632558 L 23.577285,26.07065 C 23.58976,26.937558 23.81245,27.507634 24.077747,27.351806 L 41.462568,17.531716 C 41.727949,17.387782 41.940887,16.571634 41.941114,15.697551 L 41.938032,15.259459 C 41.925557,14.392551 41.702867,13.822475 41.437569,13.978303 L 24.052749,23.798393 C 23.586383,24.399372 23.606782,25.065758 23.574203,25.632558 z"
           id="path2226"
           style="fill:url(#linearGradient2285);fill-opacity:1;fill-rule:evenodd;stroke:none;stroke-width:2.04888678;stroke-linecap:round;stroke-linejoin:round;stroke-miterlimit:4;stroke-dasharray:none;stroke-dashoffset:0;stroke-opacity:1" />
      </g>
      <g
         transform="matrix(1,0,0,1.0378255,56.0207,-3.1409565)"
         id="g2228">
        <rect
           width="23.087786"
           height="20.024612"
           rx="0.53744161"
           ry="0.52144086"
           x="-9.5840101"
           y="16.653406"
           transform="matrix(0.8617665,-0.5073052,0.8498381,0.5270438,0,0)"
           id="rect2230"
           style="fill:#cdcfca;fill-opacity:1;fill-rule:evenodd;stroke:#454743;stroke-width:1.06279826;stroke-linecap:butt;stroke-linejoin:miter;stroke-miterlimit:4;stroke-dasharray:none;stroke-dashoffset:0;stroke-opacity:1" />
        <rect
           width="21.566975"
           height="18.552769"
           ry="0"
           x="-8.813035"
           y="17.378653"
           transform="matrix(0.8617665,-0.5073052,0.8498381,0.5270438,0,0)"
           id="rect2232"
           style="fill:url(#linearGradient2287);fill-opacity:1;fill-rule:evenodd;stroke:none;stroke-width:1.29999995;stroke-linecap:butt;stroke-linejoin:round;stroke-miterlimit:4;stroke-dasharray:none;stroke-dashoffset:0;stroke-opacity:1" />
        <path
           d="M 6.592033,13.806088 L 22.669302,23.773728 C 22.869269,23.878935 23.032967,23.854261 23.179124,23.766774 L 42.097652,12.629804 C 42.259078,12.533006 42.281384,12.43188 42.11748,12.324962 L 26.028176,2.349859 C 25.904953,2.237565 25.647183,2.2681363 25.533366,2.3421564 L 6.6224156,13.468847 C 6.4569974,13.550751 6.4006256,13.686346 6.592033,13.806088 z M 7.5320573,13.653 L 25.740983,2.9750886 L 41.28126,12.468942 L 22.941925,23.159075 L 7.5320573,13.653 z"
           id="path2234"
           style="fill:#ffffff;fill-opacity:1;fill-rule:evenodd;stroke:none;stroke-width:1;stroke-linecap:butt;stroke-linejoin:miter;stroke-miterlimit:4;stroke-dashoffset:0;stroke-opacity:1" />
      </g>
    </g>
  </g>
</svg>
