<?xml version="1.0" encoding="UTF-8" standalone="no"?>
<!-- Created with Inkscape (http://www.inkscape.org/) -->
<svg
   xmlns:dc="http://purl.org/dc/elements/1.1/"
   xmlns:cc="http://web.resource.org/cc/"
   xmlns:rdf="http://www.w3.org/1999/02/22-rdf-syntax-ns#"
   xmlns:svg="http://www.w3.org/2000/svg"
   xmlns="http://www.w3.org/2000/svg"
   xmlns:xlink="http://www.w3.org/1999/xlink"
   xmlns:sodipodi="http://sodipodi.sourceforge.net/DTD/sodipodi-0.dtd"
   xmlns:inkscape="http://www.inkscape.org/namespaces/inkscape"
   sodipodi:docname="plugin-scalefilter.svg"
   sodipodi:docbase="/home/patrick/Projects/Fusion/config/ccsm/images"
   inkscape:version="0.45"
   sodipodi:version="0.32"
   id="svg7631"
   height="48px"
   width="48px"
   inkscape:output_extension="org.inkscape.output.svg.inkscape"
   sodipodi:modified="true">
  <defs
     id="defs3">
    <linearGradient
       inkscape:collect="always"
       id="linearGradient14450">
      <stop
         style="stop-color:#000000;stop-opacity:1;"
         offset="0"
         id="stop14452" />
      <stop
         style="stop-color:#000000;stop-opacity:0;"
         offset="1"
         id="stop14454" />
    </linearGradient>
    <linearGradient
       id="linearGradient6431">
      <stop
         style="stop-color:#eeeeed;stop-opacity:1;"
         offset="0"
         id="stop6433" />
      <stop
         style="stop-color:#babdb6;stop-opacity:1;"
         offset="1"
         id="stop6435" />
    </linearGradient>
    <linearGradient
       id="linearGradient13816">
      <stop
         id="stop13818"
         offset="0"
         style="stop-color:#f7f7f6;stop-opacity:1" />
      <stop
         id="stop13820"
         offset="1"
         style="stop-color:#eff0ee;stop-opacity:0" />
    </linearGradient>
    <linearGradient
       id="linearGradient47870">
      <stop
         id="stop47872"
         offset="0"
         style="stop-color:#000000;stop-opacity:0" />
      <stop
         id="stop47878"
         offset="0.5"
         style="stop-color:#000000;stop-opacity:1" />
      <stop
         id="stop47874"
         offset="1"
         style="stop-color:#000000;stop-opacity:0" />
    </linearGradient>
    <linearGradient
       id="linearGradient51765">
      <stop
         id="stop51767"
         offset="0"
         style="stop-color:#000000;stop-opacity:1" />
      <stop
         id="stop51769"
         offset="1"
         style="stop-color:#000000;stop-opacity:0" />
    </linearGradient>
    <linearGradient
       id="linearGradient12914">
      <stop
         id="stop12916"
         offset="0"
         style="stop-color:#3465a4;stop-opacity:1" />
      <stop
         id="stop12918"
         offset="1"
         style="stop-color:#3465a4;stop-opacity:0" />
    </linearGradient>
    <radialGradient
       inkscape:collect="always"
       xlink:href="#linearGradient6431"
       id="radialGradient11612"
       gradientUnits="userSpaceOnUse"
       gradientTransform="matrix(0.3717994,-0.3470442,0.3249346,0.3481126,22.501961,54.573798)"
       cx="34.888718"
       cy="-33.967327"
       fx="34.888718"
       fy="-33.967327"
       r="36.000511" />
    <linearGradient
       id="linearGradient8553">
      <stop
         style="stop-color:#3465a4;stop-opacity:0.70588237;"
         offset="0"
         id="stop8555" />
      <stop
         id="stop8559"
         offset="0.5"
         style="stop-color:#3465a4;stop-opacity:0.83505154;" />
      <stop
         style="stop-color:#3465a4;stop-opacity:1;"
         offset="1"
         id="stop8557" />
    </linearGradient>
    <linearGradient
       inkscape:collect="always"
       xlink:href="#linearGradient8553"
       id="linearGradient12876"
       gradientUnits="userSpaceOnUse"
       gradientTransform="matrix(0.4643586,0.4829279,-0.4829279,0.4643586,23.553815,8.0301848)"
       x1="33.524208"
       y1="29.414341"
       x2="47.904255"
       y2="41.965485" />
    <linearGradient
       inkscape:collect="always"
       xlink:href="#linearGradient47870"
       id="linearGradient13124"
       gradientUnits="userSpaceOnUse"
       gradientTransform="matrix(0.9788196,0,0,0.7154223,-8.5008021,52.112719)"
       x1="32.084972"
       y1="-14.402173"
       x2="32.084972"
       y2="-5.5633383" />
    <radialGradient
       inkscape:collect="always"
       xlink:href="#linearGradient51765"
       id="radialGradient13126"
       gradientUnits="userSpaceOnUse"
       gradientTransform="matrix(1.9576392,-8.146468e-7,6.6614241e-7,1.4565793,-59.017557,62.738067)"
       cx="51.4375"
       cy="-12.203125"
       fx="51.4375"
       fy="-12.203125"
       r="2.171875" />
    <radialGradient
       inkscape:collect="always"
       xlink:href="#linearGradient51765"
       id="radialGradient13128"
       gradientUnits="userSpaceOnUse"
       gradientTransform="matrix(-1.9576392,-9.2540676e-8,-1.2888861e-7,1.4565793,110.01781,62.73803)"
       cx="51.4375"
       cy="-12.203125"
       fx="51.4375"
       fy="-12.203125"
       r="2.171875" />
    <linearGradient
       inkscape:collect="always"
       xlink:href="#linearGradient47870"
       id="linearGradient13459"
       gradientUnits="userSpaceOnUse"
       gradientTransform="matrix(0.9788196,0,0,0.7154223,-8.5008021,52.112719)"
       x1="32.084972"
       y1="-14.402173"
       x2="32.084972"
       y2="-5.5633383" />
    <radialGradient
       inkscape:collect="always"
       xlink:href="#linearGradient51765"
       id="radialGradient13461"
       gradientUnits="userSpaceOnUse"
       gradientTransform="matrix(1.9576392,-8.146468e-7,6.6614241e-7,1.4565793,-59.017557,62.738067)"
       cx="51.4375"
       cy="-12.203125"
       fx="51.4375"
       fy="-12.203125"
       r="2.171875" />
    <radialGradient
       inkscape:collect="always"
       xlink:href="#linearGradient51765"
       id="radialGradient13463"
       gradientUnits="userSpaceOnUse"
       gradientTransform="matrix(-1.9576392,-9.2540676e-8,-1.2888861e-7,1.4565793,110.01781,62.73803)"
       cx="51.4375"
       cy="-12.203125"
       fx="51.4375"
       fy="-12.203125"
       r="2.171875" />
    <linearGradient
       inkscape:collect="always"
       xlink:href="#linearGradient13816"
       id="linearGradient13465"
       gradientUnits="userSpaceOnUse"
       gradientTransform="matrix(0.4290058,0,0,1.0364066,2.6862285,-44.26721)"
       x1="28.280043"
       y1="15.029495"
       x2="38.880146"
       y2="39.040752" />
    <linearGradient
       inkscape:collect="always"
       xlink:href="#linearGradient12914"
       id="linearGradient13467"
       gradientUnits="userSpaceOnUse"
       gradientTransform="matrix(0.3493539,0,0,0.6731101,4.1876257,-29.225222)"
       x1="12.838772"
       y1="1.4315225"
       x2="22.452898"
       y2="28.529707" />
    <linearGradient
       inkscape:collect="always"
       xlink:href="#linearGradient47870"
       id="linearGradient13469"
       gradientUnits="userSpaceOnUse"
       gradientTransform="matrix(0.9788196,0,0,0.7154223,-8.5008021,52.112719)"
       x1="32.084972"
       y1="-14.402173"
       x2="32.084972"
       y2="-5.5633383" />
    <radialGradient
       inkscape:collect="always"
       xlink:href="#linearGradient51765"
       id="radialGradient13471"
       gradientUnits="userSpaceOnUse"
       gradientTransform="matrix(1.9576392,-8.146468e-7,6.6614241e-7,1.4565793,-59.017557,62.738067)"
       cx="51.4375"
       cy="-12.203125"
       fx="51.4375"
       fy="-12.203125"
       r="2.171875" />
    <radialGradient
       inkscape:collect="always"
       xlink:href="#linearGradient51765"
       id="radialGradient13473"
       gradientUnits="userSpaceOnUse"
       gradientTransform="matrix(-1.9576392,-9.2540676e-8,-1.2888861e-7,1.4565793,110.01781,62.73803)"
       cx="51.4375"
       cy="-12.203125"
       fx="51.4375"
       fy="-12.203125"
       r="2.171875" />
    <linearGradient
       inkscape:collect="always"
       xlink:href="#linearGradient13816"
       id="linearGradient13475"
       gradientUnits="userSpaceOnUse"
       gradientTransform="matrix(0.6236984,0,0,1.5212559,21.619057,-51.826107)"
       x1="28.280043"
       y1="15.029495"
       x2="38.880146"
       y2="39.040752" />
    <linearGradient
       inkscape:collect="always"
       xlink:href="#linearGradient12914"
       id="linearGradient13477"
       gradientUnits="userSpaceOnUse"
       gradientTransform="matrix(0.5401214,0,0,0.6904586,22.925737,-28.962102)"
       x1="12.838772"
       y1="1.4315225"
       x2="22.452898"
       y2="28.529707" />
    <radialGradient
       inkscape:collect="always"
       xlink:href="#linearGradient14450"
       id="radialGradient14456"
       cx="14.375"
       cy="-12.875001"
       fx="14.375"
       fy="-12.875001"
       r="18.875"
       gradientTransform="matrix(1,0,0,9.9337748e-2,0,-11.596027)"
       gradientUnits="userSpaceOnUse" />
  </defs>
  <sodipodi:namedview
     inkscape:guide-bbox="true"
     showguides="true"
     fill="#555753"
     inkscape:window-y="49"
     inkscape:window-x="203"
     inkscape:window-height="731"
     inkscape:window-width="906"
     inkscape:showpageshadow="false"
     inkscape:document-units="px"
     inkscape:grid-bbox="true"
     showgrid="false"
     inkscape:current-layer="layer1"
     inkscape:cy="28.471979"
     inkscape:cx="25.772611"
     inkscape:zoom="0.99999999"
     inkscape:pageshadow="2"
     inkscape:pageopacity="0.0"
     borderopacity="0.20392157"
     bordercolor="#666666"
     pagecolor="#ffffff"
     id="base" />
  <metadata
     id="metadata4">
    <rdf:RDF>
      <cc:Work
         rdf:about="">
        <dc:format>image/svg+xml</dc:format>
        <dc:type
           rdf:resource="http://purl.org/dc/dcmitype/StillImage" />
        <dc:creator>
          <cc:Agent>
            <dc:title>Patrick Niklaus</dc:title>
          </cc:Agent>
        </dc:creator>
        <dc:source />
        <dc:title>Scale</dc:title>
        <dc:subject>
          <rdf:Bag />
        </dc:subject>
        <cc:license
           rdf:resource="http://creativecommons.org/licenses/GPL/2.0/" />
      </cc:Work>
      <cc:License
         rdf:about="http://creativecommons.org/licenses/GPL/2.0/">
        <cc:permits
           rdf:resource="http://web.resource.org/cc/Reproduction" />
        <cc:permits
           rdf:resource="http://web.resource.org/cc/Distribution" />
        <cc:requires
           rdf:resource="http://web.resource.org/cc/Notice" />
        <cc:permits
           rdf:resource="http://web.resource.org/cc/DerivativeWorks" />
        <cc:requires
           rdf:resource="http://web.resource.org/cc/ShareAlike" />
        <cc:requires
           rdf:resource="http://web.resource.org/cc/SourceCode" />
      </cc:License>
    </rdf:RDF>
  </metadata>
  <g
     inkscape:groupmode="layer"
     inkscape:label="Layer 1"
     id="layer1">
    <g
       id="g13441"
       transform="matrix(0.6741649,0,0,0.6741649,6.5324851,21.87577)">
      <g
         id="g54724"
         transform="matrix(0.4314222,0,0,0.8224321,1.7486833,-40.708188)">
        <rect
           id="rect46899"
           style="opacity:0.3;fill:url(#linearGradient13459);fill-opacity:1;fill-rule:evenodd;stroke:none;stroke-width:1.02400005;stroke-linecap:butt;stroke-linejoin:miter;stroke-miterlimit:4;stroke-dasharray:none;stroke-dashoffset:0;stroke-opacity:1"
           y="41.809082"
           x="9.3215466"
           height="6.3234997"
           width="32.357079" />
        <path
           id="path48849"
           style="opacity:0.3;fill:url(#radialGradient13461);fill-opacity:1;fill-rule:evenodd;stroke:none;stroke-width:1.02400005;stroke-linecap:butt;stroke-linejoin:miter;stroke-miterlimit:4;stroke-dasharray:none;stroke-dashoffset:0;stroke-opacity:1"
           d="M 41.6785,41.799698 L 41.6785,48.126714 C 44.022298,48.102828 45.930248,46.705313 45.930248,44.974385 C 45.930248,43.243458 44.022299,41.823584 41.6785,41.799698 z " />
        <path
           id="path52742"
           style="opacity:0.3;fill:url(#radialGradient13463);fill-opacity:1;fill-rule:evenodd;stroke:none;stroke-width:1.02400005;stroke-linecap:butt;stroke-linejoin:miter;stroke-miterlimit:4;stroke-dasharray:none;stroke-dashoffset:0;stroke-opacity:1"
           d="M 9.3217476,41.799698 L 9.3217476,48.126714 C 6.9779494,48.102828 5.07,46.705313 5.07,44.974385 C 5.07,43.243458 6.9779484,41.823584 9.3217476,41.799698 z " />
      </g>
      <rect
         id="rect2168"
         style="fill:#cdcfca;fill-opacity:1;fill-rule:evenodd;stroke:#454743;stroke-width:1;stroke-linecap:butt;stroke-linejoin:miter;stroke-miterlimit:4;stroke-dasharray:none;stroke-dashoffset:0;stroke-opacity:1"
         y="-27.502598"
         x="4.4413505"
         ry="0.61422688"
         rx="0.3831211"
         height="23.587824"
         width="16.458378" />
      <rect
         id="rect8969"
         style="fill:url(#linearGradient13465);fill-opacity:1;fill-rule:evenodd;stroke:none;stroke-width:1.29999995;stroke-linecap:butt;stroke-linejoin:round;stroke-miterlimit:4;stroke-dasharray:none;stroke-dashoffset:0;stroke-opacity:1"
         y="-26.6483"
         x="4.9909482"
         ry="0"
         height="21.85408"
         width="15.374252" />
      <path
         sodipodi:nodetypes="cccccccccccccc"
         id="path44937"
         style="fill:#ffffff;fill-opacity:1;fill-rule:evenodd;stroke:none;stroke-width:1;stroke-linecap:butt;stroke-linejoin:miter;stroke-miterlimit:4;stroke-dashoffset:0;stroke-opacity:1"
         d="M 4.9516352,-26.620885 L 4.9536852,-4.754038 C 4.9665541,-4.498431 5.0529081,-4.416229 5.174801,-4.417888 L 20.175937,-4.4257 C 20.310682,-4.427729 20.389347,-4.528624 20.392952,-4.76185 L 20.390903,-26.653191 C 20.415451,-26.865122 20.285139,-27.00406 20.186187,-26.996013 L 5.1953011,-26.98706 C 5.0690548,-27.004804 4.9523452,-26.88738 4.9516352,-26.620885 z M 5.9456842,-26.031506 L 19.461512,-26.040943 L 19.466425,-5.45514 L 5.9534967,-5.459858 L 5.9456842,-26.031506 z " />
      <path
         id="rect9993"
         style="fill:url(#linearGradient13467);fill-opacity:1;fill-rule:evenodd;stroke:none;stroke-width:2.04888678;stroke-linecap:round;stroke-linejoin:round;stroke-miterlimit:4;stroke-dasharray:none;stroke-dashoffset:0;stroke-opacity:1"
         d="M 5.945312,-23.638224 L 5.945312,-22.96229 C 5.9499862,-21.619199 6.110296,-20.549793 6.3055831,-20.558969 L 19.100666,-20.558969 C 19.295955,-20.549793 19.456264,-21.619199 19.460938,-22.96229 L 19.460938,-23.638224 C 19.456264,-24.981316 19.295955,-26.050721 19.100666,-26.041545 L 6.3055831,-26.041545 C 5.960601,-25.522807 5.972118,-24.480999 5.945312,-23.638224 z " />
      <g
         id="g13375"
         transform="matrix(0.6272114,0,0,1.2071804,20.256032,-46.602111)">
        <rect
           id="rect13377"
           style="opacity:0.3;fill:url(#linearGradient13469);fill-opacity:1;fill-rule:evenodd;stroke:none;stroke-width:1.02400005;stroke-linecap:butt;stroke-linejoin:miter;stroke-miterlimit:4;stroke-dasharray:none;stroke-dashoffset:0;stroke-opacity:1"
           y="41.809082"
           x="9.3215466"
           height="6.3234997"
           width="32.357079" />
        <path
           id="path13379"
           style="opacity:0.3;fill:url(#radialGradient13471);fill-opacity:1;fill-rule:evenodd;stroke:none;stroke-width:1.02400005;stroke-linecap:butt;stroke-linejoin:miter;stroke-miterlimit:4;stroke-dasharray:none;stroke-dashoffset:0;stroke-opacity:1"
           d="M 41.6785,41.799698 L 41.6785,48.126714 C 44.022298,48.102828 45.930248,46.705313 45.930248,44.974385 C 45.930248,43.243458 44.022299,41.823584 41.6785,41.799698 z " />
        <path
           id="path13381"
           style="opacity:0.3;fill:url(#radialGradient13473);fill-opacity:1;fill-rule:evenodd;stroke:none;stroke-width:1.02400005;stroke-linecap:butt;stroke-linejoin:miter;stroke-miterlimit:4;stroke-dasharray:none;stroke-dashoffset:0;stroke-opacity:1"
           d="M 9.3217476,41.799698 L 9.3217476,48.126714 C 6.9779494,48.102828 5.07,46.705313 5.07,44.974385 C 5.07,43.243458 6.9779484,41.823584 9.3217476,41.799698 z " />
      </g>
      <rect
         id="rect2366"
         style="fill:#cdcfca;fill-opacity:1;fill-rule:evenodd;stroke:#454743;stroke-width:1;stroke-linecap:butt;stroke-linejoin:miter;stroke-miterlimit:4;stroke-dasharray:none;stroke-dashoffset:0;stroke-opacity:1"
         y="-27.218714"
         x="24.170692"
         ry="0.90157312"
         rx="0.55699021"
         height="34.622623"
         width="23.927567" />
      <rect
         id="rect2368"
         style="fill:url(#linearGradient13475);fill-opacity:1;fill-rule:evenodd;stroke:none;stroke-width:1.29999995;stroke-linecap:butt;stroke-linejoin:round;stroke-miterlimit:4;stroke-dasharray:none;stroke-dashoffset:0;stroke-opacity:1"
         y="-25.964758"
         x="24.969711"
         ry="0"
         height="32.077805"
         width="22.351439" />
      <path
         sodipodi:nodetypes="cccccccccccccc"
         id="path2370"
         style="fill:#ffffff;fill-opacity:1;fill-rule:evenodd;stroke:none;stroke-width:1;stroke-linecap:butt;stroke-linejoin:miter;stroke-miterlimit:4;stroke-dashoffset:0;stroke-opacity:1"
         d="M 24.678589,-26.190362 L 24.681569,6.414515 C 24.700278,6.789699 24.825821,6.910356 25.003032,6.907921 L 47.478527,6.907921 C 47.563935,6.827604 47.578864,6.745799 47.584107,6.403466 L 47.592176,-26.236943 C 47.627865,-26.548019 47.438415,-26.751955 47.294555,-26.740143 L 25.032836,-26.72784 C 24.849296,-26.753885 24.679621,-26.581528 24.678589,-26.190362 z M 25.67916,-25.699754 L 46.551476,-25.691508 L 46.536211,5.841444 L 25.668111,5.845568 L 25.67916,-25.699754 z " />
      <path
         id="path2372"
         style="fill:url(#linearGradient13477);fill-opacity:1;fill-rule:evenodd;stroke:none;stroke-width:2.04888678;stroke-linecap:round;stroke-linejoin:round;stroke-miterlimit:4;stroke-dasharray:none;stroke-dashoffset:0;stroke-opacity:1"
         d="M 25.643223,-23.231106 L 25.643223,-22.537751 C 25.650449,-21.160043 25.898298,-20.063074 26.200223,-20.072487 L 45.982168,-20.072487 C 46.284094,-20.063074 46.531942,-21.160043 46.539169,-22.537751 L 46.539169,-23.231106 C 46.531942,-24.608814 46.284094,-25.705782 45.982168,-25.69637 L 26.200223,-25.69637 C 25.666861,-25.164262 25.684667,-24.095603 25.643223,-23.231106 z " />
    </g>
    <g
       transform="matrix(0.4865702,0,0,0.9356153,19.429281,-12.170428)"
       id="g2358">
      <rect
         width="32.357079"
         height="6.3234997"
         x="9.3215466"
         y="41.809082"
         style="opacity:0.3;fill:url(#linearGradient13124);fill-opacity:1;fill-rule:evenodd;stroke:none;stroke-width:1.02400005;stroke-linecap:butt;stroke-linejoin:miter;stroke-miterlimit:4;stroke-dasharray:none;stroke-dashoffset:0;stroke-opacity:1"
         id="rect2360" />
      <path
         d="M 41.6785,41.799698 L 41.6785,48.126714 C 44.022298,48.102828 45.930248,46.705313 45.930248,44.974385 C 45.930248,43.243458 44.022299,41.823584 41.6785,41.799698 z "
         style="opacity:0.3;fill:url(#radialGradient13126);fill-opacity:1;fill-rule:evenodd;stroke:none;stroke-width:1.02400005;stroke-linecap:butt;stroke-linejoin:miter;stroke-miterlimit:4;stroke-dasharray:none;stroke-dashoffset:0;stroke-opacity:1"
         id="path2362" />
      <path
         d="M 9.3217476,41.799698 L 9.3217476,48.126714 C 6.9779494,48.102828 5.07,46.705313 5.07,44.974385 C 5.07,43.243458 6.9779484,41.823584 9.3217476,41.799698 z "
         style="opacity:0.3;fill:url(#radialGradient13128);fill-opacity:1;fill-rule:evenodd;stroke:none;stroke-width:1.02400005;stroke-linecap:butt;stroke-linejoin:miter;stroke-miterlimit:4;stroke-dasharray:none;stroke-dashoffset:0;stroke-opacity:1"
         id="path2364" />
    </g>
    <g
       id="g11579"
       transform="matrix(1.0115688,0,0,1.0115688,0.1357029,-5.7879762)">
      <path
         sodipodi:nodetypes="cc"
         id="path6442"
         d="M 41.269517,29.385023 C 45.594323,28.292283 43.058804,27.660129 45.719771,25.729457"
         style="fill:none;fill-rule:evenodd;stroke:#555753;stroke-width:2.96569037;stroke-linecap:round;stroke-linejoin:round;stroke-miterlimit:4;stroke-dasharray:none;stroke-opacity:1" />
      <path
         style="fill:none;fill-rule:evenodd;stroke:#555753;stroke-width:2.96569037;stroke-linecap:round;stroke-linejoin:round;stroke-miterlimit:4;stroke-dasharray:none;stroke-opacity:1"
         d="M 7.3287489,29.37326 C 3.0039428,28.280519 5.5394613,27.648365 2.8784945,25.717693"
         id="path9351"
         sodipodi:nodetypes="cc" />
      <path
         id="path2233"
         d="M 6.6510229,28.91694 C 6.6498501,28.991081 6.6351292,29.065066 6.6351292,29.139452 C 6.6351292,37.79982 14.609484,44.826599 24.436147,44.826599 C 34.262809,44.826599 42.237164,37.79982 42.237164,29.139452 C 42.237164,29.065189 42.238333,28.99096 42.237164,28.91694 L 6.6510229,28.91694 z "
         style="fill:url(#radialGradient11612);fill-opacity:1;fill-rule:evenodd;stroke:#555753;stroke-width:0.98856348;stroke-linecap:round;stroke-linejoin:round;stroke-miterlimit:4;stroke-dasharray:none;stroke-dashoffset:0;stroke-opacity:1" />
      <path
         transform="matrix(0.5086005,0,0,0.5086005,12.660738,54.846836)"
         d="M -9.75,-49.0625 C -8.854995,-33.904188 5.3378166,-21.59375 23.15625,-21.59375 C 40.974682,-21.593749 55.167495,-33.904189 56.0625,-49.0625 L -9.75,-49.0625 z "
         id="path11487"
         style="fill:none;fill-opacity:1;fill-rule:evenodd;stroke:#e7e8e6;stroke-width:1.94369352;stroke-linecap:round;stroke-linejoin:miter;stroke-miterlimit:4;stroke-dasharray:none;stroke-dashoffset:0;stroke-opacity:1"
         inkscape:original="M -10.8125 -50 C -10.481695 -33.817667 4.5075431 -20.65625 23.15625 -20.65625 C 41.804956 -20.656249 56.794195 -33.817668 57.125 -50 L -10.8125 -50 z "
         inkscape:radius="-0.94623929"
         sodipodi:type="inkscape:offset" />
      <g
         id="g11551">
        <path
           sodipodi:type="arc"
           style="fill:#ffffff;fill-opacity:1;fill-rule:evenodd;stroke:none;stroke-width:2;stroke-linecap:round;stroke-linejoin:round;stroke-miterlimit:4;stroke-dasharray:none;stroke-dashoffset:0;stroke-opacity:1"
           id="path4178"
           sodipodi:cx="3.005204"
           sodipodi:cy="-60.098949"
           sodipodi:rx="1.0606602"
           sodipodi:ry="2.2097087"
           d="M 4.0658642 -60.098949 A 1.0606602 2.2097087 0 1 1  1.9445437,-60.098949 A 1.0606602 2.2097087 0 1 1  4.0658642 -60.098949 z"
           transform="matrix(0.7197945,-0.210001,0.254312,0.5928197,24.202003,68.704237)" />
        <path
           transform="matrix(0.7472018,-6.2402044e-2,0.1311195,0.6315991,20.693374,70.591275)"
           d="M 4.0658642 -60.098949 A 1.0606602 2.2097087 0 1 1  1.9445437,-60.098949 A 1.0606602 2.2097087 0 1 1  4.0658642 -60.098949 z"
           sodipodi:ry="2.2097087"
           sodipodi:rx="1.0606602"
           sodipodi:cy="-60.098949"
           sodipodi:cx="3.005204"
           id="path11493"
           style="fill:#ffffff;fill-opacity:1;fill-rule:evenodd;stroke:none;stroke-width:2;stroke-linecap:round;stroke-linejoin:round;stroke-miterlimit:4;stroke-dasharray:none;stroke-dashoffset:0;stroke-opacity:1"
           sodipodi:type="arc" />
        <path
           sodipodi:type="arc"
           style="fill:#ffffff;fill-opacity:1;fill-rule:evenodd;stroke:none;stroke-width:2;stroke-linecap:round;stroke-linejoin:round;stroke-miterlimit:4;stroke-dasharray:none;stroke-dashoffset:0;stroke-opacity:1"
           id="path11495"
           sodipodi:cx="3.005204"
           sodipodi:cy="-60.098949"
           sodipodi:rx="1.0606602"
           sodipodi:ry="2.2097087"
           d="M 4.0658642 -60.098949 A 1.0606602 2.2097087 0 1 1  1.9445437,-60.098949 A 1.0606602 2.2097087 0 1 1  4.0658642 -60.098949 z"
           transform="matrix(0.7406843,-0.1165819,0.1767094,0.6203898,27.695505,70.124625)" />
        <path
           transform="matrix(0.7442456,9.1121236e-2,-2.9495402e-4,0.6450656,21.908386,70.907901)"
           d="M 4.0658642 -60.098949 A 1.0606602 2.2097087 0 1 1  1.9445437,-60.098949 A 1.0606602 2.2097087 0 1 1  4.0658642 -60.098949 z"
           sodipodi:ry="2.2097087"
           sodipodi:rx="1.0606602"
           sodipodi:cy="-60.098949"
           sodipodi:cx="3.005204"
           id="path11497"
           style="fill:#ffffff;fill-opacity:1;fill-rule:evenodd;stroke:none;stroke-width:2;stroke-linecap:round;stroke-linejoin:round;stroke-miterlimit:4;stroke-dasharray:none;stroke-dashoffset:0;stroke-opacity:1"
           sodipodi:type="arc" />
        <path
           sodipodi:type="arc"
           style="fill:#ffffff;fill-opacity:1;fill-rule:evenodd;stroke:none;stroke-width:2;stroke-linecap:round;stroke-linejoin:round;stroke-miterlimit:4;stroke-dasharray:none;stroke-dashoffset:0;stroke-opacity:1"
           id="path11501"
           sodipodi:cx="3.005204"
           sodipodi:cy="-60.098949"
           sodipodi:rx="1.0606602"
           sodipodi:ry="2.2097087"
           d="M 4.0658642 -60.098949 A 1.0606602 2.2097087 0 1 1  1.9445437,-60.098949 A 1.0606602 2.2097087 0 1 1  4.0658642 -60.098949 z"
           transform="matrix(-0.7472018,-6.2402044e-2,-0.1311195,0.6315991,32.334915,70.528461)" />
        <path
           transform="matrix(-0.7406843,-0.1165819,-0.1767094,0.6203898,25.553754,69.996895)"
           d="M 4.0658642 -60.098949 A 1.0606602 2.2097087 0 1 1  1.9445437,-60.098949 A 1.0606602 2.2097087 0 1 1  4.0658642 -60.098949 z"
           sodipodi:ry="2.2097087"
           sodipodi:rx="1.0606602"
           sodipodi:cy="-60.098949"
           sodipodi:cx="3.005204"
           id="path11503"
           style="fill:#ffffff;fill-opacity:1;fill-rule:evenodd;stroke:none;stroke-width:2;stroke-linecap:round;stroke-linejoin:round;stroke-miterlimit:4;stroke-dasharray:none;stroke-dashoffset:0;stroke-opacity:1"
           sodipodi:type="arc" />
        <path
           sodipodi:type="arc"
           style="fill:#ffffff;fill-opacity:1;fill-rule:evenodd;stroke:none;stroke-width:2;stroke-linecap:round;stroke-linejoin:round;stroke-miterlimit:4;stroke-dasharray:none;stroke-dashoffset:0;stroke-opacity:1"
           id="path11505"
           sodipodi:cx="3.005204"
           sodipodi:cy="-60.098949"
           sodipodi:rx="1.0606602"
           sodipodi:ry="2.2097087"
           d="M 4.0658642 -60.098949 A 1.0606602 2.2097087 0 1 1  1.9445437,-60.098949 A 1.0606602 2.2097087 0 1 1  4.0658642 -60.098949 z"
           transform="matrix(-0.7442456,9.1121236e-2,2.9495402e-4,0.6450656,31.208291,70.907901)" />
        <path
           transform="matrix(0.6424977,-0.1874496,0.2270021,0.5291584,24.193809,68.321811)"
           d="M 4.0658642 -60.098949 A 1.0606602 2.2097087 0 1 1  1.9445437,-60.098949 A 1.0606602 2.2097087 0 1 1  4.0658642 -60.098949 z"
           sodipodi:ry="2.2097087"
           sodipodi:rx="1.0606602"
           sodipodi:cy="-60.098949"
           sodipodi:cx="3.005204"
           id="path11509"
           style="fill:#ffffff;fill-opacity:1;fill-rule:evenodd;stroke:none;stroke-width:2;stroke-linecap:round;stroke-linejoin:round;stroke-miterlimit:4;stroke-dasharray:none;stroke-dashoffset:0;stroke-opacity:1"
           sodipodi:type="arc" />
        <path
           sodipodi:type="arc"
           style="fill:#ffffff;fill-opacity:1;fill-rule:evenodd;stroke:none;stroke-width:2;stroke-linecap:round;stroke-linejoin:round;stroke-miterlimit:4;stroke-dasharray:none;stroke-dashoffset:0;stroke-opacity:1"
           id="path11511"
           sodipodi:cx="3.005204"
           sodipodi:cy="-60.098949"
           sodipodi:rx="1.0606602"
           sodipodi:ry="2.2097087"
           d="M 4.0658642 -60.098949 A 1.0606602 2.2097087 0 1 1  1.9445437,-60.098949 A 1.0606602 2.2097087 0 1 1  4.0658642 -60.098949 z"
           transform="matrix(0.6669618,-5.5700855e-2,0.1170389,0.5637734,21.061962,70.006205)" />
        <path
           transform="matrix(0.6611442,-0.1040625,0.157733,0.5537678,27.312153,69.589667)"
           d="M 4.0658642 -60.098949 A 1.0606602 2.2097087 0 1 1  1.9445437,-60.098949 A 1.0606602 2.2097087 0 1 1  4.0658642 -60.098949 z"
           sodipodi:ry="2.2097087"
           sodipodi:rx="1.0606602"
           sodipodi:cy="-60.098949"
           sodipodi:cx="3.005204"
           id="path11513"
           style="fill:#ffffff;fill-opacity:1;fill-rule:evenodd;stroke:none;stroke-width:2;stroke-linecap:round;stroke-linejoin:round;stroke-miterlimit:4;stroke-dasharray:none;stroke-dashoffset:0;stroke-opacity:1"
           sodipodi:type="arc" />
        <path
           sodipodi:type="arc"
           style="fill:#ffffff;fill-opacity:1;fill-rule:evenodd;stroke:none;stroke-width:2;stroke-linecap:round;stroke-linejoin:round;stroke-miterlimit:4;stroke-dasharray:none;stroke-dashoffset:0;stroke-opacity:1"
           id="path11515"
           sodipodi:cx="3.005204"
           sodipodi:cy="-60.098949"
           sodipodi:rx="1.0606602"
           sodipodi:ry="2.2097087"
           d="M 4.0658642 -60.098949 A 1.0606602 2.2097087 0 1 1  1.9445437,-60.098949 A 1.0606602 2.2097087 0 1 1  4.0658642 -60.098949 z"
           transform="matrix(0.6643231,8.133597e-2,-2.632797e-4,0.5757937,22.146497,70.288829)" />
        <path
           transform="matrix(-0.6669618,-5.5700855e-2,-0.1170389,0.5637734,31.453349,69.950136)"
           d="M 4.0658642 -60.098949 A 1.0606602 2.2097087 0 1 1  1.9445437,-60.098949 A 1.0606602 2.2097087 0 1 1  4.0658642 -60.098949 z"
           sodipodi:ry="2.2097087"
           sodipodi:rx="1.0606602"
           sodipodi:cy="-60.098949"
           sodipodi:cx="3.005204"
           id="path11517"
           style="fill:#ffffff;fill-opacity:1;fill-rule:evenodd;stroke:none;stroke-width:2;stroke-linecap:round;stroke-linejoin:round;stroke-miterlimit:4;stroke-dasharray:none;stroke-dashoffset:0;stroke-opacity:1"
           sodipodi:type="arc" />
        <path
           sodipodi:type="arc"
           style="fill:#ffffff;fill-opacity:1;fill-rule:evenodd;stroke:none;stroke-width:2;stroke-linecap:round;stroke-linejoin:round;stroke-miterlimit:4;stroke-dasharray:none;stroke-dashoffset:0;stroke-opacity:1"
           id="path11519"
           sodipodi:cx="3.005204"
           sodipodi:cy="-60.098949"
           sodipodi:rx="1.0606602"
           sodipodi:ry="2.2097087"
           d="M 4.0658642 -60.098949 A 1.0606602 2.2097087 0 1 1  1.9445437,-60.098949 A 1.0606602 2.2097087 0 1 1  4.0658642 -60.098949 z"
           transform="matrix(-0.6611442,-0.1040625,-0.157733,0.5537678,25.400399,69.475654)" />
        <path
           transform="matrix(-0.6643231,8.133597e-2,2.632797e-4,0.5757937,30.44771,70.288829)"
           d="M 4.0658642 -60.098949 A 1.0606602 2.2097087 0 1 1  1.9445437,-60.098949 A 1.0606602 2.2097087 0 1 1  4.0658642 -60.098949 z"
           sodipodi:ry="2.2097087"
           sodipodi:rx="1.0606602"
           sodipodi:cy="-60.098949"
           sodipodi:cx="3.005204"
           id="path11521"
           style="fill:#ffffff;fill-opacity:1;fill-rule:evenodd;stroke:none;stroke-width:2;stroke-linecap:round;stroke-linejoin:round;stroke-miterlimit:4;stroke-dasharray:none;stroke-dashoffset:0;stroke-opacity:1"
           sodipodi:type="arc" />
        <path
           sodipodi:type="arc"
           style="fill:#ffffff;fill-opacity:1;fill-rule:evenodd;stroke:none;stroke-width:2;stroke-linecap:round;stroke-linejoin:round;stroke-miterlimit:4;stroke-dasharray:none;stroke-dashoffset:0;stroke-opacity:1"
           id="path11523"
           sodipodi:cx="3.005204"
           sodipodi:cy="-60.098949"
           sodipodi:rx="1.0606602"
           sodipodi:ry="2.2097087"
           d="M 4.0658642 -60.098949 A 1.0606602 2.2097087 0 1 1  1.9445437,-60.098949 A 1.0606602 2.2097087 0 1 1  4.0658642 -60.098949 z"
           transform="matrix(0.5431162,-0.1584549,0.1918894,0.4473082,24.372679,66.428538)" />
        <path
           transform="matrix(0.5637962,-4.7085048e-2,9.8935326e-2,0.4765689,21.725266,67.85239)"
           d="M 4.0658642 -60.098949 A 1.0606602 2.2097087 0 1 1  1.9445437,-60.098949 A 1.0606602 2.2097087 0 1 1  4.0658642 -60.098949 z"
           sodipodi:ry="2.2097087"
           sodipodi:rx="1.0606602"
           sodipodi:cy="-60.098949"
           sodipodi:cx="3.005204"
           id="path11525"
           style="fill:#ffffff;fill-opacity:1;fill-rule:evenodd;stroke:none;stroke-width:2;stroke-linecap:round;stroke-linejoin:round;stroke-miterlimit:4;stroke-dasharray:none;stroke-dashoffset:0;stroke-opacity:1"
           sodipodi:type="arc" />
        <path
           sodipodi:type="arc"
           style="fill:#ffffff;fill-opacity:1;fill-rule:evenodd;stroke:none;stroke-width:2;stroke-linecap:round;stroke-linejoin:round;stroke-miterlimit:4;stroke-dasharray:none;stroke-dashoffset:0;stroke-opacity:1"
           id="path11527"
           sodipodi:cx="3.005204"
           sodipodi:cy="-60.098949"
           sodipodi:rx="1.0606602"
           sodipodi:ry="2.2097087"
           d="M 4.0658642 -60.098949 A 1.0606602 2.2097087 0 1 1  1.9445437,-60.098949 A 1.0606602 2.2097087 0 1 1  4.0658642 -60.098949 z"
           transform="matrix(0.5588784,-8.7966115e-2,0.1333349,0.468111,27.008677,67.500282)" />
        <path
           transform="matrix(0.5615656,6.8754924e-2,-2.225556e-4,0.4867299,22.642045,68.091298)"
           d="M 4.0658642 -60.098949 A 1.0606602 2.2097087 0 1 1  1.9445437,-60.098949 A 1.0606602 2.2097087 0 1 1  4.0658642 -60.098949 z"
           sodipodi:ry="2.2097087"
           sodipodi:rx="1.0606602"
           sodipodi:cy="-60.098949"
           sodipodi:cx="3.005204"
           id="path11529"
           style="fill:#ffffff;fill-opacity:1;fill-rule:evenodd;stroke:none;stroke-width:2;stroke-linecap:round;stroke-linejoin:round;stroke-miterlimit:4;stroke-dasharray:none;stroke-dashoffset:0;stroke-opacity:1"
           sodipodi:type="arc" />
        <path
           sodipodi:type="arc"
           style="fill:#ffffff;fill-opacity:1;fill-rule:evenodd;stroke:none;stroke-width:2;stroke-linecap:round;stroke-linejoin:round;stroke-miterlimit:4;stroke-dasharray:none;stroke-dashoffset:0;stroke-opacity:1"
           id="path11531"
           sodipodi:cx="3.005204"
           sodipodi:cy="-60.098949"
           sodipodi:rx="1.0606602"
           sodipodi:ry="2.2097087"
           d="M 4.0658642 -60.098949 A 1.0606602 2.2097087 0 1 1  1.9445437,-60.098949 A 1.0606602 2.2097087 0 1 1  4.0658642 -60.098949 z"
           transform="matrix(-0.5637962,-4.7085048e-2,-9.8935326e-2,0.4765689,30.509313,67.804994)" />
        <path
           transform="matrix(-0.5588784,-8.7966115e-2,-0.1333349,0.468111,25.392633,67.403905)"
           d="M 4.0658642 -60.098949 A 1.0606602 2.2097087 0 1 1  1.9445437,-60.098949 A 1.0606602 2.2097087 0 1 1  4.0658642 -60.098949 z"
           sodipodi:ry="2.2097087"
           sodipodi:rx="1.0606602"
           sodipodi:cy="-60.098949"
           sodipodi:cx="3.005204"
           id="path11533"
           style="fill:#ffffff;fill-opacity:1;fill-rule:evenodd;stroke:none;stroke-width:2;stroke-linecap:round;stroke-linejoin:round;stroke-miterlimit:4;stroke-dasharray:none;stroke-dashoffset:0;stroke-opacity:1"
           sodipodi:type="arc" />
        <path
           sodipodi:type="arc"
           style="fill:#ffffff;fill-opacity:1;fill-rule:evenodd;stroke:none;stroke-width:2;stroke-linecap:round;stroke-linejoin:round;stroke-miterlimit:4;stroke-dasharray:none;stroke-dashoffset:0;stroke-opacity:1"
           id="path11535"
           sodipodi:cx="3.005204"
           sodipodi:cy="-60.098949"
           sodipodi:rx="1.0606602"
           sodipodi:ry="2.2097087"
           d="M 4.0658642 -60.098949 A 1.0606602 2.2097087 0 1 1  1.9445437,-60.098949 A 1.0606602 2.2097087 0 1 1  4.0658642 -60.098949 z"
           transform="matrix(-0.5615656,6.8754924e-2,2.225556e-4,0.4867299,29.659226,68.091298)" />
        <path
           sodipodi:type="arc"
           style="fill:#ffffff;fill-opacity:1;fill-rule:evenodd;stroke:none;stroke-width:2;stroke-linecap:round;stroke-linejoin:round;stroke-miterlimit:4;stroke-dasharray:none;stroke-dashoffset:0;stroke-opacity:1"
           id="path11539"
           sodipodi:cx="3.005204"
           sodipodi:cy="-60.098949"
           sodipodi:rx="1.0606602"
           sodipodi:ry="2.2097087"
           d="M 4.0658642 -60.098949 A 1.0606602 2.2097087 0 1 1  1.9445437,-60.098949 A 1.0606602 2.2097087 0 1 1  4.0658642 -60.098949 z"
           transform="matrix(0.4017856,-0.204272,0.2162954,0.3218416,30.719462,61.586064)" />
        <path
           transform="matrix(0.4452496,-7.0081223e-2,0.1062258,0.3729367,26.612554,64.36851)"
           d="M 4.0658642 -60.098949 A 1.0606602 2.2097087 0 1 1  1.9445437,-60.098949 A 1.0606602 2.2097087 0 1 1  4.0658642 -60.098949 z"
           sodipodi:ry="2.2097087"
           sodipodi:rx="1.0606602"
           sodipodi:cy="-60.098949"
           sodipodi:cx="3.005204"
           id="path11541"
           style="fill:#ffffff;fill-opacity:1;fill-rule:evenodd;stroke:none;stroke-width:2;stroke-linecap:round;stroke-linejoin:round;stroke-miterlimit:4;stroke-dasharray:none;stroke-dashoffset:0;stroke-opacity:1"
           sodipodi:type="arc" />
        <path
           sodipodi:type="arc"
           style="fill:#ffffff;fill-opacity:1;fill-rule:evenodd;stroke:none;stroke-width:2;stroke-linecap:round;stroke-linejoin:round;stroke-miterlimit:4;stroke-dasharray:none;stroke-dashoffset:0;stroke-opacity:1"
           id="path11543"
           sodipodi:cx="3.005204"
           sodipodi:cy="-60.098949"
           sodipodi:rx="1.0606602"
           sodipodi:ry="2.2097087"
           d="M 4.0658642 -60.098949 A 1.0606602 2.2097087 0 1 1  1.9445437,-60.098949 A 1.0606602 2.2097087 0 1 1  4.0658642 -60.098949 z"
           transform="matrix(0.4473905,5.4775968e-2,-1.7730655e-4,0.3877701,23.133727,64.839364)" />
        <path
           sodipodi:type="arc"
           style="fill:#ffffff;fill-opacity:1;fill-rule:evenodd;stroke:none;stroke-width:2;stroke-linecap:round;stroke-linejoin:round;stroke-miterlimit:4;stroke-dasharray:none;stroke-dashoffset:0;stroke-opacity:1"
           id="path11547"
           sodipodi:cx="3.005204"
           sodipodi:cy="-60.098949"
           sodipodi:rx="1.0606602"
           sodipodi:ry="2.2097087"
           d="M 4.0658642 -60.098949 A 1.0606602 2.2097087 0 1 1  1.9445437,-60.098949 A 1.0606602 2.2097087 0 1 1  4.0658642 -60.098949 z"
           transform="matrix(-0.4001215,-0.2075123,-0.2188893,0.3200831,18.285918,61.484096)" />
        <path
           transform="matrix(-0.4473905,5.4775968e-2,1.7730655e-4,0.3877701,28.724205,64.839364)"
           d="M 4.0658642 -60.098949 A 1.0606602 2.2097087 0 1 1  1.9445437,-60.098949 A 1.0606602 2.2097087 0 1 1  4.0658642 -60.098949 z"
           sodipodi:ry="2.2097087"
           sodipodi:rx="1.0606602"
           sodipodi:cy="-60.098949"
           sodipodi:cx="3.005204"
           id="path11549"
           style="fill:#ffffff;fill-opacity:1;fill-rule:evenodd;stroke:none;stroke-width:2;stroke-linecap:round;stroke-linejoin:round;stroke-miterlimit:4;stroke-dasharray:none;stroke-dashoffset:0;stroke-opacity:1"
           sodipodi:type="arc" />
      </g>
    </g>
    <path
       sodipodi:type="arc"
       style="opacity:0.33658537;fill:url(#radialGradient14456);fill-opacity:1;fill-rule:evenodd;stroke:none;stroke-width:3;stroke-linecap:round;stroke-linejoin:miter;stroke-miterlimit:4;stroke-dasharray:none;stroke-dashoffset:0;stroke-opacity:1"
       id="path13479"
       sodipodi:cx="14.375"
       sodipodi:cy="-12.875001"
       sodipodi:rx="18.875"
       sodipodi:ry="1.875"
       d="M 33.25 -12.875001 A 18.875 1.875 0 1 1  -4.5,-12.875001 A 18.875 1.875 0 1 1  33.25 -12.875001 z"
       transform="matrix(0.8311258,0,0,1.4,12.615066,58.775001)" />
    <path
       style="fill:url(#linearGradient12876);fill-opacity:1;fill-rule:evenodd;stroke:#3232cb;stroke-width:0.33498067;stroke-linecap:butt;stroke-linejoin:round;stroke-miterlimit:4;stroke-dasharray:none;stroke-opacity:1"
       d="M 22.465693,37.83844 L 22.56149,41.694827 L 19.879853,41.720218 L 25.340717,47.399457 L 31.082012,41.878922 L 28.201197,41.931531 L 28.097718,37.91823 L 22.465693,37.83844 z "
       id="path6755"
       sodipodi:nodetypes="cccccccc" />
  </g>
</svg>
