<?xml version="1.0" encoding="UTF-8" standalone="no"?>
<!-- Created with Inkscape (http://www.inkscape.org/) -->
<svg
   xmlns:dc="http://purl.org/dc/elements/1.1/"
   xmlns:cc="http://web.resource.org/cc/"
   xmlns:rdf="http://www.w3.org/1999/02/22-rdf-syntax-ns#"
   xmlns:svg="http://www.w3.org/2000/svg"
   xmlns="http://www.w3.org/2000/svg"
   xmlns:xlink="http://www.w3.org/1999/xlink"
   xmlns:sodipodi="http://sodipodi.sourceforge.net/DTD/sodipodi-0.dtd"
   xmlns:inkscape="http://www.inkscape.org/namespaces/inkscape"
   inkscape:export-ydpi="90.000000"
   inkscape:export-xdpi="90.000000"
   inkscape:export-filename="/home/jimmac/Desktop/wi-fi.png"
   width="48px"
   height="48px"
   id="svg11300"
   sodipodi:version="0.32"
   inkscape:version="0.45+devel"
   sodipodi:docbase="/home/patrick/Projects/Fusion/config/ccsm-new-icons/images"
   sodipodi:docname="plugin-fakeargb2.svg"
   inkscape:output_extension="org.inkscape.output.svg.inkscape">
  <defs
     id="defs3">
    <linearGradient
       id="linearGradient3801">
      <stop
         style="stop-color:#d3d7cf;stop-opacity:0.47058824;"
         offset="0"
         id="stop3803" />
      <stop
         style="stop-color:#eeeeec;stop-opacity:0.47058824;"
         offset="1"
         id="stop3805" />
    </linearGradient>
    <linearGradient
       id="linearGradient47870">
      <stop
         id="stop47872"
         offset="0"
         style="stop-color:#000000;stop-opacity:0" />
      <stop
         id="stop47878"
         offset="0.5"
         style="stop-color:#000000;stop-opacity:1" />
      <stop
         id="stop47874"
         offset="1"
         style="stop-color:#000000;stop-opacity:0" />
    </linearGradient>
    <linearGradient
       id="linearGradient51765">
      <stop
         id="stop51767"
         offset="0"
         style="stop-color:#000000;stop-opacity:1" />
      <stop
         id="stop51769"
         offset="1"
         style="stop-color:#000000;stop-opacity:0" />
    </linearGradient>
    <linearGradient
       id="linearGradient2781">
      <stop
         id="stop2783"
         offset="0"
         style="stop-color:#d3d7cf;stop-opacity:1" />
      <stop
         id="stop2785"
         offset="1"
         style="stop-color:#eeeeec;stop-opacity:1" />
    </linearGradient>
    <linearGradient
       id="linearGradient3674">
      <stop
         id="stop3676"
         offset="0"
         style="stop-color:#3465a4;stop-opacity:1" />
      <stop
         id="stop3678"
         offset="1"
         style="stop-color:#729fcf;stop-opacity:1;" />
    </linearGradient>
    <linearGradient
       id="linearGradient3690">
      <stop
         id="stop3692"
         offset="0"
         style="stop-color:white;stop-opacity:1;" />
      <stop
         id="stop3694"
         offset="1"
         style="stop-color:white;stop-opacity:0.46875" />
    </linearGradient>
    <linearGradient
       id="linearGradient8440">
      <stop
         style="stop-color:#edeeec;stop-opacity:1;"
         offset="0"
         id="stop8442" />
      <stop
         style="stop-color:#babdb6;stop-opacity:1;"
         offset="1"
         id="stop8444" />
    </linearGradient>
    <linearGradient
       id="linearGradient30743"
       inkscape:collect="always">
      <stop
         id="stop30745"
         offset="0"
         style="stop-color:#000000;stop-opacity:1;" />
      <stop
         id="stop30747"
         offset="1"
         style="stop-color:#000000;stop-opacity:0;" />
    </linearGradient>
    <radialGradient
       inkscape:collect="always"
       xlink:href="#linearGradient30743"
       id="radialGradient2652"
       gradientUnits="userSpaceOnUse"
       gradientTransform="matrix(1,0,0,0.6052632,0,2.3684209)"
       cx="10.5"
       cy="5.9999995"
       fx="10.5"
       fy="5.9999995"
       r="9.5" />
    <radialGradient
       inkscape:collect="always"
       xlink:href="#linearGradient30743"
       id="radialGradient2658"
       gradientUnits="userSpaceOnUse"
       gradientTransform="matrix(1,0,0,0.6052632,0,2.3684209)"
       cx="10.5"
       cy="5.9999995"
       fx="10.5"
       fy="5.9999995"
       r="9.5" />
    <linearGradient
       inkscape:collect="always"
       xlink:href="#linearGradient47870"
       id="linearGradient3383"
       gradientUnits="userSpaceOnUse"
       gradientTransform="matrix(0.9788196,0,0,0.7154223,-8.5008021,52.112719)"
       x1="32.084972"
       y1="-14.402173"
       x2="32.084972"
       y2="-5.5633383" />
    <radialGradient
       inkscape:collect="always"
       xlink:href="#linearGradient51765"
       id="radialGradient3385"
       gradientUnits="userSpaceOnUse"
       gradientTransform="matrix(1.9576392,-8.146468e-7,6.6614241e-7,1.4565793,-59.017557,62.738067)"
       cx="51.4375"
       cy="-12.203125"
       fx="51.4375"
       fy="-12.203125"
       r="2.171875" />
    <radialGradient
       inkscape:collect="always"
       xlink:href="#linearGradient51765"
       id="radialGradient3387"
       gradientUnits="userSpaceOnUse"
       gradientTransform="matrix(-1.9576392,-9.2540676e-8,-1.2888861e-7,1.4565793,110.01781,62.73803)"
       cx="51.4375"
       cy="-12.203125"
       fx="51.4375"
       fy="-12.203125"
       r="2.171875" />
    <linearGradient
       inkscape:collect="always"
       xlink:href="#linearGradient2781"
       id="linearGradient3389"
       gradientUnits="userSpaceOnUse"
       gradientTransform="matrix(0.9893567,0,0,0.9354195,-4.3714147,6.0132934)"
       x1="24.925514"
       y1="40.000107"
       x2="24.925514"
       y2="19.53867" />
    <linearGradient
       inkscape:collect="always"
       xlink:href="#linearGradient3674"
       id="linearGradient3391"
       gradientUnits="userSpaceOnUse"
       gradientTransform="matrix(0.9893567,0,0,1.0101546,-4.3714147,4.9647349)"
       x1="23.069359"
       y1="6.7993021"
       x2="23.069359"
       y2="12.403291" />
    <linearGradient
       inkscape:collect="always"
       xlink:href="#linearGradient3690"
       id="linearGradient3393"
       gradientUnits="userSpaceOnUse"
       gradientTransform="matrix(0.9955898,0,0,0.9455809,-4.6278244,5.5695063)"
       x1="9.5"
       y1="16.26436"
       x2="9.5"
       y2="13.408723" />
    <linearGradient
       inkscape:collect="always"
       xlink:href="#linearGradient47870"
       id="linearGradient3395"
       gradientUnits="userSpaceOnUse"
       gradientTransform="matrix(0.9788196,0,0,0.7154223,-8.5008021,52.112719)"
       x1="32.084972"
       y1="-14.402173"
       x2="32.084972"
       y2="-5.5633383" />
    <radialGradient
       inkscape:collect="always"
       xlink:href="#linearGradient51765"
       id="radialGradient3397"
       gradientUnits="userSpaceOnUse"
       gradientTransform="matrix(1.9576392,-8.146468e-7,6.6614241e-7,1.4565793,-59.017557,62.738067)"
       cx="51.4375"
       cy="-12.203125"
       fx="51.4375"
       fy="-12.203125"
       r="2.171875" />
    <radialGradient
       inkscape:collect="always"
       xlink:href="#linearGradient51765"
       id="radialGradient3399"
       gradientUnits="userSpaceOnUse"
       gradientTransform="matrix(-1.9576392,-9.2540676e-8,-1.2888861e-7,1.4565793,110.01781,62.73803)"
       cx="51.4375"
       cy="-12.203125"
       fx="51.4375"
       fy="-12.203125"
       r="2.171875" />
    <linearGradient
       inkscape:collect="always"
       xlink:href="#linearGradient3690"
       id="linearGradient3408"
       gradientUnits="userSpaceOnUse"
       gradientTransform="matrix(1.015581,0,0,0.9671835,-5.4816281,5.3985847)"
       x1="9.5"
       y1="16.26436"
       x2="9.5"
       y2="13.408723" />
    <linearGradient
       inkscape:collect="always"
       xlink:href="#linearGradient3674"
       id="linearGradient3411"
       gradientUnits="userSpaceOnUse"
       gradientTransform="matrix(1.0092228,0,0,1.0332324,-5.2200697,4.7799968)"
       x1="23.069359"
       y1="6.7993021"
       x2="23.069359"
       y2="12.403291" />
    <linearGradient
       inkscape:collect="always"
       xlink:href="#linearGradient3801"
       id="linearGradient3414"
       gradientUnits="userSpaceOnUse"
       gradientTransform="matrix(1.0092228,0,0,0.9567899,-5.2200697,5.8525105)"
       x1="24.925514"
       y1="40.000107"
       x2="24.925514"
       y2="19.53867" />
    <radialGradient
       inkscape:collect="always"
       xlink:href="#linearGradient8440"
       id="radialGradient3819"
       gradientUnits="userSpaceOnUse"
       gradientTransform="matrix(0.3024733,0.2271336,-0.2966823,0.3950914,5.9119657,8.265604)"
       cx="56.704376"
       cy="10.241054"
       fx="56.704376"
       fy="10.241054"
       r="14.75" />
    <radialGradient
       inkscape:collect="always"
       xlink:href="#linearGradient8440"
       id="radialGradient3823"
       gradientUnits="userSpaceOnUse"
       gradientTransform="matrix(0.1735634,0.2073281,-0.2708125,0.2267089,4.4990883,19.301451)"
       cx="56.704376"
       cy="10.241054"
       fx="56.704376"
       fy="10.241054"
       r="14.75" />
    <linearGradient
       inkscape:collect="always"
       xlink:href="#linearGradient3690"
       id="linearGradient4216"
       gradientUnits="userSpaceOnUse"
       gradientTransform="matrix(1.015581,0,0,0.9671835,-5.4816281,5.3985847)"
       x1="9.5"
       y1="16.26436"
       x2="9.5"
       y2="13.408723" />
    <linearGradient
       inkscape:collect="always"
       xlink:href="#linearGradient3674"
       id="linearGradient4219"
       gradientUnits="userSpaceOnUse"
       gradientTransform="matrix(1.0092228,0,0,1.0332324,-5.2200697,4.7799968)"
       x1="23.069359"
       y1="6.7993021"
       x2="23.069359"
       y2="12.403291" />
    <linearGradient
       inkscape:collect="always"
       xlink:href="#linearGradient3801"
       id="linearGradient4222"
       gradientUnits="userSpaceOnUse"
       gradientTransform="matrix(1.0092228,0,0,0.9567899,-5.2200697,5.8525105)"
       x1="24.925514"
       y1="40.000107"
       x2="24.925514"
       y2="19.53867" />
    <linearGradient
       inkscape:collect="always"
       xlink:href="#linearGradient47870"
       id="linearGradient4228"
       gradientUnits="userSpaceOnUse"
       gradientTransform="matrix(0.9788196,0,0,0.7154223,-8.5008021,52.112719)"
       x1="32.084972"
       y1="-14.402173"
       x2="32.084972"
       y2="-5.5633383" />
    <radialGradient
       inkscape:collect="always"
       xlink:href="#linearGradient51765"
       id="radialGradient4230"
       gradientUnits="userSpaceOnUse"
       gradientTransform="matrix(1.9576392,-8.146468e-7,6.6614241e-7,1.4565793,-59.017557,62.738067)"
       cx="51.4375"
       cy="-12.203125"
       fx="51.4375"
       fy="-12.203125"
       r="2.171875" />
    <radialGradient
       inkscape:collect="always"
       xlink:href="#linearGradient51765"
       id="radialGradient4232"
       gradientUnits="userSpaceOnUse"
       gradientTransform="matrix(-1.9576392,-9.2540676e-8,-1.2888861e-7,1.4565793,110.01781,62.73803)"
       cx="51.4375"
       cy="-12.203125"
       fx="51.4375"
       fy="-12.203125"
       r="2.171875" />
    <radialGradient
       inkscape:collect="always"
       xlink:href="#linearGradient51765"
       id="radialGradient4235"
       gradientUnits="userSpaceOnUse"
       gradientTransform="matrix(-1.7210411,-1.0246639e-7,-1.1331127e-7,1.6128088,94.234695,62.801883)"
       cx="51.4375"
       cy="-12.203125"
       fx="51.4375"
       fy="-12.203125"
       r="2.171875" />
    <radialGradient
       inkscape:collect="always"
       xlink:href="#linearGradient51765"
       id="radialGradient4238"
       gradientUnits="userSpaceOnUse"
       gradientTransform="matrix(1.7210411,-9.0202402e-7,5.8563317e-7,1.6128088,-54.371243,62.801924)"
       cx="51.4375"
       cy="-12.203125"
       fx="51.4375"
       fy="-12.203125"
       r="2.171875" />
    <linearGradient
       inkscape:collect="always"
       xlink:href="#linearGradient47870"
       id="linearGradient4241"
       gradientUnits="userSpaceOnUse"
       gradientTransform="matrix(0.8605205,0,0,0.7921569,-9.9598878,51.036924)"
       x1="32.084972"
       y1="-14.402173"
       x2="32.084972"
       y2="-5.5633383" />
  </defs>
  <sodipodi:namedview
     stroke="#ef2929"
     fill="#eeeeec"
     id="base"
     pagecolor="#ffffff"
     bordercolor="#666666"
     borderopacity="0.25490196"
     inkscape:pageopacity="0.0"
     inkscape:pageshadow="2"
     inkscape:zoom="0.99999999"
     inkscape:cx="20.501328"
     inkscape:cy="11.633556"
     inkscape:current-layer="layer1"
     showgrid="false"
     inkscape:grid-bbox="true"
     inkscape:document-units="px"
     inkscape:showpageshadow="false"
     inkscape:window-width="1280"
     inkscape:window-height="724"
     inkscape:window-x="0"
     inkscape:window-y="49"
     showguides="true"
     inkscape:guide-bbox="true" />
  <metadata
     id="metadata4">
    <rdf:RDF>
      <cc:Work
         rdf:about="">
        <dc:format>image/svg+xml</dc:format>
        <dc:type
           rdf:resource="http://purl.org/dc/dcmitype/StillImage" />
        <dc:creator>
          <cc:Agent>
            <dc:title>Patrick Niklaus</dc:title>
          </cc:Agent>
        </dc:creator>
        <dc:source />
        <cc:license
           rdf:resource="http://creativecommons.org/licenses/GPL/2.0/" />
        <dc:title>State</dc:title>
        <dc:subject>
          <rdf:Bag />
        </dc:subject>
      </cc:Work>
      <cc:License
         rdf:about="http://creativecommons.org/licenses/GPL/2.0/">
        <cc:permits
           rdf:resource="http://web.resource.org/cc/Reproduction" />
        <cc:permits
           rdf:resource="http://web.resource.org/cc/Distribution" />
        <cc:requires
           rdf:resource="http://web.resource.org/cc/Notice" />
        <cc:permits
           rdf:resource="http://web.resource.org/cc/DerivativeWorks" />
        <cc:requires
           rdf:resource="http://web.resource.org/cc/ShareAlike" />
        <cc:requires
           rdf:resource="http://web.resource.org/cc/SourceCode" />
      </cc:License>
    </rdf:RDF>
  </metadata>
  <g
     id="layer1"
     inkscape:label="Layer 1"
     inkscape:groupmode="layer">
    <g
       id="layer6"
       inkscape:label="Shadow"
       transform="translate(-113.058,22.976772)" />
    <g
       style="display:inline"
       inkscape:label="Base"
       id="g6461"
       transform="translate(-113.058,22.976772)" />
    <g
       id="g2637"
       inkscape:label="base"
       style="display:inline"
       transform="translate(-125.32313,70.476762)" />
    <g
       transform="matrix(1.0200798,0,0,1.0228458,8.4315077,-11.258317)"
       id="g3367">
      <g
         id="g3369"
         transform="matrix(0.8618356,0,0,1.0825266,-1.6916377,-6.2249155)">
        <rect
           id="rect3371"
           style="opacity:0.3;fill:url(#linearGradient3383);fill-opacity:1;fill-rule:evenodd;stroke:none;stroke-width:1.02400005;stroke-linecap:butt;stroke-linejoin:miter;stroke-miterlimit:4;stroke-dasharray:none;stroke-dashoffset:0;stroke-opacity:1"
           y="41.809082"
           x="9.3215466"
           height="6.3234997"
           width="32.357079" />
        <path
           id="path3373"
           style="opacity:0.3;fill:url(#radialGradient3385);fill-opacity:1;fill-rule:evenodd;stroke:none;stroke-width:1.02400005;stroke-linecap:butt;stroke-linejoin:miter;stroke-miterlimit:4;stroke-dasharray:none;stroke-dashoffset:0;stroke-opacity:1"
           d="M 41.6785,41.799698 L 41.6785,48.126714 C 44.022298,48.102828 45.930248,46.705313 45.930248,44.974385 C 45.930248,43.243458 44.022299,41.823584 41.6785,41.799698 z" />
        <path
           id="path3375"
           style="opacity:0.3;fill:url(#radialGradient3387);fill-opacity:1;fill-rule:evenodd;stroke:none;stroke-width:1.02400005;stroke-linecap:butt;stroke-linejoin:miter;stroke-miterlimit:4;stroke-dasharray:none;stroke-dashoffset:0;stroke-opacity:1"
           d="M 9.3217476,41.799698 L 9.3217476,48.126714 C 6.9779494,48.102828 5.07,46.705313 5.07,44.974385 C 5.07,43.243458 6.9779484,41.823584 9.3217476,41.799698 z" />
      </g>
      <rect
         ry="1.9553289"
         rx="1.9606309"
         y="14.432069"
         x="4.0381169"
         height="28.530283"
         width="32.648808"
         id="rect3377"
         style="fill:url(#linearGradient3389);fill-opacity:1;stroke:#888a85;stroke-width:0.9789893;stroke-miterlimit:4;stroke-dasharray:none;stroke-opacity:1" />
      <path
         sodipodi:nodetypes="cccccc"
         id="path3379"
         d="M 4.038116,19.137541 L 4.038116,15.571364 C 4.038116,14.452112 4.9206221,13.551054 6.0168293,13.551054 L 34.708173,13.551054 C 35.80438,13.551054 36.686886,14.452112 36.686886,15.571364 L 36.686886,19.137541"
         style="fill:url(#linearGradient3391);fill-opacity:1;stroke:#204a87;stroke-width:0.97898954;stroke-miterlimit:4;stroke-opacity:1" />
      <rect
         ry="1.0019886"
         rx="1.04803"
         y="14.552532"
         x="5.0334024"
         height="27.421852"
         width="30.66016"
         id="rect3381"
         style="opacity:0.8;fill:none;fill-opacity:1;stroke:url(#linearGradient3393);stroke-width:0.97899014;stroke-miterlimit:4;stroke-dasharray:none;stroke-opacity:1" />
    </g>
    <path
       style="opacity:0.29999999999999999;fill:url(#linearGradient4241);fill-opacity:1;fill-rule:evenodd;stroke:none;stroke-width:1.02400004999999994;stroke-linecap:butt;stroke-linejoin:miter;stroke-miterlimit:4;stroke-dasharray:none;stroke-dashoffset:0;stroke-opacity:1"
       d="M 5.71875 43.25 L 5.71875 46.625 L 34.15625 46.625 L 34.15625 43.25 L 5.71875 43.25 z "
       id="rect2673" />
    <path
       style="opacity:0.29999999999999999;fill:url(#radialGradient4238);fill-opacity:1;fill-rule:evenodd;stroke:none;stroke-width:1.02400004999999994;stroke-linecap:butt;stroke-linejoin:miter;stroke-miterlimit:4;stroke-dasharray:none;stroke-dashoffset:0;stroke-opacity:1"
       d="M 36.4375 40.40625 L 36.4375 43.25 L 34.15625 43.25 L 34.15625 46.625 C 36.216778 46.598551 37.90625 45.041584 37.90625 43.125 C 37.90625 42.01449 37.312019 41.05181 36.4375 40.40625 z "
       id="path2675" />
    <path
       style="opacity:0.29999999999999999;fill:url(#radialGradient4235);fill-opacity:1;fill-rule:evenodd;stroke:none;stroke-width:1.02400004999999994;stroke-linecap:butt;stroke-linejoin:miter;stroke-miterlimit:4;stroke-dasharray:none;stroke-dashoffset:0;stroke-opacity:1"
       d="M 3.9375 40.0625 C 2.7687539 40.66323 1.96875 41.80482 1.96875 43.125 C 1.96875 45.041584 3.6582206 46.598551 5.71875 46.625 L 5.71875 43.25 L 3.9375 43.25 L 3.9375 40.0625 z "
       id="path2677" />
    <rect
       ry="2"
       rx="2"
       y="14.463619"
       x="3.3583236"
       height="29.182079"
       width="33.30439"
       id="rect2679"
       style="fill:url(#linearGradient4222);fill-opacity:1;stroke:#888a85;stroke-width:1.00000024;stroke-miterlimit:4;stroke-dasharray:none;stroke-opacity:1" />
    <path
       sodipodi:nodetypes="cccccc"
       id="path2681"
       d="M 3.3583227,19.276592 L 3.3583227,15.628943 C 3.3583227,14.484121 4.2585493,13.562477 5.3767681,13.562477 L 34.644228,13.562477 C 35.762447,13.562477 36.662673,14.484121 36.662673,15.628943 L 36.662673,19.276592"
       style="fill:url(#linearGradient4219);fill-opacity:1;stroke:#204a87;stroke-width:1.00000048;stroke-miterlimit:4;stroke-opacity:1" />
    <rect
       ry="1.0248799"
       rx="1.0690743"
       y="14.586835"
       x="4.3735943"
       height="28.048326"
       width="31.27581"
       id="rect2683"
       style="opacity:0.8;fill:none;fill-opacity:1;stroke:url(#linearGradient4216);stroke-width:1.00000107;stroke-miterlimit:4;stroke-dasharray:none;stroke-opacity:1" />
    <g
       id="g4207">
      <path
         transform="matrix(0.5829704,0,0,0.1701928,7.6418892,39.916313)"
         d="M 20,5.9999995 A 9.5,5.75 0 1 1 1,5.9999995 A 9.5,5.75 0 1 1 20,5.9999995 z"
         sodipodi:ry="5.75"
         sodipodi:rx="9.5"
         sodipodi:cy="5.9999995"
         sodipodi:cx="10.5"
         id="path29772"
         style="opacity:0.25899999;fill:url(#radialGradient2652);fill-opacity:1;fill-rule:evenodd;stroke:none;stroke-width:0.5;stroke-linecap:round;stroke-linejoin:round;stroke-miterlimit:4;stroke-dasharray:none;stroke-dashoffset:0;stroke-opacity:1"
         sodipodi:type="arc" />
      <path
         id="path2591"
         d="M 12.750935,30.630779 C 12.645068,30.630779 12.565275,30.71411 12.565275,30.816439 L 12.565275,32.323564 C 12.323773,32.390438 12.094523,32.493252 11.87724,32.607515 L 10.861569,31.64645 C 10.787333,31.57602 10.672326,31.580568 10.59946,31.657372 L 9.5510254,32.749491 C 9.4781605,32.826292 9.487711,32.952091 9.5619467,33.022521 L 10.50117,33.907137 C 10.349536,34.161659 10.224491,34.435184 10.14077,34.726227 L 8.6882518,34.726227 C 8.5859228,34.726227 8.502591,34.80602 8.502591,34.911888 L 8.502591,36.440856 C 8.502591,36.546723 8.5859228,36.626516 8.6882518,36.626516 L 10.129849,36.626516 C 10.20569,36.894732 10.322949,37.142247 10.457485,37.380078 L 9.4199711,38.461277 C 9.346393,38.537397 9.3463956,38.652267 9.4199711,38.723385 L 10.50117,39.77182 C 10.574745,39.842938 10.6897,39.837019 10.763278,39.760899 L 11.78987,38.712464 C 12.042694,38.85439 12.311589,38.974718 12.598039,39.051021 L 12.598039,40.514461 C 12.598039,40.616791 12.677831,40.700121 12.783699,40.700121 L 14.312667,40.700121 C 14.418534,40.700121 14.498327,40.616791 14.498327,40.514461 L 14.498327,39.029179 C 14.750344,38.953518 14.984169,38.839706 15.208205,38.712464 L 16.212955,39.706293 C 16.285635,39.778326 16.411459,39.781486 16.485984,39.706293 L 17.556261,38.625094 C 17.630786,38.549901 17.628942,38.43502 17.556261,38.362985 L 16.551512,37.358236 C 16.672716,37.135786 16.775136,36.896955 16.846383,36.648358 L 18.27706,36.648358 C 18.379389,36.648358 18.46272,36.568565 18.46272,36.462697 L 18.46272,34.933731 C 18.46272,34.827863 18.379389,34.74807 18.27706,34.74807 L 16.857305,34.74807 C 16.777424,34.461958 16.66422,34.191991 16.518748,33.939901 L 17.599947,32.956993 C 17.678339,32.885843 17.69056,32.770659 17.621788,32.694885 L 16.606117,31.570002 C 16.537345,31.494228 16.422402,31.498852 16.344008,31.570002 L 15.219126,32.585673 C 15.205557,32.597987 15.195667,32.614684 15.186362,32.629358 C 14.960716,32.503527 14.71848,32.396718 14.465563,32.323564 L 14.465563,30.816439 C 14.465563,30.71411 14.385771,30.630779 14.279903,30.630779 L 12.750935,30.630779 z M 13.493576,34.343986 C 14.347138,34.343986 14.913332,34.967892 14.913332,35.687293 C 14.913331,36.406694 14.347138,37.0306 13.493576,37.0306 C 12.640015,37.0306 12.073822,36.406694 12.073822,35.687293 C 12.073821,34.967893 12.640015,34.343986 13.493576,34.343986 z"
         style="fill:url(#radialGradient3823);fill-opacity:1;fill-rule:evenodd;stroke:#555753;stroke-width:1;stroke-linecap:butt;stroke-linejoin:miter;stroke-miterlimit:4;stroke-dasharray:none;stroke-dashoffset:0;stroke-opacity:1" />
      <path
         transform="matrix(0.3494783,0,0,0.3494783,-8.249457,29.824539)"
         d="M 61.375,4.125 L 61.375,7.15625 C 61.368241,7.9511174 60.826536,8.6556634 60.0625,8.875 C 60.052084,8.8751653 60.041666,8.8751653 60.03125,8.875 C 59.516984,9.0174058 58.989047,9.2724575 58.4375,9.5625 C 57.763973,9.9149338 56.932657,9.7978421 56.375,9.28125 C 56.364584,9.2814153 56.354166,9.2814153 56.34375,9.28125 L 54.375,7.40625 L 53.125,8.71875 L 54.90625,10.375 C 55.510088,10.938364 55.62195,11.841787 55.21875,12.5625 C 55.218915,12.572916 55.218915,12.583334 55.21875,12.59375 C 54.846064,13.219314 54.53002,13.88371 54.34375,14.53125 C 54.124414,15.295288 53.419867,15.836991 52.625,15.84375 L 49.75,15.84375 L 49.75,17.65625 L 52.59375,17.65625 C 53.388617,17.663009 54.093164,18.204712 54.3125,18.96875 C 54.472354,19.534086 54.745664,20.103406 55.09375,20.71875 C 55.104399,20.728932 55.114818,20.739351 55.125,20.75 C 55.510628,21.440006 55.391897,22.305482 54.84375,22.875 L 52.75,25.0625 L 53.96875,26.28125 L 56.03125,24.1875 C 56.594614,23.583662 57.498037,23.4718 58.21875,23.875 C 58.853708,24.231445 59.501691,24.521467 60.125,24.6875 C 60.135416,24.687335 60.145834,24.687335 60.15625,24.6875 C 60.920288,24.906836 61.461991,25.611383 61.46875,26.40625 L 61.46875,29.3125 L 63.28125,29.3125 L 63.28125,26.34375 C 63.278708,25.567164 63.793954,24.868904 64.53125,24.625 C 64.541666,24.624835 64.552084,24.624835 64.5625,24.625 C 65.094418,24.46531 65.643741,24.20158 66.21875,23.875 C 66.228932,23.864351 66.239351,23.853932 66.25,23.84375 C 66.940006,23.458122 67.805482,23.576853 68.375,24.125 C 68.375165,24.135416 68.375165,24.145834 68.375,24.15625 L 70.375,26.125 L 71.6875,24.84375 L 69.6875,22.84375 C 69.106282,22.263291 68.985797,21.361918 69.40625,20.65625 C 69.704659,20.108578 69.9349,19.58551 70.09375,19.03125 C 70.313086,18.267212 71.017633,17.725509 71.8125,17.71875 L 74.625,17.71875 L 74.625,15.90625 L 71.84375,15.90625 C 71.048883,15.899491 70.344336,15.357788 70.125,14.59375 C 70.124835,14.583334 70.124835,14.572916 70.125,14.5625 C 69.93964,13.898592 69.65863,13.28731 69.3125,12.6875 C 69.312335,12.677084 69.312335,12.666666 69.3125,12.65625 C 68.9093,11.935537 69.052412,11.032114 69.65625,10.46875 L 71.84375,8.46875 L 70.65625,7.15625 L 68.53125,9.0625 L 68.375,9.21875 L 68.34375,9.1875 C 67.79338,9.7842406 66.916221,10.02035 66.1875,9.625 C 65.629545,9.3138576 65.056107,9.0358478 64.5,8.875 C 63.735964,8.6556634 63.194259,7.9511174 63.1875,7.15625 L 63.1875,4.125 L 61.375,4.125 z M 62.21875,11.125 C 65.561313,11.125 68.09375,13.756328 68.09375,16.78125 C 68.093749,19.806172 65.561313,22.437499 62.21875,22.4375 C 58.876185,22.437501 56.34375,19.806173 56.34375,16.78125 C 56.343748,13.756328 58.876185,11.125 62.21875,11.125 z"
         id="path4180"
         style="fill:none;fill-opacity:1;fill-rule:evenodd;stroke:#dddddd;stroke-width:0.8584224;stroke-linecap:butt;stroke-linejoin:miter;stroke-miterlimit:4;stroke-dasharray:none;stroke-dashoffset:0;stroke-opacity:1"
         inkscape:original="M 60.375 3.125 L 60.375 7.15625 C 60.371912 7.5194123 60.130326 7.8372886 59.78125 7.9375 C 59.169905 8.1067881 58.559537 8.3768222 57.96875 8.6875 C 57.661279 8.8483892 57.285825 8.7983287 57.03125 8.5625 L 54.34375 6 L 51.71875 8.75 L 54.21875 11.09375 C 54.494859 11.351352 54.559366 11.764199 54.375 12.09375 C 53.971871 12.770414 53.623576 13.494497 53.40625 14.25 C 53.306039 14.599076 52.988162 14.840662 52.625 14.84375 L 48.75 14.84375 L 48.75 18.65625 L 52.59375 18.65625 C 52.956912 18.659338 53.274789 18.900924 53.375 19.25 C 53.567737 19.931631 53.884546 20.572703 54.25 21.21875 C 54.426168 21.533968 54.375412 21.927325 54.125 22.1875 L 51.34375 25.09375 L 54 27.6875 L 56.75 24.875 C 57.007602 24.598891 57.420449 24.534384 57.75 24.71875 C 58.429534 25.100218 59.139208 25.429005 59.875 25.625 C 60.224076 25.725211 60.465662 26.043088 60.46875 26.40625 L 60.46875 30.3125 L 64.28125 30.3125 L 64.28125 26.34375 C 64.280089 25.989098 64.507041 25.673886 64.84375 25.5625 C 65.481753 25.370962 66.108157 25.06554 66.71875 24.71875 C 67.033968 24.542582 67.427325 24.593338 67.6875 24.84375 L 70.375 27.5 L 73.0625 24.84375 L 70.375 22.15625 C 70.109267 21.890864 70.057769 21.478881 70.25 21.15625 C 70.571694 20.565843 70.8464 19.957479 71.03125 19.3125 C 71.131461 18.963424 71.449338 18.721838 71.8125 18.71875 L 75.625 18.71875 L 75.625 14.90625 L 71.84375 14.90625 C 71.480588 14.903162 71.162711 14.661576 71.0625 14.3125 C 70.851959 13.5584 70.53788 12.848827 70.15625 12.1875 C 69.971884 11.857949 70.036391 11.445102 70.3125 11.1875 L 73.21875 8.53125 L 70.71875 5.78125 L 67.71875 8.5 C 67.479528 8.8411617 67.022497 8.9486984 66.65625 8.75 C 66.056217 8.415393 65.434546 8.1264586 64.78125 7.9375 C 64.432174 7.8372886 64.190588 7.5194123 64.1875 7.15625 L 64.1875 3.125 L 60.375 3.125 z M 62.21875 12.125 C 65.060709 12.125 67.09375 14.292516 67.09375 16.78125 C 67.093749 19.269985 65.06071 21.437499 62.21875 21.4375 C 59.376789 21.437501 57.34375 19.269985 57.34375 16.78125 C 57.343748 14.292517 59.376789 12.125 62.21875 12.125 z "
         inkscape:radius="-0.98455721"
         sodipodi:type="inkscape:offset" />
      <path
         id="path2212"
         d="M 20.761638,21.069777 C 20.617425,21.103501 20.535277,21.242433 20.567874,21.381826 L 21.047974,23.434834 C 20.740302,23.602862 20.460769,23.815943 20.201185,24.040808 L 18.511485,23.055189 C 18.387926,22.982897 18.232712,23.025729 18.157919,23.153562 L 17.077639,24.97523 C 17.002848,25.103062 17.055931,25.271382 17.17949,25.343673 L 18.740698,26.249507 C 18.615221,26.644519 18.532017,27.056948 18.510685,27.480078 L 16.532063,27.942782 C 16.392669,27.97538 16.304574,28.110619 16.338298,28.254833 L 16.825355,30.337593 C 16.85908,30.481806 16.998012,30.563954 17.137406,30.531358 L 19.101151,30.072132 C 19.289903,30.413338 19.528481,30.713148 19.787507,30.994266 L 18.718625,32.797578 C 18.642645,32.924708 18.67924,33.081183 18.80212,33.154623 L 20.608911,34.238385 C 20.731792,34.311825 20.886499,34.267141 20.962477,34.140011 L 22.026921,32.384807 C 22.416529,32.497602 22.821149,32.575855 23.235657,32.588546 L 23.701841,34.582047 C 23.734438,34.72144 23.869677,34.809535 24.01389,34.775811 L 26.096652,34.288754 C 26.240864,34.255028 26.323013,34.116096 26.290416,33.976703 L 25.817273,31.953449 C 26.13647,31.770105 26.418732,31.540582 26.68338,31.295886 L 28.368639,32.329615 C 28.49059,32.404586 28.662996,32.368809 28.740561,32.24264 L 29.854074,30.42889 C 29.931638,30.302722 29.892531,30.146818 29.770579,30.071846 L 28.081841,29.02324 C 28.176084,28.681609 28.23952,28.323647 28.257382,27.962312 L 30.206251,27.506564 C 30.345644,27.473967 30.43374,27.338729 30.400016,27.194515 L 29.912957,25.111755 C 29.879233,24.967542 29.740301,24.885393 29.600908,24.91799 L 27.666916,25.370258 C 27.46696,25.005962 27.226755,24.674274 26.948288,24.377218 L 28.10799,22.693881 C 28.192112,22.571988 28.172067,22.41119 28.054248,22.329878 L 26.312364,21.121107 C 26.194544,21.039795 26.039442,21.082708 25.955319,21.204602 L 24.746548,22.946485 C 24.731988,22.967583 24.723834,22.993477 24.715833,23.01643 C 24.368374,22.916904 24.004376,22.848573 23.636547,22.829491 L 23.156448,20.776483 C 23.123851,20.63709 22.988612,20.548994 22.844399,20.582719 L 20.761638,21.069777 z M 22.956119,25.891341 C 24.118841,25.619436 25.088859,26.288958 25.318027,27.268927 C 25.547193,28.248897 24.974671,29.279144 23.811949,29.551049 C 22.649225,29.822954 21.679208,29.153432 21.450041,28.173462 C 21.220873,27.193495 21.793396,26.163245 22.956119,25.891341 z"
         style="fill:url(#radialGradient3819);fill-opacity:1;fill-rule:evenodd;stroke:#555753;stroke-width:1;stroke-linecap:butt;stroke-linejoin:miter;stroke-miterlimit:4;stroke-dasharray:none;stroke-dashoffset:0;stroke-opacity:1" />
      <path
         transform="matrix(0.4760597,-0.1113274,0.1113274,0.4760597,-8.1019551,26.66126)"
         d="M 61.09375,3.84375 L 61.09375,7.15625 C 61.087936,7.8400024 60.625981,8.4363246 59.96875,8.625 C 59.968973,8.6354155 59.968973,8.6458345 59.96875,8.65625 C 59.429497,8.805575 58.874147,9.0483963 58.3125,9.34375 C 57.733191,9.6468828 57.010898,9.5380774 56.53125,9.09375 L 54.375,7.03125 L 52.75,8.71875 L 54.71875,10.5625 C 55.238235,11.047165 55.346875,11.817466 55,12.4375 C 55.000223,12.447915 55.000223,12.458335 55,12.46875 C 54.619479,13.107466 54.288013,13.762172 54.09375,14.4375 C 53.905075,15.094733 53.308752,15.556686 52.625,15.5625 L 49.46875,15.5625 L 49.46875,17.9375 L 52.59375,17.9375 C 53.277502,17.943314 53.873825,18.405267 54.0625,19.0625 C 54.072915,19.062277 54.083335,19.062277 54.09375,19.0625 C 54.262067,19.657769 54.522444,20.220504 54.875,20.84375 C 54.875223,20.854165 54.875223,20.864585 54.875,20.875 C 55.206716,21.468541 55.127764,22.197602 54.65625,22.6875 L 52.375,25.0625 L 54,26.65625 L 56.21875,24.375 C 56.703415,23.855515 57.473716,23.746875 58.09375,24.09375 C 58.740182,24.456635 59.410239,24.732506 60.0625,24.90625 C 60.062723,24.916665 60.062723,24.927085 60.0625,24.9375 C 60.719733,25.126175 61.181686,25.722498 61.1875,26.40625 L 61.1875,29.59375 L 63.5625,29.59375 L 63.5625,26.34375 C 63.560313,25.675764 63.990809,25.084795 64.625,24.875 C 65.184223,24.707113 65.759582,24.425532 66.34375,24.09375 C 66.354165,24.093527 66.364585,24.093527 66.375,24.09375 C 66.968541,23.762034 67.697602,23.840986 68.1875,24.3125 L 70.375,26.46875 L 72,24.84375 L 69.84375,22.6875 C 69.343734,22.188137 69.263288,21.388329 69.625,20.78125 C 69.929402,20.222579 70.178208,19.70261 70.34375,19.125 C 70.532425,18.467767 71.128748,18.005814 71.8125,18 L 74.90625,18 L 74.90625,15.625 L 71.84375,15.625 C 71.159998,15.619186 70.563675,15.157233 70.375,14.5 C 70.364585,14.500223 70.354165,14.500223 70.34375,14.5 C 70.151909,13.812878 69.886517,13.178143 69.53125,12.5625 C 69.531027,12.552085 69.531027,12.541665 69.53125,12.53125 C 69.184375,11.911216 69.293015,11.140915 69.8125,10.65625 L 72.1875,8.46875 L 70.65625,6.8125 L 68.21875,9.03125 L 68.1875,9 C 67.717233,9.5370417 66.951281,9.752805 66.3125,9.40625 C 66.312277,9.3958345 66.312277,9.3854155 66.3125,9.375 C 65.743715,9.0578182 65.143622,8.7930831 64.5625,8.625 C 63.905269,8.4363246 63.474564,7.8400024 63.46875,7.15625 L 63.46875,3.84375 L 61.09375,3.84375 z M 62.21875,11.40625 C 65.432464,11.40625 67.8125,13.894335 67.8125,16.78125 C 67.812499,19.668165 65.432465,22.156249 62.21875,22.15625 C 59.005034,22.156251 56.625,19.668165 56.625,16.78125 C 56.624998,13.894336 59.005034,11.40625 62.21875,11.40625 z"
         id="path3195"
         style="fill:none;fill-opacity:1;fill-rule:evenodd;stroke:#dddddd;stroke-width:1.02269673;stroke-linecap:butt;stroke-linejoin:miter;stroke-miterlimit:4;stroke-dasharray:none;stroke-dashoffset:0;stroke-opacity:1"
         inkscape:original="M 60.375 3.125 L 60.375 7.15625 C 60.371912 7.5194123 60.130326 7.8372886 59.78125 7.9375 C 59.169905 8.1067881 58.559537 8.3768222 57.96875 8.6875 C 57.661279 8.8483892 57.285825 8.7983287 57.03125 8.5625 L 54.34375 6 L 51.71875 8.75 L 54.21875 11.09375 C 54.494859 11.351352 54.559366 11.764199 54.375 12.09375 C 53.971871 12.770414 53.623576 13.494497 53.40625 14.25 C 53.306039 14.599076 52.988162 14.840662 52.625 14.84375 L 48.75 14.84375 L 48.75 18.65625 L 52.59375 18.65625 C 52.956912 18.659338 53.274789 18.900924 53.375 19.25 C 53.567737 19.931631 53.884546 20.572703 54.25 21.21875 C 54.426168 21.533968 54.375412 21.927325 54.125 22.1875 L 51.34375 25.09375 L 54 27.6875 L 56.75 24.875 C 57.007602 24.598891 57.420449 24.534384 57.75 24.71875 C 58.429534 25.100218 59.139208 25.429005 59.875 25.625 C 60.224076 25.725211 60.465662 26.043088 60.46875 26.40625 L 60.46875 30.3125 L 64.28125 30.3125 L 64.28125 26.34375 C 64.280089 25.989098 64.507041 25.673886 64.84375 25.5625 C 65.481753 25.370962 66.108157 25.06554 66.71875 24.71875 C 67.033968 24.542582 67.427325 24.593338 67.6875 24.84375 L 70.375 27.5 L 73.0625 24.84375 L 70.375 22.15625 C 70.109267 21.890864 70.057769 21.478881 70.25 21.15625 C 70.571694 20.565843 70.8464 19.957479 71.03125 19.3125 C 71.131461 18.963424 71.449338 18.721838 71.8125 18.71875 L 75.625 18.71875 L 75.625 14.90625 L 71.84375 14.90625 C 71.480588 14.903162 71.162711 14.661576 71.0625 14.3125 C 70.851959 13.5584 70.53788 12.848827 70.15625 12.1875 C 69.971884 11.857949 70.036391 11.445102 70.3125 11.1875 L 73.21875 8.53125 L 70.71875 5.78125 L 67.71875 8.5 C 67.479528 8.8411617 67.022497 8.9486984 66.65625 8.75 C 66.056217 8.415393 65.434546 8.1264586 64.78125 7.9375 C 64.432174 7.8372886 64.190588 7.5194123 64.1875 7.15625 L 64.1875 3.125 L 60.375 3.125 z M 62.21875 12.125 C 65.060709 12.125 67.09375 14.292516 67.09375 16.78125 C 67.093749 19.269985 65.06071 21.437499 62.21875 21.4375 C 59.376789 21.437501 57.34375 19.269985 57.34375 16.78125 C 57.343748 14.292517 59.376789 12.125 62.21875 12.125 z "
         inkscape:radius="-0.7311455"
         sodipodi:type="inkscape:offset" />
      <path
         transform="matrix(0.7897135,0,0,0.1701928,14.528316,39.794516)"
         d="M 20,5.9999995 A 9.5,5.75 0 1 1 1,5.9999995 A 9.5,5.75 0 1 1 20,5.9999995 z"
         sodipodi:ry="5.75"
         sodipodi:rx="9.5"
         sodipodi:cy="5.9999995"
         sodipodi:cx="10.5"
         id="path4186"
         style="opacity:0.25899999;fill:url(#radialGradient2658);fill-opacity:1;fill-rule:evenodd;stroke:none;stroke-width:0.5;stroke-linecap:round;stroke-linejoin:round;stroke-miterlimit:4;stroke-dasharray:none;stroke-dashoffset:0;stroke-opacity:1"
         sodipodi:type="arc" />
    </g>
  </g>
</svg>
