<?xml version="1.0" encoding="UTF-8" standalone="no"?>
<!-- Created with Inkscape (http://www.inkscape.org/) -->
<svg
   xmlns:dc="http://purl.org/dc/elements/1.1/"
   xmlns:cc="http://web.resource.org/cc/"
   xmlns:rdf="http://www.w3.org/1999/02/22-rdf-syntax-ns#"
   xmlns:svg="http://www.w3.org/2000/svg"
   xmlns="http://www.w3.org/2000/svg"
   xmlns:xlink="http://www.w3.org/1999/xlink"
   xmlns:sodipodi="http://sodipodi.sourceforge.net/DTD/sodipodi-0.dtd"
   xmlns:inkscape="http://www.inkscape.org/namespaces/inkscape"
   inkscape:export-ydpi="90.000000"
   inkscape:export-xdpi="90.000000"
   inkscape:export-filename="/home/jimmac/Desktop/wi-fi.png"
   width="48px"
   height="48px"
   id="svg11300"
   sodipodi:version="0.32"
   inkscape:version="0.45"
   sodipodi:docbase="/home/andrew/Desktop"
   sodipodi:docname="fish in cube.svg"
   inkscape:output_extension="org.inkscape.output.svg.inkscape"
   sodipodi:modified="true">
  <defs
     id="defs3">
    <linearGradient
       id="linearGradient3153">
      <stop
         style="stop-color:#f9f9f8;stop-opacity:0.39215687;"
         offset="0"
         id="stop3155" />
      <stop
         style="stop-color:#cdcfca;stop-opacity:0.39215687;"
         offset="1"
         id="stop3157" />
    </linearGradient>
    <linearGradient
       inkscape:collect="always"
       id="linearGradient6482">
      <stop
         style="stop-color:#000000;stop-opacity:1;"
         offset="0"
         id="stop6484" />
      <stop
         style="stop-color:#000000;stop-opacity:0;"
         offset="1"
         id="stop6486" />
    </linearGradient>
    <radialGradient
       inkscape:collect="always"
       xlink:href="#linearGradient6482"
       id="radialGradient6488"
       cx="13.030141"
       cy="-7.0069871"
       fx="13.030141"
       fy="-7.0069871"
       r="18.143234"
       gradientTransform="matrix(1,0,0,0.3954545,0,-4.2360423)"
       gradientUnits="userSpaceOnUse" />
    <linearGradient
       id="linearGradient2338">
      <stop
         id="stop2340"
         offset="0"
         style="stop-color:#3465a4;stop-opacity:1" />
      <stop
         id="stop2342"
         offset="1"
         style="stop-color:#3465a4;stop-opacity:0" />
    </linearGradient>
    <linearGradient
       inkscape:collect="always"
       xlink:href="#linearGradient2338"
       id="linearGradient12425"
       x1="23.1875"
       y1="33.6875"
       x2="23.1875"
       y2="19.278358"
       gradientUnits="userSpaceOnUse"
       gradientTransform="matrix(1.104289,0,0,-1.1039868,53.873154,60.557189)" />
    <radialGradient
       inkscape:collect="always"
       xlink:href="#linearGradient3153"
       id="radialGradient3159"
       cx="8.0419788"
       cy="13.534249"
       fx="8.0419788"
       fy="13.534249"
       r="19.677486"
       gradientTransform="matrix(0.2937957,2.0588105,-1.9537201,0.2786465,31.208262,-7.9555659)"
       gradientUnits="userSpaceOnUse" />
    <linearGradient
       id="linearGradient8121">
      <stop
         id="stop8123"
         offset="0"
         style="stop-color:#c2f491;stop-opacity:1;" />
      <stop
         id="stop8125"
         offset="1"
         style="stop-color:#73d216;stop-opacity:1;" />
    </linearGradient>
    <linearGradient
       id="linearGradient8132">
      <stop
         id="stop8134"
         offset="0"
         style="stop-color:#ff6666;stop-opacity:1;" />
      <stop
         id="stop8136"
         offset="1"
         style="stop-color:#cc0000;stop-opacity:1;" />
    </linearGradient>
    <linearGradient
       id="linearGradient8140">
      <stop
         id="stop8142"
         offset="0"
         style="stop-color:#95b5de;stop-opacity:1;" />
      <stop
         id="stop8144"
         offset="1"
         style="stop-color:#3465a4;stop-opacity:1;" />
    </linearGradient>
    <radialGradient
       r="4.3571429"
       fy="-5.4285712"
       fx="-22.285715"
       cy="-5.4285712"
       cx="-22.285715"
       gradientTransform="matrix(0.9672135,0.8360656,-0.6539535,0.7565347,-4.2807053,17.310651)"
       gradientUnits="userSpaceOnUse"
       id="radialGradient4769"
       xlink:href="#linearGradient3657"
       inkscape:collect="always" />
    <radialGradient
       r="4.3571429"
       fy="-5.4285712"
       fx="-22.285715"
       cy="-5.4285712"
       cx="-22.285715"
       gradientTransform="matrix(0.9672135,0.8360656,-0.6539535,0.7565347,-4.2807053,17.310651)"
       gradientUnits="userSpaceOnUse"
       id="radialGradient4767"
       xlink:href="#linearGradient3657"
       inkscape:collect="always" />
    <linearGradient
       gradientUnits="userSpaceOnUse"
       y2="15.719898"
       x2="-57.929455"
       y1="13.032076"
       x1="-52.960548"
       id="linearGradient4761"
       xlink:href="#linearGradient4755"
       inkscape:collect="always" />
    <linearGradient
       gradientTransform="translate(-20.285714,-6.9598214)"
       gradientUnits="userSpaceOnUse"
       y2="39.428574"
       x2="38.857143"
       y1="12"
       x1="32.85714"
       id="linearGradient4747"
       xlink:href="#linearGradient4741"
       inkscape:collect="always" />
    <radialGradient
       gradientUnits="userSpaceOnUse"
       gradientTransform="matrix(1,0,0,0.7841509,0,5.1904953)"
       r="20.703125"
       fy="24.046875"
       fx="23.359375"
       cy="24.046875"
       cx="23.359375"
       id="radialGradient4739"
       xlink:href="#linearGradient4731"
       inkscape:collect="always" />
    <radialGradient
       r="4.3571429"
       fy="-5.4285712"
       fx="-22.285715"
       cy="-5.4285712"
       cx="-22.285715"
       gradientTransform="matrix(0.9672135,0.8360656,-0.6539535,0.7565347,-4.2807053,17.310651)"
       gradientUnits="userSpaceOnUse"
       id="radialGradient4695"
       xlink:href="#linearGradient3657"
       inkscape:collect="always" />
    <radialGradient
       gradientTransform="matrix(0.9672135,0.8360656,-0.6539535,0.7565347,-4.2807053,17.310651)"
       gradientUnits="userSpaceOnUse"
       r="4.3571429"
       fy="-5.4285712"
       fx="-22.285715"
       cy="-5.4285712"
       cx="-22.285715"
       id="radialGradient3663"
       xlink:href="#linearGradient3657"
       inkscape:collect="always" />
    <linearGradient
       id="linearGradient3657"
       inkscape:collect="always">
      <stop
         id="stop3659"
         offset="0"
         style="stop-color:#eeeeec;stop-opacity:1;" />
      <stop
         id="stop3661"
         offset="1"
         style="stop-color:#d3d7cf;stop-opacity:1" />
    </linearGradient>
    <linearGradient
       id="linearGradient4731"
       inkscape:collect="always">
      <stop
         id="stop4733"
         offset="0"
         style="stop-color:#204a87;stop-opacity:1" />
      <stop
         id="stop4735"
         offset="1"
         style="stop-color:#729fcf;stop-opacity:1" />
    </linearGradient>
    <linearGradient
       id="linearGradient4741"
       inkscape:collect="always">
      <stop
         id="stop4743"
         offset="0"
         style="stop-color:#eeeeec;stop-opacity:1;" />
      <stop
         id="stop4745"
         offset="1"
         style="stop-color:#eeeeec;stop-opacity:0;" />
    </linearGradient>
    <linearGradient
       id="linearGradient4755"
       inkscape:collect="always">
      <stop
         id="stop4757"
         offset="0"
         style="stop-color:#204a87;stop-opacity:1;" />
      <stop
         id="stop4759"
         offset="1"
         style="stop-color:#204a87;stop-opacity:0;" />
    </linearGradient>
    <linearGradient
       inkscape:collect="always"
       xlink:href="#linearGradient4741"
       id="linearGradient2807"
       gradientUnits="userSpaceOnUse"
       gradientTransform="matrix(0.6958614,0,0,0.6958614,-7.0257258,2.8262339)"
       x1="32.85714"
       y1="12"
       x2="38.857143"
       y2="39.428574" />
    <radialGradient
       inkscape:collect="always"
       xlink:href="#linearGradient4731"
       id="radialGradient2810"
       gradientUnits="userSpaceOnUse"
       gradientTransform="matrix(0.6958614,0,0,0.5456603,7.0903195,11.28117)"
       cx="23.359375"
       cy="24.046875"
       fx="23.359375"
       fy="24.046875"
       r="20.703125" />
    <radialGradient
       inkscape:collect="always"
       xlink:href="#linearGradient3657"
       id="radialGradient2812"
       gradientUnits="userSpaceOnUse"
       gradientTransform="matrix(0.9672135,0.8360656,-0.6539535,0.7565347,-4.2807053,17.310651)"
       cx="-22.285715"
       cy="-5.4285712"
       fx="-22.285715"
       fy="-5.4285712"
       r="4.3571429" />
    <radialGradient
       inkscape:collect="always"
       xlink:href="#linearGradient3657"
       id="radialGradient2814"
       gradientUnits="userSpaceOnUse"
       gradientTransform="matrix(0.9672135,0.8360656,-0.6539535,0.7565347,-4.2807053,17.310651)"
       cx="-22.285715"
       cy="-5.4285712"
       fx="-22.285715"
       fy="-5.4285712"
       r="4.3571429" />
    <radialGradient
       inkscape:collect="always"
       xlink:href="#linearGradient3657"
       id="radialGradient2816"
       gradientUnits="userSpaceOnUse"
       gradientTransform="matrix(0.9672135,0.8360656,-0.6539535,0.7565347,-4.2807053,17.310651)"
       cx="-22.285715"
       cy="-5.4285712"
       fx="-22.285715"
       fy="-5.4285712"
       r="4.3571429" />
    <radialGradient
       inkscape:collect="always"
       xlink:href="#linearGradient3657"
       id="radialGradient2818"
       gradientUnits="userSpaceOnUse"
       gradientTransform="matrix(0.9672135,0.8360656,-0.6539535,0.7565347,-4.2807053,17.310651)"
       cx="-22.285715"
       cy="-5.4285712"
       fx="-22.285715"
       fy="-5.4285712"
       r="4.3571429" />
  </defs>
  <sodipodi:namedview
     stroke="#ef2929"
     fill="#eeeeec"
     id="base"
     pagecolor="#ffffff"
     bordercolor="#666666"
     borderopacity="0.25490196"
     inkscape:pageopacity="0.0"
     inkscape:pageshadow="2"
     inkscape:zoom="7.9999999"
     inkscape:cx="40.066008"
     inkscape:cy="16.221136"
     inkscape:current-layer="layer1"
     showgrid="false"
     inkscape:grid-bbox="true"
     inkscape:document-units="px"
     inkscape:showpageshadow="false"
     inkscape:window-width="1440"
     inkscape:window-height="821"
     inkscape:window-x="0"
     inkscape:window-y="27"
     showguides="true"
     inkscape:guide-bbox="true" />
  <metadata
     id="metadata4">
    <rdf:RDF>
      <cc:Work
         rdf:about="">
        <dc:format>image/svg+xml</dc:format>
        <dc:type
           rdf:resource="http://purl.org/dc/dcmitype/StillImage" />
        <dc:creator>
          <cc:Agent>
            <dc:title>Patrick Niklaus</dc:title>
          </cc:Agent>
        </dc:creator>
        <dc:source />
        <cc:license
           rdf:resource="http://creativecommons.org/licenses/GPL/2.0/" />
        <dc:title>Cube</dc:title>
        <dc:subject>
          <rdf:Bag />
        </dc:subject>
      </cc:Work>
      <cc:License
         rdf:about="http://creativecommons.org/licenses/GPL/2.0/">
        <cc:permits
           rdf:resource="http://web.resource.org/cc/Reproduction" />
        <cc:permits
           rdf:resource="http://web.resource.org/cc/Distribution" />
        <cc:requires
           rdf:resource="http://web.resource.org/cc/Notice" />
        <cc:permits
           rdf:resource="http://web.resource.org/cc/DerivativeWorks" />
        <cc:requires
           rdf:resource="http://web.resource.org/cc/ShareAlike" />
        <cc:requires
           rdf:resource="http://web.resource.org/cc/SourceCode" />
      </cc:License>
    </rdf:RDF>
  </metadata>
  <g
     id="layer1"
     inkscape:label="Layer 1"
     inkscape:groupmode="layer">
    <path
       style="fill:url(#radialGradient2810);fill-opacity:1;stroke:#204a87;stroke-width:0.6958614;stroke-miterlimit:4;stroke-dasharray:none;stroke-opacity:1"
       d="M 24.00845,13.453653 C 22.259467,16.208761 20.521508,20.08376 16.723651,20.086082 C 16.663668,20.328597 16.679535,20.536196 16.745396,20.738452 C 12.397735,21.46364 9.286632,23.371243 9.286632,25.631227 C 9.286632,27.964632 12.593371,29.943735 17.158564,30.610986 C 17.141371,30.852268 17.180734,31.109837 17.332529,31.350338 C 20.937665,30.155885 23.828988,33.287854 26.356982,35.351541 C 25.14168,33.88708 24.184309,32.291439 23.20386,30.697968 C 23.977088,30.611175 24.719791,30.484802 25.421918,30.328292 C 25.527272,30.779317 25.84679,31.165598 26.443965,31.285101 C 28.103797,31.737419 29.737527,32.107172 31.314994,32.720315 C 29.919034,31.889736 28.083571,31.025177 27.357283,29.78465 C 29.41081,29.0618 30.919709,28.02393 31.532451,26.827239 C 32.003371,29.54198 33.492884,32.054516 35.946822,33.481414 C 36.017098,31.427231 33.79955,28.519758 35.664128,25.196314 C 33.327151,22.082688 35.868878,19.629765 37.403782,16.084879 C 35.504464,15.91368 34.149447,17.459016 33.228613,18.911816 C 32.126359,20.45605 31.543998,22.321034 31.423723,24.217759 C 30.53599,22.760759 28.306933,21.553174 25.400173,20.912417 C 25.415262,20.854254 25.434165,20.800158 25.443664,20.738452 C 26.017599,18.40736 26.456261,16.119498 27.335537,13.866821 C 25.952081,16.046128 24.580225,18.910817 22.181814,20.020845 C 22.721018,17.794508 23.167441,15.60829 24.00845,13.453653 z "
       id="path2684"
       sodipodi:nodetypes="cccsccccccccccccccccccc" />
    <path
       style="fill:url(#linearGradient2807);fill-opacity:1;stroke:#4e9a06;stroke-width:0.6958614;stroke-miterlimit:4;stroke-dasharray:none;stroke-opacity:0"
       d="M 23.261331,14.777032 C 21.512348,17.53214 20.370842,20.611869 16.572985,20.614191 C 16.513002,20.856707 16.528869,21.064305 16.594731,21.266561 C 12.247068,21.99175 9.1359653,23.899352 9.135966,26.159337 C 18.575485,24.106939 20.720945,23.178087 35.513462,25.724423 C 33.176481,22.610798 35.519395,20.356692 37.054299,16.811806 C 35.15498,16.640607 33.799964,18.185943 32.87913,19.638742 C 31.776872,21.182977 31.790965,23.843231 31.670692,25.739956 C 30.782954,24.282956 28.156266,22.081283 25.249507,21.440527 C 25.264593,21.382364 25.2835,21.328268 25.292998,21.266561 C 25.866931,18.935469 26.305595,16.647607 27.184871,14.39493 C 25.801415,16.574237 24.429559,19.438927 22.031148,20.548954 C 22.570352,18.322617 22.420323,16.93167 23.261331,14.777032 z "
       id="path4719"
       sodipodi:nodetypes="ccccccccccccc" />
    <path
       style="opacity:0.46640009;fill:#eeeeec;fill-opacity:0;stroke:#eeeeec;stroke-width:0.6958614;stroke-miterlimit:4;stroke-dasharray:none;stroke-opacity:1"
       d="M 23.012563,15.665428 C 21.330312,18.126757 20.642763,20.674756 16.989814,20.67683 C 16.93212,20.893486 16.947381,21.078948 17.01073,21.259637 C 12.828955,21.907498 9.8365575,23.611691 9.8365575,25.630691 C 9.8365575,27.715282 13.017126,29.483351 17.408133,30.079453 C 17.391596,30.295006 17.429457,30.525111 17.575461,30.739967 C 20.972749,30.235221 21.574681,30.994738 24.006219,32.838372 C 22.837287,31.530069 23.322297,31.721303 22.379258,30.297746 C 23.122983,30.220207 24.680859,29.966724 25.356197,29.826903 C 25.45753,30.229834 25.764858,30.574925 26.339247,30.681686 C 27.935747,31.085772 27.328071,30.924051 28.845349,31.471814 C 27.502652,30.7298 27.353952,30.519771 26.655376,29.411522 C 28.630549,28.765751 31.206558,26.50299 31.795921,25.433903 C 32.248873,27.859169 33.119212,31.369058 35.479519,32.643804 C 35.547114,30.80866 33.414177,28.211214 35.207612,25.242153 C 32.959802,22.460536 35.193672,19.988 36.67001,16.821109 C 35.124332,17.441385 34.242772,18.329891 33.357073,19.627777 C 32.296876,21.007349 31.736735,23.376394 31.621049,25.070868 C 30.767187,23.769231 28.131132,21.987485 25.335281,21.415053 C 25.068624,21.433384 24.875928,21.525642 25.236528,21.259637 C 24.87476,20.934427 25.648148,17.76584 26.493874,15.753369 C 25.163205,17.700293 24.124863,19.978348 21.817964,20.970012 C 21.844546,19.543413 22.203643,17.590314 23.012563,15.665428 z "
       id="path4749"
       sodipodi:nodetypes="cccsccccccccccccccccccc" />
    <path
       sodipodi:type="arc"
       style="fill:url(#radialGradient2818);fill-opacity:1;stroke:#888a85;stroke-width:0.88917762;stroke-miterlimit:4;stroke-dasharray:none;stroke-opacity:1"
       id="path4693"
       sodipodi:cx="-22.428572"
       sodipodi:cy="-6.1428571"
       sodipodi:rx="3.8571429"
       sodipodi:ry="3.8571429"
       d="M -18.571429 -6.1428571 A 3.8571429 3.8571429 0 1 1  -26.285715,-6.1428571 A 3.8571429 3.8571429 0 1 1  -18.571429 -6.1428571 z"
       transform="matrix(0.6722004,0,0,0.6722004,27.101805,27.022333)" />
    <path
       sodipodi:type="arc"
       style="fill:url(#radialGradient2816);fill-opacity:1;stroke:#eeeeec;stroke-width:0.88917762;stroke-miterlimit:4;stroke-dasharray:none;stroke-opacity:1"
       id="path4763"
       sodipodi:cx="-22.428572"
       sodipodi:cy="-6.1428571"
       sodipodi:rx="3.8571429"
       sodipodi:ry="3.8571429"
       d="M -18.571429 -6.1428571 A 3.8571429 3.8571429 0 1 1  -26.285715,-6.1428571 A 3.8571429 3.8571429 0 1 1  -18.571429 -6.1428571 z"
       transform="matrix(0.5518357,0,0,0.5102382,24.649412,25.929073)" />
    <path
       sodipodi:type="arc"
       style="fill:#2e3436;fill-opacity:1;stroke:#2e3436;stroke-width:1.24373126;stroke-miterlimit:4;stroke-dasharray:none;stroke-opacity:1"
       id="path4699"
       sodipodi:cx="-54"
       sodipodi:cy="13.714286"
       sodipodi:rx="3.1428571"
       sodipodi:ry="1.1428572"
       d="M -50.857143 13.714286 A 3.1428571 1.1428572 0 1 1  -57.142857,13.714286 A 3.1428571 1.1428572 0 1 1  -50.857143 13.714286 z"
       transform="matrix(0.305477,0,0,0.7560367,27.752839,12.524599)" />
    <path
       sodipodi:type="arc"
       style="fill:url(#radialGradient2814);fill-opacity:1;stroke:#888a85;stroke-width:0.88917762;stroke-miterlimit:4;stroke-dasharray:none;stroke-opacity:1"
       id="path3655"
       sodipodi:cx="-22.428572"
       sodipodi:cy="-6.1428571"
       sodipodi:rx="3.8571429"
       sodipodi:ry="3.8571429"
       d="M -18.571429 -6.1428571 A 3.8571429 3.8571429 0 1 1  -26.285715,-6.1428571 A 3.8571429 3.8571429 0 1 1  -18.571429 -6.1428571 z"
       transform="matrix(0.6722004,0,0,0.6722004,29.83862,27.328434)" />
    <path
       sodipodi:type="arc"
       style="fill:url(#radialGradient2812);fill-opacity:1;stroke:#eeeeec;stroke-width:0.88917762;stroke-miterlimit:4;stroke-dasharray:none;stroke-opacity:1"
       id="path4765"
       sodipodi:cx="-22.428572"
       sodipodi:cy="-6.1428571"
       sodipodi:rx="3.8571429"
       sodipodi:ry="3.8571429"
       d="M -18.571429 -6.1428571 A 3.8571429 3.8571429 0 1 1  -26.285715,-6.1428571 A 3.8571429 3.8571429 0 1 1  -18.571429 -6.1428571 z"
       transform="matrix(0.5518357,0,0,0.5102382,26.896171,26.161421)" />
    <path
       sodipodi:type="arc"
       style="fill:#2e3436;fill-opacity:1;stroke:#2e3436;stroke-width:1.24373126;stroke-miterlimit:4;stroke-dasharray:none;stroke-opacity:1"
       id="path4697"
       sodipodi:cx="-54"
       sodipodi:cy="13.714286"
       sodipodi:rx="3.1428571"
       sodipodi:ry="1.1428572"
       d="M -50.857143 13.714286 A 3.1428571 1.1428572 0 1 1  -57.142857,13.714286 A 3.1428571 1.1428572 0 1 1  -50.857143 13.714286 z"
       transform="matrix(0.305477,0,0,0.7560367,31.113841,12.908713)" />
    <path
       style="fill:#3465a4;fill-opacity:1;stroke:#204a87;stroke-width:0.6958614;stroke-miterlimit:4;stroke-dasharray:none;stroke-opacity:1"
       d="M 29.076361,28.384432 C 26.742943,27.406835 23.910617,25.717772 21.493663,27.399195 C 20.129702,26.203161 23.407107,23.365987 24.822645,24.851849 C 26.220691,26.080401 27.518825,27.341062 29.076361,28.384432 z "
       id="path4683" />
    <path
       style="opacity:0.34959992;fill:#3465a4;fill-opacity:1;stroke:#eeeeec;stroke-width:0.6958614;stroke-miterlimit:4;stroke-dasharray:none;stroke-opacity:1"
       d="M 26.322474,26.903553 C 24.937297,26.339307 23.255956,25.36442 21.821189,26.334897 C 21.011507,25.644574 22.957058,24.007027 23.797358,24.86463 C 24.627273,25.573721 25.397879,26.301345 26.322474,26.903553 z "
       id="path4753" />
    <path
       sodipodi:type="arc"
       style="fill:#2e3436;fill-opacity:1;stroke:url(#linearGradient4761);stroke-width:1.21237803;stroke-miterlimit:4;stroke-dasharray:none;stroke-opacity:1"
       id="path4691"
       sodipodi:cx="-54"
       sodipodi:cy="13.714286"
       sodipodi:rx="3.1428571"
       sodipodi:ry="1.1428572"
       d="M -50.857143 13.714286 A 3.1428571 1.1428572 0 1 1  -57.142857,13.714286 A 3.1428571 1.1428572 0 1 1  -50.857143 13.714286 z"
       transform="matrix(0.3648401,0,0,0.9029566,31.322586,15.389557)" />
    <path
       sodipodi:type="arc"
       style="opacity:0.3;fill:url(#radialGradient6488);fill-opacity:1;fill-rule:evenodd;stroke:none;stroke-width:1;stroke-linecap:round;stroke-linejoin:round;stroke-miterlimit:4;stroke-dasharray:none;stroke-dashoffset:0;stroke-opacity:1"
       id="path5511"
       sodipodi:cx="13.030141"
       sodipodi:cy="-7.0069871"
       sodipodi:rx="18.143234"
       sodipodi:ry="7.1748242"
       d="M 31.173375 -7.0069871 A 18.143234 7.1748242 0 1 1  -5.1130934,-7.0069871 A 18.143234 7.1748242 0 1 1  31.173375 -7.0069871 z"
       transform="matrix(1.1394255,0,0,1.4455014,8.9012567,47.654064)" />
    <path
       style="fill:url(#radialGradient3159);fill-opacity:1;fill-rule:evenodd;stroke:#888a85;stroke-width:1;stroke-linecap:butt;stroke-linejoin:miter;stroke-miterlimit:4;stroke-dasharray:none;stroke-dashoffset:0;stroke-opacity:1"
       d="M 23.904982,1.1847133 L 2.6537054,10.258297 L 2.6537054,36.224972 L 23.855789,44.536275 L 45.008679,36.224972 L 44.984084,10.258297 L 23.904982,1.1847133 z "
       id="rect2370"
       sodipodi:nodetypes="ccccccc" />
    <path
       style="fill:url(#linearGradient12425);fill-opacity:1;fill-rule:evenodd;stroke:none;stroke-width:1px;stroke-linecap:butt;stroke-linejoin:miter;stroke-opacity:1"
       d="M 61.189069,23.366633 L 61.189069,27.368585 L 77.201259,34.061505 L 77.132242,29.956054 L 61.189069,23.366633 z M 97.76864,23.504631 L 82.653686,29.921554 L 82.722704,33.958006 L 97.76864,27.644581 L 97.76864,23.504631 z "
       id="path11448"
       sodipodi:nodetypes="cccccccccc" />
    <path
       sodipodi:type="inkscape:offset"
       inkscape:radius="-1.2953277"
       inkscape:original="M 128.53125 -62.96875 L 101.53125 -51.4375 L 101.53125 -18.4375 L 128.46875 -7.875 L 155.34375 -18.4375 L 155.3125 -51.4375 L 128.53125 -62.96875 z "
       style="fill:none;fill-opacity:1;fill-rule:evenodd;stroke:#ffffff;stroke-width:1.27068579;stroke-linecap:butt;stroke-linejoin:miter;stroke-miterlimit:4;stroke-dasharray:none;stroke-dashoffset:0;stroke-opacity:1"
       id="path8463"
       d="M 128.53125,-61.5625 L 102.8125,-50.59375 L 102.8125,-19.34375 L 128.46875,-9.28125 L 154.0625,-19.34375 L 154.03125,-50.59375 L 128.53125,-61.5625 z "
       transform="matrix(0.7870843,0,0,0.7868689,-77.259945,50.732865)" />
    <path
       id="path17284"
       d="M 5.1419603,10.289148 L 23.894679,18.000955 L 42.48164,10.400794"
       style="fill:none;fill-rule:evenodd;stroke:#ffffff;stroke-width:1;stroke-linecap:butt;stroke-linejoin:miter;stroke-miterlimit:4;stroke-dasharray:none;stroke-opacity:1"
       sodipodi:nodetypes="ccc" />
    <path
       style="fill:none;fill-rule:evenodd;stroke:#888a85;stroke-width:1;stroke-linecap:butt;stroke-linejoin:miter;stroke-miterlimit:4;stroke-dasharray:none;stroke-opacity:1"
       d="M 3.0867719,10.530143 L 23.880385,19.110571 L 44.827703,10.543089"
       id="path8465"
       sodipodi:nodetypes="ccc" />
  </g>
</svg>
