<?xml version="1.0" encoding="UTF-8" standalone="no"?>
<!-- Created with Inkscape (http://www.inkscape.org/) -->
<svg
   xmlns:dc="http://purl.org/dc/elements/1.1/"
   xmlns:cc="http://web.resource.org/cc/"
   xmlns:rdf="http://www.w3.org/1999/02/22-rdf-syntax-ns#"
   xmlns:svg="http://www.w3.org/2000/svg"
   xmlns="http://www.w3.org/2000/svg"
   xmlns:sodipodi="http://sodipodi.sourceforge.net/DTD/sodipodi-0.dtd"
   xmlns:inkscape="http://www.inkscape.org/namespaces/inkscape"
   width="48"
   height="48"
   id="svg2"
   sodipodi:version="0.32"
   inkscape:version="0.44"
   sodipodi:docbase="/home/andrew/Desktop"
   sodipodi:docname="snow_flake.svg"
   version="1.0"
   inkscape:export-filename="/home/andrew/Desktop/logo_lights_mod.png"
   inkscape:export-xdpi="90"
   inkscape:export-ydpi="90">
  <defs
     id="defs4" />
  <sodipodi:namedview
     id="base"
     pagecolor="#ffffff"
     bordercolor="#666666"
     borderopacity="1.0"
     gridtolerance="10000"
     guidetolerance="10"
     objecttolerance="10"
     inkscape:pageopacity="0.0"
     inkscape:pageshadow="2"
     inkscape:zoom="7.9195959"
     inkscape:cx="21.648591"
     inkscape:cy="25.600968"
     inkscape:document-units="px"
     inkscape:current-layer="layer1"
     inkscape:window-width="1272"
     inkscape:window-height="941"
     inkscape:window-x="1280"
     inkscape:window-y="55"
     width="48px"
     height="48px"
     showguides="true"
     inkscape:guide-bbox="true">
    <sodipodi:guide
       orientation="horizontal"
       position="28.75"
       id="guide2648" />
  </sodipodi:namedview>
  <metadata
     id="metadata7">
    <rdf:RDF>
      <cc:Work
         rdf:about="">
        <dc:format>image/svg+xml</dc:format>
        <dc:type
           rdf:resource="http://purl.org/dc/dcmitype/StillImage" />
      </cc:Work>
    </rdf:RDF>
  </metadata>
  <g
     inkscape:label="Layer 1"
     inkscape:groupmode="layer"
     id="layer1"
     transform="translate(-9.618716,-150.6052)">
    <path
       style="fill:#eeeeec;fill-opacity:1;stroke:#3465a4;stroke-opacity:1"
       d="M 32.587872,196.70955 C 33.261443,195.23498 31.789771,193.43991 30.978972,195.58109 C 29.226336,197.13412 28.281762,193.71705 30.507309,193.56368 C 31.972623,192.9631 33.831105,189.48838 31.836287,189.29723 C 29.977266,190.33594 28.204223,193.91447 26.203423,193.24844 C 26.458945,190.64764 29.90835,189.87714 31.307071,187.84312 C 32.984528,187.17676 33.453993,182.35385 31.090934,184.39655 C 30.45524,185.58774 27.430502,187.8878 27.344592,185.60755 C 28.732137,183.50519 31.729177,182.73948 32.545251,180.25454 C 32.808504,178.82915 33.020102,175.41891 30.81357,177.11496 C 27.956043,177.84992 27.218716,180.8385 26.775188,183.3606 C 27.117821,185.36354 23.767581,186.30068 24.50956,183.80865 C 25.152636,182.65281 26.647278,178.46478 23.971815,180.27722 C 21.759424,182.08814 21.644158,185.20678 20.869041,187.76143 C 21.267745,189.19768 18.634982,191.02248 19.018717,188.76231 C 19.175491,186.87984 20.849539,184.50178 20.103347,182.9497 C 17.19345,182.9306 17.346431,186.7645 16.098549,188.45349 C 13.648113,188.72439 16.54283,184.20738 14.01666,185.98411 C 12.185173,187.26258 12.112677,184.18156 13.933893,184.21723 C 15.806119,182.92193 10.256841,183.90208 11.992732,181.60064 C 14.122702,181.68919 16.63559,183.54152 18.709542,181.92447 C 20.106979,179.90508 16.04034,180.43363 14.815702,179.78146 C 13.277487,180.04836 10.588211,178.05628 13.569875,177.92626 C 16.287072,178.832 19.177184,179.38281 21.986179,180.07762 C 23.742823,179.75508 25.665439,177.42324 22.600443,177.53814 C 21.391911,177.61035 18.049578,176.775 19.915717,175.42147 C 22.971356,175.75841 26.116427,177.79213 29.158428,176.29381 C 30.82274,175.96893 32.144133,174.0348 29.711312,173.61338 C 27.371341,171.91276 24.511915,173.00981 22.089747,173.8429 C 20.882429,174.88971 17.851515,173.91896 19.991685,172.52824 C 21.163073,171.91472 24.888216,172.41468 24.158889,170.59867 C 21.719,168.63602 18.676371,170.48682 16.052483,170.88227 C 14.884218,171.28806 12.348693,172.52315 12.197259,170.40428 C 14.540511,169.56285 17.305803,169.86568 19.387804,168.37332 C 17.434148,166.14042 14.491712,167.89603 12.192578,168.14247 C 10.011221,166.3088 16.291403,166.48201 13.233223,164.94836 C 11.188073,164.36036 14.200358,162.1882 14.840634,164.08891 C 15.930179,163.5713 14.178024,159.76178 16.448669,161.41923 C 17.161001,163.50624 17.498011,166.38114 20.00898,167.04271 C 21.356489,165.4911 18.699421,162.67227 19.045322,160.52083 C 19.803637,158.34575 21.411088,162.21162 21.247016,163.33874 C 21.821619,165.62681 22.132991,168.81869 24.813362,169.60846 C 27.388707,169.07929 22.25582,164.64148 25.720061,164.08937 C 27.602851,166.52188 26.633639,170.57588 29.684534,172.19054 C 30.662818,173.2029 33.419038,173.76978 32.601826,171.49925 C 33.463948,168.64778 30.593191,166.87764 28.73008,165.34857 C 27.145217,164.90661 26.402055,162.1844 28.760192,163.1581 C 29.972079,163.68631 31.860419,167.2974 32.680852,165.36937 C 33.190873,162.72182 30.669223,161.28549 29.038636,159.75964 C 28.147403,158.59271 25.77474,157.43771 25.8521,156.24182 C 27.953042,155.51948 29.175354,158.53186 30.786199,159.49954 C 32.837534,161.7867 33.313242,158.05674 31.70967,157.042 C 30.610993,156.3773 27.343028,153.51373 30.431598,153.88089 C 31.620883,154.18041 32.849102,156.13875 32.42433,153.98306 C 32.904562,152.33461 34.558447,153.03837 34.100582,154.60243 C 35.093064,155.88624 36.981895,151.73877 37.612857,154.45493 C 36.435845,156.18077 32.485806,158.02222 34.490662,160.37961 C 36.477336,159.48829 37.475811,157.13727 39.558768,156.28891 C 42.141606,156.15957 38.213814,159.0667 37.473507,159.79376 C 35.994824,161.40824 33.323398,162.64902 34.000453,165.29427 C 35.402578,167.82677 36.981504,161.6181 39.202605,163.20993 C 38.958516,166.04501 35.356652,166.43597 34.156103,168.6964 C 34.006454,170.14668 33.253712,174.29914 35.883574,172.52897 C 38.988663,171.70917 39.596513,168.70964 39.988057,166.00031 C 39.827495,164.31666 42.626531,163.54203 42.067745,165.60498 C 41.323725,166.84673 40.166276,170.57964 42.958667,169.01262 C 45.375182,167.46922 45.186477,164.22973 46.019495,161.78342 C 45.881125,160.59168 47.879566,158.52041 47.909534,160.67945 C 47.589928,162.61869 45.764972,165.11718 46.43644,166.71265 C 49.111414,166.86024 49.844809,163.72588 50.00309,161.71833 C 51.314374,160.29738 52.760346,162.30953 51.260424,163.35631 C 51.416733,165.50325 53.957721,161.86362 54.003266,164.33193 C 53.925567,165.47308 51.346181,165.74792 53.529797,166.26199 C 55.214502,165.96487 56.010338,168.12237 53.905351,168.01637 C 51.820884,167.57838 48.330688,166.19301 47.300291,168.76464 C 49.495829,169.73951 52.292587,169.334 54.391832,170.69705 C 53.865091,172.84401 50.457693,170.40267 48.778803,170.35437 C 46.921492,169.50116 42.316388,169.10689 42.43529,171.66017 C 43.894477,172.37184 47.770084,171.57136 47.001933,174.20212 C 43.995175,173.99358 41.019084,171.77353 38.006058,173.17849 C 36.70145,173.3611 34.570752,175.33843 36.974579,175.77231 C 39.227661,177.8014 42.500726,176.67109 44.901111,175.59966 C 46.805798,174.87962 48.093493,177.30464 45.503854,177.28021 C 44.248313,177.20411 41.078672,178.29695 43.523872,179.41483 C 45.580956,180.69608 47.884709,179.09677 50.01779,178.85979 C 51.39328,178.933 54.774177,176.71107 54.470457,178.93533 C 52.534671,180.26694 49.804046,179.73163 47.647485,180.74726 C 46.563588,181.93074 50.293061,182.85764 51.256999,182.15522 C 52.316327,181.18752 56.681507,181.57612 54.493068,183.20007 C 53.497638,183.15767 51.310035,183.82668 53.386535,184.45654 C 55.329541,185.41205 52.168252,186.94617 51.660981,185.293 C 51.047175,186.20435 52.726449,189.41216 50.397247,188.23652 C 49.561859,186.15304 49.244357,182.6371 46.260323,182.75296 C 45.999242,185.25872 48.094866,187.39016 47.940504,189.83161 C 45.16997,189.88461 46.101074,185.97881 45.151022,184.18664 C 45.068342,182.38114 42.408341,178.54636 40.937054,180.53861 C 41.157645,182.0752 43.674968,185.15655 40.896434,185.50434 C 39.15729,183.13249 40.122966,179.28328 37.307572,177.61816 C 36.423232,176.58807 33.651684,175.67979 34.360639,178.02751 C 33.547538,180.82309 36.202925,182.75661 38.110258,184.25034 C 39.745546,184.81122 39.649331,187.77679 37.725775,186.42237 C 36.768626,185.01126 33.637621,182.29758 34.320036,185.8121 C 35.13099,188.08124 37.454507,189.2594 38.963285,191.02016 C 39.918927,191.73826 41.964673,193.80725 39.528004,193.43337 C 37.625154,192.29431 36.496898,189.54026 34.184378,189.40945 C 33.025036,191.34987 35.415197,193.01819 36.751473,194.10681 C 39.042379,195.43932 35.965025,196.82267 35.232021,194.94835 C 32.81808,192.86709 35.246846,198.14776 32.587872,196.70955 z "
       id="path30942" />
  </g>
</svg>
