<?xml version="1.0" encoding="UTF-8" standalone="no"?>
<!-- Created with Inkscape (http://www.inkscape.org/) -->
<svg
   xmlns:dc="http://purl.org/dc/elements/1.1/"
   xmlns:cc="http://web.resource.org/cc/"
   xmlns:rdf="http://www.w3.org/1999/02/22-rdf-syntax-ns#"
   xmlns:svg="http://www.w3.org/2000/svg"
   xmlns="http://www.w3.org/2000/svg"
   xmlns:xlink="http://www.w3.org/1999/xlink"
   xmlns:sodipodi="http://sodipodi.sourceforge.net/DTD/sodipodi-0.dtd"
   xmlns:inkscape="http://www.inkscape.org/namespaces/inkscape"
   inkscape:export-ydpi="90.000000"
   inkscape:export-xdpi="90.000000"
   inkscape:export-filename="/home/patrick/Desktop/desktop.png"
   width="48px"
   height="48px"
   id="svg11300"
   sodipodi:version="0.32"
   inkscape:version="0.45+devel"
   sodipodi:docbase="/home/patrick/Projects/Beryl/svn/beryl/trunk/beryl-settings/images"
   sodipodi:docname="plugin-glib.svg"
   inkscape:output_extension="org.inkscape.output.svg.inkscape">
  <defs
     id="defs3">
    <linearGradient
       id="linearGradient4362">
      <stop
         style="stop-color:#83a9d8;stop-opacity:1;"
         offset="0"
         id="stop4364" />
      <stop
         style="stop-color:#3465a4;stop-opacity:1;"
         offset="1"
         id="stop4366" />
    </linearGradient>
    <linearGradient
       id="linearGradient3990">
      <stop
         style="stop-color:#6795cf;stop-opacity:1;"
         offset="0"
         id="stop3992" />
      <stop
         style="stop-color:#3465a4;stop-opacity:1;"
         offset="1"
         id="stop3994" />
    </linearGradient>
    <linearGradient
       id="linearGradient8440">
      <stop
         style="stop-color:#edeeec;stop-opacity:1;"
         offset="0"
         id="stop8442" />
      <stop
         style="stop-color:#babdb6;stop-opacity:1;"
         offset="1"
         id="stop8444" />
    </linearGradient>
    <linearGradient
       id="linearGradient51765">
      <stop
         style="stop-color:#000000;stop-opacity:1"
         offset="0"
         id="stop51767" />
      <stop
         style="stop-color:#000000;stop-opacity:0"
         offset="1"
         id="stop51769" />
    </linearGradient>
    <linearGradient
       id="linearGradient47870">
      <stop
         style="stop-color:#000000;stop-opacity:0"
         offset="0"
         id="stop47872" />
      <stop
         style="stop-color:#000000;stop-opacity:1"
         offset="0.5"
         id="stop47878" />
      <stop
         style="stop-color:#000000;stop-opacity:0"
         offset="1"
         id="stop47874" />
    </linearGradient>
    <radialGradient
       inkscape:collect="always"
       xlink:href="#linearGradient8440"
       id="radialGradient2489"
       gradientUnits="userSpaceOnUse"
       gradientTransform="matrix(0.664143,0.4987188,-0.6514275,0.8675051,-6.5927319,-24.793918)"
       cx="56.704376"
       cy="10.241054"
       fx="56.704376"
       fy="10.241054"
       r="14.75" />
    <linearGradient
       id="linearGradient6159">
      <stop
         id="stop6161"
         offset="0"
         style="stop-color:#aeaea6;stop-opacity:1;" />
      <stop
         id="stop6163"
         offset="1"
         style="stop-color:#eeeeec;stop-opacity:1;" />
    </linearGradient>
    <linearGradient
       id="linearGradient11995">
      <stop
         id="stop11997"
         offset="0"
         style="stop-color:#f2f2f0;stop-opacity:1;" />
      <stop
         id="stop11999"
         offset="1"
         style="stop-color:#eeeeec;stop-opacity:0;" />
    </linearGradient>
    <linearGradient
       inkscape:collect="always"
       xlink:href="#linearGradient47870"
       id="linearGradient2543"
       gradientUnits="userSpaceOnUse"
       gradientTransform="matrix(0.982794,0,0,0.9842658,-9.9809772,53.029792)"
       x1="32.084972"
       y1="-14.402173"
       x2="32.084972"
       y2="-5.5633383" />
    <radialGradient
       inkscape:collect="always"
       xlink:href="#linearGradient51765"
       id="radialGradient2545"
       gradientUnits="userSpaceOnUse"
       gradientTransform="matrix(1.965588,-1.1207771e-6,6.6884721e-7,2.0039369,-60.70285,67.647964)"
       cx="51.4375"
       cy="-12.203125"
       fx="51.4375"
       fy="-12.203125"
       r="2.171875" />
    <radialGradient
       inkscape:collect="always"
       xlink:href="#linearGradient51765"
       id="radialGradient2547"
       gradientUnits="userSpaceOnUse"
       gradientTransform="matrix(-1.965588,-1.2731588e-7,-1.2941195e-7,2.0039369,109.01887,67.647913)"
       cx="51.4375"
       cy="-12.203125"
       fx="51.4375"
       fy="-12.203125"
       r="2.171875" />
    <linearGradient
       inkscape:collect="always"
       xlink:href="#linearGradient6159"
       id="linearGradient2549"
       gradientUnits="userSpaceOnUse"
       x1="101.05743"
       y1="66.738335"
       x2="10.834411"
       y2="5.3968143" />
    <radialGradient
       inkscape:collect="always"
       xlink:href="#linearGradient11995"
       id="radialGradient2551"
       gradientUnits="userSpaceOnUse"
       gradientTransform="matrix(6.2470754e-3,1.3863151,-3.5482495,1.5989371e-2,44.592567,-6.9594387)"
       cx="9.8119087"
       cy="9.8194771"
       fx="9.8119087"
       fy="9.8194771"
       r="17.890625" />
    <radialGradient
       inkscape:collect="always"
       xlink:href="#linearGradient3990"
       id="radialGradient3996"
       cx="-45.669922"
       cy="10.424097"
       fx="-45.669922"
       fy="10.424097"
       r="13.104429"
       gradientTransform="matrix(0.1335212,1.9792355,-2.5923623,0.1748831,-12.548984,95.697096)"
       gradientUnits="userSpaceOnUse" />
    <radialGradient
       inkscape:collect="always"
       xlink:href="#linearGradient4362"
       id="radialGradient4368"
       cx="-30.094473"
       cy="19.634174"
       fx="-30.094473"
       fy="19.634174"
       r="12.989234"
       gradientTransform="matrix(-0.5039358,1.7843623,-2.4884954,-0.7027953,3.068361,78.759785)"
       gradientUnits="userSpaceOnUse" />
    <radialGradient
       inkscape:collect="always"
       xlink:href="#linearGradient4362"
       id="radialGradient4374"
       gradientUnits="userSpaceOnUse"
       gradientTransform="matrix(-0.5039358,1.7843623,-2.4884954,-0.7027953,3.068361,78.759785)"
       cx="-30.094473"
       cy="19.634174"
       fx="-30.094473"
       fy="19.634174"
       r="12.989234" />
  </defs>
  <sodipodi:namedview
     stroke="#ef2929"
     fill="#eeeeec"
     id="base"
     pagecolor="#ffffff"
     bordercolor="#666666"
     borderopacity="0.25490196"
     inkscape:pageopacity="0.0"
     inkscape:pageshadow="2"
     inkscape:zoom="0.99999995"
     inkscape:cx="-26.316245"
     inkscape:cy="17.139805"
     inkscape:current-layer="layer1"
     showgrid="false"
     inkscape:grid-bbox="true"
     inkscape:document-units="px"
     inkscape:showpageshadow="false"
     inkscape:window-width="906"
     inkscape:window-height="662"
     inkscape:window-x="255"
     inkscape:window-y="76"
     showguides="true"
     inkscape:guide-bbox="true" />
  <metadata
     id="metadata4">
    <rdf:RDF>
      <cc:Work
         rdf:about="">
        <dc:format>image/svg+xml</dc:format>
        <dc:type
           rdf:resource="http://purl.org/dc/dcmitype/StillImage" />
        <dc:creator>
          <cc:Agent>
            <dc:title>Patrick Niklaus</dc:title>
          </cc:Agent>
        </dc:creator>
        <dc:source />
        <cc:license
           rdf:resource="http://creativecommons.org/licenses/GPL/2.0/" />
        <dc:title>SchemeP</dc:title>
        <dc:subject>
          <rdf:Bag />
        </dc:subject>
      </cc:Work>
      <cc:License
         rdf:about="http://creativecommons.org/licenses/GPL/2.0/">
        <cc:permits
           rdf:resource="http://web.resource.org/cc/Reproduction" />
        <cc:permits
           rdf:resource="http://web.resource.org/cc/Distribution" />
        <cc:requires
           rdf:resource="http://web.resource.org/cc/Notice" />
        <cc:permits
           rdf:resource="http://web.resource.org/cc/DerivativeWorks" />
        <cc:requires
           rdf:resource="http://web.resource.org/cc/ShareAlike" />
        <cc:requires
           rdf:resource="http://web.resource.org/cc/SourceCode" />
      </cc:License>
    </rdf:RDF>
  </metadata>
  <g
     id="layer1"
     inkscape:label="Layer 1"
     inkscape:groupmode="layer">
    <g
       inkscape:label="Layer 1"
       id="g2529"
       transform="matrix(0.9312144,0,0,0.9182203,-1.7392405,2.1066888)">
      <g
         transform="matrix(0.9396322,0,0,1,1.1552727,0.4559792)"
         id="g7423">
        <rect
           id="rect46899"
           style="opacity:0.4;fill:url(#linearGradient2543);fill-opacity:1;fill-rule:evenodd;stroke:none;stroke-width:1.02400005;stroke-linecap:butt;stroke-linejoin:miter;stroke-miterlimit:4;stroke-dasharray:none;stroke-dashoffset:0;stroke-opacity:1"
           y="38.854225"
           x="7.9137373"
           height="8.6997623"
           width="32.488461" />
        <path
           id="path48849"
           style="opacity:0.4;fill:url(#radialGradient2545);fill-opacity:1;fill-rule:evenodd;stroke:none;stroke-width:1.02400005;stroke-linecap:butt;stroke-linejoin:miter;stroke-miterlimit:4;stroke-dasharray:none;stroke-dashoffset:0;stroke-opacity:1"
           d="M 40.402073,38.841314 L 40.402073,47.545914 C 42.755388,47.513052 44.671085,45.590375 44.671085,43.208994 C 44.671085,40.827614 42.755389,38.874176 40.402073,38.841314 z" />
        <path
           id="path52742"
           style="opacity:0.4;fill:url(#radialGradient2547);fill-opacity:1;fill-rule:evenodd;stroke:none;stroke-width:1.02400005;stroke-linecap:butt;stroke-linejoin:miter;stroke-miterlimit:4;stroke-dasharray:none;stroke-dashoffset:0;stroke-opacity:1"
           d="M 7.9139392,38.841314 L 7.9139392,47.545914 C 5.5606243,47.513052 3.6449278,45.590375 3.6449278,43.208994 C 3.6449278,40.827614 5.5606233,38.874176 7.9139392,38.841314 z" />
      </g>
      <g
         transform="translate(-0.5003605,-0.3335737)"
         id="g15920">
        <rect
           style="opacity:1;fill:url(#linearGradient2549);fill-opacity:1;fill-rule:evenodd;stroke:#555753;stroke-width:1;stroke-linecap:round;stroke-linejoin:round;stroke-miterlimit:4;stroke-dasharray:none;stroke-dashoffset:0;stroke-opacity:1"
           id="rect2280"
           width="36.763309"
           height="44.629875"
           x="6.0980158"
           y="1.2898779"
           rx="2.6324642"
           ry="2.8908169" />
        <path
           sodipodi:type="inkscape:offset"
           inkscape:radius="-1"
           inkscape:original="M 8.71875 1.28125 C 7.2603648 1.28125 6.09375 2.5859877 6.09375 4.1875 L 6.09375 43.03125 C 6.09375 44.632763 7.2603646 45.906249 8.71875 45.90625 L 40.21875 45.90625 C 41.677135 45.90625 42.875001 44.632764 42.875 43.03125 L 42.875 4.1875 C 42.875 2.5859874 41.677133 1.28125 40.21875 1.28125 L 8.71875 1.28125 z "
           style="opacity:1;fill:url(#radialGradient2551);fill-opacity:1;fill-rule:evenodd;stroke:#ffffff;stroke-width:1;stroke-linecap:round;stroke-linejoin:round;stroke-miterlimit:4;stroke-dasharray:none;stroke-dashoffset:0;stroke-opacity:1"
           id="path10047"
           d="M 8.71875,2.28125 C 7.8567951,2.28125 7.09375,3.0716182 7.09375,4.1875 L 7.09375,43.03125 C 7.09375,44.147133 7.8425085,44.906249 8.71875,44.90625 L 40.21875,44.90625 C 41.094991,44.90625 41.875001,44.134125 41.875,43.03125 L 41.875,4.1875 C 41.875,3.0846272 41.080702,2.28125 40.21875,2.28125 L 8.71875,2.28125 z" />
        <rect
           style="opacity:1;fill:#a4a4a4;fill-opacity:1;fill-rule:evenodd;stroke:none;stroke-width:0.2;stroke-linecap:round;stroke-linejoin:round;stroke-miterlimit:4;stroke-dasharray:none;stroke-dashoffset:0;stroke-opacity:1"
           id="rect12006"
           width="1.5818895"
           height="2.6723526"
           x="8.2385483"
           y="7.3459086"
           rx="0.69999999"
           ry="0.69999999" />
        <rect
           style="opacity:1;fill:#a4a4a4;fill-opacity:1;fill-rule:evenodd;stroke:none;stroke-width:1.50999999;stroke-linecap:round;stroke-linejoin:round;stroke-miterlimit:4;stroke-dasharray:none;stroke-dashoffset:0;stroke-opacity:1"
           id="rect13952"
           width="1.5818895"
           height="2.6723526"
           x="8.2555285"
           y="36.875126"
           rx="0.69999999"
           ry="0.69999999" />
        <rect
           style="opacity:1;fill:#a4a4a4;fill-opacity:1;fill-rule:evenodd;stroke:none;stroke-width:1.50999999;stroke-linecap:round;stroke-linejoin:round;stroke-miterlimit:4;stroke-dasharray:none;stroke-dashoffset:0;stroke-opacity:1"
           id="rect13954"
           width="1.5818895"
           height="2.6723526"
           x="8.2555285"
           y="16.94392"
           rx="0.69999999"
           ry="0.69999999" />
        <rect
           style="opacity:1;fill:#a4a4a4;fill-opacity:1;fill-rule:evenodd;stroke:none;stroke-width:1.50999999;stroke-linecap:round;stroke-linejoin:round;stroke-miterlimit:4;stroke-dasharray:none;stroke-dashoffset:0;stroke-opacity:1"
           id="rect13956"
           width="1.5818895"
           height="2.6723526"
           x="8.2555285"
           y="27.204365"
           rx="0.69999999"
           ry="0.69999999" />
        <path
           style="fill:none;fill-rule:evenodd;stroke:#ffffff;stroke-width:0.48995638;stroke-linecap:butt;stroke-linejoin:miter;stroke-miterlimit:4;stroke-dasharray:none;stroke-opacity:1"
           d="M 11.591687,2.6239845 L 11.591687,44.424073"
           id="path13960" />
      </g>
    </g>
    <g
       id="g4370"
       transform="translate(44.54773,-1.5909903)">
      <path
         style="fill:url(#radialGradient4374);fill-opacity:1;stroke:#204a87;stroke-opacity:1"
         id="path8"
         d="M -12.269652,7.7500017 C -18.655711,7.7500017 -19.853127,18.125492 -16.260615,18.125492 C -12.668619,18.125492 -5.8833383,7.7500017 -12.269652,7.7500017 z M -22.141602,9.0180144 C -22.243009,9.0176154 -22.345605,9.0291486 -22.45796,9.0457811 C -26.051769,9.5780131 -24.78524,16.705687 -22.871651,16.838968 C -21.018622,16.968083 -18.998015,9.0303711 -22.141602,9.0180144 z M -28.249714,11.840962 C -28.469334,11.8246 -28.717131,11.880085 -28.987875,12.007563 C -31.876427,13.367613 -29.429868,18.974857 -27.81168,18.597525 C -26.344024,18.256105 -26.126741,11.999131 -28.249714,11.840962 z M -32.970726,16.246611 C -33.221871,16.236967 -33.492731,16.32421 -33.781894,16.552045 C -36.094193,18.375021 -33.000837,22.779117 -31.640404,22.09613 C -30.450029,21.498257 -31.212716,16.314119 -32.970726,16.246611 z M -20.519259,19.615639 C -25.36227,19.803229 -31.311024,22.64317 -32.370461,28.056714 C -33.578264,34.223439 -27.405121,42.773065 -20.957292,42.773065 C -17.785287,42.773065 -14.12224,39.508589 -13.437739,35.368611 C -12.914955,32.21165 -19.591017,33.474034 -19.351169,35.562978 C -19.063823,38.066869 -20.964944,39.305929 -22.82298,37.691759 C -28.737913,32.553365 -13.026896,29.986166 -14.06234,22.966153 C -14.411495,20.598931 -17.205622,19.487285 -20.519259,19.615639 z" />
      <path
         sodipodi:nodetypes="csssssssssccsccscccssssssssccsccscccssssssssssssssssssc"
         id="path3978"
         d="M -12.28125,8.78125 C -13.602038,8.78125 -14.58152,9.2831233 -15.375,10.09375 C -16.16848,10.904377 -16.746755,12.039888 -17.03125,13.1875 C -17.315745,14.335112 -17.282875,15.492731 -17.0625,16.21875 C -16.952312,16.58176 -16.819341,16.812496 -16.6875,16.9375 C -16.555659,17.062504 -16.453997,17.09375 -16.25,17.09375 C -15.842205,17.09375 -14.849677,16.632866 -13.90625,15.75 C -12.962823,14.867134 -12.049078,13.651238 -11.4375,12.46875 C -10.825922,11.286262 -10.568341,10.151197 -10.6875,9.59375 C -10.747079,9.3150265 -10.831892,9.1661497 -11.03125,9.03125 C -11.230608,8.8963503 -11.620819,8.78125 -12.28125,8.78125 z M -23.40625,10.90625 C -23.65595,11.430103 -23.76574,12.22114 -23.71875,13.03125 C -23.67176,13.84136 -23.478213,14.674588 -23.21875,15.21875 C -22.839477,16.030534 -22.814584,15.998962 -22.4375,15.1875 C -22.111538,14.596122 -21.808805,13.692792 -21.65625,12.8125 C -21.503695,11.932208 -21.507414,11.054616 -21.65625,10.5625 C -21.812267,9.3977279 -23.303096,10.372392 -23.40625,10.90625 z M -28.3125,12.84375 C -28.334463,12.842114 -28.434947,12.846192 -28.5625,12.90625 C -28.990141,13.107601 -29.14863,13.395815 -29.25,13.875 C -29.35137,14.354185 -29.31611,15.016407 -29.125,15.65625 C -28.93389,16.296093 -28.609591,16.894351 -28.3125,17.25 C -28.222252,17.358037 -28.162601,17.412395 -28.09375,17.46875 C -28.044064,17.37283 -27.98969,17.29654 -27.9375,17.125 C -27.78662,16.629078 -27.675355,15.874986 -27.6875,15.15625 C -27.699645,14.437514 -27.851996,13.743479 -28.03125,13.3125 C -28.210504,12.881521 -28.278587,12.846277 -28.3125,12.84375 z M -33.59375,18.3125 C -33.601799,18.734993 -33.45394,19.279052 -33.1875,19.78125 C -32.92106,20.283448 -32.545569,20.740988 -32.25,20.96875 C -32.016037,21.264182 -31.995591,21.22994 -32.09375,20.8125 C -32.043511,20.385706 -32.072117,19.756175 -32.1875,19.15625 C -32.302883,18.556325 -32.507509,17.978473 -32.71875,17.625 C -33.089645,16.599058 -33.640832,17.961222 -33.59375,18.3125 z M -20.5,20.65625 C -22.739253,20.742986 -25.264713,21.451917 -27.3125,22.75 C -29.360287,24.048083 -30.907751,25.862435 -31.375,28.25 C -31.89901,30.925457 -30.777464,34.398699 -28.71875,37.125 C -26.660036,39.851301 -23.74246,41.75 -20.96875,41.75 C -19.732268,41.75 -18.21977,41.097714 -16.96875,39.90625 C -15.71773,38.714786 -14.738941,37.041918 -14.4375,35.21875 C -14.362035,34.763036 -14.399024,34.825328 -14.65625,34.6875 C -14.913476,34.549672 -15.508293,34.425646 -16.15625,34.5 C -16.804207,34.574354 -17.493727,34.806395 -17.90625,35.0625 C -18.318773,35.318605 -18.341394,35.458022 -18.34375,35.4375 C -18.168959,36.960595 -18.627275,38.347853 -19.71875,39.03125 C -20.810225,39.714647 -22.313052,39.472764 -23.46875,38.46875 C -24.308106,37.739589 -24.887933,36.947137 -25.09375,36.09375 C -25.299567,35.240363 -25.092416,34.383387 -24.6875,33.6875 C -23.877667,32.295727 -22.383744,31.275815 -20.84375,30.1875 C -19.303756,29.099185 -17.682153,27.998966 -16.5625,26.8125 C -15.442847,25.626034 -14.859151,24.503648 -15.0625,23.125 C -15.182956,22.308326 -15.675845,21.736514 -16.625,21.28125 C -17.574155,20.825986 -18.967215,20.596877 -20.5,20.65625 z"
         style="fill:none;fill-opacity:1;stroke:#729fcf;stroke-opacity:1" />
    </g>
    <g
       id="g2485"
       transform="matrix(0.7842374,-0.251925,0.2512199,0.7820424,4.4482181,27.664912)">
      <path
         id="path2212"
         d="M 26.012804,3.3202973 C 25.696155,3.3943463 25.51578,3.6993999 25.587355,4.0054664 L 26.641513,8.5132705 C 25.965958,8.8822096 25.352184,9.3500745 24.782212,9.8438129 L 21.072128,7.6796819 C 20.800827,7.5209504 20.460022,7.6149968 20.295801,7.895679 L 17.923821,11.895531 C 17.759601,12.176212 17.876156,12.545792 18.147457,12.704523 L 21.575412,14.693469 C 21.299902,15.560801 21.11721,16.466374 21.070371,17.395444 L 16.725894,18.411407 C 16.419827,18.482982 16.226395,18.779928 16.300444,19.096577 L 17.36988,23.669711 C 17.443929,23.98636 17.748984,24.166734 18.05505,24.09516 L 22.366861,23.086835 C 22.781305,23.836023 23.305151,24.49432 23.873898,25.111572 L 21.526944,29.071119 C 21.360115,29.350258 21.440468,29.693832 21.710276,29.855085 L 25.677462,32.234705 C 25.947271,32.395958 26.286961,32.297846 26.453789,32.018708 L 28.790994,28.164794 C 29.646461,28.412459 30.534887,28.58428 31.445026,28.612144 L 32.468629,32.989287 C 32.540203,33.295353 32.837149,33.488785 33.153799,33.414736 L 37.726933,32.3453 C 38.043582,32.271251 38.223956,31.966198 38.152382,31.660131 L 37.113501,27.217657 C 37.814362,26.815087 38.434127,26.311123 39.015216,25.773841 L 42.715552,28.043607 C 42.983322,28.208223 43.361875,28.129666 43.532183,27.852636 L 45.977133,23.870172 C 46.147441,23.593143 46.061572,23.250824 45.793801,23.086206 L 42.085827,20.783776 C 42.292758,20.033653 42.432045,19.247673 42.471264,18.454287 L 46.750411,17.4536 C 47.056477,17.382026 47.249909,17.085081 47.17586,16.768432 L 46.106424,12.195298 C 46.032375,11.878648 45.727321,11.698274 45.421255,11.769848 L 41.174773,12.762896 C 40.73573,11.963009 40.208309,11.234718 39.596878,10.582471 L 42.143243,6.8863555 C 42.327951,6.6187132 42.283938,6.2656484 42.025241,6.0871112 L 38.200574,3.4330029 C 37.941876,3.2544659 37.601318,3.348692 37.416608,3.6163347 L 34.7625,7.4410012 C 34.73053,7.4873242 34.712627,7.5441816 34.695059,7.5945788 C 33.932141,7.376048 33.132907,7.2260136 32.325265,7.1841146 L 31.271107,2.6763105 C 31.199533,2.370244 30.902589,2.1768122 30.585938,2.2508616 L 26.012804,3.3202973 z M 30.831242,13.907041 C 33.384239,13.310018 35.514115,14.780092 36.0173,16.931818 C 36.520483,19.083544 35.263393,21.345666 32.710394,21.94269 C 30.157394,22.539714 28.027521,21.069639 27.524336,18.917913 C 27.02115,16.766191 28.278243,14.504064 30.831242,13.907041 z"
         style="fill:url(#radialGradient2489);fill-opacity:1;fill-rule:evenodd;stroke:#555753;stroke-width:1;stroke-linecap:butt;stroke-linejoin:miter;stroke-miterlimit:4;stroke-dasharray:none;stroke-dashoffset:0;stroke-opacity:1" />
      <path
         transform="matrix(1.0452878,-0.2444425,0.2444425,1.0452878,-37.363201,15.597559)"
         d="M 60.5,3.25 L 60.5,7.15625 C 60.496479,7.5703048 60.210494,7.9482453 59.8125,8.0625 C 59.212599,8.228619 58.617411,8.4730048 58.03125,8.78125 C 57.680626,8.9647198 57.227804,8.9251771 56.9375,8.65625 L 54.34375,6.1875 L 51.90625,8.75 L 54.3125,11 C 54.627244,11.293647 54.678914,11.780586 54.46875,12.15625 C 54.06921,12.82689 53.744915,13.538474 53.53125,14.28125 C 53.416996,14.679245 53.039055,14.965229 52.625,14.96875 L 48.875,14.96875 L 48.875,18.53125 L 52.59375,18.53125 C 53.007805,18.534771 53.385746,18.820755 53.5,19.21875 C 53.68886,19.886671 53.980343,20.513823 54.34375,21.15625 C 54.544611,21.515651 54.504261,21.984607 54.21875,22.28125 L 51.53125,25.09375 L 54,27.5 L 56.65625,24.78125 C 56.949897,24.466506 57.436836,24.414836 57.8125,24.625 C 58.486779,25.003518 59.183718,25.307537 59.90625,25.5 C 60.304245,25.614254 60.590229,25.992195 60.59375,26.40625 L 60.59375,30.1875 L 64.15625,30.1875 L 64.15625,26.34375 C 64.154926,25.939357 64.428567,25.564508 64.8125,25.4375 C 65.437997,25.249716 66.049852,24.969408 66.65625,24.625 C 67.015651,24.424139 67.484607,24.464489 67.78125,24.75 L 70.375,27.3125 L 72.875,24.84375 L 70.28125,22.25 C 69.978325,21.947471 69.937115,21.461536 70.15625,21.09375 C 70.475199,20.508381 70.724465,19.915534 70.90625,19.28125 C 71.020504,18.883255 71.398445,18.597271 71.8125,18.59375 L 75.5,18.59375 L 75.5,15.03125 L 71.84375,15.03125 C 71.429695,15.027729 71.051754,14.741745 70.9375,14.34375 C 70.729928,13.600282 70.439945,12.904075 70.0625,12.25 C 69.852336,11.874336 69.904006,11.387397 70.21875,11.09375 L 73.0625,8.5 L 70.71875,5.9375 L 67.8125,8.5625 L 67.78125,8.59375 C 67.502398,8.9541153 66.997961,9.0630449 66.59375,8.84375 C 65.998677,8.5119092 65.391839,8.2481447 64.75,8.0625 C 64.352006,7.9482453 64.066021,7.5703048 64.0625,7.15625 L 64.0625,3.25 L 60.5,3.25 z M 62.21875,12 C 65.119724,12 67.21875,14.229306 67.21875,16.78125 C 67.218749,19.333195 65.119725,21.562499 62.21875,21.5625 C 59.317774,21.562501 57.21875,19.333195 57.21875,16.78125 C 57.218748,14.229307 59.317774,12 62.21875,12 z"
         id="path3195"
         style="fill:none;fill-opacity:1;fill-rule:evenodd;stroke:#dddddd;stroke-width:0.93154186;stroke-linecap:butt;stroke-linejoin:miter;stroke-miterlimit:4;stroke-dasharray:none;stroke-dashoffset:0;stroke-opacity:1"
         inkscape:original="M 60.375 3.125 L 60.375 7.15625 C 60.371912 7.5194123 60.130326 7.8372886 59.78125 7.9375 C 59.169905 8.1067881 58.559537 8.3768222 57.96875 8.6875 C 57.661279 8.8483892 57.285825 8.7983287 57.03125 8.5625 L 54.34375 6 L 51.71875 8.75 L 54.21875 11.09375 C 54.494859 11.351352 54.559366 11.764199 54.375 12.09375 C 53.971871 12.770414 53.623576 13.494497 53.40625 14.25 C 53.306039 14.599076 52.988162 14.840662 52.625 14.84375 L 48.75 14.84375 L 48.75 18.65625 L 52.59375 18.65625 C 52.956912 18.659338 53.274789 18.900924 53.375 19.25 C 53.567737 19.931631 53.884546 20.572703 54.25 21.21875 C 54.426168 21.533968 54.375412 21.927325 54.125 22.1875 L 51.34375 25.09375 L 54 27.6875 L 56.75 24.875 C 57.007602 24.598891 57.420449 24.534384 57.75 24.71875 C 58.429534 25.100218 59.139208 25.429005 59.875 25.625 C 60.224076 25.725211 60.465662 26.043088 60.46875 26.40625 L 60.46875 30.3125 L 64.28125 30.3125 L 64.28125 26.34375 C 64.280089 25.989098 64.507041 25.673886 64.84375 25.5625 C 65.481753 25.370962 66.108157 25.06554 66.71875 24.71875 C 67.033968 24.542582 67.427325 24.593338 67.6875 24.84375 L 70.375 27.5 L 73.0625 24.84375 L 70.375 22.15625 C 70.109267 21.890864 70.057769 21.478881 70.25 21.15625 C 70.571694 20.565843 70.8464 19.957479 71.03125 19.3125 C 71.131461 18.963424 71.449338 18.721838 71.8125 18.71875 L 75.625 18.71875 L 75.625 14.90625 L 71.84375 14.90625 C 71.480588 14.903162 71.162711 14.661576 71.0625 14.3125 C 70.851959 13.5584 70.53788 12.848827 70.15625 12.1875 C 69.971884 11.857949 70.036391 11.445102 70.3125 11.1875 L 73.21875 8.53125 L 70.71875 5.78125 L 67.71875 8.5 C 67.479528 8.8411617 67.022497 8.9486984 66.65625 8.75 C 66.056217 8.415393 65.434546 8.1264586 64.78125 7.9375 C 64.432174 7.8372886 64.190588 7.5194123 64.1875 7.15625 L 64.1875 3.125 L 60.375 3.125 z M 62.21875 12.125 C 65.060709 12.125 67.09375 14.292516 67.09375 16.78125 C 67.093749 19.269985 65.06071 21.437499 62.21875 21.4375 C 59.376789 21.437501 57.34375 19.269985 57.34375 16.78125 C 57.343748 14.292517 59.376789 12.125 62.21875 12.125 z "
         inkscape:radius="-0.1160666"
         sodipodi:type="inkscape:offset" />
    </g>
  </g>
</svg>
