<?xml version="1.0" encoding="UTF-8" standalone="no"?>
<!-- Created with Inkscape (http://www.inkscape.org/) -->
<svg
   xmlns:dc="http://purl.org/dc/elements/1.1/"
   xmlns:cc="http://web.resource.org/cc/"
   xmlns:rdf="http://www.w3.org/1999/02/22-rdf-syntax-ns#"
   xmlns:svg="http://www.w3.org/2000/svg"
   xmlns="http://www.w3.org/2000/svg"
   xmlns:xlink="http://www.w3.org/1999/xlink"
   xmlns:sodipodi="http://sodipodi.sourceforge.net/DTD/sodipodi-0.dtd"
   xmlns:inkscape="http://www.inkscape.org/namespaces/inkscape"
   width="48"
   height="48"
   id="svg5454"
   sodipodi:version="0.32"
   inkscape:version="0.45+devel"
   sodipodi:docname="plugin-firepaint.svg"
   inkscape:output_extension="org.inkscape.output.svg.inkscape"
   version="1.0">
  <defs
     id="defs5456">
    <linearGradient
       id="linearGradient5881">
      <stop
         id="stop5883"
         style="stop-color:#ffe828;stop-opacity:0.89803922"
         offset="0" />
      <stop
         id="stop5885"
         style="stop-color:#cc0000;stop-opacity:1"
         offset="1" />
    </linearGradient>
    <linearGradient
       id="linearGradient8059">
      <stop
         id="stop8061"
         offset="0.0000000"
         style="stop-color:#ffffff;stop-opacity:1.0000000;" />
      <stop
         id="stop8063"
         offset="1.0000000"
         style="stop-color:#9d9d9d;stop-opacity:1" />
    </linearGradient>
    <linearGradient
       id="linearGradient4394">
      <stop
         id="stop5137"
         offset="0.0000000"
         style="stop-color:#818181;stop-opacity:1.0000000;" />
      <stop
         style="stop-color:#ffffff;stop-opacity:1.0000000;"
         offset="0.50000000"
         id="stop5139" />
      <stop
         id="stop4398"
         offset="1.0000000"
         style="stop-color:#bebebe;stop-opacity:1.0000000;" />
    </linearGradient>
    <linearGradient
       id="linearGradient16370">
      <stop
         id="stop16372"
         offset="0.0000000"
         style="stop-color:#50534b;stop-opacity:0.46391752;" />
      <stop
         id="stop16374"
         offset="1"
         style="stop-color:#50534b;stop-opacity:0;" />
    </linearGradient>
    <radialGradient
       inkscape:collect="always"
       xlink:href="#linearGradient8059"
       id="radialGradient5868"
       gradientUnits="userSpaceOnUse"
       cx="24.660349"
       cy="21.21833"
       fx="24.660349"
       fy="21.21833"
       r="4.3006992" />
    <radialGradient
       inkscape:collect="always"
       xlink:href="#linearGradient16370"
       id="radialGradient5872"
       gradientUnits="userSpaceOnUse"
       gradientTransform="matrix(1,0,0,0.2,0,36.5)"
       cx="27.125"
       cy="45.625"
       fx="27.125"
       fy="45.625"
       r="22.5" />
    <linearGradient
       inkscape:collect="always"
       xlink:href="#linearGradient4394"
       id="linearGradient2266"
       gradientUnits="userSpaceOnUse"
       gradientTransform="matrix(0.5011002,-0.2984445,0.2893103,0.5169223,-28.194086,39.549083)"
       x1="83.84375"
       y1="27.09375"
       x2="119"
       y2="27.09375" />
    <radialGradient
       inkscape:collect="always"
       xlink:href="#linearGradient5881"
       id="radialGradient2272"
       gradientUnits="userSpaceOnUse"
       gradientTransform="matrix(-4.0789379,0.1499036,-0.9017999,3.8848014,75.49757,-98.60596)"
       cx="7.9810176"
       cy="30.16213"
       fx="7.9810176"
       fy="30.16213"
       r="5.3551712" />
  </defs>
  <sodipodi:namedview
     id="base"
     pagecolor="#ffffff"
     bordercolor="#666666"
     borderopacity="1.0"
     inkscape:pageopacity="0.0"
     inkscape:pageshadow="2"
     inkscape:zoom="1.0420552"
     inkscape:cx="23.501479"
     inkscape:cy="33.09378"
     inkscape:current-layer="layer1"
     showgrid="true"
     inkscape:document-units="px"
     inkscape:grid-bbox="true"
     inkscape:window-width="1280"
     inkscape:window-height="724"
     inkscape:window-x="0"
     inkscape:window-y="49"
     width="48px"
     height="48px"
     showguides="true"
     inkscape:guide-bbox="true" />
  <metadata
     id="metadata5459">
    <rdf:RDF>
      <cc:Work
         rdf:about="">
        <dc:format>image/svg+xml</dc:format>
        <dc:type
           rdf:resource="http://purl.org/dc/dcmitype/StillImage" />
      </cc:Work>
    </rdf:RDF>
  </metadata>
  <g
     id="layer1"
     inkscape:label="Layer 1"
     inkscape:groupmode="layer">
    <g
       inkscape:label="Livello 1"
       id="g7118"
       transform="matrix(0.4069594,0,0,0.4069594,16.775127,44.997967)" />
    <g
       transform="matrix(0.3070932,0,0,0.3110924,16.991042,46.795358)"
       id="layer2"
       inkscape:label="luci" />
    <path
       id="path2275"
       d="M 26.843831,14.927114 C 24.168473,15.095826 22.602291,13.514964 18.532456,15.120568 C 11.624479,18.633622 6.0939597,26.531594 3.9478413,33.998658 C 6.0436302,33.80924 8.9369306,30.370591 10.671512,28.995348 C 5.3950628,34.783073 5.5885994,42.226943 4.9530639,43.685686 C 8.0739231,42.005986 8.9688211,38.312149 13.141481,31.465317 C 10.152155,37.565462 9.6887452,41.494057 10.30078,43.986075 C 12.829485,41.451979 18.687767,33.574692 18.811669,30.498807 C 18.908619,29.887608 18.88923,29.113821 18.854625,28.308052 C 19.915455,28.351674 21.193956,30.081226 21.109359,28.839547 C 19.63747,24.464029 20.311177,21.518908 20.830903,18.471134 L 26.843831,14.927114 z"
       style="fill:url(#radialGradient2272);fill-opacity:1;fill-rule:evenodd;stroke:#ce5c00;stroke-width:1;stroke-linecap:round;stroke-linejoin:round;stroke-opacity:1;stroke-miterlimit:4;stroke-dasharray:none"
       sodipodi:nodetypes="cccccccccccc" />
    <path
       style="fill:none;fill-opacity:1;fill-rule:evenodd;stroke:#ffffff;stroke-width:1;stroke-linecap:round;stroke-linejoin:miter;stroke-miterlimit:4;stroke-opacity:0.31930694"
       d="M 18.875,16.0625 C 13.101822,19.041355 8.1186836,25.535992 5.6051007,32.111127 C 5.893644,31.860557 6.4234094,31.532944 6.78125,31.21875 C 7.9392486,30.201993 9.0925705,29.018997 10.0625,28.25 C 10.458482,27.963505 11.005816,27.896681 11.339302,28.253988 C 11.672788,28.611294 11.688091,29.280944 11.375,29.65625 C 8.8800639,32.39294 7.6669845,35.516367 7,38.1875 C 6.7307322,39.265861 6.6070751,40.047543 6.4674888,41.092489 C 7.0169246,40.557881 7.3348986,39.8623 7.8125,39.03125 C 8.926327,37.093137 10.233697,34.431093 12.34375,30.96875 C 12.626156,30.555106 13.177194,30.42473 13.615019,30.667966 C 14.052844,30.911202 14.233261,31.447942 14.03125,31.90625 C 11.946404,36.160674 11.058963,39.663117 11.030134,41.649553 C 12.166781,40.312697 13.409945,38.764321 14.65625,36.90625 C 15.536899,35.593322 16.328871,34.281261 16.90625,33.125 C 17.483629,31.968739 17.824444,30.948032 17.84375,30.46875 C 17.841061,30.427127 17.841061,30.385373 17.84375,30.34375 C 17.915931,29.888705 17.909536,29.147923 17.875,28.34375 C 17.866379,28.075984 17.968965,27.81659 18.158402,27.627152 C 18.742215,27.165915 19.121191,27.305279 19.770089,27.603795 C 18.858375,23.827984 19.359567,20.940838 19.811384,18.291295 C 19.856321,18.003307 20.092081,17.772034 20.34375,17.625 L 24.146203,15.665179 C 22.314694,15.293574 20.912314,15.295352 18.875,16.0625 z"
       id="path4004"
       sodipodi:nodetypes="ccscscscscsccssssscccccc" />
    <rect
       y="6.1818204"
       x="16.263596"
       height="29.491228"
       width="29.491228"
       id="rect6351"
       style="opacity:0.24267782;fill:#ffffff;fill-opacity:0;stroke:none;stroke-width:1;stroke-linecap:round;stroke-linejoin:round;stroke-miterlimit:4;stroke-dasharray:none;stroke-dashoffset:0;stroke-opacity:1" />
    <path
       transform="matrix(0.6553608,0,0,0.7447272,15.050734,-0.3048298)"
       d="M 49.625,45.625 A 22.5,4.5 0 1 1 4.625,45.625 A 22.5,4.5 0 1 1 49.625,45.625 z"
       sodipodi:ry="4.5"
       sodipodi:rx="22.5"
       sodipodi:cy="45.625"
       sodipodi:cx="27.125"
       id="path6355"
       style="fill:url(#radialGradient5872);fill-opacity:1;fill-rule:evenodd;stroke:none;stroke-width:1;stroke-linecap:round;stroke-linejoin:round;stroke-miterlimit:4;stroke-dasharray:none;stroke-dashoffset:0;stroke-opacity:1"
       sodipodi:type="arc" />
    <path
       sodipodi:nodetypes="ccccccc"
       id="path6360"
       d="M 20.83438,18.404127 L 28.754261,32.554863 C 29.362586,33.5423 30.340596,33.921867 31.283388,33.417793 L 42.777384,26.57221 C 43.651674,25.958169 44.057126,24.804896 43.498797,23.794866 L 35.569871,9.6279751 L 20.83438,18.404127 z"
       style="fill:url(#linearGradient2266);fill-opacity:1;fill-rule:evenodd;stroke:#555753;stroke-width:1;stroke-linecap:butt;stroke-linejoin:miter;stroke-miterlimit:4;stroke-dasharray:none;stroke-opacity:1" />
    <path
       transform="matrix(0.5902656,-0.3370553,0.3403167,0.5829853,9.9168746,16.162908)"
       d="M 28.461048,21.21833 A 3.800699,3.800699 0 1 1 20.85965,21.21833 A 3.800699,3.800699 0 1 1 28.461048,21.21833 z"
       sodipodi:ry="3.800699"
       sodipodi:rx="3.800699"
       sodipodi:cy="21.21833"
       sodipodi:cx="24.660349"
       id="path6362"
       style="fill:url(#radialGradient5868);fill-opacity:1;fill-rule:evenodd;stroke:#555753;stroke-width:3.0107584;stroke-linecap:round;stroke-linejoin:miter;stroke-miterlimit:4;stroke-dasharray:none;stroke-dashoffset:0;stroke-opacity:1"
       sodipodi:type="arc" />
    <path
       sodipodi:type="inkscape:offset"
       inkscape:radius="-0.97200233"
       inkscape:original="M 35.5625 9.625 L 20.84375 18.40625 L 28.75 32.5625 C 29.358325 33.549937 30.338458 33.910324 31.28125 33.40625 L 42.78125 26.5625 C 43.655538 25.948459 44.058329 24.79128 43.5 23.78125 L 35.5625 9.625 z "
       style="fill:none;fill-opacity:1;fill-rule:evenodd;stroke:#ffffff;stroke-width:1;stroke-linecap:butt;stroke-linejoin:miter;stroke-miterlimit:4;stroke-dasharray:none;stroke-opacity:1"
       id="path3238"
       d="M 35.21875,10.96875 L 22.15625,18.78125 L 29.59375,32.09375 C 29.803333,32.433947 30.03071,32.560517 30.21875,32.625 C 30.397001,32.686127 30.541209,32.682003 30.78125,32.5625 L 30.8125,32.5625 L 42.25,25.75 C 42.26271,25.74052 42.268934,25.728504 42.28125,25.71875 C 42.744828,25.351601 42.951082,24.783357 42.65625,24.25 L 35.21875,10.96875 z" />
    <path
       sodipodi:nodetypes="cccc"
       id="path6366"
       d="M 31.72916,17.695498 L 31.72916,9.995258 C 31.72916,5.7265847 39.829123,5.8581095 39.829123,10.172986 L 39.913944,18.042735"
       style="fill:none;fill-opacity:0.75000000000000000;fill-rule:evenodd;stroke:#555753;stroke-width:2;stroke-linecap:round;stroke-linejoin:miter;stroke-miterlimit:4;stroke-dasharray:none;stroke-opacity:1" />
    <path
       style="fill:none;fill-rule:evenodd;stroke:#ffffff;stroke-width:1px;stroke-linecap:butt;stroke-linejoin:miter;stroke-opacity:1"
       d="M 35.688512,11.823767 L 42.484809,23.942593"
       id="path2261"
       sodipodi:nodetypes="cc" />
  </g>
</svg>
