<?xml version="1.0" encoding="UTF-8" standalone="no"?>
<!-- Created with Inkscape (http://www.inkscape.org/) -->
<svg
   xmlns:dc="http://purl.org/dc/elements/1.1/"
   xmlns:cc="http://web.resource.org/cc/"
   xmlns:rdf="http://www.w3.org/1999/02/22-rdf-syntax-ns#"
   xmlns:svg="http://www.w3.org/2000/svg"
   xmlns="http://www.w3.org/2000/svg"
   xmlns:xlink="http://www.w3.org/1999/xlink"
   xmlns:sodipodi="http://sodipodi.sourceforge.net/DTD/sodipodi-0.dtd"
   xmlns:inkscape="http://www.inkscape.org/namespaces/inkscape"
   width="48px"
   height="48px"
   id="svg1872"
   sodipodi:version="0.32"
   inkscape:version="0.45+devel"
   sodipodi:docbase="/home/patrick/Projects/Beryl/svn/beryl/trunk/beryl-settings/images"
   sodipodi:docname="beryl-settings-section-3d.svg"
   inkscape:output_extension="org.inkscape.output.svg.inkscape"
   sodipodi:modified="true">
  <defs
     id="defs1874">
    <linearGradient
       id="linearGradient12914">
      <stop
         style="stop-color:#3465a4;stop-opacity:1"
         offset="0"
         id="stop12916" />
      <stop
         style="stop-color:#3465a4;stop-opacity:0"
         offset="1"
         id="stop12918" />
    </linearGradient>
    <linearGradient
       id="linearGradient13816">
      <stop
         style="stop-color:#f7f7f6;stop-opacity:1"
         offset="0"
         id="stop13818" />
      <stop
         style="stop-color:#eff0ee;stop-opacity:0"
         offset="1"
         id="stop13820" />
    </linearGradient>
    <linearGradient
       id="linearGradient6482"
       inkscape:collect="always">
      <stop
         id="stop6484"
         offset="0"
         style="stop-color:#000000;stop-opacity:1;" />
      <stop
         id="stop6486"
         offset="1"
         style="stop-color:#000000;stop-opacity:0;" />
    </linearGradient>
    <radialGradient
       inkscape:collect="always"
       xlink:href="#linearGradient6482"
       id="radialGradient2325"
       gradientUnits="userSpaceOnUse"
       gradientTransform="matrix(1,0,0,0.3954545,0,-4.2360423)"
       cx="13.030141"
       cy="-7.0069871"
       fx="13.030141"
       fy="-7.0069871"
       r="18.143234" />
    <linearGradient
       inkscape:collect="always"
       xlink:href="#linearGradient13816"
       id="linearGradient2327"
       gradientUnits="userSpaceOnUse"
       gradientTransform="matrix(0.5070937,0,0,0.741525,4.6911566,-1.7481315)"
       x1="28.280043"
       y1="15.029495"
       x2="38.880146"
       y2="39.040752" />
    <linearGradient
       inkscape:collect="always"
       xlink:href="#linearGradient12914"
       id="linearGradient2329"
       gradientUnits="userSpaceOnUse"
       gradientTransform="matrix(0.4017821,0.2426618,3.8641107e-3,0.4370415,4.4158352,11.416657)"
       x1="12.838772"
       y1="1.4315225"
       x2="22.452898"
       y2="28.529707" />
    <linearGradient
       inkscape:collect="always"
       xlink:href="#linearGradient13816"
       id="linearGradient2331"
       gradientUnits="userSpaceOnUse"
       gradientTransform="matrix(0.588972,0,0,0.7401913,23.581332,24.648296)"
       x1="28.280043"
       y1="15.029495"
       x2="38.880146"
       y2="39.040752" />
    <linearGradient
       inkscape:collect="always"
       xlink:href="#linearGradient12914"
       id="linearGradient2333"
       gradientUnits="userSpaceOnUse"
       gradientTransform="matrix(0.4746709,-0.2681253,3.0691746e-3,0.4362617,21.16054,23.360472)"
       x1="12.838772"
       y1="1.4315225"
       x2="22.452898"
       y2="28.529707" />
    <linearGradient
       inkscape:collect="always"
       xlink:href="#linearGradient13816"
       id="linearGradient2335"
       gradientUnits="userSpaceOnUse"
       gradientTransform="matrix(0.6018086,0,0,0.8798454,-12.046092,2.4212822)"
       x1="28.280043"
       y1="15.029495"
       x2="38.880146"
       y2="39.040752" />
    <linearGradient
       inkscape:collect="always"
       xlink:href="#linearGradient13816"
       id="linearGradient2362"
       gradientUnits="userSpaceOnUse"
       gradientTransform="matrix(0.588972,0,0,0.7401913,23.581332,24.648296)"
       x1="28.280043"
       y1="15.029495"
       x2="38.880146"
       y2="39.040752" />
    <linearGradient
       inkscape:collect="always"
       xlink:href="#linearGradient12914"
       id="linearGradient2364"
       gradientUnits="userSpaceOnUse"
       gradientTransform="matrix(0.4746709,-0.2681253,3.0691746e-3,0.4362617,21.16054,23.360472)"
       x1="12.838772"
       y1="1.4315225"
       x2="22.452898"
       y2="28.529707" />
    <linearGradient
       inkscape:collect="always"
       xlink:href="#linearGradient13816"
       id="linearGradient2376"
       gradientUnits="userSpaceOnUse"
       gradientTransform="matrix(0.5070937,0,0,0.741525,4.6911566,-1.7481315)"
       x1="28.280043"
       y1="15.029495"
       x2="38.880146"
       y2="39.040752" />
    <linearGradient
       inkscape:collect="always"
       xlink:href="#linearGradient12914"
       id="linearGradient2378"
       gradientUnits="userSpaceOnUse"
       gradientTransform="matrix(0.4017821,0.2426618,3.8641107e-3,0.4370415,4.4158352,11.416657)"
       x1="12.838772"
       y1="1.4315225"
       x2="22.452898"
       y2="28.529707" />
    <linearGradient
       inkscape:collect="always"
       xlink:href="#linearGradient13816"
       id="linearGradient2390"
       gradientUnits="userSpaceOnUse"
       gradientTransform="matrix(0.5070937,0,0,0.741525,4.6911566,-1.7481315)"
       x1="28.280043"
       y1="15.029495"
       x2="38.880146"
       y2="39.040752" />
    <linearGradient
       inkscape:collect="always"
       xlink:href="#linearGradient12914"
       id="linearGradient2392"
       gradientUnits="userSpaceOnUse"
       gradientTransform="matrix(0.4017821,0.2426618,3.8641107e-3,0.4370415,4.4158352,11.416657)"
       x1="12.838772"
       y1="1.4315225"
       x2="22.452898"
       y2="28.529707" />
  </defs>
  <sodipodi:namedview
     id="base"
     pagecolor="#ffffff"
     bordercolor="#666666"
     borderopacity="1.0"
     inkscape:pageopacity="0.0"
     inkscape:pageshadow="2"
     inkscape:zoom="6.3034594"
     inkscape:cx="40.978787"
     inkscape:cy="19.931855"
     inkscape:current-layer="layer1"
     showgrid="false"
     inkscape:grid-bbox="true"
     inkscape:document-units="px"
     inkscape:window-width="906"
     inkscape:window-height="628"
     inkscape:window-x="65"
     inkscape:window-y="87"
     showguides="false" />
  <metadata
     id="metadata1877">
    <rdf:RDF>
      <cc:Work
         rdf:about="">
        <dc:format>image/svg+xml</dc:format>
        <dc:type
           rdf:resource="http://purl.org/dc/dcmitype/StillImage" />
        <cc:license
           rdf:resource="http://creativecommons.org/licenses/GPL/2.0/" />
        <dc:title>3d</dc:title>
        <dc:creator>
          <cc:Agent>
            <dc:title>Patrick Niklaus</dc:title>
          </cc:Agent>
        </dc:creator>
      </cc:Work>
      <cc:License
         rdf:about="http://creativecommons.org/licenses/GPL/2.0/">
        <cc:permits
           rdf:resource="http://web.resource.org/cc/Reproduction" />
        <cc:permits
           rdf:resource="http://web.resource.org/cc/Distribution" />
        <cc:requires
           rdf:resource="http://web.resource.org/cc/Notice" />
        <cc:permits
           rdf:resource="http://web.resource.org/cc/DerivativeWorks" />
        <cc:requires
           rdf:resource="http://web.resource.org/cc/ShareAlike" />
        <cc:requires
           rdf:resource="http://web.resource.org/cc/SourceCode" />
      </cc:License>
    </rdf:RDF>
  </metadata>
  <g
     id="layer1"
     inkscape:label="Layer 1"
     inkscape:groupmode="layer">
    <g
       style="fill:#204a87;fill-opacity:0.71345029;fill-rule:nonzero;stroke:none;stroke-miterlimit:4"
       id="g2877"
       transform="matrix(1.046774,0,0,1.046774,-59.02714,-17.02548)">
      <g
         id="g2879"
         style="opacity:0.75;fill:#204a87">
        <path
           style="fill:#204a87"
           d=""
           id="path2881" />
      </g>
      <g
         style="fill:#204a87"
         id="g2883">
        <path
           style="fill:#204a87"
           d=""
           id="path2885" />
      </g>
    </g>
    <g
       style="fill:#204a87;fill-opacity:0.71345029;fill-rule:nonzero;stroke:none;stroke-miterlimit:4"
       id="g2887"
       transform="matrix(1.046774,0,0,1.046774,-59.02714,-17.02548)">
      <g
         id="g2889"
         style="opacity:0.75;fill:#204a87">
        <path
           style="fill:#204a87"
           d=""
           id="path2891" />
      </g>
      <g
         style="fill:#204a87"
         id="g2893">
        <path
           style="fill:#204a87"
           d=""
           id="path2895" />
      </g>
    </g>
    <g
       id="g2394">
      <path
         transform="matrix(1.0318182,0,0,1.3093466,11.30855,45.604186)"
         d="M 31.173375,-7.0069871 A 18.143234,7.1748242 0 1 1 -5.1130934,-7.0069871 A 18.143234,7.1748242 0 1 1 31.173375,-7.0069871 z"
         sodipodi:ry="7.1748242"
         sodipodi:rx="18.143234"
         sodipodi:cy="-7.0069871"
         sodipodi:cx="13.030141"
         id="path5511"
         style="opacity:0.3;fill:url(#radialGradient2325);fill-opacity:1;fill-rule:evenodd;stroke:none;stroke-width:1;stroke-linecap:round;stroke-linejoin:round;stroke-miterlimit:4;stroke-dasharray:none;stroke-dashoffset:0;stroke-opacity:1"
         sodipodi:type="arc" />
      <g
         transform="matrix(1,0,0,1.0646089,0.9196729,-9.4342228e-3)"
         id="g3541">
        <rect
           width="19.454144"
           height="16.876543"
           rx="0.45285708"
           ry="0.43946517"
           x="6.7657475"
           y="10.246561"
           style="fill:#cdcfca;fill-opacity:1;fill-rule:evenodd;stroke:#454743;stroke-width:1.08376765;stroke-linecap:butt;stroke-linejoin:miter;stroke-miterlimit:4;stroke-dasharray:none;stroke-dashoffset:0;stroke-opacity:1"
           id="rect2168"
           transform="matrix(0.8559925,0.5169883,8.8411738e-3,0.9999609,0,0)" />
        <rect
           width="18.172684"
           height="15.63609"
           ry="0"
           x="7.4153833"
           y="10.857792"
           style="fill:url(#linearGradient2327);fill-opacity:1;fill-rule:evenodd;stroke:none;stroke-width:1.29999995;stroke-linecap:butt;stroke-linejoin:round;stroke-miterlimit:4;stroke-dasharray:none;stroke-dashoffset:0;stroke-opacity:1"
           id="rect8969"
           transform="matrix(0.8559925,0.5169883,8.8411738e-3,0.9999609,0,0)" />
        <path
           d="M 6.0705235,14.329606 L 6.2135389,30.271712 C 6.2281768,30.46245 6.3160698,30.574031 6.4393906,30.647332 L 22.273642,40.210644 C 22.409964,40.291533 22.488919,40.267419 22.491093,40.102762 L 22.347972,24.148721 C 22.37147,24.012097 22.238741,23.833062 22.138671,23.77835 L 6.3147483,14.216528 C 6.1869002,14.126685 6.069556,14.139376 6.0705235,14.329606 z M 6.6711537,15.098239 L 21.83683,24.374863 L 21.97217,39.331891 L 6.8166276,30.187873 L 6.6711537,15.098239 z"
           style="fill:#ffffff;fill-opacity:1;fill-rule:evenodd;stroke:none;stroke-width:1;stroke-linecap:butt;stroke-linejoin:miter;stroke-miterlimit:4;stroke-dashoffset:0;stroke-opacity:1"
           id="path44937"
           sodipodi:nodetypes="cccccccccccccc" />
        <path
           d="M 6.4693746,16.265113 L 6.4732549,16.703987 C 6.4863408,17.579286 6.6768479,18.384988 6.9013893,18.514677 L 21.616659,27.402165 C 21.841307,27.54377 22.019535,26.96077 22.017201,26.091965 L 22.01332,25.65309 C 22.000234,24.777791 21.809728,23.972089 21.585186,23.8424 L 6.8699156,14.954913 C 6.4761392,15.052097 6.4953654,15.736529 6.4693746,16.265113 z"
           style="fill:url(#linearGradient2329);fill-opacity:1;fill-rule:evenodd;stroke:none;stroke-width:2.04888678;stroke-linecap:round;stroke-linejoin:round;stroke-miterlimit:4;stroke-dasharray:none;stroke-dashoffset:0;stroke-opacity:1"
           id="rect9993" />
      </g>
      <g
         transform="matrix(1,0,0,1.0646089,0.9196729,-9.4342228e-3)"
         id="g4524">
        <rect
           width="22.59532"
           height="16.846191"
           rx="0.52597797"
           ry="0.43867481"
           x="25.990896"
           y="36.621414"
           style="fill:#cdcfca;fill-opacity:1;fill-rule:evenodd;stroke:#454743;stroke-width:1.06957543;stroke-linecap:butt;stroke-linejoin:miter;stroke-miterlimit:4;stroke-dasharray:none;stroke-dashoffset:0;stroke-opacity:1"
           id="rect2385"
           transform="matrix(0.8706939,-0.4918252,7.0349941e-3,0.9999753,0,0)" />
        <rect
           width="21.106947"
           height="15.607969"
           ry="0"
           x="26.745426"
           y="37.231548"
           style="fill:url(#linearGradient2331);fill-opacity:1;fill-rule:evenodd;stroke:none;stroke-width:1.29999995;stroke-linecap:butt;stroke-linejoin:round;stroke-miterlimit:4;stroke-dasharray:none;stroke-dashoffset:0;stroke-opacity:1"
           id="rect2387"
           transform="matrix(0.8706939,-0.4918252,7.0349941e-3,0.9999753,0,0)" />
        <path
           d="M 23.108826,24.188001 L 23.223223,40.099029 C 23.239891,40.272887 23.343527,40.273286 23.489224,40.189798 L 42.196025,29.622966 C 42.357082,29.530536 42.450608,29.405363 42.453747,29.236365 L 42.339266,13.313424 C 42.367546,13.145493 42.211079,13.134255 42.092836,13.206817 L 23.398254,23.761962 C 23.247255,23.834534 23.108336,23.997199 23.108826,24.188001 z M 23.715907,24.637425 L 41.806048,13.878003 L 41.788706,29.140734 L 23.815356,39.331423 L 23.715907,24.637425 z"
           style="fill:#ffffff;fill-opacity:1;fill-rule:evenodd;stroke:none;stroke-width:1;stroke-linecap:butt;stroke-linejoin:miter;stroke-miterlimit:4;stroke-dashoffset:0;stroke-opacity:1"
           id="path2389"
           sodipodi:nodetypes="cccccccccccccc" />
        <path
           d="M 23.574203,25.632558 L 23.577285,26.07065 C 23.58976,26.937558 23.81245,27.507634 24.077747,27.351806 L 41.462568,17.531716 C 41.727949,17.387782 41.940887,16.571634 41.941114,15.697551 L 41.938032,15.259459 C 41.925557,14.392551 41.702867,13.822475 41.437569,13.978303 L 24.052749,23.798393 C 23.586383,24.399372 23.606782,25.065758 23.574203,25.632558 z"
           style="fill:url(#linearGradient2333);fill-opacity:1;fill-rule:evenodd;stroke:none;stroke-width:2.04888678;stroke-linecap:round;stroke-linejoin:round;stroke-miterlimit:4;stroke-dasharray:none;stroke-dashoffset:0;stroke-opacity:1"
           id="path2391" />
      </g>
      <g
         transform="matrix(1,0,0,1.0378255,0.6722652,3.3058577e-2)"
         id="g5504">
        <rect
           width="23.087786"
           height="20.024612"
           rx="0.53744161"
           ry="0.52144086"
           x="-9.5840101"
           y="16.653406"
           style="fill:#cdcfca;fill-opacity:1;fill-rule:evenodd;stroke:#454743;stroke-width:1.06279826;stroke-linecap:butt;stroke-linejoin:miter;stroke-miterlimit:4;stroke-dasharray:none;stroke-dashoffset:0;stroke-opacity:1"
           id="rect2507"
           transform="matrix(0.8617665,-0.5073052,0.8498381,0.5270438,0,0)" />
        <rect
           width="21.566975"
           height="18.552769"
           ry="0"
           x="-8.813035"
           y="17.378653"
           style="fill:url(#linearGradient2335);fill-opacity:1;fill-rule:evenodd;stroke:none;stroke-width:1.29999995;stroke-linecap:butt;stroke-linejoin:round;stroke-miterlimit:4;stroke-dasharray:none;stroke-dashoffset:0;stroke-opacity:1"
           id="rect2509"
           transform="matrix(0.8617665,-0.5073052,0.8498381,0.5270438,0,0)" />
        <path
           d="M 6.592033,13.806088 L 22.669302,23.773728 C 22.869269,23.878935 23.032967,23.854261 23.179124,23.766774 L 42.097652,12.629804 C 42.259078,12.533006 42.281384,12.43188 42.11748,12.324962 L 26.028176,2.349859 C 25.904953,2.237565 25.647183,2.2681363 25.533366,2.3421564 L 6.6224156,13.468847 C 6.4569974,13.550751 6.4006256,13.686346 6.592033,13.806088 z M 7.5320573,13.653 L 25.740983,2.9750886 L 41.28126,12.468942 L 22.941925,23.159075 L 7.5320573,13.653 z"
           style="fill:#ffffff;fill-opacity:1;fill-rule:evenodd;stroke:none;stroke-width:1;stroke-linecap:butt;stroke-linejoin:miter;stroke-miterlimit:4;stroke-dashoffset:0;stroke-opacity:1"
           id="path2511"
           sodipodi:nodetypes="cccccccccccccc" />
      </g>
      <g
         id="g2352"
         transform="matrix(0.7548333,0,0,0.8115125,10.5282,10.142157)">
        <rect
           transform="matrix(0.8706939,-0.4918252,7.0349941e-3,0.9999753,0,0)"
           id="rect2354"
           style="fill:#cdcfca;fill-opacity:1;fill-rule:evenodd;stroke:#454743;stroke-width:1.06957543;stroke-linecap:butt;stroke-linejoin:miter;stroke-miterlimit:4;stroke-dasharray:none;stroke-dashoffset:0;stroke-opacity:1"
           y="36.621414"
           x="25.990896"
           ry="0.43867481"
           rx="0.52597797"
           height="16.846191"
           width="22.59532" />
        <rect
           transform="matrix(0.8706939,-0.4918252,7.0349941e-3,0.9999753,0,0)"
           id="rect2356"
           style="fill:url(#linearGradient2362);fill-opacity:1;fill-rule:evenodd;stroke:none;stroke-width:1.29999995;stroke-linecap:butt;stroke-linejoin:round;stroke-miterlimit:4;stroke-dasharray:none;stroke-dashoffset:0;stroke-opacity:1"
           y="37.231548"
           x="26.745426"
           ry="0"
           height="15.607969"
           width="21.106947" />
        <path
           sodipodi:nodetypes="cccccccccccccc"
           id="path2358"
           style="fill:#ffffff;fill-opacity:1;fill-rule:evenodd;stroke:none;stroke-width:1;stroke-linecap:butt;stroke-linejoin:miter;stroke-miterlimit:4;stroke-dashoffset:0;stroke-opacity:1"
           d="M 23.108826,24.188001 L 23.223223,40.099029 C 23.239891,40.272887 23.343527,40.273286 23.489224,40.189798 L 42.196025,29.622966 C 42.357082,29.530536 42.450608,29.405363 42.453747,29.236365 L 42.339266,13.313424 C 42.367546,13.145493 42.211079,13.134255 42.092836,13.206817 L 23.398254,23.761962 C 23.247255,23.834534 23.108336,23.997199 23.108826,24.188001 z M 23.715907,24.637425 L 41.806048,13.878003 L 41.788706,29.140734 L 23.815356,39.331423 L 23.715907,24.637425 z" />
        <path
           id="path2360"
           style="fill:url(#linearGradient2364);fill-opacity:1;fill-rule:evenodd;stroke:none;stroke-width:2.04888678;stroke-linecap:round;stroke-linejoin:round;stroke-miterlimit:4;stroke-dasharray:none;stroke-dashoffset:0;stroke-opacity:1"
           d="M 23.574203,25.632558 L 23.577285,26.07065 C 23.58976,26.937558 23.81245,27.507634 24.077747,27.351806 L 41.462568,17.531716 C 41.727949,17.387782 41.940887,16.571634 41.941114,15.697551 L 41.938032,15.259459 C 41.925557,14.392551 41.702867,13.822475 41.437569,13.978303 L 24.052749,23.798393 C 23.586383,24.399372 23.606782,25.065758 23.574203,25.632558 z" />
      </g>
      <g
         transform="matrix(0.773588,0,0,0.8542809,0.6680128,8.6531039)"
         id="g2380">
        <rect
           width="19.454144"
           height="16.876543"
           rx="0.45285708"
           ry="0.43946517"
           x="6.7657475"
           y="10.246561"
           style="fill:#cdcfca;fill-opacity:1;fill-rule:evenodd;stroke:#454743;stroke-width:1.08376765;stroke-linecap:butt;stroke-linejoin:miter;stroke-miterlimit:4;stroke-dasharray:none;stroke-dashoffset:0;stroke-opacity:1"
           id="rect2382"
           transform="matrix(0.8559925,0.5169883,8.8411738e-3,0.9999609,0,0)" />
        <rect
           width="18.172684"
           height="15.63609"
           ry="0"
           x="7.4153833"
           y="10.857792"
           style="fill:url(#linearGradient2390);fill-opacity:1;fill-rule:evenodd;stroke:none;stroke-width:1.29999995;stroke-linecap:butt;stroke-linejoin:round;stroke-miterlimit:4;stroke-dasharray:none;stroke-dashoffset:0;stroke-opacity:1"
           id="rect2384"
           transform="matrix(0.8559925,0.5169883,8.8411738e-3,0.9999609,0,0)" />
        <path
           d="M 6.0705235,14.329606 L 6.2135389,30.271712 C 6.2281768,30.46245 6.3160698,30.574031 6.4393906,30.647332 L 22.273642,40.210644 C 22.409964,40.291533 22.488919,40.267419 22.491093,40.102762 L 22.347972,24.148721 C 22.37147,24.012097 22.238741,23.833062 22.138671,23.77835 L 6.3147483,14.216528 C 6.1869002,14.126685 6.069556,14.139376 6.0705235,14.329606 z M 6.6711537,15.098239 L 21.83683,24.374863 L 21.97217,39.331891 L 6.8166276,30.187873 L 6.6711537,15.098239 z"
           style="fill:#ffffff;fill-opacity:1;fill-rule:evenodd;stroke:none;stroke-width:1;stroke-linecap:butt;stroke-linejoin:miter;stroke-miterlimit:4;stroke-dashoffset:0;stroke-opacity:1"
           id="path2386"
           sodipodi:nodetypes="cccccccccccccc" />
        <path
           d="M 6.4693746,16.265113 L 6.4732549,16.703987 C 6.4863408,17.579286 6.6768479,18.384988 6.9013893,18.514677 L 21.616659,27.402165 C 21.841307,27.54377 22.019535,26.96077 22.017201,26.091965 L 22.01332,25.65309 C 22.000234,24.777791 21.809728,23.972089 21.585186,23.8424 L 6.8699156,14.954913 C 6.4761392,15.052097 6.4953654,15.736529 6.4693746,16.265113 z"
           style="fill:url(#linearGradient2392);fill-opacity:1;fill-rule:evenodd;stroke:none;stroke-width:2.04888678;stroke-linecap:round;stroke-linejoin:round;stroke-miterlimit:4;stroke-dasharray:none;stroke-dashoffset:0;stroke-opacity:1"
           id="path2388" />
      </g>
      <g
         id="g2366"
         transform="matrix(0.5150268,0,0,0.5816229,0.7930212,20.867259)">
        <rect
           transform="matrix(0.8559925,0.5169883,8.8411738e-3,0.9999609,0,0)"
           id="rect2368"
           style="fill:#cdcfca;fill-opacity:1;fill-rule:evenodd;stroke:#454743;stroke-width:1.08376765;stroke-linecap:butt;stroke-linejoin:miter;stroke-miterlimit:4;stroke-dasharray:none;stroke-dashoffset:0;stroke-opacity:1"
           y="10.246561"
           x="6.7657475"
           ry="0.43946517"
           rx="0.45285708"
           height="16.876543"
           width="19.454144" />
        <rect
           transform="matrix(0.8559925,0.5169883,8.8411738e-3,0.9999609,0,0)"
           id="rect2370"
           style="fill:url(#linearGradient2376);fill-opacity:1;fill-rule:evenodd;stroke:none;stroke-width:1.29999995;stroke-linecap:butt;stroke-linejoin:round;stroke-miterlimit:4;stroke-dasharray:none;stroke-dashoffset:0;stroke-opacity:1"
           y="10.857792"
           x="7.4153833"
           ry="0"
           height="15.63609"
           width="18.172684" />
        <path
           sodipodi:nodetypes="cccccccccccccc"
           id="path2372"
           style="fill:#ffffff;fill-opacity:1;fill-rule:evenodd;stroke:none;stroke-width:1;stroke-linecap:butt;stroke-linejoin:miter;stroke-miterlimit:4;stroke-dashoffset:0;stroke-opacity:1"
           d="M 6.0705235,14.329606 L 6.2135389,30.271712 C 6.2281768,30.46245 6.3160698,30.574031 6.4393906,30.647332 L 22.273642,40.210644 C 22.409964,40.291533 22.488919,40.267419 22.491093,40.102762 L 22.347972,24.148721 C 22.37147,24.012097 22.238741,23.833062 22.138671,23.77835 L 6.3147483,14.216528 C 6.1869002,14.126685 6.069556,14.139376 6.0705235,14.329606 z M 6.6711537,15.098239 L 21.83683,24.374863 L 21.97217,39.331891 L 6.8166276,30.187873 L 6.6711537,15.098239 z" />
        <path
           id="path2374"
           style="fill:url(#linearGradient2378);fill-opacity:1;fill-rule:evenodd;stroke:none;stroke-width:2.04888678;stroke-linecap:round;stroke-linejoin:round;stroke-miterlimit:4;stroke-dasharray:none;stroke-dashoffset:0;stroke-opacity:1"
           d="M 6.4693746,16.265113 L 6.4732549,16.703987 C 6.4863408,17.579286 6.6768479,18.384988 6.9013893,18.514677 L 21.616659,27.402165 C 21.841307,27.54377 22.019535,26.96077 22.017201,26.091965 L 22.01332,25.65309 C 22.000234,24.777791 21.809728,23.972089 21.585186,23.8424 L 6.8699156,14.954913 C 6.4761392,15.052097 6.4953654,15.736529 6.4693746,16.265113 z" />
      </g>
    </g>
  </g>
</svg>
