<?xml version="1.0" encoding="UTF-8" standalone="no"?>
<!-- Created with Inkscape (http://www.inkscape.org/) -->
<svg
   xmlns:dc="http://purl.org/dc/elements/1.1/"
   xmlns:cc="http://web.resource.org/cc/"
   xmlns:rdf="http://www.w3.org/1999/02/22-rdf-syntax-ns#"
   xmlns:svg="http://www.w3.org/2000/svg"
   xmlns="http://www.w3.org/2000/svg"
   xmlns:xlink="http://www.w3.org/1999/xlink"
   xmlns:sodipodi="http://sodipodi.sourceforge.net/DTD/sodipodi-0.dtd"
   xmlns:inkscape="http://www.inkscape.org/namespaces/inkscape"
   version="1.0"
   width="48"
   height="48"
   id="svg2160"
   sodipodi:version="0.32"
   inkscape:version="0.45"
   sodipodi:docname="plugin-resizeinfo.svg"
   sodipodi:docbase="/home/patrick/Projects/Fusion/config/ccsm/images"
   inkscape:export-filename="/home/mark/beryl/resize.png"
   inkscape:export-xdpi="180"
   inkscape:export-ydpi="180"
   inkscape:output_extension="org.inkscape.output.svg.inkscape"
   sodipodi:modified="true">
  <metadata
     id="metadata68">
    <rdf:RDF>
      <cc:Work
         rdf:about="">
        <dc:format>image/svg+xml</dc:format>
        <dc:type
           rdf:resource="http://purl.org/dc/dcmitype/StillImage" />
      </cc:Work>
    </rdf:RDF>
  </metadata>
  <sodipodi:namedview
     inkscape:window-height="724"
     inkscape:window-width="1280"
     inkscape:pageshadow="2"
     inkscape:pageopacity="0.0"
     guidetolerance="10.0"
     gridtolerance="10.0"
     objecttolerance="10.0"
     borderopacity="1.0"
     bordercolor="#666666"
     pagecolor="#ffffff"
     id="base"
     inkscape:zoom="0.99999996"
     inkscape:cx="37.220716"
     inkscape:cy="36.904128"
     inkscape:window-x="0"
     inkscape:window-y="49"
     inkscape:current-layer="svg2160"
     showgrid="false"
     showguides="true"
     inkscape:guide-bbox="true" />
  <defs
     id="defs2162">
    <linearGradient
       id="linearGradient3571">
      <stop
         style="stop-color:#b3b3b3;stop-opacity:0.55686277;"
         offset="0"
         id="stop3573" />
      <stop
         style="stop-color:#858585;stop-opacity:0.55686277;"
         offset="1"
         id="stop3575" />
    </linearGradient>
    <linearGradient
       id="linearGradient8553">
      <stop
         id="stop8555"
         offset="0"
         style="stop-color:#3465a4;stop-opacity:0.70588237;" />
      <stop
         style="stop-color:#3465a4;stop-opacity:0.83505154;"
         offset="0.5"
         id="stop8559" />
      <stop
         id="stop8557"
         offset="1"
         style="stop-color:#3465a4;stop-opacity:1;" />
    </linearGradient>
    <linearGradient
       id="linearGradient12914">
      <stop
         style="stop-color:#3465a4;stop-opacity:1"
         offset="0"
         id="stop12916" />
      <stop
         style="stop-color:#3465a4;stop-opacity:0"
         offset="1"
         id="stop12918" />
    </linearGradient>
    <linearGradient
       id="linearGradient51765">
      <stop
         style="stop-color:#000000;stop-opacity:1"
         offset="0"
         id="stop51767" />
      <stop
         style="stop-color:#000000;stop-opacity:0"
         offset="1"
         id="stop51769" />
    </linearGradient>
    <linearGradient
       id="linearGradient47870">
      <stop
         style="stop-color:#000000;stop-opacity:0"
         offset="0"
         id="stop47872" />
      <stop
         style="stop-color:#000000;stop-opacity:1"
         offset="0.5"
         id="stop47878" />
      <stop
         style="stop-color:#000000;stop-opacity:0"
         offset="1"
         id="stop47874" />
    </linearGradient>
    <linearGradient
       id="linearGradient13816">
      <stop
         style="stop-color:#f7f7f6;stop-opacity:1"
         offset="0"
         id="stop13818" />
      <stop
         style="stop-color:#eff0ee;stop-opacity:0"
         offset="1"
         id="stop13820" />
    </linearGradient>
    <linearGradient
       x1="32.084972"
       y1="-14.402173"
       x2="32.084972"
       y2="-5.5633383"
       id="linearGradient54729"
       xlink:href="#linearGradient47870"
       gradientUnits="userSpaceOnUse"
       gradientTransform="matrix(0.9788196,0,0,0.7154223,-8.5008021,52.112719)" />
    <radialGradient
       cx="51.4375"
       cy="-12.203125"
       r="2.171875"
       fx="51.4375"
       fy="-12.203125"
       id="radialGradient54731"
       xlink:href="#linearGradient51765"
       gradientUnits="userSpaceOnUse"
       gradientTransform="matrix(1.9576392,-8.146468e-7,6.6614241e-7,1.4565793,-59.017557,62.738067)" />
    <radialGradient
       cx="51.4375"
       cy="-12.203125"
       r="2.171875"
       fx="51.4375"
       fy="-12.203125"
       id="radialGradient54733"
       xlink:href="#linearGradient51765"
       gradientUnits="userSpaceOnUse"
       gradientTransform="matrix(-1.9576392,-9.2540676e-8,-1.2888861e-7,1.4565793,110.01781,62.73803)" />
    <linearGradient
       inkscape:collect="always"
       xlink:href="#linearGradient12914"
       id="linearGradient2226"
       gradientUnits="userSpaceOnUse"
       gradientTransform="matrix(1.0700727,0,0,1.0115097,-1.8986825,-1.5194787)"
       x1="12.838772"
       y1="1.4315225"
       x2="22.452898"
       y2="28.529707" />
    <linearGradient
       inkscape:collect="always"
       xlink:href="#linearGradient13816"
       id="linearGradient2230"
       gradientUnits="userSpaceOnUse"
       gradientTransform="matrix(1.1560613,0,0,1.7161538,-2.7575076,-25.924613)"
       x1="28.280043"
       y1="15.029495"
       x2="38.880146"
       y2="39.040752" />
    <linearGradient
       inkscape:collect="always"
       xlink:href="#linearGradient8553"
       id="linearGradient3180"
       x1="33.524208"
       y1="29.414341"
       x2="47.904255"
       y2="41.965485"
       gradientUnits="userSpaceOnUse"
       gradientTransform="translate(-0.4419418,-0.4861359)" />
    <radialGradient
       inkscape:collect="always"
       xlink:href="#linearGradient3571"
       id="radialGradient3577"
       cx="14.55146"
       cy="14.351469"
       fx="14.55146"
       fy="14.351469"
       r="11.336102"
       gradientTransform="matrix(-8.7381873e-2,1.0874593,-1.6342186,-0.1776136,41.416962,5.1170106)"
       gradientUnits="userSpaceOnUse" />
  </defs>
  <g
     style="opacity:0.7"
     id="g54724"
     transform="matrix(1.1625728,0,0,1.3618401,-5.283953,-20.031337)">
    <rect
       id="rect46899"
       style="opacity:0.3;fill:url(#linearGradient54729);fill-opacity:1;fill-rule:evenodd;stroke:none;stroke-width:1.02400005;stroke-linecap:butt;stroke-linejoin:miter;stroke-miterlimit:4;stroke-dasharray:none;stroke-dashoffset:0;stroke-opacity:1"
       y="41.809082"
       x="9.3215466"
       height="6.3234997"
       width="32.357079" />
    <path
       id="path48849"
       style="opacity:0.3;fill:url(#radialGradient54731);fill-opacity:1;fill-rule:evenodd;stroke:none;stroke-width:1.02400005;stroke-linecap:butt;stroke-linejoin:miter;stroke-miterlimit:4;stroke-dasharray:none;stroke-dashoffset:0;stroke-opacity:1"
       d="M 41.6785,41.799698 L 41.6785,48.126714 C 44.022298,48.102828 45.930248,46.705313 45.930248,44.974385 C 45.930248,43.243458 44.022299,41.823584 41.6785,41.799698 z" />
    <path
       id="path52742"
       style="opacity:0.3;fill:url(#radialGradient54733);fill-opacity:1;fill-rule:evenodd;stroke:none;stroke-width:1.02400005;stroke-linecap:butt;stroke-linejoin:miter;stroke-miterlimit:4;stroke-dasharray:none;stroke-dashoffset:0;stroke-opacity:1"
       d="M 9.3217476,41.799698 L 9.3217476,48.126714 C 6.9779494,48.102828 5.07,46.705313 5.07,44.974385 C 5.07,43.243458 6.9779484,41.823584 9.3217476,41.799698 z" />
  </g>
  <rect
     id="rect2168"
     style="opacity:1;fill:#cdcfca;fill-opacity:1;fill-rule:evenodd;stroke:#454743;stroke-width:1;stroke-linecap:butt;stroke-linejoin:miter;stroke-miterlimit:4;stroke-dasharray:none;stroke-dashoffset:0;stroke-opacity:1"
     y="1.8353919"
     x="1.9720987"
     ry="1.0170795"
     rx="1.0324137"
     height="39.058353"
     width="44.351135" />
  <rect
     id="rect8969"
     style="opacity:1;fill:url(#linearGradient2230);fill-opacity:1;fill-rule:evenodd;stroke:none;stroke-width:1.29999994999999990;stroke-linecap:butt;stroke-linejoin:round;stroke-miterlimit:4;stroke-dasharray:none;stroke-dashoffset:0;stroke-opacity:1"
     y="3.25"
     x="3.453125"
     ry="0"
     height="36.1875"
     width="41.429691" />
  <path
     id="path44937"
     style="opacity:1;fill:#ffffff;fill-opacity:1;fill-rule:evenodd;stroke:none;stroke-width:1;stroke-linecap:butt;stroke-linejoin:miter;stroke-miterlimit:4;stroke-dashoffset:0;stroke-opacity:1"
     d="M 2.4629728,2.9331736 L 2.4684971,39.827448 C 2.5031756,40.250699 2.7358775,40.386815 3.0643477,40.384068 L 45.235962,40.384068 C 45.599063,40.380709 45.811046,40.213639 45.820764,39.827448 L 45.81524,2.9055523 C 45.881393,2.5546223 45.530236,2.3245592 45.263583,2.337884 L 3.1195904,2.3268355 C 2.7793888,2.297454 2.464886,2.4918929 2.4629728,2.9331736 z M 3.4574659,3.2622831 L 44.889719,3.2466581 L 44.881906,39.442703 L 3.4574659,39.434891 L 3.4574659,3.2622831 z" />
  <path
     id="rect9993"
     style="opacity:1;fill:url(#linearGradient2226);fill-opacity:1;fill-rule:evenodd;stroke:none;stroke-width:2.04888678000000013;stroke-linecap:round;stroke-linejoin:round;stroke-miterlimit:4;stroke-dasharray:none;stroke-dashoffset:0;stroke-opacity:1"
     d="M 3.4851207,6.8763289 L 3.4851207,7.8920817 C 3.4994378,9.9103999 3.9904675,11.517439 4.5886332,11.50365 L 43.780045,11.50365 C 44.378212,11.517439 44.86924,9.9103999 44.883558,7.8920817 L 44.883558,6.8763289 C 44.86924,4.8580109 44.378212,3.2509719 43.780045,3.2647608 L 4.5886332,3.2647608 C 3.5319511,4.0442893 3.5672277,5.6098563 3.4851207,6.8763289 z" />
  <rect
     style="opacity:1;fill:url(#radialGradient3577);fill-opacity:1;fill-rule:evenodd;stroke:#969696;stroke-width:0.87307268;stroke-linecap:round;stroke-linejoin:round;stroke-miterlimit:4;stroke-dasharray:none;stroke-dashoffset:0;stroke-opacity:1"
     id="rect3195"
     width="17.54545"
     height="8.5891027"
     x="15.205514"
     y="16.922188"
     rx="2.0745566"
     ry="2.4126995" />
  <path
     style="fill:url(#linearGradient3180);fill-opacity:1;fill-rule:evenodd;stroke:#3232cb;stroke-width:0.5;stroke-linecap:butt;stroke-linejoin:round;stroke-miterlimit:4;stroke-dasharray:none;stroke-opacity:1"
     d="M 30.503838,31.522911 L 34.752135,35.409489 L 32.005151,38.321003 L 43.765166,38.321003 L 43.765166,26.432487 L 40.841405,29.586461 L 36.416332,25.545811 L 30.503838,31.522911 z"
     id="path6755"
     sodipodi:nodetypes="cccccccc" />
  <path
     style="font-size:6.5151701px;font-style:normal;font-weight:normal;fill:#ffffff;fill-opacity:1;stroke:none;stroke-width:1px;stroke-linecap:butt;stroke-linejoin:miter;stroke-opacity:1;font-family:Sans"
     d="M 17.416393,23.701492 L 17.416393,22.710878 C 17.636528,22.813768 17.847093,22.891534 18.048088,22.944174 C 18.249081,22.994425 18.447682,23.019548 18.643892,23.019547 C 19.05545,23.019548 19.376083,22.905891 19.605793,22.678575 C 19.835497,22.448869 19.97069,22.109094 20.011371,21.659248 C 19.848658,21.778889 19.675181,21.868619 19.49094,21.928437 C 19.306692,21.988258 19.106894,22.018167 18.891546,22.018166 C 18.343596,22.018167 17.90093,21.859048 17.563549,21.540804 C 17.228558,21.220174 17.061063,20.799044 17.061063,20.277413 C 17.061063,19.700756 17.2477,19.238947 17.620976,18.891989 C 17.996642,18.54504 18.499127,18.371563 19.128432,18.371558 C 19.827123,18.371563 20.367892,18.607252 20.750742,19.078626 C 21.133584,19.55001 21.325007,20.216401 21.325011,21.0778 C 21.325007,21.963133 21.101281,22.659435 20.653834,23.166704 C 20.20638,23.671583 19.59263,23.924022 18.812584,23.924022 C 18.561339,23.924022 18.320864,23.904879 18.091159,23.866595 C 17.86145,23.830703 17.636528,23.775669 17.416393,23.701492 M 19.121253,21.120871 C 19.362922,21.120873 19.544775,21.043108 19.666809,20.887574 C 19.788838,20.729653 19.849854,20.493964 19.849857,20.180505 C 19.849854,19.869447 19.788838,19.634953 19.666809,19.477025 C 19.544775,19.319106 19.362922,19.240144 19.121253,19.24014 C 18.87958,19.240144 18.697728,19.319106 18.575699,19.477025 C 18.453664,19.634953 18.392648,19.869447 18.39265,20.180505 C 18.392648,20.493964 18.453664,20.729653 18.575699,20.887574 C 18.697728,21.043108 18.87958,21.120873 19.121253,21.120871 M 23.424683,21.763334 L 21.974654,19.800052 L 23.334953,19.800052 L 24.156876,20.99166 L 24.989565,19.800052 L 26.349866,19.800052 L 24.899837,21.756156 L 26.421649,23.819935 L 25.061349,23.819935 L 24.156876,22.549365 L 23.263169,23.819935 L 21.90287,23.819935 L 23.424683,21.763334 M 27.021043,18.461287 L 31.058871,18.461287 L 31.058871,19.24014 L 28.969968,23.819935 L 27.624025,23.819935 L 29.601664,19.477025 L 27.021043,19.477025 L 27.021043,18.461287"
     id="text4151" />
</svg>
