<?xml version="1.0" encoding="UTF-8" standalone="no"?>
<!-- Created with Inkscape (http://www.inkscape.org/) -->
<svg
   xmlns:dc="http://purl.org/dc/elements/1.1/"
   xmlns:cc="http://web.resource.org/cc/"
   xmlns:rdf="http://www.w3.org/1999/02/22-rdf-syntax-ns#"
   xmlns:svg="http://www.w3.org/2000/svg"
   xmlns="http://www.w3.org/2000/svg"
   xmlns:xlink="http://www.w3.org/1999/xlink"
   xmlns:sodipodi="http://sodipodi.sourceforge.net/DTD/sodipodi-0.dtd"
   xmlns:inkscape="http://www.inkscape.org/namespaces/inkscape"
   inkscape:export-ydpi="90.000000"
   inkscape:export-xdpi="90.000000"
   inkscape:export-filename="/home/patrick/Desktop/desktop.png"
   width="48px"
   height="48px"
   id="svg11300"
   sodipodi:version="0.32"
   inkscape:version="0.45+devel"
   sodipodi:docbase="/home/patrick/Projects/Beryl/svn/beryl/trunk/beryl-settings/images"
   sodipodi:docname="plugin-schemep.svg"
   inkscape:output_extension="org.inkscape.output.svg.inkscape">
  <defs
     id="defs3">
    <linearGradient
       id="linearGradient3990">
      <stop
         style="stop-color:#6795cf;stop-opacity:1;"
         offset="0"
         id="stop3992" />
      <stop
         style="stop-color:#3465a4;stop-opacity:1;"
         offset="1"
         id="stop3994" />
    </linearGradient>
    <linearGradient
       id="linearGradient8440">
      <stop
         style="stop-color:#edeeec;stop-opacity:1;"
         offset="0"
         id="stop8442" />
      <stop
         style="stop-color:#babdb6;stop-opacity:1;"
         offset="1"
         id="stop8444" />
    </linearGradient>
    <linearGradient
       id="linearGradient51765">
      <stop
         style="stop-color:#000000;stop-opacity:1"
         offset="0"
         id="stop51767" />
      <stop
         style="stop-color:#000000;stop-opacity:0"
         offset="1"
         id="stop51769" />
    </linearGradient>
    <linearGradient
       id="linearGradient47870">
      <stop
         style="stop-color:#000000;stop-opacity:0"
         offset="0"
         id="stop47872" />
      <stop
         style="stop-color:#000000;stop-opacity:1"
         offset="0.5"
         id="stop47878" />
      <stop
         style="stop-color:#000000;stop-opacity:0"
         offset="1"
         id="stop47874" />
    </linearGradient>
    <radialGradient
       inkscape:collect="always"
       xlink:href="#linearGradient8440"
       id="radialGradient2489"
       gradientUnits="userSpaceOnUse"
       gradientTransform="matrix(0.664143,0.4987188,-0.6514275,0.8675051,-6.5927319,-24.793918)"
       cx="56.704376"
       cy="10.241054"
       fx="56.704376"
       fy="10.241054"
       r="14.75" />
    <linearGradient
       id="linearGradient6159">
      <stop
         id="stop6161"
         offset="0"
         style="stop-color:#aeaea6;stop-opacity:1;" />
      <stop
         id="stop6163"
         offset="1"
         style="stop-color:#eeeeec;stop-opacity:1;" />
    </linearGradient>
    <linearGradient
       id="linearGradient11995">
      <stop
         id="stop11997"
         offset="0"
         style="stop-color:#f2f2f0;stop-opacity:1;" />
      <stop
         id="stop11999"
         offset="1"
         style="stop-color:#eeeeec;stop-opacity:0;" />
    </linearGradient>
    <linearGradient
       inkscape:collect="always"
       xlink:href="#linearGradient47870"
       id="linearGradient2543"
       gradientUnits="userSpaceOnUse"
       gradientTransform="matrix(0.982794,0,0,0.9842658,-9.9809772,53.029792)"
       x1="32.084972"
       y1="-14.402173"
       x2="32.084972"
       y2="-5.5633383" />
    <radialGradient
       inkscape:collect="always"
       xlink:href="#linearGradient51765"
       id="radialGradient2545"
       gradientUnits="userSpaceOnUse"
       gradientTransform="matrix(1.965588,-1.1207771e-6,6.6884721e-7,2.0039369,-60.70285,67.647964)"
       cx="51.4375"
       cy="-12.203125"
       fx="51.4375"
       fy="-12.203125"
       r="2.171875" />
    <radialGradient
       inkscape:collect="always"
       xlink:href="#linearGradient51765"
       id="radialGradient2547"
       gradientUnits="userSpaceOnUse"
       gradientTransform="matrix(-1.965588,-1.2731588e-7,-1.2941195e-7,2.0039369,109.01887,67.647913)"
       cx="51.4375"
       cy="-12.203125"
       fx="51.4375"
       fy="-12.203125"
       r="2.171875" />
    <linearGradient
       inkscape:collect="always"
       xlink:href="#linearGradient6159"
       id="linearGradient2549"
       gradientUnits="userSpaceOnUse"
       x1="101.05743"
       y1="66.738335"
       x2="10.834411"
       y2="5.3968143" />
    <radialGradient
       inkscape:collect="always"
       xlink:href="#linearGradient11995"
       id="radialGradient2551"
       gradientUnits="userSpaceOnUse"
       gradientTransform="matrix(6.2470754e-3,1.3863151,-3.5482495,1.5989371e-2,44.592567,-6.9594387)"
       cx="9.8119087"
       cy="9.8194771"
       fx="9.8119087"
       fy="9.8194771"
       r="17.890625" />
    <radialGradient
       inkscape:collect="always"
       xlink:href="#linearGradient3990"
       id="radialGradient3996"
       cx="-45.669922"
       cy="10.424097"
       fx="-45.669922"
       fy="10.424097"
       r="13.104429"
       gradientTransform="matrix(0.1335212,1.9792355,-2.5923623,0.1748831,-12.548984,95.697096)"
       gradientUnits="userSpaceOnUse" />
    <radialGradient
       inkscape:collect="always"
       xlink:href="#linearGradient3990"
       id="radialGradient4002"
       gradientUnits="userSpaceOnUse"
       gradientTransform="matrix(0.1335212,1.9792355,-2.5923623,0.1748831,-12.548984,95.697096)"
       cx="-45.669922"
       cy="10.424097"
       fx="-45.669922"
       fy="10.424097"
       r="13.104429" />
  </defs>
  <sodipodi:namedview
     stroke="#ef2929"
     fill="#eeeeec"
     id="base"
     pagecolor="#ffffff"
     bordercolor="#666666"
     borderopacity="0.25490196"
     inkscape:pageopacity="0.0"
     inkscape:pageshadow="2"
     inkscape:zoom="0.99999995"
     inkscape:cx="7.9999955"
     inkscape:cy="24.720586"
     inkscape:current-layer="layer1"
     showgrid="false"
     inkscape:grid-bbox="true"
     inkscape:document-units="px"
     inkscape:showpageshadow="false"
     inkscape:window-width="906"
     inkscape:window-height="662"
     inkscape:window-x="255"
     inkscape:window-y="76"
     showguides="true"
     inkscape:guide-bbox="true" />
  <metadata
     id="metadata4">
    <rdf:RDF>
      <cc:Work
         rdf:about="">
        <dc:format>image/svg+xml</dc:format>
        <dc:type
           rdf:resource="http://purl.org/dc/dcmitype/StillImage" />
        <dc:creator>
          <cc:Agent>
            <dc:title>Patrick Niklaus</dc:title>
          </cc:Agent>
        </dc:creator>
        <dc:source />
        <cc:license
           rdf:resource="http://creativecommons.org/licenses/GPL/2.0/" />
        <dc:title>SchemeP</dc:title>
        <dc:subject>
          <rdf:Bag />
        </dc:subject>
      </cc:Work>
      <cc:License
         rdf:about="http://creativecommons.org/licenses/GPL/2.0/">
        <cc:permits
           rdf:resource="http://web.resource.org/cc/Reproduction" />
        <cc:permits
           rdf:resource="http://web.resource.org/cc/Distribution" />
        <cc:requires
           rdf:resource="http://web.resource.org/cc/Notice" />
        <cc:permits
           rdf:resource="http://web.resource.org/cc/DerivativeWorks" />
        <cc:requires
           rdf:resource="http://web.resource.org/cc/ShareAlike" />
        <cc:requires
           rdf:resource="http://web.resource.org/cc/SourceCode" />
      </cc:License>
    </rdf:RDF>
  </metadata>
  <g
     id="layer1"
     inkscape:label="Layer 1"
     inkscape:groupmode="layer">
    <g
       inkscape:label="Layer 1"
       id="g2529"
       transform="matrix(0.9312144,0,0,0.9182203,-1.7392405,2.1066888)">
      <g
         transform="matrix(0.9396322,0,0,1,1.1552727,0.4559792)"
         id="g7423">
        <rect
           id="rect46899"
           style="opacity:0.4;fill:url(#linearGradient2543);fill-opacity:1;fill-rule:evenodd;stroke:none;stroke-width:1.02400005;stroke-linecap:butt;stroke-linejoin:miter;stroke-miterlimit:4;stroke-dasharray:none;stroke-dashoffset:0;stroke-opacity:1"
           y="38.854225"
           x="7.9137373"
           height="8.6997623"
           width="32.488461" />
        <path
           id="path48849"
           style="opacity:0.4;fill:url(#radialGradient2545);fill-opacity:1;fill-rule:evenodd;stroke:none;stroke-width:1.02400005;stroke-linecap:butt;stroke-linejoin:miter;stroke-miterlimit:4;stroke-dasharray:none;stroke-dashoffset:0;stroke-opacity:1"
           d="M 40.402073,38.841314 L 40.402073,47.545914 C 42.755388,47.513052 44.671085,45.590375 44.671085,43.208994 C 44.671085,40.827614 42.755389,38.874176 40.402073,38.841314 z" />
        <path
           id="path52742"
           style="opacity:0.4;fill:url(#radialGradient2547);fill-opacity:1;fill-rule:evenodd;stroke:none;stroke-width:1.02400005;stroke-linecap:butt;stroke-linejoin:miter;stroke-miterlimit:4;stroke-dasharray:none;stroke-dashoffset:0;stroke-opacity:1"
           d="M 7.9139392,38.841314 L 7.9139392,47.545914 C 5.5606243,47.513052 3.6449278,45.590375 3.6449278,43.208994 C 3.6449278,40.827614 5.5606233,38.874176 7.9139392,38.841314 z" />
      </g>
      <g
         transform="translate(-0.5003605,-0.3335737)"
         id="g15920">
        <rect
           style="opacity:1;fill:url(#linearGradient2549);fill-opacity:1;fill-rule:evenodd;stroke:#555753;stroke-width:1;stroke-linecap:round;stroke-linejoin:round;stroke-miterlimit:4;stroke-dasharray:none;stroke-dashoffset:0;stroke-opacity:1"
           id="rect2280"
           width="36.763309"
           height="44.629875"
           x="6.0980158"
           y="1.2898779"
           rx="2.6324642"
           ry="2.8908169" />
        <path
           sodipodi:type="inkscape:offset"
           inkscape:radius="-1"
           inkscape:original="M 8.71875 1.28125 C 7.2603648 1.28125 6.09375 2.5859877 6.09375 4.1875 L 6.09375 43.03125 C 6.09375 44.632763 7.2603646 45.906249 8.71875 45.90625 L 40.21875 45.90625 C 41.677135 45.90625 42.875001 44.632764 42.875 43.03125 L 42.875 4.1875 C 42.875 2.5859874 41.677133 1.28125 40.21875 1.28125 L 8.71875 1.28125 z "
           style="opacity:1;fill:url(#radialGradient2551);fill-opacity:1;fill-rule:evenodd;stroke:#ffffff;stroke-width:1;stroke-linecap:round;stroke-linejoin:round;stroke-miterlimit:4;stroke-dasharray:none;stroke-dashoffset:0;stroke-opacity:1"
           id="path10047"
           d="M 8.71875,2.28125 C 7.8567951,2.28125 7.09375,3.0716182 7.09375,4.1875 L 7.09375,43.03125 C 7.09375,44.147133 7.8425085,44.906249 8.71875,44.90625 L 40.21875,44.90625 C 41.094991,44.90625 41.875001,44.134125 41.875,43.03125 L 41.875,4.1875 C 41.875,3.0846272 41.080702,2.28125 40.21875,2.28125 L 8.71875,2.28125 z" />
        <rect
           style="opacity:1;fill:#a4a4a4;fill-opacity:1;fill-rule:evenodd;stroke:none;stroke-width:0.2;stroke-linecap:round;stroke-linejoin:round;stroke-miterlimit:4;stroke-dasharray:none;stroke-dashoffset:0;stroke-opacity:1"
           id="rect12006"
           width="1.5818895"
           height="2.6723526"
           x="8.2385483"
           y="7.3459086"
           rx="0.69999999"
           ry="0.69999999" />
        <rect
           style="opacity:1;fill:#a4a4a4;fill-opacity:1;fill-rule:evenodd;stroke:none;stroke-width:1.50999999;stroke-linecap:round;stroke-linejoin:round;stroke-miterlimit:4;stroke-dasharray:none;stroke-dashoffset:0;stroke-opacity:1"
           id="rect13952"
           width="1.5818895"
           height="2.6723526"
           x="8.2555285"
           y="36.875126"
           rx="0.69999999"
           ry="0.69999999" />
        <rect
           style="opacity:1;fill:#a4a4a4;fill-opacity:1;fill-rule:evenodd;stroke:none;stroke-width:1.50999999;stroke-linecap:round;stroke-linejoin:round;stroke-miterlimit:4;stroke-dasharray:none;stroke-dashoffset:0;stroke-opacity:1"
           id="rect13954"
           width="1.5818895"
           height="2.6723526"
           x="8.2555285"
           y="16.94392"
           rx="0.69999999"
           ry="0.69999999" />
        <rect
           style="opacity:1;fill:#a4a4a4;fill-opacity:1;fill-rule:evenodd;stroke:none;stroke-width:1.50999999;stroke-linecap:round;stroke-linejoin:round;stroke-miterlimit:4;stroke-dasharray:none;stroke-dashoffset:0;stroke-opacity:1"
           id="rect13956"
           width="1.5818895"
           height="2.6723526"
           x="8.2555285"
           y="27.204365"
           rx="0.69999999"
           ry="0.69999999" />
        <path
           style="fill:none;fill-rule:evenodd;stroke:#ffffff;stroke-width:0.48995638;stroke-linecap:butt;stroke-linejoin:miter;stroke-miterlimit:4;stroke-dasharray:none;stroke-opacity:1"
           d="M 11.591687,2.6239845 L 11.591687,44.424073"
           id="path13960" />
      </g>
    </g>
    <g
       id="g3998"
       transform="translate(60.125003,3.6250002)">
      <path
         sodipodi:nodetypes="cczccccczcczczc"
         d="M -27.621759,27.590962 L -25.022154,27.590961 C -25.288627,31.010648 -26.89869,36.911669 -30.616151,36.863858 C -34.396102,36.815244 -35.152059,32.871349 -36.077915,29.553811 L -37.583222,23.320563 L -43.036207,36.850655 L -50.231011,36.850655 L -39.685701,13.879508 C -40.018607,11.008881 -41.860328,8.4018793 -43.372072,8.3149173 C -44.883816,8.2279553 -46.052927,9.3871078 -46.856888,11.909529 L -49.643993,11.847029 C -49.624724,7.3039149 -47.077727,2.1253519 -42.355549,2.1417576 C -37.570872,2.1583804 -36.640308,6.5513257 -35.639788,9.9323136 C -35.115051,11.506525 -33.927461,16.226091 -33.264656,19.205124 C -32.604666,22.171505 -30.053087,41.200912 -27.621759,27.590962 z"
         id="path10"
         style="fill:url(#radialGradient4002);fill-opacity:1;stroke:#204a87;stroke-width:1;stroke-miterlimit:4;stroke-dasharray:none" />
      <path
         d="M -42.34375,3.15625 C -44.334802,3.1493327 -45.806078,4.1909363 -46.90625,5.84375 C -47.83727,7.2424432 -48.337482,9.0822734 -48.5,10.875 L -47.4375,10.90625 C -47.061375,9.9489533 -46.674969,9.0350983 -46.09375,8.4375 C -45.350595,7.6734015 -44.34083,7.2533459 -43.3125,7.3125 C -42.000664,7.3879625 -41.038777,8.303856 -40.25,9.46875 C -39.461223,10.633644 -38.874576,12.136866 -38.6875,13.75 C -38.664305,13.942607 -38.696841,14.137827 -38.78125,14.3125 L -48.65625,35.84375 L -43.71875,35.84375 L -38.53125,22.9375 C -38.374626,22.518747 -37.962254,22.251964 -37.516097,22.280748 C -37.069939,22.309533 -36.695267,22.627093 -36.59375,23.0625 L -35.0625,29.3125 C -34.59018,31.004924 -34.199319,32.749516 -33.53125,33.96875 C -32.863181,35.187984 -32.163015,35.85522 -30.625,35.875 C -29.965163,35.883486 -29.439246,35.628592 -28.90625,35.15625 C -28.373254,34.683908 -27.848062,33.95953 -27.4375,33.09375 C -26.779693,31.706591 -26.426816,30.045854 -26.21875,28.59375 L -26.84375,28.59375 C -27.089108,29.799301 -27.320307,30.92467 -27.59375,31.625 C -27.767308,32.069509 -27.94314,32.435858 -28.1875,32.75 C -28.43186,33.064142 -28.779383,33.365542 -29.28125,33.4375 C -29.783117,33.509458 -30.248867,33.280097 -30.53125,33.03125 C -30.813633,32.782403 -31.014453,32.499088 -31.1875,32.1875 C -31.533593,31.564325 -31.79669,30.798732 -32.0625,29.90625 C -32.59412,28.121286 -33.066694,25.875825 -33.4375,23.875 C -33.808306,21.874175 -34.105019,20.089131 -34.25,19.4375 C -34.906441,16.48707 -36.116499,11.681746 -36.59375,10.25 C -36.593911,10.239584 -36.593911,10.229166 -36.59375,10.21875 C -37.103496,8.4961998 -37.606055,6.6342499 -38.4375,5.3125 C -39.268945,3.9907501 -40.260855,3.1634864 -42.34375,3.15625 z"
         id="path3607"
         style="fill:none;stroke:#7ca6e2;stroke-width:1;stroke-miterlimit:4;stroke-dasharray:none;stroke-opacity:1"
         inkscape:original="M -42.34375 2.15625 C -47.065928 2.1398443 -49.636981 7.3006362 -49.65625 11.84375 L -46.84375 11.90625 C -46.039789 9.3838288 -44.886746 8.2255377 -43.375 8.3125 C -41.863256 8.399462 -40.020408 11.004373 -39.6875 13.875 L -50.21875 36.84375 L -43.03125 36.84375 L -37.59375 23.3125 L -36.0625 29.5625 C -35.136644 32.880038 -34.40495 36.826387 -30.625 36.875 C -26.907539 36.922811 -25.297723 31.013437 -25.03125 27.59375 L -27.625 27.59375 C -30.056328 41.2037 -32.59001 22.185131 -33.25 19.21875 C -33.912805 16.239717 -35.100261 11.511711 -35.625 9.9375 C -36.62552 6.5565121 -37.559073 2.1728729 -42.34375 2.15625 z "
         inkscape:radius="-1.0140264"
         sodipodi:type="inkscape:offset" />
    </g>
    <g
       id="g2485"
       transform="matrix(0.7842374,-0.251925,0.2512199,0.7820424,4.4482181,27.664912)">
      <path
         id="path2212"
         d="M 26.012804,3.3202973 C 25.696155,3.3943463 25.51578,3.6993999 25.587355,4.0054664 L 26.641513,8.5132705 C 25.965958,8.8822096 25.352184,9.3500745 24.782212,9.8438129 L 21.072128,7.6796819 C 20.800827,7.5209504 20.460022,7.6149968 20.295801,7.895679 L 17.923821,11.895531 C 17.759601,12.176212 17.876156,12.545792 18.147457,12.704523 L 21.575412,14.693469 C 21.299902,15.560801 21.11721,16.466374 21.070371,17.395444 L 16.725894,18.411407 C 16.419827,18.482982 16.226395,18.779928 16.300444,19.096577 L 17.36988,23.669711 C 17.443929,23.98636 17.748984,24.166734 18.05505,24.09516 L 22.366861,23.086835 C 22.781305,23.836023 23.305151,24.49432 23.873898,25.111572 L 21.526944,29.071119 C 21.360115,29.350258 21.440468,29.693832 21.710276,29.855085 L 25.677462,32.234705 C 25.947271,32.395958 26.286961,32.297846 26.453789,32.018708 L 28.790994,28.164794 C 29.646461,28.412459 30.534887,28.58428 31.445026,28.612144 L 32.468629,32.989287 C 32.540203,33.295353 32.837149,33.488785 33.153799,33.414736 L 37.726933,32.3453 C 38.043582,32.271251 38.223956,31.966198 38.152382,31.660131 L 37.113501,27.217657 C 37.814362,26.815087 38.434127,26.311123 39.015216,25.773841 L 42.715552,28.043607 C 42.983322,28.208223 43.361875,28.129666 43.532183,27.852636 L 45.977133,23.870172 C 46.147441,23.593143 46.061572,23.250824 45.793801,23.086206 L 42.085827,20.783776 C 42.292758,20.033653 42.432045,19.247673 42.471264,18.454287 L 46.750411,17.4536 C 47.056477,17.382026 47.249909,17.085081 47.17586,16.768432 L 46.106424,12.195298 C 46.032375,11.878648 45.727321,11.698274 45.421255,11.769848 L 41.174773,12.762896 C 40.73573,11.963009 40.208309,11.234718 39.596878,10.582471 L 42.143243,6.8863555 C 42.327951,6.6187132 42.283938,6.2656484 42.025241,6.0871112 L 38.200574,3.4330029 C 37.941876,3.2544659 37.601318,3.348692 37.416608,3.6163347 L 34.7625,7.4410012 C 34.73053,7.4873242 34.712627,7.5441816 34.695059,7.5945788 C 33.932141,7.376048 33.132907,7.2260136 32.325265,7.1841146 L 31.271107,2.6763105 C 31.199533,2.370244 30.902589,2.1768122 30.585938,2.2508616 L 26.012804,3.3202973 z M 30.831242,13.907041 C 33.384239,13.310018 35.514115,14.780092 36.0173,16.931818 C 36.520483,19.083544 35.263393,21.345666 32.710394,21.94269 C 30.157394,22.539714 28.027521,21.069639 27.524336,18.917913 C 27.02115,16.766191 28.278243,14.504064 30.831242,13.907041 z"
         style="fill:url(#radialGradient2489);fill-opacity:1;fill-rule:evenodd;stroke:#555753;stroke-width:1;stroke-linecap:butt;stroke-linejoin:miter;stroke-miterlimit:4;stroke-dasharray:none;stroke-dashoffset:0;stroke-opacity:1" />
      <path
         transform="matrix(1.0452878,-0.2444425,0.2444425,1.0452878,-37.363201,15.597559)"
         d="M 60.5,3.25 L 60.5,7.15625 C 60.496479,7.5703048 60.210494,7.9482453 59.8125,8.0625 C 59.212599,8.228619 58.617411,8.4730048 58.03125,8.78125 C 57.680626,8.9647198 57.227804,8.9251771 56.9375,8.65625 L 54.34375,6.1875 L 51.90625,8.75 L 54.3125,11 C 54.627244,11.293647 54.678914,11.780586 54.46875,12.15625 C 54.06921,12.82689 53.744915,13.538474 53.53125,14.28125 C 53.416996,14.679245 53.039055,14.965229 52.625,14.96875 L 48.875,14.96875 L 48.875,18.53125 L 52.59375,18.53125 C 53.007805,18.534771 53.385746,18.820755 53.5,19.21875 C 53.68886,19.886671 53.980343,20.513823 54.34375,21.15625 C 54.544611,21.515651 54.504261,21.984607 54.21875,22.28125 L 51.53125,25.09375 L 54,27.5 L 56.65625,24.78125 C 56.949897,24.466506 57.436836,24.414836 57.8125,24.625 C 58.486779,25.003518 59.183718,25.307537 59.90625,25.5 C 60.304245,25.614254 60.590229,25.992195 60.59375,26.40625 L 60.59375,30.1875 L 64.15625,30.1875 L 64.15625,26.34375 C 64.154926,25.939357 64.428567,25.564508 64.8125,25.4375 C 65.437997,25.249716 66.049852,24.969408 66.65625,24.625 C 67.015651,24.424139 67.484607,24.464489 67.78125,24.75 L 70.375,27.3125 L 72.875,24.84375 L 70.28125,22.25 C 69.978325,21.947471 69.937115,21.461536 70.15625,21.09375 C 70.475199,20.508381 70.724465,19.915534 70.90625,19.28125 C 71.020504,18.883255 71.398445,18.597271 71.8125,18.59375 L 75.5,18.59375 L 75.5,15.03125 L 71.84375,15.03125 C 71.429695,15.027729 71.051754,14.741745 70.9375,14.34375 C 70.729928,13.600282 70.439945,12.904075 70.0625,12.25 C 69.852336,11.874336 69.904006,11.387397 70.21875,11.09375 L 73.0625,8.5 L 70.71875,5.9375 L 67.8125,8.5625 L 67.78125,8.59375 C 67.502398,8.9541153 66.997961,9.0630449 66.59375,8.84375 C 65.998677,8.5119092 65.391839,8.2481447 64.75,8.0625 C 64.352006,7.9482453 64.066021,7.5703048 64.0625,7.15625 L 64.0625,3.25 L 60.5,3.25 z M 62.21875,12 C 65.119724,12 67.21875,14.229306 67.21875,16.78125 C 67.218749,19.333195 65.119725,21.562499 62.21875,21.5625 C 59.317774,21.562501 57.21875,19.333195 57.21875,16.78125 C 57.218748,14.229307 59.317774,12 62.21875,12 z"
         id="path3195"
         style="fill:none;fill-opacity:1;fill-rule:evenodd;stroke:#dddddd;stroke-width:0.93154186;stroke-linecap:butt;stroke-linejoin:miter;stroke-miterlimit:4;stroke-dasharray:none;stroke-dashoffset:0;stroke-opacity:1"
         inkscape:original="M 60.375 3.125 L 60.375 7.15625 C 60.371912 7.5194123 60.130326 7.8372886 59.78125 7.9375 C 59.169905 8.1067881 58.559537 8.3768222 57.96875 8.6875 C 57.661279 8.8483892 57.285825 8.7983287 57.03125 8.5625 L 54.34375 6 L 51.71875 8.75 L 54.21875 11.09375 C 54.494859 11.351352 54.559366 11.764199 54.375 12.09375 C 53.971871 12.770414 53.623576 13.494497 53.40625 14.25 C 53.306039 14.599076 52.988162 14.840662 52.625 14.84375 L 48.75 14.84375 L 48.75 18.65625 L 52.59375 18.65625 C 52.956912 18.659338 53.274789 18.900924 53.375 19.25 C 53.567737 19.931631 53.884546 20.572703 54.25 21.21875 C 54.426168 21.533968 54.375412 21.927325 54.125 22.1875 L 51.34375 25.09375 L 54 27.6875 L 56.75 24.875 C 57.007602 24.598891 57.420449 24.534384 57.75 24.71875 C 58.429534 25.100218 59.139208 25.429005 59.875 25.625 C 60.224076 25.725211 60.465662 26.043088 60.46875 26.40625 L 60.46875 30.3125 L 64.28125 30.3125 L 64.28125 26.34375 C 64.280089 25.989098 64.507041 25.673886 64.84375 25.5625 C 65.481753 25.370962 66.108157 25.06554 66.71875 24.71875 C 67.033968 24.542582 67.427325 24.593338 67.6875 24.84375 L 70.375 27.5 L 73.0625 24.84375 L 70.375 22.15625 C 70.109267 21.890864 70.057769 21.478881 70.25 21.15625 C 70.571694 20.565843 70.8464 19.957479 71.03125 19.3125 C 71.131461 18.963424 71.449338 18.721838 71.8125 18.71875 L 75.625 18.71875 L 75.625 14.90625 L 71.84375 14.90625 C 71.480588 14.903162 71.162711 14.661576 71.0625 14.3125 C 70.851959 13.5584 70.53788 12.848827 70.15625 12.1875 C 69.971884 11.857949 70.036391 11.445102 70.3125 11.1875 L 73.21875 8.53125 L 70.71875 5.78125 L 67.71875 8.5 C 67.479528 8.8411617 67.022497 8.9486984 66.65625 8.75 C 66.056217 8.415393 65.434546 8.1264586 64.78125 7.9375 C 64.432174 7.8372886 64.190588 7.5194123 64.1875 7.15625 L 64.1875 3.125 L 60.375 3.125 z M 62.21875 12.125 C 65.060709 12.125 67.09375 14.292516 67.09375 16.78125 C 67.093749 19.269985 65.06071 21.437499 62.21875 21.4375 C 59.376789 21.437501 57.34375 19.269985 57.34375 16.78125 C 57.343748 14.292517 59.376789 12.125 62.21875 12.125 z "
         inkscape:radius="-0.1160666"
         sodipodi:type="inkscape:offset" />
    </g>
  </g>
</svg>
