<?xml version="1.0" encoding="UTF-8" standalone="no"?>
<!-- Created with Inkscape (http://www.inkscape.org/) -->
<svg
   xmlns:dc="http://purl.org/dc/elements/1.1/"
   xmlns:cc="http://web.resource.org/cc/"
   xmlns:rdf="http://www.w3.org/1999/02/22-rdf-syntax-ns#"
   xmlns:svg="http://www.w3.org/2000/svg"
   xmlns="http://www.w3.org/2000/svg"
   xmlns:xlink="http://www.w3.org/1999/xlink"
   xmlns:sodipodi="http://sodipodi.sourceforge.net/DTD/sodipodi-0.dtd"
   xmlns:inkscape="http://www.inkscape.org/namespaces/inkscape"
   inkscape:export-ydpi="90.000000"
   inkscape:export-xdpi="90.000000"
   inkscape:export-filename="/home/patrick/Desktop/desktop.png"
   width="48px"
   height="48px"
   id="svg11300"
   sodipodi:version="0.32"
   inkscape:version="0.45+devel"
   sodipodi:docbase="/home/patrick/Projects/Beryl/svn/beryl/trunk/beryl-settings/images"
   sodipodi:docname="plugin-unknown.svg"
   inkscape:output_extension="org.inkscape.output.svg.inkscape">
  <defs
     id="defs3">
    <linearGradient
       id="linearGradient3990">
      <stop
         style="stop-color:#6795cf;stop-opacity:1;"
         offset="0"
         id="stop3992" />
      <stop
         style="stop-color:#3465a4;stop-opacity:1;"
         offset="1"
         id="stop3994" />
    </linearGradient>
    <linearGradient
       id="linearGradient2277">
      <stop
         id="stop2279"
         offset="0"
         style="stop-color:#eff0ef;stop-opacity:1;" />
      <stop
         id="stop2281"
         offset="1"
         style="stop-color:#babdb6;stop-opacity:1;" />
    </linearGradient>
    <radialGradient
       inkscape:collect="always"
       xlink:href="#linearGradient3990"
       id="radialGradient2262"
       gradientUnits="userSpaceOnUse"
       gradientTransform="matrix(0.6461339,0.222705,-0.2929393,0.8425366,-18.075775,0.3108908)"
       cx="56.704376"
       cy="10.241054"
       fx="56.704376"
       fy="10.241054"
       r="14.75" />
    <radialGradient
       inkscape:collect="always"
       xlink:href="#linearGradient2277"
       id="radialGradient4378"
       gradientUnits="userSpaceOnUse"
       gradientTransform="matrix(-0.4280522,1.717865,-1.9489621,-0.4856362,86.412116,-11.41046)"
       cx="15.33036"
       cy="10.900933"
       fx="15.33036"
       fy="10.900933"
       r="11.625177" />
    <radialGradient
       inkscape:collect="always"
       xlink:href="#linearGradient2277"
       id="radialGradient4380"
       gradientUnits="userSpaceOnUse"
       gradientTransform="matrix(4.7031029e-3,2.1657386,-2.7879239,6.3326526e-3,27.911065,-23.766194)"
       cx="12.077888"
       cy="5.1155567"
       fx="12.077888"
       fy="5.1155567"
       r="5.5790009" />
    <linearGradient
       id="linearGradient259">
      <stop
         style="stop-color:#fafafa;stop-opacity:1.0000000;"
         offset="0.0000000"
         id="stop260" />
      <stop
         style="stop-color:#bbbbbb;stop-opacity:1.0000000;"
         offset="1.0000000"
         id="stop261" />
    </linearGradient>
    <linearGradient
       id="linearGradient269">
      <stop
         style="stop-color:#a3a3a3;stop-opacity:1.0000000;"
         offset="0.0000000"
         id="stop270" />
      <stop
         style="stop-color:#8a8a8a;stop-opacity:1;"
         offset="1"
         id="stop271" />
    </linearGradient>
    <linearGradient
       id="linearGradient15662">
      <stop
         style="stop-color:#ffffff;stop-opacity:1.0000000;"
         offset="0.0000000"
         id="stop15664" />
      <stop
         style="stop-color:#f8f8f8;stop-opacity:1.0000000;"
         offset="1.0000000"
         id="stop15666" />
    </linearGradient>
    <linearGradient
       id="linearGradient2251"
       inkscape:collect="always">
      <stop
         id="stop2253"
         offset="0"
         style="stop-color:#ffffff;stop-opacity:1;" />
      <stop
         id="stop2255"
         offset="1"
         style="stop-color:#ffffff;stop-opacity:0;" />
    </linearGradient>
    <linearGradient
       id="linearGradient4790"
       inkscape:collect="always">
      <stop
         id="stop4792"
         offset="0"
         style="stop-color:#000000;stop-opacity:1;" />
      <stop
         id="stop4794"
         offset="1"
         style="stop-color:#000000;stop-opacity:0;" />
    </linearGradient>
    <linearGradient
       id="linearGradient3688"
       inkscape:collect="always">
      <stop
         id="stop3690"
         offset="0"
         style="stop-color:black;stop-opacity:1;" />
      <stop
         id="stop3692"
         offset="1"
         style="stop-color:black;stop-opacity:0;" />
    </linearGradient>
    <linearGradient
       id="linearGradient3702">
      <stop
         id="stop3704"
         offset="0"
         style="stop-color:black;stop-opacity:0;" />
      <stop
         style="stop-color:black;stop-opacity:1;"
         offset="0.5"
         id="stop3710" />
      <stop
         id="stop3706"
         offset="1"
         style="stop-color:black;stop-opacity:0;" />
    </linearGradient>
    <radialGradient
       inkscape:collect="always"
       xlink:href="#linearGradient3688"
       id="radialGradient2401"
       gradientUnits="userSpaceOnUse"
       gradientTransform="matrix(2.003784,0,0,1.4,27.98813,-17.4)"
       cx="4.9929786"
       cy="43.5"
       fx="4.9929786"
       fy="43.5"
       r="2.5" />
    <radialGradient
       inkscape:collect="always"
       xlink:href="#linearGradient3688"
       id="radialGradient2403"
       gradientUnits="userSpaceOnUse"
       gradientTransform="matrix(2.003784,0,0,1.4,-20.01187,-104.4)"
       cx="4.9929786"
       cy="43.5"
       fx="4.9929786"
       fy="43.5"
       r="2.5" />
    <linearGradient
       inkscape:collect="always"
       xlink:href="#linearGradient3702"
       id="linearGradient2405"
       gradientUnits="userSpaceOnUse"
       x1="25.058096"
       y1="47.027729"
       x2="25.058096"
       y2="39.999443" />
    <radialGradient
       inkscape:collect="always"
       xlink:href="#linearGradient259"
       id="radialGradient2407"
       gradientUnits="userSpaceOnUse"
       gradientTransform="matrix(0.961084,0,0,1.044459,-4.060961e-3,-0.142424)"
       cx="33.966679"
       cy="35.736916"
       fx="33.966679"
       fy="35.736916"
       r="86.708450" />
    <radialGradient
       inkscape:collect="always"
       xlink:href="#linearGradient269"
       id="radialGradient2409"
       gradientUnits="userSpaceOnUse"
       gradientTransform="matrix(0.968868,0,0,1.036068,3.351554,0.506089)"
       cx="8.8244190"
       cy="3.7561285"
       fx="8.8244190"
       fy="3.7561285"
       r="37.751713" />
    <radialGradient
       inkscape:collect="always"
       xlink:href="#linearGradient15662"
       id="radialGradient2411"
       gradientUnits="userSpaceOnUse"
       gradientTransform="matrix(0.968273,0,0,1.032767,3.353553,0.646447)"
       cx="8.1435566"
       cy="7.2678967"
       fx="8.1435566"
       fy="7.2678967"
       r="38.158695" />
    <radialGradient
       inkscape:collect="always"
       xlink:href="#linearGradient4790"
       id="radialGradient2413"
       gradientUnits="userSpaceOnUse"
       gradientTransform="matrix(1.744653,0,0,1.283833,-26.58256,-3.478359)"
       cx="37.030354"
       cy="12.98915"
       fx="37.030354"
       fy="12.98915"
       r="4.2929165" />
    <radialGradient
       inkscape:collect="always"
       xlink:href="#linearGradient259"
       id="radialGradient2415"
       gradientUnits="userSpaceOnUse"
       gradientTransform="matrix(0.148355,1.009137e-2,-1.104438e-2,0.162365,25.06011,12.81706)"
       cx="30.653816"
       cy="14.9373"
       fx="30.653816"
       fy="14.9373"
       r="86.708450" />
    <radialGradient
       inkscape:collect="always"
       xlink:href="#linearGradient269"
       id="radialGradient2417"
       gradientUnits="userSpaceOnUse"
       gradientTransform="matrix(0.331735,0,0,0.353831,20.10526,9.5823)"
       cx="31.863327"
       cy="2.3667307"
       fx="31.863327"
       fy="2.3667307"
       r="37.751713" />
    <linearGradient
       inkscape:collect="always"
       xlink:href="#linearGradient2251"
       id="linearGradient2419"
       gradientUnits="userSpaceOnUse"
       gradientTransform="matrix(-2.48131e-2,-0.756771,0.756567,-2.481981e-2,8.221918,36.1682)"
       x1="33.396004"
       y1="36.921333"
       x2="34.170048"
       y2="38.070381" />
  </defs>
  <sodipodi:namedview
     stroke="#ef2929"
     fill="#eeeeec"
     id="base"
     pagecolor="#ffffff"
     bordercolor="#666666"
     borderopacity="0.25490196"
     inkscape:pageopacity="0.0"
     inkscape:pageshadow="2"
     inkscape:zoom="7.9999997"
     inkscape:cx="6.3671903"
     inkscape:cy="25.851386"
     inkscape:current-layer="layer1"
     showgrid="false"
     inkscape:grid-bbox="true"
     inkscape:document-units="px"
     inkscape:showpageshadow="false"
     inkscape:window-width="906"
     inkscape:window-height="662"
     inkscape:window-x="244"
     inkscape:window-y="87"
     showguides="true"
     inkscape:guide-bbox="true">
    <sodipodi:guide
       orientation="vertical"
       position="5.0000002"
       id="guide2367" />
    <sodipodi:guide
       orientation="horizontal"
       position="5.0000002"
       id="guide2369" />
  </sodipodi:namedview>
  <metadata
     id="metadata4">
    <rdf:RDF>
      <cc:Work
         rdf:about="">
        <dc:format>image/svg+xml</dc:format>
        <dc:type
           rdf:resource="http://purl.org/dc/dcmitype/StillImage" />
        <dc:creator>
          <cc:Agent>
            <dc:title>Patrick Niklaus</dc:title>
          </cc:Agent>
        </dc:creator>
        <dc:source />
        <cc:license
           rdf:resource="http://creativecommons.org/licenses/GPL/2.0/" />
        <dc:title>SchemeP</dc:title>
        <dc:subject>
          <rdf:Bag />
        </dc:subject>
      </cc:Work>
      <cc:License
         rdf:about="http://creativecommons.org/licenses/GPL/2.0/">
        <cc:permits
           rdf:resource="http://web.resource.org/cc/Reproduction" />
        <cc:permits
           rdf:resource="http://web.resource.org/cc/Distribution" />
        <cc:requires
           rdf:resource="http://web.resource.org/cc/Notice" />
        <cc:permits
           rdf:resource="http://web.resource.org/cc/DerivativeWorks" />
        <cc:requires
           rdf:resource="http://web.resource.org/cc/ShareAlike" />
        <cc:requires
           rdf:resource="http://web.resource.org/cc/SourceCode" />
      </cc:License>
    </rdf:RDF>
  </metadata>
  <g
     id="layer1"
     inkscape:label="Layer 1"
     inkscape:groupmode="layer">
    <g
       id="g2385"
       transform="translate(-1.0944649,-2.067845)">
      <g
         inkscape:label="Shadow"
         id="layer6">
        <g
           transform="matrix(1.052632,0,0,1.285713,-1.263158,-13.42854)"
           style="opacity:0.4"
           id="g3712">
          <rect
             style="opacity:1;fill:url(#radialGradient2401);fill-opacity:1;stroke:none;stroke-width:1;stroke-linecap:round;stroke-linejoin:miter;stroke-miterlimit:4;stroke-dasharray:none;stroke-opacity:1"
             id="rect2801"
             width="5"
             height="7"
             x="38"
             y="40" />
          <rect
             style="opacity:1;fill:url(#radialGradient2403);fill-opacity:1;stroke:none;stroke-width:1;stroke-linecap:round;stroke-linejoin:miter;stroke-miterlimit:4;stroke-dasharray:none;stroke-opacity:1"
             id="rect3696"
             width="5"
             height="7"
             x="-10"
             y="-47"
             transform="scale(-1,-1)" />
          <rect
             style="opacity:1;fill:url(#linearGradient2405);fill-opacity:1;stroke:none;stroke-width:1;stroke-linecap:round;stroke-linejoin:miter;stroke-miterlimit:4;stroke-dasharray:none;stroke-opacity:1"
             id="rect3700"
             width="28"
             height="7.0000005"
             x="10"
             y="40" />
        </g>
      </g>
      <g
         id="g2392"
         inkscape:label="Base"
         style="display:inline">
        <path
           sodipodi:nodetypes="ccccccccc"
           id="rect15391"
           d="M 7.7533083,3.5156762 L 36.217818,3.5000013 C 36.217818,3.5000013 41.500001,8.7962658 41.500001,9.4348733 L 41.500001,43.414232 C 41.500001,44.052839 40.98721,44.566952 40.350246,44.566952 L 7.7533083,44.566952 C 7.1163439,44.566952 6.603553,44.052839 6.603553,43.414232 L 6.603553,4.6683972 C 6.603553,4.0297898 7.1163439,3.5156762 7.7533083,3.5156762 z"
           style="color:#000000;fill:url(#radialGradient2407);fill-opacity:1;fill-rule:nonzero;stroke:url(#radialGradient2409);stroke-width:1.00000012;stroke-linecap:round;stroke-linejoin:round;marker:none;marker-start:none;marker-mid:none;marker-end:none;stroke-miterlimit:4;stroke-dashoffset:0;stroke-opacity:1;visibility:visible;display:block;overflow:visible" />
        <path
           sodipodi:nodetypes="ccccccccc"
           id="rect15660"
           d="M 7.8151023,4.5839462 L 36.691494,4.5839462 C 36.691494,4.5839462 40.44194,8.605373 40.44194,8.687946 L 40.44194,43.381282 C 40.44194,43.463855 40.375465,43.530331 40.292892,43.530331 L 7.8151023,43.530331 C 7.7325294,43.530331 7.6660538,43.463855 7.6660538,43.381282 L 7.6660538,4.7329948 C 7.6660538,4.6504219 7.7325294,4.5839462 7.8151023,4.5839462 z"
           style="color:#000000;fill:none;fill-opacity:1;fill-rule:nonzero;stroke:url(#radialGradient2411);stroke-width:1;stroke-linecap:round;stroke-linejoin:round;marker:none;marker-start:none;marker-mid:none;marker-end:none;stroke-miterlimit:4;stroke-dashoffset:0;stroke-opacity:1;visibility:visible;display:block;overflow:visible" />
      </g>
      <g
         style="display:inline"
         inkscape:label="Text"
         id="layer5">
        <g
           transform="matrix(0.589097,0,0,0.577622,17.11331,1.395056)"
           id="g1918">
          <path
             inkscape:r_cy="true"
             inkscape:r_cx="true"
             style="opacity:0.35714285;color:#000000;fill:url(#radialGradient2413);fill-opacity:1;fill-rule:evenodd;stroke:none;stroke-width:1.00000024;stroke-linecap:butt;stroke-linejoin:miter;marker:none;marker-start:none;marker-mid:none;marker-end:none;stroke-miterlimit:4;stroke-dasharray:none;stroke-dashoffset:0;stroke-opacity:1;visibility:visible;display:inline;overflow:visible"
             d="M 40.985189,13.861445 C 40.256827,12.514817 34.882221,10.130934 32.084635,9.3314083 C 32.254143,10.904354 31.961856,15.649439 31.961856,15.649439 C 34.024356,14.274439 40.204485,13.699331 40.985189,13.861445 z"
             id="path5348"
             sodipodi:nodetypes="cccc" />
          <path
             style="opacity:1;color:#000000;fill:url(#radialGradient2415);fill-opacity:1;fill-rule:nonzero;stroke:url(#radialGradient2417);stroke-width:1.71429098;stroke-linecap:butt;stroke-linejoin:round;marker:none;marker-start:none;marker-mid:none;marker-end:none;stroke-miterlimit:4;stroke-dasharray:none;stroke-dashoffset:0;stroke-opacity:1;visibility:visible;display:block;overflow:visible"
             d="M 41.410559,13.739267 C 41.423724,12.324125 35.058025,3.5320142 31.175441,3.6354934 C 32.148479,3.8684884 32.634036,9.5059668 31.244316,12.318467 C 33.994316,12.318467 40.446694,11.881093 41.410559,13.739267 z"
             id="path2210"
             sodipodi:nodetypes="cccc"
             inkscape:r_cx="true"
             inkscape:r_cy="true" />
          <path
             sodipodi:nodetypes="cccc"
             id="path2247"
             d="M 38.373065,10.820521 C 37.821714,9.8008851 35.225165,6.9819727 33.769819,6.0453244 C 33.950691,7.1249452 33.99069,8.6442222 33.524667,10.584399 C 33.524667,10.584399 37.782093,10.697772 38.373065,10.820521 z"
             style="opacity:1;color:#000000;fill:none;fill-opacity:1;fill-rule:evenodd;stroke:url(#linearGradient2419);stroke-width:1.71429169;stroke-linecap:butt;stroke-linejoin:miter;marker:none;marker-start:none;marker-mid:none;marker-end:none;stroke-miterlimit:4;stroke-dasharray:none;stroke-dashoffset:0;stroke-opacity:1;visibility:visible;display:inline;overflow:visible"
             inkscape:r_cx="true"
             inkscape:r_cy="true" />
        </g>
      </g>
    </g>
    <path
       style="fill:url(#radialGradient2262);fill-opacity:1;fill-rule:evenodd;stroke:#204a87;stroke-width:0.82255423000000005;stroke-linecap:butt;stroke-linejoin:miter;stroke-miterlimit:4;stroke-dasharray:none;stroke-dashoffset:0;stroke-opacity:1"
       d="M 14.557556,14.08325 C 14.327831,14.220931 14.263009,14.504937 14.396031,14.726262 L 16.355191,17.985987 C 15.918081,18.444703 15.554273,18.965218 15.231317,19.494932 L 11.778057,18.737153 C 11.525416,18.681366 11.281771,18.840771 11.223495,19.101648 L 10.368142,22.827263 C 10.309868,23.088139 10.49412,23.347803 10.746761,23.40359 L 13.934754,24.095442 C 13.93658,24.84314 14.020804,25.597362 14.217472,26.335734 L 11.065601,28.224742 C 10.843553,28.357823 10.766455,28.638777 10.904075,28.867756 L 12.891629,32.174723 C 13.02925,32.403701 13.313799,32.46791 13.535847,32.33483 L 16.664019,30.460024 C 17.177252,30.941512 17.753449,31.324359 18.354548,31.663794 L 17.508696,35.351584 C 17.447987,35.611911 17.597316,35.860358 17.849419,35.918493 L 21.558443,36.780023 C 21.810547,36.838158 22.052297,36.675854 22.113005,36.415528 L 22.977749,32.812804 C 23.710856,32.790975 24.450758,32.70153 25.171523,32.494034 L 27.073896,35.659274 C 27.206917,35.880599 27.488387,35.957063 27.718113,35.819382 L 31.035872,33.83095 C 31.265598,33.693269 31.330418,33.409264 31.197397,33.187938 L 29.26663,29.975455 C 29.715138,29.484064 30.074575,28.933808 30.395311,28.36724 L 33.867463,29.210086 C 34.118813,29.271365 34.395953,29.114563 34.45992,28.855009 L 35.376867,25.124609 C 35.440834,24.865056 35.287495,24.618981 35.036143,24.557701 L 31.549795,23.691234 C 31.523632,23.052475 31.435413,22.402715 31.266855,21.772374 L 34.37133,19.91177 C 34.593378,19.77869 34.670476,19.497736 34.532855,19.268758 L 32.545301,15.961791 C 32.40768,15.732812 32.123132,15.668603 31.901084,15.801683 L 28.820308,17.648083 C 28.275046,17.133143 27.678462,16.69646 27.035097,16.34041 L 28.103514,12.808397 C 28.181132,12.552557 28.057919,12.287534 27.810187,12.213082 L 24.143975,11.100986 C 23.896242,11.026535 23.652835,11.186019 23.575216,11.44186 L 22.454598,15.101548 C 22.441163,15.145828 22.441406,15.194803 22.44029,15.238642 C 21.787082,15.25994 21.122601,15.343953 20.478692,15.514652 L 18.519532,12.254927 C 18.386511,12.033601 18.105042,11.957137 17.875315,12.094819 L 14.557556,14.08325 z M 20.995956,21.148647 C 22.848128,20.038586 24.887768,20.651677 25.822941,22.207653 C 26.758112,23.76363 26.340545,25.849398 24.488372,26.95946 C 22.636198,28.069523 20.59656,27.45643 19.661387,25.900454 C 18.726215,24.344481 19.143783,22.258709 20.995956,21.148647 z"
       id="path2212" />
    <path
       sodipodi:type="inkscape:offset"
       inkscape:radius="-0.1160666"
       inkscape:original="M 60.375 3.125 L 60.375 7.15625 C 60.371912 7.5194123 60.130326 7.8372886 59.78125 7.9375 C 59.169905 8.1067881 58.559537 8.3768222 57.96875 8.6875 C 57.661279 8.8483892 57.285825 8.7983287 57.03125 8.5625 L 54.34375 6 L 51.71875 8.75 L 54.21875 11.09375 C 54.494859 11.351352 54.559366 11.764199 54.375 12.09375 C 53.971871 12.770414 53.623576 13.494497 53.40625 14.25 C 53.306039 14.599076 52.988162 14.840662 52.625 14.84375 L 48.75 14.84375 L 48.75 18.65625 L 52.59375 18.65625 C 52.956912 18.659338 53.274789 18.900924 53.375 19.25 C 53.567737 19.931631 53.884546 20.572703 54.25 21.21875 C 54.426168 21.533968 54.375412 21.927325 54.125 22.1875 L 51.34375 25.09375 L 54 27.6875 L 56.75 24.875 C 57.007602 24.598891 57.420449 24.534384 57.75 24.71875 C 58.429534 25.100218 59.139208 25.429005 59.875 25.625 C 60.224076 25.725211 60.465662 26.043088 60.46875 26.40625 L 60.46875 30.3125 L 64.28125 30.3125 L 64.28125 26.34375 C 64.280089 25.989098 64.507041 25.673886 64.84375 25.5625 C 65.481753 25.370962 66.108157 25.06554 66.71875 24.71875 C 67.033968 24.542582 67.427325 24.593338 67.6875 24.84375 L 70.375 27.5 L 73.0625 24.84375 L 70.375 22.15625 C 70.109267 21.890864 70.057769 21.478881 70.25 21.15625 C 70.571694 20.565843 70.8464 19.957479 71.03125 19.3125 C 71.131461 18.963424 71.449338 18.721838 71.8125 18.71875 L 75.625 18.71875 L 75.625 14.90625 L 71.84375 14.90625 C 71.480588 14.903162 71.162711 14.661576 71.0625 14.3125 C 70.851959 13.5584 70.53788 12.848827 70.15625 12.1875 C 69.971884 11.857949 70.036391 11.445102 70.3125 11.1875 L 73.21875 8.53125 L 70.71875 5.78125 L 67.71875 8.5 C 67.479528 8.8411617 67.022497 8.9486984 66.65625 8.75 C 66.056217 8.415393 65.434546 8.1264586 64.78125 7.9375 C 64.432174 7.8372886 64.190588 7.5194123 64.1875 7.15625 L 64.1875 3.125 L 60.375 3.125 z M 62.21875 12.125 C 65.060709 12.125 67.09375 14.292516 67.09375 16.78125 C 67.093749 19.269985 65.06071 21.437499 62.21875 21.4375 C 59.376789 21.437501 57.34375 19.269985 57.34375 16.78125 C 57.343748 14.292517 59.376789 12.125 62.21875 12.125 z "
       style="fill:none;fill-opacity:1;fill-rule:evenodd;stroke:#b4cdee;stroke-width:0.93154186000000005;stroke-linecap:butt;stroke-linejoin:miter;stroke-miterlimit:4;stroke-dasharray:none;stroke-dashoffset:0;stroke-opacity:1"
       id="path3195"
       d="M 60.5,3.25 L 60.5,7.15625 C 60.496479,7.5703048 60.210494,7.9482453 59.8125,8.0625 C 59.212599,8.228619 58.617411,8.4730048 58.03125,8.78125 C 57.680626,8.9647198 57.227804,8.9251771 56.9375,8.65625 L 54.34375,6.1875 L 51.90625,8.75 L 54.3125,11 C 54.627244,11.293647 54.678914,11.780586 54.46875,12.15625 C 54.06921,12.82689 53.744915,13.538474 53.53125,14.28125 C 53.416996,14.679245 53.039055,14.965229 52.625,14.96875 L 48.875,14.96875 L 48.875,18.53125 L 52.59375,18.53125 C 53.007805,18.534771 53.385746,18.820755 53.5,19.21875 C 53.68886,19.886671 53.980343,20.513823 54.34375,21.15625 C 54.544611,21.515651 54.504261,21.984607 54.21875,22.28125 L 51.53125,25.09375 L 54,27.5 L 56.65625,24.78125 C 56.949897,24.466506 57.436836,24.414836 57.8125,24.625 C 58.486779,25.003518 59.183718,25.307537 59.90625,25.5 C 60.304245,25.614254 60.590229,25.992195 60.59375,26.40625 L 60.59375,30.1875 L 64.15625,30.1875 L 64.15625,26.34375 C 64.154926,25.939357 64.428567,25.564508 64.8125,25.4375 C 65.437997,25.249716 66.049852,24.969408 66.65625,24.625 C 67.015651,24.424139 67.484607,24.464489 67.78125,24.75 L 70.375,27.3125 L 72.875,24.84375 L 70.28125,22.25 C 69.978325,21.947471 69.937115,21.461536 70.15625,21.09375 C 70.475199,20.508381 70.724465,19.915534 70.90625,19.28125 C 71.020504,18.883255 71.398445,18.597271 71.8125,18.59375 L 75.5,18.59375 L 75.5,15.03125 L 71.84375,15.03125 C 71.429695,15.027729 71.051754,14.741745 70.9375,14.34375 C 70.729928,13.600282 70.439945,12.904075 70.0625,12.25 C 69.852336,11.874336 69.904006,11.387397 70.21875,11.09375 L 73.0625,8.5 L 70.71875,5.9375 L 67.8125,8.5625 L 67.78125,8.59375 C 67.502398,8.9541153 66.997961,9.0630449 66.59375,8.84375 C 65.998677,8.5119092 65.391839,8.2481447 64.75,8.0625 C 64.352006,7.9482453 64.066021,7.5703048 64.0625,7.15625 L 64.0625,3.25 L 60.5,3.25 z M 62.21875,12 C 65.119724,12 67.21875,14.229306 67.21875,16.78125 C 67.218749,19.333195 65.119725,21.562499 62.21875,21.5625 C 59.317774,21.562501 57.21875,19.333195 57.21875,16.78125 C 57.218748,14.229307 59.317774,12 62.21875,12 z"
       transform="matrix(0.758345,-0.4544985,0.454298,0.7558782,-32.059985,39.650589)" />
    <g
       id="g4370"
       transform="translate(-27.957108,1.6312816)">
      <g
         id="g4366">
        <path
           sodipodi:type="inkscape:offset"
           inkscape:radius="0.61871845"
           inkscape:original="M 65.25 10.0625 C 62.97219 10.07322 60.547067 10.60842 58.53125 12.09375 C 56.515433 13.579081 55.084699 16.137967 55.09375 19.3125 C 55.083146 20.062326 55.477341 20.746993 56.125 21.125 C 56.77266 21.503006 57.571092 21.503007 58.21875 21.125 C 58.866408 20.746992 59.260605 20.062326 59.25 19.3125 C 59.244168 17.266317 59.929273 16.226452 61 15.4375 C 62.070727 14.648549 63.686807 14.226253 65.28125 14.21875 C 66.770106 14.211743 67.617869 14.622759 68.28125 15.40625 C 68.944633 16.189742 69.443972 17.52152 69.4375 19.5 C 69.435375 20.150164 69.252918 20.595666 68.78125 21.21875 C 68.309583 21.841835 67.541758 22.544604 66.65625 23.375 C 64.885236 25.035792 62.543766 27.47339 62.5625 31.25 C 62.551895 31.999826 62.946092 32.715743 63.59375 33.09375 C 64.241409 33.471755 65.039842 33.471757 65.6875 33.09375 C 66.335157 32.715741 66.729354 31.999826 66.71875 31.25 C 66.707976 29.078212 67.802584 27.968718 69.46875 26.40625 C 70.301835 25.625017 71.271778 24.804594 72.09375 23.71875 C 72.915726 22.632906 73.588271 21.175119 73.59375 19.5 C 73.602491 16.82746 72.947971 14.465794 71.46875 12.71875 C 69.989528 10.971706 67.706906 10.050937 65.25 10.0625 z "
           style="fill:url(#radialGradient4378);fill-opacity:1;fill-rule:evenodd;stroke:#555753;stroke-width:0.99999994;stroke-linecap:round;stroke-linejoin:miter;stroke-miterlimit:4;stroke-dasharray:none;stroke-opacity:1"
           id="path4352"
           d="M 65.25,9.4375 C 62.877343,9.4486664 60.305708,10.009948 58.15625,11.59375 C 55.979786,13.197452 54.459166,15.951121 54.46875,19.3125 C 54.455005,20.284432 54.978329,21.169385 55.8125,21.65625 C 56.651353,22.145846 57.692397,22.145848 58.53125,21.65625 C 59.365419,21.169384 59.888746,20.284434 59.875,19.3125 C 59.869563,17.405019 60.411821,16.647207 61.375,15.9375 C 62.291257,15.262368 63.794083,14.850748 65.28125,14.84375 C 66.655135,14.837284 67.248142,15.145961 67.8125,15.8125 C 68.351394,16.448964 68.818628,17.62653 68.8125,19.5 C 68.81075,20.035335 68.713603,20.272602 68.28125,20.84375 C 67.869486,21.387701 67.10738,22.104176 66.21875,22.9375 C 64.425873,24.618794 61.917491,27.216345 61.9375,31.25 C 61.92375,32.222177 62.434259,33.130652 63.28125,33.625 C 64.120102,34.114595 65.161147,34.114599 66,33.625 C 66.846988,33.13065 67.357498,32.222176 67.34375,31.25 C 67.338881,30.268572 67.574344,29.596614 68,28.9375 C 68.425656,28.278386 69.077155,27.621244 69.90625,26.84375 C 70.722203,26.078583 71.720926,25.246771 72.59375,24.09375 C 73.478544,22.924922 74.212733,21.339549 74.21875,19.5 C 74.227825,16.725251 73.536248,14.200712 71.9375,12.3125 C 70.32472,10.407716 67.863288,9.425201 65.25,9.4375 z" />
        <path
           sodipodi:type="inkscape:offset"
           inkscape:radius="0.50610512"
           inkscape:original="M 24.21875 5.9375 C 21.640529 5.9496334 18.927526 6.5912406 16.71875 8.21875 C 14.553547 9.8141534 12.989979 12.547711 13 16.0625 C 12.992462 16.595505 13.275715 17.098182 13.75 17.375 C 14.223621 17.65143 14.776379 17.65143 15.25 17.375 C 15.724285 17.098182 16.007538 16.595505 16 16.0625 C 15.992351 13.379553 17.036471 11.672133 18.5 10.59375 C 20.039333 9.4595114 22.157311 8.9473484 24.25 8.9375 C 26.230739 8.9281783 27.695055 9.5835237 28.65625 10.71875 C 29.663795 11.908718 30.258326 13.767167 30.25 16.3125 C 30.246854 17.274215 29.913908 18.132995 29.28125 18.96875 C 28.614481 19.849568 27.651977 20.695135 26.59375 21.6875 C 24.501645 23.649398 21.979536 26.311972 22 30.4375 C 21.992462 30.970505 22.275715 31.473182 22.75 31.75 C 23.223621 32.026431 23.776378 32.026431 24.25 31.75 C 24.724282 31.473185 25.007538 30.970504 25 30.4375 C 24.992677 28.961257 25.393457 27.748746 26.0625 26.71875 C 26.731543 25.688754 27.617933 24.850639 28.625 23.90625 C 29.642104 22.952449 30.710389 21.989471 31.625 20.78125 C 32.514491 19.606213 33.244295 18.056398 33.25 16.3125 C 33.259963 13.26673 32.491205 10.684423 30.90625 8.8125 C 29.34117 6.9640504 26.913089 5.9248201 24.21875 5.9375 z "
           style="fill:none;fill-opacity:1;fill-rule:evenodd;stroke:#dddddd;stroke-width:1.20239937;stroke-linecap:round;stroke-linejoin:miter;stroke-miterlimit:4;stroke-dasharray:none;stroke-opacity:1"
           id="path2339"
           d="M 24.21875,5.4375 C 21.558238,5.4500207 18.723219,6.1052702 16.40625,7.8125 C 14.112462,9.5026497 12.489549,12.396869 12.5,16.0625 C 12.489863,16.779255 12.87111,17.445446 13.5,17.8125 C 14.12168,18.175345 14.87832,18.175345 15.5,17.8125 C 16.12889,17.445446 16.510137,16.779255 16.5,16.0625 C 16.492727,13.511471 17.461812,11.995238 18.8125,11 C 20.231927,9.954113 22.238277,9.4469674 24.25,9.4375 C 26.117936,9.4287092 27.421785,10.016173 28.28125,11.03125 C 29.184319,12.097826 29.758066,13.846781 29.75,16.3125 C 29.747233,17.158393 29.458533,17.885391 28.875,18.65625 C 28.255619,19.474467 27.315285,20.313517 26.25,21.3125 C 24.139277,23.291857 21.478508,26.104631 21.5,30.4375 C 21.489863,31.154255 21.87111,31.820446 22.5,32.1875 C 23.12168,32.550346 23.87832,32.550346 24.5,32.1875 C 25.12889,31.820448 25.510137,31.154256 25.5,30.4375 C 25.493138,29.054229 25.8795,27.955264 26.5,27 C 27.126127,26.036074 27.962579,25.224799 28.96875,24.28125 C 29.980856,23.332136 31.080281,22.35 32.03125,21.09375 C 32.969591,19.854181 33.743836,18.196615 33.75,16.3125 C 33.760245,13.180634 32.962378,10.485508 31.28125,8.5 C 29.609812,6.5259352 27.044655,5.4242009 24.21875,5.4375 z"
           transform="matrix(0.8316704,0,0,0.8316704,45.105878,5.9407112)" />
      </g>
      <g
         id="g4362">
        <path
           sodipodi:type="inkscape:offset"
           inkscape:radius="1.8115056"
           inkscape:original="M 19.96875 4.34375 C 17.236489 4.34375 15.03125 6.5489893 15.03125 9.28125 C 15.03125 12.013511 17.236489 14.25 19.96875 14.25 C 22.701011 14.25 24.9375 12.013511 24.9375 9.28125 C 24.9375 6.5489893 22.701011 4.34375 19.96875 4.34375 z "
           style="fill:url(#radialGradient4380);fill-opacity:1;fill-rule:evenodd;stroke:#555753;stroke-width:1.86966574;stroke-linecap:butt;stroke-linejoin:round;stroke-miterlimit:4;stroke-dasharray:none;stroke-dashoffset:0;stroke-opacity:1"
           id="path4358"
           d="M 19.96875,2.53125 C 16.261764,2.53125 13.21875,5.5742647 13.21875,9.28125 C 13.21875,12.988236 16.247952,16.0625 19.96875,16.0625 C 23.689548,16.0625 26.75,13.002048 26.75,9.28125 C 26.75,5.560452 23.675736,2.53125 19.96875,2.53125 z"
           transform="matrix(0.531788,0,0,0.5379396,53.899118,35.831393)" />
        <path
           sodipodi:type="inkscape:offset"
           inkscape:radius="1.2071028"
           inkscape:original="M 19.96875 5.625 C 17.922508 5.625 16.3125 7.2350084 16.3125 9.28125 C 16.3125 11.327492 17.932229 12.96875 19.96875 12.96875 C 22.005271 12.96875 23.65625 11.317771 23.65625 9.28125 C 23.65625 7.2447298 22.014992 5.625 19.96875 5.625 z "
           style="fill:none;fill-opacity:1;fill-rule:evenodd;stroke:#dddddd;stroke-width:1.86966574;stroke-linecap:butt;stroke-linejoin:round;stroke-miterlimit:4;stroke-dasharray:none;stroke-dashoffset:0;stroke-opacity:1"
           id="path5144"
           d="M 19.96875,4.40625 C 17.289332,4.40625 15.09375,6.6018329 15.09375,9.28125 C 15.09375,11.96449 17.283683,14.1875 19.96875,14.1875 C 22.657659,14.1875 24.875,11.970159 24.875,9.28125 C 24.875,6.5961833 22.651991,4.40625 19.96875,4.40625 z"
           transform="matrix(0.531788,0,0,0.5379396,53.899118,35.831393)" />
      </g>
    </g>
  </g>
</svg>
