<?xml version="1.0" encoding="UTF-8" standalone="no"?>
<!-- Created with Inkscape (http://www.inkscape.org/) -->
<svg
   xmlns:dc="http://purl.org/dc/elements/1.1/"
   xmlns:cc="http://web.resource.org/cc/"
   xmlns:rdf="http://www.w3.org/1999/02/22-rdf-syntax-ns#"
   xmlns:svg="http://www.w3.org/2000/svg"
   xmlns="http://www.w3.org/2000/svg"
   xmlns:xlink="http://www.w3.org/1999/xlink"
   xmlns:sodipodi="http://sodipodi.sourceforge.net/DTD/sodipodi-0.dtd"
   xmlns:inkscape="http://www.inkscape.org/namespaces/inkscape"
   inkscape:export-ydpi="90.000000"
   inkscape:export-xdpi="90.000000"
   inkscape:export-filename="/home/patrick/Desktop/desktop.png"
   width="48px"
   height="48px"
   id="svg11300"
   sodipodi:version="0.32"
   inkscape:version="0.45+devel"
   sodipodi:docbase="/home/patrick/Projects/Beryl/svn/beryl/trunk/beryl-settings/images"
   sodipodi:docname="plugin-glib.svg"
   inkscape:output_extension="org.inkscape.output.svg.inkscape">
  <defs
     id="defs3">
    <linearGradient
       id="linearGradient4362">
      <stop
         style="stop-color:#83a9d8;stop-opacity:1;"
         offset="0"
         id="stop4364" />
      <stop
         style="stop-color:#3465a4;stop-opacity:1;"
         offset="1"
         id="stop4366" />
    </linearGradient>
    <linearGradient
       id="linearGradient8440">
      <stop
         style="stop-color:#edeeec;stop-opacity:1;"
         offset="0"
         id="stop8442" />
      <stop
         style="stop-color:#babdb6;stop-opacity:1;"
         offset="1"
         id="stop8444" />
    </linearGradient>
    <radialGradient
       inkscape:collect="always"
       xlink:href="#linearGradient8440"
       id="radialGradient2489"
       gradientUnits="userSpaceOnUse"
       gradientTransform="matrix(0.664143,0.4987188,-0.6514275,0.8675051,-6.5927319,-24.793918)"
       cx="56.704376"
       cy="10.241054"
       fx="56.704376"
       fy="10.241054"
       r="14.75" />
    <radialGradient
       inkscape:collect="always"
       xlink:href="#linearGradient4362"
       id="radialGradient4374"
       gradientUnits="userSpaceOnUse"
       gradientTransform="matrix(-0.5039358,1.7843623,-2.4884954,-0.7027953,3.068361,78.759785)"
       cx="-30.094473"
       cy="19.634174"
       fx="-30.094473"
       fy="19.634174"
       r="12.989234" />
    <linearGradient
       y2="38.070381"
       x2="34.170048"
       y1="36.921333"
       x1="33.396004"
       gradientTransform="matrix(-2.48131e-2,-0.756771,0.756567,-2.481981e-2,8.221918,36.1682)"
       gradientUnits="userSpaceOnUse"
       id="linearGradient1929"
       xlink:href="#linearGradient2251"
       inkscape:collect="always" />
    <radialGradient
       r="37.751713"
       fy="2.3667307"
       fx="31.863327"
       cy="2.3667307"
       cx="31.863327"
       gradientTransform="matrix(0.331735,0,0,0.353831,20.10526,9.5823)"
       gradientUnits="userSpaceOnUse"
       id="radialGradient1927"
       xlink:href="#linearGradient269"
       inkscape:collect="always" />
    <radialGradient
       r="86.708450"
       fy="14.9373"
       fx="30.653816"
       cy="14.9373"
       cx="30.653816"
       gradientTransform="matrix(0.148355,1.009137e-2,-1.104438e-2,0.162365,25.06011,12.81706)"
       gradientUnits="userSpaceOnUse"
       id="radialGradient1925"
       xlink:href="#linearGradient259"
       inkscape:collect="always" />
    <radialGradient
       r="4.2929165"
       fy="12.98915"
       fx="37.030354"
       cy="12.98915"
       cx="37.030354"
       gradientTransform="matrix(1.744653,0,0,1.283833,-26.58256,-3.478359)"
       gradientUnits="userSpaceOnUse"
       id="radialGradient1923"
       xlink:href="#linearGradient4790"
       inkscape:collect="always" />
    <linearGradient
       y2="39.999443"
       x2="25.058096"
       y1="47.027729"
       x1="25.058096"
       gradientUnits="userSpaceOnUse"
       id="linearGradient3721"
       xlink:href="#linearGradient3702"
       inkscape:collect="always" />
    <radialGradient
       r="2.5"
       fy="43.5"
       fx="4.9929786"
       cy="43.5"
       cx="4.9929786"
       gradientTransform="matrix(2.003784,0,0,1.4,-20.01187,-104.4)"
       gradientUnits="userSpaceOnUse"
       id="radialGradient3719"
       xlink:href="#linearGradient3688"
       inkscape:collect="always" />
    <radialGradient
       r="2.5"
       fy="43.5"
       fx="4.9929786"
       cy="43.5"
       cx="4.9929786"
       gradientTransform="matrix(2.003784,0,0,1.4,27.98813,-17.4)"
       gradientUnits="userSpaceOnUse"
       id="radialGradient3717"
       xlink:href="#linearGradient3688"
       inkscape:collect="always" />
    <radialGradient
       r="38.158695"
       fy="7.2678967"
       fx="8.1435566"
       cy="7.2678967"
       cx="8.1435566"
       gradientTransform="matrix(0.968273,0,0,1.032767,3.353553,0.646447)"
       gradientUnits="userSpaceOnUse"
       id="radialGradient15668"
       xlink:href="#linearGradient15662"
       inkscape:collect="always" />
    <radialGradient
       r="86.708450"
       fy="35.736916"
       fx="33.966679"
       cy="35.736916"
       cx="33.966679"
       gradientTransform="matrix(0.961084,0,0,1.044459,-4.060961e-3,-0.142424)"
       gradientUnits="userSpaceOnUse"
       id="radialGradient15658"
       xlink:href="#linearGradient259"
       inkscape:collect="always" />
    <radialGradient
       r="37.751713"
       fy="3.7561285"
       fx="8.8244190"
       cy="3.7561285"
       cx="8.8244190"
       gradientTransform="matrix(0.968868,0,0,1.036068,3.351554,0.506089)"
       gradientUnits="userSpaceOnUse"
       id="radialGradient15656"
       xlink:href="#linearGradient269"
       inkscape:collect="always" />
    <linearGradient
       id="linearGradient259">
      <stop
         style="stop-color:#fafafa;stop-opacity:1.0000000;"
         offset="0.0000000"
         id="stop260" />
      <stop
         style="stop-color:#bbbbbb;stop-opacity:1.0000000;"
         offset="1.0000000"
         id="stop261" />
    </linearGradient>
    <linearGradient
       id="linearGradient269">
      <stop
         style="stop-color:#a3a3a3;stop-opacity:1.0000000;"
         offset="0.0000000"
         id="stop270" />
      <stop
         style="stop-color:#8a8a8a;stop-opacity:1;"
         offset="1"
         id="stop271" />
    </linearGradient>
    <linearGradient
       id="linearGradient15662">
      <stop
         style="stop-color:#ffffff;stop-opacity:1.0000000;"
         offset="0.0000000"
         id="stop15664" />
      <stop
         style="stop-color:#f8f8f8;stop-opacity:1.0000000;"
         offset="1.0000000"
         id="stop15666" />
    </linearGradient>
    <linearGradient
       id="linearGradient2251"
       inkscape:collect="always">
      <stop
         id="stop2253"
         offset="0"
         style="stop-color:#ffffff;stop-opacity:1;" />
      <stop
         id="stop2255"
         offset="1"
         style="stop-color:#ffffff;stop-opacity:0;" />
    </linearGradient>
    <linearGradient
       id="linearGradient4790"
       inkscape:collect="always">
      <stop
         id="stop4792"
         offset="0"
         style="stop-color:#000000;stop-opacity:1;" />
      <stop
         id="stop4794"
         offset="1"
         style="stop-color:#000000;stop-opacity:0;" />
    </linearGradient>
    <linearGradient
       id="linearGradient3688"
       inkscape:collect="always">
      <stop
         id="stop3690"
         offset="0"
         style="stop-color:black;stop-opacity:1;" />
      <stop
         id="stop3692"
         offset="1"
         style="stop-color:black;stop-opacity:0;" />
    </linearGradient>
    <linearGradient
       id="linearGradient3702">
      <stop
         id="stop3704"
         offset="0"
         style="stop-color:black;stop-opacity:0;" />
      <stop
         style="stop-color:black;stop-opacity:1;"
         offset="0.5"
         id="stop3710" />
      <stop
         id="stop3706"
         offset="1"
         style="stop-color:black;stop-opacity:0;" />
    </linearGradient>
  </defs>
  <sodipodi:namedview
     stroke="#ef2929"
     fill="#eeeeec"
     id="base"
     pagecolor="#ffffff"
     bordercolor="#666666"
     borderopacity="0.25490196"
     inkscape:pageopacity="0.0"
     inkscape:pageshadow="2"
     inkscape:zoom="0.99999995"
     inkscape:cx="29.712991"
     inkscape:cy="40.372039"
     inkscape:current-layer="layer1"
     showgrid="false"
     inkscape:grid-bbox="true"
     inkscape:document-units="px"
     inkscape:showpageshadow="false"
     inkscape:window-width="906"
     inkscape:window-height="662"
     inkscape:window-x="255"
     inkscape:window-y="76"
     showguides="true"
     inkscape:guide-bbox="true">
    <sodipodi:guide
       orientation="vertical"
       position="5.0000003"
       id="guide2353" />
    <sodipodi:guide
       orientation="horizontal"
       position="5.0000003"
       id="guide2355" />
  </sodipodi:namedview>
  <metadata
     id="metadata4">
    <rdf:RDF>
      <cc:Work
         rdf:about="">
        <dc:format>image/svg+xml</dc:format>
        <dc:type
           rdf:resource="http://purl.org/dc/dcmitype/StillImage" />
        <dc:creator>
          <cc:Agent>
            <dc:title>Patrick Niklaus</dc:title>
          </cc:Agent>
        </dc:creator>
        <dc:source />
        <cc:license
           rdf:resource="http://creativecommons.org/licenses/GPL/2.0/" />
        <dc:title>SchemeP</dc:title>
        <dc:subject>
          <rdf:Bag />
        </dc:subject>
      </cc:Work>
      <cc:License
         rdf:about="http://creativecommons.org/licenses/GPL/2.0/">
        <cc:permits
           rdf:resource="http://web.resource.org/cc/Reproduction" />
        <cc:permits
           rdf:resource="http://web.resource.org/cc/Distribution" />
        <cc:requires
           rdf:resource="http://web.resource.org/cc/Notice" />
        <cc:permits
           rdf:resource="http://web.resource.org/cc/DerivativeWorks" />
        <cc:requires
           rdf:resource="http://web.resource.org/cc/ShareAlike" />
        <cc:requires
           rdf:resource="http://web.resource.org/cc/SourceCode" />
      </cc:License>
    </rdf:RDF>
  </metadata>
  <g
     id="layer1"
     inkscape:label="Layer 1"
     inkscape:groupmode="layer">
    <g
       id="g2337"
       transform="translate(-1.0000087,-1.997224)">
      <g
         inkscape:label="Shadow"
         id="layer6">
        <g
           transform="matrix(1.052632,0,0,1.285713,-1.263158,-13.42854)"
           style="opacity:0.4"
           id="g3712">
          <rect
             style="opacity:1;fill:url(#radialGradient3717);fill-opacity:1;stroke:none;stroke-width:1;stroke-linecap:round;stroke-linejoin:miter;stroke-miterlimit:4;stroke-dasharray:none;stroke-opacity:1"
             id="rect2801"
             width="5"
             height="7"
             x="38"
             y="40" />
          <rect
             style="opacity:1;fill:url(#radialGradient3719);fill-opacity:1;stroke:none;stroke-width:1;stroke-linecap:round;stroke-linejoin:miter;stroke-miterlimit:4;stroke-dasharray:none;stroke-opacity:1"
             id="rect3696"
             width="5"
             height="7"
             x="-10"
             y="-47"
             transform="scale(-1,-1)" />
          <rect
             style="opacity:1;fill:url(#linearGradient3721);fill-opacity:1;stroke:none;stroke-width:1;stroke-linecap:round;stroke-linejoin:miter;stroke-miterlimit:4;stroke-dasharray:none;stroke-opacity:1"
             id="rect3700"
             width="28"
             height="7.0000005"
             x="10"
             y="40" />
        </g>
      </g>
      <g
         id="g2344"
         inkscape:label="Base"
         style="display:inline">
        <path
           sodipodi:nodetypes="ccccccccc"
           id="rect15391"
           d="M 7.7533083,3.5156762 L 36.217818,3.5000013 C 36.217818,3.5000013 41.500001,8.7962658 41.500001,9.4348733 L 41.500001,43.414232 C 41.500001,44.052839 40.98721,44.566952 40.350246,44.566952 L 7.7533083,44.566952 C 7.1163439,44.566952 6.603553,44.052839 6.603553,43.414232 L 6.603553,4.6683972 C 6.603553,4.0297898 7.1163439,3.5156762 7.7533083,3.5156762 z"
           style="color:#000000;fill:url(#radialGradient15658);fill-opacity:1;fill-rule:nonzero;stroke:url(#radialGradient15656);stroke-width:1.00000012;stroke-linecap:round;stroke-linejoin:round;marker:none;marker-start:none;marker-mid:none;marker-end:none;stroke-miterlimit:4;stroke-dashoffset:0;stroke-opacity:1;visibility:visible;display:block;overflow:visible" />
        <path
           sodipodi:nodetypes="ccccccccc"
           id="rect15660"
           d="M 7.8151023,4.5839462 L 36.691494,4.5839462 C 36.691494,4.5839462 40.44194,8.605373 40.44194,8.687946 L 40.44194,43.381282 C 40.44194,43.463855 40.375465,43.530331 40.292892,43.530331 L 7.8151023,43.530331 C 7.7325294,43.530331 7.6660538,43.463855 7.6660538,43.381282 L 7.6660538,4.7329948 C 7.6660538,4.6504219 7.7325294,4.5839462 7.8151023,4.5839462 z"
           style="color:#000000;fill:none;fill-opacity:1;fill-rule:nonzero;stroke:url(#radialGradient15668);stroke-width:1;stroke-linecap:round;stroke-linejoin:round;marker:none;marker-start:none;marker-mid:none;marker-end:none;stroke-miterlimit:4;stroke-dashoffset:0;stroke-opacity:1;visibility:visible;display:block;overflow:visible" />
      </g>
      <g
         style="display:inline"
         inkscape:label="Text"
         id="layer5">
        <g
           transform="matrix(0.589097,0,0,0.577622,17.11331,1.395056)"
           id="g1918">
          <path
             inkscape:r_cy="true"
             inkscape:r_cx="true"
             style="opacity:0.35714285;color:#000000;fill:url(#radialGradient1923);fill-opacity:1;fill-rule:evenodd;stroke:none;stroke-width:1.00000024;stroke-linecap:butt;stroke-linejoin:miter;marker:none;marker-start:none;marker-mid:none;marker-end:none;stroke-miterlimit:4;stroke-dasharray:none;stroke-dashoffset:0;stroke-opacity:1;visibility:visible;display:inline;overflow:visible"
             d="M 40.985189,13.861445 C 40.256827,12.514817 34.882221,10.130934 32.084635,9.3314083 C 32.254143,10.904354 31.961856,15.649439 31.961856,15.649439 C 34.024356,14.274439 40.204485,13.699331 40.985189,13.861445 z"
             id="path5348"
             sodipodi:nodetypes="cccc" />
          <path
             style="opacity:1;color:#000000;fill:url(#radialGradient1925);fill-opacity:1;fill-rule:nonzero;stroke:url(#radialGradient1927);stroke-width:1.71429098;stroke-linecap:butt;stroke-linejoin:round;marker:none;marker-start:none;marker-mid:none;marker-end:none;stroke-miterlimit:4;stroke-dasharray:none;stroke-dashoffset:0;stroke-opacity:1;visibility:visible;display:block;overflow:visible"
             d="M 41.410559,13.739267 C 41.423724,12.324125 35.058025,3.5320142 31.175441,3.6354934 C 32.148479,3.8684884 32.634036,9.5059668 31.244316,12.318467 C 33.994316,12.318467 40.446694,11.881093 41.410559,13.739267 z"
             id="path2210"
             sodipodi:nodetypes="cccc"
             inkscape:r_cx="true"
             inkscape:r_cy="true" />
          <path
             sodipodi:nodetypes="cccc"
             id="path2247"
             d="M 38.373065,10.820521 C 37.821714,9.8008851 35.225165,6.9819727 33.769819,6.0453244 C 33.950691,7.1249452 33.99069,8.6442222 33.524667,10.584399 C 33.524667,10.584399 37.782093,10.697772 38.373065,10.820521 z"
             style="opacity:1;color:#000000;fill:none;fill-opacity:1;fill-rule:evenodd;stroke:url(#linearGradient1929);stroke-width:1.71429169;stroke-linecap:butt;stroke-linejoin:miter;marker:none;marker-start:none;marker-mid:none;marker-end:none;stroke-miterlimit:4;stroke-dasharray:none;stroke-dashoffset:0;stroke-opacity:1;visibility:visible;display:inline;overflow:visible"
             inkscape:r_cx="true"
             inkscape:r_cy="true" />
        </g>
      </g>
    </g>
    <g
       id="g4370"
       transform="matrix(0.89937,0,0,0.89937,42.764134,0.2635773)">
      <path
         style="fill:url(#radialGradient4374);fill-opacity:1;stroke:#204a87;stroke-width:1.11188936;stroke-opacity:1"
         id="path8"
         d="M -12.269652,7.7500017 C -18.655711,7.7500017 -19.853127,18.125492 -16.260615,18.125492 C -12.668619,18.125492 -5.8833383,7.7500017 -12.269652,7.7500017 z M -22.141602,9.0180144 C -22.243009,9.0176154 -22.345605,9.0291486 -22.45796,9.0457811 C -26.051769,9.5780131 -24.78524,16.705687 -22.871651,16.838968 C -21.018622,16.968083 -18.998015,9.0303711 -22.141602,9.0180144 z M -28.249714,11.840962 C -28.469334,11.8246 -28.717131,11.880085 -28.987875,12.007563 C -31.876427,13.367613 -29.429868,18.974857 -27.81168,18.597525 C -26.344024,18.256105 -26.126741,11.999131 -28.249714,11.840962 z M -32.970726,16.246611 C -33.221871,16.236967 -33.492731,16.32421 -33.781894,16.552045 C -36.094193,18.375021 -33.000837,22.779117 -31.640404,22.09613 C -30.450029,21.498257 -31.212716,16.314119 -32.970726,16.246611 z M -20.519259,19.615639 C -25.36227,19.803229 -31.311024,22.64317 -32.370461,28.056714 C -33.578264,34.223439 -27.405121,42.773065 -20.957292,42.773065 C -17.785287,42.773065 -14.12224,39.508589 -13.437739,35.368611 C -12.914955,32.21165 -19.591017,33.474034 -19.351169,35.562978 C -19.063823,38.066869 -20.964944,39.305929 -22.82298,37.691759 C -28.737913,32.553365 -13.026896,29.986166 -14.06234,22.966153 C -14.411495,20.598931 -17.205622,19.487285 -20.519259,19.615639 z" />
      <path
         style="fill:none;fill-opacity:1;stroke:#729fcf;stroke-width:1.11188936;stroke-opacity:1"
         d="M -12.28125,8.875 C -13.5781,8.875 -14.532574,9.3594705 -15.3125,10.15625 C -16.091177,10.951754 -16.656698,12.086036 -16.9375,13.21875 C -17.218015,14.350306 -17.181775,15.485697 -16.96875,16.1875 C -16.861467,16.540941 -16.73773,16.768116 -16.625,16.875 C -16.505054,16.988726 -16.444348,17 -16.25,17 C -16.081703,17 -15.721913,16.877707 -15.3125,16.65625 C -14.903087,16.434793 -14.434382,16.123242 -13.96875,15.6875 C -13.034702,14.813411 -12.137327,13.609352 -11.53125,12.4375 C -11.228642,11.852406 -10.998882,11.274286 -10.875,10.78125 C -10.751118,10.288214 -10.727321,9.8772906 -10.78125,9.625 C -10.838435,9.3574771 -10.910816,9.2487863 -11.09375,9.125 C -11.26637,9.0081934 -11.631798,8.875 -12.28125,8.875 z M -22.15625,10.125 C -22.34085,10.126818 -22.575376,10.211774 -22.78125,10.34375 C -23.055749,10.519718 -23.284571,10.792955 -23.3125,10.9375 C -23.550931,11.437711 -23.671291,12.233185 -23.625,13.03125 C -23.578662,13.830124 -23.376191,14.660686 -23.125,15.1875 C -23.030449,15.389874 -22.962642,15.534753 -22.90625,15.625 C -22.878054,15.670123 -22.858837,15.705411 -22.84375,15.71875 C -22.849988,15.719236 -22.830016,15.705455 -22.8125,15.6875 C -22.794984,15.669545 -22.778573,15.642416 -22.75,15.59375 C -22.692855,15.496417 -22.625452,15.358968 -22.53125,15.15625 C -22.212986,14.578838 -21.900821,13.651534 -21.75,12.78125 C -21.599293,11.911624 -21.61005,11.056486 -21.75,10.59375 C -21.751734,10.583406 -21.751734,10.572844 -21.75,10.5625 C -21.786442,10.290433 -21.868267,10.207937 -22,10.15625 C -22.048576,10.137191 -22.094717,10.124394 -22.15625,10.125 z M -28.375,12.9375 C -28.411714,12.944474 -28.47538,12.973694 -28.53125,13 C -28.935589,13.190379 -29.05742,13.439071 -29.15625,13.90625 C -29.253053,14.363847 -29.218155,14.999235 -29.03125,15.625 C -28.843907,16.252231 -28.535355,16.8459 -28.25,17.1875 C -28.200222,17.24709 -28.161236,17.278107 -28.125,17.3125 C -28.093528,17.25421 -28.062216,17.195529 -28.03125,17.09375 C -27.884369,16.610972 -27.769289,15.864121 -27.78125,15.15625 C -27.793187,14.449835 -27.95227,13.759044 -28.125,13.34375 C -28.213349,13.131334 -28.276127,13.021227 -28.3125,12.96875 C -28.321593,12.955631 -28.307029,12.943568 -28.3125,12.9375 C -28.307035,12.937907 -28.338286,12.930526 -28.375,12.9375 z M -33.03125,17.34375 C -33.065361,17.340084 -33.127912,17.371546 -33.1875,17.4375 C -33.247088,17.503454 -33.293269,17.606356 -33.34375,17.71875 C -33.394231,17.831144 -33.443314,17.954244 -33.46875,18.0625 C -33.494186,18.170756 -33.505707,18.269922 -33.5,18.3125 C -33.5076,18.711413 -33.353731,19.259977 -33.09375,19.75 C -32.8334,20.240719 -32.465253,20.692217 -32.1875,20.90625 C -32.192824,20.88239 -32.181079,20.871055 -32.1875,20.84375 C -32.189234,20.833406 -32.189234,20.822844 -32.1875,20.8125 C -32.139009,20.400557 -32.167636,19.778229 -32.28125,19.1875 C -32.394845,18.596872 -32.610738,18.025111 -32.8125,17.6875 C -32.814234,17.677156 -32.814234,17.666594 -32.8125,17.65625 C -32.899475,17.415666 -32.98515,17.348705 -33.03125,17.34375 z M -20.5,20.75 C -22.722099,20.836072 -25.218746,21.556147 -27.25,22.84375 C -29.282339,24.132041 -30.819821,25.923423 -31.28125,28.28125 C -31.797407,30.916609 -30.701651,34.353829 -28.65625,37.0625 C -26.610695,39.771375 -23.699335,41.65625 -20.96875,41.65625 C -19.765502,41.65625 -18.267198,41.02086 -17.03125,39.84375 C -15.794393,38.665775 -14.828838,37.018616 -14.53125,35.21875 C -14.493811,34.992663 -14.493119,34.887617 -14.5,34.875 C -14.50344,34.868691 -14.529866,34.861282 -14.5625,34.84375 C -14.595134,34.826218 -14.61975,34.817552 -14.6875,34.78125 C -14.912072,34.660919 -15.526625,34.5215 -16.15625,34.59375 C -16.789628,34.666431 -17.449585,34.911542 -17.84375,35.15625 C -18.044141,35.280658 -18.168616,35.3502 -18.21875,35.40625 C -18.23379,35.423065 -18.242643,35.427238 -18.25,35.4375 C -18.24877,35.448218 -18.251168,35.458044 -18.25,35.46875 C -18.253436,35.474228 -18.24156,35.487986 -18.25,35.5 C -18.092383,37.023334 -18.541755,38.42719 -19.65625,39.125 C -20.789294,39.834424 -22.350607,39.556935 -23.53125,38.53125 C -24.37993,37.793989 -24.975325,37.004749 -25.1875,36.125 C -25.400086,35.243547 -25.196081,34.337927 -24.78125,33.625 C -23.956103,32.206908 -22.445445,31.212751 -20.90625,30.125 C -19.365236,29.035964 -17.733408,27.92455 -16.625,26.75 C -15.514513,25.573247 -14.957791,24.470498 -15.15625,23.125 C -15.272205,22.338841 -15.723413,21.822437 -16.65625,21.375 C -17.584043,20.929982 -18.978823,20.691077 -20.5,20.75 z"
         id="path2357" />
    </g>
    <g
       id="g2485"
       transform="matrix(0.7842374,-0.251925,0.2512199,0.7820424,4.4482181,27.664912)">
      <path
         id="path2212"
         d="M 26.012804,3.3202973 C 25.696155,3.3943463 25.51578,3.6993999 25.587355,4.0054664 L 26.641513,8.5132705 C 25.965958,8.8822096 25.352184,9.3500745 24.782212,9.8438129 L 21.072128,7.6796819 C 20.800827,7.5209504 20.460022,7.6149968 20.295801,7.895679 L 17.923821,11.895531 C 17.759601,12.176212 17.876156,12.545792 18.147457,12.704523 L 21.575412,14.693469 C 21.299902,15.560801 21.11721,16.466374 21.070371,17.395444 L 16.725894,18.411407 C 16.419827,18.482982 16.226395,18.779928 16.300444,19.096577 L 17.36988,23.669711 C 17.443929,23.98636 17.748984,24.166734 18.05505,24.09516 L 22.366861,23.086835 C 22.781305,23.836023 23.305151,24.49432 23.873898,25.111572 L 21.526944,29.071119 C 21.360115,29.350258 21.440468,29.693832 21.710276,29.855085 L 25.677462,32.234705 C 25.947271,32.395958 26.286961,32.297846 26.453789,32.018708 L 28.790994,28.164794 C 29.646461,28.412459 30.534887,28.58428 31.445026,28.612144 L 32.468629,32.989287 C 32.540203,33.295353 32.837149,33.488785 33.153799,33.414736 L 37.726933,32.3453 C 38.043582,32.271251 38.223956,31.966198 38.152382,31.660131 L 37.113501,27.217657 C 37.814362,26.815087 38.434127,26.311123 39.015216,25.773841 L 42.715552,28.043607 C 42.983322,28.208223 43.361875,28.129666 43.532183,27.852636 L 45.977133,23.870172 C 46.147441,23.593143 46.061572,23.250824 45.793801,23.086206 L 42.085827,20.783776 C 42.292758,20.033653 42.432045,19.247673 42.471264,18.454287 L 46.750411,17.4536 C 47.056477,17.382026 47.249909,17.085081 47.17586,16.768432 L 46.106424,12.195298 C 46.032375,11.878648 45.727321,11.698274 45.421255,11.769848 L 41.174773,12.762896 C 40.73573,11.963009 40.208309,11.234718 39.596878,10.582471 L 42.143243,6.8863555 C 42.327951,6.6187132 42.283938,6.2656484 42.025241,6.0871112 L 38.200574,3.4330029 C 37.941876,3.2544659 37.601318,3.348692 37.416608,3.6163347 L 34.7625,7.4410012 C 34.73053,7.4873242 34.712627,7.5441816 34.695059,7.5945788 C 33.932141,7.376048 33.132907,7.2260136 32.325265,7.1841146 L 31.271107,2.6763105 C 31.199533,2.370244 30.902589,2.1768122 30.585938,2.2508616 L 26.012804,3.3202973 z M 30.831242,13.907041 C 33.384239,13.310018 35.514115,14.780092 36.0173,16.931818 C 36.520483,19.083544 35.263393,21.345666 32.710394,21.94269 C 30.157394,22.539714 28.027521,21.069639 27.524336,18.917913 C 27.02115,16.766191 28.278243,14.504064 30.831242,13.907041 z"
         style="fill:url(#radialGradient2489);fill-opacity:1;fill-rule:evenodd;stroke:#555753;stroke-width:1;stroke-linecap:butt;stroke-linejoin:miter;stroke-miterlimit:4;stroke-dasharray:none;stroke-dashoffset:0;stroke-opacity:1" />
      <path
         transform="matrix(1.0452878,-0.2444425,0.2444425,1.0452878,-37.363201,15.597559)"
         d="M 60.5,3.25 L 60.5,7.15625 C 60.496479,7.5703048 60.210494,7.9482453 59.8125,8.0625 C 59.212599,8.228619 58.617411,8.4730048 58.03125,8.78125 C 57.680626,8.9647198 57.227804,8.9251771 56.9375,8.65625 L 54.34375,6.1875 L 51.90625,8.75 L 54.3125,11 C 54.627244,11.293647 54.678914,11.780586 54.46875,12.15625 C 54.06921,12.82689 53.744915,13.538474 53.53125,14.28125 C 53.416996,14.679245 53.039055,14.965229 52.625,14.96875 L 48.875,14.96875 L 48.875,18.53125 L 52.59375,18.53125 C 53.007805,18.534771 53.385746,18.820755 53.5,19.21875 C 53.68886,19.886671 53.980343,20.513823 54.34375,21.15625 C 54.544611,21.515651 54.504261,21.984607 54.21875,22.28125 L 51.53125,25.09375 L 54,27.5 L 56.65625,24.78125 C 56.949897,24.466506 57.436836,24.414836 57.8125,24.625 C 58.486779,25.003518 59.183718,25.307537 59.90625,25.5 C 60.304245,25.614254 60.590229,25.992195 60.59375,26.40625 L 60.59375,30.1875 L 64.15625,30.1875 L 64.15625,26.34375 C 64.154926,25.939357 64.428567,25.564508 64.8125,25.4375 C 65.437997,25.249716 66.049852,24.969408 66.65625,24.625 C 67.015651,24.424139 67.484607,24.464489 67.78125,24.75 L 70.375,27.3125 L 72.875,24.84375 L 70.28125,22.25 C 69.978325,21.947471 69.937115,21.461536 70.15625,21.09375 C 70.475199,20.508381 70.724465,19.915534 70.90625,19.28125 C 71.020504,18.883255 71.398445,18.597271 71.8125,18.59375 L 75.5,18.59375 L 75.5,15.03125 L 71.84375,15.03125 C 71.429695,15.027729 71.051754,14.741745 70.9375,14.34375 C 70.729928,13.600282 70.439945,12.904075 70.0625,12.25 C 69.852336,11.874336 69.904006,11.387397 70.21875,11.09375 L 73.0625,8.5 L 70.71875,5.9375 L 67.8125,8.5625 L 67.78125,8.59375 C 67.502398,8.9541153 66.997961,9.0630449 66.59375,8.84375 C 65.998677,8.5119092 65.391839,8.2481447 64.75,8.0625 C 64.352006,7.9482453 64.066021,7.5703048 64.0625,7.15625 L 64.0625,3.25 L 60.5,3.25 z M 62.21875,12 C 65.119724,12 67.21875,14.229306 67.21875,16.78125 C 67.218749,19.333195 65.119725,21.562499 62.21875,21.5625 C 59.317774,21.562501 57.21875,19.333195 57.21875,16.78125 C 57.218748,14.229307 59.317774,12 62.21875,12 z"
         id="path3195"
         style="fill:none;fill-opacity:1;fill-rule:evenodd;stroke:#dddddd;stroke-width:0.93154186;stroke-linecap:butt;stroke-linejoin:miter;stroke-miterlimit:4;stroke-dasharray:none;stroke-dashoffset:0;stroke-opacity:1"
         inkscape:original="M 60.375 3.125 L 60.375 7.15625 C 60.371912 7.5194123 60.130326 7.8372886 59.78125 7.9375 C 59.169905 8.1067881 58.559537 8.3768222 57.96875 8.6875 C 57.661279 8.8483892 57.285825 8.7983287 57.03125 8.5625 L 54.34375 6 L 51.71875 8.75 L 54.21875 11.09375 C 54.494859 11.351352 54.559366 11.764199 54.375 12.09375 C 53.971871 12.770414 53.623576 13.494497 53.40625 14.25 C 53.306039 14.599076 52.988162 14.840662 52.625 14.84375 L 48.75 14.84375 L 48.75 18.65625 L 52.59375 18.65625 C 52.956912 18.659338 53.274789 18.900924 53.375 19.25 C 53.567737 19.931631 53.884546 20.572703 54.25 21.21875 C 54.426168 21.533968 54.375412 21.927325 54.125 22.1875 L 51.34375 25.09375 L 54 27.6875 L 56.75 24.875 C 57.007602 24.598891 57.420449 24.534384 57.75 24.71875 C 58.429534 25.100218 59.139208 25.429005 59.875 25.625 C 60.224076 25.725211 60.465662 26.043088 60.46875 26.40625 L 60.46875 30.3125 L 64.28125 30.3125 L 64.28125 26.34375 C 64.280089 25.989098 64.507041 25.673886 64.84375 25.5625 C 65.481753 25.370962 66.108157 25.06554 66.71875 24.71875 C 67.033968 24.542582 67.427325 24.593338 67.6875 24.84375 L 70.375 27.5 L 73.0625 24.84375 L 70.375 22.15625 C 70.109267 21.890864 70.057769 21.478881 70.25 21.15625 C 70.571694 20.565843 70.8464 19.957479 71.03125 19.3125 C 71.131461 18.963424 71.449338 18.721838 71.8125 18.71875 L 75.625 18.71875 L 75.625 14.90625 L 71.84375 14.90625 C 71.480588 14.903162 71.162711 14.661576 71.0625 14.3125 C 70.851959 13.5584 70.53788 12.848827 70.15625 12.1875 C 69.971884 11.857949 70.036391 11.445102 70.3125 11.1875 L 73.21875 8.53125 L 70.71875 5.78125 L 67.71875 8.5 C 67.479528 8.8411617 67.022497 8.9486984 66.65625 8.75 C 66.056217 8.415393 65.434546 8.1264586 64.78125 7.9375 C 64.432174 7.8372886 64.190588 7.5194123 64.1875 7.15625 L 64.1875 3.125 L 60.375 3.125 z M 62.21875 12.125 C 65.060709 12.125 67.09375 14.292516 67.09375 16.78125 C 67.093749 19.269985 65.06071 21.437499 62.21875 21.4375 C 59.376789 21.437501 57.34375 19.269985 57.34375 16.78125 C 57.343748 14.292517 59.376789 12.125 62.21875 12.125 z "
         inkscape:radius="-0.1160666"
         sodipodi:type="inkscape:offset" />
    </g>
  </g>
</svg>
