<?xml version="1.0" encoding="UTF-8" standalone="no"?>
<!-- Created with Inkscape (http://www.inkscape.org/) -->
<svg
   xmlns:dc="http://purl.org/dc/elements/1.1/"
   xmlns:cc="http://web.resource.org/cc/"
   xmlns:rdf="http://www.w3.org/1999/02/22-rdf-syntax-ns#"
   xmlns:svg="http://www.w3.org/2000/svg"
   xmlns="http://www.w3.org/2000/svg"
   xmlns:xlink="http://www.w3.org/1999/xlink"
   xmlns:sodipodi="http://sodipodi.sourceforge.net/DTD/sodipodi-0.dtd"
   xmlns:inkscape="http://www.inkscape.org/namespaces/inkscape"
   sodipodi:docname="plugin-scalefilter.svg"
   sodipodi:docbase="/home/andrew/Desktop/images"
   inkscape:version="0.45"
   sodipodi:version="0.32"
   id="svg7631"
   height="48px"
   width="48px"
   inkscape:output_extension="org.inkscape.output.svg.inkscape"
   sodipodi:modified="true">
  <defs
     id="defs3">
    <linearGradient
       inkscape:collect="always"
       id="linearGradient4199">
      <stop
         style="stop-color:#ffffff;stop-opacity:1;"
         offset="0"
         id="stop4201" />
      <stop
         style="stop-color:#ffffff;stop-opacity:0;"
         offset="1"
         id="stop4203" />
    </linearGradient>
    <linearGradient
       inkscape:collect="always"
       id="linearGradient14450">
      <stop
         style="stop-color:#000000;stop-opacity:1;"
         offset="0"
         id="stop14452" />
      <stop
         style="stop-color:#000000;stop-opacity:0;"
         offset="1"
         id="stop14454" />
    </linearGradient>
    <linearGradient
       id="linearGradient6431">
      <stop
         style="stop-color:#eeeeed;stop-opacity:1;"
         offset="0"
         id="stop6433" />
      <stop
         style="stop-color:#9b9f95;stop-opacity:1;"
         offset="1"
         id="stop6435" />
    </linearGradient>
    <linearGradient
       id="linearGradient47870">
      <stop
         id="stop47872"
         offset="0"
         style="stop-color:#000000;stop-opacity:0" />
      <stop
         id="stop47878"
         offset="0.5"
         style="stop-color:#000000;stop-opacity:1" />
      <stop
         id="stop47874"
         offset="1"
         style="stop-color:#000000;stop-opacity:0" />
    </linearGradient>
    <linearGradient
       id="linearGradient51765">
      <stop
         id="stop51767"
         offset="0"
         style="stop-color:#000000;stop-opacity:1" />
      <stop
         id="stop51769"
         offset="1"
         style="stop-color:#000000;stop-opacity:0" />
    </linearGradient>
    <linearGradient
       id="linearGradient8553">
      <stop
         style="stop-color:#3465a4;stop-opacity:0.70588237;"
         offset="0"
         id="stop8555" />
      <stop
         id="stop8559"
         offset="0.5"
         style="stop-color:#3465a4;stop-opacity:0.83505154;" />
      <stop
         style="stop-color:#3465a4;stop-opacity:1;"
         offset="1"
         id="stop8557" />
    </linearGradient>
    <linearGradient
       inkscape:collect="always"
       xlink:href="#linearGradient8553"
       id="linearGradient12876"
       gradientUnits="userSpaceOnUse"
       gradientTransform="matrix(0.4643586,0.4829279,-0.4829279,0.4643586,23.553815,8.0301848)"
       x1="33.524208"
       y1="29.414341"
       x2="47.904255"
       y2="41.965485" />
    <linearGradient
       inkscape:collect="always"
       xlink:href="#linearGradient47870"
       id="linearGradient13124"
       gradientUnits="userSpaceOnUse"
       gradientTransform="matrix(0.9788196,0,0,0.7154223,-8.5008021,52.112719)"
       x1="32.084972"
       y1="-14.402173"
       x2="32.084972"
       y2="-5.5633383" />
    <radialGradient
       inkscape:collect="always"
       xlink:href="#linearGradient51765"
       id="radialGradient13126"
       gradientUnits="userSpaceOnUse"
       gradientTransform="matrix(1.9576392,-8.146468e-7,6.6614241e-7,1.4565793,-59.017557,62.738067)"
       cx="51.4375"
       cy="-12.203125"
       fx="51.4375"
       fy="-12.203125"
       r="2.171875" />
    <radialGradient
       inkscape:collect="always"
       xlink:href="#linearGradient51765"
       id="radialGradient13128"
       gradientUnits="userSpaceOnUse"
       gradientTransform="matrix(-1.9576392,-9.2540676e-8,-1.2888861e-7,1.4565793,110.01781,62.73803)"
       cx="51.4375"
       cy="-12.203125"
       fx="51.4375"
       fy="-12.203125"
       r="2.171875" />
    <radialGradient
       inkscape:collect="always"
       xlink:href="#linearGradient14450"
       id="radialGradient14456"
       cx="14.375"
       cy="-12.875001"
       fx="14.375"
       fy="-12.875001"
       r="18.875"
       gradientTransform="matrix(1,0,0,9.9337748e-2,0,-11.596027)"
       gradientUnits="userSpaceOnUse" />
    <radialGradient
       inkscape:collect="always"
       xlink:href="#linearGradient6431"
       id="radialGradient2280"
       gradientUnits="userSpaceOnUse"
       gradientTransform="matrix(0.8229466,-0.2430304,0.1364318,0.4619831,2.7697981,51.83354)"
       cx="25.000727"
       cy="-46.586014"
       fx="25.000727"
       fy="-46.586014"
       r="36.000511" />
    <linearGradient
       id="linearGradient3690">
      <stop
         style="stop-color:white;stop-opacity:1;"
         offset="0"
         id="stop3692" />
      <stop
         style="stop-color:white;stop-opacity:0.46875"
         offset="1"
         id="stop3694" />
    </linearGradient>
    <linearGradient
       id="linearGradient3674">
      <stop
         style="stop-color:#3465a4;stop-opacity:1"
         offset="0"
         id="stop3676" />
      <stop
         style="stop-color:#729fcf;stop-opacity:1;"
         offset="1"
         id="stop3678" />
    </linearGradient>
    <linearGradient
       id="linearGradient2781">
      <stop
         style="stop-color:#d3d7cf;stop-opacity:1"
         offset="0"
         id="stop2783" />
      <stop
         style="stop-color:#eeeeec;stop-opacity:1"
         offset="1"
         id="stop2785" />
    </linearGradient>
    <radialGradient
       inkscape:collect="always"
       xlink:href="#linearGradient4199"
       id="radialGradient4205"
       cx="7.1823454"
       cy="20.575272"
       fx="7.1823454"
       fy="20.575272"
       r="16.921875"
       gradientTransform="matrix(-1.3429609e-2,0.9388356,-1.8528662,-2.6504142e-2,47.391556,16.552287)"
       gradientUnits="userSpaceOnUse" />
  </defs>
  <sodipodi:namedview
     inkscape:guide-bbox="true"
     showguides="true"
     fill="#555753"
     inkscape:window-y="51"
     inkscape:window-x="254"
     inkscape:window-height="731"
     inkscape:window-width="906"
     inkscape:showpageshadow="false"
     inkscape:document-units="px"
     inkscape:grid-bbox="true"
     showgrid="false"
     inkscape:current-layer="layer1"
     inkscape:cy="37.131058"
     inkscape:cx="26.015736"
     inkscape:zoom="5.6568542"
     inkscape:pageshadow="2"
     inkscape:pageopacity="0.0"
     borderopacity="0.20392157"
     bordercolor="#666666"
     pagecolor="#ffffff"
     id="base" />
  <metadata
     id="metadata4">
    <rdf:RDF>
      <cc:Work
         rdf:about="">
        <dc:format>image/svg+xml</dc:format>
        <dc:type
           rdf:resource="http://purl.org/dc/dcmitype/StillImage" />
        <dc:creator>
          <cc:Agent>
            <dc:title>Patrick Niklaus</dc:title>
          </cc:Agent>
        </dc:creator>
        <dc:source />
        <dc:title>Scale</dc:title>
        <dc:subject>
          <rdf:Bag />
        </dc:subject>
        <cc:license
           rdf:resource="http://creativecommons.org/licenses/GPL/2.0/" />
      </cc:Work>
      <cc:License
         rdf:about="http://creativecommons.org/licenses/GPL/2.0/">
        <cc:permits
           rdf:resource="http://web.resource.org/cc/Reproduction" />
        <cc:permits
           rdf:resource="http://web.resource.org/cc/Distribution" />
        <cc:requires
           rdf:resource="http://web.resource.org/cc/Notice" />
        <cc:permits
           rdf:resource="http://web.resource.org/cc/DerivativeWorks" />
        <cc:requires
           rdf:resource="http://web.resource.org/cc/ShareAlike" />
        <cc:requires
           rdf:resource="http://web.resource.org/cc/SourceCode" />
      </cc:License>
    </rdf:RDF>
  </metadata>
  <g
     inkscape:groupmode="layer"
     inkscape:label="Layer 1"
     id="layer1">
    <g
       transform="matrix(0.4865702,0,0,0.9356153,19.429281,-12.170428)"
       id="g2358">
      <rect
         width="32.357079"
         height="6.3234997"
         x="9.3215466"
         y="41.809082"
         style="opacity:0.3;fill:url(#linearGradient13124);fill-opacity:1;fill-rule:evenodd;stroke:none;stroke-width:1.02400005;stroke-linecap:butt;stroke-linejoin:miter;stroke-miterlimit:4;stroke-dasharray:none;stroke-dashoffset:0;stroke-opacity:1"
         id="rect2360" />
      <path
         d="M 41.6785,41.799698 L 41.6785,48.126714 C 44.022298,48.102828 45.930248,46.705313 45.930248,44.974385 C 45.930248,43.243458 44.022299,41.823584 41.6785,41.799698 z "
         style="opacity:0.3;fill:url(#radialGradient13126);fill-opacity:1;fill-rule:evenodd;stroke:none;stroke-width:1.02400005;stroke-linecap:butt;stroke-linejoin:miter;stroke-miterlimit:4;stroke-dasharray:none;stroke-dashoffset:0;stroke-opacity:1"
         id="path2362" />
      <path
         d="M 9.3217476,41.799698 L 9.3217476,48.126714 C 6.9779494,48.102828 5.07,46.705313 5.07,44.974385 C 5.07,43.243458 6.9779484,41.823584 9.3217476,41.799698 z "
         style="opacity:0.3;fill:url(#radialGradient13128);fill-opacity:1;fill-rule:evenodd;stroke:none;stroke-width:1.02400005;stroke-linecap:butt;stroke-linejoin:miter;stroke-miterlimit:4;stroke-dasharray:none;stroke-dashoffset:0;stroke-opacity:1"
         id="path2364" />
    </g>
    <path
       style="fill:none;fill-rule:evenodd;stroke:#888a85;stroke-width:2.99999976;stroke-linecap:round;stroke-linejoin:round;stroke-miterlimit:4;stroke-dasharray:none;stroke-opacity:1"
       d="M 41.882659,23.936996 C 46.257498,22.831615 43.692646,22.192147 46.384397,20.23914"
       id="path6442"
       sodipodi:nodetypes="cc" />
    <path
       sodipodi:nodetypes="cc"
       id="path9351"
       d="M 7.5492366,23.925097 C 3.1743977,22.819714 5.7392491,22.180247 3.0474981,20.22724"
       style="fill:none;fill-rule:evenodd;stroke:#888a85;stroke-width:2.99999976;stroke-linecap:round;stroke-linejoin:round;stroke-miterlimit:4;stroke-dasharray:none;stroke-opacity:1" />
    <g
       id="g4790"
       transform="matrix(0.8669529,-0.49839,0.49839,0.8669529,74.774619,-59.178642)">
      <g
         transform="translate(-40.305087,6.1871844)"
         id="g3811">
        <path
           style="fill:#f57900;fill-opacity:1;stroke:none;stroke-width:65.29100037;stroke-miterlimit:4;stroke-opacity:1"
           d="M -46.418901,44.977888 C -50.483601,42.225272 -52.406447,37.635032 -51.462264,32.938317 L -39.989611,35.483962 L -46.418901,44.977888 z "
           id="path3761" />
        <path
           style="fill:#73d216;fill-opacity:1;stroke:none;stroke-width:65.29100037;stroke-miterlimit:4;stroke-opacity:1"
           d="M -29.381951,34.93842 C -29.233422,39.666741 -31.729692,43.76173 -35.929328,45.679016 L -40.425897,35.285342 L -29.381951,34.93842 z "
           id="path3805" />
        <path
           style="fill:#3465a4;fill-opacity:1;stroke:none;stroke-width:65.29100037;stroke-miterlimit:4;stroke-opacity:1"
           d="M -37.020027,24.919163 C -32.448659,26.607795 -29.505751,30.576099 -29.301186,35.327481 L -40.964168,35.596514 L -37.020027,24.919163 z "
           id="path3759" />
        <path
           style="fill:#edd400;fill-opacity:1;stroke:none;stroke-width:65.29100037;stroke-miterlimit:4;stroke-opacity:1"
           d="M -34.081321,44.600536 C -37.969602,47.295038 -42.763698,47.425251 -46.655576,44.942064 L -40.374874,35.518669 L -34.081321,44.600536 z "
           id="path3763" />
        <path
           style="fill:#5c3566;fill-opacity:1;stroke:none;stroke-width:65.29100037;stroke-miterlimit:4;stroke-opacity:1"
           d="M -46.154065,25.599387 C -41.754648,23.405274 -36.804303,23.983184 -33.169985,27.115166 L -41.029274,35.87511 L -46.154065,25.599387 z "
           id="path3765" />
        <path
           style="fill:#cc0000;fill-opacity:1;stroke:none;stroke-width:65.29100037;stroke-miterlimit:4;stroke-opacity:1"
           d="M -51.619057,36.658319 C -52.036439,31.839435 -49.745474,27.51609 -45.610167,25.318778 L -40.478866,35.67335 L -51.619057,36.658319 z "
           id="path3767" />
      </g>
      <path
         transform="matrix(1.1445486,0,0,1.1445486,-33.050815,46.381428)"
         d="M -33.25 -4.1250005 A 8.625 8.875 0 1 1  -50.5,-4.1250005 A 8.625 8.875 0 1 1  -33.25 -4.1250005 z"
         sodipodi:ry="8.875"
         sodipodi:rx="8.625"
         sodipodi:cy="-4.1250005"
         sodipodi:cx="-41.875"
         id="path2775"
         style="opacity:0.32400004;fill:#eeeeec;fill-opacity:0;stroke:#eeeeec;stroke-width:0.79431874;stroke-miterlimit:4;stroke-dasharray:none;stroke-opacity:1"
         sodipodi:type="arc" />
      <path
         transform="matrix(1.2494079,0,0,1.2494079,-28.5683,46.701459)"
         d="M -33.25 -4.1250005 A 8.625 8.875 0 1 1  -50.5,-4.1250005 A 8.625 8.875 0 1 1  -33.25 -4.1250005 z"
         sodipodi:ry="8.875"
         sodipodi:rx="8.625"
         sodipodi:cy="-4.1250005"
         sodipodi:cx="-41.875"
         id="path4788"
         style="opacity:0.7032001;fill:#2e3436;fill-opacity:0;stroke:#2e3436;stroke-width:0.79431874;stroke-miterlimit:4;stroke-dasharray:none;stroke-opacity:1"
         sodipodi:type="arc" />
    </g>
    <path
       style="fill:url(#radialGradient2280);fill-opacity:1;fill-rule:evenodd;stroke:#888a85;stroke-width:1;stroke-linecap:round;stroke-linejoin:round;stroke-miterlimit:4;stroke-dasharray:none;stroke-dashoffset:0;stroke-opacity:1"
       d="M 6.8636702,23.463498 C 6.8624838,23.538497 6.8475926,23.613338 6.8475926,23.688584 C 6.8475926,32.449142 14.914201,39.557213 24.854547,39.557213 C 34.794891,39.557213 42.8615,32.449142 42.8615,23.688584 C 42.8615,23.613462 42.862683,23.538374 42.8615,23.463498 L 6.8636702,23.463498 z "
       id="path2233" />
    <path
       sodipodi:type="inkscape:offset"
       inkscape:radius="-0.94623929"
       inkscape:original="M -10.8125 -50 C -10.481695 -33.817667 4.5075431 -20.65625 23.15625 -20.65625 C 41.804956 -20.656249 56.794195 -33.817668 57.125 -50 L -10.8125 -50 z "
       style="fill:none;fill-opacity:1;fill-rule:evenodd;stroke:#e7e8e6;stroke-width:1.94369352;stroke-linecap:round;stroke-linejoin:miter;stroke-miterlimit:4;stroke-dasharray:none;stroke-dashoffset:0;stroke-opacity:1"
       id="path11487"
       d="M -9.75,-49.0625 C -8.854995,-33.904188 5.3378166,-21.59375 23.15625,-21.59375 C 40.974682,-21.593749 55.167495,-33.904189 56.0625,-49.0625 L -9.75,-49.0625 z "
       transform="matrix(0.5144844,0,0,0.5144844,12.94291,49.693372)" />
    <g
       id="g11551"
       transform="matrix(1.0115688,0,0,1.0115688,0.1357029,-5.7879762)">
      <path
         transform="matrix(0.7197945,-0.210001,0.254312,0.5928197,24.202003,68.704237)"
         d="M 4.0658642 -60.098949 A 1.0606602 2.2097087 0 1 1  1.9445437,-60.098949 A 1.0606602 2.2097087 0 1 1  4.0658642 -60.098949 z"
         sodipodi:ry="2.2097087"
         sodipodi:rx="1.0606602"
         sodipodi:cy="-60.098949"
         sodipodi:cx="3.005204"
         id="path4178"
         style="fill:#ffffff;fill-opacity:1;fill-rule:evenodd;stroke:none;stroke-width:2;stroke-linecap:round;stroke-linejoin:round;stroke-miterlimit:4;stroke-dasharray:none;stroke-dashoffset:0;stroke-opacity:1"
         sodipodi:type="arc" />
      <path
         sodipodi:type="arc"
         style="fill:#ffffff;fill-opacity:1;fill-rule:evenodd;stroke:none;stroke-width:2;stroke-linecap:round;stroke-linejoin:round;stroke-miterlimit:4;stroke-dasharray:none;stroke-dashoffset:0;stroke-opacity:1"
         id="path11493"
         sodipodi:cx="3.005204"
         sodipodi:cy="-60.098949"
         sodipodi:rx="1.0606602"
         sodipodi:ry="2.2097087"
         d="M 4.0658642 -60.098949 A 1.0606602 2.2097087 0 1 1  1.9445437,-60.098949 A 1.0606602 2.2097087 0 1 1  4.0658642 -60.098949 z"
         transform="matrix(0.7472018,-6.2402044e-2,0.1311195,0.6315991,20.693374,70.591275)" />
      <path
         transform="matrix(0.7406843,-0.1165819,0.1767094,0.6203898,27.695505,70.124625)"
         d="M 4.0658642 -60.098949 A 1.0606602 2.2097087 0 1 1  1.9445437,-60.098949 A 1.0606602 2.2097087 0 1 1  4.0658642 -60.098949 z"
         sodipodi:ry="2.2097087"
         sodipodi:rx="1.0606602"
         sodipodi:cy="-60.098949"
         sodipodi:cx="3.005204"
         id="path11495"
         style="fill:#ffffff;fill-opacity:1;fill-rule:evenodd;stroke:none;stroke-width:2;stroke-linecap:round;stroke-linejoin:round;stroke-miterlimit:4;stroke-dasharray:none;stroke-dashoffset:0;stroke-opacity:1"
         sodipodi:type="arc" />
      <path
         sodipodi:type="arc"
         style="fill:#ffffff;fill-opacity:1;fill-rule:evenodd;stroke:none;stroke-width:2;stroke-linecap:round;stroke-linejoin:round;stroke-miterlimit:4;stroke-dasharray:none;stroke-dashoffset:0;stroke-opacity:1"
         id="path11497"
         sodipodi:cx="3.005204"
         sodipodi:cy="-60.098949"
         sodipodi:rx="1.0606602"
         sodipodi:ry="2.2097087"
         d="M 4.0658642 -60.098949 A 1.0606602 2.2097087 0 1 1  1.9445437,-60.098949 A 1.0606602 2.2097087 0 1 1  4.0658642 -60.098949 z"
         transform="matrix(0.7442456,9.1121236e-2,-2.9495402e-4,0.6450656,21.908386,70.907901)" />
      <path
         transform="matrix(-0.7472018,-6.2402044e-2,-0.1311195,0.6315991,32.334915,70.528461)"
         d="M 4.0658642 -60.098949 A 1.0606602 2.2097087 0 1 1  1.9445437,-60.098949 A 1.0606602 2.2097087 0 1 1  4.0658642 -60.098949 z"
         sodipodi:ry="2.2097087"
         sodipodi:rx="1.0606602"
         sodipodi:cy="-60.098949"
         sodipodi:cx="3.005204"
         id="path11501"
         style="fill:#ffffff;fill-opacity:1;fill-rule:evenodd;stroke:none;stroke-width:2;stroke-linecap:round;stroke-linejoin:round;stroke-miterlimit:4;stroke-dasharray:none;stroke-dashoffset:0;stroke-opacity:1"
         sodipodi:type="arc" />
      <path
         sodipodi:type="arc"
         style="fill:#ffffff;fill-opacity:1;fill-rule:evenodd;stroke:none;stroke-width:2;stroke-linecap:round;stroke-linejoin:round;stroke-miterlimit:4;stroke-dasharray:none;stroke-dashoffset:0;stroke-opacity:1"
         id="path11503"
         sodipodi:cx="3.005204"
         sodipodi:cy="-60.098949"
         sodipodi:rx="1.0606602"
         sodipodi:ry="2.2097087"
         d="M 4.0658642 -60.098949 A 1.0606602 2.2097087 0 1 1  1.9445437,-60.098949 A 1.0606602 2.2097087 0 1 1  4.0658642 -60.098949 z"
         transform="matrix(-0.7406843,-0.1165819,-0.1767094,0.6203898,25.553754,69.996895)" />
      <path
         transform="matrix(-0.7442456,9.1121236e-2,2.9495402e-4,0.6450656,31.208291,70.907901)"
         d="M 4.0658642 -60.098949 A 1.0606602 2.2097087 0 1 1  1.9445437,-60.098949 A 1.0606602 2.2097087 0 1 1  4.0658642 -60.098949 z"
         sodipodi:ry="2.2097087"
         sodipodi:rx="1.0606602"
         sodipodi:cy="-60.098949"
         sodipodi:cx="3.005204"
         id="path11505"
         style="fill:#ffffff;fill-opacity:1;fill-rule:evenodd;stroke:none;stroke-width:2;stroke-linecap:round;stroke-linejoin:round;stroke-miterlimit:4;stroke-dasharray:none;stroke-dashoffset:0;stroke-opacity:1"
         sodipodi:type="arc" />
      <path
         sodipodi:type="arc"
         style="fill:#ffffff;fill-opacity:1;fill-rule:evenodd;stroke:none;stroke-width:2;stroke-linecap:round;stroke-linejoin:round;stroke-miterlimit:4;stroke-dasharray:none;stroke-dashoffset:0;stroke-opacity:1"
         id="path11509"
         sodipodi:cx="3.005204"
         sodipodi:cy="-60.098949"
         sodipodi:rx="1.0606602"
         sodipodi:ry="2.2097087"
         d="M 4.0658642 -60.098949 A 1.0606602 2.2097087 0 1 1  1.9445437,-60.098949 A 1.0606602 2.2097087 0 1 1  4.0658642 -60.098949 z"
         transform="matrix(0.6424977,-0.1874496,0.2270021,0.5291584,24.193809,68.321811)" />
      <path
         transform="matrix(0.6669618,-5.5700855e-2,0.1170389,0.5637734,21.061962,70.006205)"
         d="M 4.0658642 -60.098949 A 1.0606602 2.2097087 0 1 1  1.9445437,-60.098949 A 1.0606602 2.2097087 0 1 1  4.0658642 -60.098949 z"
         sodipodi:ry="2.2097087"
         sodipodi:rx="1.0606602"
         sodipodi:cy="-60.098949"
         sodipodi:cx="3.005204"
         id="path11511"
         style="fill:#ffffff;fill-opacity:1;fill-rule:evenodd;stroke:none;stroke-width:2;stroke-linecap:round;stroke-linejoin:round;stroke-miterlimit:4;stroke-dasharray:none;stroke-dashoffset:0;stroke-opacity:1"
         sodipodi:type="arc" />
      <path
         sodipodi:type="arc"
         style="fill:#ffffff;fill-opacity:1;fill-rule:evenodd;stroke:none;stroke-width:2;stroke-linecap:round;stroke-linejoin:round;stroke-miterlimit:4;stroke-dasharray:none;stroke-dashoffset:0;stroke-opacity:1"
         id="path11513"
         sodipodi:cx="3.005204"
         sodipodi:cy="-60.098949"
         sodipodi:rx="1.0606602"
         sodipodi:ry="2.2097087"
         d="M 4.0658642 -60.098949 A 1.0606602 2.2097087 0 1 1  1.9445437,-60.098949 A 1.0606602 2.2097087 0 1 1  4.0658642 -60.098949 z"
         transform="matrix(0.6611442,-0.1040625,0.157733,0.5537678,27.312153,69.589667)" />
      <path
         transform="matrix(0.6643231,8.133597e-2,-2.632797e-4,0.5757937,22.146497,70.288829)"
         d="M 4.0658642 -60.098949 A 1.0606602 2.2097087 0 1 1  1.9445437,-60.098949 A 1.0606602 2.2097087 0 1 1  4.0658642 -60.098949 z"
         sodipodi:ry="2.2097087"
         sodipodi:rx="1.0606602"
         sodipodi:cy="-60.098949"
         sodipodi:cx="3.005204"
         id="path11515"
         style="fill:#ffffff;fill-opacity:1;fill-rule:evenodd;stroke:none;stroke-width:2;stroke-linecap:round;stroke-linejoin:round;stroke-miterlimit:4;stroke-dasharray:none;stroke-dashoffset:0;stroke-opacity:1"
         sodipodi:type="arc" />
      <path
         sodipodi:type="arc"
         style="fill:#ffffff;fill-opacity:1;fill-rule:evenodd;stroke:none;stroke-width:2;stroke-linecap:round;stroke-linejoin:round;stroke-miterlimit:4;stroke-dasharray:none;stroke-dashoffset:0;stroke-opacity:1"
         id="path11517"
         sodipodi:cx="3.005204"
         sodipodi:cy="-60.098949"
         sodipodi:rx="1.0606602"
         sodipodi:ry="2.2097087"
         d="M 4.0658642 -60.098949 A 1.0606602 2.2097087 0 1 1  1.9445437,-60.098949 A 1.0606602 2.2097087 0 1 1  4.0658642 -60.098949 z"
         transform="matrix(-0.6669618,-5.5700855e-2,-0.1170389,0.5637734,31.453349,69.950136)" />
      <path
         transform="matrix(-0.6611442,-0.1040625,-0.157733,0.5537678,25.400399,69.475654)"
         d="M 4.0658642 -60.098949 A 1.0606602 2.2097087 0 1 1  1.9445437,-60.098949 A 1.0606602 2.2097087 0 1 1  4.0658642 -60.098949 z"
         sodipodi:ry="2.2097087"
         sodipodi:rx="1.0606602"
         sodipodi:cy="-60.098949"
         sodipodi:cx="3.005204"
         id="path11519"
         style="fill:#ffffff;fill-opacity:1;fill-rule:evenodd;stroke:none;stroke-width:2;stroke-linecap:round;stroke-linejoin:round;stroke-miterlimit:4;stroke-dasharray:none;stroke-dashoffset:0;stroke-opacity:1"
         sodipodi:type="arc" />
      <path
         sodipodi:type="arc"
         style="fill:#ffffff;fill-opacity:1;fill-rule:evenodd;stroke:none;stroke-width:2;stroke-linecap:round;stroke-linejoin:round;stroke-miterlimit:4;stroke-dasharray:none;stroke-dashoffset:0;stroke-opacity:1"
         id="path11521"
         sodipodi:cx="3.005204"
         sodipodi:cy="-60.098949"
         sodipodi:rx="1.0606602"
         sodipodi:ry="2.2097087"
         d="M 4.0658642 -60.098949 A 1.0606602 2.2097087 0 1 1  1.9445437,-60.098949 A 1.0606602 2.2097087 0 1 1  4.0658642 -60.098949 z"
         transform="matrix(-0.6643231,8.133597e-2,2.632797e-4,0.5757937,30.44771,70.288829)" />
      <path
         transform="matrix(0.5431162,-0.1584549,0.1918894,0.4473082,24.372679,66.428538)"
         d="M 4.0658642 -60.098949 A 1.0606602 2.2097087 0 1 1  1.9445437,-60.098949 A 1.0606602 2.2097087 0 1 1  4.0658642 -60.098949 z"
         sodipodi:ry="2.2097087"
         sodipodi:rx="1.0606602"
         sodipodi:cy="-60.098949"
         sodipodi:cx="3.005204"
         id="path11523"
         style="fill:#ffffff;fill-opacity:1;fill-rule:evenodd;stroke:none;stroke-width:2;stroke-linecap:round;stroke-linejoin:round;stroke-miterlimit:4;stroke-dasharray:none;stroke-dashoffset:0;stroke-opacity:1"
         sodipodi:type="arc" />
      <path
         sodipodi:type="arc"
         style="fill:#ffffff;fill-opacity:1;fill-rule:evenodd;stroke:none;stroke-width:2;stroke-linecap:round;stroke-linejoin:round;stroke-miterlimit:4;stroke-dasharray:none;stroke-dashoffset:0;stroke-opacity:1"
         id="path11525"
         sodipodi:cx="3.005204"
         sodipodi:cy="-60.098949"
         sodipodi:rx="1.0606602"
         sodipodi:ry="2.2097087"
         d="M 4.0658642 -60.098949 A 1.0606602 2.2097087 0 1 1  1.9445437,-60.098949 A 1.0606602 2.2097087 0 1 1  4.0658642 -60.098949 z"
         transform="matrix(0.5637962,-4.7085048e-2,9.8935326e-2,0.4765689,21.725266,67.85239)" />
      <path
         transform="matrix(0.5588784,-8.7966115e-2,0.1333349,0.468111,27.008677,67.500282)"
         d="M 4.0658642 -60.098949 A 1.0606602 2.2097087 0 1 1  1.9445437,-60.098949 A 1.0606602 2.2097087 0 1 1  4.0658642 -60.098949 z"
         sodipodi:ry="2.2097087"
         sodipodi:rx="1.0606602"
         sodipodi:cy="-60.098949"
         sodipodi:cx="3.005204"
         id="path11527"
         style="fill:#ffffff;fill-opacity:1;fill-rule:evenodd;stroke:none;stroke-width:2;stroke-linecap:round;stroke-linejoin:round;stroke-miterlimit:4;stroke-dasharray:none;stroke-dashoffset:0;stroke-opacity:1"
         sodipodi:type="arc" />
      <path
         sodipodi:type="arc"
         style="fill:#ffffff;fill-opacity:1;fill-rule:evenodd;stroke:none;stroke-width:2;stroke-linecap:round;stroke-linejoin:round;stroke-miterlimit:4;stroke-dasharray:none;stroke-dashoffset:0;stroke-opacity:1"
         id="path11529"
         sodipodi:cx="3.005204"
         sodipodi:cy="-60.098949"
         sodipodi:rx="1.0606602"
         sodipodi:ry="2.2097087"
         d="M 4.0658642 -60.098949 A 1.0606602 2.2097087 0 1 1  1.9445437,-60.098949 A 1.0606602 2.2097087 0 1 1  4.0658642 -60.098949 z"
         transform="matrix(0.5615656,6.8754924e-2,-2.225556e-4,0.4867299,22.642045,68.091298)" />
      <path
         transform="matrix(-0.5637962,-4.7085048e-2,-9.8935326e-2,0.4765689,30.509313,67.804994)"
         d="M 4.0658642 -60.098949 A 1.0606602 2.2097087 0 1 1  1.9445437,-60.098949 A 1.0606602 2.2097087 0 1 1  4.0658642 -60.098949 z"
         sodipodi:ry="2.2097087"
         sodipodi:rx="1.0606602"
         sodipodi:cy="-60.098949"
         sodipodi:cx="3.005204"
         id="path11531"
         style="fill:#ffffff;fill-opacity:1;fill-rule:evenodd;stroke:none;stroke-width:2;stroke-linecap:round;stroke-linejoin:round;stroke-miterlimit:4;stroke-dasharray:none;stroke-dashoffset:0;stroke-opacity:1"
         sodipodi:type="arc" />
      <path
         sodipodi:type="arc"
         style="fill:#ffffff;fill-opacity:1;fill-rule:evenodd;stroke:none;stroke-width:2;stroke-linecap:round;stroke-linejoin:round;stroke-miterlimit:4;stroke-dasharray:none;stroke-dashoffset:0;stroke-opacity:1"
         id="path11533"
         sodipodi:cx="3.005204"
         sodipodi:cy="-60.098949"
         sodipodi:rx="1.0606602"
         sodipodi:ry="2.2097087"
         d="M 4.0658642 -60.098949 A 1.0606602 2.2097087 0 1 1  1.9445437,-60.098949 A 1.0606602 2.2097087 0 1 1  4.0658642 -60.098949 z"
         transform="matrix(-0.5588784,-8.7966115e-2,-0.1333349,0.468111,25.392633,67.403905)" />
      <path
         transform="matrix(-0.5615656,6.8754924e-2,2.225556e-4,0.4867299,29.659226,68.091298)"
         d="M 4.0658642 -60.098949 A 1.0606602 2.2097087 0 1 1  1.9445437,-60.098949 A 1.0606602 2.2097087 0 1 1  4.0658642 -60.098949 z"
         sodipodi:ry="2.2097087"
         sodipodi:rx="1.0606602"
         sodipodi:cy="-60.098949"
         sodipodi:cx="3.005204"
         id="path11535"
         style="fill:#ffffff;fill-opacity:1;fill-rule:evenodd;stroke:none;stroke-width:2;stroke-linecap:round;stroke-linejoin:round;stroke-miterlimit:4;stroke-dasharray:none;stroke-dashoffset:0;stroke-opacity:1"
         sodipodi:type="arc" />
      <path
         transform="matrix(0.4017856,-0.204272,0.2162954,0.3218416,30.719462,61.586064)"
         d="M 4.0658642 -60.098949 A 1.0606602 2.2097087 0 1 1  1.9445437,-60.098949 A 1.0606602 2.2097087 0 1 1  4.0658642 -60.098949 z"
         sodipodi:ry="2.2097087"
         sodipodi:rx="1.0606602"
         sodipodi:cy="-60.098949"
         sodipodi:cx="3.005204"
         id="path11539"
         style="fill:#ffffff;fill-opacity:1;fill-rule:evenodd;stroke:none;stroke-width:2;stroke-linecap:round;stroke-linejoin:round;stroke-miterlimit:4;stroke-dasharray:none;stroke-dashoffset:0;stroke-opacity:1"
         sodipodi:type="arc" />
      <path
         sodipodi:type="arc"
         style="fill:#ffffff;fill-opacity:1;fill-rule:evenodd;stroke:none;stroke-width:2;stroke-linecap:round;stroke-linejoin:round;stroke-miterlimit:4;stroke-dasharray:none;stroke-dashoffset:0;stroke-opacity:1"
         id="path11541"
         sodipodi:cx="3.005204"
         sodipodi:cy="-60.098949"
         sodipodi:rx="1.0606602"
         sodipodi:ry="2.2097087"
         d="M 4.0658642 -60.098949 A 1.0606602 2.2097087 0 1 1  1.9445437,-60.098949 A 1.0606602 2.2097087 0 1 1  4.0658642 -60.098949 z"
         transform="matrix(0.4452496,-7.0081223e-2,0.1062258,0.3729367,26.612554,64.36851)" />
      <path
         transform="matrix(0.4473905,5.4775968e-2,-1.7730655e-4,0.3877701,23.133727,64.839364)"
         d="M 4.0658642 -60.098949 A 1.0606602 2.2097087 0 1 1  1.9445437,-60.098949 A 1.0606602 2.2097087 0 1 1  4.0658642 -60.098949 z"
         sodipodi:ry="2.2097087"
         sodipodi:rx="1.0606602"
         sodipodi:cy="-60.098949"
         sodipodi:cx="3.005204"
         id="path11543"
         style="fill:#ffffff;fill-opacity:1;fill-rule:evenodd;stroke:none;stroke-width:2;stroke-linecap:round;stroke-linejoin:round;stroke-miterlimit:4;stroke-dasharray:none;stroke-dashoffset:0;stroke-opacity:1"
         sodipodi:type="arc" />
      <path
         transform="matrix(-0.4001215,-0.2075123,-0.2188893,0.3200831,18.285918,61.484096)"
         d="M 4.0658642 -60.098949 A 1.0606602 2.2097087 0 1 1  1.9445437,-60.098949 A 1.0606602 2.2097087 0 1 1  4.0658642 -60.098949 z"
         sodipodi:ry="2.2097087"
         sodipodi:rx="1.0606602"
         sodipodi:cy="-60.098949"
         sodipodi:cx="3.005204"
         id="path11547"
         style="fill:#ffffff;fill-opacity:1;fill-rule:evenodd;stroke:none;stroke-width:2;stroke-linecap:round;stroke-linejoin:round;stroke-miterlimit:4;stroke-dasharray:none;stroke-dashoffset:0;stroke-opacity:1"
         sodipodi:type="arc" />
      <path
         sodipodi:type="arc"
         style="fill:#ffffff;fill-opacity:1;fill-rule:evenodd;stroke:none;stroke-width:2;stroke-linecap:round;stroke-linejoin:round;stroke-miterlimit:4;stroke-dasharray:none;stroke-dashoffset:0;stroke-opacity:1"
         id="path11549"
         sodipodi:cx="3.005204"
         sodipodi:cy="-60.098949"
         sodipodi:rx="1.0606602"
         sodipodi:ry="2.2097087"
         d="M 4.0658642 -60.098949 A 1.0606602 2.2097087 0 1 1  1.9445437,-60.098949 A 1.0606602 2.2097087 0 1 1  4.0658642 -60.098949 z"
         transform="matrix(-0.4473905,5.4775968e-2,1.7730655e-4,0.3877701,28.724205,64.839364)" />
    </g>
    <path
       sodipodi:type="arc"
       style="opacity:0.33658537;fill:url(#radialGradient14456);fill-opacity:1;fill-rule:evenodd;stroke:none;stroke-width:3;stroke-linecap:round;stroke-linejoin:miter;stroke-miterlimit:4;stroke-dasharray:none;stroke-dashoffset:0;stroke-opacity:1"
       id="path13479"
       sodipodi:cx="14.375"
       sodipodi:cy="-12.875001"
       sodipodi:rx="18.875"
       sodipodi:ry="1.875"
       d="M 33.25 -12.875001 A 18.875 1.875 0 1 1  -4.5,-12.875001 A 18.875 1.875 0 1 1  33.25 -12.875001 z"
       transform="matrix(0.8311258,0,0,1.4,12.615066,58.775001)" />
    <path
       style="fill:url(#linearGradient12876);fill-opacity:1;fill-rule:evenodd;stroke:#3232cb;stroke-width:1;stroke-linecap:butt;stroke-linejoin:round;stroke-miterlimit:4;stroke-dasharray:none;stroke-opacity:1"
       d="M 22.465693,37.83844 L 22.56149,41.694827 L 19.879853,41.720218 L 25.340717,47.399457 L 31.082012,41.878922 L 28.201197,41.931531 L 28.097718,37.91823 L 22.465693,37.83844 z "
       id="path6755"
       sodipodi:nodetypes="cccccccc" />
  </g>
</svg>
