<?xml version="1.0" encoding="UTF-8" standalone="no"?>
<!-- Created with Inkscape (http://www.inkscape.org/) -->
<svg
   xmlns:dc="http://purl.org/dc/elements/1.1/"
   xmlns:cc="http://web.resource.org/cc/"
   xmlns:rdf="http://www.w3.org/1999/02/22-rdf-syntax-ns#"
   xmlns:svg="http://www.w3.org/2000/svg"
   xmlns="http://www.w3.org/2000/svg"
   xmlns:xlink="http://www.w3.org/1999/xlink"
   xmlns:sodipodi="http://sodipodi.sourceforge.net/DTD/sodipodi-0.dtd"
   xmlns:inkscape="http://www.inkscape.org/namespaces/inkscape"
   version="1.0"
   width="48"
   height="48"
   id="svg2160"
   sodipodi:version="0.32"
   inkscape:version="0.45"
   sodipodi:docname="plugin-resizeinfo.svg"
   sodipodi:docbase="/home/patrick/Projects/Fusion/config/ccsm-new-icons/images"
   inkscape:export-filename="/home/mark/beryl/resize.png"
   inkscape:export-xdpi="180"
   inkscape:export-ydpi="180"
   inkscape:output_extension="org.inkscape.output.svg.inkscape"
   sodipodi:modified="true">
  <metadata
     id="metadata68">
    <rdf:RDF>
      <cc:Work
         rdf:about="">
        <dc:format>image/svg+xml</dc:format>
        <dc:type
           rdf:resource="http://purl.org/dc/dcmitype/StillImage" />
      </cc:Work>
    </rdf:RDF>
  </metadata>
  <sodipodi:namedview
     inkscape:window-height="714"
     inkscape:window-width="1276"
     inkscape:pageshadow="2"
     inkscape:pageopacity="0.0"
     guidetolerance="10.0"
     gridtolerance="10.0"
     objecttolerance="10.0"
     borderopacity="1.0"
     bordercolor="#666666"
     pagecolor="#ffffff"
     id="base"
     inkscape:zoom="11.313708"
     inkscape:cx="39.587464"
     inkscape:cy="19.450824"
     inkscape:window-x="4"
     inkscape:window-y="52"
     inkscape:current-layer="svg2160"
     showgrid="false"
     showguides="true"
     inkscape:guide-bbox="false"
     inkscape:grid-bbox="false"
     inkscape:object-paths="false" />
  <defs
     id="defs2162">
    <linearGradient
       id="linearGradient3571">
      <stop
         style="stop-color:#c7c7c7;stop-opacity:1;"
         offset="0"
         id="stop3573" />
      <stop
         style="stop-color:#858585;stop-opacity:1;"
         offset="1"
         id="stop3575" />
    </linearGradient>
    <linearGradient
       id="linearGradient8553">
      <stop
         id="stop8555"
         offset="0"
         style="stop-color:#3465a4;stop-opacity:0.70588237;" />
      <stop
         style="stop-color:#3465a4;stop-opacity:0.83505154;"
         offset="0.5"
         id="stop8559" />
      <stop
         id="stop8557"
         offset="1"
         style="stop-color:#3465a4;stop-opacity:1;" />
    </linearGradient>
    <linearGradient
       id="linearGradient51765">
      <stop
         style="stop-color:#000000;stop-opacity:1"
         offset="0"
         id="stop51767" />
      <stop
         style="stop-color:#000000;stop-opacity:0"
         offset="1"
         id="stop51769" />
    </linearGradient>
    <linearGradient
       id="linearGradient47870">
      <stop
         style="stop-color:#000000;stop-opacity:0"
         offset="0"
         id="stop47872" />
      <stop
         style="stop-color:#000000;stop-opacity:1"
         offset="0.5"
         id="stop47878" />
      <stop
         style="stop-color:#000000;stop-opacity:0"
         offset="1"
         id="stop47874" />
    </linearGradient>
    <linearGradient
       inkscape:collect="always"
       xlink:href="#linearGradient8553"
       id="linearGradient3180"
       x1="33.524208"
       y1="29.414341"
       x2="47.904255"
       y2="41.965485"
       gradientUnits="userSpaceOnUse"
       gradientTransform="matrix(0.8437936,0,0,0.8430828,5.2536148,7.6236219)" />
    <radialGradient
       inkscape:collect="always"
       xlink:href="#linearGradient3571"
       id="radialGradient3577"
       cx="14.55146"
       cy="14.351469"
       fx="14.55146"
       fy="14.351469"
       r="11.336102"
       gradientTransform="matrix(-9.7965041e-2,1.2256759,-1.8321454,-0.2001884,43.746865,5.7646558)"
       gradientUnits="userSpaceOnUse" />
    <linearGradient
       id="linearGradient2781">
      <stop
         id="stop2783"
         offset="0"
         style="stop-color:#d3d7cf;stop-opacity:1" />
      <stop
         id="stop2785"
         offset="1"
         style="stop-color:#eeeeec;stop-opacity:1" />
    </linearGradient>
    <linearGradient
       id="linearGradient3674">
      <stop
         id="stop3676"
         offset="0"
         style="stop-color:#3465a4;stop-opacity:1" />
      <stop
         id="stop3678"
         offset="1"
         style="stop-color:#729fcf;stop-opacity:1;" />
    </linearGradient>
    <linearGradient
       id="linearGradient3690">
      <stop
         id="stop3692"
         offset="0"
         style="stop-color:white;stop-opacity:1;" />
      <stop
         id="stop3694"
         offset="1"
         style="stop-color:white;stop-opacity:0.46875" />
    </linearGradient>
    <linearGradient
       inkscape:collect="always"
       xlink:href="#linearGradient47870"
       id="linearGradient2296"
       gradientUnits="userSpaceOnUse"
       gradientTransform="matrix(0.9788196,0,0,0.7154223,-8.5008021,52.112719)"
       x1="32.084972"
       y1="-14.402173"
       x2="32.084972"
       y2="-5.5633383" />
    <radialGradient
       inkscape:collect="always"
       xlink:href="#linearGradient51765"
       id="radialGradient2298"
       gradientUnits="userSpaceOnUse"
       gradientTransform="matrix(1.9576392,-8.146468e-7,6.6614241e-7,1.4565793,-59.017557,62.738067)"
       cx="51.4375"
       cy="-12.203125"
       fx="51.4375"
       fy="-12.203125"
       r="2.171875" />
    <radialGradient
       inkscape:collect="always"
       xlink:href="#linearGradient51765"
       id="radialGradient2300"
       gradientUnits="userSpaceOnUse"
       gradientTransform="matrix(-1.9576392,-9.2540676e-8,-1.2888861e-7,1.4565793,110.01781,62.73803)"
       cx="51.4375"
       cy="-12.203125"
       fx="51.4375"
       fy="-12.203125"
       r="2.171875" />
    <linearGradient
       inkscape:collect="always"
       xlink:href="#linearGradient3674"
       id="linearGradient3280"
       gradientUnits="userSpaceOnUse"
       gradientTransform="matrix(1.2446024,0,0,1.193758,-7.0323217,-4.6617867)"
       x1="23.069359"
       y1="6.7993021"
       x2="23.069359"
       y2="12.403291" />
    <linearGradient
       inkscape:collect="always"
       xlink:href="#linearGradient3690"
       id="linearGradient3283"
       gradientUnits="userSpaceOnUse"
       gradientTransform="matrix(1.260288,0,0,1.2083613,-7.4166179,-4.9985331)"
       x1="9.5"
       y1="16.26436"
       x2="9.5"
       y2="13.408723" />
    <linearGradient
       inkscape:collect="always"
       xlink:href="#linearGradient2781"
       id="linearGradient3286"
       gradientUnits="userSpaceOnUse"
       gradientTransform="matrix(1.2446024,0,0,1.193758,-7.0323217,-4.6617867)"
       x1="24.925514"
       y1="40.000107"
       x2="24.925514"
       y2="19.53867" />
  </defs>
  <g
     style="opacity:0.7"
     id="g54724"
     transform="matrix(1.121011,0,0,1.3103062,-4.1250116,-16.512627)">
    <rect
       id="rect46899"
       style="opacity:0.3;fill:url(#linearGradient2296);fill-opacity:1;fill-rule:evenodd;stroke:none;stroke-width:1.02400005;stroke-linecap:butt;stroke-linejoin:miter;stroke-miterlimit:4;stroke-dasharray:none;stroke-dashoffset:0;stroke-opacity:1"
       y="41.809082"
       x="9.3215466"
       height="6.3234997"
       width="32.357079" />
    <path
       id="path48849"
       style="opacity:0.3;fill:url(#radialGradient2298);fill-opacity:1;fill-rule:evenodd;stroke:none;stroke-width:1.02400005;stroke-linecap:butt;stroke-linejoin:miter;stroke-miterlimit:4;stroke-dasharray:none;stroke-dashoffset:0;stroke-opacity:1"
       d="M 41.6785,41.799698 L 41.6785,48.126714 C 44.022298,48.102828 45.930248,46.705313 45.930248,44.974385 C 45.930248,43.243458 44.022299,41.823584 41.6785,41.799698 z " />
    <path
       id="path52742"
       style="opacity:0.3;fill:url(#radialGradient2300);fill-opacity:1;fill-rule:evenodd;stroke:none;stroke-width:1.02400005;stroke-linecap:butt;stroke-linejoin:miter;stroke-miterlimit:4;stroke-dasharray:none;stroke-dashoffset:0;stroke-opacity:1"
       d="M 9.3217476,41.799698 L 9.3217476,48.126714 C 6.9779494,48.102828 5.07,46.705313 5.07,44.974385 C 5.07,43.243458 6.9779484,41.823584 9.3217476,41.799698 z " />
  </g>
  <rect
     style="fill:url(#linearGradient3286);fill-opacity:1;stroke:#888a85;stroke-width:1.00000012;stroke-miterlimit:4;stroke-dasharray:none;stroke-opacity:1"
     id="rect1915"
     width="41.071926"
     height="36.409599"
     x="3.5467985"
     y="6.082036"
     rx="1.9999999"
     ry="1.9999998" />
  <path
     style="fill:url(#linearGradient3280);fill-opacity:1;stroke:#204a87;stroke-width:1.00000036;stroke-miterlimit:4;stroke-opacity:1"
     d="M 3.5467971,12.087038 L 3.5467971,7.8726786 C 3.5467971,6.5499947 4.6569824,5.4851626 6.0360018,5.4851626 L 42.12947,5.4851626 C 43.50849,5.4851626 44.618674,6.5499947 44.618674,7.8726786 L 44.618674,12.087038"
     id="path1917"
     sodipodi:nodetypes="cccccc" />
  <rect
     style="opacity:0.8;fill:none;fill-opacity:1;stroke:url(#linearGradient3283);stroke-width:1.00000072;stroke-miterlimit:4;stroke-dasharray:none;stroke-opacity:1"
     id="rect1919"
     width="39.068928"
     height="35.042484"
     x="4.5561175"
     y="6.4809074"
     rx="1.542266"
     ry="1.2922659" />
  <rect
     style="opacity:1;fill:url(#radialGradient3577);fill-opacity:1;fill-rule:evenodd;stroke:#555753;stroke-width:0.87307268;stroke-linecap:round;stroke-linejoin:round;stroke-miterlimit:4;stroke-dasharray:none;stroke-dashoffset:0;stroke-opacity:1"
     id="rect3195"
     width="19.67045"
     height="9.6807823"
     x="14.360845"
     y="19.070276"
     rx="2.0745566"
     ry="2.4126995" />
  <path
     style="fill:url(#linearGradient3180);fill-opacity:1;fill-rule:evenodd;stroke:#3232cb;stroke-width:1.11017346;stroke-linecap:butt;stroke-linejoin:round;stroke-miterlimit:4;stroke-dasharray:none;stroke-opacity:1"
     d="M 32.336867,33.811961 L 35.782782,37.158053 L 32.632264,40.341252 L 42.555289,40.341252 L 42.555289,30.318249 L 39.182736,33.911553 L 35.448887,30.574336 L 32.336867,33.811961 z "
     id="path6755"
     sodipodi:nodetypes="cccccccc" />
  <path
     style="font-size:6.5151701px;font-style:normal;font-weight:normal;fill:#ffffff;fill-opacity:1;stroke:none;stroke-width:1px;stroke-linecap:butt;stroke-linejoin:miter;stroke-opacity:1;font-family:Sans"
     d="M 16.632012,26.753909 L 16.632012,25.595218 C 16.889497,25.715565 17.135789,25.806526 17.370886,25.868097 C 17.605981,25.926874 17.838279,25.95626 18.06778,25.956258 C 18.549166,25.95626 18.924201,25.823319 19.192886,25.557434 C 19.461564,25.288754 19.619695,24.89133 19.667278,24.365158 C 19.476958,24.505099 19.274047,24.610054 19.058546,24.68002 C 18.843036,24.749991 18.609339,24.784975 18.357453,24.784974 C 17.716533,24.784975 17.19876,24.598859 16.804136,24.226618 C 16.412307,23.851587 16.216393,23.359004 16.216393,22.748869 C 16.216393,22.074371 16.434697,21.534206 16.871306,21.12838 C 17.310712,20.722565 17.898452,20.519654 18.634531,20.519648 C 19.451768,20.519654 20.08429,20.795333 20.532098,21.346684 C 20.979896,21.898047 21.203798,22.677504 21.203802,23.685057 C 21.203798,24.720604 20.942113,25.535047 20.418747,26.128384 C 19.895374,26.718925 19.177489,27.014195 18.265094,27.014195 C 17.97122,27.014195 17.689944,26.991804 17.421265,26.947025 C 17.152581,26.905043 16.889497,26.840672 16.632012,26.753909 M 18.626134,23.735435 C 18.908807,23.735437 19.121515,23.644478 19.264255,23.462555 C 19.406988,23.27784 19.478356,23.002161 19.47836,22.635518 C 19.478356,22.271683 19.406988,21.997403 19.264255,21.812679 C 19.121515,21.627966 18.908807,21.535606 18.626134,21.535602 C 18.343456,21.535606 18.13075,21.627966 17.988017,21.812679 C 17.845276,21.997403 17.773907,22.271683 17.77391,22.635518 C 17.773907,23.002161 17.845276,23.27784 17.988017,23.462555 C 18.13075,23.644478 18.343456,23.735437 18.626134,23.735435 M 23.659725,24.486905 L 21.963671,22.190514 L 23.554771,22.190514 L 24.516148,23.584301 L 25.490119,22.190514 L 27.081222,22.190514 L 25.385167,24.478509 L 27.165184,26.892448 L 25.574083,26.892448 L 24.516148,25.406302 L 23.470807,26.892448 L 21.879707,26.892448 L 23.659725,24.486905 M 27.866277,20.624601 L 32.589201,20.624601 L 32.589201,21.535602 L 30.145875,26.892448 L 28.571567,26.892448 L 30.884751,21.812679 L 27.866277,21.812679 L 27.866277,20.624601"
     id="text4151" />
</svg>
