<?xml version="1.0" encoding="UTF-8" standalone="no"?>
<!-- Created with Inkscape (http://www.inkscape.org/) -->
<svg
   xmlns:dc="http://purl.org/dc/elements/1.1/"
   xmlns:cc="http://web.resource.org/cc/"
   xmlns:rdf="http://www.w3.org/1999/02/22-rdf-syntax-ns#"
   xmlns:svg="http://www.w3.org/2000/svg"
   xmlns="http://www.w3.org/2000/svg"
   xmlns:xlink="http://www.w3.org/1999/xlink"
   xmlns:sodipodi="http://sodipodi.sourceforge.net/DTD/sodipodi-0.dtd"
   xmlns:inkscape="http://www.inkscape.org/namespaces/inkscape"
   inkscape:export-ydpi="90.000000"
   inkscape:export-xdpi="90.000000"
   inkscape:export-filename="/home/patrick/Desktop/desktop.png"
   width="48px"
   height="48px"
   id="svg11300"
   sodipodi:version="0.32"
   inkscape:version="0.45+devel"
   sodipodi:docbase="/home/patrick/Projects/Fusion/config/ccsm/images"
   sodipodi:docname="category-search.svg"
   inkscape:output_extension="org.inkscape.output.svg.inkscape">
  <defs
     id="defs3">
    <linearGradient
       id="linearGradient8440">
      <stop
         id="stop8442"
         offset="0"
         style="stop-color:#edeeec;stop-opacity:1;" />
      <stop
         id="stop8444"
         offset="1"
         style="stop-color:#babdb6;stop-opacity:1;" />
    </linearGradient>
    <radialGradient
       inkscape:collect="always"
       xlink:href="#linearGradient8440"
       id="radialGradient2393"
       gradientUnits="userSpaceOnUse"
       gradientTransform="matrix(0.3810944,0.455232,-0.594625,0.4977864,-8.1655377,-1.6212846)"
       cx="56.704376"
       cy="10.241054"
       fx="56.704376"
       fy="10.241054"
       r="14.75" />
    <radialGradient
       r="13.5"
       fy="28.851427"
       fx="17.062258"
       cy="28.851427"
       cx="17.062258"
       gradientTransform="matrix(1.459545,0,0,1.345339,-7.403138,-10.82184)"
       gradientUnits="userSpaceOnUse"
       id="radialGradient6655"
       xlink:href="#linearGradient4919"
       inkscape:collect="always" />
    <radialGradient
       r="10.55559"
       fy="10.901535"
       fx="59.787472"
       cy="10.901535"
       cx="59.787472"
       gradientTransform="matrix(0,-1.686609,1.66336,0,41.65431,111.7396)"
       gradientUnits="userSpaceOnUse"
       id="radialGradient6653"
       xlink:href="#linearGradient2617"
       inkscape:collect="always" />
    <radialGradient
       r="13.258252"
       fy="30.145554"
       fx="28.284271"
       cy="30.145554"
       cx="28.284271"
       gradientTransform="matrix(1,0,0,0.34,0,19.89607)"
       gradientUnits="userSpaceOnUse"
       id="radialGradient6651"
       xlink:href="#linearGradient2980"
       inkscape:collect="always" />
    <linearGradient
       y2="54.615208"
       x2="83.629295"
       y1="57.148193"
       x1="81.096306"
       gradientUnits="userSpaceOnUse"
       id="linearGradient6649"
       xlink:href="#linearGradient2690"
       inkscape:collect="always" />
    <linearGradient
       y2="53.511261"
       x2="82.919647"
       y1="55.106758"
       x1="81.332451"
       gradientUnits="userSpaceOnUse"
       id="linearGradient6647"
       xlink:href="#linearGradient2698"
       inkscape:collect="always" />
    <radialGradient
       r="10.498367"
       fy="-2.6936908"
       fx="45.094624"
       cy="-2.6936908"
       cx="45.094624"
       gradientTransform="matrix(0,1.143443,-1.247217,-1.248581e-6,41.735,-54.25682)"
       gradientUnits="userSpaceOnUse"
       id="radialGradient6645"
       xlink:href="#linearGradient2609"
       inkscape:collect="always" />
    <linearGradient
       y2="-4.6213989"
       x2="52.5"
       y1="12.472493"
       x1="55.878288"
       gradientUnits="userSpaceOnUse"
       id="linearGradient6643"
       xlink:href="#linearGradient23434"
       inkscape:collect="always" />
    <linearGradient
       y2="-3.8813655"
       x2="50.079948"
       y1="12.846775"
       x1="54.1129"
       gradientUnits="userSpaceOnUse"
       id="linearGradient6641"
       xlink:href="#linearGradient4931"
       inkscape:collect="always" />
    <radialGradient
       r="9.8125"
       fy="9.5280285"
       fx="8.0402098"
       cy="9.5280285"
       cx="8.0402098"
       gradientTransform="matrix(0.946826,0,0,0.946826,0.469351,0.499261)"
       gradientUnits="userSpaceOnUse"
       id="radialGradient6639"
       xlink:href="#linearGradient11102"
       inkscape:collect="always" />
    <radialGradient
       r="13.258252"
       fy="30.145554"
       fx="28.284271"
       cy="30.145554"
       cx="28.284271"
       gradientTransform="matrix(1,0,0,0.34,0,19.89607)"
       gradientUnits="userSpaceOnUse"
       id="radialGradient6637"
       xlink:href="#linearGradient2980"
       inkscape:collect="always" />
    <radialGradient
       r="16.924615"
       fy="24.743624"
       fx="16.829521"
       cy="24.743624"
       cx="16.829521"
       gradientTransform="matrix(2.1985764,-0.7087755,0.6286175,1.9500001,-86.717588,-17.612343)"
       gradientUnits="userSpaceOnUse"
       id="radialGradient6634"
       xlink:href="#linearGradient4952"
       inkscape:collect="always" />
    <linearGradient
       y2="38.434578"
       x2="43.0625"
       y1="41"
       x1="40.25"
       gradientTransform="matrix(0.9987472,-5.0039465e-2,5.0039465e-2,0.9987472,-56.180753,-2.6239743)"
       gradientUnits="userSpaceOnUse"
       id="linearGradient6626"
       xlink:href="#linearGradient19900"
       inkscape:collect="always" />
    <linearGradient
       y2="35.272079"
       x2="37.211494"
       y1="32.045906"
       x1="33.985317"
       gradientTransform="matrix(0.9987472,-5.0039465e-2,5.0039465e-2,0.9987472,-56.180753,-2.6239743)"
       gradientUnits="userSpaceOnUse"
       id="linearGradient6623"
       xlink:href="#linearGradient19914"
       inkscape:collect="always" />
    <linearGradient
       inkscape:collect="always"
       id="linearGradient23434">
      <stop
         style="stop-color:#2e3436"
         offset="0"
         id="stop23436" />
      <stop
         style="stop-color:#555753"
         offset="1"
         id="stop23438" />
    </linearGradient>
    <linearGradient
       inkscape:collect="always"
       id="linearGradient19914">
      <stop
         style="stop-color:#000000;stop-opacity:1;"
         offset="0"
         id="stop19916" />
      <stop
         style="stop-color:#000000;stop-opacity:0;"
         offset="1"
         id="stop19918" />
    </linearGradient>
    <linearGradient
       inkscape:collect="always"
       id="linearGradient19900">
      <stop
         style="stop-color:#888a85"
         offset="0"
         id="stop19902" />
      <stop
         style="stop-color:#d3d7cf"
         offset="1"
         id="stop19904" />
    </linearGradient>
    <linearGradient
       inkscape:collect="always"
       id="linearGradient11102">
      <stop
         style="stop-color:#ffffff;stop-opacity:1;"
         offset="0"
         id="stop11104" />
      <stop
         style="stop-color:#ffffff;stop-opacity:0;"
         offset="1"
         id="stop11106" />
    </linearGradient>
    <linearGradient
       inkscape:collect="always"
       id="linearGradient4952">
      <stop
         style="stop-color:#ffffff;stop-opacity:1;"
         offset="0"
         id="stop4954" />
      <stop
         style="stop-color:#ffffff;stop-opacity:0;"
         offset="1"
         id="stop4956" />
    </linearGradient>
    <linearGradient
       inkscape:collect="always"
       id="linearGradient4931">
      <stop
         style="stop-color:#babdb6;stop-opacity:1;"
         offset="0"
         id="stop4933" />
      <stop
         style="stop-color:#888a85"
         offset="1"
         id="stop4935" />
    </linearGradient>
    <linearGradient
       id="linearGradient4919">
      <stop
         style="stop-color:#729fcf;stop-opacity:1"
         offset="0"
         id="stop4921" />
      <stop
         style="stop-color:#204a87;stop-opacity:1"
         offset="1"
         id="stop4923" />
    </linearGradient>
    <linearGradient
       inkscape:collect="always"
       id="linearGradient2980">
      <stop
         style="stop-color:#000000;stop-opacity:1;"
         offset="0"
         id="stop2982" />
      <stop
         style="stop-color:#000000;stop-opacity:0;"
         offset="1"
         id="stop2984" />
    </linearGradient>
    <linearGradient
       id="linearGradient2609"
       inkscape:collect="always">
      <stop
         id="stop2611"
         offset="0"
         style="stop-color:#ffffff;stop-opacity:1" />
      <stop
         id="stop2613"
         offset="1"
         style="stop-color:#eeeeec" />
    </linearGradient>
    <linearGradient
       id="linearGradient2617">
      <stop
         id="stop2619"
         offset="0"
         style="stop-color:#fbfbfa;stop-opacity:1;" />
      <stop
         id="stop2621"
         offset="1"
         style="stop-color:#d3d7cf" />
    </linearGradient>
    <linearGradient
       id="linearGradient2690"
       inkscape:collect="always">
      <stop
         id="stop2692"
         offset="0"
         style="stop-color:#2e3436" />
      <stop
         id="stop2694"
         offset="1"
         style="stop-color:#555753" />
    </linearGradient>
    <linearGradient
       id="linearGradient2698">
      <stop
         id="stop2700"
         offset="0"
         style="stop-color:#555753" />
      <stop
         style="stop-color:#a3a5a2;stop-opacity:1;"
         offset="0.70238096"
         id="stop2706" />
      <stop
         id="stop2702"
         offset="1"
         style="stop-color:#888a85" />
    </linearGradient>
    <linearGradient
       inkscape:collect="always"
       id="linearGradient4790">
      <stop
         style="stop-color:#000000;stop-opacity:1;"
         offset="0"
         id="stop4792" />
      <stop
         style="stop-color:#000000;stop-opacity:0;"
         offset="1"
         id="stop4794" />
    </linearGradient>
    <linearGradient
       inkscape:collect="always"
       id="linearGradient2251">
      <stop
         style="stop-color:#ffffff;stop-opacity:1;"
         offset="0"
         id="stop2253" />
      <stop
         style="stop-color:#ffffff;stop-opacity:0;"
         offset="1"
         id="stop2255" />
    </linearGradient>
    <linearGradient
       id="linearGradient15662">
      <stop
         id="stop15664"
         offset="0.0000000"
         style="stop-color:#ffffff;stop-opacity:1.0000000;" />
      <stop
         id="stop15666"
         offset="1.0000000"
         style="stop-color:#f8f8f8;stop-opacity:1.0000000;" />
    </linearGradient>
    <linearGradient
       id="linearGradient269">
      <stop
         id="stop270"
         offset="0.0000000"
         style="stop-color:#a3a3a3;stop-opacity:1.0000000;" />
      <stop
         id="stop271"
         offset="1"
         style="stop-color:#8a8a8a;stop-opacity:1;" />
    </linearGradient>
    <linearGradient
       id="linearGradient259">
      <stop
         id="stop260"
         offset="0.0000000"
         style="stop-color:#fafafa;stop-opacity:1.0000000;" />
      <stop
         id="stop261"
         offset="1.0000000"
         style="stop-color:#bbbbbb;stop-opacity:1.0000000;" />
    </linearGradient>
    <linearGradient
       y2="38.070381"
       x2="34.170048"
       y1="36.921333"
       x1="33.396004"
       gradientTransform="matrix(-2.48131e-2,-0.756771,0.756567,-2.481981e-2,8.221918,36.1682)"
       gradientUnits="userSpaceOnUse"
       id="linearGradient1929"
       xlink:href="#linearGradient2251"
       inkscape:collect="always" />
    <radialGradient
       r="37.751713"
       fy="2.3667307"
       fx="31.863327"
       cy="2.3667307"
       cx="31.863327"
       gradientTransform="matrix(0.331735,0,0,0.353831,20.10526,9.5823)"
       gradientUnits="userSpaceOnUse"
       id="radialGradient1927"
       xlink:href="#linearGradient269"
       inkscape:collect="always" />
    <radialGradient
       r="86.708450"
       fy="14.9373"
       fx="30.653816"
       cy="14.9373"
       cx="30.653816"
       gradientTransform="matrix(0.148355,1.009137e-2,-1.104438e-2,0.162365,25.06011,12.81706)"
       gradientUnits="userSpaceOnUse"
       id="radialGradient1925"
       xlink:href="#linearGradient259"
       inkscape:collect="always" />
    <radialGradient
       r="4.2929165"
       fy="12.98915"
       fx="37.030354"
       cy="12.98915"
       cx="37.030354"
       gradientTransform="matrix(1.744653,0,0,1.283833,-26.58256,-3.478359)"
       gradientUnits="userSpaceOnUse"
       id="radialGradient1923"
       xlink:href="#linearGradient4790"
       inkscape:collect="always" />
    <linearGradient
       y2="39.999443"
       x2="25.058096"
       y1="47.027729"
       x1="25.058096"
       gradientUnits="userSpaceOnUse"
       id="linearGradient3721"
       xlink:href="#linearGradient3702"
       inkscape:collect="always" />
    <radialGradient
       r="2.5"
       fy="43.5"
       fx="4.9929786"
       cy="43.5"
       cx="4.9929786"
       gradientTransform="matrix(2.003784,0,0,1.4,-20.01187,-104.4)"
       gradientUnits="userSpaceOnUse"
       id="radialGradient3719"
       xlink:href="#linearGradient3688"
       inkscape:collect="always" />
    <radialGradient
       r="2.5"
       fy="43.5"
       fx="4.9929786"
       cy="43.5"
       cx="4.9929786"
       gradientTransform="matrix(2.003784,0,0,1.4,27.98813,-17.4)"
       gradientUnits="userSpaceOnUse"
       id="radialGradient3717"
       xlink:href="#linearGradient3688"
       inkscape:collect="always" />
    <radialGradient
       r="38.158695"
       fy="7.2678967"
       fx="8.1435566"
       cy="7.2678967"
       cx="8.1435566"
       gradientTransform="matrix(0.968273,0,0,1.032767,3.353553,0.646447)"
       gradientUnits="userSpaceOnUse"
       id="radialGradient15668"
       xlink:href="#linearGradient15662"
       inkscape:collect="always" />
    <radialGradient
       r="86.708450"
       fy="35.736916"
       fx="33.966679"
       cy="35.736916"
       cx="33.966679"
       gradientTransform="matrix(0.961084,0,0,1.044459,-4.060961e-3,-0.142424)"
       gradientUnits="userSpaceOnUse"
       id="radialGradient15658"
       xlink:href="#linearGradient259"
       inkscape:collect="always" />
    <radialGradient
       r="37.751713"
       fy="3.7561285"
       fx="8.8244190"
       cy="3.7561285"
       cx="8.8244190"
       gradientTransform="matrix(0.968868,0,0,1.036068,3.351554,0.506089)"
       gradientUnits="userSpaceOnUse"
       id="radialGradient15656"
       xlink:href="#linearGradient269"
       inkscape:collect="always" />
    <linearGradient
       id="linearGradient3688"
       inkscape:collect="always">
      <stop
         id="stop3690"
         offset="0"
         style="stop-color:black;stop-opacity:1;" />
      <stop
         id="stop3692"
         offset="1"
         style="stop-color:black;stop-opacity:0;" />
    </linearGradient>
    <linearGradient
       id="linearGradient3702">
      <stop
         id="stop3704"
         offset="0"
         style="stop-color:black;stop-opacity:0;" />
      <stop
         style="stop-color:black;stop-opacity:1;"
         offset="0.5"
         id="stop3710" />
      <stop
         id="stop3706"
         offset="1"
         style="stop-color:black;stop-opacity:0;" />
    </linearGradient>
  </defs>
  <sodipodi:namedview
     stroke="#ef2929"
     fill="#eeeeec"
     id="base"
     pagecolor="#ffffff"
     bordercolor="#666666"
     borderopacity="0.25490196"
     inkscape:pageopacity="0.0"
     inkscape:pageshadow="2"
     inkscape:zoom="1.4142135"
     inkscape:cx="4.259234"
     inkscape:cy="22.209703"
     inkscape:current-layer="layer1"
     showgrid="false"
     inkscape:grid-bbox="true"
     inkscape:document-units="px"
     inkscape:showpageshadow="false"
     inkscape:window-width="906"
     inkscape:window-height="662"
     inkscape:window-x="107"
     inkscape:window-y="49"
     showguides="true"
     inkscape:guide-bbox="true">
    <sodipodi:guide
       orientation="vertical"
       position="5.0000003"
       id="guide2731" />
    <sodipodi:guide
       orientation="horizontal"
       position="5.0000003"
       id="guide2733" />
  </sodipodi:namedview>
  <metadata
     id="metadata4">
    <rdf:RDF>
      <cc:Work
         rdf:about="">
        <dc:format>image/svg+xml</dc:format>
        <dc:type
           rdf:resource="http://purl.org/dc/dcmitype/StillImage" />
        <dc:creator>
          <cc:Agent>
            <dc:title />
          </cc:Agent>
        </dc:creator>
        <dc:source />
        <cc:license
           rdf:resource="http://creativecommons.org/licenses/GPL/2.0/" />
        <dc:title>Desktop</dc:title>
        <dc:subject>
          <rdf:Bag />
        </dc:subject>
      </cc:Work>
      <cc:License
         rdf:about="http://creativecommons.org/licenses/GPL/2.0/">
        <cc:permits
           rdf:resource="http://web.resource.org/cc/Reproduction" />
        <cc:permits
           rdf:resource="http://web.resource.org/cc/Distribution" />
        <cc:requires
           rdf:resource="http://web.resource.org/cc/Notice" />
        <cc:permits
           rdf:resource="http://web.resource.org/cc/DerivativeWorks" />
        <cc:requires
           rdf:resource="http://web.resource.org/cc/ShareAlike" />
        <cc:requires
           rdf:resource="http://web.resource.org/cc/SourceCode" />
      </cc:License>
    </rdf:RDF>
  </metadata>
  <g
     id="layer1"
     inkscape:label="Layer 1"
     inkscape:groupmode="layer">
    <g
       id="g2709"
       transform="translate(-1.0937593,-2.0284743)">
      <g
         inkscape:label="Shadow"
         id="g2711">
        <g
           transform="matrix(1.052632,0,0,1.285713,-1.263158,-13.42854)"
           style="opacity:0.4"
           id="g3712">
          <rect
             style="opacity:1;fill:url(#radialGradient3717);fill-opacity:1;stroke:none;stroke-width:1;stroke-linecap:round;stroke-linejoin:miter;stroke-miterlimit:4;stroke-dasharray:none;stroke-opacity:1"
             id="rect2801"
             width="5"
             height="7"
             x="38"
             y="40" />
          <rect
             style="opacity:1;fill:url(#radialGradient3719);fill-opacity:1;stroke:none;stroke-width:1;stroke-linecap:round;stroke-linejoin:miter;stroke-miterlimit:4;stroke-dasharray:none;stroke-opacity:1"
             id="rect3696"
             width="5"
             height="7"
             x="-10"
             y="-47"
             transform="scale(-1,-1)" />
          <rect
             style="opacity:1;fill:url(#linearGradient3721);fill-opacity:1;stroke:none;stroke-width:1;stroke-linecap:round;stroke-linejoin:miter;stroke-miterlimit:4;stroke-dasharray:none;stroke-opacity:1"
             id="rect3700"
             width="28"
             height="7.0000005"
             x="10"
             y="40" />
        </g>
      </g>
      <g
         id="g2717"
         inkscape:label="Base"
         style="display:inline">
        <path
           sodipodi:nodetypes="ccccccccc"
           id="path2719"
           d="M 7.7533083,3.5156762 L 36.217818,3.5000013 C 36.217818,3.5000013 41.500001,8.7962658 41.500001,9.4348733 L 41.500001,43.414232 C 41.500001,44.052839 40.98721,44.566952 40.350246,44.566952 L 7.7533083,44.566952 C 7.1163439,44.566952 6.603553,44.052839 6.603553,43.414232 L 6.603553,4.6683972 C 6.603553,4.0297898 7.1163439,3.5156762 7.7533083,3.5156762 z"
           style="color:#000000;fill:url(#radialGradient15658);fill-opacity:1;fill-rule:nonzero;stroke:url(#radialGradient15656);stroke-width:1.00000012;stroke-linecap:round;stroke-linejoin:round;marker:none;marker-start:none;marker-mid:none;marker-end:none;stroke-miterlimit:4;stroke-dashoffset:0;stroke-opacity:1;visibility:visible;display:block;overflow:visible" />
        <path
           sodipodi:nodetypes="ccccccccc"
           id="path2721"
           d="M 7.8151023,4.5839462 L 36.691494,4.5839462 C 36.691494,4.5839462 40.44194,8.605373 40.44194,8.687946 L 40.44194,43.381282 C 40.44194,43.463855 40.375465,43.530331 40.292892,43.530331 L 7.8151023,43.530331 C 7.7325294,43.530331 7.6660538,43.463855 7.6660538,43.381282 L 7.6660538,4.7329948 C 7.6660538,4.6504219 7.7325294,4.5839462 7.8151023,4.5839462 z"
           style="color:#000000;fill:none;fill-opacity:1;fill-rule:nonzero;stroke:url(#radialGradient15668);stroke-width:1;stroke-linecap:round;stroke-linejoin:round;marker:none;marker-start:none;marker-mid:none;marker-end:none;stroke-miterlimit:4;stroke-dashoffset:0;stroke-opacity:1;visibility:visible;display:block;overflow:visible" />
      </g>
      <g
         style="display:inline"
         inkscape:label="Text"
         id="layer5">
        <g
           transform="matrix(0.589097,0,0,0.577622,17.11331,1.395056)"
           id="g1918">
          <path
             inkscape:r_cy="true"
             inkscape:r_cx="true"
             style="opacity:0.35714285;color:#000000;fill:url(#radialGradient1923);fill-opacity:1;fill-rule:evenodd;stroke:none;stroke-width:1.00000024;stroke-linecap:butt;stroke-linejoin:miter;marker:none;marker-start:none;marker-mid:none;marker-end:none;stroke-miterlimit:4;stroke-dasharray:none;stroke-dashoffset:0;stroke-opacity:1;visibility:visible;display:inline;overflow:visible"
             d="M 40.985189,13.861445 C 40.256827,12.514817 34.882221,10.130934 32.084635,9.3314083 C 32.254143,10.904354 31.961856,15.649439 31.961856,15.649439 C 34.024356,14.274439 40.204485,13.699331 40.985189,13.861445 z"
             id="path2725"
             sodipodi:nodetypes="cccc" />
          <path
             style="opacity:1;color:#000000;fill:url(#radialGradient1925);fill-opacity:1;fill-rule:nonzero;stroke:url(#radialGradient1927);stroke-width:1.71429098;stroke-linecap:butt;stroke-linejoin:round;marker:none;marker-start:none;marker-mid:none;marker-end:none;stroke-miterlimit:4;stroke-dasharray:none;stroke-dashoffset:0;stroke-opacity:1;visibility:visible;display:block;overflow:visible"
             d="M 41.410559,13.739267 C 41.423724,12.324125 35.058025,3.5320142 31.175441,3.6354934 C 32.148479,3.8684884 32.634036,9.5059668 31.244316,12.318467 C 33.994316,12.318467 40.446694,11.881093 41.410559,13.739267 z"
             id="path2727"
             sodipodi:nodetypes="cccc"
             inkscape:r_cx="true"
             inkscape:r_cy="true" />
          <path
             sodipodi:nodetypes="cccc"
             id="path2729"
             d="M 38.373065,10.820521 C 37.821714,9.8008851 35.225165,6.9819727 33.769819,6.0453244 C 33.950691,7.1249452 33.99069,8.6442222 33.524667,10.584399 C 33.524667,10.584399 37.782093,10.697772 38.373065,10.820521 z"
             style="opacity:1;color:#000000;fill:none;fill-opacity:1;fill-rule:evenodd;stroke:url(#linearGradient1929);stroke-width:1.71429169;stroke-linecap:butt;stroke-linejoin:miter;marker:none;marker-start:none;marker-mid:none;marker-end:none;stroke-miterlimit:4;stroke-dasharray:none;stroke-dashoffset:0;stroke-opacity:1;visibility:visible;display:inline;overflow:visible"
             inkscape:r_cx="true"
             inkscape:r_cy="true" />
        </g>
      </g>
    </g>
    <g
       id="g4182"
       transform="translate(11.565171,-12.423018)">
      <path
         id="path2591"
         d="M 9.9531058,23.254604 C 9.7206518,23.254604 9.5454497,23.437574 9.5454497,23.662259 L 9.5454497,26.971465 C 9.0151829,27.118301 8.5118161,27.344051 8.0347259,27.594938 L 5.8046096,25.48472 C 5.6416093,25.330077 5.389087,25.340064 5.2290957,25.5087 L 2.92704,27.906675 C 2.7670499,28.07531 2.7880202,28.351526 2.9510198,28.506169 L 5.0132777,30.448528 C 4.6803352,31.007382 4.4057729,31.607962 4.2219458,32.247009 L 1.0326399,32.247009 C 0.80795467,32.247009 0.62498371,32.422211 0.62498371,32.654665 L 0.62498371,36.01183 C 0.62498371,36.244284 0.8079553,36.419485 1.0326399,36.419485 L 4.1979661,36.419485 C 4.3644902,37.00841 4.6219574,37.55188 4.9173586,38.074088 L 2.6392827,40.448083 C 2.477727,40.61522 2.4777327,40.867441 2.6392827,41.023597 L 5.0132777,43.325653 C 5.1748283,43.481809 5.4272365,43.46881 5.5887916,43.301673 L 7.8428877,40.999617 C 8.3980153,41.311246 8.9884295,41.575451 9.617389,41.742989 L 9.617389,44.956276 C 9.617389,45.180961 9.7925905,45.363931 10.025045,45.363931 L 13.38221,45.363931 C 13.614664,45.363931 13.789865,45.180961 13.789865,44.956276 L 13.789865,41.69503 C 14.34322,41.528903 14.856633,41.279003 15.348549,40.999617 L 17.554686,43.181774 C 17.71427,43.339939 17.990545,43.346877 18.154179,43.181774 L 20.504194,40.807779 C 20.667828,40.642677 20.663779,40.390431 20.504194,40.232265 L 18.298058,38.026129 C 18.564189,37.537694 18.789072,37.013291 18.94551,36.467445 L 22.086858,36.467445 C 22.311543,36.467445 22.494513,36.292243 22.494513,36.059789 L 22.494513,32.702625 C 22.494513,32.470171 22.311542,32.294969 22.086858,32.294969 L 18.96949,32.294969 C 18.794096,31.666751 18.545533,31.073982 18.226119,30.520468 L 20.600114,28.362291 C 20.772242,28.206065 20.799076,27.953154 20.648073,27.786776 L 18.417956,25.316863 C 18.266952,25.150485 18.014572,25.160637 17.842442,25.316863 L 15.372529,27.546979 C 15.342737,27.574018 15.32102,27.610679 15.300589,27.642898 C 14.805137,27.366611 14.273258,27.132089 13.717926,26.971465 L 13.717926,23.662259 C 13.717926,23.437574 13.542726,23.254604 13.31027,23.254604 L 9.9531058,23.254604 z M 11.583728,31.407718 C 13.457898,31.407718 14.701096,32.777633 14.701096,34.357227 C 14.701094,35.936822 13.4579,37.306736 11.583728,37.306736 C 9.7095566,37.306736 8.4663612,35.936822 8.4663612,34.357227 C 8.4663599,32.777635 9.7095572,31.407718 11.583728,31.407718 z"
         style="fill:url(#radialGradient2393);fill-opacity:1;fill-rule:evenodd;stroke:#555753;stroke-width:1;stroke-linecap:butt;stroke-linejoin:miter;stroke-miterlimit:4;stroke-dasharray:none;stroke-dashoffset:0;stroke-opacity:1" />
      <path
         transform="matrix(0.7673519,0,0,0.7673519,-36.157612,21.484338)"
         d="M 60.875,3.625 L 60.875,7.15625 C 60.870014,7.7426213 60.469877,8.2756961 59.90625,8.4375 C 59.345099,8.5928889 58.789248,8.8249915 58.21875,9.125 C 57.722013,9.3849255 57.09878,9.3184948 56.6875,8.9375 L 54.375,6.71875 L 52.4375,8.71875 L 54.5625,10.71875 C 55.008058,11.134444 55.110012,11.811952 54.8125,12.34375 C 54.425111,12.993993 54.107519,13.706568 53.90625,14.40625 C 53.744446,14.969878 53.211371,15.338764 52.625,15.34375 L 49.25,15.34375 L 49.25,18.15625 L 52.59375,18.15625 C 53.180121,18.161236 53.713196,18.561372 53.875,19.125 C 54.050735,19.746502 54.331026,20.338578 54.6875,20.96875 C 54.971967,21.477749 54.904353,22.111132 54.5,22.53125 L 52.0625,25.09375 L 54,26.96875 L 56.375,24.53125 C 56.790694,24.085692 57.468202,23.983738 58,24.28125 C 58.656487,24.64978 59.322366,24.944497 60,25.125 C 60.563628,25.286804 60.963764,25.819879 60.96875,26.40625 L 60.96875,29.8125 L 63.78125,29.8125 L 63.78125,26.34375 C 63.779375,25.770941 64.143671,25.273653 64.6875,25.09375 C 64.68718,25.083336 64.68718,25.072914 64.6875,25.0625 C 65.270653,24.887429 65.876555,24.617591 66.46875,24.28125 C 66.977749,23.996783 67.611132,24.064397 68.03125,24.46875 L 70.375,26.78125 L 72.3125,24.84375 L 70,22.53125 C 69.571149,22.102959 69.502269,21.426926 69.8125,20.90625 C 70.122155,20.337939 70.359843,19.785574 70.53125,19.1875 C 70.693054,18.623872 71.226129,18.223736 71.8125,18.21875 L 75.125,18.21875 L 75.125,15.40625 L 71.84375,15.40625 C 71.257379,15.401264 70.724304,15.001128 70.5625,14.4375 C 70.364979,13.730033 70.082025,13.06702 69.71875,12.4375 C 69.421238,11.905702 69.523192,11.228194 69.96875,10.8125 L 72.5,8.5 L 70.6875,6.5 L 68.0625,8.875 L 68.03125,8.84375 C 67.630093,9.3181862 66.961014,9.4884739 66.40625,9.1875 C 65.827973,8.8650252 65.228045,8.6119242 64.625,8.4375 C 64.061373,8.2756961 63.692486,7.7426213 63.6875,7.15625 L 63.6875,3.625 L 60.875,3.625 z M 62.21875,11.625 C 65.319541,11.625 67.59375,14.015285 67.59375,16.78125 C 67.593749,19.547216 65.319542,21.937499 62.21875,21.9375 C 59.117957,21.937501 56.84375,19.547216 56.84375,16.78125 C 56.843748,14.015286 59.117957,11.625 62.21875,11.625 z"
         id="path4180"
         style="fill:none;fill-opacity:1;fill-rule:evenodd;stroke:#dddddd;stroke-width:1.30318308;stroke-linecap:butt;stroke-linejoin:miter;stroke-miterlimit:4;stroke-dasharray:none;stroke-dashoffset:0;stroke-opacity:1"
         inkscape:original="M 60.375 3.125 L 60.375 7.15625 C 60.371912 7.5194123 60.130326 7.8372886 59.78125 7.9375 C 59.169905 8.1067881 58.559537 8.3768222 57.96875 8.6875 C 57.661279 8.8483892 57.285825 8.7983287 57.03125 8.5625 L 54.34375 6 L 51.71875 8.75 L 54.21875 11.09375 C 54.494859 11.351352 54.559366 11.764199 54.375 12.09375 C 53.971871 12.770414 53.623576 13.494497 53.40625 14.25 C 53.306039 14.599076 52.988162 14.840662 52.625 14.84375 L 48.75 14.84375 L 48.75 18.65625 L 52.59375 18.65625 C 52.956912 18.659338 53.274789 18.900924 53.375 19.25 C 53.567737 19.931631 53.884546 20.572703 54.25 21.21875 C 54.426168 21.533968 54.375412 21.927325 54.125 22.1875 L 51.34375 25.09375 L 54 27.6875 L 56.75 24.875 C 57.007602 24.598891 57.420449 24.534384 57.75 24.71875 C 58.429534 25.100218 59.139208 25.429005 59.875 25.625 C 60.224076 25.725211 60.465662 26.043088 60.46875 26.40625 L 60.46875 30.3125 L 64.28125 30.3125 L 64.28125 26.34375 C 64.280089 25.989098 64.507041 25.673886 64.84375 25.5625 C 65.481753 25.370962 66.108157 25.06554 66.71875 24.71875 C 67.033968 24.542582 67.427325 24.593338 67.6875 24.84375 L 70.375 27.5 L 73.0625 24.84375 L 70.375 22.15625 C 70.109267 21.890864 70.057769 21.478881 70.25 21.15625 C 70.571694 20.565843 70.8464 19.957479 71.03125 19.3125 C 71.131461 18.963424 71.449338 18.721838 71.8125 18.71875 L 75.625 18.71875 L 75.625 14.90625 L 71.84375 14.90625 C 71.480588 14.903162 71.162711 14.661576 71.0625 14.3125 C 70.851959 13.5584 70.53788 12.848827 70.15625 12.1875 C 69.971884 11.857949 70.036391 11.445102 70.3125 11.1875 L 73.21875 8.53125 L 70.71875 5.78125 L 67.71875 8.5 C 67.479528 8.8411617 67.022497 8.9486984 66.65625 8.75 C 66.056217 8.415393 65.434546 8.1264586 64.78125 7.9375 C 64.432174 7.8372886 64.190588 7.5194123 64.1875 7.15625 L 64.1875 3.125 L 60.375 3.125 z M 62.21875 12.125 C 65.060709 12.125 67.09375 14.292516 67.09375 16.78125 C 67.093749 19.269985 65.06071 21.437499 62.21875 21.4375 C 59.376789 21.437501 57.34375 19.269985 57.34375 16.78125 C 57.343748 14.292517 59.376789 12.125 62.21875 12.125 z "
         inkscape:radius="-0.50905591"
         sodipodi:type="inkscape:offset" />
    </g>
    <g
       id="layer6"
       inkscape:label="Shadow"
       transform="translate(25.220626,21.958764)" />
    <g
       style="display:inline"
       inkscape:label="Base"
       id="g6461"
       transform="translate(25.220626,21.958764)" />
    <g
       id="g2637"
       inkscape:label="base"
       style="display:inline"
       transform="translate(12.955496,69.458754)" />
    <g
       id="g7419"
       transform="matrix(1,2.6839296e-4,-2.6839296e-4,1,53.83183,6.3761332)">
      <path
         sodipodi:type="arc"
         style="opacity:0.5;color:#000000;fill:url(#radialGradient6655);fill-opacity:1;fill-rule:nonzero;stroke:none;stroke-width:2;stroke-linecap:round;stroke-linejoin:round;marker:none;marker-start:none;marker-mid:none;marker-end:none;stroke-miterlimit:4;stroke-dasharray:none;stroke-dashoffset:0;stroke-opacity:1;visibility:visible;display:inline;overflow:visible"
         id="path1425"
         sodipodi:cx="17.5"
         sodipodi:cy="18.25"
         sodipodi:rx="13.5"
         sodipodi:ry="13.75"
         d="M 31,18.25 A 13.5,13.75 0 1 1 4,18.25 A 13.5,13.75 0 1 1 31,18.25 z"
         transform="matrix(1.1837002,-5.9306023e-2,5.8227773e-2,1.1621792,-54.984937,-3.9218061)" />
      <path
         style="opacity:0.5;color:#000000;fill:url(#radialGradient6634);fill-opacity:1;fill-rule:nonzero;stroke:none;stroke-width:2;stroke-linecap:round;stroke-linejoin:round;marker:none;marker-start:none;marker-mid:none;marker-end:none;stroke-miterlimit:4;stroke-dasharray:none;stroke-dashoffset:0;stroke-opacity:1;visibility:visible;display:inline;overflow:visible"
         d="M -34.601663,-0.20074489 C -43.090941,0.54903531 -49.543574,7.9064529 -49.113484,16.490702 C -48.992543,18.904592 -47.475849,21.136365 -46.289438,23.069506 C -47.032541,17.671744 -44.756079,16.371206 -43.180963,16.775002 C -38.402169,18.000092 -30.170045,18.918833 -22.000237,14.118331 C -19.136194,12.435447 -17.232653,16.111729 -17.519584,12.736152 C -18.847884,4.9983379 -25.92919,-0.63525519 -33.986934,-0.23154419 C -34.192956,-0.22122209 -34.39792,-0.21873959 -34.601663,-0.20074489 z"
         id="path4939"
         sodipodi:nodetypes="cscsscsc" />
      <path
         sodipodi:type="arc"
         style="opacity:0.16078431;color:#000000;fill:url(#radialGradient6639);fill-opacity:1;fill-rule:nonzero;stroke:none;stroke-width:1;stroke-linecap:round;stroke-linejoin:miter;marker:none;marker-start:none;marker-mid:none;marker-end:none;stroke-miterlimit:4;stroke-dasharray:none;stroke-dashoffset:0;stroke-opacity:1;visibility:visible;display:inline;overflow:visible"
         id="path11092"
         sodipodi:cx="12.375"
         sodipodi:cy="12.9375"
         sodipodi:rx="9.8125"
         sodipodi:ry="9.8125"
         d="M 22.1875,12.9375 A 9.8125,9.8125 0 1 1 2.5625,12.9375 A 9.8125,9.8125 0 1 1 22.1875,12.9375 z"
         transform="matrix(1.3231822,-6.6294385e-2,6.6294385e-2,1.3231822,-50.439585,-4.8171486e-2)" />
      <path
         transform="matrix(1.5979955,-8.0063144e-2,8.0063144e-2,1.5979955,-117.46257,13.262437)"
         d="M 62.5,4.5 A 10,10 0 1 1 42.5,4.5 A 10,10 0 1 1 62.5,4.5 z"
         sodipodi:ry="10"
         sodipodi:rx="10"
         sodipodi:cy="4.5"
         sodipodi:cx="52.5"
         id="path2607"
         style="color:#000000;fill:none;fill-opacity:1;fill-rule:nonzero;stroke:url(#radialGradient6653);stroke-width:1.87499988;stroke-linecap:round;stroke-linejoin:miter;marker:none;marker-start:none;marker-mid:none;marker-end:none;stroke-miterlimit:4;stroke-dasharray:none;stroke-dashoffset:0;stroke-opacity:1;visibility:visible;display:inline;overflow:visible"
         sodipodi:type="arc" />
      <path
         sodipodi:type="arc"
         style="opacity:0.04705882;color:#000000;fill:url(#radialGradient6651);fill-opacity:1;fill-rule:nonzero;stroke:none;stroke-width:1;stroke-linecap:round;stroke-linejoin:round;marker:none;marker-start:none;marker-mid:none;marker-end:none;stroke-miterlimit:4;stroke-dasharray:none;stroke-dashoffset:0;stroke-opacity:1;visibility:visible;display:inline;overflow:visible"
         id="path23418"
         sodipodi:cx="28.284271"
         sodipodi:cy="30.145554"
         sodipodi:rx="13.258252"
         sodipodi:ry="4.5078058"
         d="M 41.542523,30.145554 A 13.258252,4.5078058 0 1 1 15.026019,30.145554 A 13.258252,4.5078058 0 1 1 41.542523,30.145554 z"
         transform="matrix(0.9951289,0.1263456,-8.731625e-2,0.6877198,-42.711953,14.652547)" />
      <g
         transform="matrix(1.5421176,-7.7263536e-2,7.6861419e-2,1.5340917,-142.87637,-42.781228)"
         id="g2708">
        <path
           style="color:#000000;fill:url(#linearGradient6647);fill-opacity:1;fill-rule:nonzero;stroke:url(#linearGradient6649);stroke-width:0.67653471;stroke-linecap:round;stroke-linejoin:round;marker:none;marker-start:none;marker-mid:none;marker-end:none;stroke-miterlimit:4;stroke-dashoffset:0;stroke-opacity:1;visibility:visible;display:inline;overflow:visible"
           d="M 76.796351,49.768459 L 77.443998,53.023634 L 82.625171,58.237128 C 82.817674,58.430832 83.596641,58.55743 84.56811,57.580878 C 85.53958,56.604326 85.463684,55.876998 85.215757,55.627773 L 80.034584,50.419494 L 76.796351,49.768459 z"
           id="path2682"
           sodipodi:nodetypes="cczzzcc" />
        <path
           style="opacity:0.19215686;color:#000000;fill:#ffffff;fill-opacity:1;fill-rule:nonzero;stroke:none;stroke-width:0.99999964;stroke-linecap:round;stroke-linejoin:miter;marker:none;marker-start:none;marker-mid:none;marker-end:none;stroke-miterlimit:4;stroke-dashoffset:0;stroke-opacity:1;visibility:visible;display:inline;overflow:visible"
           d="M 79.567301,51.320041 C 79.564315,51.331245 79.861402,51.644359 79.32201,52.185023 C 78.782611,52.725686 78.314866,52.559011 78.328524,52.545282 L 78.059375,51.023705 L 79.567301,51.320041 z"
           id="path2687"
           sodipodi:nodetypes="csccc" />
      </g>
      <path
         sodipodi:nodetypes="cczzzcc"
         id="path17267"
         d="M -19.275071,28.847305 L -18.493098,32.01336 L -10.625161,39.177403 C -10.238211,39.529735 -9.6815777,39.348307 -8.7956297,38.3689 C -7.9096787,37.389492 -7.6925947,36.910583 -8.1790237,36.467966 L -16.046711,29.308902 L -19.275071,28.847305 z"
         style="color:#000000;fill:none;fill-opacity:1;fill-rule:nonzero;stroke:url(#linearGradient6626);stroke-width:0.99999928;stroke-linecap:round;stroke-linejoin:miter;marker:none;marker-start:none;marker-mid:none;marker-end:none;stroke-miterlimit:4;stroke-dasharray:none;stroke-dashoffset:0;stroke-opacity:1;visibility:visible;display:inline;overflow:visible" />
      <path
         style="opacity:0.15294118;color:#000000;fill:url(#linearGradient6623);fill-opacity:1;fill-rule:nonzero;stroke:none;stroke-width:0.67653471;stroke-linecap:round;stroke-linejoin:round;marker:none;marker-start:none;marker-mid:none;marker-end:none;stroke-miterlimit:4;stroke-dashoffset:0;stroke-opacity:1;visibility:visible;display:inline;overflow:visible"
         d="M -20.815385,27.135283 C -21.070509,27.235684 -21.204205,27.51526 -21.121499,27.775409 L -19.859685,32.710503 C -19.829852,32.800788 -19.775693,32.881191 -19.703102,32.942961 L -11.350438,40.550612 C -10.976198,40.889472 -10.433005,40.966781 -9.7915067,40.808931 C -9.1500067,40.651081 -8.4077487,40.2021 -7.6419657,39.355534 C -6.8825037,38.515958 -6.5062737,37.78001 -6.4006987,37.130613 C -6.2951237,36.481214 -6.4483617,35.899215 -6.8173007,35.565481 L -15.215754,28.008185 C -15.298265,27.934938 -15.402033,27.889652 -15.512107,27.878852 L -20.526239,27.120796 C -20.622053,27.098427 -20.722287,27.103449 -20.815385,27.135283 z"
         id="path19908"
         sodipodi:nodetypes="cccccsssccccc" />
      <path
         transform="matrix(1.6479329,-8.2565117e-2,8.2565117e-2,1.6479329,-120.09554,13.169072)"
         d="M 62.5,4.5 A 10,10 0 1 1 42.5,4.5 A 10,10 0 1 1 62.5,4.5 z"
         sodipodi:ry="10"
         sodipodi:rx="10"
         sodipodi:cy="4.5"
         sodipodi:cx="52.5"
         id="path2605"
         style="color:#000000;fill:none;fill-opacity:1;fill-rule:nonzero;stroke:url(#radialGradient6645);stroke-width:0.60606074;stroke-linecap:round;stroke-linejoin:miter;marker:none;marker-start:none;marker-mid:none;marker-end:none;stroke-miterlimit:4;stroke-dasharray:none;stroke-dashoffset:0;stroke-opacity:1;visibility:visible;display:inline;overflow:visible"
         sodipodi:type="arc" />
      <path
         transform="matrix(1.7478076,-8.7569064e-2,8.7569064e-2,1.7478076,-125.36149,12.982343)"
         d="M 62.5,4.5 A 10,10 0 1 1 42.5,4.5 A 10,10 0 1 1 62.5,4.5 z"
         sodipodi:ry="10"
         sodipodi:rx="10"
         sodipodi:cy="4.5"
         sodipodi:cx="52.5"
         id="path2599"
         style="color:#000000;fill:none;fill-opacity:1;fill-rule:nonzero;stroke:url(#linearGradient6643);stroke-width:0.57142824;stroke-linecap:round;stroke-linejoin:miter;marker:none;marker-start:none;marker-mid:none;marker-end:none;stroke-miterlimit:4;stroke-dasharray:none;stroke-dashoffset:0;stroke-opacity:1;visibility:visible;display:inline;overflow:visible"
         sodipodi:type="arc" />
      <path
         transform="matrix(1.4513515,-7.2715949e-2,7.27161e-2,1.4513545,-109.73071,13.536592)"
         d="M 62.5,4.5 A 10,10 0 1 1 42.5,4.5 A 10,10 0 1 1 62.5,4.5 z"
         sodipodi:ry="10"
         sodipodi:rx="10"
         sodipodi:cy="4.5"
         sodipodi:cx="52.5"
         id="path4927"
         style="color:#000000;fill:none;fill-opacity:1;fill-rule:nonzero;stroke:url(#linearGradient6641);stroke-width:0.68814939;stroke-linecap:round;stroke-linejoin:miter;marker:none;marker-start:none;marker-mid:none;marker-end:none;stroke-miterlimit:4;stroke-dasharray:none;stroke-dashoffset:0;stroke-opacity:1;visibility:visible;display:inline;overflow:visible"
         sodipodi:type="arc" />
      <path
         sodipodi:type="arc"
         style="opacity:0.072;color:#000000;fill:url(#radialGradient6637);fill-opacity:1;fill-rule:nonzero;stroke:none;stroke-width:1;stroke-linecap:round;stroke-linejoin:round;marker:none;marker-start:none;marker-mid:none;marker-end:none;stroke-miterlimit:4;stroke-dasharray:none;stroke-dashoffset:0;stroke-opacity:1;visibility:visible;display:inline;overflow:visible"
         id="path2970"
         sodipodi:cx="28.284271"
         sodipodi:cy="30.145554"
         sodipodi:rx="13.258252"
         sodipodi:ry="4.5078058"
         d="M 41.542523,30.145554 A 13.258252,4.5078058 0 1 1 15.026019,30.145554 A 13.258252,4.5078058 0 1 1 41.542523,30.145554 z"
         transform="matrix(1.5838453,-7.9354185e-2,6.0279741e-2,1.2031348,-74.295821,2.6066065)" />
    </g>
  </g>
</svg>
