<?xml version="1.0" encoding="UTF-8" standalone="no"?>
<!-- Created with Inkscape (http://www.inkscape.org/) -->
<svg
   xmlns:dc="http://purl.org/dc/elements/1.1/"
   xmlns:cc="http://web.resource.org/cc/"
   xmlns:rdf="http://www.w3.org/1999/02/22-rdf-syntax-ns#"
   xmlns:svg="http://www.w3.org/2000/svg"
   xmlns="http://www.w3.org/2000/svg"
   xmlns:xlink="http://www.w3.org/1999/xlink"
   xmlns:sodipodi="http://sodipodi.sourceforge.net/DTD/sodipodi-0.dtd"
   xmlns:inkscape="http://www.inkscape.org/namespaces/inkscape"
   inkscape:export-ydpi="90.000000"
   inkscape:export-xdpi="90.000000"
   inkscape:export-filename="/home/patrick/Desktop/desktop.png"
   width="48px"
   height="48px"
   id="svg11300"
   sodipodi:version="0.32"
   inkscape:version="0.45+devel"
   sodipodi:docbase="/home/patrick/Projects/Beryl/svn/beryl/trunk/beryl-settings/images"
   sodipodi:docname="plugin-debug.svg"
   inkscape:output_extension="org.inkscape.output.svg.inkscape">
  <defs
     id="defs3">
    <linearGradient
       id="linearGradient259">
      <stop
         style="stop-color:#fafafa;stop-opacity:1.0000000;"
         offset="0.0000000"
         id="stop260" />
      <stop
         style="stop-color:#bbbbbb;stop-opacity:1.0000000;"
         offset="1.0000000"
         id="stop261" />
    </linearGradient>
    <linearGradient
       id="linearGradient269">
      <stop
         style="stop-color:#a3a3a3;stop-opacity:1.0000000;"
         offset="0.0000000"
         id="stop270" />
      <stop
         style="stop-color:#8a8a8a;stop-opacity:1;"
         offset="1"
         id="stop271" />
    </linearGradient>
    <linearGradient
       id="linearGradient15662">
      <stop
         style="stop-color:#ffffff;stop-opacity:1.0000000;"
         offset="0.0000000"
         id="stop15664" />
      <stop
         style="stop-color:#f8f8f8;stop-opacity:1.0000000;"
         offset="1.0000000"
         id="stop15666" />
    </linearGradient>
    <linearGradient
       id="linearGradient2251"
       inkscape:collect="always">
      <stop
         id="stop2253"
         offset="0"
         style="stop-color:#ffffff;stop-opacity:1;" />
      <stop
         id="stop2255"
         offset="1"
         style="stop-color:#ffffff;stop-opacity:0;" />
    </linearGradient>
    <linearGradient
       id="linearGradient4790"
       inkscape:collect="always">
      <stop
         id="stop4792"
         offset="0"
         style="stop-color:#000000;stop-opacity:1;" />
      <stop
         id="stop4794"
         offset="1"
         style="stop-color:#000000;stop-opacity:0;" />
    </linearGradient>
    <linearGradient
       id="linearGradient3688"
       inkscape:collect="always">
      <stop
         id="stop3690"
         offset="0"
         style="stop-color:black;stop-opacity:1;" />
      <stop
         id="stop3692"
         offset="1"
         style="stop-color:black;stop-opacity:0;" />
    </linearGradient>
    <linearGradient
       id="linearGradient3702">
      <stop
         id="stop3704"
         offset="0"
         style="stop-color:black;stop-opacity:0;" />
      <stop
         style="stop-color:black;stop-opacity:1;"
         offset="0.5"
         id="stop3710" />
      <stop
         id="stop3706"
         offset="1"
         style="stop-color:black;stop-opacity:0;" />
    </linearGradient>
    <radialGradient
       inkscape:collect="always"
       xlink:href="#linearGradient3688"
       id="radialGradient2401"
       gradientUnits="userSpaceOnUse"
       gradientTransform="matrix(2.003784,0,0,1.4,27.98813,-17.4)"
       cx="4.9929786"
       cy="43.5"
       fx="4.9929786"
       fy="43.5"
       r="2.5" />
    <radialGradient
       inkscape:collect="always"
       xlink:href="#linearGradient3688"
       id="radialGradient2403"
       gradientUnits="userSpaceOnUse"
       gradientTransform="matrix(2.003784,0,0,1.4,-20.01187,-104.4)"
       cx="4.9929786"
       cy="43.5"
       fx="4.9929786"
       fy="43.5"
       r="2.5" />
    <linearGradient
       inkscape:collect="always"
       xlink:href="#linearGradient3702"
       id="linearGradient2405"
       gradientUnits="userSpaceOnUse"
       x1="25.058096"
       y1="47.027729"
       x2="25.058096"
       y2="39.999443" />
    <radialGradient
       inkscape:collect="always"
       xlink:href="#linearGradient259"
       id="radialGradient2407"
       gradientUnits="userSpaceOnUse"
       gradientTransform="matrix(0.961084,0,0,1.044459,-4.060961e-3,-0.142424)"
       cx="33.966679"
       cy="35.736916"
       fx="33.966679"
       fy="35.736916"
       r="86.708450" />
    <radialGradient
       inkscape:collect="always"
       xlink:href="#linearGradient269"
       id="radialGradient2409"
       gradientUnits="userSpaceOnUse"
       gradientTransform="matrix(0.968868,0,0,1.036068,3.351554,0.506089)"
       cx="8.8244190"
       cy="3.7561285"
       fx="8.8244190"
       fy="3.7561285"
       r="37.751713" />
    <radialGradient
       inkscape:collect="always"
       xlink:href="#linearGradient15662"
       id="radialGradient2411"
       gradientUnits="userSpaceOnUse"
       gradientTransform="matrix(0.968273,0,0,1.032767,3.353553,0.646447)"
       cx="8.1435566"
       cy="7.2678967"
       fx="8.1435566"
       fy="7.2678967"
       r="38.158695" />
    <radialGradient
       inkscape:collect="always"
       xlink:href="#linearGradient4790"
       id="radialGradient2413"
       gradientUnits="userSpaceOnUse"
       gradientTransform="matrix(1.744653,0,0,1.283833,-26.58256,-3.478359)"
       cx="37.030354"
       cy="12.98915"
       fx="37.030354"
       fy="12.98915"
       r="4.2929165" />
    <radialGradient
       inkscape:collect="always"
       xlink:href="#linearGradient259"
       id="radialGradient2415"
       gradientUnits="userSpaceOnUse"
       gradientTransform="matrix(0.148355,1.009137e-2,-1.104438e-2,0.162365,25.06011,12.81706)"
       cx="30.653816"
       cy="14.9373"
       fx="30.653816"
       fy="14.9373"
       r="86.708450" />
    <radialGradient
       inkscape:collect="always"
       xlink:href="#linearGradient269"
       id="radialGradient2417"
       gradientUnits="userSpaceOnUse"
       gradientTransform="matrix(0.331735,0,0,0.353831,20.10526,9.5823)"
       cx="31.863327"
       cy="2.3667307"
       fx="31.863327"
       fy="2.3667307"
       r="37.751713" />
    <linearGradient
       inkscape:collect="always"
       xlink:href="#linearGradient2251"
       id="linearGradient2419"
       gradientUnits="userSpaceOnUse"
       gradientTransform="matrix(-2.48131e-2,-0.756771,0.756567,-2.481981e-2,8.221918,36.1682)"
       x1="33.396004"
       y1="36.921333"
       x2="34.170048"
       y2="38.070381" />
    <linearGradient
       id="linearGradient30743"
       inkscape:collect="always">
      <stop
         id="stop30745"
         offset="0"
         style="stop-color:#000000;stop-opacity:1;" />
      <stop
         id="stop30747"
         offset="1"
         style="stop-color:#000000;stop-opacity:0;" />
    </linearGradient>
    <linearGradient
       id="linearGradient8440">
      <stop
         id="stop8442"
         offset="0"
         style="stop-color:#edeeec;stop-opacity:1;" />
      <stop
         id="stop8444"
         offset="1"
         style="stop-color:#babdb6;stop-opacity:1;" />
    </linearGradient>
    <linearGradient
       id="linearGradient10329">
      <stop
         id="stop10331"
         offset="0"
         style="stop-color:#e9b96e;stop-opacity:0;" />
      <stop
         style="stop-color:#e9b96e;stop-opacity:1;"
         offset="0.65188807"
         id="stop10337" />
      <stop
         id="stop10333"
         offset="1"
         style="stop-color:#e9b96e;stop-opacity:0;" />
    </linearGradient>
    <linearGradient
       id="linearGradient11310"
       inkscape:collect="always">
      <stop
         id="stop11312"
         offset="0"
         style="stop-color:#fed491;stop-opacity:1;" />
      <stop
         id="stop11314"
         offset="1"
         style="stop-color:#fed491;stop-opacity:0;" />
    </linearGradient>
    <linearGradient
       id="linearGradient13263"
       inkscape:collect="always">
      <stop
         id="stop13265"
         offset="0"
         style="stop-color:#fed491;stop-opacity:1;" />
      <stop
         id="stop13267"
         offset="1"
         style="stop-color:#fed491;stop-opacity:0;" />
    </linearGradient>
    <radialGradient
       inkscape:collect="always"
       xlink:href="#linearGradient8440"
       id="radialGradient3447"
       gradientUnits="userSpaceOnUse"
       gradientTransform="matrix(0.5470598,0.4096488,-0.5365859,0.7125707,2.7014648,-72.668)"
       cx="56.704376"
       cy="10.241054"
       fx="56.704376"
       fy="10.241054"
       r="14.75" />
    <radialGradient
       inkscape:collect="always"
       xlink:href="#linearGradient30743"
       id="radialGradient5323"
       gradientUnits="userSpaceOnUse"
       gradientTransform="matrix(1,0,0,0.6052632,0,2.3684209)"
       cx="10.5"
       cy="5.9999995"
       fx="10.5"
       fy="5.9999995"
       r="9.5" />
    <radialGradient
       inkscape:collect="always"
       xlink:href="#linearGradient11310"
       id="radialGradient5325"
       gradientUnits="userSpaceOnUse"
       gradientTransform="matrix(1.5346299,1.3039754e-2,-2.0388098e-2,2.399446,-35.654368,-32.319123)"
       cx="67.607079"
       cy="24.053228"
       fx="67.607079"
       fy="24.053228"
       r="6.7783755" />
    <linearGradient
       inkscape:collect="always"
       xlink:href="#linearGradient10329"
       id="linearGradient5327"
       gradientUnits="userSpaceOnUse"
       gradientTransform="matrix(0.4116623,-0.7000995,0.698539,0.4107447,-61.501737,59.896001)"
       x1="67.484505"
       y1="10.995611"
       x2="68.028702"
       y2="38.688892" />
    <radialGradient
       inkscape:collect="always"
       xlink:href="#linearGradient13263"
       id="radialGradient5329"
       gradientUnits="userSpaceOnUse"
       gradientTransform="matrix(0.5322487,-0.8558308,0.4925579,0.3064019,-68.007202,71.522825)"
       cx="67.976562"
       cy="8.6610498"
       fx="67.976562"
       fy="8.6610498"
       r="2.5234375" />
  </defs>
  <sodipodi:namedview
     stroke="#ef2929"
     fill="#eeeeec"
     id="base"
     pagecolor="#ffffff"
     bordercolor="#666666"
     borderopacity="0.25490196"
     inkscape:pageopacity="0.0"
     inkscape:pageshadow="2"
     inkscape:zoom="0.99999996"
     inkscape:cx="21.951492"
     inkscape:cy="18.915107"
     inkscape:current-layer="layer1"
     showgrid="false"
     inkscape:grid-bbox="true"
     inkscape:document-units="px"
     inkscape:showpageshadow="false"
     inkscape:window-width="906"
     inkscape:window-height="662"
     inkscape:window-x="244"
     inkscape:window-y="87"
     showguides="true"
     inkscape:guide-bbox="true" />
  <metadata
     id="metadata4">
    <rdf:RDF>
      <cc:Work
         rdf:about="">
        <dc:format>image/svg+xml</dc:format>
        <dc:type
           rdf:resource="http://purl.org/dc/dcmitype/StillImage" />
        <dc:creator>
          <cc:Agent>
            <dc:title>Patrick Niklaus</dc:title>
          </cc:Agent>
        </dc:creator>
        <dc:source />
        <cc:license
           rdf:resource="http://creativecommons.org/licenses/GPL/2.0/" />
        <dc:title>SchemeP</dc:title>
        <dc:subject>
          <rdf:Bag />
        </dc:subject>
      </cc:Work>
      <cc:License
         rdf:about="http://creativecommons.org/licenses/GPL/2.0/">
        <cc:permits
           rdf:resource="http://web.resource.org/cc/Reproduction" />
        <cc:permits
           rdf:resource="http://web.resource.org/cc/Distribution" />
        <cc:requires
           rdf:resource="http://web.resource.org/cc/Notice" />
        <cc:permits
           rdf:resource="http://web.resource.org/cc/DerivativeWorks" />
        <cc:requires
           rdf:resource="http://web.resource.org/cc/ShareAlike" />
        <cc:requires
           rdf:resource="http://web.resource.org/cc/SourceCode" />
      </cc:License>
    </rdf:RDF>
  </metadata>
  <g
     id="layer1"
     inkscape:label="Layer 1"
     inkscape:groupmode="layer">
    <g
       id="g2385"
       transform="translate(-1.0944649,-2.067845)">
      <g
         inkscape:label="Shadow"
         id="layer6">
        <g
           transform="matrix(1.052632,0,0,1.285713,-1.263158,-13.42854)"
           style="opacity:0.4"
           id="g3712">
          <rect
             style="opacity:1;fill:url(#radialGradient2401);fill-opacity:1;stroke:none;stroke-width:1;stroke-linecap:round;stroke-linejoin:miter;stroke-miterlimit:4;stroke-dasharray:none;stroke-opacity:1"
             id="rect2801"
             width="5"
             height="7"
             x="38"
             y="40" />
          <rect
             style="opacity:1;fill:url(#radialGradient2403);fill-opacity:1;stroke:none;stroke-width:1;stroke-linecap:round;stroke-linejoin:miter;stroke-miterlimit:4;stroke-dasharray:none;stroke-opacity:1"
             id="rect3696"
             width="5"
             height="7"
             x="-10"
             y="-47"
             transform="scale(-1,-1)" />
          <rect
             style="opacity:1;fill:url(#linearGradient2405);fill-opacity:1;stroke:none;stroke-width:1;stroke-linecap:round;stroke-linejoin:miter;stroke-miterlimit:4;stroke-dasharray:none;stroke-opacity:1"
             id="rect3700"
             width="28"
             height="7.0000005"
             x="10"
             y="40" />
        </g>
      </g>
      <g
         id="g2392"
         inkscape:label="Base"
         style="display:inline">
        <path
           sodipodi:nodetypes="ccccccccc"
           id="rect15391"
           d="M 7.7533083,3.5156762 L 36.217818,3.5000013 C 36.217818,3.5000013 41.500001,8.7962658 41.500001,9.4348733 L 41.500001,43.414232 C 41.500001,44.052839 40.98721,44.566952 40.350246,44.566952 L 7.7533083,44.566952 C 7.1163439,44.566952 6.603553,44.052839 6.603553,43.414232 L 6.603553,4.6683972 C 6.603553,4.0297898 7.1163439,3.5156762 7.7533083,3.5156762 z"
           style="color:#000000;fill:url(#radialGradient2407);fill-opacity:1;fill-rule:nonzero;stroke:url(#radialGradient2409);stroke-width:1.00000012;stroke-linecap:round;stroke-linejoin:round;marker:none;marker-start:none;marker-mid:none;marker-end:none;stroke-miterlimit:4;stroke-dashoffset:0;stroke-opacity:1;visibility:visible;display:block;overflow:visible" />
        <path
           sodipodi:nodetypes="ccccccccc"
           id="rect15660"
           d="M 7.8151023,4.5839462 L 36.691494,4.5839462 C 36.691494,4.5839462 40.44194,8.605373 40.44194,8.687946 L 40.44194,43.381282 C 40.44194,43.463855 40.375465,43.530331 40.292892,43.530331 L 7.8151023,43.530331 C 7.7325294,43.530331 7.6660538,43.463855 7.6660538,43.381282 L 7.6660538,4.7329948 C 7.6660538,4.6504219 7.7325294,4.5839462 7.8151023,4.5839462 z"
           style="color:#000000;fill:none;fill-opacity:1;fill-rule:nonzero;stroke:url(#radialGradient2411);stroke-width:1;stroke-linecap:round;stroke-linejoin:round;marker:none;marker-start:none;marker-mid:none;marker-end:none;stroke-miterlimit:4;stroke-dashoffset:0;stroke-opacity:1;visibility:visible;display:block;overflow:visible" />
      </g>
      <g
         style="display:inline"
         inkscape:label="Text"
         id="layer5">
        <g
           transform="matrix(0.589097,0,0,0.577622,17.11331,1.395056)"
           id="g1918">
          <path
             inkscape:r_cy="true"
             inkscape:r_cx="true"
             style="opacity:0.35714285;color:#000000;fill:url(#radialGradient2413);fill-opacity:1;fill-rule:evenodd;stroke:none;stroke-width:1.00000024;stroke-linecap:butt;stroke-linejoin:miter;marker:none;marker-start:none;marker-mid:none;marker-end:none;stroke-miterlimit:4;stroke-dasharray:none;stroke-dashoffset:0;stroke-opacity:1;visibility:visible;display:inline;overflow:visible"
             d="M 40.985189,13.861445 C 40.256827,12.514817 34.882221,10.130934 32.084635,9.3314083 C 32.254143,10.904354 31.961856,15.649439 31.961856,15.649439 C 34.024356,14.274439 40.204485,13.699331 40.985189,13.861445 z"
             id="path5348"
             sodipodi:nodetypes="cccc" />
          <path
             style="opacity:1;color:#000000;fill:url(#radialGradient2415);fill-opacity:1;fill-rule:nonzero;stroke:url(#radialGradient2417);stroke-width:1.71429098;stroke-linecap:butt;stroke-linejoin:round;marker:none;marker-start:none;marker-mid:none;marker-end:none;stroke-miterlimit:4;stroke-dasharray:none;stroke-dashoffset:0;stroke-opacity:1;visibility:visible;display:block;overflow:visible"
             d="M 41.410559,13.739267 C 41.423724,12.324125 35.058025,3.5320142 31.175441,3.6354934 C 32.148479,3.8684884 32.634036,9.5059668 31.244316,12.318467 C 33.994316,12.318467 40.446694,11.881093 41.410559,13.739267 z"
             id="path2210"
             sodipodi:nodetypes="cccc"
             inkscape:r_cx="true"
             inkscape:r_cy="true" />
          <path
             sodipodi:nodetypes="cccc"
             id="path2247"
             d="M 38.373065,10.820521 C 37.821714,9.8008851 35.225165,6.9819727 33.769819,6.0453244 C 33.950691,7.1249452 33.99069,8.6442222 33.524667,10.584399 C 33.524667,10.584399 37.782093,10.697772 38.373065,10.820521 z"
             style="opacity:1;color:#000000;fill:none;fill-opacity:1;fill-rule:evenodd;stroke:url(#linearGradient2419);stroke-width:1.71429169;stroke-linecap:butt;stroke-linejoin:miter;marker:none;marker-start:none;marker-mid:none;marker-end:none;stroke-miterlimit:4;stroke-dasharray:none;stroke-dashoffset:0;stroke-opacity:1;visibility:visible;display:inline;overflow:visible"
             inkscape:r_cx="true"
             inkscape:r_cy="true" />
        </g>
      </g>
    </g>
    <g
       id="g3421"
       transform="translate(-12,60.750002)">
      <path
         id="path2212"
         d="M 29.558899,-49.574919 C 29.298073,-49.514095 29.149497,-49.263523 29.208453,-49.01212 L 30.076772,-45.309399 C 29.520312,-45.006352 29.014741,-44.622046 28.545251,-44.216488 L 25.489226,-45.994111 C 25.265753,-46.124493 24.985029,-46.047243 24.849759,-45.81669 L 22.895941,-42.531202 C 22.760671,-42.30065 22.856679,-41.997077 23.080151,-41.866695 L 25.903785,-40.23297 C 25.676845,-39.520541 25.52636,-38.776702 25.487778,-38.013561 L 21.909199,-37.179047 C 21.657089,-37.120255 21.497758,-36.876343 21.558752,-36.616247 L 22.439655,-32.859864 C 22.50065,-32.599768 22.751926,-32.451608 23.004035,-32.510399 L 26.555707,-33.33864 C 26.897088,-32.723255 27.328584,-32.182528 27.797065,-31.675516 L 25.863861,-28.423135 C 25.726443,-28.19385 25.79263,-27.911637 26.014873,-27.779184 L 29.282675,-25.824558 C 29.504919,-25.692105 29.784724,-25.772694 29.922142,-26.001979 L 31.847316,-29.167592 C 32.551971,-28.96416 33.283774,-28.823026 34.033463,-28.800138 L 34.876612,-25.204743 C 34.935569,-24.953339 35.180165,-24.794454 35.440992,-24.855278 L 39.207918,-25.733715 C 39.468745,-25.794539 39.61732,-26.04511 39.558364,-26.296515 L 38.70263,-29.945573 C 39.279934,-30.276245 39.79044,-30.690202 40.269087,-31.131527 L 43.317083,-29.267136 C 43.537647,-29.13192 43.849464,-29.196447 43.989748,-29.424 L 46.003673,-32.695205 C 46.143957,-32.922757 46.073226,-33.203939 45.852661,-33.339156 L 42.798373,-35.230378 C 42.968824,-35.84653 43.083556,-36.492136 43.115861,-37.143825 L 46.640628,-37.965792 C 46.892737,-38.024583 47.052068,-38.268494 46.991073,-38.52859 L 46.110171,-42.284973 C 46.049176,-42.54507 45.7979,-42.69323 45.545792,-42.634439 L 42.047931,-41.818747 C 41.686288,-42.475776 41.251847,-43.073996 40.748207,-43.609753 L 42.845667,-46.645751 C 42.997813,-46.865593 42.961559,-47.155601 42.748468,-47.302252 L 39.59806,-49.482343 C 39.384969,-49.628993 39.104448,-49.551596 38.952301,-49.331753 L 36.766092,-46.190164 C 36.739758,-46.152114 36.725011,-46.105411 36.71054,-46.064015 C 36.082119,-46.243516 35.423783,-46.366755 34.758522,-46.401171 L 33.890204,-50.103891 C 33.831248,-50.355295 33.586653,-50.51418 33.325825,-50.453356 L 29.558899,-49.574919 z M 33.527884,-40.878944 C 35.630808,-41.36934 37.385203,-40.161817 37.79968,-38.394385 C 38.214156,-36.626952 37.178681,-34.76884 35.075756,-34.278443 C 32.97283,-33.788046 31.218437,-34.995569 30.80396,-36.763002 C 30.389482,-38.530431 31.424959,-40.388547 33.527884,-40.878944 z"
         style="fill:url(#radialGradient3447);fill-opacity:1;fill-rule:evenodd;stroke:#555753;stroke-width:1;stroke-linecap:butt;stroke-linejoin:miter;stroke-miterlimit:4;stroke-dasharray:none;stroke-dashoffset:0;stroke-opacity:1" />
      <path
         transform="matrix(0.8610117,-0.2007856,0.2013492,0.8586018,-22.644411,-39.490348)"
         d="M 60.65625,3.40625 L 60.65625,7.15625 C 60.652123,7.6415454 60.310222,8.0848371 59.84375,8.21875 C 59.25987,8.3804329 58.673436,8.6326601 58.09375,8.9375 C 57.682719,9.1525788 57.184069,9.0965091 56.84375,8.78125 C 56.843165,8.7708415 56.843165,8.7604085 56.84375,8.75 L 54.34375,6.375 L 52.125,8.71875 L 54.40625,10.875 C 54.775076,11.219105 54.871276,11.778536 54.625,12.21875 C 54.625585,12.229158 54.625585,12.239592 54.625,12.25 C 54.230484,12.912207 53.89604,13.587541 53.6875,14.3125 C 53.553587,14.778972 53.110295,15.120873 52.625,15.125 L 49.03125,15.125 L 49.03125,18.375 L 52.59375,18.375 C 53.079045,18.379127 53.522337,18.721028 53.65625,19.1875 C 53.839684,19.83623 54.13946,20.456389 54.5,21.09375 C 54.735426,21.514999 54.647144,22.027309 54.3125,22.375 L 51.71875,25.09375 L 54,27.3125 L 56.5625,24.6875 C 56.906605,24.318674 57.434786,24.222474 57.875,24.46875 C 58.541923,24.843139 59.23353,25.156232 59.9375,25.34375 C 60.403972,25.477663 60.745873,25.920955 60.75,26.40625 L 60.75,30.03125 L 64,30.03125 L 64,26.34375 C 63.998448,25.869729 64.299961,25.461376 64.75,25.3125 C 64.749415,25.302092 64.749415,25.291658 64.75,25.28125 C 65.357991,25.098722 65.993224,24.809822 66.59375,24.46875 C 67.014999,24.233324 67.527309,24.321606 67.875,24.65625 L 70.375,27.125 L 72.6875,24.84375 L 70.1875,22.34375 C 69.832514,21.989227 69.743203,21.430995 70,21 C 70.315106,20.421683 70.572506,19.869314 70.75,19.25 C 70.883913,18.783528 71.327205,18.441627 71.8125,18.4375 L 75.34375,18.4375 L 75.34375,15.1875 L 71.84375,15.1875 C 71.358455,15.183373 70.915163,14.841472 70.78125,14.375 C 70.577833,13.646416 70.277837,12.956423 69.90625,12.3125 C 69.659974,11.872286 69.756174,11.312855 70.125,10.96875 L 72.8125,8.5 L 70.6875,6.1875 L 67.90625,8.71875 C 67.577413,9.1300112 66.999535,9.2540569 66.53125,9 C 65.943121,8.6720313 65.34455,8.3997558 64.71875,8.21875 C 64.252278,8.0848371 63.910377,7.6415454 63.90625,7.15625 L 63.90625,3.40625 L 60.65625,3.40625 z M 62.21875,11.84375 C 65.202334,11.84375 67.375,14.140824 67.375,16.78125 C 67.374999,19.421677 65.202335,21.718749 62.21875,21.71875 C 59.235164,21.718751 57.0625,19.421677 57.0625,16.78125 C 57.062498,14.140825 59.235164,11.84375 62.21875,11.84375 z"
         id="path3195"
         style="fill:none;fill-opacity:1;fill-rule:evenodd;stroke:#dddddd;stroke-width:1.1324991;stroke-linecap:butt;stroke-linejoin:miter;stroke-miterlimit:4;stroke-dasharray:none;stroke-dashoffset:0;stroke-opacity:1"
         inkscape:original="M 60.375 3.125 L 60.375 7.15625 C 60.371912 7.5194123 60.130326 7.8372886 59.78125 7.9375 C 59.169905 8.1067881 58.559537 8.3768222 57.96875 8.6875 C 57.661279 8.8483892 57.285825 8.7983287 57.03125 8.5625 L 54.34375 6 L 51.71875 8.75 L 54.21875 11.09375 C 54.494859 11.351352 54.559366 11.764199 54.375 12.09375 C 53.971871 12.770414 53.623576 13.494497 53.40625 14.25 C 53.306039 14.599076 52.988162 14.840662 52.625 14.84375 L 48.75 14.84375 L 48.75 18.65625 L 52.59375 18.65625 C 52.956912 18.659338 53.274789 18.900924 53.375 19.25 C 53.567737 19.931631 53.884546 20.572703 54.25 21.21875 C 54.426168 21.533968 54.375412 21.927325 54.125 22.1875 L 51.34375 25.09375 L 54 27.6875 L 56.75 24.875 C 57.007602 24.598891 57.420449 24.534384 57.75 24.71875 C 58.429534 25.100218 59.139208 25.429005 59.875 25.625 C 60.224076 25.725211 60.465662 26.043088 60.46875 26.40625 L 60.46875 30.3125 L 64.28125 30.3125 L 64.28125 26.34375 C 64.280089 25.989098 64.507041 25.673886 64.84375 25.5625 C 65.481753 25.370962 66.108157 25.06554 66.71875 24.71875 C 67.033968 24.542582 67.427325 24.593338 67.6875 24.84375 L 70.375 27.5 L 73.0625 24.84375 L 70.375 22.15625 C 70.109267 21.890864 70.057769 21.478881 70.25 21.15625 C 70.571694 20.565843 70.8464 19.957479 71.03125 19.3125 C 71.131461 18.963424 71.449338 18.721838 71.8125 18.71875 L 75.625 18.71875 L 75.625 14.90625 L 71.84375 14.90625 C 71.480588 14.903162 71.162711 14.661576 71.0625 14.3125 C 70.851959 13.5584 70.53788 12.848827 70.15625 12.1875 C 69.971884 11.857949 70.036391 11.445102 70.3125 11.1875 L 73.21875 8.53125 L 70.71875 5.78125 L 67.71875 8.5 C 67.479528 8.8411617 67.022497 8.9486984 66.65625 8.75 C 66.056217 8.415393 65.434546 8.1264586 64.78125 7.9375 C 64.432174 7.8372886 64.190588 7.5194123 64.1875 7.15625 L 64.1875 3.125 L 60.375 3.125 z M 62.21875 12.125 C 65.060709 12.125 67.09375 14.292516 67.09375 16.78125 C 67.093749 19.269985 65.06071 21.437499 62.21875 21.4375 C 59.376789 21.437501 57.34375 19.269985 57.34375 16.78125 C 57.343748 14.292517 59.376789 12.125 62.21875 12.125 z "
         inkscape:radius="-0.27853966"
         sodipodi:type="inkscape:offset" />
    </g>
    <g
       id="g5307"
       transform="translate(49.85103,8.8388351)">
      <path
         transform="matrix(1.6664815,0.871131,-0.6682699,1.9173015,-32.112712,1.3083507)"
         d="M 20,5.9999995 A 9.5,5.75 0 1 1 1,5.9999995 A 9.5,5.75 0 1 1 20,5.9999995 z"
         sodipodi:ry="5.75"
         sodipodi:rx="9.5"
         sodipodi:cy="5.9999995"
         sodipodi:cx="10.5"
         id="path4186"
         style="opacity:0.3;fill:url(#radialGradient5323);fill-opacity:1;fill-rule:evenodd;stroke:none;stroke-width:0.5;stroke-linecap:round;stroke-linejoin:round;stroke-miterlimit:4;stroke-dasharray:none;stroke-dashoffset:0;stroke-opacity:1"
         sodipodi:type="arc" />
      <path
         sodipodi:nodetypes="cccc"
         id="path3498"
         d="M -16.558767,16.53751 L -17.95895,13.549022 L -13.688696,12.645643 L -11.506664,10.347825"
         style="fill:none;fill-rule:evenodd;stroke:#4c381b;stroke-width:0.81125516px;stroke-linecap:round;stroke-linejoin:miter;stroke-opacity:1" />
      <path
         style="fill:none;fill-rule:evenodd;stroke:#4c381b;stroke-width:0.81125516px;stroke-linecap:round;stroke-linejoin:miter;stroke-opacity:1"
         d="M -21.833887,25.177612 L -25.12615,25.406917 L -23.83956,29.577751 L -24.786738,32.601669"
         id="path3500"
         sodipodi:nodetypes="cccc" />
      <path
         sodipodi:nodetypes="cccc"
         id="path3506"
         d="M -12.260459,18.884715 L -13.516349,15.025343 L -5.398084,16.206945 L -2.169591,14.513334"
         style="fill:none;fill-rule:evenodd;stroke:#4c381b;stroke-width:0.81125516px;stroke-linecap:round;stroke-linejoin:miter;stroke-opacity:1" />
      <path
         style="fill:none;fill-rule:evenodd;stroke:#4c381b;stroke-width:0.81125516px;stroke-linecap:round;stroke-linejoin:miter;stroke-opacity:1"
         d="M -17.658208,28.205784 L -21.641361,28.984571 L -16.66202,35.504432 L -16.505396,38.8352"
         id="path3508"
         sodipodi:nodetypes="cccc" />
      <path
         sodipodi:nodetypes="ccc"
         id="path3512"
         d="M -20.47727,16.06548 L -21.45236,10.870309 L -20.564708,7.311734"
         style="fill:none;fill-rule:evenodd;stroke:#4c381b;stroke-width:0.81125516px;stroke-linecap:round;stroke-linejoin:miter;stroke-opacity:1" />
      <path
         style="fill:none;fill-rule:evenodd;stroke:#4c381b;stroke-width:0.81125516px;stroke-linecap:round;stroke-linejoin:miter;stroke-opacity:1"
         d="M -24.16747,22.389763 L -29.181423,24.063344 L -31.859613,26.569072"
         id="path3514"
         sodipodi:nodetypes="ccc" />
      <path
         sodipodi:nodetypes="czzsszzzzzsszzz"
         id="path3496"
         d="M -29.233484,14.938412 C -30.141205,16.340832 -29.606936,17.027961 -28.921867,18.345013 C -28.219842,19.694662 -26.226538,18.120403 -26.352892,18.356619 C -26.479145,18.592646 -27.018321,20.943115 -26.521446,22.016783 C -25.892605,23.37561 -24.877763,21.790213 -24.479358,22.22139 C -23.485567,23.296932 -22.800259,24.345802 -22.219543,25.034121 C -20.163044,27.471672 -15.518871,29.448519 -14.058475,29.666321 C -12.573095,29.887848 -8.378372,31.028449 -6.764988,28.708549 C -5.151603,26.388649 -7.925022,23.050708 -8.747234,22.046769 C -9.612195,20.990632 -13.436325,17.374213 -16.755025,16.588662 C -18.322211,16.217701 -19.218556,16.106362 -20.63533,15.987554 C -21.038634,15.953733 -20.952523,14.501278 -21.480721,14.227549 C -22.206075,13.851649 -24.602457,15.783547 -24.77396,15.954003 C -24.943733,16.122739 -23.911438,14.275178 -25.822449,13.921796 C -27.799833,13.55614 -28.325763,13.535992 -29.233484,14.938412 z"
         style="fill:#452d06;fill-opacity:1;fill-rule:evenodd;stroke:#493413;stroke-width:1;stroke-linecap:butt;stroke-linejoin:miter;stroke-miterlimit:4;stroke-dasharray:none;stroke-opacity:1" />
      <path
         transform="matrix(0.4116623,-0.7000995,0.698539,0.4107447,-61.501737,59.896001)"
         d="M 67.8125,6.71875 C 66.86627,6.678052 66.439889,6.8476087 66.0625,7.1875 C 65.685111,7.5273913 65.369628,8.1460957 64.875,8.9375 C 64.700071,9.2173852 64.700104,9.3533421 64.78125,9.5625 C 64.862396,9.7716579 65.065535,10.036744 65.3125,10.25 C 65.559465,10.463256 65.85307,10.648516 66.0625,10.78125 C 66.167215,10.847617 66.222644,10.86819 66.3125,10.9375 C 66.334964,10.954827 66.373346,10.997852 66.40625,11.03125 C 66.439154,11.064648 66.482827,11.097628 66.53125,11.25 C 66.543356,11.288093 66.562467,11.373944 66.5625,11.375 C 66.562533,11.376056 66.531569,11.561578 66.53125,11.5625 C 66.530931,11.563422 66.438178,11.717963 66.4375,11.71875 C 66.436822,11.719537 66.349766,11.820477 66.3125,11.84375 C 66.163437,11.936841 66.113263,11.904195 66.0625,11.90625 C 66.123428,11.903784 66.034427,11.912535 65.9375,11.9375 C 65.840573,11.962465 65.685804,12.01215 65.53125,12.0625 C 65.222143,12.163199 64.846849,12.318306 64.4375,12.5 C 63.618802,12.863387 62.732255,13.386034 62.4375,13.8125 C 62.225837,14.118744 62.265354,14.226251 62.28125,14.28125 C 62.297146,14.336249 62.358821,14.442745 62.53125,14.5625 C 62.703679,14.682255 62.927765,14.798925 63.15625,14.96875 C 63.270493,15.053662 63.40264,15.145093 63.5,15.3125 C 63.59736,15.479907 63.657675,15.756636 63.59375,15.96875 C 63.059069,17.74292 62.350141,19.127987 62,20.125 C 61.387866,21.868029 61.26009,24.316442 61.375,26.5 C 61.48991,28.683558 61.871257,30.66709 62.15625,31.375 C 62.523755,32.287863 63.041356,33.961632 63.875,35.4375 C 64.708644,36.913368 65.791599,38.104891 67.28125,38.21875 C 68.765207,38.332173 69.932785,37.314558 70.84375,35.96875 C 71.754715,34.622942 72.347682,33.004306 72.625,32.25 C 72.887573,31.5358 73.407137,29.558142 73.6875,27.3125 C 73.967863,25.066858 73.986323,22.541488 73.40625,20.65625 C 72.829385,18.781435 72.381708,17.797247 71.625,16.21875 C 71.532272,16.025315 71.572653,15.808495 71.625,15.65625 C 71.677347,15.504005 71.732967,15.382461 71.8125,15.28125 C 71.971566,15.078829 72.162316,14.923684 72.34375,14.75 C 72.525184,14.576316 72.70614,14.390826 72.8125,14.25 C 72.91886,14.109174 72.937207,14.025754 72.9375,14.03125 C 72.939536,14.069405 72.829903,13.857146 72.53125,13.625 C 72.232597,13.392854 71.820946,13.130775 71.375,12.90625 C 70.929054,12.681725 70.456152,12.490127 70.09375,12.34375 C 69.731348,12.197373 69.40494,12.085177 69.4375,12.09375 C 69.403,12.084666 69.356082,12.074074 69.25,12 C 69.22348,11.981482 69.15679,11.906864 69.15625,11.90625 C 69.15571,11.905636 69.06272,11.750625 69.0625,11.75 C 69.06228,11.749375 69.031157,11.500639 69.03125,11.5 C 69.031343,11.499361 69.093349,11.313155 69.09375,11.3125 C 69.094151,11.311845 69.162571,11.242644 69.1875,11.21875 C 69.212429,11.194856 69.231885,11.168833 69.25,11.15625 C 69.286229,11.131083 69.323557,11.134505 69.34375,11.125 C 69.384136,11.105991 69.415999,11.100715 69.4375,11.09375 C 69.523504,11.065891 69.569707,11.024005 69.65625,11 C 69.829336,10.951989 70.058185,10.897366 70.25,10.78125 C 70.441815,10.665134 70.581731,10.507141 70.65625,10.3125 C 70.730769,10.117859 70.768383,9.8564203 70.59375,9.375 C 70.173357,8.2160749 69.886966,7.5414218 69.5625,7.21875 C 69.238034,6.8960782 68.796114,6.761056 67.8125,6.71875 z"
         id="path11318"
         style="opacity:0.79220779;fill:url(#radialGradient5325);fill-opacity:1;fill-rule:evenodd;stroke:none;stroke-width:1px;stroke-linecap:butt;stroke-linejoin:miter;stroke-opacity:1"
         inkscape:original="M 67.84375 6.21875 C 65.788718 6.1303617 65.407854 7.1036834 64.4375 8.65625 C 63.443128 10.247241 66.360825 11.392908 66.03125 11.40625 C 65.701936 11.419581 62.860731 12.331115 62.03125 13.53125 C 60.981466 15.050132 63.302752 15.118991 63.09375 15.8125 C 62.572408 17.542408 61.899398 18.920463 61.53125 19.96875 C 60.227524 23.681061 61.007234 29.87275 61.6875 31.5625 C 62.379406 33.281157 63.780757 38.453585 67.25 38.71875 C 70.719244 38.983915 72.541323 33.940102 73.09375 32.4375 C 73.674898 30.856776 75.143687 24.52167 73.90625 20.5 C 73.321897 18.60085 72.851862 17.581426 72.09375 16 C 71.877947 15.549827 73.476618 14.733095 73.4375 14 C 73.38378 12.993271 69.850456 11.669569 69.5625 11.59375 C 69.277453 11.518696 71.880093 11.441403 71.0625 9.1875 C 70.216514 6.8553145 69.898779 6.3071384 67.84375 6.21875 z "
         inkscape:radius="-0.50775808"
         sodipodi:type="inkscape:offset" />
      <path
         id="path9358"
         d="M -25.672584,17.340953 L -7.062672,28.366957"
         style="opacity:0.57467532;fill:none;fill-rule:evenodd;stroke:url(#linearGradient5327);stroke-width:0.81125516px;stroke-linecap:butt;stroke-linejoin:miter;stroke-opacity:1" />
      <path
         sodipodi:nodetypes="csssc"
         id="path11322"
         d="M -26.118051,14.470955 C -25.211304,15.004128 -25.132909,16.3802 -25.587384,17.15311 C -26.041859,17.92602 -27.387144,18.479681 -28.293891,17.946509 C -29.200639,17.413337 -29.327175,15.994236 -28.8727,15.221326 C -28.418225,14.448416 -27.024799,13.937783 -26.118051,14.470955 z"
         style="opacity:0.25899999;fill:url(#radialGradient5329);fill-opacity:1;fill-rule:evenodd;stroke:none;stroke-width:0.1;stroke-linecap:round;stroke-linejoin:round;stroke-miterlimit:4;stroke-dashoffset:0;stroke-opacity:1" />
      <path
         transform="translate(1.237436,-24.041632)"
         d="M -39.25,24.78125 C -39.250226,24.781266 -39.281123,24.812397 -39.28125,24.8125 C -39.281313,24.812551 -39.27687,24.835954 -39.28125,24.84375 C -39.281176,24.844023 -39.281423,24.874643 -39.28125,24.875 C -39.274435,24.883053 -39.261526,24.894508 -39.25,24.90625 C -39.226949,24.929734 -39.20009,24.957989 -39.15625,25 C -39.068569,25.084021 -38.937332,25.225674 -38.78125,25.375 C -38.469086,25.673651 -38.044591,26.090829 -37.59375,26.5625 C -36.692067,27.505842 -35.678759,28.682239 -35.3125,29.59375 C -34.593126,31.384064 -33.209419,32.967786 -32.0625,34.40625 C -31.491928,35.12186 -30.693455,35.825122 -30.03125,36.375 C -29.700147,36.649939 -29.40684,36.8839 -29.1875,37.0625 C -29.07783,37.1518 -29.001663,37.223646 -28.9375,37.28125 C -28.905418,37.310052 -28.861614,37.324665 -28.84375,37.34375 C -28.825886,37.362835 -28.812179,37.407025 -28.8125,37.40625 C -28.761574,37.529316 -28.628403,37.586043 -28.5,37.59375 C -28.435798,37.597603 -28.364135,37.588821 -28.3125,37.5625 C -28.260865,37.536179 -28.217301,37.47077 -28.21875,37.40625 C -28.219599,37.368446 -28.260858,37.338201 -28.28125,37.3125 C -28.301642,37.286799 -28.308594,37.284509 -28.34375,37.25 C -28.414061,37.180982 -28.533657,37.07364 -28.65625,36.96875 C -28.901436,36.75897 -29.22385,36.497576 -29.59375,36.1875 C -30.33355,35.567348 -31.217898,34.797286 -31.75,34.15625 C -32.845176,32.836863 -34.352255,31.158998 -35.09375,29.4375 C -35.495808,28.504058 -36.507615,27.368891 -37.4375,26.4375 C -37.902443,25.971804 -38.329181,25.539338 -38.65625,25.25 C -38.819785,25.105331 -38.966941,25.016023 -39.0625,24.9375 C -39.11028,24.898238 -39.160318,24.86413 -39.1875,24.84375 C -39.201091,24.83356 -39.209581,24.81835 -39.21875,24.8125 C -39.221638,24.811166 -39.249351,24.781389 -39.25,24.78125 z"
         id="path2924"
         style="fill:#656565;fill-opacity:1;fill-rule:evenodd;stroke:none;stroke-width:0.08112551;stroke-linecap:round;stroke-linejoin:round;stroke-miterlimit:4;stroke-dasharray:none;stroke-opacity:1"
         inkscape:original="M -39.25 24.84375 C -39.282118 24.869801 -36.025526 27.710213 -35.28125 29.5625 C -34.566197 31.342059 -33.17916 32.935293 -32.03125 34.375 C -30.898101 35.796192 -28.858364 37.188653 -28.78125 37.375 C -28.702123 37.566214 -28.277112 37.590482 -28.28125 37.40625 C -28.285287 37.226584 -30.707916 35.480572 -31.78125 34.1875 C -32.875332 32.869431 -34.378657 31.201504 -35.125 29.46875 C -35.916955 27.630101 -39.217578 24.817452 -39.25 24.84375 z "
         inkscape:radius="0.048114546"
         sodipodi:type="inkscape:offset" />
      <path
         transform="matrix(0.1851974,0.9827013,0.9827013,-0.1851974,-61.23426,51.513876)"
         sodipodi:type="inkscape:offset"
         inkscape:radius="0.048114546"
         inkscape:original="M -39.25 24.84375 C -39.282118 24.869801 -36.025526 27.710213 -35.28125 29.5625 C -34.566197 31.342059 -33.17916 32.935293 -32.03125 34.375 C -30.898101 35.796192 -28.858364 37.188653 -28.78125 37.375 C -28.702123 37.566214 -28.277112 37.590482 -28.28125 37.40625 C -28.285287 37.226584 -30.707916 35.480572 -31.78125 34.1875 C -32.875332 32.869431 -34.378657 31.201504 -35.125 29.46875 C -35.916955 27.630101 -39.217578 24.817452 -39.25 24.84375 z "
         style="fill:#656565;fill-opacity:1;fill-rule:evenodd;stroke:none;stroke-width:0.08112551;stroke-linecap:round;stroke-linejoin:round;stroke-miterlimit:4;stroke-dasharray:none;stroke-opacity:1"
         id="path2926"
         d="M -39.25,24.78125 C -39.250226,24.781266 -39.281123,24.812397 -39.28125,24.8125 C -39.281313,24.812551 -39.27687,24.835954 -39.28125,24.84375 C -39.281176,24.844023 -39.281423,24.874643 -39.28125,24.875 C -39.274435,24.883053 -39.261526,24.894508 -39.25,24.90625 C -39.226949,24.929734 -39.20009,24.957989 -39.15625,25 C -39.068569,25.084021 -38.937332,25.225674 -38.78125,25.375 C -38.469086,25.673651 -38.044591,26.090829 -37.59375,26.5625 C -36.692067,27.505842 -35.678759,28.682239 -35.3125,29.59375 C -34.593126,31.384064 -33.209419,32.967786 -32.0625,34.40625 C -31.491928,35.12186 -30.693455,35.825122 -30.03125,36.375 C -29.700147,36.649939 -29.40684,36.8839 -29.1875,37.0625 C -29.07783,37.1518 -29.001663,37.223646 -28.9375,37.28125 C -28.905418,37.310052 -28.861614,37.324665 -28.84375,37.34375 C -28.825886,37.362835 -28.812179,37.407025 -28.8125,37.40625 C -28.761574,37.529316 -28.628403,37.586043 -28.5,37.59375 C -28.435798,37.597603 -28.364135,37.588821 -28.3125,37.5625 C -28.260865,37.536179 -28.217301,37.47077 -28.21875,37.40625 C -28.219599,37.368446 -28.260858,37.338201 -28.28125,37.3125 C -28.301642,37.286799 -28.308594,37.284509 -28.34375,37.25 C -28.414061,37.180982 -28.533657,37.07364 -28.65625,36.96875 C -28.901436,36.75897 -29.22385,36.497576 -29.59375,36.1875 C -30.33355,35.567348 -31.217898,34.797286 -31.75,34.15625 C -32.845176,32.836863 -34.352255,31.158998 -35.09375,29.4375 C -35.495808,28.504058 -36.507615,27.368891 -37.4375,26.4375 C -37.902443,25.971804 -38.329181,25.539338 -38.65625,25.25 C -38.819785,25.105331 -38.966941,25.016023 -39.0625,24.9375 C -39.11028,24.898238 -39.160318,24.86413 -39.1875,24.84375 C -39.201091,24.83356 -39.209581,24.81835 -39.21875,24.8125 C -39.221638,24.811166 -39.249351,24.781389 -39.25,24.78125 z" />
      <path
         sodipodi:nodetypes="csssssssssssssssscccssssssssssssscccsssssssssssssssc"
         id="path3692"
         d="M -27.731314,14.552118 C -27.989888,14.617565 -28.165434,14.731744 -28.575064,15.364618 C -28.957942,15.956161 -28.952917,16.174052 -28.887564,16.489618 C -28.822211,16.805184 -28.555617,17.274813 -28.200064,17.958368 C -28.124364,18.103902 -28.155376,18.069821 -28.075064,18.083368 C -27.994752,18.096915 -27.790229,18.092917 -27.575064,18.020868 C -27.359899,17.948819 -27.157276,17.829272 -26.981314,17.739618 C -26.893333,17.694791 -26.825499,17.664286 -26.700064,17.614618 C -26.668705,17.602201 -26.640564,17.599279 -26.575064,17.583368 C -26.509564,17.567457 -26.41237,17.492065 -26.168814,17.552118 C -26.107925,17.567131 -25.950803,17.645443 -25.950064,17.645868 C -25.949325,17.646293 -25.731816,17.832754 -25.731314,17.833368 C -25.730812,17.833982 -25.606576,18.11381 -25.606314,18.114618 C -25.606052,18.115426 -25.545054,18.266842 -25.543814,18.333368 C -25.538855,18.599472 -25.63512,18.676628 -25.668814,18.739618 C -25.609525,18.628779 -25.649534,18.703741 -25.668814,18.770868 C -25.688094,18.837995 -25.704563,18.930512 -25.731314,19.052118 C -25.784815,19.295329 -25.848414,19.614344 -25.887564,19.958368 C -26.01668,20.459336 -25.861511,21.719337 -25.777241,21.780021 C -25.652471,21.861113 -25.388469,21.601171 -25.227685,21.508086 C -25.096843,21.452168 -24.927202,21.349577 -24.685387,21.349941 C -24.443572,21.350305 -24.077311,21.471763 -23.887564,21.677118 C -22.840768,22.810025 -22.157516,23.904573 -21.637564,24.520868 C -20.731618,25.594678 -19.095837,26.686074 -17.543814,27.489618 C -15.991791,28.293162 -14.419714,28.821164 -13.918814,28.895868 C -13.088691,29.019671 -11.765331,29.34616 -10.450064,29.364618 C -9.134797,29.383076 -8.0068289,29.08513 -7.418814,28.239618 C -6.8369887,27.403007 -7.0334551,26.368767 -7.575064,25.239618 C -8.1166729,24.110469 -8.970246,23.061672 -9.387564,22.552118 C -9.739453,22.122454 -10.896278,20.933198 -12.325064,19.833368 C -13.75385,18.733538 -15.49139,17.709893 -16.950064,17.364618 C -18.483883,17.001554 -19.294135,16.888767 -20.700064,16.770868 C -20.986453,16.746851 -21.226442,16.577863 -21.356314,16.427118 C -21.486186,16.276373 -21.55918,16.140705 -21.606314,16.020868 C -21.679199,15.706509 -21.790689,15.345754 -21.895377,15.052118 C -22.079323,15.084427 -22.607069,15.397362 -22.887564,15.552118 C -23.216514,15.763629 -23.548518,16.020372 -23.793814,16.208368 C -24.03911,16.396364 -24.280196,16.600511 -24.200064,16.520868 C -24.234457,16.555051 -24.271148,16.594072 -24.450064,16.677118 C -24.494793,16.697879 -24.605664,16.739488 -24.606314,16.739618 C -24.606964,16.739748 -24.918287,16.739716 -24.918814,16.739618 C -24.919341,16.73952 -25.262157,16.58369 -25.262564,16.583368 C -25.262971,16.583046 -25.481022,16.333911 -25.481314,16.333368 C -25.481606,16.332825 -25.531382,16.198342 -25.543814,16.145868 C -25.556246,16.093394 -25.572553,16.054666 -25.575064,16.020868 C -25.580087,15.953273 -25.578108,15.92817 -25.575064,15.895868 C -25.568977,15.831263 -25.549721,15.797187 -25.543814,15.770868 C -25.520185,15.665591 -25.52959,15.615321 -25.512564,15.552118 C -25.478513,15.425712 -25.448654,15.269518 -25.450064,15.145868 C -25.451474,15.022218 -25.473939,14.975459 -25.512564,14.927118 C -25.551189,14.878777 -25.637888,14.771874 -25.981314,14.708368 C -26.962165,14.52699 -27.487877,14.490502 -27.731314,14.552118 z"
         style="fill:none;fill-opacity:1;fill-rule:evenodd;stroke:#dec18d;stroke-width:0.75000000000000000;stroke-linecap:butt;stroke-linejoin:miter;stroke-miterlimit:4;stroke-opacity:1" />
    </g>
  </g>
</svg>
