<?xml version="1.0" encoding="UTF-8" standalone="no"?>
<!-- Created with Inkscape (http://www.inkscape.org/) -->
<svg
   xmlns:dc="http://purl.org/dc/elements/1.1/"
   xmlns:cc="http://web.resource.org/cc/"
   xmlns:rdf="http://www.w3.org/1999/02/22-rdf-syntax-ns#"
   xmlns:svg="http://www.w3.org/2000/svg"
   xmlns="http://www.w3.org/2000/svg"
   xmlns:xlink="http://www.w3.org/1999/xlink"
   xmlns:sodipodi="http://sodipodi.sourceforge.net/DTD/sodipodi-0.dtd"
   xmlns:inkscape="http://www.inkscape.org/namespaces/inkscape"
   inkscape:export-ydpi="90.000000"
   inkscape:export-xdpi="90.000000"
   inkscape:export-filename="/home/jimmac/Desktop/wi-fi.png"
   width="48px"
   height="48px"
   id="svg11300"
   sodipodi:version="0.32"
   inkscape:version="0.45"
   sodipodi:docbase="/home/patrick/Projects/Fusion/config/ccsm-new-icons/images"
   sodipodi:docname="plugin-winrules.svg"
   inkscape:output_extension="org.inkscape.output.svg.inkscape"
   sodipodi:modified="true">
  <defs
     id="defs3">
    <linearGradient
       inkscape:collect="always"
       id="linearGradient5559">
      <stop
         style="stop-color:#000000;stop-opacity:1;"
         offset="0"
         id="stop5561" />
      <stop
         style="stop-color:#000000;stop-opacity:0;"
         offset="1"
         id="stop5563" />
    </linearGradient>
    <radialGradient
       gradientTransform="matrix(-1.9576392,-9.2540676e-8,-1.2888861e-7,1.4565793,110.01781,62.73803)"
       gradientUnits="userSpaceOnUse"
       xlink:href="#linearGradient51765"
       id="radialGradient54733"
       fy="-12.203125"
       fx="51.4375"
       r="2.171875"
       cy="-12.203125"
       cx="51.4375" />
    <radialGradient
       gradientTransform="matrix(1.9576392,-8.146468e-7,6.6614241e-7,1.4565793,-59.017557,62.738067)"
       gradientUnits="userSpaceOnUse"
       xlink:href="#linearGradient51765"
       id="radialGradient54731"
       fy="-12.203125"
       fx="51.4375"
       r="2.171875"
       cy="-12.203125"
       cx="51.4375" />
    <linearGradient
       gradientTransform="matrix(0.9788196,0,0,0.7154223,-8.5008021,52.112719)"
       gradientUnits="userSpaceOnUse"
       xlink:href="#linearGradient47870"
       id="linearGradient54729"
       y2="-5.5633383"
       x2="32.084972"
       y1="-14.402173"
       x1="32.084972" />
    <linearGradient
       id="linearGradient47870">
      <stop
         id="stop47872"
         offset="0"
         style="stop-color:#000000;stop-opacity:0" />
      <stop
         id="stop47878"
         offset="0.5"
         style="stop-color:#000000;stop-opacity:1" />
      <stop
         id="stop47874"
         offset="1"
         style="stop-color:#000000;stop-opacity:0" />
    </linearGradient>
    <linearGradient
       id="linearGradient51765">
      <stop
         id="stop51767"
         offset="0"
         style="stop-color:#000000;stop-opacity:1" />
      <stop
         id="stop51769"
         offset="1"
         style="stop-color:#000000;stop-opacity:0" />
    </linearGradient>
    <linearGradient
       id="linearGradient11995">
      <stop
         style="stop-color:#f2f2f0;stop-opacity:1;"
         offset="0"
         id="stop11997" />
      <stop
         style="stop-color:#eeeeec;stop-opacity:0;"
         offset="1"
         id="stop11999" />
    </linearGradient>
    <linearGradient
       id="linearGradient6159">
      <stop
         style="stop-color:#aeaea6;stop-opacity:1;"
         offset="0"
         id="stop6161" />
      <stop
         style="stop-color:#eeeeec;stop-opacity:1;"
         offset="1"
         id="stop6163" />
    </linearGradient>
    <radialGradient
       inkscape:collect="always"
       xlink:href="#linearGradient11995"
       id="radialGradient2500"
       gradientUnits="userSpaceOnUse"
       gradientTransform="matrix(4.486038e-3,0.7474703,-2.5480054,8.6211139e-3,47.604227,16.810615)"
       cx="9.8119087"
       cy="9.8194771"
       fx="9.8119087"
       fy="9.8194771"
       r="17.890625" />
    <linearGradient
       inkscape:collect="always"
       xlink:href="#linearGradient6159"
       id="linearGradient4789"
       gradientUnits="userSpaceOnUse"
       gradientTransform="matrix(0.719017,0,0,0.5495945,15.544185,20.348472)"
       x1="101.05743"
       y1="66.738335"
       x2="10.834411"
       y2="5.3968143" />
    <radialGradient
       inkscape:collect="always"
       xlink:href="#linearGradient5559"
       id="radialGradient5565"
       cx="32.59375"
       cy="49.96875"
       fx="32.59375"
       fy="49.96875"
       r="11.46875"
       gradientTransform="matrix(1,0,0,0.2207084,0,38.940225)"
       gradientUnits="userSpaceOnUse" />
    <linearGradient
       id="linearGradient8553">
      <stop
         style="stop-color:#3465a4;stop-opacity:0.70588237;"
         offset="0"
         id="stop8555" />
      <stop
         id="stop8559"
         offset="0.5"
         style="stop-color:#3465a4;stop-opacity:0.83505154;" />
      <stop
         style="stop-color:#3465a4;stop-opacity:1;"
         offset="1"
         id="stop8557" />
    </linearGradient>
    <linearGradient
       inkscape:collect="always"
       xlink:href="#linearGradient8553"
       id="linearGradient6073"
       gradientUnits="userSpaceOnUse"
       gradientTransform="matrix(-0.7935911,2.9252742e-3,-2.9263427e-3,-0.7933013,49.853679,49.382299)"
       x1="33.524208"
       y1="29.414341"
       x2="47.904255"
       y2="41.965485" />
    <linearGradient
       id="linearGradient2781">
      <stop
         id="stop2783"
         offset="0"
         style="stop-color:#d3d7cf;stop-opacity:1" />
      <stop
         id="stop2785"
         offset="1"
         style="stop-color:#eeeeec;stop-opacity:1" />
    </linearGradient>
    <linearGradient
       id="linearGradient3674">
      <stop
         id="stop3676"
         offset="0"
         style="stop-color:#3465a4;stop-opacity:1" />
      <stop
         id="stop3678"
         offset="1"
         style="stop-color:#729fcf;stop-opacity:1;" />
    </linearGradient>
    <linearGradient
       id="linearGradient3690">
      <stop
         id="stop3692"
         offset="0"
         style="stop-color:white;stop-opacity:1;" />
      <stop
         id="stop3694"
         offset="1"
         style="stop-color:white;stop-opacity:0.46875" />
    </linearGradient>
    <linearGradient
       inkscape:collect="always"
       xlink:href="#linearGradient3690"
       id="linearGradient2374"
       gradientUnits="userSpaceOnUse"
       gradientTransform="matrix(1.2462554,0,0,1.1940489,-7.0832233,-4.6977221)"
       x1="9.5"
       y1="16.26436"
       x2="9.5"
       y2="13.408723" />
    <linearGradient
       inkscape:collect="always"
       xlink:href="#linearGradient3674"
       id="linearGradient2377"
       gradientUnits="userSpaceOnUse"
       gradientTransform="matrix(1.2400968,0,0,1.1924457,-6.9605285,-4.6357937)"
       x1="23.069359"
       y1="6.7993021"
       x2="23.069359"
       y2="12.403291" />
    <linearGradient
       inkscape:collect="always"
       xlink:href="#linearGradient2781"
       id="linearGradient2380"
       gradientUnits="userSpaceOnUse"
       gradientTransform="matrix(1.2400968,0,0,1.1924457,-6.9605285,-4.6357937)"
       x1="24.925514"
       y1="40.000107"
       x2="24.925514"
       y2="19.53867" />
  </defs>
  <sodipodi:namedview
     stroke="#ef2929"
     fill="#eeeeec"
     id="base"
     pagecolor="#ffffff"
     bordercolor="#666666"
     borderopacity="0.25490196"
     inkscape:pageopacity="0.0"
     inkscape:pageshadow="2"
     inkscape:zoom="0.99999999"
     inkscape:cx="40.873917"
     inkscape:cy="22.415985"
     inkscape:current-layer="layer1"
     showgrid="false"
     inkscape:grid-bbox="true"
     inkscape:document-units="px"
     inkscape:showpageshadow="false"
     inkscape:window-width="1146"
     inkscape:window-height="714"
     inkscape:window-x="62"
     inkscape:window-y="51"
     showguides="true"
     inkscape:guide-bbox="true" />
  <metadata
     id="metadata4">
    <rdf:RDF>
      <cc:Work
         rdf:about="">
        <dc:format>image/svg+xml</dc:format>
        <dc:type
           rdf:resource="http://purl.org/dc/dcmitype/StillImage" />
        <dc:creator>
          <cc:Agent>
            <dc:title>Patrick Niklaus</dc:title>
          </cc:Agent>
        </dc:creator>
        <dc:source />
        <cc:license
           rdf:resource="http://creativecommons.org/licenses/GPL/2.0/" />
        <dc:title>State</dc:title>
        <dc:subject>
          <rdf:Bag />
        </dc:subject>
      </cc:Work>
      <cc:License
         rdf:about="http://creativecommons.org/licenses/GPL/2.0/">
        <cc:permits
           rdf:resource="http://web.resource.org/cc/Reproduction" />
        <cc:permits
           rdf:resource="http://web.resource.org/cc/Distribution" />
        <cc:requires
           rdf:resource="http://web.resource.org/cc/Notice" />
        <cc:permits
           rdf:resource="http://web.resource.org/cc/DerivativeWorks" />
        <cc:requires
           rdf:resource="http://web.resource.org/cc/ShareAlike" />
        <cc:requires
           rdf:resource="http://web.resource.org/cc/SourceCode" />
      </cc:License>
    </rdf:RDF>
  </metadata>
  <g
     id="layer1"
     inkscape:label="Layer 1"
     inkscape:groupmode="layer">
    <g
       transform="matrix(1.121426,0,0,1.2955059,-4.5699363,-15.40075)"
       id="g54724">
      <rect
         width="32.357079"
         height="6.3234997"
         x="9.3215466"
         y="41.809082"
         style="opacity:0.3;fill:url(#linearGradient54729);fill-opacity:1;fill-rule:evenodd;stroke:none;stroke-width:1.02400005;stroke-linecap:butt;stroke-linejoin:miter;stroke-miterlimit:4;stroke-dasharray:none;stroke-dashoffset:0;stroke-opacity:1"
         id="rect46899" />
      <path
         d="M 41.6785,41.799698 L 41.6785,48.126714 C 44.022298,48.102828 45.930248,46.705313 45.930248,44.974385 C 45.930248,43.243458 44.022299,41.823584 41.6785,41.799698 z "
         style="opacity:0.3;fill:url(#radialGradient54731);fill-opacity:1;fill-rule:evenodd;stroke:none;stroke-width:1.02400005;stroke-linecap:butt;stroke-linejoin:miter;stroke-miterlimit:4;stroke-dasharray:none;stroke-dashoffset:0;stroke-opacity:1"
         id="path48849" />
      <path
         d="M 9.3217476,41.799698 L 9.3217476,48.126714 C 6.9779494,48.102828 5.07,46.705313 5.07,44.974385 C 5.07,43.243458 6.9779484,41.823584 9.3217476,41.799698 z "
         style="opacity:0.3;fill:url(#radialGradient54733);fill-opacity:1;fill-rule:evenodd;stroke:none;stroke-width:1.02400005;stroke-linecap:butt;stroke-linejoin:miter;stroke-miterlimit:4;stroke-dasharray:none;stroke-dashoffset:0;stroke-opacity:1"
         id="path52742" />
    </g>
    <rect
       style="fill:url(#linearGradient2380);fill-opacity:1;stroke:#888a85;stroke-width:1.00000024;stroke-miterlimit:4;stroke-dasharray:none;stroke-opacity:1"
       id="rect1915"
       width="40.923237"
       height="36.369576"
       x="3.5802944"
       y="6.0962172"
       rx="2"
       ry="2" />
    <path
       style="fill:url(#linearGradient2377);fill-opacity:1;stroke:#204a87;stroke-width:1.00000048;stroke-miterlimit:4;stroke-opacity:1"
       d="M 3.5802932,12.094617 L 3.5802932,7.8848916 C 3.5802932,6.5636619 4.6864596,5.5000003 6.0604868,5.5000003 L 42.023295,5.5000003 C 43.397323,5.5000003 44.503488,6.5636619 44.503488,7.8848916 L 44.503488,12.094617"
       id="path1917"
       sodipodi:nodetypes="cccccc" />
    <rect
       style="opacity:0.8;fill:none;fill-opacity:1;stroke:url(#linearGradient2374);stroke-width:1.00000083;stroke-miterlimit:4;stroke-dasharray:none;stroke-opacity:1"
       id="rect1919"
       width="38.889584"
       height="34.958164"
       x="4.6183414"
       y="6.5136642"
       rx="1.4485159"
       ry="1.3235159" />
    <g
       id="g2382"
       transform="translate(-0.2499995,1.75)">
      <path
         id="rect2280"
         d="M 21.9375,21.0625 C 20.8295,21.0625 19.9375,21.9545 19.9375,23.0625 L 19.9375,43.125 C 20.238471,42.307671 20.66191,41.183962 20.75,41.34375 C 20.875,41.570491 23.25,45.069028 23.75,44.21875 C 24.25,43.368472 26.5,38.797231 26.625,38.34375 C 26.75,37.890267 29,41.5 29,41.5 C 29,41.5 30.125,42.699843 30.25,41.90625 C 30.375,41.112657 31.875,37.25 31.875,37.25 L 33.375,41.6875 L 34.625,44 L 37.875,39.125 L 39.75,42.09375 C 39.750002,42.09375 42.5,40.834297 42.625,40.4375 C 42.750002,40.040704 45.375,37.59375 45.375,37.59375 L 46.125,40.25 L 46.375,40.71875 L 46.375,23.0625 C 46.375,21.9545 45.483002,21.0625 44.375,21.0625 L 21.9375,21.0625 z "
         style="fill:url(#linearGradient4789);fill-opacity:1;fill-rule:evenodd;stroke:#555753;stroke-width:0.96607423;stroke-linecap:round;stroke-linejoin:round;stroke-miterlimit:4;stroke-dasharray:none;stroke-dashoffset:0;stroke-opacity:1" />
      <path
         id="path2498"
         d="M 21.84375,21.96875 C 21.365272,21.968749 20.90625,22.289508 20.90625,22.8125 L 20.90625,40.28125 C 20.939219,40.286333 20.966234,40.273273 21,40.28125 C 21.365802,40.36767 21.619971,40.633323 21.71875,40.8125 C 21.668086,40.720599 21.741163,40.862769 21.8125,40.96875 C 21.883837,41.074731 21.975804,41.210198 22.09375,41.375 C 22.329643,41.704605 22.629162,42.10313 22.9375,42.46875 C 23.058371,42.612075 23.135109,42.661567 23.25,42.78125 C 23.563766,42.181696 23.89235,41.576334 24.34375,40.65625 C 24.661833,40.007905 24.987034,39.370743 25.21875,38.875 C 25.334608,38.627128 25.431537,38.406353 25.5,38.25 C 25.568463,38.093647 25.595915,37.941275 25.5625,38.0625 C 25.606593,37.902536 25.702541,37.660603 25.9375,37.46875 C 26.172459,37.276897 26.528887,37.204279 26.75,37.21875 C 27.192226,37.247692 27.29388,37.384183 27.40625,37.46875 C 27.63099,37.637884 27.737163,37.771841 27.875,37.9375 C 28.150674,38.268818 28.451941,38.688965 28.75,39.125 C 29.160141,39.725002 29.354309,40.046431 29.5625,40.375 C 29.719102,39.911565 29.911271,39.403697 30.09375,38.90625 C 30.488682,37.829645 30.84375,36.84375 30.84375,36.84375 C 30.987952,36.471967 31.323405,36.208397 31.71875,36.15625 C 32.244213,36.08461 32.745146,36.400989 32.90625,36.90625 L 34.34375,41.15625 L 34.75,41.875 L 36.96875,38.53125 C 37.168959,38.21555 37.501168,38.03125 37.875,38.03125 C 38.248832,38.03125 38.612291,38.21555 38.8125,38.53125 L 40.15625,40.65625 C 40.360667,40.556557 40.392218,40.558162 40.625,40.4375 C 40.961534,40.263058 41.303466,40.081316 41.53125,39.9375 C 41.645142,39.865592 41.754957,39.803094 41.78125,39.78125 C 41.82808,39.722031 41.889628,39.591209 41.9375,39.53125 C 42.04897,39.391635 42.170078,39.247802 42.3125,39.09375 C 42.597345,38.785647 42.938605,38.431021 43.28125,38.09375 C 43.96654,37.419207 44.625,36.78125 44.625,36.78125 C 44.844044,36.572954 45.142885,36.454241 45.4375,36.46875 L 45.4375,22.8125 C 45.4375,22.30071 44.944913,21.96875 44.46875,21.96875 L 21.84375,21.96875 z "
         style="fill:url(#radialGradient2500);fill-opacity:1;fill-rule:evenodd;stroke:#ffffff;stroke-width:0.96607423;stroke-linecap:round;stroke-linejoin:round;stroke-miterlimit:4;stroke-dasharray:none;stroke-dashoffset:0;stroke-opacity:1" />
      <rect
         ry="0.67975968"
         rx="0.67276239"
         y="24.598255"
         x="22.056297"
         height="1.2187103"
         width="1.1374054"
         id="rect13954"
         style="fill:#a4a4a4;fill-opacity:1;fill-rule:evenodd;stroke:none;stroke-width:1.50999999;stroke-linecap:round;stroke-linejoin:round;stroke-miterlimit:4;stroke-dasharray:none;stroke-dashoffset:0;stroke-opacity:1" />
      <path
         id="path13960"
         d="M 23.941305,21.754639 L 23.941305,41.237157"
         style="fill:none;fill-rule:evenodd;stroke:#ffffff;stroke-width:0.47333422;stroke-linecap:butt;stroke-linejoin:miter;stroke-miterlimit:4;stroke-dasharray:none;stroke-opacity:1" />
      <rect
         style="fill:#a4a4a4;fill-opacity:1;fill-rule:evenodd;stroke:none;stroke-width:1.50999999;stroke-linecap:round;stroke-linejoin:round;stroke-miterlimit:4;stroke-dasharray:none;stroke-dashoffset:0;stroke-opacity:1"
         id="rect2502"
         width="1.1374054"
         height="1.2187103"
         x="22.167551"
         y="40.285755"
         rx="0.67276239"
         ry="0.67975968" />
      <path
         id="text2229"
         d="M 24.930202,25.100051 L 25.37745,25.100051 L 25.37745,23.830657 L 24.918364,23.925368 L 24.918364,23.580724 L 25.374819,23.486013 L 25.856268,23.486013 L 25.856268,25.100051 L 26.303516,25.100051 L 26.303516,25.449957 L 24.930202,25.449957 L 24.930202,25.100051 M 26.721824,25.236856 C 26.750764,25.207917 26.784965,25.193447 26.824428,25.193447 C 26.863891,25.193447 26.898092,25.207917 26.927032,25.236856 C 26.955971,25.265796 26.970441,25.299998 26.970441,25.33946 C 26.970441,25.3798 26.955971,25.414879 26.927032,25.444695 C 26.898092,25.473635 26.863891,25.488104 26.824428,25.488104 C 26.785842,25.488104 26.751641,25.473196 26.721824,25.44338 C 26.692885,25.412686 26.678415,25.378047 26.678415,25.33946 C 26.678415,25.299998 26.692885,25.265796 26.721824,25.236856 M 29.652613,23.817503 C 29.498267,23.817504 29.378563,23.874506 29.293499,23.988509 C 29.208433,24.102515 29.165901,24.262998 29.165902,24.469958 C 29.165901,24.676044 29.208433,24.836088 29.293499,24.950092 C 29.378563,25.064096 29.498267,25.121099 29.652613,25.121098 C 29.807832,25.121099 29.927975,25.064096 30.013042,24.950092 C 30.098105,24.836088 30.140637,24.676044 30.140639,24.469958 C 30.140637,24.262998 30.098105,24.102515 30.013042,23.988509 C 29.927975,23.874506 29.807832,23.817504 29.652613,23.817503 M 29.652613,23.450496 C 29.968315,23.450498 30.215617,23.540825 30.394518,23.721476 C 30.573415,23.90213 30.662864,24.151624 30.662866,24.469958 C 30.662864,24.787417 30.573415,25.036472 30.394518,25.217125 C 30.215617,25.397778 29.968315,25.488104 29.652613,25.488104 C 29.337784,25.488104 29.090483,25.397778 28.910707,25.217125 C 28.731808,25.036472 28.642359,24.787417 28.642359,24.469958 C 28.642359,24.151624 28.731808,23.90213 28.910707,23.721476 C 29.090483,23.540825 29.337784,23.450498 29.652613,23.450496 M 31.494221,25.236856 L 31.494221,26.010332 L 31.023296,26.010332 L 31.023296,23.97667 L 31.494221,23.97667 L 31.494221,24.192401 C 31.559115,24.106461 31.631026,24.04332 31.709953,24.002979 C 31.788878,23.961763 31.879643,23.941155 31.982247,23.941153 C 32.163776,23.941155 32.312859,24.013504 32.429495,24.1582 C 32.546129,24.302022 32.604446,24.487498 32.604448,24.714629 C 32.604446,24.941761 32.546129,25.127676 32.429495,25.272373 C 32.312859,25.416194 32.163776,25.488104 31.982247,25.488104 C 31.879643,25.488104 31.788878,25.467934 31.709953,25.427595 C 31.631026,25.386378 31.559115,25.322798 31.494221,25.236856 M 31.807295,24.283166 C 31.706444,24.283168 31.628833,24.320438 31.574463,24.394978 C 31.520968,24.468644 31.494221,24.575194 31.494221,24.714629 C 31.494221,24.854066 31.520968,24.961054 31.574463,25.035595 C 31.628833,25.10926 31.706444,25.146092 31.807295,25.146092 C 31.908144,25.146092 31.984877,25.10926 32.037496,25.035595 C 32.090989,24.961931 32.117736,24.854943 32.117737,24.714629 C 32.117736,24.574317 32.090989,24.467328 32.037496,24.393663 C 31.984877,24.32 31.908144,24.283168 31.807295,24.283166 M 33.614702,24.786978 C 33.516482,24.786979 33.442379,24.803641 33.392393,24.836964 C 33.343283,24.870289 33.318728,24.919399 33.318729,24.984293 C 33.318728,25.043926 33.33846,25.090844 33.377924,25.125045 C 33.418263,25.158369 33.47395,25.175031 33.544984,25.175031 C 33.633555,25.175031 33.708097,25.143461 33.768608,25.08032 C 33.829117,25.016302 33.859371,24.936499 33.859373,24.840911 L 33.859373,24.786978 L 33.614702,24.786978 M 34.334244,24.609394 L 34.334244,25.449957 L 33.859373,25.449957 L 33.859373,25.231595 C 33.796231,25.321044 33.725197,25.386378 33.646272,25.427595 C 33.567345,25.467934 33.471319,25.488104 33.358192,25.488104 C 33.205601,25.488104 33.081512,25.443818 32.985924,25.355246 C 32.891213,25.265796 32.843857,25.150038 32.843857,25.007971 C 32.843857,24.835211 32.903051,24.708491 33.021441,24.62781 C 33.140706,24.547131 33.327498,24.506791 33.581816,24.50679 L 33.859373,24.50679 L 33.859373,24.469958 C 33.859371,24.395418 33.829993,24.341047 33.771238,24.306844 C 33.712481,24.271767 33.62084,24.254228 33.496313,24.254227 C 33.395462,24.254228 33.301628,24.264313 33.21481,24.284482 C 33.127991,24.304653 33.047311,24.334908 32.97277,24.375247 L 32.97277,24.016133 C 33.073619,23.99158 33.174908,23.973164 33.276635,23.960885 C 33.378361,23.947732 33.480088,23.941155 33.581816,23.941153 C 33.847533,23.941155 34.039147,23.993772 34.156661,24.099006 C 34.275048,24.203365 34.334243,24.373494 34.334244,24.609394 M 35.965383,24.02271 L 35.965383,24.406817 C 35.901364,24.362971 35.836908,24.330523 35.772014,24.309475 C 35.707995,24.288429 35.641347,24.277906 35.572068,24.277905 C 35.440524,24.277906 35.33792,24.316492 35.264257,24.393663 C 35.191469,24.469959 35.155075,24.576948 35.155076,24.714629 C 35.155075,24.852312 35.191469,24.959739 35.264257,25.03691 C 35.33792,25.113206 35.440524,25.151354 35.572068,25.151353 C 35.645732,25.151354 35.71545,25.140392 35.781222,25.118467 C 35.84787,25.096544 35.909257,25.064096 35.965383,25.021125 L 35.965383,25.406548 C 35.891718,25.433733 35.816738,25.453903 35.740444,25.467058 C 35.665025,25.481089 35.589168,25.488104 35.512874,25.488104 C 35.247155,25.488104 35.039317,25.42014 34.889358,25.284212 C 34.739398,25.147407 34.664418,24.957546 34.664419,24.714629 C 34.664418,24.471713 34.739398,24.282291 34.889358,24.146361 C 35.039317,24.009557 35.247155,23.941155 35.512874,23.941153 C 35.590045,23.941155 35.665902,23.948171 35.740444,23.9622 C 35.815861,23.975356 35.890841,23.995526 35.965383,24.02271 M 36.374483,23.97667 L 36.845409,23.97667 L 36.845409,25.449957 L 36.374483,25.449957 L 36.374483,23.97667 M 36.374483,23.403141 L 36.845409,23.403141 L 36.845409,23.787248 L 36.374483,23.787248 L 36.374483,23.403141 M 37.814884,23.558362 L 37.814884,23.97667 L 38.300279,23.97667 L 38.300279,24.313421 L 37.814884,24.313421 L 37.814884,24.938253 C 37.814883,25.006656 37.828476,25.053135 37.855662,25.077689 C 37.882847,25.101367 37.93678,25.113206 38.017461,25.113206 L 38.259501,25.113206 L 38.259501,25.449957 L 37.855662,25.449957 C 37.669747,25.449957 37.537765,25.411371 37.459716,25.334199 C 37.382544,25.25615 37.343958,25.124168 37.343958,24.938253 L 37.343958,24.313421 L 37.109811,24.313421 L 37.109811,23.97667 L 37.343958,23.97667 L 37.343958,23.558362 L 37.814884,23.558362 M 38.396306,23.97667 L 38.867232,23.97667 L 39.263178,24.9764 L 39.599929,23.97667 L 40.070855,23.97667 L 39.451285,25.589393 C 39.38902,25.753384 39.316233,25.867826 39.232923,25.932721 C 39.150488,25.998493 39.041307,26.031378 38.90538,26.031379 L 38.633085,26.031379 L 38.633085,25.722252 L 38.780413,25.722252 C 38.860216,25.722252 38.918095,25.709536 38.954051,25.684104 C 38.990882,25.658672 39.019383,25.613071 39.039554,25.547299 L 39.052708,25.506521 L 38.396306,23.97667 M 25.478993,29.863932 L 26.343233,29.863932 L 26.343233,30.2362 L 24.915987,30.2362 L 24.915987,29.863932 L 25.632898,29.231208 C 25.696915,29.17333 25.744271,29.116766 25.774965,29.061517 C 25.805658,29.00627 25.821004,28.948829 25.821006,28.889195 C 25.821004,28.797116 25.789872,28.723013 25.72761,28.666886 C 25.666222,28.610763 25.584226,28.5827 25.481623,28.582698 C 25.402697,28.5827 25.316317,28.599801 25.222483,28.634 C 25.128648,28.667326 25.028237,28.717313 24.921248,28.78396 L 24.921248,28.352497 C 25.035252,28.31479 25.147941,28.286289 25.259315,28.266994 C 25.370688,28.246826 25.479869,28.236741 25.586858,28.236739 C 25.821881,28.236741 26.004288,28.288481 26.134079,28.39196 C 26.264744,28.495443 26.330077,28.639702 26.330079,28.824738 C 26.330077,28.931728 26.302453,29.031701 26.247206,29.124657 C 26.191957,29.216739 26.07576,29.34039 25.898616,29.49561 L 25.478993,29.863932 M 26.810212,30.023099 C 26.839152,29.99416 26.873353,29.97969 26.912816,29.97969 C 26.952279,29.97969 26.98648,29.99416 27.01542,30.023099 C 27.044359,30.052039 27.058829,30.08624 27.058829,30.125703 C 27.058829,30.166043 27.044359,30.201121 27.01542,30.230938 C 26.98648,30.259877 26.952279,30.274347 26.912816,30.274347 C 26.87423,30.274347 26.840029,30.259439 26.810212,30.229622 C 26.781273,30.198929 26.766803,30.164289 26.766803,30.125703 C 26.766803,30.08624 26.781273,30.052039 26.810212,30.023099 M 30.210611,28.334081 L 30.210611,28.749759 C 30.102744,28.701527 29.997509,28.665134 29.894906,28.640577 C 29.792301,28.616024 29.695398,28.603747 29.604195,28.603745 C 29.483174,28.603747 29.393725,28.620409 29.335847,28.653732 C 29.277967,28.687058 29.249027,28.738798 29.249028,28.808953 C 29.249027,28.861572 29.26832,28.902789 29.306907,28.932604 C 29.346369,28.961545 29.417403,28.986538 29.520008,29.007584 L 29.735739,29.050993 C 29.9541,29.094842 30.109321,29.161491 30.201403,29.250939 C 30.293481,29.34039 30.339522,29.467548 30.339523,29.632415 C 30.339522,29.849024 30.275065,30.010384 30.146154,30.116495 C 30.018117,30.22173 29.822118,30.274347 29.558155,30.274347 C 29.433626,30.274347 29.30866,30.262508 29.183256,30.23883 C 29.057851,30.215153 28.932446,30.180074 28.807042,30.133596 L 28.807042,29.706079 C 28.932446,29.772729 29.053466,29.823154 29.170102,29.857354 C 29.287613,29.890679 29.400741,29.907341 29.509484,29.907341 C 29.61998,29.907341 29.704606,29.888925 29.763363,29.852093 C 29.822118,29.815261 29.851496,29.762644 29.851497,29.694241 C 29.851496,29.632854 29.831326,29.585499 29.790987,29.552174 C 29.751523,29.51885 29.672158,29.489034 29.552893,29.462724 L 29.356894,29.419315 C 29.160455,29.377222 29.016634,29.310135 28.925431,29.218053 C 28.835104,29.125974 28.789941,29.001885 28.789941,28.845785 C 28.789941,28.650226 28.853082,28.499828 28.979364,28.394591 C 29.105645,28.289358 29.287175,28.236741 29.523954,28.236739 C 29.631818,28.236741 29.742753,28.245072 29.856759,28.261732 C 29.970762,28.277519 30.088712,28.301636 30.210611,28.334081 M 31.424757,29.573221 C 31.326537,29.573221 31.252434,29.589883 31.202449,29.623207 C 31.153338,29.656532 31.128784,29.705642 31.128784,29.770536 C 31.128784,29.830169 31.148515,29.877086 31.187979,29.911287 C 31.228318,29.944612 31.284005,29.961274 31.355039,29.961274 C 31.443611,29.961274 31.518152,29.929704 31.578663,29.866563 C 31.639172,29.802545 31.669427,29.722742 31.669428,29.627153 L 31.669428,29.573221 L 31.424757,29.573221 M 32.1443,29.395637 L 32.1443,30.2362 L 31.669428,30.2362 L 31.669428,30.017837 C 31.606286,30.107287 31.535253,30.17262 31.456327,30.213837 C 31.377401,30.254177 31.281374,30.274347 31.168247,30.274347 C 31.015656,30.274347 30.891567,30.230061 30.795979,30.141488 C 30.701268,30.052039 30.653912,29.936281 30.653912,29.794214 C 30.653912,29.621454 30.713107,29.494734 30.831496,29.414053 C 30.950762,29.333374 31.137553,29.293034 31.391871,29.293033 L 31.669428,29.293033 L 31.669428,29.256201 C 31.669427,29.181661 31.640049,29.127289 31.581294,29.093087 C 31.522537,29.05801 31.430895,29.040471 31.306368,29.04047 C 31.205517,29.040471 31.111683,29.050556 31.024865,29.070725 C 30.938046,29.090896 30.857366,29.121151 30.782825,29.16149 L 30.782825,28.802376 C 30.883675,28.777823 30.984963,28.759407 31.08669,28.747128 C 31.188417,28.733975 31.290144,28.727398 31.391871,28.727396 C 31.657588,28.727398 31.849203,28.780015 31.966716,28.885248 C 32.085104,28.989607 32.144298,29.159737 32.1443,29.395637 M 33.099305,28.344605 L 33.099305,28.762913 L 33.584701,28.762913 L 33.584701,29.099664 L 33.099305,29.099664 L 33.099305,29.724496 C 33.099304,29.792899 33.112897,29.839377 33.140084,29.863932 C 33.167269,29.88761 33.221201,29.899449 33.301882,29.899448 L 33.543922,29.899448 L 33.543922,30.2362 L 33.140084,30.2362 C 32.954168,30.2362 32.822187,30.197614 32.744138,30.120441 C 32.666965,30.042392 32.628379,29.910411 32.62838,29.724496 L 32.62838,29.099664 L 32.394232,29.099664 L 32.394232,28.762913 L 32.62838,28.762913 L 32.62838,28.344605 L 33.099305,28.344605 M 33.858311,29.66267 L 33.858311,28.762913 L 34.331867,28.762913 L 34.331867,28.910242 C 34.331866,28.990046 34.331428,29.090457 34.330552,29.211476 C 34.329674,29.33162 34.329235,29.411861 34.329236,29.452201 C 34.329235,29.57059 34.332305,29.656094 34.338444,29.70871 C 34.344582,29.760451 34.355106,29.79816 34.370015,29.821838 C 34.389307,29.852532 34.4143,29.876209 34.444994,29.892871 C 34.476564,29.909534 34.512519,29.917865 34.55286,29.917864 C 34.651078,29.917865 34.72825,29.880156 34.784376,29.804737 C 34.840501,29.729319 34.868563,29.624523 34.868564,29.490348 L 34.868564,28.762913 L 35.33949,28.762913 L 35.33949,30.2362 L 34.868564,30.2362 L 34.868564,30.023099 C 34.79753,30.109041 34.722112,30.17262 34.64231,30.213837 C 34.563383,30.254177 34.476125,30.274347 34.380538,30.274347 C 34.210408,30.274347 34.080619,30.222168 33.991169,30.117811 C 33.902597,30.013453 33.85831,29.86174 33.858311,29.66267 M 36.889072,29.16412 C 36.847854,29.144828 36.806637,29.130797 36.765422,29.122027 C 36.72508,29.112381 36.684302,29.107558 36.643086,29.107557 C 36.522065,29.107558 36.428669,29.146582 36.362899,29.22463 C 36.298003,29.301804 36.265556,29.412738 36.265556,29.557435 L 36.265556,30.2362 L 35.794631,30.2362 L 35.794631,28.762913 L 36.265556,28.762913 L 36.265556,29.004953 C 36.326066,28.908489 36.395345,28.838333 36.473395,28.794483 C 36.55232,28.74976 36.646593,28.727398 36.756214,28.727396 C 36.771998,28.727398 36.789098,28.728275 36.807515,28.730027 C 36.82593,28.730905 36.852677,28.733536 36.887757,28.73792 L 36.889072,29.16412 M 37.786199,29.573221 C 37.687979,29.573221 37.613876,29.589883 37.56389,29.623207 C 37.51478,29.656532 37.490225,29.705642 37.490226,29.770536 C 37.490225,29.830169 37.509957,29.877086 37.54942,29.911287 C 37.58976,29.944612 37.645446,29.961274 37.716481,29.961274 C 37.805052,29.961274 37.879594,29.929704 37.940105,29.866563 C 38.000613,29.802545 38.030868,29.722742 38.03087,29.627153 L 38.03087,29.573221 L 37.786199,29.573221 M 38.505741,29.395637 L 38.505741,30.2362 L 38.03087,30.2362 L 38.03087,30.017837 C 37.967728,30.107287 37.896694,30.17262 37.817769,30.213837 C 37.738842,30.254177 37.642816,30.274347 37.529689,30.274347 C 37.377098,30.274347 37.253009,30.230061 37.157421,30.141488 C 37.062709,30.052039 37.015354,29.936281 37.015354,29.794214 C 37.015354,29.621454 37.074548,29.494734 37.192938,29.414053 C 37.312203,29.333374 37.498995,29.293034 37.753313,29.293033 L 38.03087,29.293033 L 38.03087,29.256201 C 38.030868,29.181661 38.00149,29.127289 37.942735,29.093087 C 37.883978,29.05801 37.792336,29.040471 37.66781,29.04047 C 37.566959,29.040471 37.473125,29.050556 37.386307,29.070725 C 37.299487,29.090896 37.218808,29.121151 37.144267,29.16149 L 37.144267,28.802376 C 37.245116,28.777823 37.346405,28.759407 37.448132,28.747128 C 37.549858,28.733975 37.651585,28.727398 37.753313,28.727396 C 38.019029,28.727398 38.210644,28.780015 38.328158,28.885248 C 38.446545,28.989607 38.50574,29.159737 38.505741,29.395637 M 39.460747,28.344605 L 39.460747,28.762913 L 39.946142,28.762913 L 39.946142,29.099664 L 39.460747,29.099664 L 39.460747,29.724496 C 39.460746,29.792899 39.474339,29.839377 39.501525,29.863932 C 39.52871,29.88761 39.582643,29.899449 39.663324,29.899448 L 39.905364,29.899448 L 39.905364,30.2362 L 39.501525,30.2362 C 39.31561,30.2362 39.183628,30.197614 39.10558,30.120441 C 39.028407,30.042392 38.989821,29.910411 38.989821,29.724496 L 38.989821,29.099664 L 38.755674,29.099664 L 38.755674,28.762913 L 38.989821,28.762913 L 38.989821,28.344605 L 39.460747,28.344605 M 40.235537,28.762913 L 40.706463,28.762913 L 40.706463,30.2362 L 40.235537,30.2362 L 40.235537,28.762913 M 40.235537,28.189383 L 40.706463,28.189383 L 40.706463,28.57349 L 40.235537,28.57349 L 40.235537,28.189383 M 41.862729,29.064147 C 41.758371,29.064149 41.678568,29.101858 41.62332,29.177275 C 41.568948,29.251817 41.541763,29.359683 41.541763,29.500872 C 41.541763,29.642062 41.568948,29.750366 41.62332,29.825784 C 41.678568,29.900326 41.758371,29.937596 41.862729,29.937596 C 41.965332,29.937596 42.04382,29.900326 42.098192,29.825784 C 42.152562,29.750366 42.179748,29.642062 42.179749,29.500872 C 42.179748,29.359683 42.152562,29.251817 42.098192,29.177275 C 42.04382,29.101858 41.965332,29.064149 41.862729,29.064147 M 41.862729,28.727396 C 42.116169,28.727398 42.313922,28.7958 42.45599,28.932604 C 42.598933,29.06941 42.670405,29.258833 42.670406,29.500872 C 42.670405,29.742912 42.598933,29.932335 42.45599,30.069139 C 42.313922,30.205945 42.116169,30.274347 41.862729,30.274347 C 41.608411,30.274347 41.409343,30.205945 41.265522,30.069139 C 41.122578,29.932335 41.051106,29.742912 41.051106,29.500872 C 41.051106,29.258833 41.122578,29.06941 41.265522,28.932604 C 41.409343,28.7958 41.608411,28.727398 41.862729,28.727396 M 44.494915,29.339073 L 44.494915,30.2362 L 44.021359,30.2362 L 44.021359,30.090186 L 44.021359,29.549543 C 44.021357,29.422385 44.018288,29.334689 44.01215,29.286456 C 44.006888,29.238224 43.997241,29.202708 43.983211,29.179906 C 43.964794,29.149213 43.9398,29.125535 43.908231,29.108872 C 43.87666,29.091334 43.840704,29.082565 43.800365,29.082563 C 43.702145,29.082565 43.624973,29.120712 43.568849,29.197006 C 43.512723,29.272426 43.48466,29.377222 43.484661,29.511395 L 43.484661,30.2362 L 43.013736,30.2362 L 43.013736,28.762913 L 43.484661,28.762913 L 43.484661,28.978644 C 43.555694,28.892704 43.631112,28.829563 43.710916,28.789222 C 43.790718,28.748006 43.878852,28.727398 43.975318,28.727396 C 44.145446,28.727398 44.274359,28.779577 44.362056,28.883933 C 44.450627,28.988292 44.494913,29.140005 44.494915,29.339073 M 26.134588,34.007712 C 26.267007,34.041914 26.367418,34.101547 26.435822,34.186611 C 26.5051,34.270799 26.53974,34.378226 26.539742,34.508892 C 26.53974,34.703577 26.465199,34.851782 26.316118,34.953509 C 26.167034,35.054359 25.949549,35.104784 25.663662,35.104784 C 25.562811,35.104784 25.461523,35.096453 25.359797,35.079791 C 25.258946,35.064005 25.158973,35.039889 25.059878,35.007442 L 25.059878,34.616758 C 25.154589,34.664114 25.248423,34.700069 25.341381,34.724623 C 25.435214,34.748301 25.527295,34.76014 25.617622,34.76014 C 25.751795,34.76014 25.854399,34.736901 25.925434,34.690422 C 25.997343,34.643944 26.033298,34.577295 26.033299,34.490476 C 26.033298,34.401027 25.996466,34.333502 25.922803,34.287899 C 25.850014,34.241421 25.742149,34.218182 25.599206,34.218181 L 25.396629,34.218181 L 25.396629,33.891953 L 25.609729,33.891953 C 25.736887,33.891954 25.831598,33.872223 25.893863,33.832759 C 25.956126,33.79242 25.987258,33.731472 25.987259,33.649913 C 25.987258,33.574497 25.957003,33.516179 25.896494,33.474961 C 25.835983,33.433745 25.75048,33.413137 25.639984,33.413135 C 25.558427,33.413137 25.475993,33.422345 25.392683,33.440759 C 25.309371,33.459177 25.226499,33.486363 25.144065,33.522316 L 25.144065,33.151364 C 25.244038,33.123303 25.343134,33.102256 25.441354,33.088223 C 25.539572,33.074193 25.636037,33.067178 25.730749,33.067176 C 25.985943,33.067178 26.17668,33.109272 26.302963,33.193458 C 26.43012,33.27677 26.4937,33.402613 26.493701,33.570987 C 26.4937,33.68587 26.463445,33.780143 26.402936,33.853806 C 26.342425,33.926594 26.252975,33.977896 26.134588,34.007712 M 26.986989,34.853536 C 27.015929,34.824597 27.05013,34.810127 27.089593,34.810127 C 27.129056,34.810127 27.163257,34.824597 27.192197,34.853536 C 27.221136,34.882476 27.235606,34.916677 27.235606,34.95614 C 27.235606,34.99648 27.221136,35.031558 27.192197,35.061375 C 27.163257,35.090314 27.129056,35.104784 27.089593,35.104784 C 27.051007,35.104784 27.016806,35.089876 26.986989,35.060059 C 26.95805,35.029366 26.94358,34.994726 26.94358,34.95614 C 26.94358,34.916677 26.95805,34.882476 26.986989,34.853536 M 29.007497,34.853536 C 29.036436,34.824597 29.070637,34.810127 29.110101,34.810127 C 29.149563,34.810127 29.183765,34.824597 29.212705,34.853536 C 29.241644,34.882476 29.256113,34.916677 29.256114,34.95614 C 29.256113,34.99648 29.241644,35.031558 29.212705,35.061375 C 29.183765,35.090314 29.149563,35.104784 29.110101,35.104784 C 29.071514,35.104784 29.037313,35.089876 29.007497,35.060059 C 28.978557,35.029366 28.964087,34.994726 28.964087,34.95614 C 28.964087,34.916677 28.978557,34.882476 29.007497,34.853536 M 29.680999,34.853536 C 29.709939,34.824597 29.74414,34.810127 29.783603,34.810127 C 29.823066,34.810127 29.857267,34.824597 29.886207,34.853536 C 29.915146,34.882476 29.929616,34.916677 29.929616,34.95614 C 29.929616,34.99648 29.915146,35.031558 29.886207,35.061375 C 29.857267,35.090314 29.823066,35.104784 29.783603,35.104784 C 29.745017,35.104784 29.710815,35.089876 29.680999,35.060059 C 29.652059,35.029366 29.63759,34.994726 29.63759,34.95614 C 29.63759,34.916677 29.652059,34.882476 29.680999,34.853536 M 30.354502,34.853536 C 30.383441,34.824597 30.417642,34.810127 30.457106,34.810127 C 30.496568,34.810127 30.53077,34.824597 30.559709,34.853536 C 30.588649,34.882476 30.603118,34.916677 30.603119,34.95614 C 30.603118,34.99648 30.588649,35.031558 30.559709,35.061375 C 30.53077,35.090314 30.496568,35.104784 30.457106,35.104784 C 30.418519,35.104784 30.384318,35.089876 30.354502,35.060059 C 30.325562,35.029366 30.311092,34.994726 30.311092,34.95614 C 30.311092,34.916677 30.325562,34.882476 30.354502,34.853536 M 31.028005,34.853536 C 31.056944,34.824597 31.091145,34.810127 31.130608,34.810127 C 31.170071,34.810127 31.204272,34.824597 31.233212,34.853536 C 31.262151,34.882476 31.276621,34.916677 31.276622,34.95614 C 31.276621,34.99648 31.262151,35.031558 31.233212,35.061375 C 31.204272,35.090314 31.170071,35.104784 31.130608,35.104784 C 31.092022,35.104784 31.057821,35.089876 31.028005,35.060059 C 30.999065,35.029366 30.984595,34.994726 30.984595,34.95614 C 30.984595,34.916677 30.999065,34.882476 31.028005,34.853536"
         style="font-size:2.69401002px;font-style:normal;font-weight:bold;fill:#4d4d4d;fill-opacity:1;stroke:none;stroke-width:1px;stroke-linecap:butt;stroke-linejoin:miter;stroke-opacity:1;font-family:OpenSymbol" />
      <path
         transform="matrix(1.2452316,0,0,0.5432099,-7.4305178,17.168982)"
         d="M 44.0625 49.96875 A 11.46875 2.53125 0 1 1  21.125,49.96875 A 11.46875 2.53125 0 1 1  44.0625 49.96875 z"
         sodipodi:ry="2.53125"
         sodipodi:rx="11.46875"
         sodipodi:cy="49.96875"
         sodipodi:cx="32.59375"
         id="path5176"
         style="opacity:0.20388351;fill:url(#radialGradient5565);fill-opacity:1;fill-rule:evenodd;stroke:none;stroke-width:1;stroke-linecap:butt;stroke-linejoin:miter;stroke-miterlimit:4;stroke-dasharray:none;stroke-dashoffset:0;stroke-opacity:1"
         sodipodi:type="arc" />
    </g>
    <path
       style="fill:url(#linearGradient6073);fill-opacity:1;fill-rule:evenodd;stroke:#3232cb;stroke-width:1;stroke-linecap:butt;stroke-linejoin:round;stroke-miterlimit:4;stroke-dasharray:none;stroke-opacity:1"
       d="M 25.201709,24.080005 L 21.818929,21.009205 L 23.990389,18.691463 L 14.657749,18.725862 L 14.692539,28.157038 L 17.003579,25.646433 L 20.527099,28.838942 L 25.201709,24.080005 z "
       id="path6755"
       sodipodi:nodetypes="cccccccc" />
  </g>
</svg>
