<?xml version="1.0" encoding="UTF-8" standalone="no"?>
<!-- Created with Inkscape (http://www.inkscape.org/) -->
<svg
   xmlns:dc="http://purl.org/dc/elements/1.1/"
   xmlns:cc="http://creativecommons.org/ns#"
   xmlns:rdf="http://www.w3.org/1999/02/22-rdf-syntax-ns#"
   xmlns:svg="http://www.w3.org/2000/svg"
   xmlns="http://www.w3.org/2000/svg"
   xmlns:xlink="http://www.w3.org/1999/xlink"
   xmlns:sodipodi="http://sodipodi.sourceforge.net/DTD/sodipodi-0.dtd"
   xmlns:inkscape="http://www.inkscape.org/namespaces/inkscape"
   inkscape:export-ydpi="90.000000"
   inkscape:export-xdpi="90.000000"
   inkscape:export-filename="/home/patrick/Desktop/desktop.png"
   width="48px"
   height="48px"
   id="svg11300"
   sodipodi:version="0.32"
   inkscape:version="0.45+devel"
   sodipodi:docbase="/home/patrick/Projects/Beryl/svn/beryl/trunk/beryl-settings/images"
   sodipodi:docname="plugin-debug.svg"
   inkscape:output_extension="org.inkscape.output.svg.inkscape">
  <defs
     id="defs3">
    <linearGradient
       id="linearGradient259">
      <stop
         style="stop-color:#fafafa;stop-opacity:1.0000000;"
         offset="0.0000000"
         id="stop260" />
      <stop
         style="stop-color:#bbbbbb;stop-opacity:1.0000000;"
         offset="1.0000000"
         id="stop261" />
    </linearGradient>
    <linearGradient
       id="linearGradient269">
      <stop
         style="stop-color:#a3a3a3;stop-opacity:1.0000000;"
         offset="0.0000000"
         id="stop270" />
      <stop
         style="stop-color:#8a8a8a;stop-opacity:1;"
         offset="1"
         id="stop271" />
    </linearGradient>
    <linearGradient
       id="linearGradient15662">
      <stop
         style="stop-color:#ffffff;stop-opacity:1.0000000;"
         offset="0.0000000"
         id="stop15664" />
      <stop
         style="stop-color:#f8f8f8;stop-opacity:1.0000000;"
         offset="1.0000000"
         id="stop15666" />
    </linearGradient>
    <linearGradient
       id="linearGradient2251"
       inkscape:collect="always">
      <stop
         id="stop2253"
         offset="0"
         style="stop-color:#ffffff;stop-opacity:1;" />
      <stop
         id="stop2255"
         offset="1"
         style="stop-color:#ffffff;stop-opacity:0;" />
    </linearGradient>
    <linearGradient
       id="linearGradient4790"
       inkscape:collect="always">
      <stop
         id="stop4792"
         offset="0"
         style="stop-color:#000000;stop-opacity:1;" />
      <stop
         id="stop4794"
         offset="1"
         style="stop-color:#000000;stop-opacity:0;" />
    </linearGradient>
    <linearGradient
       id="linearGradient3688"
       inkscape:collect="always">
      <stop
         id="stop3690"
         offset="0"
         style="stop-color:black;stop-opacity:1;" />
      <stop
         id="stop3692"
         offset="1"
         style="stop-color:black;stop-opacity:0;" />
    </linearGradient>
    <linearGradient
       id="linearGradient3702">
      <stop
         id="stop3704"
         offset="0"
         style="stop-color:black;stop-opacity:0;" />
      <stop
         style="stop-color:black;stop-opacity:1;"
         offset="0.5"
         id="stop3710" />
      <stop
         id="stop3706"
         offset="1"
         style="stop-color:black;stop-opacity:0;" />
    </linearGradient>
    <radialGradient
       inkscape:collect="always"
       xlink:href="#linearGradient3688"
       id="radialGradient2401"
       gradientUnits="userSpaceOnUse"
       gradientTransform="matrix(2.003784,0,0,1.4,27.98813,-17.4)"
       cx="4.9929786"
       cy="43.5"
       fx="4.9929786"
       fy="43.5"
       r="2.5" />
    <radialGradient
       inkscape:collect="always"
       xlink:href="#linearGradient3688"
       id="radialGradient2403"
       gradientUnits="userSpaceOnUse"
       gradientTransform="matrix(2.003784,0,0,1.4,-20.01187,-104.4)"
       cx="4.9929786"
       cy="43.5"
       fx="4.9929786"
       fy="43.5"
       r="2.5" />
    <linearGradient
       inkscape:collect="always"
       xlink:href="#linearGradient3702"
       id="linearGradient2405"
       gradientUnits="userSpaceOnUse"
       x1="25.058096"
       y1="47.027729"
       x2="25.058096"
       y2="39.999443" />
    <radialGradient
       inkscape:collect="always"
       xlink:href="#linearGradient259"
       id="radialGradient2407"
       gradientUnits="userSpaceOnUse"
       gradientTransform="matrix(0.961084,0,0,1.044459,-4.060961e-3,-0.142424)"
       cx="33.966679"
       cy="35.736916"
       fx="33.966679"
       fy="35.736916"
       r="86.708450" />
    <radialGradient
       inkscape:collect="always"
       xlink:href="#linearGradient269"
       id="radialGradient2409"
       gradientUnits="userSpaceOnUse"
       gradientTransform="matrix(0.968868,0,0,1.036068,3.351554,0.506089)"
       cx="8.8244190"
       cy="3.7561285"
       fx="8.8244190"
       fy="3.7561285"
       r="37.751713" />
    <radialGradient
       inkscape:collect="always"
       xlink:href="#linearGradient15662"
       id="radialGradient2411"
       gradientUnits="userSpaceOnUse"
       gradientTransform="matrix(0.968273,0,0,1.032767,3.353553,0.646447)"
       cx="8.1435566"
       cy="7.2678967"
       fx="8.1435566"
       fy="7.2678967"
       r="38.158695" />
    <radialGradient
       inkscape:collect="always"
       xlink:href="#linearGradient4790"
       id="radialGradient2413"
       gradientUnits="userSpaceOnUse"
       gradientTransform="matrix(1.744653,0,0,1.283833,-26.58256,-3.478359)"
       cx="37.030354"
       cy="12.98915"
       fx="37.030354"
       fy="12.98915"
       r="4.2929165" />
    <radialGradient
       inkscape:collect="always"
       xlink:href="#linearGradient259"
       id="radialGradient2415"
       gradientUnits="userSpaceOnUse"
       gradientTransform="matrix(0.148355,1.009137e-2,-1.104438e-2,0.162365,25.06011,12.81706)"
       cx="30.653816"
       cy="14.9373"
       fx="30.653816"
       fy="14.9373"
       r="86.708450" />
    <radialGradient
       inkscape:collect="always"
       xlink:href="#linearGradient269"
       id="radialGradient2417"
       gradientUnits="userSpaceOnUse"
       gradientTransform="matrix(0.331735,0,0,0.353831,20.10526,9.5823)"
       cx="31.863327"
       cy="2.3667307"
       fx="31.863327"
       fy="2.3667307"
       r="37.751713" />
    <linearGradient
       inkscape:collect="always"
       xlink:href="#linearGradient2251"
       id="linearGradient2419"
       gradientUnits="userSpaceOnUse"
       gradientTransform="matrix(-2.48131e-2,-0.756771,0.756567,-2.481981e-2,8.221918,36.1682)"
       x1="33.396004"
       y1="36.921333"
       x2="34.170048"
       y2="38.070381" />
    <linearGradient
       id="linearGradient8440">
      <stop
         id="stop8442"
         offset="0"
         style="stop-color:#edeeec;stop-opacity:1;" />
      <stop
         id="stop8444"
         offset="1"
         style="stop-color:#babdb6;stop-opacity:1;" />
    </linearGradient>
    <radialGradient
       inkscape:collect="always"
       xlink:href="#linearGradient8440"
       id="radialGradient3447"
       gradientUnits="userSpaceOnUse"
       gradientTransform="matrix(0.5470598,0.4096488,-0.5365859,0.7125707,2.7014648,-72.668)"
       cx="56.704376"
       cy="10.241054"
       fx="56.704376"
       fy="10.241054"
       r="14.75" />
    <radialGradient
       r="6.7783755"
       fy="24.053228"
       fx="67.607079"
       cy="24.053228"
       cx="67.607079"
       gradientTransform="matrix(1.5346299,1.3039754e-2,-2.0388098e-2,2.399446,-35.654368,-32.319123)"
       gradientUnits="userSpaceOnUse"
       id="radialGradient7964"
       xlink:href="#linearGradient11310"
       inkscape:collect="always" />
    <radialGradient
       r="9.5"
       fy="5.9999995"
       fx="10.5"
       cy="5.9999995"
       cx="10.5"
       gradientTransform="matrix(1,0,0,0.6052632,0,2.3684209)"
       gradientUnits="userSpaceOnUse"
       id="radialGradient7962"
       xlink:href="#linearGradient30743"
       inkscape:collect="always" />
    <linearGradient
       y2="38.688892"
       x2="68.028702"
       y1="10.995611"
       x1="67.484505"
       gradientTransform="matrix(0.9180839,-1.1651694e-2,1.1564075e-2,0.9209222,-38.780589,12.585406)"
       gradientUnits="userSpaceOnUse"
       id="linearGradient7951"
       xlink:href="#linearGradient10329"
       inkscape:collect="always" />
    <radialGradient
       r="2.5234375"
       fy="8.6610498"
       fx="67.976562"
       cy="8.6610498"
       cx="67.976562"
       gradientTransform="matrix(1.1392861,1.3970366e-2,-8.0710682e-3,0.6592366,-53.833734,13.100931)"
       gradientUnits="userSpaceOnUse"
       id="radialGradient7948"
       xlink:href="#linearGradient13263"
       inkscape:collect="always" />
    <linearGradient
       inkscape:collect="always"
       id="linearGradient13263">
      <stop
         style="stop-color:#fed491;stop-opacity:1;"
         offset="0"
         id="stop13265" />
      <stop
         style="stop-color:#fed491;stop-opacity:0;"
         offset="1"
         id="stop13267" />
    </linearGradient>
    <linearGradient
       id="linearGradient11310">
      <stop
         style="stop-color:#ffffff;stop-opacity:1"
         offset="0"
         id="stop11312" />
      <stop
         style="stop-color:#ffffff;stop-opacity:0;"
         offset="1"
         id="stop11314" />
    </linearGradient>
    <linearGradient
       id="linearGradient10329">
      <stop
         style="stop-color:#ffffff;stop-opacity:0;"
         offset="0"
         id="stop10331" />
      <stop
         id="stop10337"
         offset="0.65188807"
         style="stop-color:#ffffff;stop-opacity:1;" />
      <stop
         style="stop-color:#ffffff;stop-opacity:0;"
         offset="1"
         id="stop10333" />
    </linearGradient>
    <linearGradient
       inkscape:collect="always"
       id="linearGradient30743">
      <stop
         style="stop-color:#000000;stop-opacity:1;"
         offset="0"
         id="stop30745" />
      <stop
         style="stop-color:#000000;stop-opacity:0;"
         offset="1"
         id="stop30747" />
    </linearGradient>
    <radialGradient
       inkscape:collect="always"
       xlink:href="#linearGradient8440"
       id="radialGradient8001"
       gradientUnits="userSpaceOnUse"
       gradientTransform="matrix(0.5470598,0.4096488,-0.5365859,0.7125707,-9.2985352,-11.917998)"
       cx="56.704376"
       cy="10.241054"
       fx="56.704376"
       fy="10.241054"
       r="14.75" />
  </defs>
  <sodipodi:namedview
     stroke="#ef2929"
     fill="#eeeeec"
     id="base"
     pagecolor="#ffffff"
     bordercolor="#666666"
     borderopacity="0.25490196"
     inkscape:pageopacity="0.0"
     inkscape:pageshadow="2"
     inkscape:zoom="0.99999995"
     inkscape:cx="47.56299"
     inkscape:cy="18.815495"
     inkscape:current-layer="layer1"
     showgrid="false"
     inkscape:grid-bbox="true"
     inkscape:document-units="px"
     inkscape:showpageshadow="false"
     inkscape:window-width="906"
     inkscape:window-height="680"
     inkscape:window-x="206"
     inkscape:window-y="49"
     showguides="true"
     inkscape:guide-bbox="true" />
  <metadata
     id="metadata4">
    <rdf:RDF>
      <cc:Work
         rdf:about="">
        <dc:format>image/svg+xml</dc:format>
        <dc:type
           rdf:resource="http://purl.org/dc/dcmitype/StillImage" />
        <dc:creator>
          <cc:Agent>
            <dc:title>Patrick Niklaus</dc:title>
          </cc:Agent>
        </dc:creator>
        <dc:source />
        <cc:license
           rdf:resource="http://creativecommons.org/licenses/GPL/2.0/" />
        <dc:title>SchemeP</dc:title>
        <dc:subject>
          <rdf:Bag />
        </dc:subject>
      </cc:Work>
      <cc:License
         rdf:about="http://creativecommons.org/licenses/GPL/2.0/">
        <cc:permits
           rdf:resource="http://web.resource.org/cc/Reproduction" />
        <cc:permits
           rdf:resource="http://web.resource.org/cc/Distribution" />
        <cc:requires
           rdf:resource="http://web.resource.org/cc/Notice" />
        <cc:permits
           rdf:resource="http://web.resource.org/cc/DerivativeWorks" />
        <cc:requires
           rdf:resource="http://web.resource.org/cc/ShareAlike" />
        <cc:requires
           rdf:resource="http://web.resource.org/cc/SourceCode" />
      </cc:License>
    </rdf:RDF>
  </metadata>
  <g
     id="layer1"
     inkscape:label="Layer 1"
     inkscape:groupmode="layer">
    <g
       id="g2385"
       transform="translate(-1.0944649,-2.067845)">
      <g
         inkscape:label="Shadow"
         id="layer6">
        <g
           transform="matrix(1.052632,0,0,1.285713,-1.263158,-13.42854)"
           style="opacity:0.4"
           id="g3712">
          <rect
             style="opacity:1;fill:url(#radialGradient2401);fill-opacity:1;stroke:none;stroke-width:1;stroke-linecap:round;stroke-linejoin:miter;stroke-miterlimit:4;stroke-dasharray:none;stroke-opacity:1"
             id="rect2801"
             width="5"
             height="7"
             x="38"
             y="40" />
          <rect
             style="opacity:1;fill:url(#radialGradient2403);fill-opacity:1;stroke:none;stroke-width:1;stroke-linecap:round;stroke-linejoin:miter;stroke-miterlimit:4;stroke-dasharray:none;stroke-opacity:1"
             id="rect3696"
             width="5"
             height="7"
             x="-10"
             y="-47"
             transform="scale(-1,-1)" />
          <rect
             style="opacity:1;fill:url(#linearGradient2405);fill-opacity:1;stroke:none;stroke-width:1;stroke-linecap:round;stroke-linejoin:miter;stroke-miterlimit:4;stroke-dasharray:none;stroke-opacity:1"
             id="rect3700"
             width="28"
             height="7.0000005"
             x="10"
             y="40" />
        </g>
      </g>
      <g
         id="g2392"
         inkscape:label="Base"
         style="display:inline">
        <path
           sodipodi:nodetypes="ccccccccc"
           id="rect15391"
           d="M 7.7533083,3.5156762 L 36.217818,3.5000013 C 36.217818,3.5000013 41.500001,8.7962658 41.500001,9.4348733 L 41.500001,43.414232 C 41.500001,44.052839 40.98721,44.566952 40.350246,44.566952 L 7.7533083,44.566952 C 7.1163439,44.566952 6.603553,44.052839 6.603553,43.414232 L 6.603553,4.6683972 C 6.603553,4.0297898 7.1163439,3.5156762 7.7533083,3.5156762 z"
           style="color:#000000;fill:url(#radialGradient2407);fill-opacity:1;fill-rule:nonzero;stroke:url(#radialGradient2409);stroke-width:1.00000012;stroke-linecap:round;stroke-linejoin:round;marker:none;marker-start:none;marker-mid:none;marker-end:none;stroke-miterlimit:4;stroke-dashoffset:0;stroke-opacity:1;visibility:visible;display:block;overflow:visible" />
        <path
           sodipodi:nodetypes="ccccccccc"
           id="rect15660"
           d="M 7.8151023,4.5839462 L 36.691494,4.5839462 C 36.691494,4.5839462 40.44194,8.605373 40.44194,8.687946 L 40.44194,43.381282 C 40.44194,43.463855 40.375465,43.530331 40.292892,43.530331 L 7.8151023,43.530331 C 7.7325294,43.530331 7.6660538,43.463855 7.6660538,43.381282 L 7.6660538,4.7329948 C 7.6660538,4.6504219 7.7325294,4.5839462 7.8151023,4.5839462 z"
           style="color:#000000;fill:none;fill-opacity:1;fill-rule:nonzero;stroke:url(#radialGradient2411);stroke-width:1;stroke-linecap:round;stroke-linejoin:round;marker:none;marker-start:none;marker-mid:none;marker-end:none;stroke-miterlimit:4;stroke-dashoffset:0;stroke-opacity:1;visibility:visible;display:block;overflow:visible" />
      </g>
      <g
         style="display:inline"
         inkscape:label="Text"
         id="layer5">
        <g
           transform="matrix(0.589097,0,0,0.577622,17.11331,1.395056)"
           id="g1918">
          <path
             inkscape:r_cy="true"
             inkscape:r_cx="true"
             style="opacity:0.35714285;color:#000000;fill:url(#radialGradient2413);fill-opacity:1;fill-rule:evenodd;stroke:none;stroke-width:1.00000024;stroke-linecap:butt;stroke-linejoin:miter;marker:none;marker-start:none;marker-mid:none;marker-end:none;stroke-miterlimit:4;stroke-dasharray:none;stroke-dashoffset:0;stroke-opacity:1;visibility:visible;display:inline;overflow:visible"
             d="M 40.985189,13.861445 C 40.256827,12.514817 34.882221,10.130934 32.084635,9.3314083 C 32.254143,10.904354 31.961856,15.649439 31.961856,15.649439 C 34.024356,14.274439 40.204485,13.699331 40.985189,13.861445 z"
             id="path5348"
             sodipodi:nodetypes="cccc" />
          <path
             style="opacity:1;color:#000000;fill:url(#radialGradient2415);fill-opacity:1;fill-rule:nonzero;stroke:url(#radialGradient2417);stroke-width:1.71429098;stroke-linecap:butt;stroke-linejoin:round;marker:none;marker-start:none;marker-mid:none;marker-end:none;stroke-miterlimit:4;stroke-dasharray:none;stroke-dashoffset:0;stroke-opacity:1;visibility:visible;display:block;overflow:visible"
             d="M 41.410559,13.739267 C 41.423724,12.324125 35.058025,3.5320142 31.175441,3.6354934 C 32.148479,3.8684884 32.634036,9.5059668 31.244316,12.318467 C 33.994316,12.318467 40.446694,11.881093 41.410559,13.739267 z"
             id="path2210"
             sodipodi:nodetypes="cccc"
             inkscape:r_cx="true"
             inkscape:r_cy="true" />
          <path
             sodipodi:nodetypes="cccc"
             id="path2247"
             d="M 38.373065,10.820521 C 37.821714,9.8008851 35.225165,6.9819727 33.769819,6.0453244 C 33.950691,7.1249452 33.99069,8.6442222 33.524667,10.584399 C 33.524667,10.584399 37.782093,10.697772 38.373065,10.820521 z"
             style="opacity:1;color:#000000;fill:none;fill-opacity:1;fill-rule:evenodd;stroke:url(#linearGradient2419);stroke-width:1.71429169;stroke-linecap:butt;stroke-linejoin:miter;marker:none;marker-start:none;marker-mid:none;marker-end:none;stroke-miterlimit:4;stroke-dasharray:none;stroke-dashoffset:0;stroke-opacity:1;visibility:visible;display:inline;overflow:visible"
             inkscape:r_cx="true"
             inkscape:r_cy="true" />
        </g>
      </g>
    </g>
    <path
       style="fill:url(#radialGradient8001);fill-opacity:1;fill-rule:evenodd;stroke:#555753;stroke-width:1;stroke-linecap:butt;stroke-linejoin:miter;stroke-miterlimit:4;stroke-dasharray:none;stroke-dashoffset:0;stroke-opacity:1"
       d="M 17.558899,11.175083 C 17.298073,11.235907 17.149497,11.486479 17.208453,11.737882 L 18.076772,15.440603 C 17.520312,15.74365 17.014741,16.127956 16.545251,16.533514 L 13.489226,14.755891 C 13.265753,14.625509 12.985029,14.702759 12.849759,14.933312 L 10.895941,18.2188 C 10.760671,18.449352 10.856679,18.752925 11.080151,18.883307 L 13.903785,20.517032 C 13.676845,21.229461 13.52636,21.9733 13.487778,22.736441 L 9.909199,23.570955 C 9.657089,23.629747 9.497758,23.873659 9.558752,24.133755 L 10.439655,27.890138 C 10.50065,28.150234 10.751926,28.298394 11.004035,28.239603 L 14.555707,27.411362 C 14.897088,28.026747 15.328584,28.567474 15.797065,29.074486 L 13.863861,32.326867 C 13.726443,32.556152 13.79263,32.838365 14.014873,32.970818 L 17.282675,34.925444 C 17.504919,35.057897 17.784724,34.977308 17.922142,34.748023 L 19.847316,31.58241 C 20.551971,31.785842 21.283774,31.926976 22.033463,31.949864 L 22.876612,35.545259 C 22.935569,35.796663 23.180165,35.955548 23.440992,35.894724 L 27.207918,35.016287 C 27.468745,34.955463 27.61732,34.704892 27.558364,34.453487 L 26.70263,30.804429 C 27.279934,30.473757 27.79044,30.0598 28.269087,29.618475 L 31.317083,31.482866 C 31.537647,31.618082 31.849464,31.553555 31.989748,31.326002 L 34.003673,28.054797 C 34.143957,27.827245 34.073226,27.546063 33.852661,27.410846 L 30.798373,25.519624 C 30.968824,24.903472 31.083556,24.257866 31.115861,23.606177 L 34.640628,22.78421 C 34.892737,22.725419 35.052068,22.481508 34.991073,22.221412 L 34.110171,18.465029 C 34.049176,18.204932 33.7979,18.056772 33.545792,18.115563 L 30.047931,18.931255 C 29.686288,18.274226 29.251847,17.676006 28.748207,17.140249 L 30.845667,14.104251 C 30.997813,13.884409 30.961559,13.594401 30.748468,13.44775 L 27.59806,11.267659 C 27.384969,11.121009 27.104448,11.198406 26.952301,11.418249 L 24.766092,14.559838 C 24.739758,14.597888 24.725011,14.644591 24.71054,14.685987 C 24.082119,14.506486 23.423783,14.383247 22.758522,14.348831 L 21.890204,10.646111 C 21.831248,10.394707 21.586653,10.235822 21.325825,10.296646 L 17.558899,11.175083 z M 21.527884,19.871058 C 23.630808,19.380662 25.385203,20.588185 25.79968,22.355617 C 26.214156,24.12305 25.178681,25.981162 23.075756,26.471559 C 20.97283,26.961956 19.218437,25.754433 18.80396,23.987 C 18.389482,22.219571 19.424959,20.361455 21.527884,19.871058 z"
       id="path2212" />
    <path
       sodipodi:type="inkscape:offset"
       inkscape:radius="-0.27853966"
       inkscape:original="M 60.375 3.125 L 60.375 7.15625 C 60.371912 7.5194123 60.130326 7.8372886 59.78125 7.9375 C 59.169905 8.1067881 58.559537 8.3768222 57.96875 8.6875 C 57.661279 8.8483892 57.285825 8.7983287 57.03125 8.5625 L 54.34375 6 L 51.71875 8.75 L 54.21875 11.09375 C 54.494859 11.351352 54.559366 11.764199 54.375 12.09375 C 53.971871 12.770414 53.623576 13.494497 53.40625 14.25 C 53.306039 14.599076 52.988162 14.840662 52.625 14.84375 L 48.75 14.84375 L 48.75 18.65625 L 52.59375 18.65625 C 52.956912 18.659338 53.274789 18.900924 53.375 19.25 C 53.567737 19.931631 53.884546 20.572703 54.25 21.21875 C 54.426168 21.533968 54.375412 21.927325 54.125 22.1875 L 51.34375 25.09375 L 54 27.6875 L 56.75 24.875 C 57.007602 24.598891 57.420449 24.534384 57.75 24.71875 C 58.429534 25.100218 59.139208 25.429005 59.875 25.625 C 60.224076 25.725211 60.465662 26.043088 60.46875 26.40625 L 60.46875 30.3125 L 64.28125 30.3125 L 64.28125 26.34375 C 64.280089 25.989098 64.507041 25.673886 64.84375 25.5625 C 65.481753 25.370962 66.108157 25.06554 66.71875 24.71875 C 67.033968 24.542582 67.427325 24.593338 67.6875 24.84375 L 70.375 27.5 L 73.0625 24.84375 L 70.375 22.15625 C 70.109267 21.890864 70.057769 21.478881 70.25 21.15625 C 70.571694 20.565843 70.8464 19.957479 71.03125 19.3125 C 71.131461 18.963424 71.449338 18.721838 71.8125 18.71875 L 75.625 18.71875 L 75.625 14.90625 L 71.84375 14.90625 C 71.480588 14.903162 71.162711 14.661576 71.0625 14.3125 C 70.851959 13.5584 70.53788 12.848827 70.15625 12.1875 C 69.971884 11.857949 70.036391 11.445102 70.3125 11.1875 L 73.21875 8.53125 L 70.71875 5.78125 L 67.71875 8.5 C 67.479528 8.8411617 67.022497 8.9486984 66.65625 8.75 C 66.056217 8.415393 65.434546 8.1264586 64.78125 7.9375 C 64.432174 7.8372886 64.190588 7.5194123 64.1875 7.15625 L 64.1875 3.125 L 60.375 3.125 z M 62.21875 12.125 C 65.060709 12.125 67.09375 14.292516 67.09375 16.78125 C 67.093749 19.269985 65.06071 21.437499 62.21875 21.4375 C 59.376789 21.437501 57.34375 19.269985 57.34375 16.78125 C 57.343748 14.292517 59.376789 12.125 62.21875 12.125 z "
       style="fill:none;fill-opacity:1;fill-rule:evenodd;stroke:#dddddd;stroke-width:1.1324991;stroke-linecap:butt;stroke-linejoin:miter;stroke-miterlimit:4;stroke-dasharray:none;stroke-dashoffset:0;stroke-opacity:1"
       id="path3195"
       d="M 60.65625,3.40625 L 60.65625,7.15625 C 60.652123,7.6415454 60.310222,8.0848371 59.84375,8.21875 C 59.25987,8.3804329 58.673436,8.6326601 58.09375,8.9375 C 57.682719,9.1525788 57.184069,9.0965091 56.84375,8.78125 C 56.843165,8.7708415 56.843165,8.7604085 56.84375,8.75 L 54.34375,6.375 L 52.125,8.71875 L 54.40625,10.875 C 54.775076,11.219105 54.871276,11.778536 54.625,12.21875 C 54.625585,12.229158 54.625585,12.239592 54.625,12.25 C 54.230484,12.912207 53.89604,13.587541 53.6875,14.3125 C 53.553587,14.778972 53.110295,15.120873 52.625,15.125 L 49.03125,15.125 L 49.03125,18.375 L 52.59375,18.375 C 53.079045,18.379127 53.522337,18.721028 53.65625,19.1875 C 53.839684,19.83623 54.13946,20.456389 54.5,21.09375 C 54.735426,21.514999 54.647144,22.027309 54.3125,22.375 L 51.71875,25.09375 L 54,27.3125 L 56.5625,24.6875 C 56.906605,24.318674 57.434786,24.222474 57.875,24.46875 C 58.541923,24.843139 59.23353,25.156232 59.9375,25.34375 C 60.403972,25.477663 60.745873,25.920955 60.75,26.40625 L 60.75,30.03125 L 64,30.03125 L 64,26.34375 C 63.998448,25.869729 64.299961,25.461376 64.75,25.3125 C 64.749415,25.302092 64.749415,25.291658 64.75,25.28125 C 65.357991,25.098722 65.993224,24.809822 66.59375,24.46875 C 67.014999,24.233324 67.527309,24.321606 67.875,24.65625 L 70.375,27.125 L 72.6875,24.84375 L 70.1875,22.34375 C 69.832514,21.989227 69.743203,21.430995 70,21 C 70.315106,20.421683 70.572506,19.869314 70.75,19.25 C 70.883913,18.783528 71.327205,18.441627 71.8125,18.4375 L 75.34375,18.4375 L 75.34375,15.1875 L 71.84375,15.1875 C 71.358455,15.183373 70.915163,14.841472 70.78125,14.375 C 70.577833,13.646416 70.277837,12.956423 69.90625,12.3125 C 69.659974,11.872286 69.756174,11.312855 70.125,10.96875 L 72.8125,8.5 L 70.6875,6.1875 L 67.90625,8.71875 C 67.577413,9.1300112 66.999535,9.2540569 66.53125,9 C 65.943121,8.6720313 65.34455,8.3997558 64.71875,8.21875 C 64.252278,8.0848371 63.910377,7.6415454 63.90625,7.15625 L 63.90625,3.40625 L 60.65625,3.40625 z M 62.21875,11.84375 C 65.202334,11.84375 67.375,14.140824 67.375,16.78125 C 67.374999,19.421677 65.202335,21.718749 62.21875,21.71875 C 59.235164,21.718751 57.0625,19.421677 57.0625,16.78125 C 57.062498,14.140825 59.235164,11.84375 62.21875,11.84375 z"
       transform="matrix(0.8610117,-0.2007856,0.2013492,0.8586018,-34.644411,21.259654)" />
    <g
       inkscape:label="Layer 1"
       id="g7961"
       transform="matrix(0.4649624,-0.7419282,0.7419282,0.4649624,-3.198132,32.946557)">
      <path
         transform="matrix(0.2622775,1.5313173,-1.5945194,0.5211981,30.106258,14.277063)"
         d="M 20,5.9999995 A 9.5,5.75 0 1 1 1,5.9999995 A 9.5,5.75 0 1 1 20,5.9999995 z"
         sodipodi:ry="5.75"
         sodipodi:rx="9.5"
         sodipodi:cy="5.9999995"
         sodipodi:cx="10.5"
         id="path4186"
         style="opacity:0.3;fill:url(#radialGradient7962);fill-opacity:1;fill-rule:evenodd;stroke:none;stroke-width:0.5;stroke-linecap:round;stroke-linejoin:round;stroke-miterlimit:4;stroke-dasharray:none;stroke-dashoffset:0;stroke-opacity:1"
         sodipodi:type="arc" />
      <path
         sodipodi:nodetypes="cccc"
         id="path3498"
         d="M 29.460606,30.774411 L 31.531611,27.65448 L 34.904672,31.275202 L 38.404254,32.044904"
         style="fill:none;fill-rule:evenodd;stroke:#8f5902;stroke-width:1.14209485;stroke-linecap:round;stroke-linejoin:miter;stroke-miterlimit:4;stroke-dasharray:none;stroke-opacity:1" />
      <path
         style="fill:none;fill-rule:evenodd;stroke:#8f5902;stroke-width:1.14209485;stroke-linecap:round;stroke-linejoin:miter;stroke-miterlimit:4;stroke-dasharray:none;stroke-opacity:1"
         d="M 18.016354,30.728893 L 15.867668,27.662516 L 12.586598,31.367687 L 9.1074584,32.225959"
         id="path3500"
         sodipodi:nodetypes="cccc" />
      <path
         sodipodi:nodetypes="cccc"
         id="path3506"
         d="M 29.706077,36.335062 L 32.703865,32.843008 L 36.312472,41.43223 L 39.840133,43.574999"
         style="fill:none;fill-rule:evenodd;stroke:#8f5902;stroke-width:1.14209485;stroke-linecap:round;stroke-linejoin:miter;stroke-miterlimit:4;stroke-dasharray:none;stroke-opacity:1" />
      <path
         style="fill:none;fill-rule:evenodd;stroke:#8f5902;stroke-width:1.14209485;stroke-linecap:round;stroke-linejoin:miter;stroke-miterlimit:4;stroke-dasharray:none;stroke-opacity:1"
         d="M 17.531414,36.570986 L 14.446895,33.156124 L 11.055113,41.834193 L 7.9252187,43.94632"
         id="path3508"
         sodipodi:nodetypes="cccc" />
      <path
         sodipodi:nodetypes="ccc"
         id="path3512"
         d="M 27.623733,26.686428 L 32.077871,22.681428 L 36.039298,21.450681"
         style="fill:none;fill-rule:evenodd;stroke:#8f5902;stroke-width:1.14209485;stroke-linecap:round;stroke-linejoin:miter;stroke-miterlimit:4;stroke-dasharray:none;stroke-opacity:1" />
      <path
         style="fill:none;fill-rule:evenodd;stroke:#8f5902;stroke-width:1.14209485;stroke-linecap:round;stroke-linejoin:miter;stroke-miterlimit:4;stroke-dasharray:none;stroke-opacity:1"
         d="M 19.346996,26.819408 L 14.793713,22.928724 L 10.802645,21.798906"
         id="path3514"
         sodipodi:nodetypes="ccc" />
      <path
         sodipodi:nodetypes="czzsszzzzzsszzz"
         id="path3496"
         d="M 23.588999,17.50897 C 21.701287,17.451516 21.349385,18.375332 20.476473,19.81643 C 19.581956,21.293195 22.271245,22.305129 21.968821,22.321255 C 21.666639,22.337369 19.077664,23.196112 18.33001,24.311008 C 17.383783,25.72201 19.511168,25.775962 19.327307,26.417066 C 18.868676,28.016251 18.255292,29.299783 17.929423,30.269462 C 16.775423,33.703403 17.581537,39.382444 18.225619,40.930646 C 18.880721,42.505333 20.232609,47.255293 23.420729,47.459066 C 26.608853,47.66284 28.214124,43.001996 28.703922,41.611781 C 29.219186,40.149284 30.478843,34.302902 29.296266,30.613674 C 28.737819,28.871513 28.320893,27.934421 27.606594,26.486884 C 27.40326,26.074823 28.858493,25.303926 28.814103,24.629259 C 28.753143,23.702765 25.482027,22.509327 25.216782,22.442858 C 24.954215,22.377061 27.345382,22.293725 26.5687,20.227582 C 25.765041,18.089679 25.476711,17.566425 23.588999,17.50897 z"
         style="fill:#c17d11;fill-opacity:1;fill-rule:evenodd;stroke:#8f5902;stroke-width:1.14209485;stroke-linecap:butt;stroke-linejoin:miter;stroke-miterlimit:4;stroke-dasharray:none;stroke-opacity:1" />
      <path
         transform="matrix(0.9180839,-1.1651693e-2,1.1564074e-2,0.9209222,-38.780587,12.585406)"
         d="M 67.8125,6.875 C 66.887982,6.8352359 66.507997,6.995703 66.15625,7.3125 C 65.804503,7.629297 65.465902,8.2045569 64.96875,9 C 64.813497,9.2484034 64.837767,9.3547298 64.90625,9.53125 C 64.974733,9.7077702 65.168633,9.9198163 65.40625,10.125 C 65.643867,10.330184 65.916163,10.523892 66.125,10.65625 C 66.229418,10.722429 66.304759,10.765466 66.40625,10.84375 C 66.431623,10.863321 66.460113,10.865764 66.5,10.90625 C 66.539887,10.946736 66.595297,10.995699 66.65625,11.1875 C 66.671488,11.23545 66.687467,11.373944 66.6875,11.375 C 66.687533,11.376056 66.656569,11.592828 66.65625,11.59375 C 66.655931,11.594672 66.531928,11.811713 66.53125,11.8125 C 66.530572,11.813287 66.453191,11.908185 66.40625,11.9375 C 66.218486,12.054759 66.124071,12.060007 66.0625,12.0625 C 66.150698,12.05893 66.061965,12.038491 65.96875,12.0625 C 65.875535,12.086509 65.746097,12.137869 65.59375,12.1875 C 65.289057,12.286761 64.873231,12.445467 64.46875,12.625 C 63.659788,12.984065 62.825206,13.526154 62.5625,13.90625 C 62.364402,14.192868 62.403932,14.241981 62.40625,14.25 C 62.408568,14.258019 62.463004,14.32499 62.625,14.4375 C 62.786996,14.55001 63.006381,14.693927 63.25,14.875 C 63.371809,14.965537 63.512698,15.056901 63.625,15.25 C 63.737302,15.443099 63.792771,15.754384 63.71875,16 C 63.180506,17.785993 62.470331,19.204183 62.125,20.1875 C 61.523478,21.900313 61.385647,24.327025 61.5,26.5 C 61.614353,28.672975 62.010985,30.641175 62.28125,31.3125 C 62.654512,32.239663 63.176196,33.916551 64,35.375 C 64.823804,36.833449 65.888281,37.953643 67.3125,38.0625 C 68.729503,38.170806 69.820409,37.202158 70.71875,35.875 C 71.617091,34.547842 72.222387,32.973858 72.5,32.21875 C 72.755094,31.524893 73.252169,29.547877 73.53125,27.3125 C 73.810331,25.077123 73.851001,22.53919 73.28125,20.6875 C 72.706384,18.819184 72.256333,17.858965 71.5,16.28125 C 71.389708,16.051178 71.40856,15.768806 71.46875,15.59375 C 71.52894,15.418694 71.633855,15.326784 71.71875,15.21875 C 71.88854,15.002682 72.069225,14.829303 72.25,14.65625 C 72.430775,14.483197 72.590393,14.284824 72.6875,14.15625 C 72.784607,14.027676 72.778266,13.975332 72.78125,14.03125 C 72.787417,14.146822 72.755477,13.941626 72.46875,13.71875 C 72.182023,13.495874 71.753885,13.253479 71.3125,13.03125 C 70.871115,12.809021 70.390932,12.614029 70.03125,12.46875 C 69.671568,12.323471 69.345764,12.202824 69.40625,12.21875 C 69.364914,12.207866 69.320993,12.218214 69.1875,12.125 C 69.154127,12.101696 69.06304,12.000614 69.0625,12 C 69.06196,11.999386 68.93772,11.781875 68.9375,11.78125 C 68.93728,11.780625 68.906157,11.500639 68.90625,11.5 C 68.906343,11.499361 68.999599,11.250655 69,11.25 C 69.000401,11.249345 69.06235,11.155096 69.09375,11.125 C 69.12515,11.094904 69.164813,11.047009 69.1875,11.03125 C 69.232873,10.999731 69.256502,11.011648 69.28125,11 C 69.330747,10.976703 69.35058,10.94541 69.375,10.9375 C 69.47268,10.905859 69.540868,10.898337 69.625,10.875 C 69.793264,10.828327 70.01294,10.76192 70.1875,10.65625 C 70.36206,10.55058 70.4701,10.440972 70.53125,10.28125 C 70.5924,10.121528 70.635433,9.8657528 70.46875,9.40625 C 70.049052,8.2492395 69.730556,7.6039354 69.4375,7.3125 C 69.144444,7.0210646 68.784388,6.9168017 67.8125,6.875 z"
         id="path11318"
         style="opacity:0.5;fill:url(#radialGradient7964);fill-opacity:1;fill-rule:evenodd;stroke:none;stroke-width:1px;stroke-linecap:butt;stroke-linejoin:miter;stroke-opacity:1"
         inkscape:original="M 67.84375 6.21875 C 65.788718 6.1303617 65.407854 7.1036834 64.4375 8.65625 C 63.443128 10.247241 66.360825 11.392908 66.03125 11.40625 C 65.701936 11.419581 62.860731 12.331115 62.03125 13.53125 C 60.981466 15.050132 63.302752 15.118991 63.09375 15.8125 C 62.572408 17.542408 61.899398 18.920463 61.53125 19.96875 C 60.227524 23.681061 61.007234 29.87275 61.6875 31.5625 C 62.379406 33.281157 63.780757 38.453585 67.25 38.71875 C 70.719244 38.983915 72.541323 33.940102 73.09375 32.4375 C 73.674898 30.856776 75.143687 24.52167 73.90625 20.5 C 73.321897 18.60085 72.851862 17.581426 72.09375 16 C 71.877947 15.549827 73.476618 14.733095 73.4375 14 C 73.38378 12.993271 69.850456 11.669569 69.5625 11.59375 C 69.277453 11.518696 71.880093 11.441403 71.0625 9.1875 C 70.216514 6.8553145 69.898779 6.3071384 67.84375 6.21875 z "
         inkscape:radius="-0.6433832"
         sodipodi:type="inkscape:offset" />
      <path
         id="path9358"
         d="M 23.349358,22.385147 L 23.576894,46.968614"
         style="opacity:0.57467532;fill:none;fill-rule:evenodd;stroke:url(#linearGradient7951);stroke-width:0.9265303px;stroke-linecap:butt;stroke-linejoin:miter;stroke-opacity:1" />
      <path
         sodipodi:nodetypes="csssc"
         id="path11322"
         d="M 25.864533,20.263273 C 25.879544,21.458688 24.594472,22.344601 23.580907,22.357465 C 22.567343,22.370329 21.244464,21.387989 21.229452,20.192574 C 21.214442,18.997159 22.512956,18.039117 23.526521,18.026253 C 24.540085,18.013389 25.849523,19.067859 25.864533,20.263273 z"
         style="opacity:0.25899999;fill:url(#radialGradient7948);fill-opacity:1;fill-rule:evenodd;stroke:none;stroke-width:0.1;stroke-linecap:round;stroke-linejoin:round;stroke-miterlimit:4;stroke-dashoffset:0;stroke-opacity:1" />
      <path
         sodipodi:nodetypes="ccccccccsc"
         id="path2926"
         d="M 18.177604,-0.15213925 C 18.346471,0.48761039 18.321004,1.0159911 18.45173,1.5422492 C 18.66732,3.2755923 18.961824,5.092852 19.706463,6.693689 C 20.888741,8.8097834 21.436049,11.213383 21.941941,13.555243 C 22.079538,15.05218 22.12508,16.532813 22.139295,18.017146 C 22.1547,18.467629 21.341482,18.515516 21.351978,18.174533 C 21.292395,16.220552 21.332291,14.240409 20.86491,12.327138 C 20.478013,10.345747 20.155869,8.3336488 19.194574,6.5403187 C 18.47955,4.7177889 18.363468,2.7333294 18.175473,0.80275045 C 18.14474,0.48472176 18.206552,0.16489031 18.177604,-0.15213925 z"
         style="fill:#656565;fill-opacity:1;fill-rule:evenodd;stroke:none;stroke-width:0.08112551;stroke-linecap:round;stroke-linejoin:round;stroke-miterlimit:4;stroke-opacity:1" />
      <path
         style="fill:none;fill-opacity:1;fill-rule:evenodd;stroke:#ffffff;stroke-width:1.14209485000000011;stroke-linecap:butt;stroke-linejoin:miter;stroke-miterlimit:4;stroke-opacity:0.4630225"
         d="M 22.96875,18.65625 C 22.194845,18.853016 21.798713,19.818507 21.483137,20.308852 C 21.095695,20.797333 23.402966,21.145379 23.198584,22.601242 C 23.15045,22.944112 22.840347,23.058825 22.463792,23.255352 C 21.511285,23.773106 20.349272,23.900947 19.538582,24.666233 C 19.150608,25.298445 20.642649,25.348175 20.407412,26.208355 C 20.380465,27.329344 19.758723,28.321121 19.418776,29.364142 C 18.632029,31.341687 18.373281,33.474913 18.498694,35.585276 C 18.554184,37.78098 18.968958,40.002333 19.871094,42.017324 C 20.478008,43.638552 21.326675,45.477855 23.011891,46.22847 C 24.420516,46.646392 25.5286,45.403011 26.257166,44.342715 C 28.088135,41.259116 28.581017,37.611782 28.659086,34.086012 C 28.65561,32.494898 28.311115,30.911167 27.694023,29.454025 C 27.378768,28.231491 26.261271,27.186888 26.530183,25.844481 C 26.666215,25.446423 27.229172,25.002942 27.455672,24.732833 C 27.156375,24.468685 26.804322,24.372093 26.544248,24.206026 C 25.495036,23.617159 24.536082,23.719014 24.035235,22.582359 C 23.997199,22.057744 24.392407,21.398455 24.933884,21.277551 C 25.356207,21.183253 25.779121,21.20388 25.456734,20.518417 C 25.249,20.008638 24.987296,19.26303 24.670884,18.875173 C 24.501862,18.701276 23.595484,18.53459 23,18.65625 L 22.96875,18.65625 z"
         id="path7977"
         sodipodi:nodetypes="ccsccccccccccccccscccc" />
      <path
         style="fill:#656565;fill-opacity:1;fill-rule:evenodd;stroke:none;stroke-width:0.08112551;stroke-linecap:round;stroke-linejoin:round;stroke-miterlimit:4;stroke-opacity:1"
         d="M 29.137734,-0.15213925 C 28.968867,0.48761039 28.994334,1.0159911 28.863609,1.5422492 C 28.648019,3.2755923 28.353515,5.092852 27.608875,6.693689 C 26.426598,8.8097834 25.879289,11.213383 25.373396,13.555243 C 25.235801,15.05218 25.190258,16.532813 25.176043,18.017146 C 25.160639,18.467629 25.973856,18.515516 25.963359,18.174533 C 26.022943,16.220552 25.983047,14.240409 26.450428,12.327138 C 26.837325,10.345747 27.15947,8.3336488 28.120764,6.5403187 C 28.835788,4.7177889 28.95187,2.7333294 29.139865,0.80275045 C 29.170599,0.48472176 29.108787,0.16489031 29.137734,-0.15213925 z"
         id="path8742"
         sodipodi:nodetypes="ccccccccsc" />
    </g>
  </g>
</svg>
