<?xml version="1.0" encoding="UTF-8" standalone="no"?>
<!-- Created with Inkscape (http://www.inkscape.org/) -->

<svg
   xmlns:dc="http://purl.org/dc/elements/1.1/"
   xmlns:cc="http://creativecommons.org/ns#"
   xmlns:rdf="http://www.w3.org/1999/02/22-rdf-syntax-ns#"
   xmlns:svg="http://www.w3.org/2000/svg"
   xmlns="http://www.w3.org/2000/svg"
   xmlns:xlink="http://www.w3.org/1999/xlink"
   xmlns:sodipodi="http://sodipodi.sourceforge.net/DTD/sodipodi-0.dtd"
   xmlns:inkscape="http://www.inkscape.org/namespaces/inkscape"
   width="48"
   height="48"
   id="svg2"
   version="1.1"
   inkscape:version="0.48+devel r9751"
   sodipodi:docname="drawing.svg">
  <defs
     id="defs4">
    <linearGradient
       inkscape:collect="always"
       id="linearGradient4053">
      <stop
         style="stop-color:#204a86;stop-opacity:1;"
         offset="0"
         id="stop4055" />
      <stop
         style="stop-color:#204a86;stop-opacity:0;"
         offset="1"
         id="stop4057" />
    </linearGradient>
    <linearGradient
       inkscape:collect="always"
       id="linearGradient3633">
      <stop
         style="stop-color:#72682a;stop-opacity:1;"
         offset="0"
         id="stop3635" />
      <stop
         style="stop-color:#72682a;stop-opacity:0;"
         offset="1"
         id="stop3637" />
    </linearGradient>
    <linearGradient
       inkscape:collect="always"
       xlink:href="#linearGradient3633"
       id="linearGradient3717"
       gradientUnits="userSpaceOnUse"
       gradientTransform="translate(0,-2060.2081)"
       x1="23.329786"
       y1="1034.8993"
       x2="26.175354"
       y2="1004.1249" />
    <linearGradient
       inkscape:collect="always"
       xlink:href="#linearGradient3633"
       id="linearGradient3729"
       gradientUnits="userSpaceOnUse"
       x1="-12.278724"
       y1="1045.9972"
       x2="60.762589"
       y2="1018.6951"
       gradientTransform="translate(0,-3.5309696)" />
    <linearGradient
       inkscape:collect="always"
       xlink:href="#linearGradient4053"
       id="linearGradient4059"
       x1="23.329786"
       y1="-1025.3088"
       x2="23.724291"
       y2="-1044.2365"
       gradientUnits="userSpaceOnUse" />
  </defs>
  <sodipodi:namedview
     id="base"
     pagecolor="#ffffff"
     bordercolor="#666666"
     borderopacity="1.0"
     inkscape:pageopacity="0.0"
     inkscape:pageshadow="2"
     inkscape:zoom="7.34375"
     inkscape:cx="35.366521"
     inkscape:cy="26.723404"
     inkscape:document-units="px"
     inkscape:current-layer="layer1"
     showgrid="false"
     inkscape:window-width="1280"
     inkscape:window-height="973"
     inkscape:window-x="0"
     inkscape:window-y="24"
     inkscape:window-maximized="1"
     inkscape:snap-global="false" />
  <metadata
     id="metadata7">
    <rdf:RDF>
      <cc:Work
         rdf:about="">
        <dc:format>image/svg+xml</dc:format>
        <dc:type
           rdf:resource="http://purl.org/dc/dcmitype/StillImage" />
        <dc:title />
      </cc:Work>
    </rdf:RDF>
  </metadata>
  <g
     inkscape:label="Layer 1"
     inkscape:groupmode="layer"
     id="layer1"
     transform="translate(0,-1004.3622)">
    <rect
       style="fill:#204a86;fill-opacity:0.59607846;fill-rule:evenodd;stroke:url(#linearGradient3729);stroke-opacity:1"
       id="rect2816"
       width="48.14344"
       height="14.731893"
       x="0"
       y="1013.1088"
       ry="7.3659463"
       rx="0" />
    <rect
       rx="0"
       ry="7.3659463"
       y="-1043.5684"
       x="0"
       height="14.731893"
       width="48.14344"
       id="rect3660"
       style="opacity:0.61506276000000004;fill:url(#linearGradient4059);fill-opacity:1;fill-rule:evenodd;stroke:url(#linearGradient3717);stroke-opacity:1"
       transform="scale(1,-1)" />
    <g
       style="font-size:12px;font-style:normal;font-variant:normal;font-weight:normal;font-stretch:normal;text-align:start;line-height:125%;writing-mode:lr-tb;text-anchor:start;fill:#000000;fill-opacity:1;stroke:none;font-family:Neuropol;-inkscape-font-specification:Neuropol"
       id="text3826">
      <path
         d="m 10.004521,1022.066 c -9e-6,0.6446 -0.3398525,1.1153 -1.0195311,1.4121 -0.5390701,0.2188 -1.1601633,0.3282 -1.8632813,0.3282 l -2.1445312,0 4.3476562,1.8457 c 0.23046,0.1015 0.3456943,0.2519 0.3457032,0.4511 -8.9e-6,0.293 -0.255868,0.4395 -0.7675782,0.4395 -0.2031329,0 -0.3632889,-0.016 -0.4804687,-0.047 l -5.9355469,-2.5371 0,2.1153 c -1.7e-6,0.3085 -0.1523453,0.4628 -0.4570312,0.4628 -0.3242197,0 -0.5117195,-0.014 -0.5625,-0.041 -0.1875005,-0.059 -0.2812504,-0.1992 -0.28125,-0.4218 l 0,-6.2168 c -4e-7,-0.3047 0.1523432,-0.4571 0.4570312,-0.4571 l 5.2382813,0 c 0.8124931,0 1.4804612,0.1055 2.0039062,0.3164 0.7460849,0.3008 1.1191315,0.7969 1.1191405,1.4883 l 0,0.8613 m -1.3007811,0.012 0,-0.9024 c -7.9e-6,-0.4765 -0.6093823,-0.7148 -1.828125,-0.7148 l -4.3886719,0 0,2.2851 4.6230469,0 c 1.0624926,0 1.5937421,-0.2226 1.59375,-0.6679"
         style=""
         id="path2827" />
      <path
         d="m 18.395146,1023.8239 c -8e-6,0.3398 -0.115242,0.5097 -0.345703,0.5097 l -6.146484,0 0,0.041 c -2e-6,0.5313 0.312498,0.8731 0.9375,1.0254 0.136716,0.031 0.333981,0.057 0.591797,0.076 0.261715,0.016 0.593746,0.023 0.996093,0.023 0.304683,0 0.457027,0.1914 0.457032,0.5743 -5e-6,0.3085 -0.152349,0.4628 -0.457032,0.4628 -0.414066,0 -0.753909,-0 -1.019531,-0.012 -0.261722,-0 -0.46094,-0.014 -0.597656,-0.029 -0.679689,-0.07 -1.179689,-0.2304 -1.5,-0.4804 -0.457032,-0.3555 -0.685547,-0.7735 -0.685547,-1.2539 l 0,-2.0684 c 0,-0.6484 0.351562,-1.1289 1.054687,-1.4414 0.480467,-0.2266 1.117185,-0.3399 1.910157,-0.3399 l 2.308593,0 c 0.648432,0 1.185541,0.1075 1.611329,0.3223 0.589836,0.2735 0.884757,0.6856 0.884765,1.2363 l 0,1.3536 m -1.207031,-0.5625 0,-0.6915 c -7e-6,-0.4218 -0.837897,-0.6328 -2.513672,-0.6328 -0.988285,0 -1.666018,0.035 -2.033203,0.1055 -0.519533,0.098 -0.779298,0.2891 -0.779297,0.5742 l 0,0.6446 5.326172,0"
         style=""
         id="path2829" />
      <path
         d="m 22.608037,1021.4215 c -4e-6,0.3828 -0.152348,0.5742 -0.457031,0.5742 l -1.886719,0 0,4.0782 c -2e-6,0.3085 -0.152345,0.4628 -0.457031,0.4628 -0.304689,0 -0.482423,-0.014 -0.533204,-0.041 -0.164063,-0.059 -0.246094,-0.1992 -0.246093,-0.4218 l 0,-5.0215 c -10e-7,-1.1055 0.923826,-1.6582 2.771484,-1.6582 0.316403,0 0.513668,0.018 0.591797,0.053 0.144527,0.07 0.216793,0.2441 0.216797,0.5215 -4e-6,0.3047 -0.152348,0.457 -0.457031,0.457 -0.554691,0 -0.916019,0.012 -1.083985,0.035 -0.523439,0.078 -0.785158,0.2461 -0.785156,0.5039 l 1.869141,0 c 0.304683,0 0.457027,0.1523 0.457031,0.457"
         style=""
         id="path2831" />
      <path
         d="m 24.529912,1026.0739 c -2e-6,0.3085 -0.152346,0.4628 -0.457031,0.4628 -0.300783,0 -0.476564,-0.014 -0.527344,-0.041 -0.16797,-0.062 -0.251954,-0.2031 -0.251953,-0.4218 l 0,-6.2168 c -10e-7,-0.3047 0.152343,-0.4571 0.457031,-0.4571 0.285155,0 0.462889,0.012 0.533203,0.035 0.164061,0.055 0.246092,0.1953 0.246094,0.4219 l 0,6.2168"
         style=""
         id="path2833" />
      <path
         d="m 33.020146,1023.8239 c -8e-6,0.3398 -0.115242,0.5097 -0.345703,0.5097 l -6.146484,0 0,0.041 c -2e-6,0.5313 0.312498,0.8731 0.9375,1.0254 0.136716,0.031 0.333981,0.057 0.591797,0.076 0.261715,0.016 0.593746,0.023 0.996093,0.023 0.304683,0 0.457027,0.1914 0.457032,0.5743 -5e-6,0.3085 -0.152349,0.4628 -0.457032,0.4628 -0.414066,0 -0.753909,-0 -1.019531,-0.012 -0.261722,-0 -0.46094,-0.014 -0.597656,-0.029 -0.679689,-0.07 -1.179689,-0.2304 -1.5,-0.4804 -0.457032,-0.3555 -0.685547,-0.7735 -0.685547,-1.2539 l 0,-2.0684 c 0,-0.6484 0.351562,-1.1289 1.054687,-1.4414 0.480467,-0.2266 1.117185,-0.3399 1.910157,-0.3399 l 2.308593,0 c 0.648432,0 1.185541,0.1075 1.611329,0.3223 0.589836,0.2735 0.884757,0.6856 0.884765,1.2363 l 0,1.3536 m -1.207031,-0.5625 0,-0.6915 c -7e-6,-0.4218 -0.837897,-0.6328 -2.513672,-0.6328 -0.988285,0 -1.666018,0.035 -2.033203,0.1055 -0.519533,0.098 -0.779298,0.2891 -0.779297,0.5742 l 0,0.6446 5.326172,0"
         style=""
         id="path2835" />
      <path
         d="m 41.551396,1026.0739 c -8e-6,0.3085 -0.191414,0.4628 -0.574219,0.4628 l -4.576171,0 c -0.878909,0 -1.511721,-0.084 -1.898438,-0.2519 -0.664063,-0.2656 -0.996094,-0.7481 -0.996094,-1.4473 l 0,-2.2148 c 0,-1.1367 0.878905,-1.7051 2.636719,-1.7051 l 4.898438,0 c 0.320304,0 0.48046,0.1738 0.480468,0.5215 -8e-6,0.3476 -0.160164,0.5215 -0.480468,0.5215 l -4.810547,0 c -0.99219,0 -1.488283,0.209 -1.488282,0.6269 l 0,2.1973 c -10e-7,0.4766 0.564451,0.7148 1.69336,0.7148 l 4.652344,0 c 0.308585,0 0.462882,0.1914 0.46289,0.5743"
         style=""
         id="path2837" />
      <path
         d="m 46.490849,1021.5387 c -4e-6,0.3047 -0.154301,0.457 -0.46289,0.457 l -1.957032,0 0,4.0782 c -2e-6,0.3085 -0.152346,0.4628 -0.457031,0.4628 -0.300783,0 -0.476564,-0.014 -0.527344,-0.041 -0.16797,-0.062 -0.251954,-0.2031 -0.251953,-0.4218 l 0,-4.0782 c -0.164063,0 -0.298829,-0 -0.404297,-0.01 -0.101563,-0.01 -0.173828,-0.016 -0.216796,-0.024 -0.195313,-0.066 -0.292969,-0.2285 -0.292969,-0.4863 0,-0.2578 0.09766,-0.4199 0.292969,-0.4863 0.04297,-0.01 0.115233,-0.014 0.216796,-0.018 0.105468,-0.01 0.240234,-0.012 0.404297,-0.012 l 0,-1.1074 c -10e-7,-0.3047 0.152343,-0.4571 0.457032,-0.4571 0.300779,0 0.47656,0.014 0.527343,0.041 0.167967,0.059 0.251951,0.1973 0.251953,0.4161 l 0,1.1074 1.957032,0 c 0.308589,0 0.462886,0.1914 0.46289,0.5742"
         style=""
         id="path2839" />
    </g>
    <g
       id="g2841"
       style="font-size:12px;font-style:normal;font-variant:normal;font-weight:normal;font-stretch:normal;text-align:start;line-height:125%;writing-mode:lr-tb;text-anchor:start;opacity:0.61506276;fill:#000000;fill-opacity:1;stroke:none;font-family:Neuropol;-inkscape-font-specification:Neuropol"
       transform="matrix(1,0,0,-1,0,2056.9666)">
      <path
         id="path2843"
         d="m 10.004521,1022.066 c -9e-6,0.6446 -0.3398525,1.1153 -1.0195311,1.4121 -0.5390701,0.2188 -1.1601633,0.3282 -1.8632813,0.3282 l -2.1445312,0 4.3476562,1.8457 c 0.23046,0.1015 0.3456943,0.2519 0.3457032,0.4511 -8.9e-6,0.293 -0.255868,0.4395 -0.7675782,0.4395 -0.2031329,0 -0.3632889,-0.016 -0.4804687,-0.047 l -5.9355469,-2.5371 0,2.1153 c -1.7e-6,0.3085 -0.1523453,0.4628 -0.4570312,0.4628 -0.3242197,0 -0.5117195,-0.014 -0.5625,-0.041 -0.1875005,-0.059 -0.2812504,-0.1992 -0.28125,-0.4218 l 0,-6.2168 c -4e-7,-0.3047 0.1523432,-0.4571 0.4570312,-0.4571 l 5.2382813,0 c 0.8124931,0 1.4804612,0.1055 2.0039062,0.3164 0.7460849,0.3008 1.1191315,0.7969 1.1191405,1.4883 l 0,0.8613 m -1.3007811,0.012 0,-0.9024 c -7.9e-6,-0.4765 -0.6093823,-0.7148 -1.828125,-0.7148 l -4.3886719,0 0,2.2851 4.6230469,0 c 1.0624926,0 1.5937421,-0.2226 1.59375,-0.6679" />
      <path
         id="path2845"
         d="m 18.395146,1023.8239 c -8e-6,0.3398 -0.115242,0.5097 -0.345703,0.5097 l -6.146484,0 0,0.041 c -2e-6,0.5313 0.312498,0.8731 0.9375,1.0254 0.136716,0.031 0.333981,0.057 0.591797,0.076 0.261715,0.016 0.593746,0.023 0.996093,0.023 0.304683,0 0.457027,0.1914 0.457032,0.5743 -5e-6,0.3085 -0.152349,0.4628 -0.457032,0.4628 -0.414066,0 -0.753909,0 -1.019531,-0.012 -0.261722,0 -0.46094,-0.014 -0.597656,-0.029 -0.679689,-0.07 -1.179689,-0.2304 -1.5,-0.4804 -0.457032,-0.3555 -0.685547,-0.7735 -0.685547,-1.2539 l 0,-2.0684 c 0,-0.6484 0.351562,-1.1289 1.054687,-1.4414 0.480467,-0.2266 1.117185,-0.3399 1.910157,-0.3399 l 2.308593,0 c 0.648432,0 1.185541,0.1075 1.611329,0.3223 0.589836,0.2735 0.884757,0.6856 0.884765,1.2363 l 0,1.3536 m -1.207031,-0.5625 0,-0.6915 c -7e-6,-0.4218 -0.837897,-0.6328 -2.513672,-0.6328 -0.988285,0 -1.666018,0.035 -2.033203,0.1055 -0.519533,0.098 -0.779298,0.2891 -0.779297,0.5742 l 0,0.6446 5.326172,0" />
      <path
         id="path2847"
         d="m 22.608037,1021.4215 c -4e-6,0.3828 -0.152348,0.5742 -0.457031,0.5742 l -1.886719,0 0,4.0782 c -2e-6,0.3085 -0.152345,0.4628 -0.457031,0.4628 -0.304689,0 -0.482423,-0.014 -0.533204,-0.041 -0.164063,-0.059 -0.246094,-0.1992 -0.246093,-0.4218 l 0,-5.0215 c -10e-7,-1.1055 0.923826,-1.6582 2.771484,-1.6582 0.316403,0 0.513668,0.018 0.591797,0.053 0.144527,0.07 0.216793,0.2441 0.216797,0.5215 -4e-6,0.3047 -0.152348,0.457 -0.457031,0.457 -0.554691,0 -0.916019,0.012 -1.083985,0.035 -0.523439,0.078 -0.785158,0.2461 -0.785156,0.5039 l 1.869141,0 c 0.304683,0 0.457027,0.1523 0.457031,0.457" />
      <path
         id="path2849"
         d="m 24.529912,1026.0739 c -2e-6,0.3085 -0.152346,0.4628 -0.457031,0.4628 -0.300783,0 -0.476564,-0.014 -0.527344,-0.041 -0.16797,-0.062 -0.251954,-0.2031 -0.251953,-0.4218 l 0,-6.2168 c -10e-7,-0.3047 0.152343,-0.4571 0.457031,-0.4571 0.285155,0 0.462889,0.012 0.533203,0.035 0.164061,0.055 0.246092,0.1953 0.246094,0.4219 l 0,6.2168" />
      <path
         id="path2851"
         d="m 33.020146,1023.8239 c -8e-6,0.3398 -0.115242,0.5097 -0.345703,0.5097 l -6.146484,0 0,0.041 c -2e-6,0.5313 0.312498,0.8731 0.9375,1.0254 0.136716,0.031 0.333981,0.057 0.591797,0.076 0.261715,0.016 0.593746,0.023 0.996093,0.023 0.304683,0 0.457027,0.1914 0.457032,0.5743 -5e-6,0.3085 -0.152349,0.4628 -0.457032,0.4628 -0.414066,0 -0.753909,0 -1.019531,-0.012 -0.261722,0 -0.46094,-0.014 -0.597656,-0.029 -0.679689,-0.07 -1.179689,-0.2304 -1.5,-0.4804 -0.457032,-0.3555 -0.685547,-0.7735 -0.685547,-1.2539 l 0,-2.0684 c 0,-0.6484 0.351562,-1.1289 1.054687,-1.4414 0.480467,-0.2266 1.117185,-0.3399 1.910157,-0.3399 l 2.308593,0 c 0.648432,0 1.185541,0.1075 1.611329,0.3223 0.589836,0.2735 0.884757,0.6856 0.884765,1.2363 l 0,1.3536 m -1.207031,-0.5625 0,-0.6915 c -7e-6,-0.4218 -0.837897,-0.6328 -2.513672,-0.6328 -0.988285,0 -1.666018,0.035 -2.033203,0.1055 -0.519533,0.098 -0.779298,0.2891 -0.779297,0.5742 l 0,0.6446 5.326172,0" />
      <path
         id="path2853"
         d="m 41.551396,1026.0739 c -8e-6,0.3085 -0.191414,0.4628 -0.574219,0.4628 l -4.576171,0 c -0.878909,0 -1.511721,-0.084 -1.898438,-0.2519 -0.664063,-0.2656 -0.996094,-0.7481 -0.996094,-1.4473 l 0,-2.2148 c 0,-1.1367 0.878905,-1.7051 2.636719,-1.7051 l 4.898438,0 c 0.320304,0 0.48046,0.1738 0.480468,0.5215 -8e-6,0.3476 -0.160164,0.5215 -0.480468,0.5215 l -4.810547,0 c -0.99219,0 -1.488283,0.209 -1.488282,0.6269 l 0,2.1973 c -10e-7,0.4766 0.564451,0.7148 1.69336,0.7148 l 4.652344,0 c 0.308585,0 0.462882,0.1914 0.46289,0.5743" />
      <path
         id="path2855"
         d="m 46.490849,1021.5387 c -4e-6,0.3047 -0.154301,0.457 -0.46289,0.457 l -1.957032,0 0,4.0782 c -2e-6,0.3085 -0.152346,0.4628 -0.457031,0.4628 -0.300783,0 -0.476564,-0.014 -0.527344,-0.041 -0.16797,-0.062 -0.251954,-0.2031 -0.251953,-0.4218 l 0,-4.0782 c -0.164063,0 -0.298829,0 -0.404297,-0.01 -0.101563,-0.01 -0.173828,-0.016 -0.216796,-0.024 -0.195313,-0.066 -0.292969,-0.2285 -0.292969,-0.4863 0,-0.2578 0.09766,-0.4199 0.292969,-0.4863 0.04297,-0.01 0.115233,-0.014 0.216796,-0.018 0.105468,-0.01 0.240234,-0.012 0.404297,-0.012 l 0,-1.1074 c -10e-7,-0.3047 0.152343,-0.4571 0.457032,-0.4571 0.300779,0 0.47656,0.014 0.527343,0.041 0.167967,0.059 0.251951,0.1973 0.251953,0.4161 l 0,1.1074 1.957032,0 c 0.308589,0 0.462886,0.1914 0.46289,0.5742" />
    </g>
  </g>
</svg>
