<?xml version="1.0" encoding="UTF-8" standalone="no"?>
<!-- Created with Inkscape (http://www.inkscape.org/) -->

<svg
   xmlns:dc="http://purl.org/dc/elements/1.1/"
   xmlns:cc="http://creativecommons.org/ns#"
   xmlns:rdf="http://www.w3.org/1999/02/22-rdf-syntax-ns#"
   xmlns:svg="http://www.w3.org/2000/svg"
   xmlns="http://www.w3.org/2000/svg"
   xmlns:xlink="http://www.w3.org/1999/xlink"
   xmlns:sodipodi="http://sodipodi.sourceforge.net/DTD/sodipodi-0.dtd"
   xmlns:inkscape="http://www.inkscape.org/namespaces/inkscape"
   version="1.0"
   width="48"
   height="48"
   id="svg2"
   inkscape:version="0.47 r22583"
   sodipodi:docname="Qt-logo.svg">
  <metadata
     id="metadata10">
    <rdf:RDF>
      <cc:Work
         rdf:about="">
        <dc:format>image/svg+xml</dc:format>
        <dc:type
           rdf:resource="http://purl.org/dc/dcmitype/StillImage" />
        <dc:title></dc:title>
      </cc:Work>
    </rdf:RDF>
  </metadata>
  <sodipodi:namedview
     pagecolor="#ffffff"
     bordercolor="#666666"
     borderopacity="1"
     objecttolerance="10"
     gridtolerance="10"
     guidetolerance="10"
     inkscape:pageopacity="0"
     inkscape:pageshadow="2"
     inkscape:window-width="1280"
     inkscape:window-height="973"
     id="namedview8"
     showgrid="false"
     inkscape:zoom="10.385631"
     inkscape:cx="24"
     inkscape:cy="24"
     inkscape:window-x="0"
     inkscape:window-y="24"
     inkscape:window-maximized="1"
     inkscape:current-layer="svg2"
     inkscape:snap-global="false" />
  <defs
     id="defs4">
    <radialGradient
       cx="76.764198"
       cy="58.0625"
       r="66.164497"
       id="XMLID_27_"
       gradientUnits="userSpaceOnUse"
       gradientTransform="matrix(0.9397,0,0,0.9397,4.2153,4.1331)">
      <stop
         style="stop-color: rgb(255, 255, 255); stop-opacity: 1;"
         offset="0"
         id="stop107" />
      <stop
         style="stop-color: rgb(253, 253, 252); stop-opacity: 1;"
         offset="0.32780001"
         id="stop109" />
      <stop
         style="stop-color: rgb(244, 245, 244); stop-opacity: 1;"
         offset="0.6773591"
         id="stop111" />
      <stop
         style="stop-color: rgb(202, 207, 208); stop-opacity: 1;"
         offset="1"
         id="stop113" />
    </radialGradient>
    <radialGradient
       r="81.292717"
       fy="123.17536"
       fx="110.74259"
       cy="123.17536"
       cx="110.74259"
       gradientTransform="matrix(0.47315154,-0.69869829,-0.65316106,-0.46196739,91.891065,228.66311)"
       gradientUnits="userSpaceOnUse"
       id="radialGradient3079"
       xlink:href="#XMLID_27_"
       inkscape:collect="always" />
  </defs>
  <g
     id="g3125"
     transform="matrix(1.4135338,0,0,1.2180402,-14.858617,-2.5679808)">
    <path
       style="fill:#7cc040"
       id="path2400"
       d="m 12.671334,40.173273 -1.376264,-1.265446 0.0022,-16.054708 c 0.0022,-15.8488139 0.0074,-16.0683659 0.400712,-17.1197109 0.840913,-2.247542 2.105023,-3.012052 5.287131,-3.19756 1.90843,-0.111255 2.498552,-0.03214 14.403517,1.93111 l 12.413561,2.047119 0,13.2593159 c 0,10.215558 -0.0556,13.442384 -0.24206,14.056806 -0.29715,0.978973 -1.27533,2.293709 -2.034959,2.735103 -0.376574,0.218814 -4.938945,1.062066 -13.642661,2.521542 -7.192283,1.206031 -13.247446,2.22858 -13.455917,2.272329 -0.266295,0.05588 -0.788409,-0.29686 -1.755304,-1.1859 z m 17.31963,-4.392525 c 0.427635,0 0.45011,-0.06151 0.45011,-1.23188 0,-1.09564 -0.04093,-1.23188 -0.370123,-1.23188 -0.701959,0 -1.298617,-0.424782 -1.630529,-1.160834 -0.183094,-0.406026 -0.298231,-0.764825 -0.255862,-0.79733 0.04237,-0.0325 0.480032,-0.28985 0.972583,-0.571878 2.445387,-1.400196 3.541612,-4.541219 3.548589,-10.167795 0.0084,-6.767707 -1.695643,-9.976019 -5.735995,-10.7995709 -1.270454,-0.25896 -2.711477,-0.119989 -3.842123,0.3705319 -1.688903,0.732717 -2.975219,2.693977 -3.608238,5.501519 -0.450195,1.996688 -0.444731,7.462366 0.0096,9.570759 0.666435,3.09292 2.239246,5.384743 4.127297,6.014094 0.699202,0.233065 0.796674,0.348396 1.090574,1.290363 0.457094,1.46502 0.865492,2.175856 1.51638,2.639329 0.651025,0.46357 1.939878,0.77259 2.732792,0.655224 0.299679,-0.04436 0.747419,-0.08065 0.99498,-0.08065 z m -4.284868,-7.069991 c -0.577839,-0.288084 -1.27156,-1.295682 -1.513118,-2.197733 -0.789841,-2.949512 -0.723684,-10.25195 0.111796,-12.34002 0.379254,-0.947845 1.255071,-1.703213 1.974808,-1.703213 0.796446,0 1.798072,0.960335 2.170213,2.08075 0.658086,1.981306 0.76897,8.632402 0.190523,11.427929 -0.459938,2.222802 -1.679081,3.358042 -2.934222,2.732287 z m 12.694817,1.375234 c 1.793317,-0.398285 1.895199,-0.486318 1.895199,-1.637526 0,-0.894178 -0.04433,-1.018968 -0.33166,-0.933608 -1.136699,0.337698 -1.401496,0.339933 -1.760695,0.01486 -0.350608,-0.317295 -0.371404,-0.610376 -0.371404,-5.234261 l 0,-4.898146 1.13712,0 1.137119,0 0,-1.112639 0,-1.112642 -1.137119,-0.12865 -1.13712,-0.12865 0,-1.779845 c 0,-0.978914 -0.06396,-1.818787 -0.14214,-1.866385 -0.07818,-0.0476 -0.56206,-0.116593 -1.075293,-0.153323 l -0.933154,-0.06679 -0.325137,1.326639 c -0.178825,0.729652 -0.378841,1.561172 -0.444478,1.847821 -0.1021,0.445887 -0.214642,0.52118 -0.779048,0.52118 l -0.659709,0 0,1.231879 0,1.23188 0.56856,0 0.568559,0 0,5.50363 c 0,6.724771 0.07556,6.982918 2.17948,7.445873 0.605033,0.133134 0.711682,0.128413 1.61092,-0.0713 z" />
    <path
       style="fill:#3161a6;fill-opacity:1"
       id="path2398"
       d="m 12.572885,39.992071 -1.083807,-1.095234 0,-16.176475 c 0,-11.728222 0.06048,-16.3783439 0.219949,-16.9105979 0.28062,-0.93663 1.321936,-2.156146 2.24178,-2.625416 0.393429,-0.200711 1.301068,-0.412936 2.016976,-0.471609 0.962652,-0.0789 1.188252,-0.05691 0.866228,0.08441 -0.9373,0.411342 -1.757728,1.228993 -2.260553,2.252905 l -0.525861,1.070816 -0.05304,17.4832179 c -0.02917,9.615769 -0.117127,17.483217 -0.195454,17.483217 -0.07832,0 -0.630123,-0.492856 -1.226217,-1.095236 z M 26.04115,35.74385 c -0.896338,-0.2383 -1.889173,-1.325501 -2.319438,-2.539893 -0.181098,-0.51113 -0.397124,-1.104949 -0.480058,-1.319598 -0.09024,-0.233574 -0.457855,-0.482267 -0.915575,-0.619404 -1.694528,-0.507694 -3.275746,-2.786165 -3.962691,-5.710085 -0.493289,-2.099629 -0.479552,-8.459138 0.02232,-10.337038 0.767543,-2.871943 2.22606,-4.733833 4.1576,-5.3074379 1.244794,-0.369664 2.005197,-0.348029 0.946971,0.02694 -1.78239,0.6315719 -3.0938,2.3507059 -3.887913,5.0966819 -0.396927,1.372539 -0.435542,1.873837 -0.422924,5.490371 0.01198,3.435396 0.06857,4.178388 0.413556,5.430525 0.777166,2.820728 1.945735,4.44148 3.809703,5.283889 0.855816,0.38678 1.003668,0.537943 1.185065,1.211603 0.431687,1.603155 1.289598,2.767335 2.403712,3.261817 0.408463,0.181291 0.435363,0.22641 0.132992,0.223063 -0.208472,-0.0023 -0.695969,-0.08846 -1.083325,-0.191438 z m 8.966154,-5.706778 c -1.493698,-0.523382 -1.72343,-1.590906 -1.72343,-8.008494 0,-4.327919 -0.03073,-4.798941 -0.316734,-4.854271 -0.220529,-0.04266 -0.386562,-0.406668 -0.546626,-1.198396 -0.126441,-0.625416 -0.192087,-1.201082 -0.145882,-1.279259 0.04621,-0.07818 0.292189,-0.14214 0.546627,-0.14214 0.446414,0 0.462615,0.04646 0.462615,1.326639 l 0,1.32664 0.558032,0 0.558034,0 0.05791,5.543459 c 0.06428,6.153008 0.112537,6.40974 1.346368,7.162051 0.473209,0.288532 0.52332,0.367752 0.227699,0.359962 -0.208472,-0.0055 -0.669545,-0.11178 -1.024609,-0.236191 z m -8.68642,-1.789743 c 1.069091,-1.116155 1.466911,-3.218363 1.466911,-7.751634 0,-4.339865 -0.517505,-6.812335 -1.581914,-7.557877 -0.386501,-0.270716 -0.381254,-0.278507 0.187545,-0.278507 1.939949,0 2.663201,2.682249 2.478493,9.191719 -0.102705,3.619479 -0.340114,5.047161 -1.009073,6.068119 -0.307628,0.469499 -1.039111,0.84936 -1.635585,0.84936 -0.39173,0 -0.388533,-0.0178 0.09362,-0.52118 z m 12.364309,-0.80546 c 0.208472,-0.08958 0.634892,-0.162879 0.947599,-0.162879 0.484721,0 0.512667,0.02402 0.18952,0.162879 -0.208472,0.08958 -0.634891,0.162879 -0.947599,0.162879 -0.48472,0 -0.512667,-0.02402 -0.18952,-0.162879 z M 33.719288,14.317612 c 0.828335,-3.624051 0.725742,-3.36398 1.327021,-3.36398 0.480695,0 0.541142,0.05686 0.446236,0.419786 -0.06038,0.230881 -0.253229,1.083721 -0.42856,1.8952 -0.310543,1.437286 -0.333297,1.475414 -0.880471,1.475414 -0.485028,0 -0.548388,-0.0582 -0.464226,-0.42642 z" />
  </g>
</svg>
