<?xml version="1.0" encoding="UTF-8" standalone="no"?>
<!-- Created with Inkscape (http://www.inkscape.org/) -->

<svg
   xmlns:dc="http://purl.org/dc/elements/1.1/"
   xmlns:cc="http://creativecommons.org/ns#"
   xmlns:rdf="http://www.w3.org/1999/02/22-rdf-syntax-ns#"
   xmlns:svg="http://www.w3.org/2000/svg"
   xmlns="http://www.w3.org/2000/svg"
   xmlns:xlink="http://www.w3.org/1999/xlink"
   xmlns:sodipodi="http://sodipodi.sourceforge.net/DTD/sodipodi-0.dtd"
   xmlns:inkscape="http://www.inkscape.org/namespaces/inkscape"
   inkscape:export-ydpi="90.000000"
   inkscape:export-xdpi="90.000000"
   inkscape:export-filename="/home/jimmac/Desktop/wi-fi.png"
   width="48"
   height="48"
   id="svg11300"
   sodipodi:version="0.32"
   inkscape:version="0.47+devel r9425"
   sodipodi:docname="plugin-snowglobe.svg"
   inkscape:output_extension="org.inkscape.output.svg.inkscape"
   sodipodi:modified="true"
   version="1.0">
  <defs
     id="defs3">
    <linearGradient
       inkscape:collect="always"
       id="linearGradient3908">
      <stop
         style="stop-color:#ffffff;stop-opacity:1;"
         offset="0"
         id="stop3910" />
      <stop
         style="stop-color:#ffffff;stop-opacity:0;"
         offset="1"
         id="stop3912" />
    </linearGradient>
    <linearGradient
       inkscape:collect="always"
       id="linearGradient3812">
      <stop
         style="stop-color:#ffffff;stop-opacity:1;"
         offset="0"
         id="stop3814" />
      <stop
         style="stop-color:#ffffff;stop-opacity:0;"
         offset="1"
         id="stop3816" />
    </linearGradient>
    <linearGradient
       inkscape:collect="always"
       id="linearGradient3802">
      <stop
         style="stop-color:#ffffff;stop-opacity:1;"
         offset="0"
         id="stop3804" />
      <stop
         style="stop-color:#ffffff;stop-opacity:0;"
         offset="1"
         id="stop3806" />
    </linearGradient>
    <linearGradient
       inkscape:collect="always"
       id="linearGradient3792">
      <stop
         style="stop-color:#ffffff;stop-opacity:1;"
         offset="0"
         id="stop3794" />
      <stop
         style="stop-color:#ffffff;stop-opacity:0;"
         offset="1"
         id="stop3796" />
    </linearGradient>
    <linearGradient
       inkscape:collect="always"
       xlink:href="#linearGradient3908"
       id="linearGradient3920"
       gradientUnits="userSpaceOnUse"
       x1="-13.846479"
       y1="25.051643"
       x2="-7.5619721"
       y2="25.051643" />
    <linearGradient
       inkscape:collect="always"
       xlink:href="#linearGradient3908"
       id="linearGradient3928"
       gradientUnits="userSpaceOnUse"
       x1="-13.846479"
       y1="25.051643"
       x2="-7.5619721"
       y2="25.051643" />
    <linearGradient
       inkscape:collect="always"
       xlink:href="#linearGradient3812"
       id="linearGradient3813"
       gradientUnits="userSpaceOnUse"
       x1="-5.2174964"
       y1="13.619787"
       x2="-0.6009388"
       y2="15.023474" />
    <linearGradient
       inkscape:collect="always"
       xlink:href="#linearGradient3802"
       id="linearGradient3827"
       gradientUnits="userSpaceOnUse"
       x1="-7.9538074"
       y1="13.789931"
       x2="-0.45770231"
       y2="18.547882" />
    <linearGradient
       inkscape:collect="always"
       xlink:href="#linearGradient3792"
       id="linearGradient3829"
       gradientUnits="userSpaceOnUse"
       x1="-8.1576443"
       y1="13.17316"
       x2="-0.48524779"
       y2="17.727779" />
  </defs>
  <sodipodi:namedview
     stroke="#ef2929"
     fill="#eeeeec"
     id="base"
     pagecolor="#ffffff"
     bordercolor="#666666"
     borderopacity="0.25490196"
     inkscape:pageopacity="0.0"
     inkscape:pageshadow="2"
     inkscape:zoom="12.551961"
     inkscape:cx="24.056334"
     inkscape:cy="24"
     inkscape:current-layer="layer1"
     showgrid="false"
     inkscape:grid-bbox="true"
     inkscape:document-units="px"
     inkscape:showpageshadow="false"
     inkscape:window-width="1280"
     inkscape:window-height="975"
     inkscape:window-x="0"
     inkscape:window-y="24"
     showguides="true"
     inkscape:guide-bbox="true"
     showborder="true"
     inkscape:window-maximized="1"
     inkscape:snap-global="false">
    <inkscape:grid
       type="xygrid"
       id="grid7871"
       visible="true"
       enabled="true"
       empspacing="5"
       snapvisiblegridlinesonly="true" />
  </sodipodi:namedview>
  <metadata
     id="metadata4">
    <rdf:RDF>
      <cc:Work
         rdf:about="">
        <dc:format>image/svg+xml</dc:format>
        <dc:type
           rdf:resource="http://purl.org/dc/dcmitype/StillImage" />
        <dc:creator>
          <cc:Agent>
            <dc:title>Patrick Niklaus</dc:title>
          </cc:Agent>
        </dc:creator>
        <dc:source />
        <cc:license
           rdf:resource="http://creativecommons.org/licenses/GPL/2.0/" />
        <dc:title />
        <dc:subject>
          <rdf:Bag />
        </dc:subject>
      </cc:Work>
      <cc:License
         rdf:about="http://creativecommons.org/licenses/GPL/2.0/">
        <cc:permits
           rdf:resource="http://web.resource.org/cc/Reproduction" />
        <cc:permits
           rdf:resource="http://web.resource.org/cc/Distribution" />
        <cc:requires
           rdf:resource="http://web.resource.org/cc/Notice" />
        <cc:permits
           rdf:resource="http://web.resource.org/cc/DerivativeWorks" />
        <cc:requires
           rdf:resource="http://web.resource.org/cc/ShareAlike" />
        <cc:requires
           rdf:resource="http://web.resource.org/cc/SourceCode" />
      </cc:License>
    </rdf:RDF>
  </metadata>
  <g
     id="layer1"
     inkscape:label="Layer 1"
     inkscape:groupmode="layer"
     transform="translate(0,16)">
    <path
       sodipodi:type="inkscape:offset"
       inkscape:radius="-1.2953277"
       inkscape:original="M 128.53125 -62.96875 L 101.53125 -51.4375 L 101.53125 -18.4375 L 128.46875 -7.875 L 155.34375 -18.4375 L 155.3125 -51.4375 L 128.53125 -62.96875 z "
       style="fill:none;stroke:#ffffff;stroke-width:1.95400739;stroke-linecap:butt;stroke-linejoin:miter;stroke-miterlimit:4;stroke-opacity:0.75241161;stroke-dasharray:none;stroke-dashoffset:0"
       id="path8463"
       d="m 128.53125,-61.5625 -25.71875,10.96875 0,31.25 25.65625,10.0625 25.59375,-10.0625 -0.0312,-31.25 -25.5,-10.96875 z"
       transform="matrix(0.82288424,0,0,0.80023293,-81.738355,34.792469)" />
    <path
       style="fill:#feeeee;fill-opacity:1;stroke:#000000;stroke-width:0.31712744;stroke-linecap:butt;stroke-linejoin:miter;stroke-miterlimit:4;stroke-opacity:1;stroke-dasharray:none"
       d="m 1.8924079,17.698711 c 0.1552186,-0.02796 0.454414,0.0454 0.586464,0 0.0525,-0.01798 0.067908,-0.09547 0.1172699,-0.120951 0.093873,-0.04839 0.2579369,0.04839 0.351867,0 0.049647,-0.02539 0.067908,-0.09547 0.11727,-0.120951 0.065055,-0.03355 0.169485,0.03355 0.2345399,0 0.049362,-0.02539 0.06477,-0.102918 0.11727,-0.120951 0.074185,-0.02539 0.1603545,0.02539 0.2345399,0 0.1050009,-0.03607 0.1426642,-0.178644 0.23454,-0.241901 0.07818,-0.04032 0.1563599,-0.08063 0.2345399,-0.120951 0.03909,0 0.08246,0.01798 0.11727,0 0.5368168,-0.276768 -0.4977554,0.05013 0.3518955,-0.241901 0.037093,-0.01284 0.08246,0.01798 0.1172699,0 0.1406669,-0.07256 0.2111431,-0.290273 0.3518956,-0.362844 0.03481,-0.01797 0.08246,0.01798 0.1172699,0 0.4881684,-0.251688 -0.1252591,0.0086 0.11727,-0.241901 0.2425291,-0.250233 -0.00856,0.382411 0.2345399,-0.120951 0.080748,-0.166831 -0.1420935,-0.108196 0.11727,-0.241901 0.03481,-0.01798 0.089593,0.02853 0.11727,0 0.028533,-0.02853 -0.01712,-0.08488 0,-0.120951 0.025679,-0.05102 0.08674,-0.0735 0.1172699,-0.120951 0.048506,-0.07501 0.068764,-0.166888 0.11727,-0.241901 0.030816,-0.04745 0.07818,-0.08066 0.11727,-0.120951 0.03909,-0.04032 0.071332,-0.08934 0.11727,-0.12095 0.072759,-0.05002 0.1617812,-0.07093 0.2345399,-0.120951 0.1067128,-0.07341 0.2479504,-0.309245 0.3518955,-0.362844 0.03481,-0.01797 0.082175,0.01798 0.11727,0 0.115558,-0.05952 0.3537787,-0.424286 0.469194,-0.483794 0.03481,-0.01798 0.089593,0.02853 0.11727,0 0.028533,-0.02853 -0.03481,-0.102918 0,-0.120951 0.092446,-0.108196 0.2470943,0.0541 0.3518955,0 0.049362,-0.02539 0.06477,-0.102918 0.1172699,-0.12095 0.1055715,-0.03629 0.2462384,0.03632 0.3518955,0 0.083031,-0.02853 0.1497975,-0.0991 0.23454,-0.120951 0.1540773,-0.03975 0.4408038,0.05007 0.5864925,0 0.0525,-0.01798 0.067908,-0.09547 0.11727,-0.120951 0.03481,-0.01797 0.07818,0 0.1172699,0 0.03909,0 0.07818,0 0.1172696,0 0.19545,0 0.390986,0 0.5864925,0 0.03909,0 0.07818,0 0.11727,0 0.03909,0 0.08217,0.01798 0.11727,0 0.04965,-0.02539 0.06791,-0.09547 0.11727,-0.120951 0.07418,-0.03815 0.512507,0.03818 0.586492,0 0.04965,-0.02539 0.06791,-0.09547 0.11727,-0.12095 0.08103,-0.0418 0.54532,0.04248 0.586493,0 0.02853,-0.02853 -0.02853,-0.09245 0,-0.120951 0.02283,-0.02482 0.305387,0.02397 0.351895,0 0.04936,-0.02539 0.06791,-0.09547 0.11727,-0.120951 0.06363,-0.03281 0.437095,0.03307 0.469194,0 0.02853,-0.02853 -0.02853,-0.09245 0,-0.12095 0.05535,-0.05701 0.164635,0.03607 0.23454,0 0.04965,-0.02539 0.06791,-0.09547 0.11727,-0.120951 0.06991,-0.03604 0.164635,0.03607 0.23454,0 0.04965,-0.02539 0.06791,-0.09547 0.11727,-0.120951 0.06991,-0.03607 0.164635,0.03607 0.23454,0 0.04936,-0.02539 0.06791,-0.09547 0.11727,-0.12095 0.03481,-0.01798 0.07818,0 0.11727,0 0.07818,-0.04032 0.161781,-0.07096 0.23454,-0.120951 0.04594,-0.03164 0.06477,-0.102918 0.11727,-0.120951 0.07418,-0.02539 0.160354,0.02539 0.23454,0 0.0525,-0.01798 0.07133,-0.08934 0.11727,-0.120951 0.07276,-0.05002 0.161781,-0.07096 0.23454,-0.12095 0.04594,-0.03164 0.07133,-0.08934 0.11727,-0.120951 0.07276,-0.05002 0.161781,-0.07096 0.23454,-0.120951 0.04594,-0.03161 0.07133,-0.08934 0.11727,-0.12095 0.07276,-0.05002 0.164634,-0.06685 0.23454,-0.120951 0.08845,-0.06842 0.15636,-0.161268 0.23454,-0.241902 0.03909,-0.04032 0.06477,-0.102917 0.11727,-0.12095 0.07418,-0.02539 0.160354,0.02539 0.234539,0 0.0525,-0.01798 0.07133,-0.08934 0.11727,-0.120951 0.05906,-0.266468 0.241388,-0.06394 0.351896,-0.120951 0.04965,-0.02539 0.06791,-0.09547 0.11727,-0.12095 0.03738,-0.0194 0.481663,0 0.586464,0 0.23454,0 0.469222,0 0.703791,0 0.05279,0 0.316201,0.01855 0.351895,0 0.04965,-0.02539 0.06791,-0.09547 0.11727,-0.120951 0.06991,-0.03607 0.164635,0.03607 0.23454,0 0.04965,-0.02539 0.06791,-0.09547 0.11727,-0.120951 0.06991,-0.03607 0.179187,0.05701 0.23454,0 0.02853,-0.02853 -0.02853,-0.09245 0,-0.12095 0.02853,-0.02853 0.08246,0.01797 0.11727,0 0.04965,-0.02539 0.06791,-0.09547 0.11727,-0.120951 0.03481,-0.01798 0.08246,0.01798 0.11727,0 0.04965,-0.02539 0.07818,-0.08066 0.11727,-0.120951 0.09159,-0.09447 0.250804,-0.293269 0.351896,-0.3628463 0.850449,-0.438473 -0.185464,0.1274843 0.351867,-0.2419017 0.07276,-0.050018 0.172909,-0.057208 0.23454,-0.1209507 0.06192,-0.063771 0.05564,-0.1781591 0.11727,-0.2419014 0.0086,-0.0077 0.447337,-0.2268932 0.469194,-0.2419014 0.101291,-0.069563 0.260219,-0.2683799 0.351895,-0.3628436 0.03909,-0.040317 0.07818,-0.080662 0.11727,-0.1209507 0.03909,-0.040317 0.09245,-0.069963 0.11727,-0.1209507 0.01712,-0.036065 -0.02853,-0.092446 0,-0.1209507 0.02853,-0.028533 0.07818,0 0.11727,0 0.04309,0 0.464457,-0.00485 0.469194,0 0.05193,0.053756 -0.0913,0.2284624 0.11727,0.1209507 0.04965,-0.025394 0.06791,-0.095471 0.11727,-0.1209507 0.03481,-0.017976 0.08246,0.017976 0.11727,0 0.04965,-0.025394 0.06791,-0.095471 0.11727,-0.1209507 0.03481,-0.017976 0.07818,0 0.11727,0 0.03909,-0.040317 0.06791,-0.095471 0.11727,-0.1209507 0.03481,-0.017976 0.08217,0.017976 0.11727,0 0.04965,-0.025394 0.06791,-0.095471 0.11727,-0.1209507 0.03481,-0.017976 0.08959,0.028533 0.11727,0 0.02853,-0.028533 -0.02853,-0.092446 0,-0.1209507 0.02853,-0.028533 0.08959,0.028533 0.11727,0 0.02853,-0.028533 -0.02853,-0.092446 0,-0.1209507 0.02853,-0.028533 0.08959,0.028533 0.11727,0 0.02853,-0.028533 -0.02853,-0.092446 0,-0.1209507 0.02853,-0.028533 0.08246,0.017976 0.11727,0 0.389016,-0.4011375 -0.110708,0.057009 0.23454,-0.1209508 0.09501,-0.049048 0.139525,-0.1928534 0.234539,-0.2419014 0.03481,-0.017976 0.08988,0.028533 0.11727,0 0.02853,-0.028533 -0.02853,-0.092446 0,-0.1209507 0.02853,-0.028533 0.08959,-0.028533 0.11727,0 0.02853,0.028533 -0.02853,0.092446 0,0.1209507 0.02853,0.028533 0.08959,-0.028533 0.11727,0 0.02853,0.028533 -0.02853,0.092446 0,0.1209507 0.02853,0.028533 0.08246,-0.017976 0.11727,0 0.04965,0.025394 0.06791,0.095471 0.11727,0.1209507 0.03481,0.017976 0.08959,-0.028533 0.11727,0 0.02853,0.028533 -0.01712,0.084885 0,0.1209508 0.129825,0.2674383 0.07276,0.037549 0.23454,0.1209221 0.259364,0.1337049 0.03652,0.07507 0.11727,0.2419014 0.07818,0.1609538 0.156645,0.080948 0.23454,0.2419015 0.01712,0.036066 -0.02853,0.092446 0,0.1209507 0.02853,0.028533 0.08246,-0.017976 0.11727,0 0.0545,0.027962 0.400202,0.4126561 0.469223,0.4837914 0.03909,0.040317 0.07818,0.080634 0.11727,0.1209507 0.03909,0 0.08959,-0.028533 0.11727,0 0.02853,0.028533 -0.02853,0.092446 0,0.1209507 0.02853,0.028533 0.08018,-0.01284 0.11727,0 0.849622,0.2920279 -0.184893,-0.034867 0.351895,0.2419014 0.03481,0.017976 0.08217,-0.017976 0.11727,0 0.04965,0.025394 0.06477,0.1029179 0.11727,0.1209507 0.05364,0.018546 0.52101,0 0.586493,0 0.273629,0 0.547374,0 0.821061,0 0.07818,0 0.156359,0 0.234539,0 0.03909,0 0.08246,0.017976 0.11727,0 0.04936,-0.025394 0.06791,-0.095471 0.11727,-0.1209507 0.150939,-0.077866 0.120124,0.081632 0.23454,0.1209507 0.07419,0.025394 0.15636,0 0.23454,0 0.0993,0 0.406137,-0.021685 0.469194,0 0.0525,0.017976 0.06477,0.102918 0.11727,0.1209507 0.105572,0.036294 0.246239,-0.036294 0.351896,0 0.08303,0.028533 0.151794,0.092446 0.23454,0.1209507 0.111278,0.038234 0.240532,-0.038234 0.351895,0 0.0525,0.017976 0.06477,0.102918 0.11727,0.1209507 0.07419,0.025394 0.15636,0 0.23454,0 0.03909,0 0.08246,-0.017976 0.11727,0 0.04965,0.025394 0.06791,0.095471 0.11727,0.1209504 0.06991,0.03607 0.179186,-0.057008 0.23454,0 0.02853,0.02853 -0.02853,0.09245 0,0.1209513 0.02853,0.02853 0.08246,-0.01798 0.11727,0 0.04936,0.02539 0.06791,0.09547 0.11727,0.120951 0.03481,0.01797 0.08246,-0.01798 0.11727,0 0.09872,0.05102 0.135531,0.190884 0.23454,0.241901 0.03481,0.01798 0.08246,-0.01798 0.11727,0 0.389017,0.401138 -0.110708,-0.05701 0.23454,0.120951 0.04936,0.02539 0.06791,0.09547 0.11727,0.120951 0.0699,0.03604 0.179186,-0.05701 0.23454,0 0.02853,0.02853 -0.02853,0.09245 0,0.12095 0.05878,0.06049 0.29326,-0.06049 0.351924,0 0.02853,0.02853 -0.02853,0.09245 0,0.120951 0.02853,0.02853 0.08246,-0.01798 0.11727,0 0.04965,0.02539 0.06791,0.09547 0.11727,0.120951 0.03481,0.01798 0.08246,-0.01798 0.11727,0 0.04965,0.02539 0.06791,0.09547 0.11727,0.12095 0.03481,0.01798 0.08959,-0.02853 0.11727,0 0.02853,0.02853 -0.02853,0.09245 0,0.120951 0.02853,0.02853 0.08959,0.02853 0.11727,0 0.02853,-0.02853 -0.02853,-0.09245 0,-0.120951 0.02853,-0.02853 0.07818,0 0.11727,0 0.05279,0 0.316172,-0.01855 0.351895,0 0.0311,0.01598 0.336317,0.330733 0.351867,0.362844 0.01712,0.03606 -0.02853,0.09245 0,0.120951 0.02853,0.02853 0.08246,-0.01798 0.11727,0 0.259363,0.133705 0.03652,0.07507 0.11727,0.241901 0.01427,0.03213 0.320766,0.346791 0.351895,0.362846 0.03481,0.01798 0.08959,-0.02853 0.11727,0 0.02853,0.02853 -0.01712,0.08489 0,0.120951 0.243956,0.503359 -0.0086,-0.129311 0.23454,0.120951 0.02853,0.02853 -0.02853,0.09245 0,0.120951 0.02853,0.02853 0.08988,-0.02853 0.11727,0 0.02853,0.02853 -0.02853,0.09245 0,0.12095 0.05535,0.05701 0.179187,-0.05701 0.23454,0 0.02853,0.02853 -0.02853,0.09245 0,0.120951 0.01141,0.01227 0.340169,0.01227 0.351896,0 0.02853,-0.02853 -0.02853,-0.09245 0,-0.120951 0.02853,-0.02853 0.07818,0 0.11727,0 0.03909,0 0.08959,-0.02853 0.11727,0 0.02853,0.02853 -0.02853,0.09245 0,0.120951 0.02853,0.02853 0.07818,0 0.11727,0 0.23454,0 0.469194,0 0.703791,0 0.03909,0 0.08959,-0.02853 0.11727,0 0.02853,0.02853 -0.02853,0.09245 0,0.120951 0.02853,0.02853 0.08246,-0.01798 0.11727,0 0.04936,0.02539 0.06791,0.09547 0.11727,0.12095 0.06363,0.03279 0.437094,-0.0331 0.469194,0 0.02853,0.02853 -0.02853,0.09245 0,0.120951 0.02853,0.02853 0.08959,0.02853 0.11727,0 0.02853,-0.02853 -0.02853,-0.09245 0,-0.120951 0.02853,-0.02853 0.07818,0 0.11727,0 0.03909,0 0.08246,-0.01797 0.11727,0 0.04936,0.02539 0.06791,0.09547 0.11727,0.120951 0.03481,0.01798 0.08246,-0.01798 0.117269,0 0.536817,0.276769 -0.497755,-0.05013 0.351896,0.241902 0.03709,0.01284 0.08246,-0.01798 0.11727,0 0.536817,0.276768 -0.497727,-0.05013 0.351895,0.241901 0.03709,0.01284 0.07818,0 0.11727,0 0.03909,0.04032 0.06791,0.09547 0.11727,0.120951 0.03481,0.01797 0.08246,-0.01798 0.11727,0 0.04965,0.02539 0.06791,0.09547 0.11727,0.12095 0.03481,0.01798 0.08959,-0.02853 0.11727,0 0.02853,0.02853 -0.02853,0.09245 0,0.120951 0.02853,0.02853 0.08246,-0.01798 0.11727,0 0.04965,0.02539 0.06791,0.09547 0.11727,0.120951 0.06991,0.03604 0.164635,-0.03607 0.23454,0 0.04965,0.02539 0.06791,0.09547 0.11727,0.12095 0.06991,0.03607 0.179186,-0.05701 0.23454,0 0.02853,0.02853 -0.02853,0.09245 0,0.120951 0.02853,0.02853 0.08246,-0.01797 0.11727,0 0.389045,0.401135 -0.110707,-0.05701 0.23454,0.120951 0.04965,0.02539 0.06791,0.09547 0.11727,0.120951 0.03481,0.01797 0.08959,-0.02853 0.11727,0 0.02853,0.02853 -0.02853,0.09245 0,0.12095 0.02853,0.02853 0.08246,-0.01797 0.11727,0 0.04965,0.02539 0.06791,0.09547 0.11727,0.120951 0.03481,0.01798 0.08246,-0.01798 0.11727,0 0.09901,0.05102 0.135531,0.190913 0.23454,0.241901 0.0699,0.03607 0.179186,-0.05701 0.23454,0 0.02853,0.02853 -0.02853,0.09245 0,0.120951 0.02853,0.02853 0.08959,-0.02853 0.11727,0 0.02853,0.02853 -0.01712,0.08488 0,0.120951 0.243955,0.503359 -0.0086,-0.129311 0.23454,0.120951 0.02853,0.02853 -0.02853,0.09245 0,0.12095 0.02853,0.02853 0.08959,-0.02853 0.11727,0 0.02853,0.02853 -0.02853,0.09245 0,0.120951 0.02853,0.02853 0.08959,-0.02853 0.11727,0 0.02853,0.02853 -0.02853,0.09245 0,0.120951 0.02283,0.02482 0.305358,-0.02397 0.351867,0 0.04965,0.02539 0.06791,0.09547 0.11727,0.12095 0.06363,0.03279 0.437094,-0.03307 0.469194,0 0.02853,0.02853 -0.02853,0.09245 0,0.120951 0.02283,0.02482 0.305387,-0.02397 0.351895,0 0.04936,0.02539 0.06791,0.09547 0.11727,0.120951 0.0699,0.03607 0.179186,-0.05701 0.23454,0 0.02853,0.02853 -0.02853,0.09245 0,0.12095 0.02853,0.02853 0.08959,-0.02853 0.11727,0 0.02853,0.02853 -0.02853,0.09245 0,0.120951 0.02853,0.02853 0.08959,-0.02853 0.11727,0 0.02853,0.02853 -0.02853,0.09245 0,0.120951 0.02853,0.02853 0.08959,-0.02853 0.11727,0 0.02853,0.02853 -0.02853,0.09245 0,0.120951 0.05535,0.05701 0.179186,-0.05701 0.23454,0 0.02853,0.02853 -0.02853,0.09245 0,0.12095 0.02853,0.02853 0.08246,-0.01797 0.11727,0 0.04965,0.02539 0.06791,0.09547 0.11727,0.120951 0.03481,0.01798 0.08959,-0.02853 0.11727,0 0.02853,0.02853 -0.02853,0.09245 0,0.120951 0.05535,0.05701 0.179186,-0.05701 0.23454,0 0.02853,0.02853 -0.01712,0.08488 0,0.12095 0.02568,0.05102 0.09245,0.06993 0.11727,0.120951 0.03481,0.07213 -0.03481,0.169771 0,0.241902 0.02568,0.05102 0.09273,0.06996 0.11727,0.12095 0.0029,0.0063 0.0029,0.356518 0,0.362847 -0.02568,0.05102 -0.09986,0.06685 -0.11727,0.12095 -0.02568,0.0765 0.02568,0.165405 0,0.241902 -0.01712,0.0541 -0.08646,0.0735 -0.11727,0.120951 -0.04851,0.07501 -0.06876,0.166888 -0.11727,0.241901 -0.06135,0.0949 -0.19973,0.133733 -0.23454,0.241901 -0.0086,0.02311 -0.01427,0.81455 0,0.846641 0.02568,0.05102 0.09245,0.06996 0.11727,0.120951 0.03196,0.0656 -0.03196,0.450699 0,0.483797 0.02853,0.02853 0.08959,-0.02853 0.11727,0 0.02853,0.02853 -0.01712,0.08488 0,0.120951 0.02568,0.05102 0.09245,0.06996 0.11727,0.12095 0.01712,0.03607 0,0.08066 0,0.120951 0,0.04032 0,0.08066 0,0.120951 0,0.241901 0,0.483794 0,0.72569 0,0.04032 0.02853,0.09245 0,0.12095 -0.02853,0.02853 -0.11727,0.04032 -0.11727,0 0,-0.04032 0.11727,-0.04032 0.11727,0 0,0.04032 -0.08959,-0.02853 -0.11727,0 -0.02853,0.02853 0.02853,0.09245 0,0.120951 -0.05535,0.05701 -0.164635,-0.03607 -0.23454,0 -0.04936,0.02539 -0.06477,0.102918 -0.11727,0.120951 -0.07419,0.02539 -0.158643,-0.01969 -0.23454,0 -0.146088,0.03766 -0.323106,0.204238 -0.469194,0.241901 -0.0759,0.01969 -0.158643,-0.01969 -0.23454,0 -0.169485,0.04371 -0.297712,0.206549 -0.469166,0.241902 -0.114987,0.02368 -0.236822,-0.02368 -0.351924,0 -0.08588,0.01769 -0.153506,0.08745 -0.23454,0.12095 -0.114987,0.04737 -0.237107,0.07362 -0.351895,0.120951 -0.162352,0.06697 -0.299566,0.198161 -0.469194,0.241901 -0.0759,0.01969 -0.158643,-0.01969 -0.23454,0 -0.08503,0.02197 -0.153507,0.08745 -0.23454,0.120951 -0.114987,0.04736 -0.237108,0.07362 -0.351895,0.120951 -0.08103,0.03347 -0.149798,0.09909 -0.23454,0.120951 -0.0759,0.01969 -0.158643,-0.01969 -0.23454,0 -0.169485,0.04374 -0.299538,0.19816 -0.469166,0.241901 -0.0759,0.01969 -0.160354,-0.02539 -0.23454,0 -0.0525,0.01798 -0.06477,0.102918 -0.11727,0.120951 -0.07418,0.02539 -0.160354,-0.02539 -0.23454,0 -0.0525,0.01797 -0.06477,0.102918 -0.11727,0.12095 -0.07418,0.02539 -0.15636,0 -0.23454,0 -0.03909,0 -0.08246,-0.01797 -0.11727,0 -0.04965,0.02539 -0.06791,0.09547 -0.11727,0.120951 -0.05221,0.02682 -0.415523,-0.01855 -0.469194,0 -0.0525,0.01798 -0.06477,0.102918 -0.11727,0.120951 -0.07418,0.02539 -0.160354,-0.02539 -0.234539,0 -0.0525,0.01797 -0.07818,0.08063 -0.11727,0.12095 -0.07818,0.04032 -0.149798,0.09909 -0.23454,0.120951 -0.0759,0.01969 -0.158643,-0.01969 -0.23454,0 -0.212285,-0.07293 -0.218277,0.195935 -0.351867,0.241902 -0.07419,0.02539 -0.160355,-0.02539 -0.23454,0 -0.0525,0.01797 -0.07133,0.08934 -0.11727,0.12095 -0.07276,0.05002 -0.15636,0.08063 -0.23454,0.120951 -0.07818,0.04032 -0.15151,0.09245 -0.23454,0.120951 -0.03709,0.01284 -0.08018,-0.01284 -0.11727,0 -0.08303,0.02853 -0.161781,0.07093 -0.23454,0.120922 -0.04594,0.03164 -0.06477,0.102918 -0.11727,0.120951 -0.07418,0.02539 -0.160355,-0.02539 -0.23454,0 -0.0525,0.01797 -0.06477,0.102918 -0.11727,0.12095 -0.07418,0.02539 -0.160354,-0.02539 -0.23454,0 -0.0525,0.01798 -0.07133,0.08934 -0.11727,0.120951 -0.07276,0.05002 -0.15636,0.08066 -0.23454,0.120951 -0.07818,0.04032 -0.151794,0.09245 -0.23454,0.12095 -0.03709,0.01284 -0.08018,-0.01284 -0.11727,0 -0.08303,0.02853 -0.15636,0.08063 -0.23454,0.120951 -0.23454,0.120951 -0.469194,0.241902 -0.703762,0.362847 -0.07818,0.04032 -0.151795,0.09245 -0.23454,0.12095 -0.03709,0.01284 -0.08018,-0.01284 -0.11727,0 -0.21314,0.07324 -0.217706,0.103517 -0.351895,0.241902 -0.03909,0.04032 -0.06477,0.102918 -0.11727,0.12095 -0.07419,0.0254 -0.160355,-0.02539 -0.23454,0 -0.189458,0.06511 -0.04537,0.176818 -0.23454,0.241902 -0.07419,0.02539 -0.160355,-0.02539 -0.23454,0 -0.105001,0.03606 -0.135531,0.190913 -0.23454,0.241901 -0.03481,0.01798 -0.07818,0 -0.11727,0 -0.07818,0.04032 -0.161781,0.07093 -0.23454,0.120951 -0.04594,0.03164 -0.06477,0.102918 -0.11727,0.120951 -0.533964,0 -0.0057,-0.05701 -0.351896,0.12095 -0.03481,0.01798 -0.07818,0 -0.11727,0 -0.07818,0 -0.160354,-0.02539 -0.234539,0 -0.0525,0.01798 -0.06791,0.09547 -0.11727,0.120951 -0.03481,0.01798 -0.08018,-0.01284 -0.11727,0 -0.08303,0.02853 -0.149798,0.0991 -0.23454,0.120951 -0.0759,0.01969 -0.160355,-0.02539 -0.23454,0 -0.0525,0.01797 -0.07818,0.08066 -0.11727,0.12095 -0.07818,0 -0.158643,-0.01969 -0.23454,0 -0.169485,0.04371 -0.299538,0.198161 -0.469194,0.241902 -0.0759,0.01969 -0.158643,-0.01969 -0.23454,0 -0.08474,0.02197 -0.15151,0.09245 -0.23454,0.120951 -0.03709,0.01284 -0.08018,-0.01284 -0.11727,0 -0.128969,0.04428 -0.340397,0.197618 -0.469194,0.241901 -0.03709,0.01284 -0.08018,-0.01284 -0.11727,0 -0.08303,0.02853 -0.149797,0.09909 -0.23454,0.120951 -0.0759,0.01969 -0.160355,-0.02539 -0.23454,0 -0.0525,0.01797 -0.06477,0.102918 -0.11727,0.12095 -0.533963,0 -0.0057,-0.05701 -0.351895,0.120951 -0.03481,0.01798 -0.07818,0 -0.11727,0 -0.07818,0 -0.160355,-0.02539 -0.23454,0 -0.0525,0.01798 -0.06791,0.09547 -0.11727,0.120951 -0.03481,0.01797 -0.07818,0 -0.11727,0 -0.03909,0.04032 -0.06791,0.09547 -0.11727,0.12095 -0.06991,0.03607 -0.179186,-0.05701 -0.23454,0 -0.02853,0.02853 0.02853,0.09245 0,0.120951 -0.02853,0.02853 -0.08246,-0.01798 -0.11727,0 -0.04965,0.02539 -0.06791,0.09547 -0.11727,0.120951 -0.06991,0.03607 -0.179186,-0.05701 -0.23454,0 -0.02853,0.02853 0.02853,0.09245 0,0.120951 -0.05535,0.05701 -0.164635,-0.03604 -0.23454,0 -0.04965,0.02539 -0.06791,0.09547 -0.11727,0.12095 -0.03481,0.01798 -0.08018,-0.01284 -0.11727,0 -0.08303,0.02853 -0.151509,0.09245 -0.23454,0.120951 -0.03709,0.01284 -0.08246,-0.01798 -0.11727,0 -0.04965,0.02539 -0.06477,0.102918 -0.11727,0.120951 -0.07418,0.02539 -0.15636,0 -0.23454,0 -0.03909,0 -0.08246,-0.01798 -0.11727,0 -0.04965,0.02539 -0.06791,0.09547 -0.11727,0.12095 -0.03481,0.01798 -0.08246,-0.01797 -0.11727,0 -0.04965,0.02539 -0.06791,0.09547 -0.11727,0.120951 -0.06192,0.0319 -0.172623,-0.0319 -0.23454,0 -0.04965,0.02539 -0.06791,0.09547 -0.11727,0.120951 -0.0699,0.03607 -0.164634,-0.03607 -0.23454,0 -0.04965,0.02539 -0.06791,0.09547 -0.117269,0.120951 -0.03481,0.01797 -0.08959,-0.02853 -0.11727,0 -0.02853,0.02853 0.02853,0.09245 0,0.12095 -0.05535,0.05701 -0.179187,-0.05701 -0.23454,0 -0.02853,0.02853 0.02853,0.09245 0,0.120951 -0.02853,0.02853 -0.07818,0 -0.11727,0 -0.03909,0 -0.07818,0 -0.11727,0 -0.03909,0 -0.08246,0.01798 -0.11727,0 -0.04936,-0.02539 -0.06791,-0.09547 -0.11727,-0.120951 -0.03481,-0.01797 -0.08959,0.02853 -0.11727,0 -0.02853,-0.02853 0.02853,-0.09245 0,-0.12095 -0.02853,-0.02853 -0.08217,0.01797 -0.11727,0 -0.04965,-0.02539 -0.06791,-0.09547 -0.11727,-0.120951 -0.03481,-0.01798 -0.08246,0.01798 -0.11727,0 -0.04965,-0.02539 -0.06791,-0.09547 -0.11727,-0.120951 -0.06991,-0.03607 -0.164635,0.03607 -0.23454,0 -0.04936,-0.02539 -0.06791,-0.09547 -0.11727,-0.120951 -0.07362,-0.03803 -0.395465,0.03803 -0.469194,0 -0.04936,-0.02539 -0.06477,-0.102918 -0.11727,-0.12095 -0.108425,-0.03726 -0.477098,0.03761 -0.586493,0 -0.08303,-0.02853 -0.151794,-0.09245 -0.234539,-0.120951 -0.03709,-0.01284 -0.08246,0.01798 -0.11727,0 -0.04936,-0.02539 -0.06791,-0.09547 -0.11727,-0.120951 -0.03481,-0.01797 -0.08246,0.01798 -0.11727,0 -0.04936,-0.02539 -0.06791,-0.09547 -0.11727,-0.12095 -0.03481,-0.01798 -0.08246,0.01797 -0.11727,0 -0.04936,-0.02539 -0.06791,-0.09547 -0.11727,-0.120951 -0.03481,-0.01798 -0.08246,0.01798 -0.11727,0 -0.04965,-0.02539 -0.06477,-0.102918 -0.11727,-0.120951 -0.533964,0 -0.0086,0.05701 -0.351896,-0.120951 -0.03481,-0.01797 -0.07818,0 -0.11727,0 -0.07818,0 -0.160354,0.02539 -0.23454,0 -0.0525,-0.01797 -0.06791,-0.09547 -0.11727,-0.12095 -0.06991,-0.03607 -0.160354,0.02539 -0.23454,0 -0.08303,-0.02853 -0.151794,-0.09245 -0.234539,-0.120951 -0.07419,-0.02539 -0.164635,0.03607 -0.23454,0 -0.04965,-0.02539 -0.06791,-0.09547 -0.11727,-0.120951 -0.06991,-0.03607 -0.160355,0.02539 -0.23454,0 -0.08303,-0.02853 -0.151795,-0.09245 -0.23454,-0.12095 -0.03709,-0.01284 -0.08018,0.01284 -0.11727,0 -0.08303,-0.02853 -0.149798,-0.09909 -0.23454,-0.120951 -0.0759,-0.01969 -0.160355,0.02539 -0.23454,0 -0.0525,-0.01798 -0.06477,-0.102918 -0.11727,-0.120951 -0.07418,-0.02539 -0.158643,0.01969 -0.23454,0 -0.08474,-0.02197 -0.149797,-0.09909 -0.23454,-0.12095 -0.0759,-0.01969 -0.160355,0.02539 -0.23454,0 -0.0525,-0.01798 -0.06477,-0.102918 -0.11727,-0.120951 -0.07418,-0.02539 -0.160354,0.02539 -0.23454,0 -0.0525,-0.01798 -0.06791,-0.09547 -0.11727,-0.120951 -0.03481,-0.01798 -0.08246,0.01798 -0.11727,0 -0.04965,-0.02539 -0.06791,-0.09547 -0.11727,-0.120951 -0.03481,-0.01797 -0.08246,0.01798 -0.11727,0 -0.04965,-0.02539 -0.06791,-0.09547 -0.11727,-0.12095 -0.03481,-0.01798 -0.08246,0.01797 -0.11727,0 -0.04965,-0.02539 -0.06791,-0.09547 -0.11727,-0.120951 -0.03481,-0.01798 -0.08217,0.01798 -0.11727,0 -0.09901,-0.05102 -0.135531,-0.190913 -0.23454,-0.241901 -0.03481,-0.01798 -0.08246,0.01797 -0.11727,0 -0.389016,-0.401135 0.110708,0.05701 -0.234539,-0.120951 -0.04936,-0.02539 -0.06791,-0.09547 -0.11727,-0.120951 -0.03481,-0.01798 -0.08246,0.01798 -0.11727,0 -0.04965,-0.02539 -0.06791,-0.09547 -0.11727,-0.120951 -0.03481,-0.01797 -0.07818,0 -0.11727,0 -0.03909,-0.04032 -0.06791,-0.09547 -0.11727,-0.12095 -0.03481,-0.01798 -0.08959,0.02853 -0.11727,0 -0.02853,-0.02853 0.02853,-0.09245 0,-0.120951 -0.02853,-0.02853 -0.08959,0.02853 -0.11727,0 -0.02853,-0.02853 0.02853,-0.09245 0,-0.120951 -0.0388,-0.04 -0.195736,0.04 -0.23454,0 -0.02853,-0.02853 0.02853,-0.09245 0,-0.12095 -0.02853,-0.02853 -0.08246,0.01797 -0.11727,0 -0.04965,-0.0254 -0.06791,-0.09547 -0.11727,-0.120951 -0.06192,-0.03201 -0.172624,0.03198 -0.23454,0 -0.04965,-0.02539 -0.07818,-0.08066 -0.11727,-0.120951 -0.07818,0 -0.160355,0.02539 -0.23454,0 -0.0525,-0.01797 -0.06477,-0.102918 -0.11727,-0.12095 -0.176048,-0.06049 -0.41053,0.06049 -0.586464,0 -0.0525,-0.01798 -0.06791,-0.09547 -0.11727,-0.120951 -0.03481,-0.01798 -0.07818,0 -0.11727,0 -0.07818,0 -0.160354,0.02539 -0.23454,0 -0.0525,-0.01798 -0.06791,-0.09547 -0.11727,-0.120951 -0.06991,-0.03604 -0.164634,0.03607 -0.23454,0 -0.04936,-0.02539 -0.06791,-0.09547 -0.11727,-0.120951 -0.03481,-0.01797 -0.08246,0.01798 -0.11727,0 -0.04965,-0.02539 -0.06791,-0.09547 -0.11727,-0.12095 -0.03481,-0.01798 -0.08246,0.01797 -0.11727,0 -0.09872,-0.05102 -0.129824,-0.205836 -0.23454,-0.241902 -0.07418,-0.02539 -0.158642,0.01969 -0.234539,0 -0.6645585,-0.342628 0.174906,0.04511 -0.4691935,-0.12095 -0.08474,-0.02197 -0.149798,-0.09909 -0.23454,-0.120951 -0.2037249,-0.0525 -0.500124,0.05253 -0.7037629,0 -0.084742,-0.02197 -0.1497974,-0.0991 -0.2345399,-0.120951 -0.1149874,-0.02964 -0.6360256,0.03492 -0.7037625,0 -0.049362,-0.02539 -0.067908,-0.09547 -0.11727,-0.120951 -0.069906,-0.03607 -0.1646345,0.03604 -0.2345399,0 -0.3890453,-0.401137 0.1107074,0.05701 -0.23454,-0.12095 -0.049362,-0.02539 -0.06477,-0.102918 -0.1172699,-0.120951 -0.074185,-0.02539 -0.1603546,0.02539 -0.23454,0 -0.0525,-0.01798 -0.064769,-0.102918 -0.11727,-0.120951 -0.111278,-0.03823 -0.2405318,0.03826 -0.3518955,0 -0.083031,-0.02853 -0.1517947,-0.09245 -0.2345399,-0.12095 -0.074185,-0.02539 -0.1646345,0.03607 -0.2345399,0 -0.049362,-0.02539 -0.067908,-0.09547 -0.11727,-0.120951 -0.046509,-0.02397 -0.3278994,0.02482 -0.3518955,0 -0.028533,-0.02853 0.01712,-0.08488 0,-0.120951 -0.02568,-0.05102 -0.092446,-0.06996 -0.11727,-0.12095 -0.01712,-0.03607 0.01712,-0.08489 0,-0.120951 -0.025679,-0.05102 -0.07818,-0.08066 -0.11727,-0.120951 -0.03909,-0.04032 -0.067908,-0.09547 -0.1172699,-0.120951 -0.03481,-0.01797 -0.08246,0.01798 -0.11727,0 -0.049647,-0.02539 -0.06477,-0.102918 -0.11727,-0.12095 -0.074185,-0.02539 -0.1603545,0.02539 -0.2345399,0 -0.0525,-0.01798 -0.067908,-0.09547 -0.11727,-0.120951 -0.069905,-0.03607 -0.1603545,0.02539 -0.2345399,0 -0.083031,-0.02853 -0.1517947,-0.09245 -0.23454,-0.120951 -0.06477,-0.02225 -0.4441136,0.02596 -0.469194,0 -0.028533,-0.02853 0.028533,-0.09245 0,-0.12095 -0.055354,-0.05701 -0.1791862,0.05701 -0.2345399,0 -0.028533,-0.02853 0.028533,-0.09245 0,-0.120951 -0.028533,-0.02853 -0.08246,0.01798 -0.11727,0 -0.049362,-0.02539 -0.067908,-0.09547 -0.11727,-0.120951 -0.03481,-0.01798 -0.08246,0.01798 -0.1172699,0 -0.049647,-0.02539 -0.067908,-0.09547 -0.11727,-0.120951 -0.03481,-0.01797 -0.082175,0.01798 -0.11727,0 -0.049362,-0.02539 -0.067908,-0.09547 -0.1172699,-0.12095 -0.069905,-0.03607 -0.1646345,0.03607 -0.23454,0 -0.049647,-0.02539 -0.067908,-0.09547 -0.1172699,-0.120922 -0.069905,-0.03604 -0.1646345,0.03607 -0.23454,0 -0.049362,-0.02539 -0.067908,-0.09547 -0.11727,-0.120951 -0.069905,-0.03607 -0.1646344,0.03607 -0.2345399,0 -0.049362,-0.02539 -0.067908,-0.09547 -0.11727,-0.120951 -0.069905,-0.03607 -0.1646344,0.03607 -0.2345399,0 -0.049647,-0.02539 -0.067908,-0.09547 -0.11727,-0.120951 -0.093873,-0.04839 -0.2579368,0.04839 -0.351867,0 -0.049647,-0.02539 -0.067908,-0.09547 -0.1172699,-0.12095 -0.1617812,-0.08343 -0.1050009,0.146459 -0.23454,-0.120951 -0.00285,-0.0063 -0.00285,-0.356521 0,-0.362846 0.02568,-0.05102 0.092446,-0.06996 0.11727,-0.120951 0.01712,-0.03607 -0.01712,-0.08488 0,-0.120951 0.02568,-0.05102 0.092446,-0.06996 0.11727,-0.12095 0.03481,-0.07213 -0.03481,-0.169771 0,-0.241902 0.02568,-0.05102 0.092446,-0.06996 0.1172699,-0.120951 0.047079,-0.09675 -0.047079,-0.266097 0,-0.362846 0.02568,-0.05102 0.092446,-0.06999 0.11727,-0.120951 0.01712,-0.03607 -0.01712,-0.08488 0,-0.12095 0.02568,-0.05102 0.092446,-0.06996 0.11727,-0.120951 0.03481,-0.07213 -0.03481,-0.169771 0,-0.241902 0.025679,-0.05102 0.092446,-0.06996 0.11727,-0.12095 0.01712,-0.03607 0,-0.08066 0,-0.120951 0,-0.04032 0.028533,-0.09245 0,-0.120951 -0.028533,-0.02853 -0.089593,0.02853 -0.11727,0 -0.058778,-0.06049 0.058778,-0.302371 0,-0.362846 -0.028533,-0.02853 -0.089593,0.02853 -0.11727,0 -0.01712,-0.01712 -0.011413,-0.338034 0,-0.362844 0.02568,-0.05102 0.092446,-0.06993 0.11727,-0.12095 0.022826,-0.04796 -0.022826,-0.33812 0,-0.362847 0.028533,-0.02853 0.089593,0.02853 0.11727,0 0.028533,-0.02853 -0.00571,-0.0812 0,-0.12095 0.032813,-0.202783 0.07818,-0.403161 0.5864639,-0.604743 z"
       id="path3782"
       inkscape:connector-curvature="0" />
    <path
       sodipodi:type="arc"
       style="fill:#ffffff;fill-opacity:1;stroke:#000000;stroke-width:0.2;stroke-miterlimit:4;stroke-opacity:1;stroke-dasharray:none"
       id="path4011"
       sodipodi:cx="-4.920188"
       sodipodi:cy="11.530517"
       sodipodi:rx="1.0892019"
       sodipodi:ry="1.0892019"
       d="m -3.830986,11.530517 c 0,0.601549 -0.4876523,1.089202 -1.089202,1.089202 -0.6015496,0 -1.0892019,-0.487653 -1.0892019,-1.089202 0,-0.60155 0.4876523,-1.089202 1.0892019,-1.089202 0.6015497,0 1.089202,0.487652 1.089202,1.089202 z"
       transform="matrix(0.77243772,0,0,0.79648192,19.827237,-3.7614081)" />
    <g
       id="g3916"
       transform="matrix(0.05956005,-0.91949192,0.89173426,0.061414,-4.5154687,-7.3544889)">
      <path
         inkscape:connector-curvature="0"
         id="path3902"
         d="m -12.319249,20.657277 -1.42723,8.56338 2.629108,0.225352 -1.201878,-8.788732 z"
         style="fill:#000000;fill-opacity:1;stroke:#000000;stroke-width:0.2;stroke-linecap:butt;stroke-linejoin:miter;stroke-miterlimit:4;stroke-opacity:1;stroke-dasharray:none" />
      <path
         inkscape:connector-curvature="0"
         style="fill:url(#linearGradient3920);fill-opacity:1;stroke:#000000;stroke-width:0.2;stroke-linecap:butt;stroke-linejoin:miter;stroke-miterlimit:4;stroke-opacity:1;stroke-dasharray:none"
         d="m -12.319249,20.657277 -1.42723,8.56338 2.629108,0.225352 -1.201878,-8.788732 z"
         id="path3906" />
    </g>
    <g
       transform="matrix(-0.05956005,-0.91949192,-0.89173426,0.061414,52.012394,-6.6915141)"
       id="g3922">
      <path
         inkscape:connector-curvature="0"
         style="fill:#000000;fill-opacity:1;stroke:#000000;stroke-width:0.2;stroke-linecap:butt;stroke-linejoin:miter;stroke-miterlimit:4;stroke-opacity:1;stroke-dasharray:none"
         d="m -12.319249,20.657277 -1.42723,8.56338 2.629108,0.225352 -1.201878,-8.788732 z"
         id="path3924" />
      <path
         inkscape:connector-curvature="0"
         id="path3926"
         d="m -12.319249,20.657277 -1.42723,8.56338 2.629108,0.225352 -1.201878,-8.788732 z"
         style="fill:url(#linearGradient3928);fill-opacity:1;stroke:#000000;stroke-width:0.2;stroke-linecap:butt;stroke-linejoin:miter;stroke-miterlimit:4;stroke-opacity:1;stroke-dasharray:none" />
    </g>
    <g
       id="g3824"
       transform="matrix(1.7118765,0,0,1.3914575,32.835958,-6.4348784)"
       style="stroke:#000000;stroke-width:0.22526175;stroke-miterlimit:4;stroke-opacity:1;stroke-dasharray:none">
      <path
         d="m -0.6009388,15.023474 c 0,2.406198 -1.9506093,4.356807 -4.3568077,4.356807 -2.4061985,0 -4.3568077,-1.950609 -4.3568077,-4.356807 0,-2.406199 1.9506092,-4.356808 4.3568077,-4.356808 2.4061984,0 4.3568077,1.950609 4.3568077,4.356808 z"
         sodipodi:ry="4.3568077"
         sodipodi:rx="4.3568077"
         sodipodi:cy="15.023474"
         sodipodi:cx="-4.9577465"
         id="path3784"
         style="fill:#b3b3b3;fill-opacity:1;stroke:#000000;stroke-width:0.22526175;stroke-miterlimit:4;stroke-opacity:1;stroke-dasharray:none"
         sodipodi:type="arc" />
      <path
         sodipodi:type="arc"
         style="fill:url(#linearGradient3813);fill-opacity:1;stroke:#9c9c9c;stroke-width:0.22526175;stroke-miterlimit:4;stroke-opacity:1;stroke-dasharray:none"
         id="path3810"
         sodipodi:cx="-4.9577465"
         sodipodi:cy="15.023474"
         sodipodi:rx="4.3568077"
         sodipodi:ry="4.3568077"
         d="m -0.6009388,15.023474 c 0,2.406198 -1.9506093,4.356807 -4.3568077,4.356807 -2.4061985,0 -4.3568077,-1.950609 -4.3568077,-4.356807 0,-2.406199 1.9506092,-4.356808 4.3568077,-4.356808 2.4061984,0 4.3568077,1.950609 4.3568077,4.356808 z" />
    </g>
    <path
       d="m -0.6009388,15.023474 c 0,2.406198 -1.9506093,4.356807 -4.3568077,4.356807 -2.4061985,0 -4.3568077,-1.950609 -4.3568077,-4.356807 0,-2.406199 1.9506092,-4.356808 4.3568077,-4.356808 2.4061984,0 4.3568077,1.950609 4.3568077,4.356808 z"
       sodipodi:ry="4.3568077"
       sodipodi:rx="4.3568077"
       sodipodi:cy="15.023474"
       sodipodi:cx="-4.9577465"
       id="path3786"
       style="fill:#b3b3b3;fill-opacity:1;stroke:#999999;stroke-width:0.31110433;stroke-miterlimit:4;stroke-opacity:1;stroke-dasharray:none"
       sodipodi:type="arc"
       transform="matrix(1.2396347,0,0,1.0076072,30.494696,-8.8208772)" />
    <path
       transform="matrix(1.2396347,0,0,1.0076072,30.494696,-8.8208772)"
       sodipodi:type="arc"
       style="fill:url(#linearGradient3827);fill-opacity:1;stroke:none"
       id="path3800"
       sodipodi:cx="-4.9577465"
       sodipodi:cy="15.023474"
       sodipodi:rx="4.3568077"
       sodipodi:ry="4.3568077"
       d="m -0.6009388,15.023474 c 0,2.406198 -1.9506093,4.356807 -4.3568077,4.356807 -2.4061985,0 -4.3568077,-1.950609 -4.3568077,-4.356807 0,-2.406199 1.9506092,-4.356808 4.3568077,-4.356808 2.4061984,0 4.3568077,1.950609 4.3568077,4.356808 z" />
    <path
       transform="matrix(0.76739294,0,0,0.62375686,28.024865,-9.3254719)"
       sodipodi:type="arc"
       style="fill:#b3b3b3;fill-opacity:1;stroke:#a38f8f;stroke-width:0.50250697;stroke-miterlimit:4;stroke-opacity:1;stroke-dasharray:none"
       id="path3788"
       sodipodi:cx="-4.9577465"
       sodipodi:cy="15.023474"
       sodipodi:rx="4.3568077"
       sodipodi:ry="4.3568077"
       d="m -0.6009388,15.023474 c 0,2.406198 -1.9506093,4.356807 -4.3568077,4.356807 -2.4061985,0 -4.3568077,-1.950609 -4.3568077,-4.356807 0,-2.406199 1.9506092,-4.356808 4.3568077,-4.356808 2.4061984,0 4.3568077,1.950609 4.3568077,4.356808 z" />
    <path
       d="m -0.6009388,15.023474 c 0,2.406198 -1.9506093,4.356807 -4.3568077,4.356807 -2.4061985,0 -4.3568077,-1.950609 -4.3568077,-4.356807 0,-2.406199 1.9506092,-4.356808 4.3568077,-4.356808 2.4061984,0 4.3568077,1.950609 4.3568077,4.356808 z"
       sodipodi:ry="4.3568077"
       sodipodi:rx="4.3568077"
       sodipodi:cy="15.023474"
       sodipodi:cx="-4.9577465"
       id="path3790"
       style="fill:url(#linearGradient3829);fill-opacity:1;stroke:none"
       sodipodi:type="arc"
       transform="matrix(0.76739294,0,0,0.62375686,28.024865,-9.4142518)" />
    <rect
       style="fill:#000000;fill-opacity:1;stroke:#000000;stroke-width:0.1344533;stroke-miterlimit:4;stroke-opacity:1;stroke-dasharray:none"
       id="rect3878"
       width="1.3402299"
       height="0.93996423"
       x="18.223812"
       y="-8.7094975"
       transform="matrix(0.94612691,0.32379604,-0.59830833,0.80126596,0,0)" />
    <rect
       transform="matrix(0.94612691,0.32379604,-0.59830833,0.80126596,0,0)"
       y="-9.6281424"
       x="20.497065"
       height="0.93996423"
       width="1.3402299"
       id="rect3880"
       style="fill:#000000;fill-opacity:1;stroke:#000000;stroke-width:0.1344533;stroke-miterlimit:4;stroke-opacity:1;stroke-dasharray:none" />
    <path
       inkscape:connector-curvature="0"
       style="fill:#ffb900;fill-opacity:1;stroke:#ffbc00;stroke-width:0.271018px;stroke-linecap:butt;stroke-linejoin:miter;stroke-opacity:1"
       d="m 23.954427,0.12934677 -0.657454,1.42468173 2.103869,0 -1.446415,-1.42468173 z"
       id="path3900" />
    <path
       style="fill:#babdb6;fill-opacity:1;stroke:none"
       d="m 2.1270049,17.940606 c 0.174621,0 0.1497974,-0.01797 0.351867,0.120951 0.045938,0.03161 0.064769,0.102918 0.1172699,0.120951 0.074185,0.02539 0.1586426,-0.01969 0.23454,0 0.2122843,-0.07293 0.2182762,0.195935 0.3518955,0.241901 0.074185,0.02539 0.1603545,-0.02539 0.2345399,0 0.0525,0.01798 0.067908,0.09547 0.11727,0.120951 0.03481,0.01797 0.08246,-0.01798 0.11727,0 0.049647,0.02539 0.067908,0.09547 0.1172699,0.12095 0.03481,0.01798 0.08246,-0.01797 0.11727,0 0.049362,0.02539 0.067908,0.09547 0.11727,0.120951 0.03481,0.01798 0.08246,-0.01798 0.1172699,0 0.049362,0.02539 0.067908,0.09547 0.11727,0.120951 0.03481,0.01798 0.07818,0 0.11727,0 0.03909,0 0.07818,0 0.1172699,0 0.23454,0 0.4691941,0 0.7037911,0 0.03909,0 0.07818,0 0.1172699,0 0.03909,0 0.089593,0.02853 0.11727,0 0.028533,-0.02853 -0.028533,-0.09245 0,-0.120951 0.028533,-0.02853 0.07818,0 0.11727,0 0.03909,0 0.07818,0 0.1172699,0 0.19545,0 0.3909855,0 0.5864926,0 0.07818,0 0.1603545,0.02539 0.2345399,0 0.0525,-0.01798 0.064769,-0.102918 0.11727,-0.120951 0.1760476,-0.06049 0.410559,0.06049 0.5864925,0 0.0525,-0.01797 0.067908,-0.09547 0.1172699,-0.12095 0.00571,-0.0031 0.345761,-0.0031 0.3519241,0 0.049362,0.02539 0.067908,0.09547 0.11727,0.12095 0.03481,0.01798 0.07818,0 0.1172699,0 0.03909,0 0.07818,0 0.11727,0 0.2736299,0 0.547374,0 0.8210895,0 0.11727,0 0.2405319,-0.03823 0.3518955,0 0.052501,0.01798 0.067908,0.09547 0.11727,0.120951 0.069905,0.03604 0.1646345,-0.03607 0.2345398,0 0.04936,0.02539 0.06791,0.09547 0.11727,0.120951 0.06991,0.03607 0.164635,-0.03607 0.23454,0 0.04936,0.02539 0.06791,0.09547 0.11727,0.120951 0.034811,0.01797 0.08246,-0.01798 0.1172695,0 0.04965,0.02539 0.06791,0.09547 0.11727,0.12095 0.06991,0.03604 0.179186,-0.05701 0.23454,0 0.02853,0.02853 -0.02853,0.09245 0,0.120951 0.05535,0.05701 0.164634,-0.03606 0.23454,0 0.09901,0.05102 0.135531,0.190913 0.23454,0.241901 0.03481,0.01798 0.07818,0 0.11727,0 0.03909,0.04032 0.06791,0.09547 0.11727,0.120951 0.03481,0.01798 0.08959,-0.02853 0.11727,0 0.05535,0.05701 -0.05535,0.184893 0,0.241902 0.02853,0.02853 0.08217,-0.01798 0.11727,0 0.0311,0.01598 0.336316,0.330732 0.351895,0.362846 0.01712,0.03607 -0.02853,0.09245 0,0.120951 0.02853,0.02853 0.08959,-0.02853 0.11727,0 0.02853,0.02853 -0.02853,0.09245 0,0.12095 0.02853,0.02853 0.08959,-0.02853 0.11727,0 0.02853,0.02853 -0.01712,0.08489 0,0.120951 0.04965,0.102005 0.185178,0.139897 0.23454,0.241901 0.01712,0.03607 -0.01712,0.08489 0,0.120951 0.07048,0.145118 0.281619,0.217706 0.351896,0.362844 0.01712,0.03607 -0.02853,0.09245 0,0.12095 0.02853,0.02853 0.08959,-0.02853 0.11727,0 0.02853,0.02853 -0.02853,0.09245 0,0.120951 0.02853,0.02853 0.08988,-0.02853 0.117269,0 0.02853,0.02853 -0.01712,0.08488 0,0.120951 0.243956,0.503359 -0.0086,-0.129311 0.23454,0.120951 0.02853,0.02853 -0.02853,0.09245 0,0.12095 0.02853,0.02853 0.08959,-0.02853 0.11727,0 0.02853,0.02853 -0.02853,0.09245 0,0.120951 0.05535,0.05701 0.179187,-0.05701 0.23454,0 0.02853,0.02853 -0.02853,0.09245 0,0.120951 0.02853,0.02853 0.08246,-0.01798 0.11727,0 0.04936,0.02539 0.06791,0.09547 0.11727,0.12095 0.06192,0.03201 0.172624,-0.03199 0.23454,0 0.04965,0.02539 0.06791,0.09547 0.11727,0.120951 0.04651,0.02397 0.3279,-0.02482 0.351896,0 0.02853,0.02853 -0.02853,0.09245 0,0.120951 0.03196,0.03307 0.405565,-0.03278 0.469194,0 0.289893,0.149426 -0.04052,0.120951 0.23454,0.120951 0.08303,0 0.67346,0.01569 0.703762,0 0.04965,-0.02539 0.06791,-0.09547 0.11727,-0.120951 0.0739,-0.03801 0.395465,0.03803 0.469194,0 0.04936,-0.02539 0.06477,-0.102918 0.11727,-0.120951 0.07418,-0.02539 0.15636,0 0.23454,0 0.03909,0 0.08246,0.01798 0.11727,0 0.04936,-0.02539 0.06791,-0.09547 0.11727,-0.120951 0.04651,-0.02397 0.327928,0.02482 0.351895,0 0.02853,-0.02853 -0.02853,-0.09245 0,-0.12095 0.02853,-0.02853 0.07818,0 0.11727,0 0.0816,0 0.544093,-0.02197 0.586522,0 0.04936,0.02539 0.06791,0.09547 0.117269,0.12095 0.06991,0.03607 0.164635,-0.03604 0.23454,0 0.04965,0.02539 0.06791,0.09547 0.11727,0.120951 0.0622,0.03204 0.172339,-0.03204 0.23454,0 0.04965,0.02539 0.07818,0.08063 0.11727,0.120951 0.03909,0.04032 0.09245,0.06999 0.11727,0.120951 0.01712,0.03607 -0.01712,0.08488 0,0.12095 0.243956,0.503359 -0.0086,-0.129311 0.23454,0.120951 0.02853,0.02853 -0.02853,0.09245 0,0.120951 0.02283,0.02482 0.305387,-0.02397 0.351896,0 0.04965,0.02539 0.06791,0.09547 0.11727,0.12095 0.04251,0.02197 0.504888,0 0.586464,0 0.508312,0 1.016568,0 1.52488,0 0.03909,0 0.08246,0.01798 0.11727,0 0.03053,-0.01569 0.14295,-0.215508 0.23454,-0.12095 0.02853,0.02853 -0.02853,0.09245 0,0.12095 0.03624,0.03743 0.55017,-0.03746 0.586493,0 0.02853,0.02853 -0.02853,0.09245 0,0.120951 0.0388,0.04003 0.195735,-0.04003 0.23454,0 0.03852,0.03966 -0.03852,0.202241 0,0.241901 0.02853,0.02853 0.08959,-0.02853 0.11727,0 0.02853,0.02853 -0.02853,0.09245 0,0.120951 0.02853,0.02853 0.08959,-0.02853 0.11727,0 0.02853,0.02853 -0.02853,0.09245 0,0.120951 0.05535,0.05701 0.164634,-0.03607 0.234539,0 0.04936,0.02539 0.06791,0.09547 0.11727,0.120951 0.03481,0.01797 0.07818,0 0.11727,0 0.03909,0 0.07818,0 0.11727,0 0.23454,0 0.469194,0 0.703791,0 0.08103,0 0.433528,0.01826 0.469194,0 0.289866,-0.149427 -0.04052,-0.120951 0.23454,-0.120951 0.07818,0 0.160355,0.02539 0.23454,0 0.08303,-0.02853 0.149798,-0.09909 0.23454,-0.120951 0.113846,-0.02936 0.240532,0.03823 0.351867,0 0.08303,-0.02853 0.149798,-0.09909 0.23454,-0.120951 0.151795,-0.03912 0.317485,0.03912 0.469194,0 0.08503,-0.02197 0.149798,-0.09909 0.23454,-0.12095 0.0759,-0.01969 0.15636,0 0.23454,0 0.03909,0 0.08246,0.01797 0.11727,0 0.04965,-0.02539 0.06791,-0.09547 0.11727,-0.120951 0.06991,-0.03604 0.179186,0.05701 0.23454,0 0,-0.322527 -0.03909,0.04032 0.11727,-0.120951 0.02853,-0.02853 -0.02853,-0.09245 0,-0.12095 0.02853,-0.02853 0.08959,0.02853 0.11727,0 0.02853,-0.02853 -0.02853,-0.09245 0,-0.120951 0.05535,-0.05701 0.164634,0.03606 0.23454,0 0.04965,-0.02539 0.06791,-0.09547 0.11727,-0.120951 0.0699,-0.03607 0.164634,0.03607 0.23454,0 0.04965,-0.02539 0.06791,-0.09547 0.11727,-0.12095 0.09387,-0.04839 0.257937,0.04839 0.351895,0 0.04936,-0.02539 0.06791,-0.09547 0.11727,-0.120951 0.03481,-0.01798 0.08246,0.01798 0.11727,0 0.04936,-0.02539 0.06791,-0.09547 0.11727,-0.120951 0.03481,-0.01798 0.08959,0.02853 0.11727,0 0.02853,-0.02853 -0.02853,-0.09245 0,-0.120951 0.457752,-0.47203 0.06306,0.02796 0.351867,-0.12095 0.09901,-0.05102 0.135531,-0.190885 0.23454,-0.241902 0.03481,-0.01797 0.08246,0.01798 0.11727,0 0.04965,-0.02539 0.06791,-0.09547 0.11727,-0.12095 0.03481,-0.01798 0.08018,0.01284 0.11727,0 0.08303,-0.02853 0.151509,-0.09245 0.23454,-0.120951 0.07418,-0.02539 0.164634,0.03604 0.23454,0 0.04936,-0.02539 0.06791,-0.09547 0.11727,-0.120951 0.09387,-0.04839 0.257937,0.04839 0.351895,0 0.04936,-0.02539 0.06791,-0.09547 0.11727,-0.120951 0.06933,-0.03569 0.271348,0.02768 0.351896,0 0.08303,-0.02853 0.151509,-0.09245 0.23454,-0.12095 0.124688,-0.04286 0.344534,0.04286 0.469165,0 0.0525,-0.01798 0.06791,-0.09547 0.11727,-0.120951 0.03481,-0.01798 0.07818,0 0.11727,0 0.07818,0 0.160355,0.02539 0.23454,0 0.0525,-0.01798 0.06791,-0.09547 0.11727,-0.120951 0.07447,-0.03835 0.510281,0.03929 0.586464,0 0.04965,-0.02539 0.06477,-0.102918 0.11727,-0.12095 0.06306,-0.02168 0.369871,0 0.469194,0 0.312777,0 0.625582,0 0.938359,0 0.05279,0 0.316201,0.01855 0.351896,0 0.09901,-0.05102 0.135531,-0.190914 0.23454,-0.241902 0.03481,-0.01797 0.08246,0.01798 0.11727,0 0.104145,-0.05361 0.245097,-0.289443 0.351895,-0.362843 0.07276,-0.05002 0.161782,-0.07096 0.23454,-0.120951 0.172624,-0.118668 0.296599,-0.365149 0.469194,-0.483794 0.269636,-0.185407 0.316772,-0.05649 0.586493,-0.241902 0.04594,-0.03161 0.07133,-0.08934 0.11727,-0.12095 0.07276,-0.05002 0.161781,-0.07096 0.23454,-0.120951 0.04594,-0.03162 0.06791,-0.09547 0.11727,-0.120951 0.03481,-0.01798 0.08246,0.01798 0.11727,0 0.09901,-0.05102 0.129824,-0.205836 0.23454,-0.241901 0.07418,-0.02539 0.160354,0.02539 0.23454,0 0.10443,-0.0359 0.247379,-0.326961 0.351895,-0.362844 0.778062,0 -0.165776,0.05701 0.351896,-0.120951 0.07418,-0.02539 0.158642,0.01969 0.23454,0 0.08503,-0.02197 0.151794,-0.09245 0.234539,-0.12095 0.03709,-0.01284 0.07818,0 0.11727,0 0.11727,0 0.236823,0.02368 0.351896,0 0.08588,-0.01769 0.149797,-0.0991 0.23454,-0.120951 0.0759,-0.01969 0.15636,0 0.23454,0 0.07818,0 0.15636,0 0.23454,0 0.27363,0 0.547374,0 0.821089,0 0.19545,0 0.390986,0 0.586464,0 0.03909,0 0.07818,0 0.11727,0 0.03909,0 0.08246,-0.01798 0.11727,0 0.04965,0.02539 0.06791,0.09547 0.11727,0.120951 0.01141,0.0051 0.459179,0.0051 0.469166,0 0.04965,-0.02539 0.06791,-0.09547 0.11727,-0.120951 0.03481,-0.01798 0.07818,0 0.11727,0 0.03909,0 0.07818,0 0.11727,0 0.05535,0 0.581156,0.0057 0.586492,0 0.02853,-0.02853 -0.02853,-0.09245 0,-0.120951 0.03196,-0.0331 0.405566,0.03281 0.469194,0 0.04965,-0.02539 0.06791,-0.09547 0.11727,-0.12095 0.09387,-0.04839 0.257937,0.04839 0.351896,0 0.04965,-0.02539 0.06477,-0.102918 0.11727,-0.120951 0.533963,0 0.0086,0.05701 0.351895,-0.120951 0.0699,-0.03604 0.164635,0.03607 0.23454,0 0.09901,-0.05102 0.135531,-0.190913 0.23454,-0.241901 0.03481,-0.01798 0.08959,0.02853 0.11727,0 0.02853,-0.02853 -0.02853,-0.09245 0,-0.120951 0.02853,-0.02853 0.08246,0.01798 0.11727,0 0.09901,-0.05102 0.135531,-0.190913 0.23454,-0.241901 0.03481,-0.01798 0.08246,0.01797 0.11727,0 0.04936,-0.0254 0.06791,-0.09547 0.11727,-0.120951 0.03481,-0.01798 0.08959,0.02853 0.11727,0 0.02853,-0.02853 -0.02853,-0.09245 0,-0.120951 0.02853,-0.02853 0.08959,-0.02853 0.11727,0 0.09159,0.09456 -0.102148,0.210401 -0.11727,0.241902 -0.03481,0.07213 0.05535,0.184893 0,0.241901 -0.02853,0.02853 -0.08988,-0.02853 -0.11727,0 -0.02853,0.02853 0,0.08066 0,0.120951 0,0.04032 0,0.08066 0,0.120951 0,0.483797 0,0.967591 0,1.451382 0,0.282219 0,0.564428 0,0.846641 0,0.04032 -0.02853,0.09245 0,0.120951 0.02853,0.02853 0.08959,-0.02853 0.11727,0 0.05878,0.06049 -0.05878,0.302374 0,0.362846 0.02853,0.02853 0.08959,-0.02853 0.11727,0 0.01141,0.01227 0.01141,0.350751 0,0.362847 -0.02853,0.02853 -0.08959,-0.02853 -0.11727,0 -0.0029,0.0037 0,0.333511 0,0.362843 0,0.04032 0,0.08066 0,0.120951 0,0.04032 -0.02853,0.09245 0,0.120951 0.02853,0.02853 0.08959,-0.02853 0.11727,0 0.02853,0.02853 0.02853,0.09245 0,0.12095 -0.02853,0.02853 -0.08959,-0.02853 -0.11727,0 -0.02853,0.02853 0.02853,0.09245 0,0.120951 -0.02853,0.02853 -0.08246,-0.01798 -0.11727,0 -0.05621,0.02905 -0.178331,0.212883 -0.23454,0.241901 -0.03481,0.01798 -0.08959,-0.02853 -0.11727,0 -0.02853,0.02853 0.02853,0.09245 0,0.120951 -0.02853,0.02853 -0.08246,-0.01798 -0.11727,0 -0.04936,0.02539 -0.06791,0.09547 -0.11727,0.120951 -0.03481,0.01797 -0.08246,-0.01798 -0.11727,0 -0.04965,0.02539 -0.06791,0.09547 -0.11727,0.12095 -0.06277,0.03236 -0.171768,-0.03236 -0.23454,0 -0.04965,0.02539 -0.06791,0.09547 -0.11727,0.120951 -0.03481,0.01798 -0.08018,-0.01284 -0.11727,0 -0.08303,0.02853 -0.151795,0.09245 -0.23454,0.120951 -0.03709,0.01284 -0.08018,-0.01284 -0.11727,0 -0.849622,0.292031 0.184893,-0.03487 -0.351867,0.241901 -0.03481,0.01798 -0.07818,0 -0.11727,0 -0.07818,0.04032 -0.161781,0.07096 -0.23454,0.120951 -0.04594,0.03164 -0.06791,0.09547 -0.11727,0.120951 -0.0699,0.03606 -0.179186,-0.05701 -0.23454,0 -0.02853,0.02853 0.02853,0.09245 0,0.12095 -0.03909,0.04026 -0.19545,-0.04026 -0.23454,0 -0.02853,0.02853 0.02853,0.09245 0,0.120951 -0.05535,0.05701 -0.179186,-0.05701 -0.23454,0 -0.02853,0.02853 0.02853,0.09245 0,0.120951 -0.05535,0.05701 -0.164634,-0.03604 -0.234539,0 -0.04936,0.02539 -0.06791,0.09547 -0.11727,0.120951 -0.03481,0.01797 -0.07818,0 -0.11727,0 -0.07818,0 -0.160355,-0.02539 -0.23454,0 -0.0525,0.01797 -0.06791,0.09547 -0.11727,0.12095 -0.03481,0.01798 -0.08018,-0.01284 -0.11727,0 -0.08303,0.02853 -0.15151,0.09245 -0.23454,0.120951 -0.07419,0.02539 -0.164635,-0.03607 -0.23454,0 -0.09901,0.05102 -0.135531,0.190913 -0.23454,0.241901 -0.03481,0.01798 -0.08246,-0.01797 -0.11727,0 -0.04965,0.02539 -0.06791,0.09547 -0.11727,0.120951 -0.03481,0.01798 -0.08246,-0.01798 -0.11727,0 -0.04965,0.02539 -0.06791,0.09547 -0.11727,0.120951 -0.03481,0.01797 -0.08246,-0.01798 -0.11727,0 -0.04965,0.02539 -0.06477,0.102918 -0.11727,0.12095 -0.07418,0.02539 -0.160354,-0.02539 -0.23454,0 -0.0525,0.01798 -0.06791,0.09547 -0.11727,0.120951 -0.0699,0.03604 -0.164634,-0.03606 -0.23454,0 -0.04936,0.02539 -0.06791,0.09547 -0.11727,0.120951 -0.06277,0.03236 -0.171767,-0.03236 -0.23454,0 -0.04936,0.02539 -0.06477,0.102918 -0.11727,0.120951 -0.533992,0 -0.0057,-0.05701 -0.351924,0.12095 -0.03481,0.01798 -0.07818,0 -0.11727,0 -0.07818,0 -0.160354,-0.02539 -0.23454,0 -0.05222,0.01798 -0.06791,0.09547 -0.11727,0.120951 -0.03481,0.01798 -0.08018,-0.01284 -0.11727,0 -0.08303,0.02853 -0.151794,0.09245 -0.234539,0.120951 -0.07019,0.02425 -0.16435,-0.02425 -0.23454,0 -0.08303,0.02853 -0.15151,0.09245 -0.23454,0.12095 -0.03709,0.01284 -0.08246,-0.01797 -0.11727,0 -0.04965,0.02539 -0.06791,0.09547 -0.11727,0.120951 -0.03481,0.01798 -0.07818,0 -0.11727,0 -0.07818,0 -0.160355,-0.02539 -0.23454,0 -0.0525,0.01798 -0.06791,0.09547 -0.11727,0.120951 -0.03481,0.01798 -0.08018,-0.01284 -0.11727,0 -0.07818,0.04032 -0.15636,0.08066 -0.23454,0.120951 -0.03909,0 -0.08018,-0.01284 -0.11727,0 -0.121835,0.04183 -0.347473,0.200072 -0.469194,0.241901 -0.349156,0.120009 0.240817,-0.286387 -0.351896,0.120951 -0.04594,0.03164 -0.06791,0.09547 -0.11727,0.12095 -0.03481,0.01798 -0.08246,-0.01797 -0.11727,0 -0.04936,0.02539 -0.06791,0.09547 -0.117269,0.120951 -0.06991,0.03607 -0.179187,-0.05701 -0.23454,0 -0.02853,0.02853 0.02853,0.09245 0,0.120951 -0.02283,0.02482 -0.305387,-0.02397 -0.351896,0 -0.04965,0.02539 -0.06791,0.09547 -0.11727,0.12095 -0.03481,0.01798 -0.08246,-0.01797 -0.11727,0 -0.04965,0.02539 -0.06791,0.09547 -0.11727,0.120951 -0.03481,0.01798 -0.07818,0 -0.11727,0 -0.07818,0 -0.160354,-0.02539 -0.23454,0 -0.0525,0.01798 -0.06791,0.09547 -0.11727,0.120951 -0.03481,0.01798 -0.07818,0 -0.11727,0 -0.03909,0.04032 -0.06791,0.09547 -0.11727,0.120951 -0.03481,0.01797 -0.07818,0 -0.11727,0 -0.07818,0 -0.160354,-0.02539 -0.23454,0 -0.0525,0.01797 -0.06791,0.09547 -0.11727,0.12095 -0.03481,0.01798 -0.08246,-0.01797 -0.11727,0 -0.04965,0.02539 -0.06791,0.09547 -0.117269,0.120951 -0.03481,0.01798 -0.08246,-0.01798 -0.11727,0 -0.267068,0.275285 0.02568,0.03196 -0.23454,0.120951 -0.849623,0.292025 0.184892,-0.03487 -0.351867,0.241901 -0.06991,0.03607 -0.164635,-0.03607 -0.23454,0 -0.04936,0.02539 -0.06791,0.09547 -0.11727,0.120951 -0.03481,0.01798 -0.07818,0 -0.11727,0 -0.03909,0.04032 -0.06791,0.09547 -0.11727,0.120951 -0.0622,0.03204 -0.172339,-0.03204 -0.23454,0 -0.04936,0.02539 -0.06791,0.09547 -0.11727,0.12095 -0.06192,0.03201 -0.172624,-0.03201 -0.23454,0 -0.04965,0.02539 -0.06791,0.09547 -0.11727,0.120951 -0.0622,0.03204 -0.172338,-0.03204 -0.23454,0 -0.04965,0.02539 -0.06791,0.09547 -0.11727,0.120951 -0.0622,0.03204 -0.172624,-0.03204 -0.23454,0 -0.04936,0.02539 -0.06791,0.09547 -0.11727,0.12095 -0.03481,0.01798 -0.08018,-0.01284 -0.11727,0 -0.08303,0.02853 -0.151795,0.09245 -0.23454,0.120951 -0.03709,0.01284 -0.08246,-0.01798 -0.11727,0 -0.04936,0.02539 -0.06791,0.09547 -0.11727,0.120951 -0.03481,0.01797 -0.08246,-0.01798 -0.11727,0 -0.140667,0.07259 -0.211143,0.290279 -0.351895,0.362846 -0.03481,0.01798 -0.08959,-0.02853 -0.11727,0 -0.02853,0.02853 0.02853,0.09245 0,0.120951 -0.02853,0.02853 -0.08246,-0.01798 -0.11727,0 -0.04965,0.02539 -0.06791,0.09547 -0.11727,0.120951 -0.03481,0.01797 -0.07818,0 -0.11727,0 -0.07818,0 -0.160355,-0.02539 -0.23454,0 -0.0525,0.01797 -0.06791,0.09547 -0.11727,0.12095 -0.0699,0.03607 -0.160355,-0.02539 -0.23454,0 -0.08303,0.02853 -0.151795,0.09245 -0.23454,0.120951 -0.07418,0.02539 -0.164634,-0.03607 -0.23454,0 -0.04965,0.02539 -0.06477,0.102918 -0.11727,0.120951 -0.08503,0.02919 -0.430503,-0.03986 -0.469194,0 -0.02853,0.02853 0.02853,0.09245 0,0.12095 -0.02283,0.02482 -0.305358,-0.02397 -0.351867,0 -0.04965,0.02539 -0.06791,0.09547 -0.11727,0.120951 -0.03481,0.01798 -0.07818,0 -0.11727,0 -0.08389,0 -0.643758,-0.02054 -0.703791,0 -0.0525,0.01798 -0.06791,0.09547 -0.11727,0.120951 -0.07732,0.03983 -0.595309,-0.03729 -0.703762,0 -0.434841,0.149426 0.142949,0.120951 -0.23454,0.120951 -0.07818,0 -0.15636,0 -0.23454,0 -0.03909,0 -0.08246,-0.01798 -0.11727,0 -0.04936,0.02539 -0.06791,0.09547 -0.11727,0.12095 -0.09387,0.04839 -0.257937,-0.04839 -0.351896,0 -0.04965,0.02539 -0.06791,0.09547 -0.117269,0.120951 -0.04651,0.02397 -0.3279,-0.02482 -0.351867,0 -0.02853,0.02853 0.02853,0.09245 0,0.120951 -0.05535,0.05701 -0.164635,-0.03607 -0.23454,0 -0.04965,0.02539 -0.06791,0.09547 -0.11727,0.12095 -0.06991,0.03607 -0.164635,-0.03607 -0.23454,0 -0.04936,0.02539 -0.06791,0.09547 -0.11727,0.120951 -0.03481,0.01798 -0.08246,-0.01798 -0.11727,0 -0.04965,0.02539 -0.06791,0.09547 -0.11727,0.120951 -0.03082,0.01598 -0.407849,0 -0.469194,0 -0.03909,0 -0.07818,0 -0.11727,0 -0.03909,0 -0.08246,0.01797 -0.11727,0 -0.04936,-0.02539 -0.06791,-0.09547 -0.11727,-0.120951 -0.03481,-0.01798 -0.08246,0.01798 -0.11727,0 -0.04936,-0.02539 -0.06791,-0.09547 -0.11727,-0.120951 -0.0739,-0.03803 -0.395465,0.03801 -0.469194,0 -0.04965,-0.02539 -0.06791,-0.09547 -0.11727,-0.12095 -0.09387,-0.04839 -0.257937,0.04839 -0.351924,0 -0.140667,-0.07256 -0.211143,-0.290276 -0.351867,-0.362844 -0.03481,-0.01798 -0.08246,0.01798 -0.11727,0 -0.04936,-0.02539 -0.06791,-0.09547 -0.11727,-0.120951 -0.0622,-0.03204 -0.172624,0.03204 -0.23454,0 -0.04965,-0.02539 -0.06791,-0.09547 -0.11727,-0.12095 -0.06363,-0.03279 -0.437094,0.03307 -0.469194,0 -0.02853,-0.02853 0.01712,-0.08489 0,-0.120951 -0.02568,-0.05102 -0.09245,-0.06996 -0.11727,-0.120951 -0.01712,-0.03607 0.02853,-0.09245 0,-0.12095 -0.02853,-0.02853 -0.08959,0.02853 -0.11727,0 -0.02853,-0.02853 0.03481,-0.102918 0,-0.120951 -0.07362,-0.03803 -0.395437,0.03801 -0.469165,0 -0.04965,-0.02539 -0.06791,-0.09547 -0.11727,-0.120951 -0.03481,-0.01798 -0.07818,0 -0.11727,0 -0.03909,0 -0.07818,0 -0.11727,0 -0.02853,0 -0.348129,0.0037 -0.351867,0 -0.02853,-0.02853 0.02853,-0.09245 0,-0.120951 -0.02853,-0.02853 -0.08959,0.02853 -0.11727,0 -0.02853,-0.02853 0.02853,-0.09245 0,-0.12095 -0.02853,-0.02853 -0.08959,0.02853 -0.11727,0 -0.02853,-0.02853 0.02853,-0.09245 0,-0.120951 -0.02853,-0.02853 -0.08246,0.01798 -0.11727,0 -0.04965,-0.02539 -0.06791,-0.09547 -0.11727,-0.120951 -0.05222,-0.02682 -0.415552,0.01855 -0.469223,0 -0.434812,-0.149455 0.14295,-0.12095 -0.23454,-0.12095 -0.05279,0 -0.316201,0.01855 -0.351895,0 -0.04965,-0.02539 -0.06791,-0.09547 -0.11727,-0.120951 -0.06991,-0.03607 -0.164635,0.03607 -0.23454,0 -0.04965,-0.02539 -0.06791,-0.09547 -0.11727,-0.120951 -0.03481,-0.01797 -0.08246,0.01798 -0.11727,0 -0.04965,-0.02539 -0.06791,-0.09547 -0.11727,-0.12095 -0.03481,-0.01798 -0.08246,0.01797 -0.11727,0 -0.04965,-0.02539 -0.06791,-0.09547 -0.11727,-0.120951 -0.06192,-0.03201 -0.172624,0.03201 -0.23454,0 -0.04965,-0.02539 -0.06791,-0.09547 -0.11727,-0.120951 -0.04651,-0.02397 -0.327928,0.02482 -0.351895,0 -0.02853,-0.02853 0.02853,-0.09245 0,-0.120951 -0.05878,-0.06049 -0.293232,0.06049 -0.351896,0 -0.242814,-0.250233 0.37087,0.0097 -0.11727,-0.241901 -0.03481,-0.01798 -0.08217,0.01798 -0.11727,0 -0.04936,-0.02539 -0.06791,-0.09547 -0.11727,-0.120951 -0.03481,-0.01797 -0.08246,0.01798 -0.11727,0 -0.06077,-0.0313 -0.17405,-0.210601 -0.23454,-0.241901 -0.03481,-0.01798 -0.08246,0.01798 -0.11727,0 -0.04936,-0.02539 -0.06791,-0.09547 -0.11727,-0.120951 -0.03481,-0.01798 -0.07818,0 -0.11727,0 -0.03909,-0.04032 -0.06791,-0.09547 -0.11727,-0.120951 -0.09387,-0.04839 -0.257936,0.04839 -0.351895,0 -0.289894,-0.149426 0.04052,-0.12095 -0.23454,-0.12095 -0.275057,0 0.05535,0.02853 -0.23454,-0.120951 -0.03481,-0.01798 -0.08217,0.01798 -0.11727,0 -0.09901,-0.05102 -0.135531,-0.190885 -0.23454,-0.241901 -0.03481,-0.01798 -0.08246,0.01797 -0.11727,0 -0.04965,-0.02539 -0.06791,-0.09547 -0.11727,-0.120951 -0.03481,-0.01798 -0.08246,0.01798 -0.11727,0 -0.04936,-0.02539 -0.06791,-0.09547 -0.11727,-0.120951 -0.07447,-0.03835 -0.51031,0.03929 -0.586492,0 -0.04936,-0.02539 -0.06791,-0.09547 -0.11727,-0.120951 -0.09387,-0.04839 -0.257937,0.04839 -0.351896,0 -0.0351,-0.01797 -0.199444,-0.223783 -0.23454,-0.241901 -0.03481,-0.01798 -0.08246,0.01798 -0.11727,0 -0.389016,-0.401135 0.110708,0.05701 -0.23454,-0.120951 -0.04965,-0.02539 -0.06791,-0.09547 -0.11727,-0.12095 -0.06991,-0.03607 -0.164634,0.03607 -0.234539,0 -0.04936,-0.02539 -0.06791,-0.09547 -0.1172695,-0.120951 -0.03481,-0.01798 -0.07818,0 -0.11727,0 -0.04936,0 -0.6688957,0.01798 -0.7037914,0 -0.049362,-0.02539 -0.067908,-0.09547 -0.11727,-0.120951 -0.03481,-0.01797 -0.089593,0.02853 -0.1172699,0 -0.028533,-0.02853 0.028533,-0.09245 0,-0.12095 -0.055354,-0.05701 -0.1646345,0.03604 -0.23454,0 -0.3890167,-0.401138 0.1107074,0.05701 -0.2345399,-0.120951 -0.049647,-0.02539 -0.06477,-0.102918 -0.11727,-0.120951 -0.074185,-0.02539 -0.1563599,0 -0.2345399,0 -0.03909,0 -0.08246,0.01798 -0.11727,0 -0.049647,-0.02539 -0.06477,-0.102918 -0.11727,-0.120951 -0.074185,-0.02539 -0.1563599,0 -0.2345399,0 -0.03909,0 -0.08246,0.01798 -0.11727,0 -0.049362,-0.02539 -0.067908,-0.09547 -0.1172699,-0.12095 -0.093873,-0.04839 -0.2579369,0.04839 -0.3518956,0 -0.049362,-0.02539 -0.067908,-0.09547 -0.1172699,-0.120951 -0.069905,-0.03606 -0.1791863,0.05701 -0.23454,0 -0.028533,-0.02853 0.028533,-0.09245 0,-0.120951 -0.055354,-0.05701 -0.1646345,0.03607 -0.2345399,0 -0.049362,-0.02539 -0.067908,-0.09547 -0.11727,-0.12095 -0.069905,-0.03607 -0.1603545,0.02539 -0.2345399,0 -0.083031,-0.02853 -0.1515094,-0.09245 -0.23454,-0.120951 -0.074185,-0.02539 -0.1646344,0.03606 -0.2345399,0 -0.049647,-0.02539 -0.067908,-0.09547 -0.11727,-0.120951 -0.069905,-0.03607 -0.1791862,0.05701 -0.2345399,0 -0.028533,-0.02853 0.028533,-0.09245 0,-0.120951 -0.055354,-0.05701 -0.1646345,0.03607 -0.2345399,0 -0.099009,-0.05102 -0.1295391,-0.205835 -0.23454,-0.241901 -0.074185,-0.02539 -0.1563599,0 -0.2345399,0 -0.03909,0 -0.08246,0.01798 -0.11727,0 -0.049362,-0.02539 -0.067908,-0.09547 -0.11727,-0.120951 -0.069905,-0.03606 -0.1646345,0.03604 -0.2345399,0 -0.049362,-0.02539 -0.067908,-0.09547 -0.11727,-0.12095 -0.093873,-0.04839 -0.2579368,0.04839 -0.3518955,0 -0.049647,-0.0254 -0.067908,-0.09547 -0.11727,-0.120951 -0.069905,-0.03607 -0.1646344,0.03607 -0.2345399,0 -0.049362,-0.02539 -0.067908,-0.09547 -0.11727,-0.120951 -0.03481,-0.01797 -0.08246,0.01798 -0.1172699,0 -0.049647,-0.02539 -0.067908,-0.09547 -0.11727,-0.12095 -0.069905,-0.03607 -0.1646345,0.03606 -0.2345399,0 -0.098724,-0.05102 -0.135531,-0.190914 -0.23454,-0.241902 -0.03481,-0.01798 -0.08246,0.01798 -0.11727,0 -0.049362,-0.02539 -0.067908,-0.09547 -0.1172699,-0.120951 -0.03481,-0.01797 -0.082175,0.01798 -0.11727,0 -0.049647,-0.02539 -0.067908,-0.09547 -0.11727,-0.12095 -0.03481,-0.01798 -0.089593,0.02853 -0.1172699,0 -0.028533,-0.02853 0.028533,-0.09245 0,-0.120951 -0.028533,-0.02853 -0.089593,0.02853 -0.11727,0 -0.028533,-0.02853 0.028533,-0.09245 0,-0.120951 -0.028533,-0.02853 -0.08246,0.01798 -0.11727,0 -0.049647,-0.02539 -0.067908,-0.09547 -0.1172699,-0.12095 -0.03481,-0.01798 -0.089878,0.02853 -0.11727,0 -0.028533,-0.02853 0.028533,-0.09245 0,-0.120951 -0.2428145,-0.250233 0.00856,0.382411 -0.23454,-0.120951 -0.03481,-0.07213 0.03481,-0.16977 0,-0.241901 -0.02568,-0.05102 -0.092446,-0.06996 -0.1172699,-0.120951 -0.03481,-0.07213 0.03481,-0.16977 0,-0.241901 -0.02568,-0.05102 -0.092446,-0.06996 -0.11727,-0.120951 -0.01712,-0.03607 0.01712,-0.08488 0,-0.120922 -0.02568,-0.05102 -0.092446,-0.06996 -0.11727,-0.120951 -0.01712,-0.03607 0,-0.08063 0,-0.120951 0,-0.241901 0,-0.483797 0,-0.725695 0,-0.04032 -0.028533,-0.09245 0,-0.120951 0.028533,-0.02853 0.089593,0.02853 0.11727,0 0.041087,-0.04248 -0.040517,-0.521198 0,-0.604742 0.3890167,-0.401135 -0.055354,0.114046 0.11727,-0.241902 0.025679,-0.05102 0.092446,-0.06996 0.1172699,-0.12095 0.01712,-0.03681 0,-0.308375 0,-0.362844 0,-0.04032 0.028533,-0.09245 0,-0.120951 -0.028533,-0.02853 -0.089593,0.02853 -0.1172699,0 -0.028533,-0.02853 -0.028533,-0.09245 0,-0.12095 0.028533,-0.02853 0.089878,0.02853 0.1172699,0 0.038519,-0.03972 -0.038519,-0.202184 0,-0.241902 0.028533,-0.02853 0.07818,0 0.11727,0 0.11727,-0.201584 0.23454,-0.40316 0.8210895,-0.12095 z"
       id="path3780"
       inkscape:connector-curvature="0" />
    <path
       style="fill:none;stroke:#888a85;stroke-width:0.94533741;stroke-linecap:butt;stroke-linejoin:miter;stroke-miterlimit:4;stroke-opacity:1;stroke-dasharray:none;stroke-dashoffset:0"
       d="m 23.658036,-14.542355 -22.72706271,9.484316 0,27.142088 22.67444771,8.687525 22.621834,-8.687525 -0.02568,-27.142088 -22.542941,-9.484316 z"
       id="rect2370"
       sodipodi:nodetypes="ccccccc"
       inkscape:connector-curvature="0" />
    <path
       sodipodi:type="arc"
       style="fill:#ffffff;fill-opacity:1;stroke:#000000;stroke-width:0.2;stroke-miterlimit:4;stroke-opacity:1;stroke-dasharray:none"
       id="path3991"
       sodipodi:cx="-4.920188"
       sodipodi:cy="11.530517"
       sodipodi:rx="1.0892019"
       sodipodi:ry="1.0892019"
       d="m -3.830986,11.530517 c 0,0.601549 -0.4876523,1.089202 -1.089202,1.089202 -0.6015496,0 -1.0892019,-0.487653 -1.0892019,-1.089202 0,-0.60155 0.4876523,-1.089202 1.0892019,-1.089202 0.6015497,0 1.089202,0.487652 1.089202,1.089202 z"
       transform="matrix(0.77243772,0,0,0.79648192,21.586715,-16.219097)" />
    <path
       transform="matrix(0.77243772,0,0,0.79648192,30.618614,-15.856253)"
       d="m -3.830986,11.530517 c 0,0.601549 -0.4876523,1.089202 -1.089202,1.089202 -0.6015496,0 -1.0892019,-0.487653 -1.0892019,-1.089202 0,-0.60155 0.4876523,-1.089202 1.0892019,-1.089202 0.6015497,0 1.089202,0.487652 1.089202,1.089202 z"
       sodipodi:ry="1.0892019"
       sodipodi:rx="1.0892019"
       sodipodi:cy="11.530517"
       sodipodi:cx="-4.920188"
       id="path3993"
       style="fill:#ffffff;fill-opacity:1;stroke:#000000;stroke-width:0.2;stroke-miterlimit:4;stroke-opacity:1;stroke-dasharray:none"
       sodipodi:type="arc" />
    <path
       sodipodi:type="arc"
       style="fill:#ffffff;fill-opacity:1;stroke:#000000;stroke-width:0.2;stroke-miterlimit:4;stroke-opacity:1;stroke-dasharray:none"
       id="path3995"
       sodipodi:cx="-4.920188"
       sodipodi:cy="11.530517"
       sodipodi:rx="1.0892019"
       sodipodi:ry="1.0892019"
       d="m -3.830986,11.530517 c 0,0.601549 -0.4876523,1.089202 -1.089202,1.089202 -0.6015496,0 -1.0892019,-0.487653 -1.0892019,-1.089202 0,-0.60155 0.4876523,-1.089202 1.0892019,-1.089202 0.6015497,0 1.089202,0.487652 1.089202,1.089202 z"
       transform="matrix(0.77243772,0,0,0.79648192,36.366183,-13.800137)" />
    <path
       transform="matrix(0.77243772,0,0,0.79648192,36.952647,-10.050725)"
       d="m -3.830986,11.530517 c 0,0.601549 -0.4876523,1.089202 -1.089202,1.089202 -0.6015496,0 -1.0892019,-0.487653 -1.0892019,-1.089202 0,-0.60155 0.4876523,-1.089202 1.0892019,-1.089202 0.6015497,0 1.089202,0.487652 1.089202,1.089202 z"
       sodipodi:ry="1.0892019"
       sodipodi:rx="1.0892019"
       sodipodi:cy="11.530517"
       sodipodi:cx="-4.920188"
       id="path3997"
       style="fill:#ffffff;fill-opacity:1;stroke:#000000;stroke-width:0.2;stroke-miterlimit:4;stroke-opacity:1;stroke-dasharray:none"
       sodipodi:type="arc" />
    <path
       sodipodi:type="arc"
       style="fill:#ffffff;fill-opacity:1;stroke:#000000;stroke-width:0.2;stroke-miterlimit:4;stroke-opacity:1;stroke-dasharray:none"
       id="path3999"
       sodipodi:cx="-4.920188"
       sodipodi:cy="11.530517"
       sodipodi:rx="1.0892019"
       sodipodi:ry="1.0892019"
       d="m -3.830986,11.530517 c 0,0.601549 -0.4876523,1.089202 -1.089202,1.089202 -0.6015496,0 -1.0892019,-0.487653 -1.0892019,-1.089202 0,-0.60155 0.4876523,-1.089202 1.0892019,-1.089202 0.6015497,0 1.089202,0.487652 1.089202,1.089202 z"
       transform="matrix(0.77243772,0,0,0.79648192,46.101845,-9.2040903)" />
    <path
       transform="matrix(0.77243772,0,0,0.79648192,45.63268,-3.3985645)"
       d="m -3.830986,11.530517 c 0,0.601549 -0.4876523,1.089202 -1.089202,1.089202 -0.6015496,0 -1.0892019,-0.487653 -1.0892019,-1.089202 0,-0.60155 0.4876523,-1.089202 1.0892019,-1.089202 0.6015497,0 1.089202,0.487652 1.089202,1.089202 z"
       sodipodi:ry="1.0892019"
       sodipodi:rx="1.0892019"
       sodipodi:cy="11.530517"
       sodipodi:cx="-4.920188"
       id="path4001"
       style="fill:#ffffff;fill-opacity:1;stroke:#000000;stroke-width:0.2;stroke-miterlimit:4;stroke-opacity:1;stroke-dasharray:none"
       sodipodi:type="arc" />
    <path
       sodipodi:type="arc"
       style="fill:#ffffff;fill-opacity:1;stroke:#000000;stroke-width:0.2;stroke-miterlimit:4;stroke-opacity:1;stroke-dasharray:none"
       id="path4003"
       sodipodi:cx="-4.920188"
       sodipodi:cy="11.530517"
       sodipodi:rx="1.0892019"
       sodipodi:ry="1.0892019"
       d="m -3.830986,11.530517 c 0,0.601549 -0.4876523,1.089202 -1.089202,1.089202 -0.6015496,0 -1.0892019,-0.487653 -1.0892019,-1.089202 0,-0.60155 0.4876523,-1.089202 1.0892019,-1.089202 0.6015497,0 1.089202,0.487652 1.089202,1.089202 z"
       transform="matrix(0.77243772,0,0,0.79648192,37.773737,-2.6728746)" />
    <path
       transform="matrix(0.77243772,0,0,0.79648192,29.562927,3.0117056)"
       d="m -3.830986,11.530517 c 0,0.601549 -0.4876523,1.089202 -1.089202,1.089202 -0.6015496,0 -1.0892019,-0.487653 -1.0892019,-1.089202 0,-0.60155 0.4876523,-1.089202 1.0892019,-1.089202 0.6015497,0 1.089202,0.487652 1.089202,1.089202 z"
       sodipodi:ry="1.0892019"
       sodipodi:rx="1.0892019"
       sodipodi:cy="11.530517"
       sodipodi:cx="-4.920188"
       id="path4005"
       style="fill:#ffffff;fill-opacity:1;stroke:#000000;stroke-width:0.2;stroke-miterlimit:4;stroke-opacity:1;stroke-dasharray:none"
       sodipodi:type="arc" />
    <path
       sodipodi:type="arc"
       style="fill:#ffffff;fill-opacity:1;stroke:#000000;stroke-width:0.2;stroke-miterlimit:4;stroke-opacity:1;stroke-dasharray:none"
       id="path4007"
       sodipodi:cx="-4.920188"
       sodipodi:cy="11.530517"
       sodipodi:rx="1.0892019"
       sodipodi:ry="1.0892019"
       d="m -3.830986,11.530517 c 0,0.601549 -0.4876523,1.089202 -1.089202,1.089202 -0.6015496,0 -1.0892019,-0.487653 -1.0892019,-1.089202 0,-0.60155 0.4876523,-1.089202 1.0892019,-1.089202 0.6015497,0 1.089202,0.487652 1.089202,1.089202 z"
       transform="matrix(0.77243772,0,0,0.79648192,25.457537,-4.1242574)" />
    <path
       transform="matrix(0.77243772,0,0,0.79648192,19.47537,-10.65547)"
       d="m -3.830986,11.530517 c 0,0.601549 -0.4876523,1.089202 -1.089202,1.089202 -0.6015496,0 -1.0892019,-0.487653 -1.0892019,-1.089202 0,-0.60155 0.4876523,-1.089202 1.0892019,-1.089202 0.6015497,0 1.089202,0.487652 1.089202,1.089202 z"
       sodipodi:ry="1.0892019"
       sodipodi:rx="1.0892019"
       sodipodi:cy="11.530517"
       sodipodi:cx="-4.920188"
       id="path4009"
       style="fill:#ffffff;fill-opacity:1;stroke:#000000;stroke-width:0.2;stroke-miterlimit:4;stroke-opacity:1;stroke-dasharray:none"
       sodipodi:type="arc" />
    <path
       transform="matrix(0.77243772,0,0,0.79648192,11.147262,-0.73769746)"
       d="m -3.830986,11.530517 c 0,0.601549 -0.4876523,1.089202 -1.089202,1.089202 -0.6015496,0 -1.0892019,-0.487653 -1.0892019,-1.089202 0,-0.60155 0.4876523,-1.089202 1.0892019,-1.089202 0.6015497,0 1.089202,0.487652 1.089202,1.089202 z"
       sodipodi:ry="1.0892019"
       sodipodi:rx="1.0892019"
       sodipodi:cy="11.530517"
       sodipodi:cx="-4.920188"
       id="path4013"
       style="fill:#ffffff;fill-opacity:1;stroke:#000000;stroke-width:0.2;stroke-miterlimit:4;stroke-opacity:1;stroke-dasharray:none"
       sodipodi:type="arc" />
    <path
       sodipodi:type="arc"
       style="fill:#ffffff;fill-opacity:1;stroke:#000000;stroke-width:0.2;stroke-miterlimit:4;stroke-opacity:1;stroke-dasharray:none"
       id="path4015"
       sodipodi:cx="-4.920188"
       sodipodi:cy="11.530517"
       sodipodi:rx="1.0892019"
       sodipodi:ry="1.0892019"
       d="m -3.830986,11.530517 c 0,0.601549 -0.4876523,1.089202 -1.089202,1.089202 -0.6015496,0 -1.0892019,-0.487653 -1.0892019,-1.089202 0,-0.60155 0.4876523,-1.089202 1.0892019,-1.089202 0.6015497,0 1.089202,0.487652 1.089202,1.089202 z"
       transform="matrix(0.77243772,0,0,0.79648192,19.47537,-0.25390605)" />
    <path
       transform="matrix(0.77243772,0,0,0.79648192,21.586715,8.2124861)"
       d="m -3.830986,11.530517 c 0,0.601549 -0.4876523,1.089202 -1.089202,1.089202 -0.6015496,0 -1.0892019,-0.487653 -1.0892019,-1.089202 0,-0.60155 0.4876523,-1.089202 1.0892019,-1.089202 0.6015497,0 1.089202,0.487652 1.089202,1.089202 z"
       sodipodi:ry="1.0892019"
       sodipodi:rx="1.0892019"
       sodipodi:cy="11.530517"
       sodipodi:cx="-4.920188"
       id="path4017"
       style="fill:#ffffff;fill-opacity:1;stroke:#000000;stroke-width:0.2;stroke-miterlimit:4;stroke-opacity:1;stroke-dasharray:none"
       sodipodi:type="arc" />
    <path
       sodipodi:type="arc"
       style="fill:#ffffff;fill-opacity:1;stroke:#000000;stroke-width:0.2;stroke-miterlimit:4;stroke-opacity:1;stroke-dasharray:none"
       id="path4019"
       sodipodi:cx="-4.920188"
       sodipodi:cy="11.530517"
       sodipodi:rx="1.0892019"
       sodipodi:ry="1.0892019"
       d="m -3.830986,11.530517 c 0,0.601549 -0.4876523,1.089202 -1.089202,1.089202 -0.6015496,0 -1.0892019,-0.487653 -1.0892019,-1.089202 0,-0.60155 0.4876523,-1.089202 1.0892019,-1.089202 0.6015497,0 1.089202,0.487652 1.089202,1.089202 z"
       transform="matrix(0.77243772,0,0,0.79648192,15.018084,-4.3661531)" />
    <path
       transform="matrix(0.77243772,0,0,0.79648192,37.656438,6.3982598)"
       d="m -3.830986,11.530517 c 0,0.601549 -0.4876523,1.089202 -1.089202,1.089202 -0.6015496,0 -1.0892019,-0.487653 -1.0892019,-1.089202 0,-0.60155 0.4876523,-1.089202 1.0892019,-1.089202 0.6015497,0 1.089202,0.487652 1.089202,1.089202 z"
       sodipodi:ry="1.0892019"
       sodipodi:rx="1.0892019"
       sodipodi:cy="11.530517"
       sodipodi:cx="-4.920188"
       id="path4021"
       style="fill:#ffffff;fill-opacity:1;stroke:#000000;stroke-width:0.2;stroke-miterlimit:4;stroke-opacity:1;stroke-dasharray:none"
       sodipodi:type="arc" />
    <path
       sodipodi:type="arc"
       style="fill:#ffffff;fill-opacity:1;stroke:#000000;stroke-width:0.2;stroke-miterlimit:4;stroke-opacity:1;stroke-dasharray:none"
       id="path4023"
       sodipodi:cx="-4.920188"
       sodipodi:cy="11.530517"
       sodipodi:rx="1.0892019"
       sodipodi:ry="1.0892019"
       d="m -3.830986,11.530517 c 0,0.601549 -0.4876523,1.089202 -1.089202,1.089202 -0.6015496,0 -1.0892019,-0.487653 -1.0892019,-1.089202 0,-0.60155 0.4876523,-1.089202 1.0892019,-1.089202 0.6015497,0 1.089202,0.487652 1.089202,1.089202 z"
       transform="matrix(0.77243772,0,0,0.79648192,41.52726,-5.5756373)" />
    <path
       transform="matrix(0.77243772,0,0,0.79648192,12.789441,-10.292626)"
       d="m -3.830986,11.530517 c 0,0.601549 -0.4876523,1.089202 -1.089202,1.089202 -0.6015496,0 -1.0892019,-0.487653 -1.0892019,-1.089202 0,-0.60155 0.4876523,-1.089202 1.0892019,-1.089202 0.6015497,0 1.089202,0.487652 1.089202,1.089202 z"
       sodipodi:ry="1.0892019"
       sodipodi:rx="1.0892019"
       sodipodi:cy="11.530517"
       sodipodi:cx="-4.920188"
       id="path4025"
       style="fill:#ffffff;fill-opacity:1;stroke:#000000;stroke-width:0.2;stroke-miterlimit:4;stroke-opacity:1;stroke-dasharray:none"
       sodipodi:type="arc" />
    <path
       sodipodi:type="arc"
       style="fill:#ffffff;fill-opacity:1;stroke:#000000;stroke-width:0.2;stroke-miterlimit:4;stroke-opacity:1;stroke-dasharray:none"
       id="path4027"
       sodipodi:cx="-4.920188"
       sodipodi:cy="11.530517"
       sodipodi:rx="1.0892019"
       sodipodi:ry="1.0892019"
       d="m -3.830986,11.530517 c 0,0.601549 -0.4876523,1.089202 -1.089202,1.089202 -0.6015496,0 -1.0892019,-0.487653 -1.0892019,-1.089202 0,-0.60155 0.4876523,-1.089202 1.0892019,-1.089202 0.6015497,0 1.089202,0.487652 1.089202,1.089202 z"
       transform="matrix(0.77243772,0,0,0.79648192,26.513195,-14.283923)" />
    <rect
       style="opacity:0.89873418;fill:#2e3436;fill-opacity:1;stroke:#a38f8f;stroke-width:0.33367914;stroke-miterlimit:4;stroke-opacity:1;stroke-dasharray:none"
       id="rect3833"
       width="5.0567732"
       height="4.1631336"
       x="21.626587"
       y="-6.6234951" />
    <path
       transform="matrix(0.77243772,0,0,0.79648192,16.308339,6.8820569)"
       d="m -3.830986,11.530517 c 0,0.601549 -0.4876523,1.089202 -1.089202,1.089202 -0.6015496,0 -1.0892019,-0.487653 -1.0892019,-1.089202 0,-0.60155 0.4876523,-1.089202 1.0892019,-1.089202 0.6015497,0 1.089202,0.487652 1.089202,1.089202 z"
       sodipodi:ry="1.0892019"
       sodipodi:rx="1.0892019"
       sodipodi:cy="11.530517"
       sodipodi:cx="-4.920188"
       id="path4029"
       style="fill:#ffffff;fill-opacity:1;stroke:#000000;stroke-width:0.2;stroke-miterlimit:4;stroke-opacity:1;stroke-dasharray:none"
       sodipodi:type="arc" />
    <rect
       style="opacity:0.89873418;fill:#2e3436;fill-opacity:1;stroke:#a38f8f;stroke-width:0.34769508;stroke-miterlimit:4;stroke-opacity:1;stroke-dasharray:none"
       id="rect3831"
       width="6.8360958"
       height="1.5092679"
       x="20.736959"
       y="-2.8154731" />
    <rect
       style="fill:#555753;fill-opacity:0;fill-rule:evenodd;stroke:#535353;stroke-width:0.75;stroke-linecap:round;stroke-miterlimit:4;stroke-opacity:1;stroke-dasharray:none"
       id="rect3012"
       width="0.079668827"
       height="26.211044"
       x="23.661642"
       y="4.354917" />
    <rect
       y="-44.42696"
       x="13.026258"
       height="23.6416"
       width="0.073496535"
       id="rect3014"
       style="fill:#555753;fill-opacity:0;fill-rule:evenodd;stroke:#535353;stroke-width:0.68414283;stroke-linecap:round;stroke-miterlimit:4;stroke-opacity:1;stroke-dasharray:none"
       transform="matrix(0.36664848,0.93035955,-0.92208284,0.38699255,0,0)" />
    <rect
       transform="matrix(-0.36664848,0.93035955,0.92208284,0.38699255,0,0)"
       style="fill:#555753;fill-opacity:0;fill-rule:evenodd;stroke:#535353;stroke-width:0.68414283;stroke-linecap:round;stroke-miterlimit:4;stroke-opacity:1;stroke-dasharray:none"
       id="rect3016"
       width="0.073496535"
       height="23.6416"
       x="-5.1685634"
       y="-0.68522316" />
  </g>
</svg>
