<?xml version="1.0" encoding="UTF-8" standalone="no"?>
<!-- Generator: Adobe Illustrator 12.0.0, SVG Export Plug-In . SVG Version: 6.00 Build 51448)  -->

<svg
   xmlns:dc="http://purl.org/dc/elements/1.1/"
   xmlns:cc="http://creativecommons.org/ns#"
   xmlns:rdf="http://www.w3.org/1999/02/22-rdf-syntax-ns#"
   xmlns:svg="http://www.w3.org/2000/svg"
   xmlns="http://www.w3.org/2000/svg"
   xmlns:xlink="http://www.w3.org/1999/xlink"
   xmlns:sodipodi="http://sodipodi.sourceforge.net/DTD/sodipodi-0.dtd"
   xmlns:inkscape="http://www.inkscape.org/namespaces/inkscape"
   version="1.1"
   id="Layer_1"
   width="32"
   height="32"
   viewBox="0 0 32 32"
   overflow="visible"
   enable-background="new 0 0 474.315 490.387"
   xml:space="preserve"
   inkscape:version="0.47 r22583"
   sodipodi:docname="plugin-autumn.svg"
   style="overflow:visible"><metadata
   id="metadata9"><rdf:RDF><cc:Work
       rdf:about=""><dc:format>image/svg+xml</dc:format><dc:type
         rdf:resource="http://purl.org/dc/dcmitype/StillImage" /></cc:Work></rdf:RDF></metadata><defs
   id="defs7"><inkscape:perspective
     sodipodi:type="inkscape:persp3d"
     inkscape:vp_x="0 : 128 : 1"
     inkscape:vp_y="0 : 1000 : 0"
     inkscape:vp_z="256 : 128 : 1"
     inkscape:persp3d-origin="128 : 85.333333 : 1"
     id="perspective3024" /><linearGradient
     inkscape:collect="always"
     id="linearGradient3753"><stop
       style="stop-color:#ff8400;stop-opacity:1;"
       offset="0"
       id="stop3755" /><stop
       style="stop-color:#ff8400;stop-opacity:0;"
       offset="1"
       id="stop3757" /></linearGradient><linearGradient
     inkscape:collect="always"
     id="linearGradient3591"><stop
       style="stop-color:#f57900;stop-opacity:1;"
       offset="0"
       id="stop3593" /><stop
       style="stop-color:#f57900;stop-opacity:0;"
       offset="1"
       id="stop3595" /></linearGradient><linearGradient
     inkscape:collect="always"
     xlink:href="#linearGradient3591"
     id="linearGradient3597"
     x1="208.43094"
     y1="181.63449"
     x2="40.888348"
     y2="79.945602"
     gradientUnits="userSpaceOnUse" /><linearGradient
     inkscape:collect="always"
     xlink:href="#linearGradient3753"
     id="linearGradient3759"
     x1="66.919823"
     y1="80.656708"
     x2="128.21519"
     y2="149.63449"
     gradientUnits="userSpaceOnUse"
     gradientTransform="matrix(0.12368432,0,0,0.12368432,0.109689,0.87062576)" /></defs><sodipodi:namedview
   pagecolor="#ffffff"
   bordercolor="#666666"
   borderopacity="1"
   objecttolerance="10"
   gridtolerance="10"
   guidetolerance="10"
   inkscape:pageopacity="0"
   inkscape:pageshadow="2"
   inkscape:window-width="1680"
   inkscape:window-height="980"
   id="namedview5"
   showgrid="false"
   inkscape:zoom="2.8125"
   inkscape:cx="113.77778"
   inkscape:cy="127.28889"
   inkscape:window-x="0"
   inkscape:window-y="25"
   inkscape:window-maximized="1"
   inkscape:current-layer="Layer_1"
   showguides="true"
   inkscape:guide-bbox="true"><sodipodi:guide
     orientation="1,0"
     position="-83.2,138.31111"
     id="guide3793" /></sodipodi:namedview>
<path
   d="m 20.782921,7.2504756 c 0,0 0.207106,1.7189965 0.187475,1.9336683 -0.01963,0.2146728 0.06141,0.8873241 0.09797,1.0648961 0.03656,0.177572 0.132261,0.493602 0.213987,0.592941 0.08173,0.09934 0.228647,0.236319 0.417241,0.240895 0.188595,0.0045 0.194104,0.02514 0.300973,-0.06962 0.106867,-0.09477 0.133486,-0.201093 0.165614,-0.286854 0.03213,-0.08576 0.06278,-0.259299 0.09127,0.0527 0.02849,0.311995 0.02996,0.399773 -0.07193,0.636488 -0.101899,0.236715 -0.407589,0.946861 -0.392285,1.703255 0.01531,0.756396 0.05428,1.230907 -0.126931,1.66522 -0.181212,0.434315 -0.483411,1.198633 -0.483411,1.198633 0,0 -0.190755,0.480958 -0.118575,0.626943 0.07218,0.145983 0.112776,0.256345 0.459852,0.31765 0.347076,0.06131 1.441002,0.153945 1.840234,0.245363 0.399233,0.09142 1.281439,0.339984 1.546251,0.42333 0.264808,0.08335 1.468953,0.587325 1.877729,0.632097 0.408777,0.04477 1.547331,0.180566 1.939575,0.163638 0.392243,-0.01693 1.243405,0.07463 1.463588,0.11483 0.220182,0.0402 0.88624,0.181355 0.932885,0.1909 0.04664,0.0095 -0.545757,0.102148 -1.046887,0.247448 -0.501129,0.145299 -1.555147,0.73633 -1.785415,0.864159 -0.230269,0.127831 -1.521147,1.068891 -1.738377,1.204249 -0.217229,0.135358 -1.242758,1.038383 -1.437944,1.256008 -0.195186,0.217625 -0.536898,0.628816 -0.502355,0.839994 0.03454,0.211179 0.135754,0.547773 0.480274,0.764067 0.344519,0.216294 0.914731,0.493352 1.023076,0.486363 0.108344,-0.007 0.252312,-0.04556 0.252312,-0.04556 0,0 0.0371,0.05619 -0.372218,0.1328 -0.409318,0.07661 -0.588908,0.146776 -0.852242,0.151207 -0.263333,0.0045 -0.775484,0.108593 -0.958569,0.124586 -0.183081,0.01599 -0.685689,0.07351 -0.685689,0.07351 0,0 -0.69174,0.174329 -0.873347,0.278099 -0.181607,0.10377 -0.358244,0.34949 -0.314158,0.514023 0.04409,0.164535 0.358892,0.763528 0.358892,0.763528 l 0.411585,0.672254 0.504873,0.691345 0.423148,0.592006 0.302306,0.470082 0.197994,0.409857 0.117744,0.398297 c 0,0 -0.284835,-0.199221 -0.528537,-0.409464 -0.243707,-0.210243 -0.779773,-0.606665 -0.925218,-0.655867 -0.145443,-0.0492 -1.009101,-0.269674 -1.009101,-0.269674 l -0.684608,-0.169254 c 0,0 -0.638505,-0.03832 -0.838122,-0.08403 -0.199615,-0.04571 -0.647508,-0.113064 -0.787442,-0.141699 -0.139932,-0.02864 -0.36966,-0.02219 -0.459996,0.134278 -0.09034,0.156464 -0.216833,0.465901 -0.197348,0.703158 0.01949,0.237256 0.08158,0.551267 0.20941,0.781535 0.127832,0.230269 0.243164,0.331626 0.398153,0.334183 0.154988,0.0026 -0.202174,0.109281 -0.202174,0.109281 0,0 -0.214671,-0.01963 -0.47894,-0.224362 -0.264271,-0.20473 -0.855445,-0.806821 -0.898055,-0.883577 -0.04261,-0.07676 -0.466299,-0.547379 -0.710001,-0.75762 -0.243703,-0.210243 -0.684464,-0.621183 -0.923197,-0.689475 -0.238731,-0.06829 -0.479481,-0.102978 -0.518202,0.204982 -0.03872,0.307962 -0.01023,0.619956 -0.01023,0.619956 l 0.08724,0.119908 -0.182543,-0.105393 c 0,0 -0.09127,-0.0527 -0.257678,-0.426931 -0.166409,-0.374235 -0.568845,-1.423678 -0.568845,-1.423678 l -0.881626,-2.056281 -0.616567,-1.190456 c 0,0 -0.337929,-0.438493 -0.445733,-0.55289 -0.107804,-0.114396 -0.296399,-0.118969 -0.41227,-0.09894 -0.115872,0.02003 -0.327052,0.05457 -0.327052,0.05457 0,0 -0.224757,0.148398 -0.591608,0.753693 -0.366852,0.605294 -0.81853,1.387621 -1.220609,2.355049 -0.402079,0.967428 -0.7769997,1.707144 -0.9315931,2.035132 -0.1545935,0.327986 -0.3804318,0.719149 -0.3679333,0.848061 0.012498,0.128911 0.065589,0.368183 0.082121,0.429883 0.016532,0.0617 0.00146,0.08778 -0.071791,0.18456 -0.073264,0.09678 -0.045708,0.199617 -0.1841637,0.258759 -0.1384561,0.05915 -0.1178895,0.05363 -0.2442438,-0.08886 -0.1263526,-0.142491 -0.1950406,-0.234303 -0.1227138,-0.540245 0.072322,-0.305944 0.087382,-0.332021 0.2359229,-0.559192 0.1485425,-0.22717 0.8877575,-1.417193 0.9711068,-1.682003 0.08335,-0.264809 0.330293,-0.782867 0.464319,-1.105343 0.134026,-0.322477 0.863302,-1.796399 0.998805,-2.031097 0.135503,-0.234698 0.627771,-0.906664 0.643368,-1.054124 0.0156,-0.147461 0.107408,-0.216149 -0.03803,-0.26535 -0.14544,-0.0492 -0.616854,-0.286604 -0.837038,-0.3268 -0.220181,-0.0402 -0.851159,-0.09156 -0.993108,-0.08659 -0.141951,0.005 -1.8152388,0.01245 -2.3639488,-0.06095 C 7.3409088,21.499191 6.5404281,21.349966 6.3668895,21.319315 6.193351,21.288658 5.5528302,21.283938 5.4259354,21.26284 5.2990415,21.241734 4.8752081,21.223035 4.7112145,21.14574 4.547221,21.068442 4.4098464,20.884821 4.4098464,20.884821 c 0,0 0.2477366,0.143031 0.4478934,0.06735 0.2001561,-0.07568 0.432442,-0.23711 0.4440042,-0.31736 0.011564,-0.08025 0.090336,-0.156466 -0.1388519,-0.271402 -0.2291876,-0.114936 -0.8028945,-0.446166 -0.9874548,-0.517952 -0.1845596,-0.07178 -0.1845596,-0.07178 -0.1845596,-0.07178 0,0 -0.087238,-0.119908 -0.2005522,-0.254871 C 3.6770102,19.383841 3.6013356,19.183684 3.564236,19.127495 3.527137,19.071305 3.634005,18.97654 3.651618,18.795473 3.669232,18.614406 3.716416,18.502569 3.627163,18.416268 c -0.089255,-0.0863 -0.2738159,-0.158087 -0.089255,-0.0863 0.1845599,0.07178 0.2903467,0.219786 0.2953166,0.361736 0.00495,0.141951 0.093685,0.349635 0.093685,0.349635 0,0 0.1830829,-0.01599 0.2392734,-0.05309 0.056191,-0.0371 0.2693843,-0.105248 0.3055473,-0.258219 0.036161,-0.152972 0.014117,-0.235239 -0.045021,-0.373695 -0.059145,-0.138455 -0.7966974,-0.99891 -0.7966974,-0.99891 0,0 -0.9416018,-1.169495 -1.440028,-1.631113 C 1.691557,15.264695 1.351071,14.98119 1.2116794,14.831172 1.0722866,14.681154 0.8998287,14.407734 0.8998287,14.407734 L 0.81111531,14.20005 c 0,0 -0.0411342,0.01102 0.22165949,0.127976 0.2627922,0.116952 1.3029426,0.543632 1.652036,0.571331 0.3490945,0.0277 1.2373538,0.17545 1.4129093,0.172498 0.1755554,-0.003 0.8948508,-0.07445 1.0037341,-0.20282 0.1088859,-0.128372 0.3101231,-0.446814 0.1697953,-0.805993 -0.1403287,-0.359179 -0.4771747,-1.04044 -0.5809446,-1.222046 -0.10377,-0.181607 -0.258074,-0.757476 -0.2876456,-0.826704 -0.029572,-0.06923 -0.062638,-0.192629 -0.062638,-0.192629 0,0 0.418177,0.450055 0.613759,0.562976 0.195582,0.112918 0.5872864,0.217373 0.7407988,0.132152 0.1535107,-0.08522 0.3421072,-0.08064 0.4772133,-0.645887 C 6.3068993,11.305662 6.517827,10.488648 6.517827,10.488648 L 6.7313117,9.5166454 6.8529847,8.6133297 c 0,0 0.1062211,-1.2077801 0.06779,-1.8036753 C 6.88234,6.213761 6.7502234,5.268231 6.7502234,5.268231 L 6.697963,4.00372 c 0,0 0.684175,1.525036 1.6367975,2.7356643 0.9526219,1.2106283 1.0824694,1.4072913 1.4765868,1.8086855 0.3941167,0.4013941 0.9867677,1.0912628 1.1412157,1.2152033 0.154449,0.1239413 0.764569,1.0846719 0.898451,1.2141229 0.133882,0.129451 0.366022,0.419943 0.494393,0.528828 0.12837,0.108885 0.313868,0.389831 0.62089,0.219392 0.307026,-0.170441 0.699956,-0.76068 0.770266,-1.033017 0.07031,-0.272339 0.320497,-1.5186973 0.320497,-1.5186973 0,0 0.04128,-0.4629485 0.146668,-0.6454906 0.105391,-0.1825439 0.262938,-0.3349761 0.29856,-0.3665636 0.03563,-0.031582 0.02553,0.1364389 0.04153,0.3195232 0.01599,0.1830835 0.113712,0.4655063 0.296255,0.5708974 0.182543,0.1053919 0.273273,0.2794718 0.556236,0.060364 0.282965,-0.2191022 1.102285,-0.9456362 1.194096,-1.0143243 0.09181,-0.06869 0.865966,-0.7169882 0.88855,-0.7561043 0.02259,-0.039112 0.721996,-0.6784118 0.87605,-0.8850155 0.154053,-0.2066037 0.643765,-0.7235806 0.862076,-1.1017047 0.218309,-0.3781249 1.050813,-1.5490581 1.080926,-1.6012123 0.03011,-0.052158 0.661918,-1.0260312 0.737198,-1.1564184 0.07528,-0.1303879 0.07528,-0.1303879 0.07528,-0.1303879 l 0.06372,-0.050136 c 0,0 0.0093,0.8572107 -0.119802,1.3216369 -0.129055,0.4644261 -0.236069,1.011118 -0.26283,1.5693738 -0.02676,0.5582558 -0.0087,1.9421323 -0.0087,1.9421323 z"
   id="path3"
   style="fill:#fce94f;stroke:#000000;stroke-width:0.06022357" />
<path
   style="fill:url(#linearGradient3759);fill-opacity:1;stroke:#000000;stroke-width:0.06022357"
   id="path2979"
   d="m 20.782921,7.2504756 c 0,0 0.207106,1.7189965 0.187475,1.9336683 -0.01963,0.2146728 0.06141,0.8873241 0.09797,1.0648961 0.03656,0.177572 0.132261,0.493602 0.213987,0.592941 0.08173,0.09934 0.228647,0.236319 0.417241,0.240895 0.188595,0.0045 0.194104,0.02514 0.300973,-0.06962 0.106867,-0.09477 0.133486,-0.201093 0.165614,-0.286854 0.03213,-0.08576 0.06278,-0.259299 0.09127,0.0527 0.02849,0.311995 0.02996,0.399773 -0.07193,0.636488 -0.101899,0.236715 -0.407589,0.946861 -0.392285,1.703255 0.01531,0.756396 0.05428,1.230907 -0.126931,1.66522 -0.181212,0.434315 -0.483411,1.198633 -0.483411,1.198633 0,0 -0.190755,0.480958 -0.118575,0.626943 0.07218,0.145983 0.112776,0.256345 0.459852,0.31765 0.347076,0.06131 1.441002,0.153945 1.840234,0.245363 0.399233,0.09142 1.281439,0.339984 1.546251,0.42333 0.264808,0.08335 1.468953,0.587325 1.877729,0.632097 0.408777,0.04477 1.547331,0.180566 1.939575,0.163638 0.392243,-0.01693 1.243405,0.07463 1.463588,0.11483 0.220182,0.0402 0.88624,0.181355 0.932885,0.1909 0.04664,0.0095 -0.545757,0.102148 -1.046887,0.247448 -0.501129,0.145299 -1.555147,0.73633 -1.785415,0.864159 -0.230269,0.127831 -1.521147,1.068891 -1.738377,1.204249 -0.217229,0.135358 -1.242758,1.038383 -1.437944,1.256008 -0.195186,0.217625 -0.536898,0.628816 -0.502355,0.839994 0.03454,0.211179 0.135754,0.547773 0.480274,0.764067 0.344519,0.216294 0.914731,0.493352 1.023076,0.486363 0.108344,-0.007 0.252312,-0.04556 0.252312,-0.04556 0,0 0.0371,0.05619 -0.372218,0.1328 -0.409318,0.07661 -0.588908,0.146776 -0.852242,0.151207 -0.263333,0.0045 -0.775484,0.108593 -0.958569,0.124586 -0.183081,0.01599 -0.685689,0.07351 -0.685689,0.07351 0,0 -0.69174,0.174329 -0.873347,0.278099 -0.181607,0.10377 -0.358244,0.34949 -0.314158,0.514023 0.04409,0.164535 0.358892,0.763528 0.358892,0.763528 l 0.411585,0.672254 0.504873,0.691345 0.423148,0.592006 0.302306,0.470082 0.197994,0.409857 0.117744,0.398297 c 0,0 -0.284835,-0.199221 -0.528537,-0.409464 -0.243707,-0.210243 -0.779773,-0.606665 -0.925218,-0.655867 -0.145443,-0.0492 -1.009101,-0.269674 -1.009101,-0.269674 l -0.684608,-0.169254 c 0,0 -0.638505,-0.03832 -0.838122,-0.08403 -0.199615,-0.04571 -0.647508,-0.113064 -0.787442,-0.141699 -0.139932,-0.02864 -0.36966,-0.02219 -0.459996,0.134278 -0.09034,0.156464 -0.216833,0.465901 -0.197348,0.703158 0.01949,0.237256 0.08158,0.551267 0.20941,0.781535 0.127832,0.230269 0.243164,0.331626 0.398153,0.334183 0.154988,0.0026 -0.202174,0.109281 -0.202174,0.109281 0,0 -0.214671,-0.01963 -0.47894,-0.224362 -0.264271,-0.20473 -0.855445,-0.806821 -0.898055,-0.883577 -0.04261,-0.07676 -0.466299,-0.547379 -0.710001,-0.75762 -0.243703,-0.210243 -0.684464,-0.621183 -0.923197,-0.689475 -0.238731,-0.06829 -0.479481,-0.102978 -0.518202,0.204982 -0.03872,0.307962 -0.01023,0.619956 -0.01023,0.619956 l 0.08724,0.119908 -0.182543,-0.105393 c 0,0 -0.09127,-0.0527 -0.257678,-0.426931 -0.166409,-0.374235 -0.568845,-1.423678 -0.568845,-1.423678 l -0.881626,-2.056281 -0.616567,-1.190456 c 0,0 -0.337929,-0.438493 -0.445733,-0.55289 -0.107804,-0.114396 -0.296399,-0.118969 -0.41227,-0.09894 -0.115872,0.02003 -0.327052,0.05457 -0.327052,0.05457 0,0 -0.224757,0.148398 -0.591608,0.753693 -0.366852,0.605294 -0.81853,1.387621 -1.220609,2.355049 -0.402079,0.967428 -0.7769997,1.707144 -0.9315931,2.035132 -0.1545935,0.327986 -0.3804318,0.719149 -0.3679333,0.848061 0.012498,0.128911 0.065589,0.368183 0.082121,0.429883 0.016532,0.0617 0.00146,0.08778 -0.071791,0.18456 -0.073264,0.09678 -0.045708,0.199617 -0.1841637,0.258759 -0.1384561,0.05915 -0.1178895,0.05363 -0.2442438,-0.08886 -0.1263526,-0.142491 -0.1950406,-0.234303 -0.1227138,-0.540245 0.072322,-0.305944 0.087382,-0.332021 0.2359229,-0.559192 0.1485425,-0.22717 0.8877575,-1.417193 0.9711068,-1.682003 0.08335,-0.264809 0.330293,-0.782867 0.464319,-1.105343 0.134026,-0.322477 0.863302,-1.796399 0.998805,-2.031097 0.135503,-0.234698 0.627771,-0.906664 0.643368,-1.054124 0.0156,-0.147461 0.107408,-0.216149 -0.03803,-0.26535 -0.14544,-0.0492 -0.616854,-0.286604 -0.837038,-0.3268 -0.220181,-0.0402 -0.851159,-0.09156 -0.993108,-0.08659 -0.141951,0.005 -1.8152388,0.01245 -2.3639488,-0.06095 C 7.3409088,21.499191 6.5404281,21.349966 6.3668895,21.319315 6.193351,21.288658 5.5528302,21.283938 5.4259354,21.26284 5.2990415,21.241734 4.8752081,21.223035 4.7112145,21.14574 4.547221,21.068442 4.4098464,20.884821 4.4098464,20.884821 c 0,0 0.2477366,0.143031 0.4478934,0.06735 0.2001561,-0.07568 0.432442,-0.23711 0.4440042,-0.31736 0.011564,-0.08025 0.090336,-0.156466 -0.1388519,-0.271402 -0.2291876,-0.114936 -0.8028945,-0.446166 -0.9874548,-0.517952 -0.1845596,-0.07178 -0.1845596,-0.07178 -0.1845596,-0.07178 0,0 -0.087238,-0.119908 -0.2005522,-0.254871 C 3.6770102,19.383841 3.6013356,19.183684 3.564236,19.127495 3.527137,19.071305 3.634005,18.97654 3.651618,18.795473 3.669232,18.614406 3.716416,18.502569 3.627163,18.416268 c -0.089255,-0.0863 -0.2738159,-0.158087 -0.089255,-0.0863 0.1845599,0.07178 0.2903467,0.219786 0.2953166,0.361736 0.00495,0.141951 0.093685,0.349635 0.093685,0.349635 0,0 0.1830829,-0.01599 0.2392734,-0.05309 0.056191,-0.0371 0.2693843,-0.105248 0.3055473,-0.258219 0.036161,-0.152972 0.014117,-0.235239 -0.045021,-0.373695 -0.059145,-0.138455 -0.7966974,-0.99891 -0.7966974,-0.99891 0,0 -0.9416018,-1.169495 -1.440028,-1.631113 C 1.691557,15.264695 1.351071,14.98119 1.2116794,14.831172 1.0722866,14.681154 0.8998287,14.407734 0.8998287,14.407734 L 0.81111531,14.20005 c 0,0 -0.0411342,0.01102 0.22165949,0.127976 0.2627922,0.116952 1.3029426,0.543632 1.652036,0.571331 0.3490945,0.0277 1.2373538,0.17545 1.4129093,0.172498 0.1755554,-0.003 0.8948508,-0.07445 1.0037341,-0.20282 0.1088859,-0.128372 0.3101231,-0.446814 0.1697953,-0.805993 -0.1403287,-0.359179 -0.4771747,-1.04044 -0.5809446,-1.222046 -0.10377,-0.181607 -0.258074,-0.757476 -0.2876456,-0.826704 -0.029572,-0.06923 -0.062638,-0.192629 -0.062638,-0.192629 0,0 0.418177,0.450055 0.613759,0.562976 0.195582,0.112918 0.5872864,0.217373 0.7407988,0.132152 0.1535107,-0.08522 0.3421072,-0.08064 0.4772133,-0.645887 C 6.3068993,11.305662 6.517827,10.488648 6.517827,10.488648 L 6.7313117,9.5166454 6.8529847,8.6133297 c 0,0 0.1062211,-1.2077801 0.06779,-1.8036753 C 6.88234,6.213761 6.7502234,5.268231 6.7502234,5.268231 L 6.697963,4.00372 c 0,0 0.684175,1.525036 1.6367975,2.7356643 0.9526219,1.2106283 1.0824694,1.4072913 1.4765868,1.8086855 0.3941167,0.4013941 0.9867677,1.0912628 1.1412157,1.2152033 0.154449,0.1239413 0.764569,1.0846719 0.898451,1.2141229 0.133882,0.129451 0.366022,0.419943 0.494393,0.528828 0.12837,0.108885 0.313868,0.389831 0.62089,0.219392 0.307026,-0.170441 0.699956,-0.76068 0.770266,-1.033017 0.07031,-0.272339 0.320497,-1.5186973 0.320497,-1.5186973 0,0 0.04128,-0.4629485 0.146668,-0.6454906 0.105391,-0.1825439 0.262938,-0.3349761 0.29856,-0.3665636 0.03563,-0.031582 0.02553,0.1364389 0.04153,0.3195232 0.01599,0.1830835 0.113712,0.4655063 0.296255,0.5708974 0.182543,0.1053919 0.273273,0.2794718 0.556236,0.060364 0.282965,-0.2191022 1.102285,-0.9456362 1.194096,-1.0143243 0.09181,-0.06869 0.865966,-0.7169882 0.88855,-0.7561043 0.02259,-0.039112 0.721996,-0.6784118 0.87605,-0.8850155 0.154053,-0.2066037 0.643765,-0.7235806 0.862076,-1.1017047 0.218309,-0.3781249 1.050813,-1.5490581 1.080926,-1.6012123 0.03011,-0.052158 0.661918,-1.0260312 0.737198,-1.1564184 0.07528,-0.1303879 0.07528,-0.1303879 0.07528,-0.1303879 l 0.06372,-0.050136 c 0,0 0.0093,0.8572107 -0.119802,1.3216369 -0.129055,0.4644261 -0.236069,1.011118 -0.26283,1.5693738 -0.02676,0.5582558 -0.0087,1.9421323 -0.0087,1.9421323 z" /><path
   style="fill:#ff8602;fill-opacity:1;stroke:none"
   d="M 12.730987,21.363744 19.811227,7.6870061 C 17.247208,12.742605 15.23473,17.355997 11.851454,23.210762 l -0.39579,0.92351 -0.483743,0.879533 -0.351813,0.791579 -0.483743,1.143393 -0.3957898,0.703627 -0.3957903,0.483743 0,0.879533 -0.2638597,0.39579 -0.3518132,-0.219884 0.043977,-0.571695 0.4397667,-0.835557 0.7476027,-1.3193 c 0,0 0.4837434,-1.055439 0.6156724,-1.231345 0.131931,-0.175907 0.527721,-1.143394 0.527721,-1.143394 l 0.747602,-1.099416 0.879533,-1.627135 z"
   id="path3761"
   sodipodi:nodetypes="cccccccccccccccsccc" /><path
   sodipodi:nodetypes="cccccccccccccccsccc"
   id="path3795"
   d="m 17.470939,15.114875 3.85073,-2.0699 c -1.409056,0.770937 -2.606471,1.510129 -4.350064,2.357795 l -0.237791,0.148742 -0.255312,0.130013 -0.207213,0.126123 -0.29271,0.184843 -0.206624,0.103052 -0.175461,0.05737 -0.124659,0.182763 -0.127361,0.05347 -0.06386,-0.08406 0.09291,-0.114 0.237201,-0.125673 0.388906,-0.192622 c 0,0 0.280244,-0.166565 0.340809,-0.188731 0.06057,-0.02217 0.304588,-0.180047 0.304588,-0.180047 l 0.35774,-0.146931 0.46817,-0.242204 z"
   style="fill:#ff8602;fill-opacity:1;stroke:none" /><path
   style="fill:#ff8602;fill-opacity:1;stroke:none"
   d="m 13.594083,16.464744 -1.261807,-4.185743 c 0.452164,1.541211 0.777017,2.9104 1.411658,4.742308 l 0.06313,0.273281 0.08877,0.272411 0.05749,0.235669 0.07648,0.337633 0.07338,0.21893 0.08361,0.164577 -0.04095,0.217408 0.05232,0.127835 0.104579,-0.01435 0.01483,-0.146314 -0.07902,-0.256541 -0.139047,-0.411117 c 0,0 -0.08058,-0.315894 -0.107765,-0.374376 -0.02719,-0.05848 -0.08827,-0.342634 -0.08827,-0.342634 l -0.149285,-0.356766 -0.16009,-0.502212 z"
   id="path3797"
   sodipodi:nodetypes="cccccccccccccccsccc" /><path
   sodipodi:nodetypes="cccccccccccccccsccc"
   id="path3799"
   d="M 10.975622,17.262323 8.2812307,9.2260328 C 9.2392739,12.181676 9.880097,14.786692 11.284825,18.326043 l 0.123242,0.519484 0.193545,0.524802 0.114593,0.448807 0.148101,0.641402 0.161109,0.422316 0.198978,0.32515 -0.151483,0.38867 0.120031,0.249155 0.288798,0.0018 0.0671,-0.265008 -0.16975,-0.492994 -0.305999,-0.79339 c 0,0 -0.163249,-0.602538 -0.227053,-0.717396 -0.06381,-0.114863 -0.179466,-0.653779 -0.179466,-0.653779 L 11.322696,18.228865 10.97562,17.262314 z"
   style="fill:#ff8602;fill-opacity:1;stroke:none" /><path
   style="fill:#ff8602;fill-opacity:1;stroke:none"
   d="m 17.413318,21.271184 8.381943,-1.258876 c -3.067787,0.49231 -5.678982,1.107473 -9.469823,1.467746 l -0.518645,0.126726 -0.555381,0.06655 -0.451777,0.102256 -0.638518,0.160085 -0.449364,0.04878 -0.380084,-0.02917 -0.27712,0.311796 -0.276482,0.0065 -0.133091,-0.256312 0.205422,-0.180369 0.516228,-0.07325 0.84572,-0.08867 c 0,0 0.610805,-0.128906 0.742118,-0.124377 0.131314,0.0045 0.663814,-0.137792 0.663814,-0.137792 l 0.776441,-0.01072 1.018599,-0.130918 z"
   id="path3801"
   sodipodi:nodetypes="cccccccccccccccsccc" /><path
   style="fill:#ff8602;fill-opacity:1;stroke:none"
   d="m 9.1471068,15.642595 -2.9256769,-2.0699 c 1.07056,0.770938 1.9803241,1.510129 3.3050568,2.357795 l 0.1806671,0.148742 0.1939784,0.130013 0.1574348,0.126123 0.222393,0.184843 0.156988,0.103052 0.133309,0.05736 0.09471,0.182763 0.09677,0.05347 0.04852,-0.08406 -0.07058,-0.113999 -0.180219,-0.125673 -0.29548,-0.192622 c 0,0 -0.212922,-0.166566 -0.258937,-0.188731 C 9.9600183,16.1896 9.7746169,16.031722 9.7746169,16.031722 L 9.5028089,15.88479 9.1471068,15.642586 z"
   id="path3803"
   sodipodi:nodetypes="cccccccccccccccsccc" /><path
   sodipodi:nodetypes="cccccccccccccccsccc"
   id="path3805"
   d="m 17.153963,19.961157 2.382627,-2.677155 c -0.885286,0.978118 -1.721129,1.799968 -2.710951,3.022142 l -0.167924,0.162991 -0.150792,0.178306 -0.142861,0.142421 -0.208442,0.200441 -0.119882,0.144544 -0.07184,0.126098 -0.192169,0.07379 -0.06391,0.09021 0.07814,0.05757 0.121146,-0.05746 0.144947,-0.165115 0.224308,-0.272208 c 0,0 0.189227,-0.193063 0.216375,-0.236325 0.02715,-0.04327 0.204682,-0.209944 0.204682,-0.209944 l 0.176266,-0.253762 0.280282,-0.326539 z"
   style="fill:#ff8602;fill-opacity:1;stroke:none" /><path
   style="fill:#ff8602;fill-opacity:1;stroke:none"
   d="m 21.668996,19.849981 1.561633,-1.754673 c -0.580238,0.641082 -1.128071,1.179742 -1.776824,1.980786 l -0.110062,0.106828 -0.09883,0.116866 -0.09363,0.09335 -0.13662,0.131374 -0.07857,0.09474 -0.04709,0.08265 -0.125952,0.04836 -0.04189,0.05913 0.05121,0.03773 0.07941,-0.03766 0.095,-0.10822 0.147017,-0.178412 c 0,0 0.124024,-0.126538 0.141818,-0.154893 0.01779,-0.02835 0.134152,-0.137602 0.134152,-0.137602 l 0.115529,-0.166322 0.183705,-0.214022 z"
   id="path3807"
   sodipodi:nodetypes="cccccccccccccccsccc" /><path
   sodipodi:nodetypes="cccccccccccccccsccc"
   id="path3809"
   d="m 20.591663,21.927579 1.864275,1.429006 c -0.690637,-0.520272 -1.330151,-0.946064 -2.118217,-1.610521 l -0.128218,-0.08418 -0.119082,-0.09615 -0.109546,-0.07404 -0.158925,-0.103278 -0.09502,-0.07824 -0.06181,-0.0723 -0.132807,-0.02376 -0.05228,-0.05018 0.04319,-0.0467 0.08508,0.02202 0.113693,0.08838 0.178,0.147516 c 0,0 0.145643,0.100903 0.168462,0.125397 0.02282,0.02449 0.157676,0.109861 0.157676,0.109861 l 0.144798,0.141575 0.220739,0.175574 z"
   style="fill:#ff8602;fill-opacity:1;stroke:none" /><path
   sodipodi:nodetypes="cccccccccccccccsccc"
   id="path3811"
   d="M 15.645333,13.592419 14.889864,11.36827 c 0.271237,0.821031 0.469385,1.563334 0.845935,2.522897 l 0.0386,0.148445 0.05287,0.143632 0.03498,0.127505 0.04684,0.183657 0.04362,0.115092 0.04865,0.08174 -0.0201,0.133411 0.03075,0.06562 0.05808,-0.02592 0.0064,-0.08765 -0.04724,-0.136035 -0.08262,-0.215913 c 0,0 -0.04885,-0.170314 -0.06473,-0.199785 -0.01588,-0.02947 -0.05348,-0.184585 -0.05348,-0.184585 l -0.08765,-0.18256 -0.09549,-0.265395 z"
   style="fill:#ff8602;fill-opacity:1;stroke:none" /><path
   style="fill:#ff8602;fill-opacity:1;stroke:none"
   d="m 18.533589,22.865436 1.887675,3.046431 c -0.704232,-1.115572 -1.386582,-2.068711 -2.151903,-3.442659 l -0.137451,-0.189399 -0.117944,-0.201545 -0.116291,-0.164831 -0.170939,-0.233249 -0.09329,-0.162979 -0.04913,-0.136559 -0.176647,-0.105679 -0.04747,-0.09985 0.08686,-0.0433 0.109483,0.0774 0.114451,0.187547 0.17425,0.306675 c 0,0 0.153274,0.222681 0.172595,0.269961 0.01932,0.04728 0.165601,0.241964 0.165601,0.241964 l 0.130087,0.280253 0.220066,0.369809 z"
   id="path3813"
   sodipodi:nodetypes="cccccccccccccccsccc" /><path
   sodipodi:nodetypes="cccccccccccccccsccc"
   id="path3815"
   d="M 9.6960062,18.797656 5.8789655,16.666269 c 1.3965103,0.793437 2.5819181,1.551735 4.3116935,2.427252 l 0.235374,0.152538 0.253195,0.13409 0.205163,0.12943 0.289709,0.189512 0.204945,0.106351 0.174517,0.06017 0.121715,0.184738 0.126487,0.05551 0.06519,-0.08302 -0.09107,-0.115475 -0.235155,-0.12946 -0.385768,-0.198835 c 0,0 -0.277537,-0.171039 -0.337738,-0.194172 -0.0602,-0.02314 -0.301661,-0.184908 -0.301661,-0.184908 L 10.160231,19.047337 9.6960062,18.797656 z"
   style="fill:#ff8602;fill-opacity:1;stroke:none" /></svg>