<?xml version="1.0" encoding="UTF-8" standalone="no"?>
<!-- Created with Inkscape (http://www.inkscape.org/) -->

<svg
   xmlns:dc="http://purl.org/dc/elements/1.1/"
   xmlns:cc="http://creativecommons.org/ns#"
   xmlns:rdf="http://www.w3.org/1999/02/22-rdf-syntax-ns#"
   xmlns:svg="http://www.w3.org/2000/svg"
   xmlns="http://www.w3.org/2000/svg"
   xmlns:xlink="http://www.w3.org/1999/xlink"
   xmlns:sodipodi="http://sodipodi.sourceforge.net/DTD/sodipodi-0.dtd"
   xmlns:inkscape="http://www.inkscape.org/namespaces/inkscape"
   version="1.0"
   width="48"
   height="48"
   id="svg2160"
   sodipodi:version="0.32"
   inkscape:version="0.47+devel r9474"
   sodipodi:docname="plugin-resizeinfo.svg"
   inkscape:export-filename="/home/mark/beryl/resize.png"
   inkscape:export-xdpi="180"
   inkscape:export-ydpi="180"
   inkscape:output_extension="org.inkscape.output.svg.inkscape"
   sodipodi:modified="true">
  <metadata
     id="metadata68">
    <rdf:RDF>
      <cc:Work
         rdf:about="">
        <dc:format>image/svg+xml</dc:format>
        <dc:type
           rdf:resource="http://purl.org/dc/dcmitype/StillImage" />
      </cc:Work>
    </rdf:RDF>
  </metadata>
  <sodipodi:namedview
     inkscape:window-height="710"
     inkscape:window-width="1278"
     inkscape:pageshadow="2"
     inkscape:pageopacity="0.0"
     guidetolerance="10.0"
     gridtolerance="10.0"
     objecttolerance="10.0"
     borderopacity="1.0"
     bordercolor="#666666"
     pagecolor="#ffffff"
     id="base"
     inkscape:zoom="7.5572037"
     inkscape:cx="40.264542"
     inkscape:cy="24"
     inkscape:window-x="0"
     inkscape:window-y="49"
     inkscape:current-layer="svg2160"
     showgrid="false"
     showguides="true"
     inkscape:guide-bbox="false"
     inkscape:grid-bbox="false"
     inkscape:object-paths="false"
     inkscape:showpageshadow="false"
     inkscape:snap-global="false"
     showborder="true"
     inkscape:window-maximized="0">
    <inkscape:grid
       type="xygrid"
       id="grid8340"
       visible="true"
       enabled="true"
       empspacing="5"
       snapvisiblegridlinesonly="true" />
  </sodipodi:namedview>
  <defs
     id="defs2162">
    <radialGradient
       inkscape:collect="always"
       xlink:href="#linearGradient2591"
       id="radialGradient2597"
       cx="22.291636"
       cy="32.797512"
       fx="22.291636"
       fy="32.797512"
       r="16.9562"
       gradientTransform="matrix(0.843022,0,0,1.020168,4.499298,1.381992)"
       gradientUnits="userSpaceOnUse" />
    <linearGradient
       id="linearGradient2591">
      <stop
         style="stop-color:#73d216"
         offset="0"
         id="stop2593" />
      <stop
         style="stop-color:#4e9a06"
         offset="1.0000000"
         id="stop2595" />
    </linearGradient>
    <radialGradient
       gradientUnits="userSpaceOnUse"
       gradientTransform="matrix(2.046729,0,0,1.55761,-19.51799,3.452086)"
       r="17.171415"
       fy="2.8969381"
       fx="19.701141"
       cy="2.8969381"
       cx="19.701141"
       id="radialGradient8656"
       xlink:href="#linearGradient8650"
       inkscape:collect="always" />
    <linearGradient
       id="linearGradient8650"
       inkscape:collect="always">
      <stop
         id="stop8652"
         offset="0"
         style="stop-color:#ffffff;stop-opacity:1;" />
      <stop
         id="stop8654"
         offset="1"
         style="stop-color:#ffffff;stop-opacity:0;" />
    </linearGradient>
    <linearGradient
       id="linearGradient5048">
      <stop
         style="stop-color:black;stop-opacity:0;"
         offset="0"
         id="stop5050" />
      <stop
         id="stop5056"
         offset="0.5"
         style="stop-color:black;stop-opacity:1;" />
      <stop
         style="stop-color:black;stop-opacity:0;"
         offset="1"
         id="stop5052" />
    </linearGradient>
    <linearGradient
       inkscape:collect="always"
       id="linearGradient5060">
      <stop
         style="stop-color:black;stop-opacity:1;"
         offset="0"
         id="stop5062" />
      <stop
         style="stop-color:black;stop-opacity:0;"
         offset="1"
         id="stop5064" />
    </linearGradient>
    <linearGradient
       id="linearGradient3832">
      <stop
         style="stop-color:#ffffff;stop-opacity:1;"
         offset="0"
         id="stop3834" />
      <stop
         style="stop-color:#e0e0e0;stop-opacity:1;"
         offset="1"
         id="stop3836" />
    </linearGradient>
    <linearGradient
       inkscape:collect="always"
       id="linearGradient4816">
      <stop
         style="stop-color:#204a87;stop-opacity:1;"
         offset="0"
         id="stop4818" />
      <stop
         style="stop-color:#204a87;stop-opacity:0;"
         offset="1"
         id="stop4820" />
    </linearGradient>
    <linearGradient
       inkscape:collect="always"
       xlink:href="#linearGradient5048"
       id="linearGradient3776"
       gradientUnits="userSpaceOnUse"
       gradientTransform="matrix(2.774389,0,0,1.969706,-1892.179,-872.8854)"
       x1="302.85715"
       y1="366.64789"
       x2="302.85715"
       y2="609.50507" />
    <radialGradient
       inkscape:collect="always"
       xlink:href="#linearGradient5060"
       id="radialGradient3778"
       gradientUnits="userSpaceOnUse"
       gradientTransform="matrix(2.774389,0,0,1.969706,-1891.633,-872.8854)"
       cx="605.71429"
       cy="486.64789"
       fx="605.71429"
       fy="486.64789"
       r="117.14286" />
    <radialGradient
       inkscape:collect="always"
       xlink:href="#linearGradient5060"
       id="radialGradient3780"
       gradientUnits="userSpaceOnUse"
       gradientTransform="matrix(-2.774389,0,0,1.969706,112.7623,-872.8854)"
       cx="605.71429"
       cy="486.64789"
       fx="605.71429"
       fy="486.64789"
       r="117.14286" />
    <linearGradient
       inkscape:collect="always"
       xlink:href="#linearGradient3832"
       id="linearGradient3782"
       gradientUnits="userSpaceOnUse"
       gradientTransform="matrix(0.993847,0,0,0.984817,-0.192265,-0.512678)"
       x1="17.88068"
       y1="11.072588"
       x2="17.88068"
       y2="21.767578" />
    <linearGradient
       inkscape:collect="always"
       xlink:href="#linearGradient4816"
       id="linearGradient3784"
       gradientUnits="userSpaceOnUse"
       x1="13.267747"
       y1="7.7190704"
       x2="13.267747"
       y2="12.480761" />
    <radialGradient
       inkscape:collect="always"
       xlink:href="#linearGradient2591-6"
       id="radialGradient3200"
       gradientUnits="userSpaceOnUse"
       gradientTransform="matrix(0.843022,0,0,1.02017,4.4993,1.38199)"
       cx="22.291636"
       cy="32.797512"
       fx="22.291636"
       fy="32.797512"
       r="16.9562" />
    <linearGradient
       id="linearGradient2591-6">
      <stop
         style="stop-color: rgb(115, 210, 22);"
         offset="0"
         id="stop2593-7" />
      <stop
         style="stop-color: rgb(78, 154, 6);"
         offset="1.0000000"
         id="stop2595-5" />
    </linearGradient>
    <linearGradient
       inkscape:collect="always"
       xlink:href="#linearGradient3687"
       id="linearGradient3202"
       gradientUnits="userSpaceOnUse"
       x1="39.08004"
       y1="26.590775"
       x2="8.015358"
       y2="26.590775" />
    <linearGradient
       id="linearGradient3687">
      <stop
         style="stop-color: rgb(58, 115, 4); stop-opacity: 1;"
         offset="0"
         id="stop3689" />
      <stop
         id="stop3695"
         offset="0.76175678"
         style="stop-color: rgb(58, 115, 4); stop-opacity: 0.498039;" />
      <stop
         style="stop-color: rgb(58, 115, 4); stop-opacity: 0;"
         offset="1"
         id="stop3691" />
    </linearGradient>
    <radialGradient
       inkscape:collect="always"
       xlink:href="#linearGradient8650-6"
       id="radialGradient3204"
       gradientUnits="userSpaceOnUse"
       gradientTransform="matrix(2.04673,0,0,1.55761,-18.3534,5.39221)"
       cx="19.701141"
       cy="2.8969381"
       fx="19.701141"
       fy="2.8969381"
       r="17.171415" />
    <linearGradient
       id="linearGradient8650-6"
       inkscape:collect="always">
      <stop
         id="stop8652-9"
         offset="0"
         style="stop-color: rgb(255, 255, 255); stop-opacity: 1;" />
      <stop
         id="stop8654-8"
         offset="1"
         style="stop-color: rgb(255, 255, 255); stop-opacity: 0;" />
    </linearGradient>
  </defs>
  <g
     id="layer2"
     transform="matrix(0.19353932,0,0,0.19353932,0.46320346,29.578182)" />
  <g
     id="g4467"
     transform="matrix(0.19353932,0,0,0.19353932,-8.0376318,19.3459)" />
  <g
     id="g5022"
     transform="matrix(0.02516473,0,0,0.02934302,46.690163,37.730036)">
    <rect
       y="-150.69685"
       x="-1559.2523"
       height="478.35718"
       width="1339.6335"
       id="rect4173"
       style="opacity:0.40206185;color:#000000;fill:url(#linearGradient3776);fill-opacity:1;fill-rule:nonzero;stroke:none;stroke-width:1;marker:none;visibility:visible;display:inline;overflow:visible" />
    <path
       inkscape:connector-curvature="0"
       sodipodi:nodetypes="cccc"
       id="path5058"
       d="m -219.61876,-150.68038 c 0,0 0,478.33079 0,478.33079 142.874166,0.90045 345.40022,-107.16966 345.40014,-239.196175 0,-132.026537 -159.436816,-239.134595 -345.40014,-239.134615 z"
       style="opacity:0.40206185;color:#000000;fill:url(#radialGradient3778);fill-opacity:1;fill-rule:nonzero;stroke:none;stroke-width:1;marker:none;visibility:visible;display:inline;overflow:visible" />
    <path
       inkscape:connector-curvature="0"
       style="opacity:0.40206185;color:#000000;fill:url(#radialGradient3780);fill-opacity:1;fill-rule:nonzero;stroke:none;stroke-width:1;marker:none;visibility:visible;display:inline;overflow:visible"
       d="m -1559.2523,-150.68038 c 0,0 0,478.33079 0,478.33079 -142.8742,0.90045 -345.4002,-107.16966 -345.4002,-239.196175 0,-132.026537 159.4368,-239.134595 345.4002,-239.134615 z"
       id="path5018"
       sodipodi:nodetypes="cccc" />
  </g>
  <g
     transform="matrix(2.8471305,0,0,2.5095243,-13.625408,-14.699344)"
     id="g4826">
    <rect
       style="color:#000000;fill:url(#linearGradient3782);fill-opacity:1;fill-rule:evenodd;stroke:#8d8d8d;stroke-width:0.58708906;stroke-linecap:butt;stroke-linejoin:miter;stroke-miterlimit:4;stroke-opacity:1;stroke-dasharray:none;stroke-dashoffset:0;marker:none;visibility:visible;display:inline;overflow:visible"
       id="rect4828"
       width="15.987699"
       height="15.642846"
       x="5.2738938"
       y="7.3579211"
       rx="0.60969371"
       ry="0.69171613" />
    <rect
       style="color:#000000;fill:url(#linearGradient3784);fill-opacity:1;fill-rule:evenodd;stroke:none;stroke-width:1;marker:none;visibility:visible;display:inline;overflow:visible"
       id="rect4830"
       width="14.330762"
       height="2.5013354"
       x="6.102366"
       y="8.3006659"
       rx="0.12251196"
       ry="0.13899347" />
    <rect
       ry="0.14454938"
       rx="0.14454938"
       y="7.8840585"
       x="5.8116298"
       height="14.590583"
       width="14.912238"
       id="rect4958"
       style="color:#000000;fill:none;stroke:#ffffff;stroke-width:0.5870893;stroke-linecap:butt;stroke-linejoin:miter;stroke-miterlimit:4;stroke-opacity:0.54545456;stroke-dasharray:none;stroke-dashoffset:0;marker:none;visibility:visible;display:inline;overflow:visible" />
  </g>
  <rect
     style="fill:#555753;fill-opacity:1;fill-rule:evenodd;stroke:#868c79;stroke-width:1.09318553999999990;stroke-linecap:round;stroke-linejoin:round;stroke-miterlimit:4;stroke-opacity:1;stroke-dasharray:none;stroke-dashoffset:0"
     id="rect3195"
     width="37.92099"
     height="13.725085"
     x="5.2552524"
     y="14.181034"
     rx="4.1290355"
     ry="3.6949773" />
  <g
     style="font-size:11.96554661px;font-style:normal;font-variant:normal;font-weight:normal;font-stretch:normal;text-align:start;line-height:125%;letter-spacing:0;word-spacing:0;writing-mode:lr-tb;text-anchor:start;fill:#eeeeec;fill-opacity:1;stroke:none;font-family:Neuropol;-inkscape-font-specification:Neuropol"
     id="text3019"
     transform="matrix(1.167328,0,0,1.167328,-4.0928388,-3.5213253)">
    <path
       d="m 19.896951,19.835044 c -9e-6,0.455723 -0.247344,0.837436 -0.742004,1.14514 0.346649,0.264866 0.564771,0.521938 0.654366,0.771217 0.05063,0.112959 0.07594,0.453774 0.07595,1.022447 -9e-6,0.658262 -0.3603,1.149036 -1.080872,1.472323 -0.490782,0.237597 -1.139305,0.356396 -1.94557,0.356396 l -2.775212,0 c -0.708899,0 -1.355474,-0.120746 -1.939728,-0.362239 -0.724477,-0.319392 -1.086715,-0.806271 -1.086714,-1.460638 -10e-7,-0.514142 0.02337,-0.856905 0.07011,-1.028289 0.08959,-0.311599 0.301865,-0.568671 0.636839,-0.771217 -0.338869,-0.167482 -0.558939,-0.399237 -0.660209,-0.695263 -0.05843,-0.175272 -0.08764,-0.502455 -0.08764,-0.981549 -10e-7,-1.211349 1.076975,-1.817027 3.230931,-1.817034 l 2.44803,0 c 2.13447,7e-6 3.201709,0.603737 3.201718,1.811191 l 0,0.537515 m -1.285361,-0.01753 0,-0.519987 c -8e-6,-0.502453 -0.638793,-0.753683 -1.916357,-0.753689 l -2.44803,0 c -1.289259,6e-6 -1.933886,0.253183 -1.933885,0.759532 l 0,0.514144 c -1e-6,0.416774 0.603729,0.625158 1.811192,0.625154 l 2.693416,0 c 0.381707,4e-6 0.734207,-0.03505 1.057502,-0.105166 0.490767,-0.105162 0.736154,-0.278491 0.736162,-0.519988 m -0.01169,2.944647 0,-0.607626 c -8e-6,-0.229804 -0.259027,-0.403133 -0.777059,-0.519987 -0.362245,-0.08179 -0.724483,-0.12269 -1.086715,-0.122693 l -2.553195,0 c -0.451827,3e-6 -0.814065,0.03701 -1.086715,0.111008 -0.502461,0.112959 -0.753691,0.290183 -0.753689,0.531672 l 0,0.619311 c -2e-6,0.04674 0.037,0.112957 0.111009,0.198647 0.29602,0.373924 0.839377,0.560886 1.630072,0.560885 l 2.775212,0 c 0.393392,1e-6 0.74784,-0.04674 1.063344,-0.140222 0.451817,-0.136325 0.677728,-0.346656 0.677736,-0.630995"
       style="fill:#eeeeec"
       id="path3024"
       inkscape:connector-curvature="0" />
    <path
       d="m 28.392022,24.193588 c -8e-6,0.210332 -0.107121,0.338868 -0.32134,0.385608 -0.03117,0.01558 -0.222025,0.02337 -0.57257,0.02337 -0.09349,0 -0.183074,-0.03116 -0.268758,-0.09348 l -2.757684,-2.009838 -2.781055,2.009838 c -0.08569,0.06232 -0.303814,0.09348 -0.654366,0.09348 -0.350553,0 -0.52583,-0.136327 -0.52583,-0.408979 0,-0.159696 0.08764,-0.301865 0.262915,-0.426506 l 2.746,-1.963098 -2.716787,-1.96894 c -0.167487,-0.120741 -0.25123,-0.26291 -0.25123,-0.426506 0,-0.214222 0.111008,-0.344705 0.333026,-0.391451 0.05063,-0.01168 0.245386,-0.01752 0.584255,-0.01753 0.09737,6e-6 0.18696,0.02922 0.268757,0.08764 l 2.740157,2.009838 2.681732,-2.003995 c 0.074,-0.06231 0.288225,-0.09347 0.64268,-0.09348 0.350546,6e-6 0.525822,0.134384 0.52583,0.403136 -8e-6,0.163597 -0.08375,0.305765 -0.25123,0.426507 l -2.652518,1.957255 2.710944,1.980625 c 0.171373,0.124641 0.257064,0.26681 0.257072,0.426506"
       style="fill:#eeeeec"
       id="path3026"
       inkscape:connector-curvature="0" />
    <path
       d="m 37.903696,18.01801 c -9e-6,0.175283 -0.0818,0.35835 -0.245387,0.5492 l -4.942799,5.865923 c -0.101275,0.112956 -0.340819,0.169434 -0.718634,0.169434 -0.315501,0 -0.47325,-0.144117 -0.473247,-0.432349 -3e-6,-0.116851 0.04089,-0.225912 0.122694,-0.327183 l 4.48708,-5.299195 -6.847471,0 c -0.303813,6e-6 -0.455719,-0.153848 -0.455719,-0.461561 0,-0.397287 0.151906,-0.595934 0.455719,-0.595941 l 7.805649,0 c 0.541401,7e-6 0.812106,0.177231 0.812115,0.531672"
       style="fill:#eeeeec"
       id="path3028"
       inkscape:connector-curvature="0" />
  </g>
  <g
     transform="matrix(0.32268255,0.3059631,-0.3059631,0.32268255,39.214599,20.338061)"
     id="g3180">
    <path
       inkscape:connector-curvature="0"
       style="color:#000000;fill:url(#radialGradient3200);fill-opacity:1;fill-rule:evenodd;stroke:url(#linearGradient3202);stroke-width:3.88309002;stroke-linecap:round;stroke-linejoin:round;stroke-miterlimit:10;stroke-opacity:1;stroke-dasharray:none;stroke-dashoffset:0;marker:none;visibility:visible;display:inline;overflow:visible"
       d="m 9.9569002,16.883062 0,15.628706 11.6492558,0 0,7.766882 19.891679,-16.128285 -19.891679,-15.0839538 0,7.8166508 -11.6492558,0 z"
       id="path3182"
       sodipodi:nodetypes="cccccccc" />
    <path
       inkscape:connector-curvature="0"
       style="opacity:0.50802098;color:#000000;fill:url(#radialGradient3204);fill-opacity:1;fill-rule:evenodd;stroke:none;stroke-width:1;marker:none;visibility:visible;display:inline;overflow:visible"
       d="m 23.126988,10.188623 0,7.806475 -11.228545,0.829506 0,9.040713 c 17.749999,2 15.044912,-8.284794 29.794912,-1.784794 l -18.566367,-15.8919 z"
       id="path3184"
       sodipodi:nodetypes="cccccc" />
    <path
       inkscape:connector-curvature="0"
       sodipodi:nodetypes="ccccccccc"
       id="path3186"
       d="m 13.455225,20.766147 0,7.76617 12.034016,0 0,5.044128 11.257064,-8.933436 -11.257064,-9.697607 0,5.820745 -12.034016,0 0,0 z"
       style="opacity:0.3;color:#000000;fill:none;stroke:#ffffff;stroke-width:3.11356997;stroke-linecap:butt;stroke-linejoin:round;stroke-miterlimit:10;stroke-opacity:1;stroke-dasharray:none;stroke-dashoffset:0;marker:none;visibility:visible;display:inline;overflow:visible" />
  </g>
</svg>
