<?xml version="1.0" encoding="UTF-8" standalone="no"?>
<!-- Created with Inkscape (http://www.inkscape.org/) -->

<svg
   xmlns:dc="http://purl.org/dc/elements/1.1/"
   xmlns:cc="http://creativecommons.org/ns#"
   xmlns:rdf="http://www.w3.org/1999/02/22-rdf-syntax-ns#"
   xmlns:svg="http://www.w3.org/2000/svg"
   xmlns="http://www.w3.org/2000/svg"
   xmlns:xlink="http://www.w3.org/1999/xlink"
   xmlns:sodipodi="http://sodipodi.sourceforge.net/DTD/sodipodi-0.dtd"
   xmlns:inkscape="http://www.inkscape.org/namespaces/inkscape"
   width="48"
   height="48"
   id="svg2"
   sodipodi:version="0.32"
   inkscape:version="0.47+devel r9425"
   version="1.0"
   sodipodi:docname="plugin-mswitch.svg"
   inkscape:output_extension="org.inkscape.output.svg.inkscape"
   sodipodi:modified="true">
  <defs
     id="defs4">
    <linearGradient
       inkscape:collect="always"
       id="linearGradient4728">
      <stop
         style="stop-color:#204a87;stop-opacity:1"
         offset="0"
         id="stop4730" />
      <stop
         style="stop-color:#3465a4;stop-opacity:0"
         offset="1"
         id="stop4732" />
    </linearGradient>
    <linearGradient
       inkscape:collect="always"
       xlink:href="#linearGradient4728"
       id="linearGradient4734"
       x1="27.25"
       y1="17.625"
       x2="11.625"
       y2="8.375"
       gradientUnits="userSpaceOnUse"
       gradientTransform="matrix(1.0664063,0,0,1.0664346,-2.0730681,-16.158584)" />
    <linearGradient
       inkscape:collect="always"
       id="linearGradient10554">
      <stop
         style="stop-color:white;stop-opacity:1;"
         offset="0"
         id="stop10556" />
      <stop
         style="stop-color:white;stop-opacity:0;"
         offset="1"
         id="stop10558" />
    </linearGradient>
    <linearGradient
       id="linearGradient124">
      <stop
         style="stop-color:#ffffff;stop-opacity:1.0000000;"
         offset="0.0000000"
         id="stop125" />
      <stop
         style="stop-color:silver;stop-opacity:1;"
         offset="1"
         id="stop126" />
    </linearGradient>
    <linearGradient
       inkscape:collect="always"
       xlink:href="#linearGradient124"
       id="linearGradient7995"
       gradientUnits="userSpaceOnUse"
       gradientTransform="matrix(1.4019046,3.2381864,-0.8095466,0.3504761,-482.91339,-745.38115)"
       x1="253.75711"
       y1="-129.52815"
       x2="252.00447"
       y2="-135.47408" />
    <radialGradient
       inkscape:collect="always"
       xlink:href="#linearGradient124"
       id="radialGradient7997"
       gradientUnits="userSpaceOnUse"
       gradientTransform="matrix(1.279254,0,0,1.7073246,-321.71546,-587.15241)"
       cx="307.7507"
       cy="361.47824"
       fx="307.7507"
       fy="361.47824"
       r="12.509617" />
    <linearGradient
       inkscape:collect="always"
       xlink:href="#linearGradient10554"
       id="linearGradient7999"
       gradientUnits="userSpaceOnUse"
       gradientTransform="matrix(1.5347684,0,0,1.4230823,-296.72742,-584.34298)"
       x1="240.9062"
       y1="425.18195"
       x2="248.28683"
       y2="437.96558" />
    <linearGradient
       inkscape:collect="always"
       xlink:href="#linearGradient124"
       id="linearGradient8013"
       gradientUnits="userSpaceOnUse"
       gradientTransform="matrix(1.4019046,3.2381864,-0.8095466,0.3504761,-482.91339,-745.38115)"
       x1="253.75711"
       y1="-129.52815"
       x2="252.00447"
       y2="-135.47408" />
    <radialGradient
       inkscape:collect="always"
       xlink:href="#linearGradient124"
       id="radialGradient8015"
       gradientUnits="userSpaceOnUse"
       gradientTransform="matrix(1.279254,0,0,1.7073246,-321.71546,-587.15241)"
       cx="307.7507"
       cy="361.47824"
       fx="307.7507"
       fy="361.47824"
       r="12.509617" />
    <linearGradient
       inkscape:collect="always"
       xlink:href="#linearGradient10554"
       id="linearGradient8017"
       gradientUnits="userSpaceOnUse"
       gradientTransform="matrix(1.5347684,0,0,1.4230823,-296.72742,-584.34298)"
       x1="240.9062"
       y1="425.18195"
       x2="248.28683"
       y2="437.96558" />
    <linearGradient
       inkscape:collect="always"
       xlink:href="#linearGradient124"
       id="linearGradient8029"
       gradientUnits="userSpaceOnUse"
       gradientTransform="matrix(1.4019046,3.2381864,-0.8095466,0.3504761,-482.91339,-745.38115)"
       x1="253.75711"
       y1="-129.52815"
       x2="252.00447"
       y2="-135.47408" />
    <radialGradient
       inkscape:collect="always"
       xlink:href="#linearGradient124"
       id="radialGradient8031"
       gradientUnits="userSpaceOnUse"
       gradientTransform="matrix(1.279254,0,0,1.7073246,-321.71546,-587.15241)"
       cx="307.7507"
       cy="361.47824"
       fx="307.7507"
       fy="361.47824"
       r="12.509617" />
    <linearGradient
       inkscape:collect="always"
       xlink:href="#linearGradient10554"
       id="linearGradient8033"
       gradientUnits="userSpaceOnUse"
       gradientTransform="matrix(1.5347684,0,0,1.4230823,-296.72742,-584.34298)"
       x1="240.9062"
       y1="425.18195"
       x2="248.28683"
       y2="437.96558" />
    <linearGradient
       inkscape:collect="always"
       xlink:href="#linearGradient124"
       id="linearGradient8045"
       gradientUnits="userSpaceOnUse"
       gradientTransform="matrix(1.4019046,3.2381864,-0.8095466,0.3504761,-482.91339,-745.38115)"
       x1="253.75711"
       y1="-129.52815"
       x2="252.00447"
       y2="-135.47408" />
    <radialGradient
       inkscape:collect="always"
       xlink:href="#linearGradient124"
       id="radialGradient8047"
       gradientUnits="userSpaceOnUse"
       gradientTransform="matrix(1.279254,0,0,1.7073246,-321.71546,-587.15241)"
       cx="307.7507"
       cy="361.47824"
       fx="307.7507"
       fy="361.47824"
       r="12.509617" />
    <linearGradient
       inkscape:collect="always"
       xlink:href="#linearGradient10554"
       id="linearGradient8049"
       gradientUnits="userSpaceOnUse"
       gradientTransform="matrix(1.5347684,0,0,1.4230823,-296.72742,-584.34298)"
       x1="240.9062"
       y1="425.18195"
       x2="248.28683"
       y2="437.96558" />
    <linearGradient
       inkscape:collect="always"
       xlink:href="#linearGradient124"
       id="linearGradient8061"
       gradientUnits="userSpaceOnUse"
       gradientTransform="matrix(1.4019046,3.2381864,-0.8095466,0.3504761,-482.91339,-745.38115)"
       x1="253.75711"
       y1="-129.52815"
       x2="252.00447"
       y2="-135.47408" />
    <radialGradient
       inkscape:collect="always"
       xlink:href="#linearGradient124"
       id="radialGradient8063"
       gradientUnits="userSpaceOnUse"
       gradientTransform="matrix(1.279254,0,0,1.7073246,-321.71546,-587.15241)"
       cx="307.7507"
       cy="361.47824"
       fx="307.7507"
       fy="361.47824"
       r="12.509617" />
    <linearGradient
       inkscape:collect="always"
       xlink:href="#linearGradient10554"
       id="linearGradient8065"
       gradientUnits="userSpaceOnUse"
       gradientTransform="matrix(1.5347684,0,0,1.4230823,-296.72742,-584.34298)"
       x1="240.9062"
       y1="425.18195"
       x2="248.28683"
       y2="437.96558" />
    <linearGradient
       inkscape:collect="always"
       xlink:href="#linearGradient124"
       id="linearGradient8077"
       gradientUnits="userSpaceOnUse"
       gradientTransform="matrix(1.4019046,3.2381864,-0.8095466,0.3504761,-482.91339,-745.38115)"
       x1="253.75711"
       y1="-129.52815"
       x2="252.00447"
       y2="-135.47408" />
    <radialGradient
       inkscape:collect="always"
       xlink:href="#linearGradient124"
       id="radialGradient8079"
       gradientUnits="userSpaceOnUse"
       gradientTransform="matrix(1.279254,0,0,1.7073246,-321.71546,-587.15241)"
       cx="307.7507"
       cy="361.47824"
       fx="307.7507"
       fy="361.47824"
       r="12.509617" />
    <linearGradient
       inkscape:collect="always"
       xlink:href="#linearGradient10554"
       id="linearGradient8081"
       gradientUnits="userSpaceOnUse"
       gradientTransform="matrix(1.5347684,0,0,1.4230823,-296.72742,-584.34298)"
       x1="240.9062"
       y1="425.18195"
       x2="248.28683"
       y2="437.96558" />
  </defs>
  <sodipodi:namedview
     id="base"
     pagecolor="#ffffff"
     bordercolor="#666666"
     borderopacity="1.0"
     gridtolerance="10000"
     guidetolerance="10"
     objecttolerance="10"
     inkscape:pageopacity="0.0"
     inkscape:pageshadow="2"
     inkscape:zoom="7.5572037"
     inkscape:cx="24"
     inkscape:cy="24"
     inkscape:document-units="px"
     inkscape:current-layer="layer1"
     width="48px"
     height="48px"
     inkscape:showpageshadow="false"
     inkscape:window-width="1278"
     inkscape:window-height="710"
     inkscape:window-x="1"
     inkscape:window-y="69"
     borderlayer="true"
     showborder="true"
     showguides="true"
     inkscape:guide-bbox="true"
     showgrid="false"
     inkscape:snap-global="false"
     inkscape:window-maximized="0">
    <inkscape:grid
       type="xygrid"
       id="grid8001"
       empspacing="5"
       visible="true"
       enabled="true"
       snapvisiblegridlinesonly="true" />
  </sodipodi:namedview>
  <metadata
     id="metadata7">
    <rdf:RDF>
      <cc:Work
         rdf:about="">
        <dc:format>image/svg+xml</dc:format>
        <dc:type
           rdf:resource="http://purl.org/dc/dcmitype/StillImage" />
      </cc:Work>
    </rdf:RDF>
  </metadata>
  <g
     inkscape:label="Layer 1"
     inkscape:groupmode="layer"
     id="layer1"
     transform="translate(0,16)">
    <g
       transform="matrix(0.49014426,0,0,0.47741832,-33.016019,-4.3224017)"
       id="g8067"
       style="opacity:0.4">
      <path
         id="path8069"
         d="m 71.401064,17.737975 0,21.977386 6.978408,-4.269247 4.268574,9.161092 3.501191,-1.423081 -4.172651,-8.938737 6.28196,-0.622598 -14.958841,-14.095725 -1.898641,-1.78909 z"
         style="fill:none;stroke:#888a85;stroke-width:3.2078023;stroke-linecap:round;stroke-linejoin:round;stroke-miterlimit:4;stroke-opacity:1;stroke-dasharray:none;stroke-dashoffset:0"
         sodipodi:nodetypes="ccccccccc"
         inkscape:connector-curvature="0" />
      <path
         sodipodi:type="inkscape:offset"
         inkscape:radius="0.35630482"
         inkscape:original="M -22.21875 19.46875 L -24.625 20.46875 L -23.84375 25.84375 L -22.34375 25.78125 L -17.625 36.6875 L -15.1875 35.65625 L -19.75 25.125 L -18.90625 24 L -22.21875 19.46875 z "
         style="fill:url(#linearGradient8077);fill-opacity:1;fill-rule:evenodd;stroke:none"
         id="path8071"
         d="m -22.34375,19.125 -2.40625,1 a 0.35634045,0.35634045 0 0 0 -0.21875,0.40625 l 0.78125,5.375 a 0.35634045,0.35634045 0 0 0 0.34375,0.28125 l 1.28125,-0.0625 4.625,10.71875 a 0.35634045,0.35634045 0 0 0 0.03125,0.0625 0.35634045,0.35634045 0 0 0 0.40625,0.125 L -15.0625,36 a 0.35634045,0.35634045 0 0 0 0.1875,-0.5 l -4.46875,-10.3125 0.71875,-0.96875 a 0.35634045,0.35634045 0 0 0 0,-0.4375 L -21.9375,19.25 a 0.35634045,0.35634045 0 0 0 -0.03125,-0.03125 0.35634045,0.35634045 0 0 0 -0.375,-0.09375 z"
         transform="matrix(0.8698963,0,0,0.8065934,98.369116,14.067108)" />
      <path
         style="fill:url(#radialGradient8079);fill-opacity:1;fill-rule:evenodd;stroke:none"
         d="m 72.739063,20.591167 c 0.0013,0.06153 0.05083,10.660471 -0.07612,17.160507 l 6.772945,-4.233803 c 2.274689,-0.29736 6.50272,-0.701634 6.534038,-0.709735 L 72.739063,20.591167 z"
         id="path8073"
         sodipodi:nodetypes="ccccc"
         inkscape:connector-curvature="0" />
      <path
         d="m 74.28125,24.3125 c -0.0031,1.474913 -0.02649,2.982529 -0.03125,4.6875 -0.0057,2.045948 0.0044,3.983784 0,5.625 L 78.5,32 a 1.9940206,1.9940206 0 0 1 0.90625,-0.3125 c 0.634579,-0.05467 1.583406,-0.156477 2.46875,-0.25 -1.17746,-1.112068 -2.466165,-2.299808 -3.875,-3.625 -1.351216,-1.270994 -2.564291,-2.418748 -3.71875,-3.5 z"
         id="path8075"
         style="fill:none;stroke:url(#linearGradient8081);stroke-width:3.2078023;stroke-linecap:butt;stroke-linejoin:miter;stroke-miterlimit:4;stroke-opacity:1;stroke-dashoffset:0"
         inkscape:original="M 72.28125 19.75 C 72.308434 19.786317 72.236734 38.231507 72.25 38.21875 L 79.5625 33.6875 C 81.782403 33.496235 86.332488 32.96244 86.34375 32.96875 C 86.382631 32.954521 72.347636 19.74392 72.28125 19.75 z "
         inkscape:radius="-1.9938213"
         sodipodi:type="inkscape:offset" />
    </g>
    <g
       style="opacity:0.5"
       id="g8051"
       transform="matrix(0.63539106,0,0,0.61889396,-40.489481,-20.243479)">
      <path
         sodipodi:nodetypes="ccccccccc"
         style="fill:none;stroke:#888a85;stroke-width:2.47451711;stroke-linecap:round;stroke-linejoin:round;stroke-miterlimit:4;stroke-opacity:1;stroke-dasharray:none;stroke-dashoffset:0"
         d="m 71.401064,17.737975 0,21.977386 6.978408,-4.269247 4.268574,9.161092 3.501191,-1.423081 -4.172651,-8.938737 6.28196,-0.622598 -14.958841,-14.095725 -1.898641,-1.78909 z"
         id="path8053"
         inkscape:connector-curvature="0" />
      <path
         transform="matrix(0.8698963,0,0,0.8065934,98.369116,14.067108)"
         d="m -22.34375,19.125 -2.40625,1 a 0.35634045,0.35634045 0 0 0 -0.21875,0.40625 l 0.78125,5.375 a 0.35634045,0.35634045 0 0 0 0.34375,0.28125 l 1.28125,-0.0625 4.625,10.71875 a 0.35634045,0.35634045 0 0 0 0.03125,0.0625 0.35634045,0.35634045 0 0 0 0.40625,0.125 L -15.0625,36 a 0.35634045,0.35634045 0 0 0 0.1875,-0.5 l -4.46875,-10.3125 0.71875,-0.96875 a 0.35634045,0.35634045 0 0 0 0,-0.4375 L -21.9375,19.25 a 0.35634045,0.35634045 0 0 0 -0.03125,-0.03125 0.35634045,0.35634045 0 0 0 -0.375,-0.09375 z"
         id="path8055"
         style="fill:url(#linearGradient8061);fill-opacity:1;fill-rule:evenodd;stroke:none"
         inkscape:original="M -22.21875 19.46875 L -24.625 20.46875 L -23.84375 25.84375 L -22.34375 25.78125 L -17.625 36.6875 L -15.1875 35.65625 L -19.75 25.125 L -18.90625 24 L -22.21875 19.46875 z "
         inkscape:radius="0.35630482"
         sodipodi:type="inkscape:offset" />
      <path
         sodipodi:nodetypes="ccccc"
         id="path8057"
         d="m 72.537743,20.24669 c 0.0013,0.06153 0.08438,11.108291 -0.04257,17.608327 l 6.940712,-4.337146 c 2.274689,-0.29736 6.50272,-0.701634 6.534038,-0.709735 L 72.537743,20.24669 z"
         style="fill:url(#radialGradient8063);fill-opacity:1;fill-rule:evenodd;stroke:none"
         inkscape:connector-curvature="0" />
      <path
         sodipodi:type="inkscape:offset"
         inkscape:radius="-1.494624"
         inkscape:original="M 72.28125 19.75 C 72.308434 19.786317 72.236734 38.231507 72.25 38.21875 L 79.5625 33.6875 C 81.782403 33.496235 86.332488 32.96244 86.34375 32.96875 C 86.382631 32.954521 72.347636 19.74392 72.28125 19.75 z "
         style="fill:none;stroke:url(#linearGradient8065);stroke-width:2.47451711;stroke-linecap:butt;stroke-linejoin:miter;stroke-miterlimit:4;stroke-opacity:1;stroke-dashoffset:0"
         id="path8059"
         d="M 73.78125,23.15625 C 73.778305,24.834966 73.755928,26.874542 73.75,29 c -0.0064,2.307311 0.0044,4.616291 0,6.34375 -1.98e-4,0.07735 1.88e-4,0.11252 0,0.1875 l 5.03125,-3.125 A 1.4947735,1.4947735 0 0 1 79.4375,32.1875 c 0.925446,-0.07974 2.329102,-0.205698 3.59375,-0.34375 -1.2975,-1.227015 -3.01023,-2.799164 -4.71875,-4.40625 -1.655391,-1.557111 -3.238545,-3.07238 -4.53125,-4.28125 z" />
    </g>
    <g
       transform="matrix(0.79868972,0,0,0.77795273,-44.731678,-28.80814)"
       id="g8035"
       style="opacity:0.6">
      <path
         id="path8037"
         d="m 71.401064,17.737975 0,21.977386 6.978408,-4.269247 4.268574,9.161092 3.501191,-1.423081 -4.172651,-8.938737 6.28196,-0.622598 -16.857482,-15.884815 z"
         style="fill:none;stroke:#888a85;stroke-width:1.96858191;stroke-linecap:round;stroke-linejoin:round;stroke-miterlimit:4;stroke-opacity:1;stroke-dasharray:none;stroke-dashoffset:0"
         sodipodi:nodetypes="cccccccc"
         inkscape:connector-curvature="0" />
      <path
         sodipodi:type="inkscape:offset"
         inkscape:radius="0.35630482"
         inkscape:original="M -22.21875 19.46875 L -24.625 20.46875 L -23.84375 25.84375 L -22.34375 25.78125 L -17.625 36.6875 L -15.1875 35.65625 L -19.75 25.125 L -18.90625 24 L -22.21875 19.46875 z "
         style="fill:url(#linearGradient8045);fill-opacity:1;fill-rule:evenodd;stroke:none"
         id="path8039"
         d="m -22.34375,19.125 -2.40625,1 a 0.35634045,0.35634045 0 0 0 -0.21875,0.40625 l 0.78125,5.375 a 0.35634045,0.35634045 0 0 0 0.34375,0.28125 l 1.28125,-0.0625 4.625,10.71875 a 0.35634045,0.35634045 0 0 0 0.03125,0.0625 0.35634045,0.35634045 0 0 0 0.40625,0.125 L -15.0625,36 a 0.35634045,0.35634045 0 0 0 0.1875,-0.5 l -4.46875,-10.3125 0.71875,-0.96875 a 0.35634045,0.35634045 0 0 0 0,-0.4375 L -21.9375,19.25 a 0.35634045,0.35634045 0 0 0 -0.03125,-0.03125 0.35634045,0.35634045 0 0 0 -0.375,-0.09375 z"
         transform="matrix(0.8698963,0,0,0.8065934,98.369116,14.067108)" />
      <path
         style="fill:url(#radialGradient8047);fill-opacity:1;fill-rule:evenodd;stroke:none"
         d="m 72.382444,19.82152 c 0.0013,0.06153 0.110262,11.666327 -0.01669,18.166363 l 7.070128,-4.124561 c 2.274689,-0.29736 6.606253,-1.047085 6.637571,-1.055186 L 72.382444,19.82152 z"
         id="path8041"
         sodipodi:nodetypes="ccccc"
         inkscape:connector-curvature="0" />
      <path
         d="m 73.3125,22.09375 c -2.36e-4,0.210975 3.62e-4,0.329426 0,0.5625 -0.0027,1.735108 0.0064,4.036497 0,6.34375 -0.0064,2.307253 -0.02682,4.616123 -0.03125,6.34375 -0.0011,0.42546 7.52e-4,0.684545 0,1.03125 l 5.75,-3.5625 a 1.0379685,1.0379685 0 0 1 0.4375,-0.15625 c 1.088102,-0.09375 2.773875,-0.28124 4.1875,-0.4375 0.145936,-0.01613 0.235847,-0.01576 0.375,-0.03125 -0.203287,-0.192649 -0.32849,-0.309901 -0.5625,-0.53125 -1.310238,-1.239347 -3.056974,-2.9112 -4.8125,-4.5625 -1.755526,-1.6513 -3.52065,-3.294705 -4.84375,-4.53125 -0.205017,-0.191605 -0.317552,-0.298582 -0.5,-0.46875 z"
         id="path8043"
         style="fill:none;stroke:url(#linearGradient8049);stroke-width:1.96858191;stroke-linecap:butt;stroke-linejoin:miter;stroke-miterlimit:4;stroke-opacity:1;stroke-dashoffset:0"
         inkscape:original="M 72.28125 19.75 C 72.308434 19.786317 72.236734 38.231507 72.25 38.21875 L 79.5625 33.6875 C 81.782403 33.496235 86.332488 32.96244 86.34375 32.96875 C 86.382631 32.954521 72.347636 19.74392 72.28125 19.75 z "
         inkscape:radius="-1.0378647"
         sodipodi:type="inkscape:offset" />
    </g>
    <g
       style="opacity:0.8"
       id="g8019"
       transform="matrix(0.84089754,0,0,0.81906471,-34.220733,-29.10374)">
      <path
         sodipodi:nodetypes="cccccccc"
         style="fill:none;stroke:#888a85;stroke-width:1.86977124;stroke-linecap:round;stroke-linejoin:round;stroke-miterlimit:4;stroke-opacity:1;stroke-dasharray:none;stroke-dashoffset:0"
         d="m 71.401064,17.737975 0,21.977386 6.978408,-4.269247 4.268574,9.161092 3.501191,-1.423081 -4.172651,-8.938737 6.28196,-0.622598 -16.857482,-15.884815 z"
         id="path8021"
         inkscape:connector-curvature="0" />
      <path
         transform="matrix(0.8698963,0,0,0.8065934,98.369116,14.067108)"
         d="m -22.34375,19.125 -2.40625,1 a 0.35634045,0.35634045 0 0 0 -0.21875,0.40625 l 0.78125,5.375 a 0.35634045,0.35634045 0 0 0 0.34375,0.28125 l 1.28125,-0.0625 4.625,10.71875 a 0.35634045,0.35634045 0 0 0 0.03125,0.0625 0.35634045,0.35634045 0 0 0 0.40625,0.125 L -15.0625,36 a 0.35634045,0.35634045 0 0 0 0.1875,-0.5 l -4.46875,-10.3125 0.71875,-0.96875 a 0.35634045,0.35634045 0 0 0 0,-0.4375 L -21.9375,19.25 a 0.35634045,0.35634045 0 0 0 -0.03125,-0.03125 0.35634045,0.35634045 0 0 0 -0.375,-0.09375 z"
         id="path8023"
         style="fill:url(#linearGradient8029);fill-opacity:1;fill-rule:evenodd;stroke:none"
         inkscape:original="M -22.21875 19.46875 L -24.625 20.46875 L -23.84375 25.84375 L -22.34375 25.78125 L -17.625 36.6875 L -15.1875 35.65625 L -19.75 25.125 L -18.90625 24 L -22.21875 19.46875 z "
         inkscape:radius="0.35630482"
         sodipodi:type="inkscape:offset" />
      <path
         sodipodi:nodetypes="ccccc"
         id="path8025"
         d="m 72.238306,19.567839 c 0.0013,0.06153 0.0073,12.300529 -0.119643,18.800565 l 7.317222,-4.505082 c 2.274689,-0.29736 7.121032,-0.793404 7.15235,-0.801505 L 72.238306,19.567839 z"
         style="fill:url(#radialGradient8031);fill-opacity:1;fill-rule:evenodd;stroke:none"
         inkscape:connector-curvature="0" />
      <path
         sodipodi:type="inkscape:offset"
         inkscape:radius="-0.79384148"
         inkscape:original="M 72.28125 19.75 C 72.308434 19.786317 72.236734 38.231507 72.25 38.21875 L 79.5625 33.6875 C 81.782403 33.496235 86.332488 32.96244 86.34375 32.96875 C 86.382631 32.954521 72.347636 19.74392 72.28125 19.75 z "
         style="fill:none;stroke:url(#linearGradient8033);stroke-width:1.86977124;stroke-linecap:butt;stroke-linejoin:miter;stroke-miterlimit:4;stroke-opacity:1;stroke-dashoffset:0"
         id="path8027"
         d="m 73.09375,21.59375 c -2.1e-4,0.356964 6.83e-4,0.622306 0,1.0625 -0.0027,1.734882 -0.02482,4.036528 -0.03125,6.34375 -0.0064,2.307222 0.0044,4.616033 0,6.34375 -0.0015,0.593157 -0.03042,1.003999 -0.03125,1.4375 L 79.15625,33 A 0.79392087,0.79392087 0 0 1 79.5,32.90625 c 1.09324,-0.09419 2.773219,-0.281168 4.1875,-0.4375 0.340828,-0.03768 0.578035,-0.06046 0.875,-0.09375 -0.300205,-0.284983 -0.547156,-0.537025 -0.9375,-0.90625 -1.310499,-1.239595 -3.056841,-2.879824 -4.8125,-4.53125 -1.755659,-1.651426 -3.520318,-3.294396 -4.84375,-4.53125 -0.361009,-0.337393 -0.587841,-0.545218 -0.875,-0.8125 z" />
    </g>
    <g
       transform="matrix(0.87975741,0,0,0.85691565,-31.106337,-18.294477)"
       id="g8003"
       style="opacity:0.9">
      <path
         id="path8005"
         d="m 71.401064,17.737975 0,21.977386 6.978408,-4.269247 4.268574,9.161092 3.501191,-1.423081 -4.172651,-8.938737 6.28196,-0.622598 -16.857482,-15.884815 z"
         style="fill:none;stroke:#888a85;stroke-width:1.78718126;stroke-linecap:round;stroke-linejoin:round;stroke-miterlimit:4;stroke-opacity:1;stroke-dasharray:none;stroke-dashoffset:0"
         sodipodi:nodetypes="cccccccc"
         inkscape:connector-curvature="0" />
      <path
         sodipodi:type="inkscape:offset"
         inkscape:radius="0.35630482"
         inkscape:original="M -22.21875 19.46875 L -24.625 20.46875 L -23.84375 25.84375 L -22.34375 25.78125 L -17.625 36.6875 L -15.1875 35.65625 L -19.75 25.125 L -18.90625 24 L -22.21875 19.46875 z "
         style="fill:url(#linearGradient8013);fill-opacity:1;fill-rule:evenodd;stroke:none"
         id="path8007"
         d="m -22.34375,19.125 -2.40625,1 a 0.35634045,0.35634045 0 0 0 -0.21875,0.40625 l 0.78125,5.375 a 0.35634045,0.35634045 0 0 0 0.34375,0.28125 l 1.28125,-0.0625 4.625,10.71875 a 0.35634045,0.35634045 0 0 0 0.03125,0.0625 0.35634045,0.35634045 0 0 0 0.40625,0.125 L -15.0625,36 a 0.35634045,0.35634045 0 0 0 0.1875,-0.5 l -4.46875,-10.3125 0.71875,-0.96875 a 0.35634045,0.35634045 0 0 0 0,-0.4375 L -21.9375,19.25 a 0.35634045,0.35634045 0 0 0 -0.03125,-0.03125 0.35634045,0.35634045 0 0 0 -0.375,-0.09375 z"
         transform="matrix(0.8698963,0,0,0.8065934,98.369116,14.067108)" />
      <path
         style="fill:url(#radialGradient8015);fill-opacity:1;fill-rule:evenodd;stroke:none"
         d="m 72.238306,19.567839 c 0.0013,0.06153 0.0073,12.300529 -0.119643,18.800565 l 7.317222,-4.505082 c 2.274689,-0.29736 7.121032,-0.793404 7.15235,-0.801505 L 72.238306,19.567839 z"
         id="path8009"
         sodipodi:nodetypes="ccccc"
         inkscape:connector-curvature="0" />
      <path
         d="m 73.09375,21.59375 c -2.1e-4,0.356964 6.83e-4,0.622306 0,1.0625 -0.0027,1.734882 -0.02482,4.036528 -0.03125,6.34375 -0.0064,2.307222 0.0044,4.616033 0,6.34375 -0.0015,0.593157 -0.03042,1.003999 -0.03125,1.4375 L 79.15625,33 A 0.79392087,0.79392087 0 0 1 79.5,32.90625 c 1.09324,-0.09419 2.773219,-0.281168 4.1875,-0.4375 0.340828,-0.03768 0.578035,-0.06046 0.875,-0.09375 -0.300205,-0.284983 -0.547156,-0.537025 -0.9375,-0.90625 -1.310499,-1.239595 -3.056841,-2.879824 -4.8125,-4.53125 -1.755659,-1.651426 -3.520318,-3.294396 -4.84375,-4.53125 -0.361009,-0.337393 -0.587841,-0.545218 -0.875,-0.8125 z"
         id="path8011"
         style="fill:none;stroke:url(#linearGradient8017);stroke-width:1.78718126;stroke-linecap:butt;stroke-linejoin:miter;stroke-miterlimit:4;stroke-opacity:1;stroke-dashoffset:0"
         inkscape:original="M 72.28125 19.75 C 72.308434 19.786317 72.236734 38.231507 72.25 38.21875 L 79.5625 33.6875 C 81.782403 33.496235 86.332488 32.96244 86.34375 32.96875 C 86.382631 32.954521 72.347636 19.74392 72.28125 19.75 z "
         inkscape:radius="-0.79384148"
         sodipodi:type="inkscape:offset" />
    </g>
    <path
       style="opacity:0.38396624;fill:#729fcf;fill-opacity:1;fill-rule:evenodd;stroke:url(#linearGradient4734);stroke-width:0.75289679;stroke-linecap:butt;stroke-linejoin:miter;stroke-miterlimit:4;stroke-opacity:1;stroke-dasharray:none;stroke-dashoffset:0;marker:none;visibility:visible;display:inline;overflow:visible;enable-background:accumulate"
       d="M 5.6917109,10.868858 12.323419,9.8690758 C 11.496513,4.3648014 17.156758,-1.0950684 22.854182,-2.1616336 30.197361,-3.044071 35.268261,4.2332479 33.751525,11.635358 l -5.065427,-0.799826 6.698354,9.26465 9.264403,-6.698541 -4.298937,-0.699848 C 40.770827,10.820189 40.890701,8.8762333 40.64984,6.9030564 40.296049,4.0047859 39.245292,1.3448264 37.683908,-0.92857714 35.276306,-4.4340524 31.656225,-6.9888466 27.519725,-8.0270323 15.072777,-11.029913 5.2129552,-1.7090964 5.6917109,10.868858 z"
       id="mee"
       sodipodi:nodetypes="ccccccccsscc"
       inkscape:label="#125435674"
       inkscape:connector-curvature="0" />
    <g
       id="g4366"
       transform="matrix(0.96526,0,0,0.94019826,-41.676316,-10.833482)">
      <path
         sodipodi:nodetypes="cccccccc"
         style="fill:none;stroke:#888a85;stroke-width:1.62887287;stroke-linecap:round;stroke-linejoin:round;stroke-miterlimit:4;stroke-opacity:1;stroke-dasharray:none;stroke-dashoffset:0"
         d="m 71.401064,17.737975 0,21.977386 6.978408,-4.269247 4.268574,9.161092 3.501191,-1.423081 -4.172651,-8.938737 6.28196,-0.622598 -16.857482,-15.884815 z"
         id="rect16"
         inkscape:connector-curvature="0" />
      <path
         transform="matrix(0.8698963,0,0,0.8065934,98.369116,14.067108)"
         d="m -22.34375,19.125 -2.40625,1 a 0.35634045,0.35634045 0 0 0 -0.21875,0.40625 l 0.78125,5.375 a 0.35634045,0.35634045 0 0 0 0.34375,0.28125 l 1.28125,-0.0625 4.625,10.71875 a 0.35634045,0.35634045 0 0 0 0.03125,0.0625 0.35634045,0.35634045 0 0 0 0.40625,0.125 L -15.0625,36 a 0.35634045,0.35634045 0 0 0 0.1875,-0.5 l -4.46875,-10.3125 0.71875,-0.96875 a 0.35634045,0.35634045 0 0 0 0,-0.4375 L -21.9375,19.25 a 0.35634045,0.35634045 0 0 0 -0.03125,-0.03125 0.35634045,0.35634045 0 0 0 -0.375,-0.09375 z"
         id="path2887"
         style="fill:url(#linearGradient7995);fill-opacity:1;fill-rule:evenodd;stroke:none"
         inkscape:original="M -22.21875 19.46875 L -24.625 20.46875 L -23.84375 25.84375 L -22.34375 25.78125 L -17.625 36.6875 L -15.1875 35.65625 L -19.75 25.125 L -18.90625 24 L -22.21875 19.46875 z "
         inkscape:radius="0.35630482"
         sodipodi:type="inkscape:offset" />
      <path
         sodipodi:nodetypes="ccccc"
         id="path2891"
         d="m 72.132558,19.377847 c 0.0013,0.06153 0.08662,12.653371 -0.04033,19.153407 l 7.528718,-4.613649 c 2.274689,-0.29736 7.068158,-0.820545 7.099476,-0.828646 L 72.132558,19.377847 z"
         style="fill:url(#radialGradient7997);fill-opacity:1;fill-rule:evenodd;stroke:none"
         inkscape:connector-curvature="0" />
      <path
         sodipodi:type="inkscape:offset"
         inkscape:radius="-0.65987176"
         inkscape:original="M 72.28125 19.75 C 72.308434 19.786317 72.236734 38.231507 72.25 38.21875 L 79.5625 33.6875 C 81.782403 33.496235 86.332488 32.96244 86.34375 32.96875 C 86.382631 32.954521 72.347636 19.74392 72.28125 19.75 z "
         style="fill:none;stroke:url(#linearGradient7999);stroke-width:1.62887287;stroke-linecap:butt;stroke-linejoin:miter;stroke-miterlimit:4;stroke-opacity:1;stroke-dashoffset:0"
         id="path8699"
         d="m 72.9375,21.25 c -4.9e-5,0.431464 9.04e-4,0.823682 0,1.40625 -0.0027,1.734757 0.0064,4.036545 0,6.34375 -0.0064,2.307205 -0.02682,4.615983 -0.03125,6.34375 -0.0018,0.696264 8.06e-4,1.216783 0,1.6875 L 79.21875,33.125 A 0.65993774,0.65993774 0 0 1 79.5,33.03125 c 1.09606,-0.09444 2.804108,-0.281128 4.21875,-0.4375 0.451437,-0.0499 0.788601,-0.08368 1.15625,-0.125 -0.338419,-0.321644 -0.679689,-0.642973 -1.15625,-1.09375 -1.310643,-1.239731 -3.056768,-2.879755 -4.8125,-4.53125 -1.755732,-1.651495 -3.520137,-3.325476 -4.84375,-4.5625 -0.466016,-0.43553 -0.786347,-0.7166 -1.125,-1.03125 z" />
    </g>
  </g>
</svg>
