<?xml version="1.0" encoding="UTF-8" standalone="no"?>
<!-- Created with Inkscape (http://www.inkscape.org/) -->

<svg
   xmlns:dc="http://purl.org/dc/elements/1.1/"
   xmlns:cc="http://creativecommons.org/ns#"
   xmlns:rdf="http://www.w3.org/1999/02/22-rdf-syntax-ns#"
   xmlns:svg="http://www.w3.org/2000/svg"
   xmlns="http://www.w3.org/2000/svg"
   xmlns:xlink="http://www.w3.org/1999/xlink"
   xmlns:sodipodi="http://sodipodi.sourceforge.net/DTD/sodipodi-0.dtd"
   xmlns:inkscape="http://www.inkscape.org/namespaces/inkscape"
   inkscape:export-ydpi="90.000000"
   inkscape:export-xdpi="90.000000"
   inkscape:export-filename="/home/patrick/Desktop/desktop.png"
   width="48"
   height="48"
   id="svg11300"
   sodipodi:version="0.32"
   inkscape:version="0.47+devel r9474"
   sodipodi:docname="plugin-unknown.svg"
   inkscape:output_extension="org.inkscape.output.svg.inkscape"
   version="1.0">
  <defs
     id="defs3">
    <linearGradient
       inkscape:collect="always"
       xlink:href="#linearGradient15218"
       id="linearGradient13653"
       gradientUnits="userSpaceOnUse"
       gradientTransform="matrix(1.067236,0,0,0.989276,4.391684,4.035227)"
       x1="22.308331"
       y1="18.99214"
       x2="35.785294"
       y2="39.498238" />
    <linearGradient
       id="linearGradient15218">
      <stop
         style="stop-color:#f0f0ef;stop-opacity:1.0000000;"
         offset="0.0000000"
         id="stop15220" />
      <stop
         id="stop2269"
         offset="0.59928656"
         style="stop-color:#e8e8e8;stop-opacity:1;" />
      <stop
         id="stop2267"
         offset="0.82758623"
         style="stop-color:#ffffff;stop-opacity:1;" />
      <stop
         style="stop-color:#d8d8d3;stop-opacity:1.0000000;"
         offset="1.0000000"
         id="stop15222" />
    </linearGradient>
    <linearGradient
       inkscape:collect="always"
       xlink:href="#linearGradient2259"
       id="linearGradient13651"
       gradientUnits="userSpaceOnUse"
       gradientTransform="matrix(0.999421,0,0,1,5.991319,4.033411)"
       x1="26.076092"
       y1="26.696676"
       x2="30.811172"
       y2="42.007351" />
    <linearGradient
       inkscape:collect="always"
       id="linearGradient2259">
      <stop
         style="stop-color:#ffffff;stop-opacity:1;"
         offset="0"
         id="stop2261" />
      <stop
         style="stop-color:#ffffff;stop-opacity:0;"
         offset="1"
         id="stop2263" />
    </linearGradient>
    <linearGradient
       inkscape:collect="always"
       xlink:href="#linearGradient2224"
       id="linearGradient2230"
       x1="35.996582"
       y1="40.458221"
       x2="33.664921"
       y2="37.770721"
       gradientUnits="userSpaceOnUse"
       gradientTransform="translate(6.161836,4.033411)" />
    <linearGradient
       id="linearGradient2224">
      <stop
         style="stop-color:#7c7c7c;stop-opacity:1;"
         offset="0"
         id="stop2226" />
      <stop
         style="stop-color:#b8b8b8;stop-opacity:1;"
         offset="1"
         id="stop2228" />
    </linearGradient>
    <linearGradient
       inkscape:collect="always"
       xlink:href="#linearGradient2251-6"
       id="linearGradient2257"
       x1="33.396004"
       y1="36.921333"
       x2="34.170048"
       y2="38.070381"
       gradientUnits="userSpaceOnUse"
       gradientTransform="translate(6.161836,3.658411)" />
    <linearGradient
       inkscape:collect="always"
       id="linearGradient2251-6">
      <stop
         style="stop-color:#ffffff;stop-opacity:1;"
         offset="0"
         id="stop2253-3" />
      <stop
         style="stop-color:#ffffff;stop-opacity:0;"
         offset="1"
         id="stop2255-2" />
    </linearGradient>
    <linearGradient
       inkscape:collect="always"
       xlink:href="#aigrd1"
       id="linearGradient3773"
       gradientUnits="userSpaceOnUse"
       gradientTransform="matrix(0.200685,0,0,0.200685,-54.33576,-1.050787)"
       x1="99.777298"
       y1="15.4238"
       x2="153.0005"
       y2="248.6311" />
    <linearGradient
       id="aigrd1"
       gradientUnits="userSpaceOnUse"
       x1="99.777298"
       y1="15.4238"
       x2="153.0005"
       y2="248.6311">
      <stop
         offset="0"
         style="stop-color:#184375"
         id="stop53300" />
      <stop
         offset="1"
         style="stop-color:#C8BDDC"
         id="stop53302" />
    </linearGradient>
    <linearGradient
       inkscape:collect="always"
       xlink:href="#aigrd1"
       id="linearGradient3767"
       gradientUnits="userSpaceOnUse"
       gradientTransform="matrix(0.12066318,0,0,0.12066318,-29.779214,-10.13334)"
       x1="99.777298"
       y1="15.4238"
       x2="153.0005"
       y2="248.6311" />
    <linearGradient
       inkscape:collect="always"
       xlink:href="#linearGradient2251-6"
       id="linearGradient3774"
       gradientUnits="userSpaceOnUse"
       gradientTransform="matrix(1.2532958,0,0,-1.2532958,-7.2257068,38.994816)"
       x1="33.396004"
       y1="36.921333"
       x2="34.170048"
       y2="38.070381" />
    <linearGradient
       inkscape:collect="always"
       xlink:href="#linearGradient2224"
       id="linearGradient3777"
       gradientUnits="userSpaceOnUse"
       gradientTransform="matrix(1.2532958,0,0,-1.2532958,-7.2257068,38.52483)"
       x1="35.996582"
       y1="40.458221"
       x2="33.664921"
       y2="37.770721" />
    <linearGradient
       inkscape:collect="always"
       xlink:href="#linearGradient2259"
       id="linearGradient3780"
       gradientUnits="userSpaceOnUse"
       gradientTransform="matrix(1.2525701,0,0,1.2532958,-7.4394151,-38.52483)"
       x1="26.076092"
       y1="26.696676"
       x2="30.811172"
       y2="42.007351" />
    <linearGradient
       inkscape:collect="always"
       xlink:href="#linearGradient15218"
       id="linearGradient3783"
       gradientUnits="userSpaceOnUse"
       gradientTransform="matrix(1.3375624,0,0,-1.2398555,-9.4442309,38.522554)"
       x1="22.308331"
       y1="18.99214"
       x2="35.785294"
       y2="39.498238" />
  </defs>
  <sodipodi:namedview
     stroke="#ef2929"
     fill="#eeeeec"
     id="base"
     pagecolor="#ffffff"
     bordercolor="#666666"
     borderopacity="0.25490196"
     inkscape:pageopacity="0.0"
     inkscape:pageshadow="2"
     inkscape:zoom="7.115262"
     inkscape:cx="17.847071"
     inkscape:cy="24"
     inkscape:current-layer="layer1"
     showgrid="false"
     inkscape:grid-bbox="true"
     inkscape:document-units="px"
     inkscape:showpageshadow="false"
     inkscape:window-width="906"
     inkscape:window-height="680"
     inkscape:window-x="372"
     inkscape:window-y="71"
     showguides="true"
     inkscape:guide-bbox="true"
     showborder="true"
     inkscape:window-maximized="0"
     inkscape:snap-global="false">
    <inkscape:grid
       type="xygrid"
       id="grid8111"
       visible="true"
       enabled="true"
       empspacing="5"
       snapvisiblegridlinesonly="true" />
  </sodipodi:namedview>
  <metadata
     id="metadata4">
    <rdf:RDF>
      <cc:Work
         rdf:about="">
        <dc:format>image/svg+xml</dc:format>
        <dc:type
           rdf:resource="http://purl.org/dc/dcmitype/StillImage" />
        <dc:creator>
          <cc:Agent>
            <dc:title>Patrick Niklaus</dc:title>
          </cc:Agent>
        </dc:creator>
        <dc:source />
        <cc:license
           rdf:resource="http://creativecommons.org/licenses/GPL/2.0/" />
        <dc:title>SchemeP</dc:title>
        <dc:subject>
          <rdf:Bag />
        </dc:subject>
      </cc:Work>
      <cc:License
         rdf:about="http://creativecommons.org/licenses/GPL/2.0/">
        <cc:permits
           rdf:resource="http://web.resource.org/cc/Reproduction" />
        <cc:permits
           rdf:resource="http://web.resource.org/cc/Distribution" />
        <cc:requires
           rdf:resource="http://web.resource.org/cc/Notice" />
        <cc:permits
           rdf:resource="http://web.resource.org/cc/DerivativeWorks" />
        <cc:requires
           rdf:resource="http://web.resource.org/cc/ShareAlike" />
        <cc:requires
           rdf:resource="http://web.resource.org/cc/SourceCode" />
      </cc:License>
    </rdf:RDF>
  </metadata>
  <g
     id="layer1"
     inkscape:label="Layer 1"
     inkscape:groupmode="layer"
     transform="translate(0,16)">
    <path
       sodipodi:nodetypes="ccccccccc"
       id="rect12413"
       d="m 3.9425499,30.419213 37.4188821,0 c 0.395715,0 0.714286,-0.3172 0.714286,-0.71121 l 0,-34.0487407 c 0,-3.1037269 -8.622437,-10.4062243 -11.615461,-10.4062243 l -26.5177071,0 c -0.3957156,0 -0.7142858,0.317199 -0.7142858,0.711212 l 0,43.743753 c 0,0.39401 0.3185702,0.71121 0.7142858,0.71121 z"
       style="fill:url(#linearGradient3783);fill-opacity:1;fill-rule:evenodd;stroke:#888a85;stroke-width:1;stroke-linecap:butt;stroke-linejoin:miter;stroke-miterlimit:4;stroke-opacity:1;stroke-dashoffset:0;stroke-dasharray:none"
       inkscape:connector-curvature="0" />
    <rect
       style="fill:none;stroke:url(#linearGradient3780);stroke-width:1;stroke-linecap:butt;stroke-linejoin:miter;stroke-miterlimit:4;stroke-opacity:1;stroke-dasharray:none;stroke-dashoffset:0"
       id="rect15244"
       width="36.342255"
       height="42.663147"
       x="4.481473"
       y="-29.166985"
       rx="0"
       ry="0"
       transform="scale(1,-1)" />
    <path
       style="color:#000000;fill:url(#linearGradient3777);fill-opacity:1;fill-rule:evenodd;stroke:#868a84;stroke-width:1.25329614;stroke-linecap:butt;stroke-linejoin:miter;stroke-miterlimit:4;stroke-opacity:1;stroke-dasharray:none;stroke-dashoffset:0;marker:none;visibility:visible;display:inline;overflow:visible"
       d="m 30.447214,-14.744697 c 2.544715,-0.41346 12.017594,5.677341 11.636114,10.6503122 -1.95923,-3.0368573 -5.963836,-1.6126634 -11.113325,-1.8119499 0,0 0.495514,-8.2117143 -0.522789,-8.8383623 z"
       id="path2210-0"
       sodipodi:nodetypes="cccc"
       inkscape:connector-curvature="0" />
    <path
       sodipodi:nodetypes="cccc"
       id="path2247-6"
       d="m 32.265041,-11.998097 c 1.716738,0.85704 5.549906,2.6901558 7.178415,5.0476102 -2.000378,-0.8523101 -3.694478,-0.2625605 -7.146712,-0.2386338 0,0 0.203438,-3.8377094 -0.03171,-4.8089764 z"
       style="opacity:0.36931817;color:#000000;fill:none;stroke:url(#linearGradient3774);stroke-width:1.25329554;stroke-linecap:butt;stroke-linejoin:miter;stroke-miterlimit:4;stroke-opacity:1;stroke-dasharray:none;stroke-dashoffset:0;marker:none;visibility:visible;display:inline;overflow:visible"
       inkscape:connector-curvature="0" />
    <rect
       style="opacity:0.1704545;color:#000000;fill:#000000;fill-opacity:1;fill-rule:evenodd;stroke:none;stroke-width:1;marker:none;visibility:visible;display:inline;overflow:visible"
       id="rect2271"
       width="26.319212"
       height="2.5065916"
       x="10.117606"
       y="-19.725388"
       transform="scale(1,-1)" />
    <rect
       y="-14.712205"
       x="10.117606"
       height="2.5065916"
       width="25.056183"
       id="rect2273"
       style="opacity:0.1704545;color:#000000;fill:#000000;fill-opacity:1;fill-rule:evenodd;stroke:none;stroke-width:1;marker:none;visibility:visible;display:inline;overflow:visible"
       transform="scale(1,-1)" />
    <rect
       style="opacity:0.1704545;color:#000000;fill:#000000;fill-opacity:1;fill-rule:evenodd;stroke:none;stroke-width:1;marker:none;visibility:visible;display:inline;overflow:visible"
       id="rect2275"
       width="22.530125"
       height="2.5065916"
       x="10.117606"
       y="-9.6990213"
       transform="scale(1,-1)" />
    <rect
       y="-4.6858387"
       x="10.117606"
       height="2.5065916"
       width="26.319212"
       id="rect2277"
       style="opacity:0.1704545;color:#000000;fill:#000000;fill-opacity:1;fill-rule:evenodd;stroke:none;stroke-width:1;marker:none;visibility:visible;display:inline;overflow:visible"
       transform="scale(1,-1)" />
    <path
       sodipodi:type="arc"
       style="fill:#729fcf;fill-opacity:1;fill-rule:evenodd;stroke:#204a87;stroke-width:1.70399294;stroke-linecap:butt;stroke-linejoin:round;stroke-miterlimit:4;stroke-opacity:1;stroke-dasharray:none;stroke-dashoffset:0"
       id="path2222"
       sodipodi:cx="19.975767"
       sodipodi:cy="9.285902"
       sodipodi:rx="5.8879905"
       sodipodi:ry="4.9497476"
       d="m 25.863758,9.285902 c 0,2.73367 -2.636144,4.949748 -5.887991,4.949748 -3.251847,0 -5.88799,-2.216078 -5.88799,-4.949748 0,-2.7336701 2.636143,-4.9497475 5.88799,-4.9497475 3.251847,0 5.887991,2.2160774 5.887991,4.9497475 z"
       transform="matrix(0.54867059,0,0,0.62770088,23.231701,19.079654)" />
    <path
       sodipodi:type="inkscape:offset"
       inkscape:radius="-0.78740001"
       inkscape:original="M 19.96875 5.625 C 17.922508 5.625 16.3125 7.2350084 16.3125 9.28125 C 16.3125 11.327492 17.932229 12.96875 19.96875 12.96875 C 22.005271 12.96875 23.65625 11.317771 23.65625 9.28125 C 23.65625 7.2447298 22.014992 5.625 19.96875 5.625 z "
       style="fill:none;stroke:#ffffff;stroke-width:1.71512497;stroke-linecap:butt;stroke-linejoin:round;stroke-miterlimit:4;stroke-opacity:0.23529412000000000;stroke-dasharray:none;stroke-dashoffset:0"
       id="path2317"
       d="m 19.96875,6.40625 c -1.633218,0 -2.875,1.2417824 -2.875,2.875 0,1.630724 1.261529,2.90625 2.875,2.90625 1.610965,0 2.90625,-1.295285 2.90625,-2.90625 0,-1.6134696 -1.275526,-2.875 -2.90625,-2.875 z"
       transform="matrix(0.59503847,0,0,0.57129894,22.304255,19.650925)" />
    <path
       inkscape:r_cy="true"
       inkscape:r_cx="true"
       style="color:#000000;fill:url(#linearGradient3767);fill-opacity:1;fill-rule:nonzero;stroke:#3f4561;stroke-width:0.60125661;stroke-linecap:round;stroke-linejoin:round;stroke-miterlimit:4;stroke-opacity:1;stroke-dasharray:none;stroke-dashoffset:0;marker:none;visibility:visible;display:inline;overflow:visible"
       d="m 16.53876,-8.931875 c -0.284499,0.019466 -0.561025,0.06353 -0.840468,0.095508 l -0.0191,0 -0.668554,3.6483954 c -1.08969,0.2481612 -2.114868,0.669313 -3.037147,1.2416006 L 8.9745481,-6.1048461 c -0.8106936,0.6293979 -1.5484168,1.3634502 -2.1966784,2.1584748 l 2.0820686,3.03714582 C 8.2277639,0.05686342 7.7523737,1.1599913 7.484627,2.3189363 c -4.57e-5,0.00547 -3.73e-5,0.018146 0,0.019102 L 3.8553332,2.9110839 c -0.066353,0.541954 -0.095508,1.1020456 -0.095508,1.6618348 0,0.458009 0.012646,0.909899 0.057305,1.3562094 L 7.4464243,6.5785808 C 7.704542,7.8389115 8.194874,9.0159459 8.8790402,10.055062 l -2.1584751,2.96074 c 0.618173,0.767435 1.3318465,1.466153 2.1011706,2.082069 l 3.0562473,-2.10117 c 1.068117,0.68137 2.260451,1.159157 3.552887,1.394413 l 0.573047,3.610192 c 0.407204,0.03707 0.824789,0.0382 1.241601,0.0382 0.58844,0 1.150516,-0.0223 1.719139,-0.09551 l 0.687655,-3.686599 c 1.227121,-0.30538 2.379882,-0.835144 3.380974,-1.547225 l 2.941638,2.139374 c 0.762857,-0.649024 1.460445,-1.395029 2.062968,-2.196679 l -2.139374,-3.09445 c 0.579375,-1.0006094 0.980829,-2.1046182 1.184296,-3.2854663 l 3.610192,-0.5730463 c 0.03166,-0.3767413 0.0382,-0.74211 0.0382,-1.1269911 0,-0.6688379 -0.07774,-1.3246291 -0.171913,-1.9674596 L 26.8918,1.9369057 C 26.604394,0.87563964 26.132826,-0.11450975 25.53559,-1.0047327 l 2.158474,-2.9607402 c -0.669058,-0.8182229 -1.432267,-1.5740782 -2.273085,-2.2157794 l -3.113552,2.1393732 c -0.894866,-0.5292426 -1.85787,-0.935323 -2.903435,-1.1651943 l -0.573046,-3.6292939 c -0.521579,-0.061354 -1.04745,-0.095508 -1.585428,-0.095508 -0.1454,0 -0.295041,-0.00458 -0.439336,0 -0.07034,0.00223 -0.139955,-0.00409 -0.210117,0 -0.019,0.00111 -0.03834,-0.0013 -0.05731,0 z m 0.496641,9.28335175 c 0.06978,-0.003547 0.139457,0 0.210117,0 2.261089,0 4.106832,1.84574355 4.106832,4.10683275 10e-7,2.2610886 -1.845744,4.0877309 -4.106832,4.0877309 -2.261089,6e-7 -4.087731,-1.8266423 -4.087731,-4.0877309 0,-2.1904295 1.71431,-3.99705712 3.877614,-4.10683275 z"
       id="path3243"
       inkscape:connector-curvature="0" />
    <path
       inkscape:r_cy="true"
       inkscape:r_cx="true"
       sodipodi:type="arc"
       style="opacity:0.64772728;color:#000000;fill:none;stroke:#ffffff;stroke-width:1.62180054;stroke-linecap:butt;stroke-linejoin:miter;stroke-miterlimit:4;stroke-opacity:1;stroke-dasharray:none;stroke-dashoffset:0;marker:none;visibility:visible;display:inline;overflow:visible"
       id="path3283"
       sodipodi:cx="23.511301"
       sodipodi:cy="23.781593"
       sodipodi:rx="12.727922"
       sodipodi:ry="12.727922"
       d="m 36.239223,23.781593 a 12.727922,12.727922 0 1 1 -25.455844,0 12.727922,12.727922 0 1 1 25.455844,0 z"
       transform="matrix(0.37073362,0,0,0.37073362,8.5315223,-4.367012)" />
    <path
       inkscape:r_cy="true"
       inkscape:r_cx="true"
       id="path3285"
       d="m 16.115646,-8.2097674 -0.536793,3.532417 c -1.021396,0.2326083 -2.90021,0.9440205 -3.764688,1.4804421 L 8.9583875,-5.3284497 c -0.7598862,0.5899524 -0.8119977,0.6299599 -1.4196318,1.3751593 l 2.064833,3.0623317 c -0.592554,0.90554236 -1.3042861,2.5192616 -1.559831,3.6724405 0,0 -3.618236,0.6099297 -3.618236,0.6099297 -0.062195,0.5079891 -0.032304,1.5952378 0.00956,2.0135772 l 3.4561534,0.6226114 c 0.2419415,1.181343 1.1473341,3.0828904 1.7886224,4.0568829 l -2.185569,2.88757 c 0.5794304,0.719338 0.6953966,0.785163 1.4165053,1.362478 l 2.9224872,-2.141097 c 1.001176,0.638668 2.988419,1.415584 4.199855,1.636096 l 0.479639,3.487945 c 0.381684,0.03474 1.43612,0.132201 1.969106,0.06358 l 0.536792,-3.630916 c 1.150215,-0.286242 3.137641,-1.102059 4.075994,-1.769512 l 2.919361,2.109304 c 0.715047,-0.608347 0.721453,-0.700012 1.286214,-1.451421 L 25.136904,9.5634982 c 0.543064,-0.9379002 1.245255,-2.7721531 1.43597,-3.878995 l 3.541973,-0.587694 c 0.02967,-0.3531301 0.03112,-1.3378958 -0.05716,-1.9404385 L 26.449013,2.5337593 c -0.269395,-0.9947544 -1.1939,-2.78728679 -1.753705,-3.6217173 l 2.293623,-2.8875687 c -0.627125,-0.7669436 -0.860299,-0.8721742 -1.648422,-1.4736587 l -3.020986,2.163332 C 21.480738,-3.7819266 19.808135,-4.538149 18.828098,-4.7536138 l -0.533667,-3.4561536 c -0.48889,-0.057509 -1.899393,-0.031972 -2.178785,0 z"
       style="opacity:0.34659088999999998;color:#000000;fill:none;stroke:#ffffff;stroke-width:1;stroke-linecap:butt;stroke-linejoin:miter;stroke-miterlimit:4;stroke-opacity:1;stroke-dasharray:none;stroke-dashoffset:0;marker:none;visibility:visible;display:inline;overflow:visible"
       sodipodi:nodetypes="ccccccccccccccccccccccccccccccccc"
       inkscape:connector-curvature="0" />
    <path
       style="opacity:0.5;color:#000000;fill:#ffffff;fill-opacity:1;fill-rule:nonzero;stroke:none;stroke-width:1;marker:none;visibility:visible;display:inline;overflow:visible"
       d="m 8.964958,-5.7153951 c -0.8106948,0.6293977 -1.1647883,1.0070189 -1.81305,1.8020434 l 2.0457507,2.98521429 C 8.5654856,0.03303261 7.8999669,1.5772754 7.7861841,2.516193 c 0,0 -3.6451182,0.6278285 -3.6451182,0.6278285 -0.04147,0.3387215 -0.1043997,1.1140702 -0.1043997,1.1140702 l 0.1062882,0.9394634 c 0.2571755,0.053109 0.5051487,0.1025233 0.77036,0.1315249 L 5.2139427,4.4084058 c 0.2068569,0.017124 0.4086459,0.037579 0.6200459,0.037579 0.2111661,0 0.4319776,-0.020341 0.6388351,-0.037579 L 6.7546628,5.32908 c 0.2653273,-0.029005 0.531975,-0.078413 0.7891493,-0.1315249 l 0,-0.9394634 C 7.956128,4.1621173 8.3446865,4.0249496 8.727536,3.863517 L 9.2912143,4.6338771 C 9.5331305,4.5243918 9.7575465,4.4079134 9.9864172,4.2768809 L 9.6857889,3.374996 C 10.044879,3.1571908 10.3843,2.8967884 10.700409,2.6234253 l 0.77036,0.563678 c 0.195791,-0.1783206 0.385474,-0.367886 0.563679,-0.563678 L 11.470769,1.8718545 C 11.744249,1.555745 11.985746,1.2165557 12.203551,0.85723397 L 13.105436,1.139073 c 0.131032,-0.22898677 0.266533,-0.45340399 0.375785,-0.69520295 l -0.77036,-0.56367807 c 0.161432,-0.38284954 0.279578,-0.77140742 0.375786,-1.18372398 l 0.958252,0 c 0.05311,-0.2571737 0.08385,-0.5238219 0.112736,-0.7891493 l -0.901885,-0.281839 c 0.01735,-0.2067409 0.03758,-0.4275518 0.03758,-0.6388352 -10e-7,-0.2112833 -0.02046,-0.4130717 -0.03758,-0.6200456 l 0.901885,-0.281839 c -0.02739,-0.25246 -0.06349,-0.5062573 -0.112736,-0.7515708 -0.689898,0.2400824 -1.534803,0.6933207 -2.145591,1.0723237 l -2.93435,-2.1209079 z"
       id="path3767"
       inkscape:r_cx="true"
       inkscape:r_cy="true"
       sodipodi:nodetypes="cccccccccsccccccccccccccccccccsccccc"
       inkscape:connector-curvature="0" />
    <path
       style="opacity:0.5;color:#000000;fill:#ffffff;fill-opacity:1;fill-rule:nonzero;stroke:none;stroke-width:1;marker:none;visibility:visible;display:inline;overflow:visible"
       d="m 25.279297,0.850741 c -0.230751,0.10905352 -0.448921,0.2319377 -0.669442,0.358073 l 0.342506,1.0430846 c -0.419132,0.2539106 -0.81454,0.5529691 -1.1832,0.8718311 l -0.8874,-0.6538738 C 22.653232,2.67783 22.435766,2.8952955 22.227888,3.1237297 l 0.653873,0.8873994 C 22.562899,4.379887 22.263939,4.775292 22.00993,5.1943288 l -0.326937,-0.108979 c -0.02867,0.4210498 -0.142124,0.8186019 -0.311368,1.1831997 l 0.06227,0.046706 C 21.245611,6.7617963 21.094461,7.235417 20.982415,7.7164127 l -0.8874,0 c -0.08194,0.051377 -0.162672,0.1112685 -0.249095,0.1556839 -0.04712,0.2496821 -0.08112,0.4914227 -0.108978,0.7472844 l 1.058652,0.3425047 c -0.02008,0.2412698 -0.03114,0.4853313 -0.03114,0.731716 -1e-6,0.2464798 0.01106,0.4904453 0.03114,0.7317153 l -1.058652,0.342505 c 0.03368,0.3095 0.07816,0.618494 0.140115,0.918537 l 1.105358,-0.01557 c 0.07703,0.330683 0.182219,0.665855 0.2958,0.98081 0.447885,-0.172729 0.886152,-0.378903 1.292178,-0.622736 -0.24747,-0.731153 -0.38921,-1.520643 -0.38921,-2.3352625 0,-3.1252915 1.979565,-5.7941025 4.748367,-6.818966 L 26.275676,2.7656579 C 26.141724,2.271027 25.968239,1.7864568 25.74635,1.3333643 c -0.0065,-0.013324 -0.009,-0.033418 -0.01557,-0.046706 L 25.699644,1.2555196 25.279297,0.850741 z"
       id="path3770"
       inkscape:r_cx="true"
       inkscape:r_cy="true"
       inkscape:connector-curvature="0" />
    <path
       sodipodi:type="inkscape:offset"
       inkscape:radius="-0.68594623"
       inkscape:original="M 20.1875 -27.4375 C 12.691257 -27.013184 7.581816 -22.887823 7.21875 -13.90625 C 7.2187498 -11.49164 9.1589798 -9.5625 11.59375 -9.5625 C 14.02852 -9.5625002 15.843353 -11.49164 16.0625 -13.90625 C 16.258339 -15.92862 16.65073 -17.312555 17.34375 -18.125 C 18.051814 -18.937384 18.96159 -19.31247 20.03125 -19.3125 C 21.025553 -19.31247 21.767891 -19.098318 22.25 -18.5625 C 22.747141 -18.043906 22.968733 -17.294424 22.96875 -16.34375 C 22.968733 -15.393023 22.376533 -14.359565 21.15625 -13.21875 C 18.866293 -11.04076 17.381617 -9.489251 16.71875 -8.625 C 16.070927 -7.7607066 15.61268 -6.804395 15.28125 -5.75 C 14.949802 -4.712856 14.749991 -3.395424 14.75 -1.71875 L 14.75 -0.71875 C 14.75 1.665617 16.678133 3.59375 19.0625 3.59375 C 21.446868 3.59375 23.34375 1.603115 23.34375 -0.78125 C 23.343751 -0.841938 23.352186 -0.92105995 23.34375 -1.03125 C 23.376461 -2.2340321 23.60787 -3.235607 23.96875 -4 C 24.375497 -4.8469721 25.322121 -5.960896 26.84375 -7.34375 C 29.028213 -9.3142728 30.4794 -10.946927 31.1875 -12.3125 C 31.895548 -13.678026 32.218723 -15.124459 32.21875 -16.59375 C 32.218724 -20.137235 30.866883 -22.936353 28.125 -25.0625 C 26.106211 -26.635438 23.471745 -27.437462 20.1875 -27.4375 z "
       style="font-size:28px;font-style:normal;font-weight:normal;fill:#729fcf;fill-opacity:1;stroke:#204a87;stroke-width:1.12588396;stroke-linecap:butt;stroke-linejoin:miter;stroke-miterlimit:4;stroke-opacity:1;stroke-dasharray:none;font-family:Arial Black"
       id="path2864"
       d="m 20.1875,-26.75 c -3.616978,0.210195 -6.577787,1.314485 -8.6875,3.375 -2.1106106,2.061392 -3.4119836,5.121116 -3.59375,9.46875 -4.637e-4,0.01109 4.49e-4,0.02014 0,0.03125 0.016804,2.031861 1.625908,3.625 3.6875,3.625 2.07244,0 3.589943,-1.61089 3.78125,-3.71875 0.201418,-2.079982 0.577842,-3.585951 1.4375,-4.59375 0.830572,-0.952941 1.988745,-1.437466 3.21875,-1.4375 1.092785,3.3e-5 2.063247,0.240222 2.71875,0.96875 0.655148,0.683419 0.906231,1.630241 0.90625,2.6875 -2.2e-5,1.235565 -0.740875,2.418658 -2.03125,3.625 -2.279364,2.167915 -3.771882,3.7136502 -4.375,4.5 l 0.03125,0 c -0.59529,0.7942068 -1.030979,1.6924662 -1.34375,2.6875 -0.304508,0.9528461 -0.500009,2.1903245 -0.5,3.8125 l 0,1 c 0,2.0145706 1.610429,3.625 3.625,3.625 2.002584,0 3.59375,-1.6669381 3.59375,-3.6875 2e-6,-0.12423776 0.0039,-0.13692991 0,-0.1875 a 0.68601482,0.68601482 0 0 1 0,-0.09375 c 0.03482,-1.2803215 0.276192,-2.3475441 0.6875,-3.21875 a 0.68601482,0.68601482 0 0 1 0,-0.03125 c 0.484937,-1.0097879 1.478727,-2.1203195 3.03125,-3.53125 2.15673,-1.9455058 3.584101,-3.557327 4.21875,-4.78125 0.656193,-1.26552 0.937475,-2.600035 0.9375,-3.96875 -2.5e-5,-3.369028 -1.214726,-5.9231 -3.8125,-7.9375 -1.872945,-1.459303 -4.343991,-2.213203 -7.5,-2.21875 -0.01144,-2e-5 -0.01979,0 -0.03125,0 z"
       transform="matrix(0.89006783,0,0,0.88631812,17.20342,16.202341)" />
    <path
       transform="matrix(0.89006783,0,0,0.88631812,17.20342,16.202341)"
       d="m 20.1875,-25.0625 c -3.276243,0.208933 -5.760479,1.176044 -7.5,2.875 -1.749,1.708214 -2.9133185,4.284783 -3.09375,8.28125 0,0.01084 -1.464e-4,0.02047 0,0.03125 0.015387,1.132803 0.823784,1.9375 2,1.9375 1.187409,0 2.001696,-0.82891 2.125,-2.1875 0.215045,-2.220704 0.577061,-4.046278 1.84375,-5.53125 a 2.3616811,2.3616811 0 0 1 0,-0.03125 c 1.129811,-1.296268 2.847086,-1.999955 4.46875,-2 1.320385,4e-5 2.859725,0.329029 3.9375,1.5 0.0041,0.0045 -0.0041,0.02677 0,0.03125 0.0065,0.0071 0.02483,-0.0071 0.03125,0 1.016662,1.082294 1.343727,2.508109 1.34375,3.8125 -3.5e-5,1.931313 -1.100918,3.47735 -2.5625,4.84375 -2.245085,2.1353124 -3.724429,3.680096 -4.1875,4.28125 -0.0054,0.0072 0.0054,0.02403 0,0.03125 -0.458684,0.6174392 -0.798394,1.3160378 -1.0625,2.15625 -0.238705,0.7469392 -0.406258,1.8234432 -0.40625,3.3125 l 0,1 c 0,1.11130237 0.826198,1.9375 1.9375,1.9375 1.070036,0 1.90625,-0.86806697 1.90625,-2 5e-6,-0.279465 0.02397,-0.1575582 0.03125,-0.0625 a 2.3616811,2.3616811 0 0 1 -0.03125,-0.25 c 0.03997,-1.4697199 0.340517,-2.774142 0.875,-3.90625 a 2.3616811,2.3616811 0 0 1 0,-0.03125 c 0.675925,-1.4074833 1.778265,-2.5829894 3.40625,-4.0625 2.088989,-1.884399 3.388513,-3.434574 3.84375,-4.3125 0.529531,-1.021243 0.749979,-2.064452 0.75,-3.1875 -2.2e-5,-2.942899 -0.91048,-4.852305 -3.15625,-6.59375 -1.540085,-1.199956 -3.600189,-1.874966 -6.5,-1.875 z"
       id="path3261"
       style="font-size:28px;font-style:normal;font-weight:normal;fill:none;stroke:#ffffff;stroke-width:1.12588396;stroke-linecap:butt;stroke-linejoin:miter;stroke-opacity:0.23717951000000001;font-family:Arial Black;stroke-miterlimit:4;stroke-dasharray:none"
       inkscape:original="M 20.1875 -27.4375 C 12.691257 -27.013184 7.581816 -22.887823 7.21875 -13.90625 C 7.2187498 -11.49164 9.1589798 -9.5625 11.59375 -9.5625 C 14.02852 -9.5625002 15.843353 -11.49164 16.0625 -13.90625 C 16.258339 -15.92862 16.65073 -17.312555 17.34375 -18.125 C 18.051814 -18.937384 18.96159 -19.31247 20.03125 -19.3125 C 21.025553 -19.31247 21.767891 -19.098318 22.25 -18.5625 C 22.747141 -18.043906 22.968733 -17.294424 22.96875 -16.34375 C 22.968733 -15.393023 22.376533 -14.359565 21.15625 -13.21875 C 18.866293 -11.04076 17.381617 -9.489251 16.71875 -8.625 C 16.070927 -7.7607066 15.61268 -6.804395 15.28125 -5.75 C 14.949802 -4.712856 14.749991 -3.395424 14.75 -1.71875 L 14.75 -0.71875 C 14.75 1.665617 16.678133 3.59375 19.0625 3.59375 C 21.446868 3.59375 23.34375 1.603115 23.34375 -0.78125 C 23.343751 -0.841938 23.352186 -0.92105995 23.34375 -1.03125 C 23.376461 -2.2340321 23.60787 -3.235607 23.96875 -4 C 24.375497 -4.8469721 25.322121 -5.960896 26.84375 -7.34375 C 29.028213 -9.3142728 30.4794 -10.946927 31.1875 -12.3125 C 31.895548 -13.678026 32.218723 -15.124459 32.21875 -16.59375 C 32.218724 -20.137235 30.866883 -22.936353 28.125 -25.0625 C 26.106211 -26.635438 23.471745 -27.437462 20.1875 -27.4375 z "
       inkscape:radius="-2.361445"
       sodipodi:type="inkscape:offset" />
  </g>
</svg>
