<?xml version="1.0" encoding="UTF-8" standalone="no"?>
<!-- made by Andy, It's public domain,  yeah why not-->

<svg
   xmlns:dc="http://purl.org/dc/elements/1.1/"
   xmlns:cc="http://creativecommons.org/ns#"
   xmlns:rdf="http://www.w3.org/1999/02/22-rdf-syntax-ns#"
   xmlns:svg="http://www.w3.org/2000/svg"
   xmlns="http://www.w3.org/2000/svg"
   xmlns:xlink="http://www.w3.org/1999/xlink"
   xmlns:sodipodi="http://sodipodi.sourceforge.net/DTD/sodipodi-0.dtd"
   xmlns:inkscape="http://www.inkscape.org/namespaces/inkscape"
   version="1.0"
   width="48"
   height="48"
   id="svg4895"
   sodipodi:version="0.32"
   inkscape:version="0.47 r22583"
   sodipodi:docname="testtube.svg"
   inkscape:output_extension="org.inkscape.output.svg.inkscape"
   inkscape:export-filename="C:\joanna\Gfx\drawings_vector\pitr_icons\test_tube_2_in_Andy_style.png"
   inkscape:export-xdpi="90"
   inkscape:export-ydpi="90">
  <metadata
     id="metadata77">
    <rdf:RDF>
      <cc:Work
         rdf:about="">
        <dc:format>image/svg+xml</dc:format>
        <dc:type
           rdf:resource="http://purl.org/dc/dcmitype/StillImage" />
        <dc:title></dc:title>
      </cc:Work>
    </rdf:RDF>
  </metadata>
  <sodipodi:namedview
     inkscape:window-height="980"
     inkscape:window-width="1280"
     inkscape:pageshadow="2"
     inkscape:pageopacity="0.0"
     guidetolerance="10.0"
     gridtolerance="10.0"
     objecttolerance="10.0"
     borderopacity="1.0"
     bordercolor="#666666"
     pagecolor="#ffffff"
     id="base"
     showgrid="false"
     inkscape:zoom="10.488751"
     inkscape:cx="24"
     inkscape:cy="24"
     inkscape:window-x="0"
     inkscape:window-y="24"
     inkscape:current-layer="svg4895"
     inkscape:window-maximized="1" />
  <defs
     id="defs3">
    <linearGradient
       inkscape:collect="always"
       id="linearGradient8301">
      <stop
         style="stop-color: rgb(255, 255, 255); stop-opacity: 1;"
         offset="0"
         id="stop8303" />
      <stop
         style="stop-color: rgb(255, 255, 255); stop-opacity: 0;"
         offset="1"
         id="stop8305" />
    </linearGradient>
    <linearGradient
       id="linearGradient8200">
      <stop
         style="stop-color: rgb(0, 192, 192); stop-opacity: 0.752941;"
         offset="0"
         id="stop8202" />
      <stop
         style="stop-color: rgb(128, 245, 245); stop-opacity: 0.301961;"
         offset="1"
         id="stop8204" />
    </linearGradient>
    <!-- -->
    <radialGradient
       inkscape:collect="always"
       xlink:href="#linearGradient8200"
       id="radialGradient3750"
       gradientUnits="userSpaceOnUse"
       gradientTransform="matrix(0.17632967,2.1025919,-0.92741946,0.07777823,-90.861805,-2596.8793)"
       cx="1227.3593"
       cy="63.768734"
       fx="1227.3593"
       fy="63.768734"
       r="55.412727" />
    <linearGradient
       inkscape:collect="always"
       xlink:href="#linearGradient8301"
       id="linearGradient3752"
       gradientUnits="userSpaceOnUse"
       gradientTransform="matrix(-0.99701828,-0.07716018,-0.07716018,0.99701828,146.00861,-16.401468)"
       x1="41.589245"
       y1="47.516582"
       x2="57.072311"
       y2="67.268402" />
    <linearGradient
       inkscape:collect="always"
       xlink:href="#linearGradient8301"
       id="linearGradient3754"
       gradientUnits="userSpaceOnUse"
       gradientTransform="matrix(0.54143726,-1.6783455,1.7248963,-0.87760529,-66.008989,208.85195)"
       x1="49.242207"
       y1="57.609703"
       x2="56.435417"
       y2="65.985397" />
  </defs>
  <style
     type="text/css"
     id="style31">
	/* Specular Highlighting */
		.low-specularity	{opacity:0.25;}
		.specularity		{opacity:0.5;}
		.high-specularity	{opacity:0.75;}
		.full-specularity	{opacity:1;}

	/* Shading */
		.low-shade	{opacity:0.25;}
		.shade		{opacity:0.5;}
		.high-shade	{opacity:0.75;}
		.full-shade	{opacity:1;}

	/* Tango palette fill/stroke */
		.black		{fill:#000;}
		.aluminium1	{fill:#eeeeec;}
		.aluminium2	{fill:#d3d7cf;}
		.aluminium6	{fill:#2e3436;}
		.chocolate3	{fill:#8f5902;}
		.chocolate2	{fill:#c17d11;}
		.aluminium4	{fill:#888a85;}

	/* Shadows: Back-Shadows &amp; Base Shadows */
		.base-shadow	{opacity:0.4;}
		.outline-big	{stroke:black;stroke-width:8;opacity:0.25;stroke-linejoin:round;}
		.outline-small	{stroke:black;stroke-width:4;opacity:0.5;stroke-linejoin:round;}
		.stroke-highlight	{fill:none;stroke:white;stroke-opacity:0.2;stroke-width:4;stroke-linejoin:round;}
	</style>
  <g
     inkscape:groupmode="layer"
     id="layer3"
     inkscape:label="wyz"
     transform="translate(0,-80)" />
  <g
     id="g3722"
     transform="matrix(0.30362615,0,0,0.30362615,8.5111464,7.3738025)">
    <path
       sodipodi:type="arc"
       style="fill:#ffea00;fill-opacity:1;stroke:none"
       id="path3642"
       sodipodi:cx="58.221107"
       sodipodi:cy="71.558578"
       sodipodi:rx="9.1526632"
       sodipodi:ry="9.1526632"
       d="m 67.373771,71.558578 c 0,5.054877 -4.097787,9.152664 -9.152664,9.152664 -5.054876,0 -9.152663,-4.097787 -9.152663,-9.152664 0,-5.054876 4.097787,-9.152663 9.152663,-9.152663 5.054877,0 9.152664,4.097787 9.152664,9.152663 z"
       transform="matrix(0.70284131,-0.71134667,0.71134667,0.70284131,-62.2791,-1.0696164)" />
    <path
       sodipodi:nodetypes="cccccccc"
       id="path8208"
       d="M 17.57901,31.952629 54.167196,-5.5535346 c 0.114747,9.261794 3.868398,12.923585 9.491279,18.4088416 l 56.259245,54.882281 c 9.37655,9.147051 4.91777,23.097111 0.34424,27.785381 -4.57355,4.688241 -18.40884,9.491291 -27.785376,0.344243 L 36.217334,40.984931 c -5.62288,-5.485265 -9.37653,-9.147048 -18.638324,-9.032302 z"
       style="opacity:0.25;fill:none;stroke:#000000;stroke-width:8;stroke-linecap:round;stroke-linejoin:round;stroke-miterlimit:4;stroke-opacity:1;stroke-dasharray:none;stroke-dashoffset:0;marker:none;visibility:visible;display:inline;overflow:visible" />
    <g
       transform="matrix(-0.17381085,-1.9495015,1.9495015,-0.17381085,20.054696,112.0342)"
       id="layer2" />
    <path
       style="fill:#ffffff;fill-opacity:1;fill-rule:nonzero;stroke:none;stroke-width:5.87169981;marker:none;visibility:visible;display:inline;overflow:visible"
       d="M 17.57901,31.952629 54.167196,-5.5535346 c 0.114747,9.261794 3.868398,12.923585 9.491279,18.4088416 l 56.259245,54.882281 c 9.37655,9.147051 4.91777,23.097111 0.34424,27.785381 -4.57355,4.688241 -18.40884,9.491291 -27.785376,0.344243 L 36.217334,40.984931 c -5.62288,-5.485265 -9.37653,-9.147048 -18.638324,-9.032302 z"
       id="path8210"
       sodipodi:nodetypes="cccccccc" />
    <path
       transform="matrix(0.70284131,-0.71134667,0.71134667,0.70284131,-36.881515,25.800813)"
       d="m 67.373771,71.558578 c 0,5.054877 -4.097787,9.152664 -9.152664,9.152664 -5.054876,0 -9.152663,-4.097787 -9.152663,-9.152664 0,-5.054876 4.097787,-9.152663 9.152663,-9.152663 5.054877,0 9.152664,4.097787 9.152664,9.152663 z"
       sodipodi:ry="9.1526632"
       sodipodi:rx="9.1526632"
       sodipodi:cy="71.558578"
       sodipodi:cx="58.221107"
       id="path3640"
       style="fill:#6d96c0;fill-opacity:1;stroke:none"
       sodipodi:type="arc" />
    <g
       transform="matrix(1.5245086,-1.5627575,1.5627575,1.5245086,-14.550403,55.508732)"
       id="g3285"
       style="fill:#00a4ff;fill-opacity:1;stroke:none">
      <path
         style="fill:#00a4ff;fill-opacity:1;fill-rule:nonzero;stroke:none;stroke-width:3;marker:none;visibility:visible;display:inline;overflow:visible"
         d="m 21.213709,20.485403 c 8.097388,-0.02317 8.911071,-0.004 17.554201,-0.231115 L 39,48 c 0,6 -6,9 -9,9 -3,0 -9,-3 -9,-9 -0.132727,-11.897253 0.07583,-14.732324 0.213709,-27.514597 z"
         id="path3287"
         sodipodi:nodetypes="cccccc" />
      <path
         style="fill:#00a4ff;fill-opacity:1;fill-rule:evenodd;stroke:none"
         d="M 38.688421,15.134044 31.178953,14.945531"
         id="path3289" />
      <path
         id="path3291"
         d="M 38.52927,24.205662 31.019802,24.017149"
         style="fill:#00a4ff;fill-opacity:1;fill-rule:evenodd;stroke:none" />
      <path
         style="fill:#00a4ff;fill-opacity:1;fill-rule:evenodd;stroke:none"
         d="M 38.52927,33.118129 31.019802,32.929616"
         id="path3293" />
      <path
         id="path3295"
         d="M 38.52927,42.030596 31.019802,41.842083"
         style="fill:#00a4ff;fill-opacity:1;fill-rule:evenodd;stroke:none" />
    </g>
    <path
       sodipodi:type="arc"
       style="fill:#ffffff;fill-opacity:1;stroke:none"
       id="path3638"
       sodipodi:cx="58.221107"
       sodipodi:cy="71.558578"
       sodipodi:rx="9.1526632"
       sodipodi:ry="9.1526632"
       d="m 67.373771,71.558578 c 0,5.054877 -4.097787,9.152664 -9.152664,9.152664 -5.054876,0 -9.152663,-4.097787 -9.152663,-9.152664 0,-5.054876 4.097787,-9.152663 9.152663,-9.152663 5.054877,0 9.152664,4.097787 9.152664,9.152663 z"
       transform="matrix(0.70284131,-0.71134667,0.71134667,0.70284131,-1.2339667,64.238802)" />
    <path
       transform="matrix(0.70284131,-0.71134667,0.71134667,0.70284131,-11.430945,42.726706)"
       d="m 67.373771,71.558578 c 0,5.054877 -4.097787,9.152664 -9.152664,9.152664 -5.054876,0 -9.152663,-4.097787 -9.152663,-9.152664 0,-5.054876 4.097787,-9.152663 9.152663,-9.152663 5.054877,0 9.152664,4.097787 9.152664,9.152663 z"
       sodipodi:ry="9.1526632"
       sodipodi:rx="9.1526632"
       sodipodi:cy="71.558578"
       sodipodi:cx="58.221107"
       id="path3636"
       style="fill:#ffffff;fill-opacity:1;stroke:none"
       sodipodi:type="arc" />
    <path
       id="rect3162"
       d="m 15.587101,32.196669 c 0.119617,1.01558 0.985992,1.77739 2.008528,1.766108 4.364035,-0.05407 7.168033,0.733573 9.66663,2.150039 2.498597,1.416466 4.745868,3.548589 7.557309,6.291222 L 91.07431,97.31272 c 5.16548,5.03905 11.68771,6.24361 17.34214,5.54432 5.65443,-0.69929 10.52156,-3.130968 13.27384,-5.952319 2.75231,-2.821329 5.05487,-7.725205 5.61386,-13.395221 0.55899,-5.67001 -0.82247,-12.153355 -5.98795,-17.192408 L 65.061454,11.408407 C 62.250015,8.665784 60.047727,6.5123208 58.569796,4.0495799 57.091867,1.5868389 56.227253,-1.2241342 56.173187,-5.5881659 56.162638,-6.4007397 55.667949,-7.1234337 54.911696,-7.4208791 54.155445,-7.7183046 53.287967,-7.5313686 52.726689,-6.9437015 L 16.161477,30.545386 c -0.434616,0.433188 -0.646346,1.041886 -0.574376,1.651283 z m 6.303833,-1.785625 30.814464,-31.6114125 c 0.470689,2.7701253 1.213765,5.2419214 2.437483,7.2810554 1.833303,3.0549213 4.320974,5.4689091 7.132417,8.2115421 l 3.437351,3.364284 -10.769313,10.466485 c -0.49938,0.471773 -0.721713,1.166802 -0.588851,1.840817 0.134547,0.732586 0.649392,1.321521 1.361019,1.541473 0.711627,0.219953 1.502148,0.03448 2.026599,-0.494428 L 68.565343,20.445445 79.902772,31.48222 68.875522,42.222694 c -0.49007,0.46467 -0.712573,1.145266 -0.591626,1.80969 0.134548,0.732586 0.649393,1.321522 1.36102,1.541474 0.711626,0.219952 1.502148,0.03448 2.026599,-0.494428 L 82.755468,34.271153 93.818906,45.049989 82.791657,55.790464 c -0.499379,0.471772 -0.721712,1.166802 -0.588851,1.840817 0.134548,0.732584 0.649393,1.32152 1.36102,1.541473 0.711627,0.219952 1.502148,0.03448 2.026599,-0.494428 L 96.674377,47.870049 107.77172,58.677236 96.741694,69.386584 c -0.45102,0.415273 -0.686681,1.014449 -0.639404,1.625706 0.06138,0.785252 0.573934,1.468082 1.315418,1.733784 0.741481,0.265701 1.573833,0.0648 2.119978,-0.502753 l 11.083954,-10.808278 7.90563,7.73474 c 4.21106,4.107999 5.28911,9.175739 4.81946,13.939579 -0.46965,4.763838 -2.68789,9.139506 -4.50913,11.006427 -1.82125,1.866911 -6.15013,4.180628 -10.90088,4.768153 -4.75074,0.587525 -9.865186,-0.34705 -14.076247,-4.455042 L 37.6085,39.551342 c -2.811441,-2.742633 -5.266003,-5.152343 -8.365399,-6.9094 -2.068212,-1.172473 -4.572321,-1.828846 -7.352167,-2.230898 z"
       style="opacity:0.5;fill:#000000;fill-opacity:1;fill-rule:nonzero;stroke:none;stroke-width:4;marker:none;visibility:visible;display:inline;overflow:visible" />
    <path
       sodipodi:nodetypes="cccccccc"
       id="path8156"
       d="M 17.877823,31.925968 54.46601,-5.5801757 c 0.11475,9.2618011 3.868405,12.9236211 9.491281,18.4088507 l 56.259249,54.882274 c 9.37654,9.147051 4.91777,23.097137 0.34424,27.785424 -4.57356,4.688237 -18.40885,9.491207 -27.785386,0.344165 L 36.516144,40.958261 C 30.893262,35.47304 27.139607,31.81122 17.877823,31.925968 z"
       style="fill:url(#radialGradient3750);fill-opacity:1;fill-rule:nonzero;stroke:none;stroke-width:5.87169981;marker:none;visibility:visible;display:inline;overflow:visible" />
    <path
       sodipodi:nodetypes="ccccccc"
       id="path8291"
       d="m 53.313036,-1.6876457 c -0.05205,2.25349678 0.120949,7.0556669 3.916297,10.5936154 L 119.51382,70.457551 c 3.94831,4.29208 3.44301,8.514126 2.252,12.921521 -0.73261,-3.98658 -4.50906,-8.204217 -8.84545,-12.4697 L 49.845444,7.4783735 c -2.751308,-2.6774329 1.061009,-6.3777528 3.467592,-9.1660192 z"
       style="fill:url(#linearGradient3752);fill-opacity:1;fill-rule:evenodd;stroke:none" />
    <path
       sodipodi:nodetypes="ccccccc"
       style="fill:url(#linearGradient3754);fill-opacity:1;fill-rule:evenodd;stroke:none"
       d="m 22.461762,30.270133 c 4.212655,1.114709 6.876304,1.715725 10.724756,4.671075 L 95.19113,95.46679 c 4.545128,3.674554 13.54008,5.67332 21.81351,-0.388168 -6.19642,1.696408 -10.00328,-4.554069 -14.24264,-8.924127 L 39.972646,24.629793 c -4.732933,-4.415712 -11.160933,-1.606465 -17.510884,5.64034 z"
       id="path8321" />
    <path
       transform="matrix(0.70284131,-0.71134667,0.71134667,0.70284131,-109.46578,33.059087)"
       d="m 67.373771,71.558578 c 0,5.054877 -4.097787,9.152664 -9.152664,9.152664 -5.054876,0 -9.152663,-4.097787 -9.152663,-9.152664 0,-5.054876 4.097787,-9.152663 9.152663,-9.152663 5.054877,0 9.152664,4.097787 9.152664,9.152663 z"
       sodipodi:ry="9.1526632"
       sodipodi:rx="9.1526632"
       sodipodi:cy="71.558578"
       sodipodi:cx="58.221107"
       id="path3644"
       style="fill:#6d75d8;fill-opacity:1;stroke:none"
       sodipodi:type="arc" />
    <path
       sodipodi:type="arc"
       style="fill:#ff00f6;fill-opacity:1;stroke:none"
       id="path3646"
       sodipodi:cx="58.221107"
       sodipodi:cy="71.558578"
       sodipodi:rx="9.1526632"
       sodipodi:ry="9.1526632"
       d="m 67.373771,71.558578 c 0,5.054877 -4.097787,9.152664 -9.152664,9.152664 -5.054876,0 -9.152663,-4.097787 -9.152663,-9.152664 0,-5.054876 4.097787,-9.152663 9.152663,-9.152663 5.054877,0 9.152664,4.097787 9.152664,9.152663 z"
       transform="matrix(0.70284131,-0.71134667,0.71134667,0.70284131,-94.224156,13.868735)" />
    <path
       transform="matrix(0.70284131,-0.71134667,0.71134667,0.70284131,-92.755728,46.65754)"
       d="m 67.373771,71.558578 c 0,5.054877 -4.097787,9.152664 -9.152664,9.152664 -5.054876,0 -9.152663,-4.097787 -9.152663,-9.152664 0,-5.054876 4.097787,-9.152663 9.152663,-9.152663 5.054877,0 9.152664,4.097787 9.152664,9.152663 z"
       sodipodi:ry="9.1526632"
       sodipodi:rx="9.1526632"
       sodipodi:cy="71.558578"
       sodipodi:cx="58.221107"
       id="path3648"
       style="fill:#00ff08;fill-opacity:1;stroke:none"
       sodipodi:type="arc" />
    <path
       sodipodi:type="arc"
       style="fill:#88a2c3;fill-opacity:1;stroke:none"
       id="path3650"
       sodipodi:cx="58.221107"
       sodipodi:cy="71.558578"
       sodipodi:rx="9.1526632"
       sodipodi:ry="9.1526632"
       d="m 67.373771,71.558578 c 0,5.054877 -4.097787,9.152664 -9.152664,9.152664 -5.054876,0 -9.152663,-4.097787 -9.152663,-9.152664 0,-5.054876 4.097787,-9.152663 9.152663,-9.152663 5.054877,0 9.152664,4.097787 9.152664,9.152663 z"
       transform="matrix(0.70284131,-0.71134667,0.71134667,0.70284131,-70.438002,37.370486)" />
    <path
       transform="matrix(0.70284131,-0.71134667,0.71134667,0.70284131,-96.049372,73.239807)"
       d="m 67.373771,71.558578 c 0,5.054877 -4.097787,9.152664 -9.152664,9.152664 -5.054876,0 -9.152663,-4.097787 -9.152663,-9.152664 0,-5.054876 4.097787,-9.152663 9.152663,-9.152663 5.054877,0 9.152664,4.097787 9.152664,9.152663 z"
       sodipodi:ry="9.1526632"
       sodipodi:rx="9.1526632"
       sodipodi:cy="71.558578"
       sodipodi:cx="58.221107"
       id="path3652"
       style="fill:#ff00df;fill-opacity:1;stroke:none"
       sodipodi:type="arc" />
    <path
       sodipodi:type="arc"
       style="fill:#13ff00;fill-opacity:1;stroke:none"
       id="path3654"
       sodipodi:cx="58.221107"
       sodipodi:cy="71.558578"
       sodipodi:rx="9.1526632"
       sodipodi:ry="9.1526632"
       d="m 67.373771,71.558578 c 0,5.054877 -4.097787,9.152664 -9.152664,9.152664 -5.054876,0 -9.152663,-4.097787 -9.152663,-9.152664 0,-5.054876 4.097787,-9.152663 9.152663,-9.152663 5.054877,0 9.152664,4.097787 9.152664,9.152663 z"
       transform="matrix(0.70284131,-0.71134667,0.71134667,0.70284131,-78.079509,100.99164)" />
    <path
       transform="matrix(0.70284131,-0.71134667,0.71134667,0.70284131,-63.678018,62.245862)"
       d="m 67.373771,71.558578 c 0,5.054877 -4.097787,9.152664 -9.152664,9.152664 -5.054876,0 -9.152663,-4.097787 -9.152663,-9.152664 0,-5.054876 4.097787,-9.152663 9.152663,-9.152663 5.054877,0 9.152664,4.097787 9.152664,9.152663 z"
       sodipodi:ry="9.1526632"
       sodipodi:rx="9.1526632"
       sodipodi:cy="71.558578"
       sodipodi:cx="58.221107"
       id="path3656"
       style="fill:#ff0400;fill-opacity:1;stroke:none"
       sodipodi:type="arc" />
    <path
       sodipodi:type="arc"
       style="fill:#ffee00;fill-opacity:1;stroke:none"
       id="path3658"
       sodipodi:cx="58.221107"
       sodipodi:cy="71.558578"
       sodipodi:rx="9.1526632"
       sodipodi:ry="9.1526632"
       d="m 67.373771,71.558578 c 0,5.054877 -4.097787,9.152664 -9.152664,9.152664 -5.054876,0 -9.152663,-4.097787 -9.152663,-9.152664 0,-5.054876 4.097787,-9.152663 9.152663,-9.152663 5.054877,0 9.152664,4.097787 9.152664,9.152663 z"
       transform="matrix(0.70284131,-0.71134667,0.71134667,0.70284131,-41.218884,81.928203)" />
    <path
       transform="matrix(0.70284131,-0.71134667,0.71134667,0.70284131,-88.028806,-12.864275)"
       d="m 67.373771,71.558578 c 0,5.054877 -4.097787,9.152664 -9.152664,9.152664 -5.054876,0 -9.152663,-4.097787 -9.152663,-9.152664 0,-5.054876 4.097787,-9.152663 9.152663,-9.152663 5.054877,0 9.152664,4.097787 9.152664,9.152663 z"
       sodipodi:ry="9.1526632"
       sodipodi:rx="9.1526632"
       sodipodi:cy="71.558578"
       sodipodi:cx="58.221107"
       id="path3660"
       style="fill:#ff0009;fill-opacity:1;stroke:none"
       sodipodi:type="arc" />
  </g>
</svg>
