<?xml version="1.0" encoding="UTF-8" standalone="no"?>
<!-- Created with Inkscape (http://www.inkscape.org/) -->
<svg
   xmlns:dc="http://purl.org/dc/elements/1.1/"
   xmlns:cc="http://creativecommons.org/ns#"
   xmlns:rdf="http://www.w3.org/1999/02/22-rdf-syntax-ns#"
   xmlns:svg="http://www.w3.org/2000/svg"
   xmlns="http://www.w3.org/2000/svg"
   xmlns:xlink="http://www.w3.org/1999/xlink"
   xmlns:sodipodi="http://sodipodi.sourceforge.net/DTD/sodipodi-0.dtd"
   xmlns:inkscape="http://www.inkscape.org/namespaces/inkscape"
   inkscape:export-ydpi="90.000000"
   inkscape:export-xdpi="90.000000"
   inkscape:export-filename="/home/jimmac/Desktop/wi-fi.png"
   width="48px"
   height="48px"
   id="svg11300"
   sodipodi:version="0.32"
   inkscape:version="0.45+devel"
   sodipodi:docbase="/home/andrew/Desktop"
   sodipodi:docname="plugin-atlantis.svg"
   inkscape:output_extension="org.inkscape.output.svg.inkscape">
  <defs
     id="defs3">
    <linearGradient
       id="linearGradient3153">
      <stop
         style="stop-color:#f9f9f8;stop-opacity:0.39215687;"
         offset="0"
         id="stop3155" />
      <stop
         style="stop-color:#cdcfca;stop-opacity:0.39215687;"
         offset="1"
         id="stop3157" />
    </linearGradient>
    <linearGradient
       inkscape:collect="always"
       id="linearGradient6482">
      <stop
         style="stop-color:#000000;stop-opacity:1;"
         offset="0"
         id="stop6484" />
      <stop
         style="stop-color:#000000;stop-opacity:0;"
         offset="1"
         id="stop6486" />
    </linearGradient>
    <radialGradient
       inkscape:collect="always"
       xlink:href="#linearGradient6482"
       id="radialGradient6488"
       cx="13.030141"
       cy="-7.0069871"
       fx="13.030141"
       fy="-7.0069871"
       r="18.143234"
       gradientTransform="matrix(1,0,0,0.3954545,0,-4.2360423)"
       gradientUnits="userSpaceOnUse" />
    <radialGradient
       inkscape:collect="always"
       xlink:href="#linearGradient3153"
       id="radialGradient3159"
       cx="8.0419788"
       cy="13.534249"
       fx="8.0419788"
       fy="13.534249"
       r="19.677486"
       gradientTransform="matrix(0.2980508,2.0588105,-1.9820156,0.2786465,31.498617,-7.9555659)"
       gradientUnits="userSpaceOnUse" />
    <linearGradient
       gradientUnits="userSpaceOnUse"
       y2="15.719898"
       x2="-57.929455"
       y1="13.032076"
       x1="-52.960548"
       id="linearGradient4761"
       xlink:href="#linearGradient4755"
       inkscape:collect="always" />
    <linearGradient
       id="linearGradient3657"
       inkscape:collect="always">
      <stop
         id="stop3659"
         offset="0"
         style="stop-color:#eeeeec;stop-opacity:1;" />
      <stop
         id="stop3661"
         offset="1"
         style="stop-color:#d3d7cf;stop-opacity:1" />
    </linearGradient>
    <linearGradient
       id="linearGradient4731"
       inkscape:collect="always">
      <stop
         id="stop4733"
         offset="0"
         style="stop-color:#204a87;stop-opacity:1" />
      <stop
         id="stop4735"
         offset="1"
         style="stop-color:#729fcf;stop-opacity:1" />
    </linearGradient>
    <linearGradient
       id="linearGradient4741"
       inkscape:collect="always">
      <stop
         id="stop4743"
         offset="0"
         style="stop-color:#eeeeec;stop-opacity:1;" />
      <stop
         id="stop4745"
         offset="1"
         style="stop-color:#eeeeec;stop-opacity:0;" />
    </linearGradient>
    <linearGradient
       id="linearGradient4755"
       inkscape:collect="always">
      <stop
         id="stop4757"
         offset="0"
         style="stop-color:#204a87;stop-opacity:1;" />
      <stop
         id="stop4759"
         offset="1"
         style="stop-color:#204a87;stop-opacity:0;" />
    </linearGradient>
    <linearGradient
       inkscape:collect="always"
       xlink:href="#linearGradient4741"
       id="linearGradient2807"
       gradientUnits="userSpaceOnUse"
       gradientTransform="matrix(0.7059395,0,0,0.6958614,-7.2891097,2.8262339)"
       x1="32.85714"
       y1="12"
       x2="38.857143"
       y2="39.428574" />
    <radialGradient
       inkscape:collect="always"
       xlink:href="#linearGradient4731"
       id="radialGradient2810"
       gradientUnits="userSpaceOnUse"
       gradientTransform="matrix(0.7059395,0,0,0.5456603,7.0313769,11.28117)"
       cx="23.359375"
       cy="24.046875"
       fx="23.359375"
       fy="24.046875"
       r="20.703125" />
    <radialGradient
       inkscape:collect="always"
       xlink:href="#linearGradient3657"
       id="radialGradient2812"
       gradientUnits="userSpaceOnUse"
       gradientTransform="matrix(0.9672135,0.8360656,-0.6539535,0.7565347,-4.2807053,17.310651)"
       cx="-22.285715"
       cy="-5.4285712"
       fx="-22.285715"
       fy="-5.4285712"
       r="4.3571429" />
    <radialGradient
       inkscape:collect="always"
       xlink:href="#linearGradient3657"
       id="radialGradient2814"
       gradientUnits="userSpaceOnUse"
       gradientTransform="matrix(0.9672135,0.8360656,-0.6539535,0.7565347,-4.2807053,17.310651)"
       cx="-22.285715"
       cy="-5.4285712"
       fx="-22.285715"
       fy="-5.4285712"
       r="4.3571429" />
    <radialGradient
       inkscape:collect="always"
       xlink:href="#linearGradient3657"
       id="radialGradient2816"
       gradientUnits="userSpaceOnUse"
       gradientTransform="matrix(0.9672135,0.8360656,-0.6539535,0.7565347,-4.2807053,17.310651)"
       cx="-22.285715"
       cy="-5.4285712"
       fx="-22.285715"
       fy="-5.4285712"
       r="4.3571429" />
    <radialGradient
       inkscape:collect="always"
       xlink:href="#linearGradient3657"
       id="radialGradient2818"
       gradientUnits="userSpaceOnUse"
       gradientTransform="matrix(0.9672135,0.8360656,-0.6539535,0.7565347,-4.2807053,17.310651)"
       cx="-22.285715"
       cy="-5.4285712"
       fx="-22.285715"
       fy="-5.4285712"
       r="4.3571429" />
  </defs>
  <sodipodi:namedview
     stroke="#ef2929"
     fill="#eeeeec"
     id="base"
     pagecolor="#ffffff"
     bordercolor="#666666"
     borderopacity="0.25490196"
     inkscape:pageopacity="0.0"
     inkscape:pageshadow="2"
     inkscape:zoom="1"
     inkscape:cx="22.355943"
     inkscape:cy="8.0461271"
     inkscape:current-layer="layer1"
     showgrid="false"
     inkscape:grid-bbox="true"
     inkscape:document-units="px"
     inkscape:showpageshadow="false"
     inkscape:window-width="1280"
     inkscape:window-height="710"
     inkscape:window-x="0"
     inkscape:window-y="49"
     showguides="true"
     inkscape:guide-bbox="true">
    <inkscape:grid
       type="xygrid"
       id="grid7897" />
  </sodipodi:namedview>
  <metadata
     id="metadata4">
    <rdf:RDF>
      <cc:Work
         rdf:about="">
        <dc:format>image/svg+xml</dc:format>
        <dc:type
           rdf:resource="http://purl.org/dc/dcmitype/StillImage" />
        <dc:creator>
          <cc:Agent>
            <dc:title>Patrick Niklaus</dc:title>
          </cc:Agent>
        </dc:creator>
        <dc:source />
        <cc:license
           rdf:resource="http://creativecommons.org/licenses/GPL/2.0/" />
        <dc:title>Cube</dc:title>
        <dc:subject>
          <rdf:Bag />
        </dc:subject>
      </cc:Work>
      <cc:License
         rdf:about="http://creativecommons.org/licenses/GPL/2.0/">
        <cc:permits
           rdf:resource="http://web.resource.org/cc/Reproduction" />
        <cc:permits
           rdf:resource="http://web.resource.org/cc/Distribution" />
        <cc:requires
           rdf:resource="http://web.resource.org/cc/Notice" />
        <cc:permits
           rdf:resource="http://web.resource.org/cc/DerivativeWorks" />
        <cc:requires
           rdf:resource="http://web.resource.org/cc/ShareAlike" />
        <cc:requires
           rdf:resource="http://web.resource.org/cc/SourceCode" />
      </cc:License>
    </rdf:RDF>
  </metadata>
  <g
     id="layer1"
     inkscape:label="Layer 1"
     inkscape:groupmode="layer">
    <path
       style="fill:url(#radialGradient2810);fill-opacity:1;stroke:#204a87;stroke-width:0.69586146;stroke-miterlimit:4;stroke-dasharray:none;stroke-opacity:1"
       d="M 24.194531,13.453653 C 22.420217,16.208761 20.657088,20.08376 16.804227,20.086082 C 16.743375,20.328597 16.759472,20.536196 16.826287,20.738452 C 12.415659,21.46364 9.2594983,23.371243 9.2594983,25.631227 C 9.2594983,27.964632 12.614129,29.943735 17.245439,30.610986 C 17.227997,30.852268 17.26793,31.109837 17.421923,31.350338 C 21.079272,30.155885 24.012469,33.287854 26.577076,35.351541 C 25.344173,33.88708 24.372937,32.291439 23.378288,30.697968 C 24.162715,30.611175 24.916174,30.484802 25.62847,30.328292 C 25.735349,30.779317 26.059495,31.165598 26.665319,31.285101 C 28.349191,31.737419 30.006581,32.107172 31.606895,32.720315 C 30.190718,31.889736 28.328671,31.025177 27.591865,29.78465 C 29.675133,29.0618 31.205885,28.02393 31.827501,26.827239 C 32.305242,29.54198 33.816327,32.054516 36.305806,33.481414 C 36.377099,31.427231 34.127434,28.519758 36.019017,25.196314 C 33.648194,22.082688 36.226732,19.629765 37.783867,16.084879 C 35.857041,15.91368 34.482399,17.459016 33.548229,18.911816 C 32.430011,20.45605 31.839216,22.321034 31.717199,24.217759 C 30.816609,22.760759 28.555269,21.553174 25.606411,20.912417 C 25.621718,20.854254 25.640894,20.800158 25.650531,20.738452 C 26.232778,18.40736 26.677793,16.119498 27.569804,13.866821 C 26.166311,16.046128 24.774587,18.910817 22.34144,20.020845 C 22.888453,17.794508 23.341341,15.60829 24.194531,13.453653 z"
       id="path2684"
       sodipodi:nodetypes="cccsccccccccccccccccccc" />
    <path
       style="fill:url(#linearGradient2807);fill-opacity:1;stroke:#4e9a06;stroke-width:0.69586146;stroke-miterlimit:4;stroke-dasharray:none;stroke-opacity:0"
       d="M 23.436592,14.777032 C 21.662278,17.53214 20.504239,20.611869 16.651379,20.614191 C 16.590527,20.856707 16.606624,21.064305 16.67344,21.266561 C 12.26281,21.99175 9.1066495,23.899352 9.1066502,26.159337 C 18.682881,24.106939 20.859414,23.178087 35.866169,25.724423 C 33.495342,22.610798 35.872187,20.356692 37.429322,16.811806 C 35.502495,16.640607 34.127854,18.185943 33.193684,19.638742 C 32.075462,21.182977 32.089759,23.843231 31.967745,25.739956 C 31.06715,24.282956 28.402419,22.081283 25.453562,21.440527 C 25.468867,21.382364 25.488047,21.328268 25.497683,21.266561 C 26.079928,18.935469 26.524945,16.647607 27.416956,14.39493 C 26.013463,16.574237 24.621739,19.438927 22.188592,20.548954 C 22.735605,18.322617 22.583403,16.93167 23.436592,14.777032 z"
       id="path4719"
       sodipodi:nodetypes="ccccccccccccc" />
    <path
       style="opacity:0.46640009;fill:#eeeeec;fill-opacity:0;stroke:#eeeeec;stroke-width:0.69586146;stroke-miterlimit:4;stroke-dasharray:none;stroke-opacity:1"
       d="M 23.184221,15.665428 C 21.477606,18.126757 20.780099,20.674756 17.074245,20.67683 C 17.015716,20.893486 17.031197,21.078948 17.095463,21.259637 C 12.853124,21.907498 9.8173883,23.611691 9.8173883,25.630691 C 9.8173883,27.715282 13.04402,29.483351 17.498622,30.079453 C 17.481846,30.295006 17.520255,30.525111 17.668373,30.739967 C 21.114865,30.235221 21.725514,30.994738 24.192267,32.838372 C 23.006407,31.530069 23.498441,31.721303 22.541744,30.297746 C 23.29624,30.220207 24.876678,29.966724 25.561798,29.826903 C 25.664598,30.229834 25.976377,30.574925 26.559085,30.681686 C 28.178706,31.085772 27.562229,30.924051 29.101482,31.471814 C 27.739339,30.7298 27.588485,30.519771 26.879793,29.411522 C 28.883571,28.765751 31.496889,26.50299 32.094787,25.433903 C 32.554299,27.859169 33.437243,31.369058 35.831734,32.643804 C 35.900309,30.80866 33.73648,28.211214 35.55589,25.242153 C 33.275524,22.460536 35.541748,19.988 37.039468,16.821109 C 35.471403,17.441385 34.577075,18.329891 33.678549,19.627777 C 32.602998,21.007349 32.034744,23.376394 31.917383,25.070868 C 31.051154,23.769231 28.376922,21.987485 25.540578,21.415053 C 25.27006,21.433384 25.074572,21.525642 25.440395,21.259637 C 25.073388,20.934427 25.857976,17.76584 26.715951,15.753369 C 25.36601,17.700293 24.31263,19.978348 21.972321,20.970012 C 21.999288,19.543413 22.363585,17.590314 23.184221,15.665428 z"
       id="path4749"
       sodipodi:nodetypes="cccsccccccccccccccccccc" />
    <path
       sodipodi:type="arc"
       style="fill:url(#radialGradient2818);fill-opacity:1;stroke:#888a85;stroke-width:0.88280779;stroke-miterlimit:4;stroke-dasharray:none;stroke-opacity:1"
       id="path4693"
       sodipodi:cx="-22.428572"
       sodipodi:cy="-6.1428571"
       sodipodi:rx="3.8571429"
       sodipodi:ry="3.8571429"
       d="M -18.571429,-6.1428571 A 3.8571429,3.8571429 0 1 1 -26.285715,-6.1428571 A 3.8571429,3.8571429 0 1 1 -18.571429,-6.1428571 z"
       transform="matrix(0.6819358,0,0,0.6722004,27.332687,27.022333)" />
    <path
       sodipodi:type="arc"
       style="fill:url(#radialGradient2816);fill-opacity:1;stroke:#eeeeec;stroke-width:0.88280779;stroke-miterlimit:4;stroke-dasharray:none;stroke-opacity:1"
       id="path4763"
       sodipodi:cx="-22.428572"
       sodipodi:cy="-6.1428571"
       sodipodi:rx="3.8571429"
       sodipodi:ry="3.8571429"
       d="M -18.571429,-6.1428571 A 3.8571429,3.8571429 0 1 1 -26.285715,-6.1428571 A 3.8571429,3.8571429 0 1 1 -18.571429,-6.1428571 z"
       transform="matrix(0.5598279,0,0,0.5102382,24.844776,25.929073)" />
    <path
       sodipodi:type="arc"
       style="fill:#2e3436;fill-opacity:1;stroke:#2e3436;stroke-width:1.23482156;stroke-miterlimit:4;stroke-dasharray:none;stroke-opacity:1"
       id="path4699"
       sodipodi:cx="-54"
       sodipodi:cy="13.714286"
       sodipodi:rx="3.1428571"
       sodipodi:ry="1.1428572"
       d="M -50.857143,13.714286 A 3.1428571,1.1428572 0 1 1 -57.142857,13.714286 A 3.1428571,1.1428572 0 1 1 -50.857143,13.714286 z"
       transform="matrix(0.3099012,0,0,0.7560367,27.99315,12.524599)" />
    <path
       sodipodi:type="arc"
       style="fill:url(#radialGradient2814);fill-opacity:1;stroke:#888a85;stroke-width:0.88280779;stroke-miterlimit:4;stroke-dasharray:none;stroke-opacity:1"
       id="path3655"
       sodipodi:cx="-22.428572"
       sodipodi:cy="-6.1428571"
       sodipodi:rx="3.8571429"
       sodipodi:ry="3.8571429"
       d="M -18.571429,-6.1428571 A 3.8571429,3.8571429 0 1 1 -26.285715,-6.1428571 A 3.8571429,3.8571429 0 1 1 -18.571429,-6.1428571 z"
       transform="matrix(0.6819358,0,0,0.6722004,30.109139,27.328434)" />
    <path
       sodipodi:type="arc"
       style="fill:url(#radialGradient2812);fill-opacity:1;stroke:#eeeeec;stroke-width:0.88280779;stroke-miterlimit:4;stroke-dasharray:none;stroke-opacity:1"
       id="path4765"
       sodipodi:cx="-22.428572"
       sodipodi:cy="-6.1428571"
       sodipodi:rx="3.8571429"
       sodipodi:ry="3.8571429"
       d="M -18.571429,-6.1428571 A 3.8571429,3.8571429 0 1 1 -26.285715,-6.1428571 A 3.8571429,3.8571429 0 1 1 -18.571429,-6.1428571 z"
       transform="matrix(0.5598279,0,0,0.5102382,27.124074,26.161421)" />
    <path
       sodipodi:type="arc"
       style="fill:#2e3436;fill-opacity:1;stroke:#2e3436;stroke-width:1.23482156;stroke-miterlimit:4;stroke-dasharray:none;stroke-opacity:1"
       id="path4697"
       sodipodi:cx="-54"
       sodipodi:cy="13.714286"
       sodipodi:rx="3.1428571"
       sodipodi:ry="1.1428572"
       d="M -50.857143,13.714286 A 3.1428571,1.1428572 0 1 1 -57.142857,13.714286 A 3.1428571,1.1428572 0 1 1 -50.857143,13.714286 z"
       transform="matrix(0.3099012,0,0,0.7560367,31.402828,12.908713)" />
    <path
       style="fill:#3465a4;fill-opacity:1;stroke:#204a87;stroke-width:0.69586146;stroke-miterlimit:4;stroke-dasharray:none;stroke-opacity:1"
       d="M 29.33584,28.384432 C 26.968628,27.406835 24.095281,25.717772 21.643322,27.399195 C 20.259607,26.203161 23.584478,23.365987 25.020518,24.851849 C 26.438811,26.080401 27.755746,27.341062 29.33584,28.384432 z"
       id="path4683" />
    <path
       style="opacity:0.34959992;fill:#3465a4;fill-opacity:1;stroke:#eeeeec;stroke-width:0.69586146;stroke-miterlimit:4;stroke-dasharray:none;stroke-opacity:1"
       d="M 26.542069,26.903553 C 25.13683,26.339307 23.431139,25.36442 21.975592,26.334897 C 21.154183,25.644574 23.127912,24.007027 23.980382,24.86463 C 24.822317,25.573721 25.604083,26.301345 26.542069,26.903553 z"
       id="path4753" />
    <path
       sodipodi:type="arc"
       style="fill:#2e3436;fill-opacity:1;stroke:url(#linearGradient4761);stroke-width:1.20369291;stroke-miterlimit:4;stroke-dasharray:none;stroke-opacity:1"
       id="path4691"
       sodipodi:cx="-54"
       sodipodi:cy="13.714286"
       sodipodi:rx="3.1428571"
       sodipodi:ry="1.1428572"
       d="M -50.857143,13.714286 A 3.1428571,1.1428572 0 1 1 -57.142857,13.714286 A 3.1428571,1.1428572 0 1 1 -50.857143,13.714286 z"
       transform="matrix(0.370124,0,0,0.9029566,31.614597,15.389557)" />
    <path
       sodipodi:type="arc"
       style="opacity:0.3;fill:url(#radialGradient6488);fill-opacity:1;fill-rule:evenodd;stroke:none;stroke-width:1;stroke-linecap:round;stroke-linejoin:round;stroke-miterlimit:4;stroke-dasharray:none;stroke-dashoffset:0;stroke-opacity:1"
       id="path5511"
       sodipodi:cx="13.030141"
       sodipodi:cy="-7.0069871"
       sodipodi:rx="18.143234"
       sodipodi:ry="7.1748242"
       d="M 31.173375,-7.0069871 A 18.143234,7.1748242 0 1 1 -5.1130934,-7.0069871 A 18.143234,7.1748242 0 1 1 31.173375,-7.0069871 z"
       transform="matrix(1.1559277,0,0,1.4455014,8.8685416,47.654064)" />
    <path
       style="fill:url(#radialGradient3159);fill-opacity:1;fill-rule:evenodd;stroke:#888a85;stroke-width:0.99999994;stroke-linecap:butt;stroke-linejoin:miter;stroke-miterlimit:4;stroke-dasharray:none;stroke-dashoffset:0;stroke-opacity:1"
       d="M 24.089564,1.1847133 L 2.5305077,10.258297 L 2.5305077,36.224972 L 24.039659,44.536275 L 45.498904,36.224972 L 45.473953,10.258297 L 24.089564,1.1847133 z"
       id="rect2370"
       sodipodi:nodetypes="ccccccc" />
    <path
       sodipodi:type="inkscape:offset"
       inkscape:radius="-1.2953277"
       inkscape:original="M 128.53125 -62.96875 L 101.53125 -51.4375 L 101.53125 -18.4375 L 128.46875 -7.875 L 155.34375 -18.4375 L 155.3125 -51.4375 L 128.53125 -62.96875 z "
       style="fill:none;fill-opacity:1;fill-rule:evenodd;stroke:#ffffff;stroke-width:1.26124418;stroke-linecap:butt;stroke-linejoin:miter;stroke-miterlimit:4;stroke-dasharray:none;stroke-dashoffset:0;stroke-opacity:1"
       id="path8463"
       d="M 128.53125,-61.5625 L 102.8125,-50.59375 L 102.8125,-19.34375 L 128.46875,-9.28125 L 154.0625,-19.34375 L 154.03125,-50.59375 L 128.53125,-61.5625 z"
       transform="matrix(0.7984835,0,0,0.7872916,-78.540523,50.758885)" />
    <path
       id="path17284"
       d="M 5.0547997,10.289148 L 24.079112,18.000955 L 42.935266,10.400794"
       style="fill:none;fill-rule:evenodd;stroke:#ffffff;stroke-width:0.99999994;stroke-linecap:butt;stroke-linejoin:miter;stroke-miterlimit:4;stroke-dasharray:none;stroke-opacity:1"
       sodipodi:nodetypes="ccc" />
    <path
       id="path18255"
       d="M 24.497829,18.951888 L 24.48903,43.075547"
       style="fill:none;fill-rule:evenodd;stroke:#ffffff;stroke-width:0.99999994;stroke-linecap:butt;stroke-linejoin:miter;stroke-miterlimit:4;stroke-dasharray:none;stroke-opacity:1"
       sodipodi:nodetypes="cc" />
    <path
       style="fill:none;fill-rule:evenodd;stroke:#888a85;stroke-width:0.99999994;stroke-linecap:butt;stroke-linejoin:miter;stroke-miterlimit:4;stroke-dasharray:none;stroke-opacity:1"
       d="M 2.9698463,10.530143 L 24.064611,19.110571 L 45.315307,10.543089"
       id="path8465"
       sodipodi:nodetypes="ccc" />
    <path
       style="fill:none;fill-rule:evenodd;stroke:#888a85;stroke-width:0.99999994;stroke-linecap:butt;stroke-linejoin:miter;stroke-miterlimit:4;stroke-dasharray:none;stroke-opacity:1"
       d="M 23.489859,18.798125 L 23.515008,44.121184"
       id="path9436"
       sodipodi:nodetypes="cc" />
  </g>
</svg>
