<?xml version="1.0" encoding="UTF-8" standalone="no"?>
<!-- Created with Inkscape (http://www.inkscape.org/) -->

<svg
   xmlns:dc="http://purl.org/dc/elements/1.1/"
   xmlns:cc="http://creativecommons.org/ns#"
   xmlns:rdf="http://www.w3.org/1999/02/22-rdf-syntax-ns#"
   xmlns:svg="http://www.w3.org/2000/svg"
   xmlns="http://www.w3.org/2000/svg"
   xmlns:sodipodi="http://sodipodi.sourceforge.net/DTD/sodipodi-0.dtd"
   xmlns:inkscape="http://www.inkscape.org/namespaces/inkscape"
   width="48"
   height="48"
   id="svg2"
   sodipodi:version="0.32"
   inkscape:version="0.47+devel r9425"
   sodipodi:docname="plugin-snow.svg"
   version="1.0"
   inkscape:export-filename="/home/andrew/Desktop/logo_lights_mod.png"
   inkscape:export-xdpi="90"
   inkscape:export-ydpi="90"
   inkscape:output_extension="org.inkscape.output.svg.inkscape">
  <defs
     id="defs4" />
  <sodipodi:namedview
     id="base"
     pagecolor="#ffffff"
     bordercolor="#666666"
     borderopacity="1.0"
     gridtolerance="10000"
     guidetolerance="10"
     objecttolerance="10"
     inkscape:pageopacity="0.0"
     inkscape:pageshadow="2"
     inkscape:zoom="7.5572037"
     inkscape:cx="24"
     inkscape:cy="24"
     inkscape:document-units="px"
     inkscape:current-layer="layer1"
     inkscape:window-width="1278"
     inkscape:window-height="710"
     inkscape:window-x="0"
     inkscape:window-y="49"
     width="48px"
     height="48px"
     showguides="true"
     inkscape:guide-bbox="true"
     showgrid="false"
     inkscape:window-maximized="0" />
  <metadata
     id="metadata7">
    <rdf:RDF>
      <cc:Work
         rdf:about="">
        <dc:format>image/svg+xml</dc:format>
        <dc:type
           rdf:resource="http://purl.org/dc/dcmitype/StillImage" />
      </cc:Work>
    </rdf:RDF>
  </metadata>
  <g
     inkscape:label="Layer 1"
     inkscape:groupmode="layer"
     id="layer1"
     transform="translate(-9.618716,-134.6052)">
    <path
       style="fill:#eeeeec;fill-opacity:1;stroke:#3465a4;stroke-width:0.74699867;stroke-miterlimit:4;stroke-opacity:1;stroke-dasharray:none"
       d="m 32.927495,180.96722 c 0.698649,-1.51542 -0.827784,-3.36021 -1.668774,-1.1597 -1.817837,1.59603 -2.797568,-1.91568 -0.489193,-2.0733 1.519819,-0.61723 3.447469,-4.18819 1.378432,-4.38464 -1.928214,1.06749 -3.767237,4.74513 -5.842476,4.06066 0.265013,-2.67284 3.842788,-3.46467 5.293562,-5.55504 1.73988,-0.68481 2.226818,-5.6413 -0.22418,-3.54204 -0.659356,1.22421 -3.796642,3.58797 -3.885768,1.24455 1.439194,-2.16059 4.547748,-2.94752 5.394203,-5.50128 0.273037,-1.46487 0.492533,-4.96957 -1.796109,-3.22655 -2.963871,0.75534 -3.728638,3.82668 -4.188665,6.41865 0.355375,2.05839 -3.119526,3.02151 -2.349945,0.46046 0.667011,-1.18786 2.217276,-5.49189 -0.557762,-3.62925 -2.294713,1.86108 -2.414263,5.06608 -3.218237,7.6915 0.413556,1.47603 -2.317179,3.35138 -1.919171,1.0286 0.162638,-1.93461 1.898961,-4.37851 1.124999,-5.9736 -3.018192,-0.0195 -2.859501,3.92046 -4.153839,5.65624 -2.541619,0.2784 0.46083,-4.36373 -2.159355,-2.53776 -1.899633,1.31386 -1.974837,-1.85249 -0.08566,-1.81584 1.941898,-1.33118 -3.813882,-0.32386 -2.013393,-2.68905 2.209231,0.0911 4.815624,1.99461 6.966739,0.3328 1.449451,-2.07533 -2.768511,-1.53216 -4.038713,-2.20238 -1.595479,0.27429 -4.384807,-1.77297 -1.292191,-1.9066 2.818299,0.93083 5.815955,1.4969 8.729495,2.21097 1.822001,-0.3315 3.816159,-2.72792 0.637129,-2.60984 -1.253527,0.0742 -4.720231,-0.78426 -2.784644,-2.1753 3.169337,0.34627 6.431443,2.43634 9.586641,0.89651 1.726261,-0.33389 3.096822,-2.32156 0.573462,-2.75468 -2.427036,-1.74773 -5.39288,-0.62028 -7.905182,0.23587 -1.252247,1.07582 -4.395931,0.0783 -2.176139,-1.35104 1.214992,-0.63052 5.07875,-0.11667 4.322288,-1.98304 -2.53069,-2.01701 -5.686539,-0.11493 -8.408079,0.29145 -1.211718,0.41705 -3.841596,1.68632 -3.998683,-0.49123 2.430462,-0.86471 5.298659,-0.55349 7.458144,-2.08721 -2.026361,-2.29474 -5.078295,-0.49049 -7.462979,-0.23723 -2.2625331,-1.88446 4.251335,-1.70645 1.079352,-3.28258 -2.121233,-0.6043 1.003129,-2.8366 1.667234,-0.88326 1.130074,-0.53193 -0.687264,-4.44699 1.667864,-2.74361 0.738853,2.14478 1.088395,5.09933 3.692814,5.77922 1.397646,-1.59459 -1.358309,-4.49148 -0.999529,-6.70251 0.786538,-2.23534 2.453795,1.73761 2.283632,2.89596 0.595992,2.35144 0.918926,5.63174 3.69906,6.44337 2.671166,-0.54384 -2.652712,-5.10456 0.940437,-5.67195 1.952849,2.49988 0.947573,6.66616 4.111987,8.32555 1.014709,1.0404 3.873473,1.62299 3.025869,-0.71043 0.894205,-2.93047 -2.083393,-4.74963 -4.015835,-6.32104 -1.643837,-0.45422 -2.414654,-3.25183 0.03123,-2.25117 1.256975,0.54286 3.215591,4.25398 4.066557,2.27255 0.529007,-2.72089 -2.086494,-4.19701 -3.777755,-5.76512 -0.924391,-1.19925 -3.385364,-2.38625 -3.305107,-3.61525 2.179132,-0.74237 3.446927,2.35346 5.117696,3.34793 2.127674,2.35051 2.621074,-1.48276 0.957851,-2.52561 -1.139572,-0.6831 -4.529142,-3.62598 -1.325629,-3.24864 1.233533,0.30777 2.507465,2.32039 2.066868,0.10495 0.498106,-1.6941 2.213546,-0.97086 1.738643,0.63653 1.02939,1.31936 2.988527,-2.94299 3.642961,-0.15158 -1.220804,1.77364 -5.317828,3.6661 -3.238382,6.08877 2.060601,-0.91602 3.096236,-3.33212 5.256719,-4.20399 2.678951,-0.13293 -1.395,2.8547 -2.162868,3.60193 -1.533698,1.65919 -4.304529,2.93433 -3.602301,5.65286 1.454309,2.60264 3.091986,-3.77799 5.395742,-2.14207 -0.253173,2.91358 -3.989075,3.31538 -5.234297,5.63844 -0.155265,1.49044 -0.935971,5.7579 1.79175,3.93872 3.220644,-0.84251 3.851116,-3.92512 4.257212,-6.70951 -0.166541,-1.73027 2.736676,-2.52637 2.1571,-0.40627 -0.771707,1.27613 -1.972235,5.11245 0.924065,3.50203 2.506447,-1.58615 2.310717,-4.91537 3.174737,-7.42945 -0.143555,-1.22473 1.929298,-3.35338 1.960373,-1.13454 -0.331499,1.99296 -2.224367,4.56065 -1.527908,6.20032 2.774517,0.15158 3.535208,-3.0695 3.699364,-5.13266 1.360087,-1.46031 2.859847,0.60757 1.304118,1.68335 0.162204,2.20641 2.797676,-1.53403 2.844906,1.00263 -0.08067,1.17277 -2.755954,1.45522 -0.491079,1.98351 1.747382,-0.30533 2.572846,1.91193 0.389528,1.80298 -2.162044,-0.45009 -5.782105,-1.87385 -6.850853,0.76902 2.277235,1.00185 5.178068,0.58511 7.355421,1.98592 -0.546333,2.20641 -4.080521,-0.30251 -5.821897,-0.35217 -1.926414,-0.87683 -6.702875,-1.28204 -6.579552,1.34198 1.513466,0.73137 5.533313,-0.0913 4.736582,2.61236 -3.118659,-0.21425 -6.205485,-2.49587 -9.330649,-1.05201 -1.353148,0.18758 -3.563138,2.21979 -1.069854,2.66568 2.336912,2.0853 5.731774,0.92368 8.221501,-0.17738 1.975553,-0.73998 3.311179,1.75222 0.625159,1.7271 -1.302253,-0.0783 -4.589839,1.04492 -2.053641,2.19375 2.133615,1.31674 4.523092,-0.32688 6.735554,-0.5704 1.426682,0.0752 4.933374,-2.20826 4.618355,0.0776 -2.00782,1.3685 -4.840041,0.81835 -7.076855,1.8621 -1.124241,1.21627 2.744006,2.16885 3.743817,1.44698 1.098761,-0.9945 5.626363,-0.59515 3.356501,1.0738 -1.032469,-0.0436 -3.301486,0.64396 -1.147704,1.29126 2.015302,0.98198 -1.263632,2.55857 -1.789776,0.85961 -0.636652,0.9366 1.105114,4.23327 -1.310754,3.02507 -0.86647,-2.14121 -1.195779,-5.7545 -4.290867,-5.63545 -0.270803,2.57517 1.9028,4.76564 1.742699,7.27471 -2.87364,0.0544 -1.907874,-3.95952 -2.893287,-5.80132 -0.08566,-1.8555 -2.844733,-5.7965 -4.370776,-3.74906 0.228799,1.57915 2.839789,4.74584 -0.04207,5.10325 -1.80385,-2.43753 -0.802239,-6.39336 -3.722414,-8.1046 -0.917235,-1.05864 -3.791916,-1.99205 -3.056575,0.42067 -0.843354,2.87301 1.910844,4.8601 3.889151,6.39521 1.69614,0.57641 1.596346,3.62412 -0.39881,2.23217 -0.992764,-1.45019 -4.240276,-4.23902 -3.532454,-0.62715 0.841121,2.33199 3.251112,3.54277 4.816036,5.35231 0.991203,0.738 3.113064,2.86429 0.585735,2.48005 -1.973666,-1.1706 -3.1439,-4.00094 -5.542485,-4.13538 -1.20248,1.99418 1.276621,3.70871 2.662622,4.82746 2.376163,1.36943 -0.815705,2.79111 -1.575983,0.86487 -2.503779,-2.13891 0.01518,3.28804 -2.742554,1.80998 z"
       id="path30942"
       inkscape:connector-curvature="0" />
  </g>
</svg>
