<?xml version="1.0" encoding="UTF-8" standalone="no"?>
<!-- Created with Inkscape (http://www.inkscape.org/) -->

<svg
   xmlns:dc="http://purl.org/dc/elements/1.1/"
   xmlns:cc="http://creativecommons.org/ns#"
   xmlns:rdf="http://www.w3.org/1999/02/22-rdf-syntax-ns#"
   xmlns:svg="http://www.w3.org/2000/svg"
   xmlns="http://www.w3.org/2000/svg"
   xmlns:xlink="http://www.w3.org/1999/xlink"
   xmlns:sodipodi="http://sodipodi.sourceforge.net/DTD/sodipodi-0.dtd"
   xmlns:inkscape="http://www.inkscape.org/namespaces/inkscape"
   inkscape:export-ydpi="90.000000"
   inkscape:export-xdpi="90.000000"
   inkscape:export-filename="/home/jimmac/Desktop/wi-fi.png"
   width="48"
   height="48"
   id="svg11300"
   sodipodi:version="0.32"
   inkscape:version="0.47+devel r9425"
   sodipodi:docname="plugin-neg.svg"
   inkscape:output_extension="org.inkscape.output.svg.inkscape"
   sodipodi:modified="true"
   version="1.0">
  <sodipodi:namedview
     stroke="#ef2929"
     fill="#eeeeec"
     id="base"
     pagecolor="#ffffff"
     bordercolor="#666666"
     borderopacity="0.25490196"
     inkscape:pageopacity="0.0"
     inkscape:pageshadow="2"
     inkscape:zoom="7.5572037"
     inkscape:cx="24"
     inkscape:cy="24"
     inkscape:current-layer="layer1"
     showgrid="false"
     inkscape:grid-bbox="true"
     inkscape:document-units="px"
     inkscape:showpageshadow="false"
     inkscape:window-width="1278"
     inkscape:window-height="710"
     inkscape:window-x="0"
     inkscape:window-y="49"
     showguides="true"
     inkscape:guide-bbox="true"
     showborder="true"
     inkscape:window-maximized="0">
    <inkscape:grid
       type="xygrid"
       id="grid7964"
       empspacing="5"
       visible="true"
       enabled="true"
       snapvisiblegridlinesonly="true" />
  </sodipodi:namedview>
  <defs
     id="defs3">
    <linearGradient
       id="linearGradient47870">
      <stop
         offset="0"
         id="stop47872"
         style="stop-color:#000000;stop-opacity:0" />
      <stop
         offset="0.5"
         id="stop47878"
         style="stop-color:#000000;stop-opacity:1" />
      <stop
         offset="1"
         id="stop47874"
         style="stop-color:#000000;stop-opacity:0" />
    </linearGradient>
    <linearGradient
       id="linearGradient51765">
      <stop
         offset="0"
         id="stop51767"
         style="stop-color:#000000;stop-opacity:1" />
      <stop
         offset="1"
         id="stop51769"
         style="stop-color:#000000;stop-opacity:0" />
    </linearGradient>
    <linearGradient
       inkscape:collect="always"
       id="linearGradient2282"
       x1="32.084972"
       y1="-14.402173"
       gradientTransform="matrix(0.9788196,0,0,0.7154223,-8.5008021,52.112719)"
       x2="32.084972"
       gradientUnits="userSpaceOnUse"
       xlink:href="#linearGradient47870"
       y2="-5.5633383" />
    <radialGradient
       inkscape:collect="always"
       id="radialGradient2284"
       r="2.171875"
       gradientTransform="matrix(1.9576392,-8.146468e-7,6.6614241e-7,1.4565793,-59.017557,62.738067)"
       cx="51.4375"
       cy="-12.203125"
       gradientUnits="userSpaceOnUse"
       xlink:href="#linearGradient51765"
       fy="-12.203125"
       fx="51.4375" />
    <radialGradient
       inkscape:collect="always"
       id="radialGradient2286"
       r="2.171875"
       gradientTransform="matrix(-1.9576392,-9.2540676e-8,-1.2888861e-7,1.4565793,110.01781,62.73803)"
       cx="51.4375"
       cy="-12.203125"
       gradientUnits="userSpaceOnUse"
       xlink:href="#linearGradient51765"
       fy="-12.203125"
       fx="51.4375" />
    <linearGradient
       inkscape:collect="always"
       id="linearGradient2295-674"
       y2="19.53867"
       y1="40.000107"
       gradientTransform="matrix(1.3494077,0,0,1.2611019,-9.8047004,-20.868419)"
       x2="24.925514"
       gradientUnits="userSpaceOnUse"
       xlink:href="#linearGradient2781-174"
       x1="24.925514" />
    <linearGradient
       id="linearGradient2781-174">
      <stop
         offset="0"
         id="stop2226"
         style="stop-color:#2c2830;stop-opacity:1" />
      <stop
         offset="1"
         id="stop2228"
         style="stop-color:#111113;stop-opacity:1" />
    </linearGradient>
    <linearGradient
       inkscape:collect="always"
       id="linearGradient2289-391"
       y2="13.408723"
       y1="16.26436"
       gradientTransform="matrix(1.3411411,0,0,1.3744426,-9.6112659,-25.556029)"
       x2="9.5"
       gradientUnits="userSpaceOnUse"
       xlink:href="#linearGradient3690-995"
       x1="9.5" />
    <linearGradient
       id="linearGradient3690-995">
      <stop
         offset="0"
         id="stop2232"
         style="stop-color:#000000;stop-opacity:1;" />
      <stop
         offset="1"
         id="stop2234"
         style="stop-color:#000000;stop-opacity:0.46875" />
    </linearGradient>
    <linearGradient
       inkscape:collect="always"
       id="linearGradient2292-797"
       y2="12.403291"
       y1="6.7993021"
       gradientTransform="matrix(1.3494077,0,0,1.5227792,-9.8047004,-26.969542)"
       x2="23.069359"
       gradientUnits="userSpaceOnUse"
       xlink:href="#linearGradient3674-759"
       x1="23.069359" />
    <linearGradient
       id="linearGradient3674-759">
      <stop
         offset="0"
         id="stop2238"
         style="stop-color:#cb9a5b;stop-opacity:1" />
      <stop
         offset="1"
         id="stop2240"
         style="stop-color:#8d6030;stop-opacity:1;" />
    </linearGradient>
    <linearGradient
       id="linearGradient8440-840">
      <stop
         style="stop-color:#121113;stop-opacity:1;"
         id="stop2565"
         offset="0" />
      <stop
         style="stop-color:#454249;stop-opacity:1;"
         id="stop2567"
         offset="1" />
    </linearGradient>
    <radialGradient
       fx="56.704376"
       fy="10.241054"
       xlink:href="#linearGradient8440-840"
       gradientUnits="userSpaceOnUse"
       cy="10.241054"
       cx="56.704376"
       gradientTransform="matrix(0.2395866,0.4251895,-0.5706382,0.3059781,19.109791,-0.3381743)"
       r="14.75"
       id="radialGradient6267-138"
       inkscape:collect="always" />
    <linearGradient
       id="linearGradient8440-732">
      <stop
         style="stop-color:#121113;stop-opacity:1;"
         id="stop2559"
         offset="0" />
      <stop
         style="stop-color:#454249;stop-opacity:1;"
         id="stop2561"
         offset="1" />
    </linearGradient>
    <radialGradient
       fx="56.704376"
       fy="10.241054"
       xlink:href="#linearGradient8440-732"
       gradientUnits="userSpaceOnUse"
       cy="10.241054"
       cx="56.704376"
       gradientTransform="matrix(0.5127519,0.3745031,-0.5029349,0.6514359,-11.643961,-16.193599)"
       r="14.75"
       id="radialGradient6265-525"
       inkscape:collect="always" />
    <linearGradient
       id="linearGradient5263-949">
      <stop
         style="stop-color:#725024;stop-opacity:1;"
         id="stop2553"
         offset="0" />
      <stop
         style="stop-color:#cb9a5b;stop-opacity:1;"
         id="stop2555"
         offset="1" />
    </linearGradient>
    <radialGradient
       fx="4.6250029"
       fy="5.3032074"
       xlink:href="#linearGradient5263-949"
       gradientUnits="userSpaceOnUse"
       cy="5.3032074"
       cx="4.6250029"
       gradientTransform="matrix(0.7861443,2.1847633,-1.8845007,0.7095773,10.728935,-8.0480585)"
       r="20.500004"
       id="radialGradient6263-472"
       inkscape:collect="always" />
    <linearGradient
       id="linearGradient51765-459">
      <stop
         style="stop-color:#ffffff;stop-opacity:1"
         id="stop2547"
         offset="0" />
      <stop
         style="stop-color:#ffffff;stop-opacity:0"
         id="stop2549"
         offset="1" />
    </linearGradient>
    <radialGradient
       fx="51.4375"
       fy="-12.203125"
       xlink:href="#linearGradient51765-459"
       gradientUnits="userSpaceOnUse"
       cy="-12.203125"
       cx="51.4375"
       gradientTransform="matrix(-1.965588,-1.2731588e-7,-1.2941195e-7,2.0039369,109.01887,67.647913)"
       r="2.171875"
       id="radialGradient6446-627"
       inkscape:collect="always" />
    <linearGradient
       id="linearGradient51765-259">
      <stop
         style="stop-color:#ffffff;stop-opacity:1"
         id="stop2541"
         offset="0" />
      <stop
         style="stop-color:#ffffff;stop-opacity:0"
         id="stop2543"
         offset="1" />
    </linearGradient>
    <radialGradient
       fx="51.4375"
       fy="-12.203125"
       xlink:href="#linearGradient51765-259"
       gradientUnits="userSpaceOnUse"
       cy="-12.203125"
       cx="51.4375"
       gradientTransform="matrix(1.965588,-1.1207771e-6,6.6884721e-7,2.0039369,-60.70285,67.647964)"
       r="2.171875"
       id="radialGradient6449-696"
       inkscape:collect="always" />
    <linearGradient
       id="linearGradient47870-723">
      <stop
         style="stop-color:#ffffff;stop-opacity:0"
         id="stop2533"
         offset="0" />
      <stop
         style="stop-color:#ffffff;stop-opacity:1"
         id="stop2535"
         offset="0.5" />
      <stop
         style="stop-color:#ffffff;stop-opacity:0"
         id="stop2537"
         offset="1" />
    </linearGradient>
    <linearGradient
       x1="32.084972"
       xlink:href="#linearGradient47870-723"
       gradientUnits="userSpaceOnUse"
       x2="32.084972"
       gradientTransform="matrix(0.982794,0,0,0.9842658,-9.9809772,53.029792)"
       y1="-14.402173"
       y2="-5.5633383"
       id="linearGradient6452-213"
       inkscape:collect="always" />
  </defs>
  <metadata
     id="metadata4">
    <rdf:RDF>
      <cc:Work
         rdf:about="">
        <dc:format>image/svg+xml</dc:format>
        <dc:type
           rdf:resource="http://purl.org/dc/dcmitype/StillImage" />
        <dc:creator>
          <cc:Agent>
            <dc:title>Patrick Niklaus</dc:title>
          </cc:Agent>
        </dc:creator>
        <dc:source />
        <cc:license
           rdf:resource="http://creativecommons.org/licenses/GPL/2.0/" />
        <dc:title>State</dc:title>
        <dc:subject>
          <rdf:Bag />
        </dc:subject>
      </cc:Work>
      <cc:License
         rdf:about="http://creativecommons.org/licenses/GPL/2.0/">
        <cc:permits
           rdf:resource="http://web.resource.org/cc/Reproduction" />
        <cc:permits
           rdf:resource="http://web.resource.org/cc/Distribution" />
        <cc:requires
           rdf:resource="http://web.resource.org/cc/Notice" />
        <cc:permits
           rdf:resource="http://web.resource.org/cc/DerivativeWorks" />
        <cc:requires
           rdf:resource="http://web.resource.org/cc/ShareAlike" />
        <cc:requires
           rdf:resource="http://web.resource.org/cc/SourceCode" />
      </cc:License>
    </rdf:RDF>
  </metadata>
  <g
     inkscape:groupmode="layer"
     id="layer1"
     inkscape:label="Layer 1"
     transform="translate(0,16)">
    <g
       id="g54724"
       transform="matrix(1.2025651,0,0,1.2123501,-6.7350551,-25.569623)">
      <rect
         id="rect46899"
         x="9.3215466"
         y="41.809082"
         width="32.357079"
         height="6.3234997"
         style="opacity:0.3;fill:url(#linearGradient2282);fill-opacity:1;fill-rule:evenodd;stroke:none" />
      <path
         id="path48849"
         d="m 41.6785,41.799698 0,6.327016 c 2.343798,-0.02389 4.251748,-1.421401 4.251748,-3.152329 0,-1.730927 -1.907949,-3.150801 -4.251748,-3.174687 z"
         style="opacity:0.3;fill:url(#radialGradient2284);fill-opacity:1;fill-rule:evenodd;stroke:none"
         inkscape:connector-curvature="0" />
      <path
         id="path52742"
         d="m 9.3217476,41.799698 0,6.327016 C 6.9779494,48.102828 5.07,46.705313 5.07,44.974385 c 0,-1.730927 1.9079484,-3.150801 4.2517476,-3.174687 z"
         style="opacity:0.3;fill:url(#radialGradient2286);fill-opacity:1;fill-rule:evenodd;stroke:none"
         inkscape:connector-curvature="0" />
    </g>
    <rect
       id="rect1915"
       x="1.6652508"
       y="-9.5185328"
       width="44.530499"
       height="38.463589"
       ry="2.143316"
       rx="2.1683662"
       style="fill:url(#linearGradient2295-674);fill-opacity:1;stroke:#77757a;stroke-width:1.53553486;stroke-miterlimit:4;stroke-opacity:1;stroke-dasharray:none" />
    <path
       id="path1917"
       d="m 1.6652477,-5.604431 0,-5.375925 c 0,-1.687234 1.2036659,-3.04554 2.6988237,-3.04554 l 39.1328206,0 c 1.495123,0 2.698807,1.358306 2.698807,3.04554 l 0,5.375925"
       style="fill:url(#linearGradient2292-797);fill-opacity:1;stroke:#dfb578;stroke-width:1.5355351;stroke-miterlimit:4;stroke-opacity:1"
       sodipodi:nodetypes="cccccc"
       inkscape:connector-curvature="0" />
    <rect
       id="rect1919"
       x="3.1295927"
       y="-12.498816"
       width="41.575371"
       height="39.858849"
       ry="1.7222664"
       rx="1.6076297"
       style="opacity:0.8;fill:none;stroke:url(#linearGradient2289-391);stroke-width:1.53553581;stroke-miterlimit:4;stroke-opacity:1;stroke-dasharray:none" />
    <g
       transform="matrix(0.56884092,0,0,0.56822134,10.304393,-2.7162594)"
       id="g2446"
       inkscape:label="Layer 1">
      <g
         id="g7423">
        <rect
           id="rect2449"
           x="7.9137373"
           y="38.854225"
           width="32.488461"
           height="8.6997623"
           style="opacity:0.4;fill:url(#linearGradient6452-213);fill-opacity:1;fill-rule:evenodd;stroke:none" />
        <path
           d="m 40.402073,38.841314 0,8.7046 c 2.353315,-0.03286 4.269012,-1.955539 4.269012,-4.33692 0,-2.38138 -1.915696,-4.334818 -4.269012,-4.36768 z"
           id="path2451"
           style="opacity:0.4;fill:url(#radialGradient6449-696);fill-opacity:1;fill-rule:evenodd;stroke:none"
           inkscape:connector-curvature="0" />
        <path
           d="m 7.9139392,38.841314 0,8.7046 c -2.3533149,-0.03286 -4.2690114,-1.955539 -4.2690114,-4.33692 0,-2.38138 1.9156955,-4.334818 4.2690114,-4.36768 z"
           id="path2453"
           style="opacity:0.4;fill:url(#radialGradient6446-627);fill-opacity:1;fill-rule:evenodd;stroke:none"
           inkscape:connector-curvature="0" />
      </g>
      <g
         id="g6254"
         transform="translate(1.5909903,1.5909903)">
        <rect
           id="rect2338"
           x="2.2124531"
           y="2.7747688"
           width="40.306679"
           height="40.587929"
           ry="6.1788239"
           rx="6.0402246"
           style="fill:url(#radialGradient6263-472);fill-opacity:1;fill-rule:evenodd;stroke:#dead60;stroke-width:2.70088077;stroke-linecap:round;stroke-linejoin:round;stroke-miterlimit:4;stroke-opacity:1;stroke-dasharray:none;stroke-dashoffset:0" />
        <g
           transform="matrix(0.7815752,0,0,0.8466106,5.0492534,3.9393891)"
           id="g6244">
          <path
             d="M 13.529155,4.9182174 C 13.284693,4.973823 13.14543,5.2028973 13.200694,5.4327315 l 0.813857,3.385047 C 13.492992,9.0948261 13.019123,9.44616 12.579077,9.8169231 L 9.714708,8.1918116 C 9.5052507,8.0726153 9.2421281,8.1432376 9.115342,8.3540104 L 7.2840536,11.35762 c -0.1267861,0.210773 -0.036796,0.488301 0.1726614,0.607497 l 2.646551,1.49356 c -0.212708,0.651306 -0.3537539,1.331328 -0.3899168,2.028995 l -3.354158,0.762917 c -0.2362938,0.05375 -0.3856315,0.276733 -0.3284689,0.514515 l 0.8256617,3.434104 c 0.05717,0.237782 0.2926843,0.37323 0.5289858,0.319483 l 3.3289352,-0.757182 c 0.319976,0.562588 0.724407,1.056923 1.163511,1.520437 l -1.811972,2.973343 c -0.1287931,0.209614 -0.066759,0.467614 0.141548,0.588704 l 3.062863,1.786929 c 0.208307,0.12109 0.470565,0.04741 0.599366,-0.162199 l 1.804437,-2.894021 c 0.660466,0.18598 1.346379,0.315005 2.049053,0.335929 l 0.790271,3.286929 c 0.05525,0.229835 0.284516,0.375089 0.528985,0.319483 l 3.530688,-0.803072 c 0.244469,-0.05561 0.383732,-0.284679 0.328469,-0.514514 l -0.802068,-3.335988 c 0.541099,-0.302302 1.019593,-0.680744 1.468224,-1.084206 l 2.856841,1.704436 c 0.206732,0.123616 0.498992,0.06462 0.63048,-0.143405 l 1.887625,-2.990553 c 0.131488,-0.20803 0.06519,-0.465088 -0.14154,-0.588704 l -2.86274,-1.728965 c 0.15976,-0.56329 0.267291,-1.153506 0.297571,-1.749283 l 3.30372,-0.751446 c 0.236301,-0.05375 0.385639,-0.276732 0.328469,-0.514513 l -0.825662,-3.434105 c -0.05716,-0.237783 -0.292684,-0.373231 -0.528978,-0.319484 l -3.278505,0.74571 C 24.896,11.408292 24.488805,10.861396 24.016751,10.371604 L 25.982669,7.5960788 C 26.125274,7.395098 26.091297,7.129971 25.891567,6.995902 L 22.938729,5.0028517 C 22.739007,4.8687829 22.476077,4.93954 22.333472,5.1405213 L 20.284365,8.012579 c -0.02468,0.034785 -0.0385,0.077481 -0.05207,0.1153261 C 19.643282,7.9638037 19.026236,7.8511383 18.40269,7.8196751 L 17.588836,4.4346281 C 17.533572,4.2047938 17.30432,4.0595399 17.05985,4.1151463 l -3.530695,0.8030711 z m 3.720079,7.9499066 c 1.971045,-0.448322 3.615412,0.655601 4.0039,2.271397 0.38848,1.615796 -0.582057,3.314492 -2.553102,3.762815 -1.971044,0.448323 -3.615412,-0.6556 -4.003892,-2.271397 -0.388488,-1.615792 0.582049,-3.314492 2.553094,-3.762815 z"
             id="path2212"
             style="fill:url(#radialGradient6265-525);fill-opacity:1;fill-rule:evenodd;stroke:#aaa8ac;stroke-width:1.63482296;stroke-linecap:butt;stroke-linejoin:miter;stroke-miterlimit:4;stroke-opacity:1;stroke-dasharray:none;stroke-dashoffset:0"
             inkscape:connector-curvature="0" />
          <path
             id="path3195"
             inkscape:radius="-0.39745662"
             transform="matrix(0.807015,-0.1835593,0.188722,0.7849383,-35.400318,14.137586)"
             inkscape:original="M 60.375 3.125 L 60.375 7.15625 C 60.371912 7.5194123 60.130326 7.8372886 59.78125 7.9375 C 59.169905 8.1067881 58.559537 8.3768222 57.96875 8.6875 C 57.661279 8.8483892 57.285825 8.7983287 57.03125 8.5625 L 54.34375 6 L 51.71875 8.75 L 54.21875 11.09375 C 54.494859 11.351352 54.559366 11.764199 54.375 12.09375 C 53.971871 12.770414 53.623576 13.494497 53.40625 14.25 C 53.306039 14.599076 52.988162 14.840662 52.625 14.84375 L 48.75 14.84375 L 48.75 18.65625 L 52.59375 18.65625 C 52.956912 18.659338 53.274789 18.900924 53.375 19.25 C 53.567737 19.931631 53.884546 20.572703 54.25 21.21875 C 54.426168 21.533968 54.375412 21.927325 54.125 22.1875 L 51.34375 25.09375 L 54 27.6875 L 56.75 24.875 C 57.007602 24.598891 57.420449 24.534384 57.75 24.71875 C 58.429534 25.100218 59.139208 25.429005 59.875 25.625 C 60.224076 25.725211 60.465662 26.043088 60.46875 26.40625 L 60.46875 30.3125 L 64.28125 30.3125 L 64.28125 26.34375 C 64.280089 25.989098 64.507041 25.673886 64.84375 25.5625 C 65.481753 25.370962 66.108157 25.06554 66.71875 24.71875 C 67.033968 24.542582 67.427325 24.593338 67.6875 24.84375 L 70.375 27.5 L 73.0625 24.84375 L 70.375 22.15625 C 70.109267 21.890864 70.057769 21.478881 70.25 21.15625 C 70.571694 20.565843 70.8464 19.957479 71.03125 19.3125 C 71.131461 18.963424 71.449338 18.721838 71.8125 18.71875 L 75.625 18.71875 L 75.625 14.90625 L 71.84375 14.90625 C 71.480588 14.903162 71.162711 14.661576 71.0625 14.3125 C 70.851959 13.5584 70.53788 12.848827 70.15625 12.1875 C 69.971884 11.857949 70.036391 11.445102 70.3125 11.1875 L 73.21875 8.53125 L 70.71875 5.78125 L 67.71875 8.5 C 67.479528 8.8411617 67.022497 8.9486984 66.65625 8.75 C 66.056217 8.415393 65.434546 8.1264586 64.78125 7.9375 C 64.432174 7.8372886 64.190588 7.5194123 64.1875 7.15625 L 64.1875 3.125 L 60.375 3.125 z M 62.21875 12.125 C 65.060709 12.125 67.09375 14.292516 67.09375 16.78125 C 67.093749 19.269985 65.06071 21.437499 62.21875 21.4375 C 59.376789 21.437501 57.34375 19.269985 57.34375 16.78125 C 57.343748 14.292517 59.376789 12.125 62.21875 12.125 z "
             d="m 60.78125,3.53125 0,3.625 c -0.0046,0.5374377 -0.358408,1.0079489 -0.875,1.15625 a 0.39749636,0.39749636 0 0 1 -0.03125,0 C 59.302845,8.470936 58.731196,8.7289025 58.15625,9.03125 57.701006,9.269464 57.126926,9.1929203 56.75,8.84375 L 54.34375,6.5625 52.28125,8.75 54.5,10.8125 c 0.40841,0.381035 0.491457,0.98129 0.21875,1.46875 a 0.39749636,0.39749636 0 0 1 0,0.03125 c -0.390839,0.656035 -0.732711,1.350581 -0.9375,2.0625 -0.148301,0.516592 -0.618813,0.87043 -1.15625,0.875 l -3.46875,0 0,3 3.4375,0 c 0.537437,0.0046 1.007949,0.358408 1.15625,0.875 a 0.39749636,0.39749636 0 0 1 0,0.03125 c 0.179462,0.634684 0.485307,1.241348 0.84375,1.875 0.260725,0.466516 0.183105,1.052446 -0.1875,1.4375 l -2.5,2.625 L 54,27.125 56.46875,24.59375 c 0.381035,-0.40841 0.98129,-0.491457 1.46875,-0.21875 0.661539,0.371366 1.340866,0.691101 2.03125,0.875 A 0.39749636,0.39749636 0 0 1 60,25.25 c 0.516592,0.148301 0.87043,0.618813 0.875,1.15625 l 0,3.5 3,0 0,-3.5625 c -0.0017,-0.524983 0.345328,-0.991368 0.84375,-1.15625 0.595178,-0.178681 1.216272,-0.473869 1.8125,-0.8125 0.466516,-0.260725 1.052446,-0.183105 1.4375,0.1875 L 70.375,26.9375 72.5,24.84375 70.09375,22.4375 c -0.385532,-0.385028 -0.452784,-0.99561 -0.1875,-1.46875 0.0047,-0.0085 -0.0046,-0.0227 0,-0.03125 0.306142,-0.564865 0.578244,-1.150709 0.75,-1.75 0.148301,-0.516592 0.618813,-0.87043 1.15625,-0.875 l 3.40625,0 0,-3 -3.375,0 c -0.537437,-0.0046 -1.007949,-0.358408 -1.15625,-0.875 a 0.39749636,0.39749636 0 0 1 0,-0.03125 C 70.487124,13.68856 70.179799,13.011493 69.8125,12.375 69.539793,11.88754 69.62284,11.287285 70.03125,10.90625 L 72.65625,8.5 70.6875,6.34375 68,8.78125 67.96875,8.75 c -0.363672,0.4577617 -0.980459,0.6256143 -1.5,0.34375 C 65.885703,8.7686155 65.270312,8.4901105 64.65625,8.3125 64.139658,8.1641989 63.78582,7.6936877 63.78125,7.15625 l 0,-3.625 -3,0 z m 1.4375,8.1875 c 3.044048,0 5.28125,2.357312 5.28125,5.0625 -10e-7,2.705189 -2.237201,5.062499 -5.28125,5.0625 -3.04405,1e-6 -5.28125,-2.357311 -5.28125,-5.0625 -2e-6,-2.705188 2.2372,-5.0625 5.28125,-5.0625 z"
             sodipodi:type="inkscape:offset"
             style="fill:none;stroke:#222222;stroke-width:2.0000937;stroke-linecap:butt;stroke-linejoin:miter;stroke-miterlimit:4;stroke-opacity:1;stroke-dasharray:none;stroke-dashoffset:0" />
          <path
             d="m 29.974023,22.470736 c -0.19137,-0.03653 -0.365422,0.08275 -0.402022,0.263044 l -0.539105,2.655399 c -0.460478,0.03448 -0.911671,0.136512 -1.345321,0.262846 l -1.492238,-2.043816 c -0.109002,-0.14971 -0.318529,-0.181387 -0.477719,-0.07121 l -2.285893,1.562379 c -0.15919,0.110172 -0.186921,0.335112 -0.07792,0.484821 l 1.381388,1.882738 c -0.365148,0.396111 -0.689029,0.834879 -0.944478,1.318776 l -2.6257,-0.501279 c -0.184976,-0.03531 -0.364153,0.07652 -0.402027,0.263041 l -0.546912,2.693886 c -0.03787,0.186528 0.08422,0.355872 0.269205,0.391188 l 2.605956,0.497508 c 0.04116,0.498745 0.164587,0.975306 0.322714,1.440771 l -2.262248,1.546904 c -0.160229,0.108726 -0.201316,0.311115 -0.09375,0.461811 l 1.579437,2.220366 c 0.107563,0.150695 0.317484,0.179937 0.477718,0.07121 l 2.230781,-1.49295 c 0.406261,0.337313 0.849299,0.642117 1.339817,0.875412 l -0.523477,2.578432 c -0.0366,0.180292 0.07783,0.354651 0.269206,0.391187 l 2.763891,0.52766 c 0.191375,0.03654 0.365426,-0.08275 0.402027,-0.263041 l 0.531288,-2.616917 c 0.48263,-0.04633 0.946027,-0.166162 1.396528,-0.313032 l 1.460775,2.097772 c 0.105617,0.151999 0.331938,0.200989 0.493552,0.09422 l 2.321472,-1.535599 c 0.161614,-0.106763 0.199373,-0.309809 0.09376,-0.461808 L 34.437859,35.63544 c 0.29867,-0.350105 0.56924,-0.735556 0.786956,-1.14897 l 2.586216,0.49374 c 0.184981,0.03532 0.364159,-0.07651 0.402027,-0.26304 l 0.546912,-2.693886 c 0.03787,-0.186526 -0.08422,-0.355873 -0.2692,-0.391186 L 35.924289,31.14213 c -0.04205,-0.531667 -0.150123,-1.04639 -0.322918,-1.540749 l 2.306052,-1.358653 c 0.167162,-0.0983 0.230457,-0.29703 0.133242,-0.45427 L 36.60702,25.45601 c -0.09721,-0.157238 -0.306644,-0.188759 -0.473807,-0.09045 l -2.396743,1.401301 c -0.02893,0.01701 -0.05278,0.04302 -0.07485,0.06566 -0.362888,-0.299574 -0.762567,-0.571358 -1.193599,-0.787533 l 0.539105,-2.655399 c 0.0366,-0.180295 -0.07783,-0.354652 -0.269205,-0.391187 l -2.763896,-0.527663 z m 0.01424,6.798585 c 1.542972,0.294573 2.343299,1.589228 2.08597,2.856742 -0.257333,1.26751 -1.504004,2.171369 -3.046977,1.876797 -1.542972,-0.294572 -2.343299,-1.589228 -2.085965,-2.856739 0.257327,-1.26751 1.503999,-2.171372 3.046972,-1.8768 z"
             id="path2320"
             style="fill:url(#radialGradient6267-138);fill-opacity:1;fill-rule:evenodd;stroke:#aaa8ac;stroke-width:1.63482296;stroke-linecap:butt;stroke-linejoin:miter;stroke-miterlimit:4;stroke-opacity:1;stroke-dasharray:none;stroke-dashoffset:0"
             inkscape:connector-curvature="0" />
          <path
             id="path2322"
             inkscape:radius="-0.79479486"
             transform="matrix(0.631747,0.1206081,-0.1250089,0.6157451,-7.6997053,13.802796)"
             inkscape:original="M 60.375 3.125 L 60.375 7.15625 C 60.371912 7.5194123 60.130326 7.8372886 59.78125 7.9375 C 59.169905 8.1067881 58.559537 8.3768222 57.96875 8.6875 C 57.661279 8.8483892 57.285825 8.7983287 57.03125 8.5625 L 54.34375 6 L 51.71875 8.75 L 54.21875 11.09375 C 54.494859 11.351352 54.559366 11.764199 54.375 12.09375 C 53.971871 12.770414 53.623576 13.494497 53.40625 14.25 C 53.306039 14.599076 52.988162 14.840662 52.625 14.84375 L 48.75 14.84375 L 48.75 18.65625 L 52.59375 18.65625 C 52.956912 18.659338 53.274789 18.900924 53.375 19.25 C 53.567737 19.931631 53.884546 20.572703 54.25 21.21875 C 54.426168 21.533968 54.375412 21.927325 54.125 22.1875 L 51.34375 25.09375 L 54 27.6875 L 56.75 24.875 C 57.007602 24.598891 57.420449 24.534384 57.75 24.71875 C 58.429534 25.100218 59.139208 25.429005 59.875 25.625 C 60.224076 25.725211 60.465662 26.043088 60.46875 26.40625 L 60.46875 30.3125 L 64.28125 30.3125 L 64.28125 26.34375 C 64.280089 25.989098 64.507041 25.673886 64.84375 25.5625 C 65.481753 25.370962 66.108157 25.06554 66.71875 24.71875 C 67.033968 24.542582 67.427325 24.593338 67.6875 24.84375 L 70.375 27.5 L 73.0625 24.84375 L 70.375 22.15625 C 70.109267 21.890864 70.057769 21.478881 70.25 21.15625 C 70.571694 20.565843 70.8464 19.957479 71.03125 19.3125 C 71.131461 18.963424 71.449338 18.721838 71.8125 18.71875 L 75.625 18.71875 L 75.625 14.90625 L 71.84375 14.90625 C 71.480588 14.903162 71.162711 14.661576 71.0625 14.3125 C 70.851959 13.5584 70.53788 12.848827 70.15625 12.1875 C 69.971884 11.857949 70.036391 11.445102 70.3125 11.1875 L 73.21875 8.53125 L 70.71875 5.78125 L 67.71875 8.5 C 67.479528 8.8411617 67.022497 8.9486984 66.65625 8.75 C 66.056217 8.415393 65.434546 8.1264586 64.78125 7.9375 C 64.432174 7.8372886 64.190588 7.5194123 64.1875 7.15625 L 64.1875 3.125 L 60.375 3.125 z M 62.21875 12.125 C 65.060709 12.125 67.09375 14.292516 67.09375 16.78125 C 67.093749 19.269985 65.06071 21.437499 62.21875 21.4375 C 59.376789 21.437501 57.34375 19.269985 57.34375 16.78125 C 57.343748 14.292517 59.376789 12.125 62.21875 12.125 z "
             d="m 61.15625,3.90625 0,3.25 C 61.150199,7.8679111 60.684057,8.4911235 60,8.6875 a 0.79487434,0.79487434 0 0 1 0,0.03125 C 59.467023,8.8663371 58.90286,9.1122303 58.34375,9.40625 57.740776,9.7217657 56.999241,9.6187281 56.5,9.15625 A 0.79487434,0.79487434 0 0 1 56.46875,9.125 L 54.375,7.125 52.84375,8.71875 54.75,10.5 c 0.540672,0.504432 0.673522,1.323429 0.3125,1.96875 a 0.79487434,0.79487434 0 0 1 0,0.03125 c -0.378553,0.635413 -0.713995,1.300401 -0.90625,1.96875 -0.196376,0.684059 -0.819589,1.150199 -1.53125,1.15625 l -3.09375,0 0,2.25 3.0625,0 c 0.711661,0.0061 1.334874,0.472191 1.53125,1.15625 0.166191,0.58775 0.461067,1.159989 0.8125,1.78125 a 0.79487434,0.79487434 0 0 1 0,0.03125 c 0.345257,0.61777 0.240762,1.396354 -0.25,1.90625 l -2.21875,2.3125 1.53125,1.5 2.15625,-2.21875 0.03125,-0.03125 c 0.506491,-0.513792 1.305018,-0.635089 1.9375,-0.28125 0.64355,0.361268 1.323761,0.640693 1.96875,0.8125 a 0.79487434,0.79487434 0 0 1 0,0.03125 c 0.684059,0.196376 1.150199,0.819589 1.15625,1.53125 l 0,3.125 2.25,0 0,-3.1875 c -0.0023,-0.695263 0.433662,-1.312888 1.09375,-1.53125 a 0.79487434,0.79487434 0 0 1 0.03125,0 c 0.552365,-0.165828 1.105632,-0.450775 1.6875,-0.78125 a 0.79487434,0.79487434 0 0 1 0.03125,0 c 0.61777,-0.345257 1.396354,-0.240762 1.90625,0.25 l 2.125,2.09375 1.5625,-1.53125 -2.125,-2.125 c -0.512866,-0.512196 -0.607341,-1.309611 -0.25,-1.9375 0.0047,-0.0087 -0.0047,-0.02254 0,-0.03125 0.296459,-0.547165 0.557457,-1.093467 0.71875,-1.65625 0.196376,-0.684059 0.819589,-1.150199 1.53125,-1.15625 l 3.03125,0 0,-2.25 -3,0 c -0.711661,-0.0061 -1.334874,-0.472191 -1.53125,-1.15625 -0.190213,-0.681292 -0.490777,-1.325834 -0.84375,-1.9375 a 0.79487434,0.79487434 0 0 1 0,-0.03125 c -0.361022,-0.645321 -0.228172,-1.464318 0.3125,-1.96875 l 2.3125,-2.125 -1.4375,-1.5625 L 68.375,8.96875 68.25,9.09375 68.21875,9.0625 C 67.727654,9.6096533 66.940239,9.7950184 66.28125,9.4375 65.715185,9.1218351 65.137339,8.8537658 64.5625,8.6875 63.878443,8.4911235 63.412301,7.8679111 63.40625,7.15625 l 0,-3.25 -2.25,0 z m 1.0625,7.4375 c 3.246077,0 5.65625,2.515922 5.65625,5.4375 -10e-7,2.921578 -2.410173,5.437499 -5.65625,5.4375 -3.246079,1e-6 -5.65625,-2.515922 -5.65625,-5.4375 -2e-6,-2.921578 2.410171,-5.4375 5.65625,-5.4375 z"
             sodipodi:type="inkscape:offset"
             style="fill:none;stroke:#222222;stroke-width:2.57182384;stroke-linecap:butt;stroke-linejoin:miter;stroke-miterlimit:4;stroke-opacity:1;stroke-dasharray:none;stroke-dashoffset:0" />
        </g>
        <path
           id="path6242"
           inkscape:radius="-2.3199265"
           inkscape:original="M 8.46875 2.59375 C 5.14475 2.59375 2.46875 5.2697502 2.46875 8.59375 L 2.46875 36.03125 C 2.46875 39.35525 5.14475 42.031248 8.46875 42.03125 L 36.53125 42.03125 C 39.85525 42.03125 42.531251 39.355248 42.53125 36.03125 L 42.53125 8.59375 C 42.53125 5.26975 39.855251 2.59375 36.53125 2.59375 L 8.46875 2.59375 z "
           d="m 8.46875,4.90625 c -2.0788889,0 -3.6875,1.6086112 -3.6875,3.6875 l 0,27.4375 c 0,2.078889 1.6086093,3.687499 3.6875,3.6875 l 28.0625,0 c 2.078888,0 3.687501,-1.608615 3.6875,-3.6875 l 0,-27.4375 c 0,-2.0788895 -1.60861,-3.6875 -3.6875,-3.6875 l -28.0625,0 z"
           sodipodi:type="inkscape:offset"
           style="fill:none;stroke:#38260b;stroke-width:2.70128345;stroke-linecap:round;stroke-linejoin:round;stroke-miterlimit:4;stroke-opacity:1;stroke-dasharray:none;stroke-dashoffset:0"
           transform="matrix(0.9903338,0,0,1.0094595,0.1356898,0.5498521)" />
      </g>
    </g>
  </g>
</svg>
