<?xml version="1.0" encoding="UTF-8" standalone="no"?>
<!-- Created with Inkscape (http://www.inkscape.org/) -->
<svg
   xmlns:dc="http://purl.org/dc/elements/1.1/"
   xmlns:cc="http://creativecommons.org/ns#"
   xmlns:rdf="http://www.w3.org/1999/02/22-rdf-syntax-ns#"
   xmlns:svg="http://www.w3.org/2000/svg"
   xmlns="http://www.w3.org/2000/svg"
   xmlns:xlink="http://www.w3.org/1999/xlink"
   xmlns:sodipodi="http://sodipodi.sourceforge.net/DTD/sodipodi-0.dtd"
   xmlns:inkscape="http://www.inkscape.org/namespaces/inkscape"
   inkscape:export-ydpi="90.000000"
   inkscape:export-xdpi="90.000000"
   inkscape:export-filename="/home/jimmac/Desktop/wi-fi.png"
   width="48px"
   height="48px"
   id="svg11300"
   sodipodi:version="0.32"
   inkscape:version="0.45+devel"
   sodipodi:docbase="/home/patrick/Projects/Fusion/config/ccsm-new-icons/images"
   sodipodi:docname="plugin-showmouse.svg"
   inkscape:output_extension="org.inkscape.output.svg.inkscape"
   sodipodi:modified="true">
  <defs
     id="defs3">
    <linearGradient
       inkscape:collect="always"
       id="linearGradient8682">
      <stop
         style="stop-color:#f57900;stop-opacity:1;"
         offset="0"
         id="stop8684" />
      <stop
         style="stop-color:#f57900;stop-opacity:0;"
         offset="1"
         id="stop8687" />
    </linearGradient>
    <linearGradient
       inkscape:collect="always"
       id="linearGradient8738">
      <stop
         style="stop-color:#edd400;stop-opacity:1;"
         offset="0"
         id="stop8740" />
      <stop
         style="stop-color:#edd400;stop-opacity:0;"
         offset="1"
         id="stop8742" />
    </linearGradient>
    <linearGradient
       inkscape:collect="always"
       id="linearGradient8716">
      <stop
         style="stop-color:#edd400;stop-opacity:1;"
         offset="0"
         id="stop8718" />
      <stop
         style="stop-color:#edd400;stop-opacity:0;"
         offset="1"
         id="stop8720" />
    </linearGradient>
    <linearGradient
       id="linearGradient124">
      <stop
         id="stop125"
         offset="0.0000000"
         style="stop-color:#ffffff;stop-opacity:1.0000000;" />
      <stop
         id="stop126"
         offset="1"
         style="stop-color:silver;stop-opacity:1;" />
    </linearGradient>
    <linearGradient
       id="linearGradient10554"
       inkscape:collect="always">
      <stop
         id="stop10556"
         offset="0"
         style="stop-color:white;stop-opacity:1;" />
      <stop
         id="stop10558"
         offset="1"
         style="stop-color:white;stop-opacity:0;" />
    </linearGradient>
    <linearGradient
       inkscape:collect="always"
       xlink:href="#linearGradient124"
       id="linearGradient4372"
       gradientUnits="userSpaceOnUse"
       gradientTransform="matrix(1.4019046,3.2381864,-0.8095466,0.3504761,-482.91339,-745.38115)"
       x1="253.75711"
       y1="-129.52815"
       x2="252.00447"
       y2="-135.47408" />
    <radialGradient
       inkscape:collect="always"
       xlink:href="#linearGradient124"
       id="radialGradient4374"
       gradientUnits="userSpaceOnUse"
       gradientTransform="matrix(1.279254,0,0,1.7073246,-321.71546,-587.15241)"
       cx="307.7507"
       cy="361.47824"
       fx="307.7507"
       fy="361.47824"
       r="12.509617" />
    <radialGradient
       inkscape:collect="always"
       xlink:href="#linearGradient8716"
       id="radialGradient8722"
       cx="17.5625"
       cy="2.5505798"
       fx="17.5625"
       fy="2.5505798"
       r="12.84375"
       gradientTransform="matrix(1.9984424,0.8121905,-0.4299956,1.0550834,-18.677449,-9.823105)"
       gradientUnits="userSpaceOnUse" />
    <radialGradient
       inkscape:collect="always"
       xlink:href="#linearGradient8716"
       id="radialGradient8726"
       gradientUnits="userSpaceOnUse"
       gradientTransform="matrix(-0.6909616,-1.961271,1.0343269,-0.3658187,22.979818,78.51262)"
       cx="17.5625"
       cy="2.5505798"
       fx="17.5625"
       fy="2.5505798"
       r="12.84375" />
    <radialGradient
       inkscape:collect="always"
       xlink:href="#linearGradient8716"
       id="radialGradient8730"
       gradientUnits="userSpaceOnUse"
       gradientTransform="matrix(-1.7587064,1.3233109,-0.6994979,-0.9287948,76.525279,6.2109392)"
       cx="17.5625"
       cy="2.5505798"
       fx="17.5625"
       fy="2.5505798"
       r="12.84375" />
    <linearGradient
       inkscape:collect="always"
       xlink:href="#linearGradient10554"
       id="linearGradient8734"
       gradientUnits="userSpaceOnUse"
       gradientTransform="matrix(1.5347684,0,0,1.4230823,-296.72742,-584.34298)"
       x1="240.9062"
       y1="425.18195"
       x2="248.28683"
       y2="437.96558" />
    <radialGradient
       inkscape:collect="always"
       xlink:href="#linearGradient8738"
       id="radialGradient8744"
       cx="9.2040968"
       cy="11.868322"
       fx="9.2040968"
       fy="11.868322"
       r="4.135"
       gradientTransform="matrix(-7.3701998e-4,1.0446802,-1.0866753,-7.6555261e-4,22.107894,2.27172)"
       gradientUnits="userSpaceOnUse" />
    <radialGradient
       inkscape:collect="always"
       xlink:href="#linearGradient8738"
       id="radialGradient8748"
       gradientUnits="userSpaceOnUse"
       gradientTransform="matrix(-7.3701998e-4,1.0446802,-1.0866753,-7.6555261e-4,22.107894,2.27172)"
       cx="9.2040968"
       cy="11.868322"
       fx="9.2040968"
       fy="11.868322"
       r="4.135" />
    <radialGradient
       inkscape:collect="always"
       xlink:href="#linearGradient8682"
       id="radialGradient8689"
       cx="9.5625"
       cy="12.1875"
       fx="9.5625"
       fy="12.1875"
       r="3.8125"
       gradientTransform="matrix(1,0,0,0.9672131,0,0.3995902)"
       gradientUnits="userSpaceOnUse" />
  </defs>
  <sodipodi:namedview
     stroke="#ef2929"
     fill="#eeeeec"
     id="base"
     pagecolor="#ffffff"
     bordercolor="#666666"
     borderopacity="0.25490196"
     inkscape:pageopacity="0.0"
     inkscape:pageshadow="2"
     inkscape:zoom="11.313708"
     inkscape:cx="49.921913"
     inkscape:cy="17.878707"
     inkscape:current-layer="layer1"
     showgrid="false"
     inkscape:grid-bbox="true"
     inkscape:document-units="px"
     inkscape:showpageshadow="false"
     inkscape:window-width="1280"
     inkscape:window-height="710"
     inkscape:window-x="0"
     inkscape:window-y="49"
     showguides="true"
     inkscape:guide-bbox="true">
    <inkscape:grid
       type="xygrid"
       id="grid7912" />
  </sodipodi:namedview>
  <metadata
     id="metadata4">
    <rdf:RDF>
      <cc:Work
         rdf:about="">
        <dc:format>image/svg+xml</dc:format>
        <dc:type
           rdf:resource="http://purl.org/dc/dcmitype/StillImage" />
        <dc:creator>
          <cc:Agent>
            <dc:title>Patrick Niklaus</dc:title>
          </cc:Agent>
        </dc:creator>
        <dc:source />
        <cc:license
           rdf:resource="http://creativecommons.org/licenses/GPL/2.0/" />
        <dc:title>State</dc:title>
        <dc:subject>
          <rdf:Bag />
        </dc:subject>
      </cc:Work>
      <cc:License
         rdf:about="http://creativecommons.org/licenses/GPL/2.0/">
        <cc:permits
           rdf:resource="http://web.resource.org/cc/Reproduction" />
        <cc:permits
           rdf:resource="http://web.resource.org/cc/Distribution" />
        <cc:requires
           rdf:resource="http://web.resource.org/cc/Notice" />
        <cc:permits
           rdf:resource="http://web.resource.org/cc/DerivativeWorks" />
        <cc:requires
           rdf:resource="http://web.resource.org/cc/ShareAlike" />
        <cc:requires
           rdf:resource="http://web.resource.org/cc/SourceCode" />
      </cc:License>
    </rdf:RDF>
  </metadata>
  <g
     id="layer1"
     inkscape:label="Layer 1"
     inkscape:groupmode="layer">
    <g
       id="g4366"
       transform="matrix(0.9283455,0,0,0.9283455,-50.705685,-2.7131342)">
      <path
         sodipodi:nodetypes="cccccccc"
         style="fill:none;fill-opacity:1;fill-rule:evenodd;stroke:#888a85;stroke-width:1.12293661;stroke-linecap:round;stroke-linejoin:round;stroke-miterlimit:4;stroke-dasharray:none;stroke-dashoffset:0;stroke-opacity:1"
         d="M 71.401064,17.737975 L 71.401064,39.715361 L 78.379472,35.446114 L 82.648046,44.607206 L 86.149237,43.184125 L 81.976586,34.245388 L 88.258546,33.62279 L 71.401064,17.737975 z"
         id="rect16" />
      <path
         transform="matrix(0.8698963,0,0,0.8065934,98.369116,14.067108)"
         d="M -22.34375,19.125 L -24.75,20.125 C -24.912579,20.188558 -25.005181,20.360533 -24.96875,20.53125 L -24.1875,25.90625 C -24.152501,26.068677 -24.009891,26.185357 -23.84375,26.1875 L -22.5625,26.125 L -17.9375,36.84375 C -17.929156,36.865557 -17.918689,36.886491 -17.90625,36.90625 C -17.813226,37.032959 -17.648165,37.083747 -17.5,37.03125 L -15.0625,36 C -14.967095,35.963538 -14.891921,35.887892 -14.856059,35.792259 C -14.820197,35.696627 -14.827094,35.590203 -14.875,35.5 L -19.34375,25.1875 L -18.625,24.21875 C -18.52494,24.09008 -18.52494,23.90992 -18.625,23.78125 L -21.9375,19.25 C -21.94726,19.238947 -21.957697,19.22851 -21.96875,19.21875 C -22.064469,19.116528 -22.211188,19.079848 -22.34375,19.125 L -22.34375,19.125 z"
         id="path2887"
         style="fill:url(#linearGradient4372);fill-opacity:1;fill-rule:evenodd;stroke:none;stroke-width:1.24999988;stroke-linecap:round;stroke-linejoin:round;stroke-miterlimit:4;stroke-dashoffset:0;stroke-opacity:1"
         inkscape:original="M -22.21875 19.46875 L -24.625 20.46875 L -23.84375 25.84375 L -22.34375 25.78125 L -17.625 36.6875 L -15.1875 35.65625 L -19.75 25.125 L -18.90625 24 L -22.21875 19.46875 z "
         inkscape:radius="0.35630482"
         sodipodi:type="inkscape:offset" />
      <path
         sodipodi:nodetypes="ccccc"
         id="path2891"
         d="M 71.871259,18.78694 C 71.889634,18.813484 71.981323,32.436094 71.854374,38.93613 L 79.911004,34.055501 C 82.185693,33.758141 87.30507,33.322546 87.336388,33.314445 L 71.871259,18.78694 z"
         style="fill:url(#radialGradient4374);fill-opacity:1;fill-rule:evenodd;stroke:none;stroke-width:1.25;stroke-linecap:round;stroke-linejoin:round;stroke-miterlimit:4;stroke-dashoffset:0;stroke-opacity:1" />
      <path
         sodipodi:type="inkscape:offset"
         inkscape:radius="-0.16956301"
         inkscape:original="M 72.28125 19.75 C 72.308434 19.786317 72.236734 38.231507 72.25 38.21875 L 79.5625 33.6875 C 81.782403 33.496235 86.332488 32.96244 86.34375 32.96875 C 86.382631 32.954521 72.347636 19.74392 72.28125 19.75 z "
         style="fill:none;fill-opacity:1;fill-rule:evenodd;stroke:url(#linearGradient8734);stroke-width:1.12293661;stroke-linecap:butt;stroke-linejoin:miter;stroke-miterlimit:4;stroke-dashoffset:0;stroke-opacity:1"
         id="path8732"
         d="M 72.46875,20.15625 C 72.469271,20.276886 72.468522,20.388663 72.46875,20.5625 C 72.469417,21.070638 72.470096,21.789099 72.46875,22.65625 C 72.466058,24.390552 72.443934,26.692857 72.4375,29 C 72.431066,31.307143 72.441931,33.615803 72.4375,35.34375 C 72.435284,36.207724 72.406888,36.934445 72.40625,37.4375 C 72.405984,37.647106 72.406154,37.777134 72.40625,37.90625 L 79.46875,33.53125 C 79.479144,33.530288 79.489606,33.530288 79.5,33.53125 C 79.510394,33.530288 79.520856,33.530288 79.53125,33.53125 C 79.541644,33.530288 79.552106,33.530288 79.5625,33.53125 C 80.668882,33.435925 82.334039,33.250268 83.75,33.09375 C 84.45798,33.015491 85.099636,32.927147 85.5625,32.875 C 85.716317,32.857671 85.826483,32.856173 85.9375,32.84375 C 85.845149,32.754857 85.765494,32.665239 85.625,32.53125 C 85.245147,32.168983 84.718084,31.651364 84.0625,31.03125 C 82.751331,29.791022 81.006001,28.120497 79.25,26.46875 C 77.493999,24.817003 75.730529,23.175146 74.40625,21.9375 C 73.744111,21.318677 73.170867,20.797776 72.78125,20.4375 C 72.644083,20.310663 72.562781,20.242234 72.46875,20.15625 z" />
    </g>
    <path
       style="opacity:1;fill:url(#radialGradient8722);fill-opacity:1;stroke:#edd400;stroke-width:1;stroke-linecap:round;stroke-linejoin:miter;stroke-miterlimit:4;stroke-dasharray:none;stroke-dashoffset:0;stroke-opacity:1"
       d="M 15.981795,3.8072497 C 15.741966,3.8770548 15.512107,3.9644482 15.277066,4.042072 L 15.285042,4.0694534 C 15.171657,4.0925229 15.061324,4.1048663 14.948124,4.1378142 C 12.829746,4.754393 11.583812,6.8796698 12.171322,8.8964956 C 12.758833,10.913321 14.959404,12.065156 17.077783,11.448576 C 17.190982,11.415629 17.290698,11.366835 17.398749,11.325453 L 17.414701,11.380215 C 17.942194,11.17804 18.489923,11.007854 19.043452,10.846743 C 26.685345,8.6224806 34.445093,11.099874 38.674481,16.479338 C 38.57607,15.812393 38.430251,15.130543 38.237251,14.468004 C 35.693263,5.7349216 25.725642,0.97118937 15.981795,3.8072497 z"
       id="path8705"
       inkscape:transform-center-y="1.5295288"
       inkscape:transform-center-x="-0.3616374" />
    <path
       id="path8724"
       d="M 10.66831,44.789877 C 10.871692,44.918092 11.081374,45.02785 11.287332,45.147604 L 11.301956,45.124313 C 11.390957,45.191291 11.470287,45.262941 11.56628,45.323459 C 13.362727,46.455963 15.688657,45.992933 16.765973,44.277354 C 17.843289,42.561777 17.267875,40.237189 15.471428,39.104684 C 15.375434,39.044168 15.276635,39.003524 15.177851,38.952121 L 15.207104,38.905538 C 14.724745,38.654696 14.252504,38.36877 13.783095,38.072849 C 7.3025519,33.987426 4.1326171,26.805212 5.3064426,20.309571 C 4.8889776,20.807765 4.4910437,21.349693 4.1371395,21.91327 C -0.52776098,29.341918 2.4052485,39.580731 10.66831,44.789877 z"
       style="opacity:0.97999999;fill:url(#radialGradient8726);fill-opacity:1;stroke:#edd400;stroke-width:1;stroke-linecap:round;stroke-linejoin:miter;stroke-miterlimit:4;stroke-dasharray:none;stroke-dashoffset:0;stroke-opacity:1" />
    <path
       style="opacity:1;fill:url(#radialGradient8730);fill-opacity:1;stroke:#edd400;stroke-width:1;stroke-linecap:round;stroke-linejoin:miter;stroke-miterlimit:4;stroke-dasharray:none;stroke-dashoffset:0;stroke-opacity:1"
       d="M 46.423097,29.399865 C 46.487546,29.153456 46.531356,28.906562 46.586442,28.660245 L 46.558266,28.652886 C 46.597441,28.541593 46.644418,28.438583 46.674839,28.322281 C 47.244105,26.145781 46.034036,23.942576 43.958601,23.400444 C 41.883166,22.858313 39.720893,24.180617 39.151627,26.357118 C 39.121207,26.473421 39.11174,26.586226 39.091408,26.702445 L 39.035053,26.687724 C 38.935935,27.255162 38.798179,27.823555 38.649432,28.392273 C 36.595844,36.243832 30.359685,41.736269 23.42928,42.619804 C 24.065383,42.882971 24.739387,43.112461 25.421179,43.290555 C 34.408046,45.638042 43.804657,39.411051 46.423097,29.399865 z"
       id="path8728" />
    <path
       sodipodi:type="inkscape:offset"
       inkscape:radius="-0.9699294"
       inkscape:original="M 23.21875 3.0625 C 20.874307 2.8782667 18.404712 3.1034849 15.96875 3.8125 C 15.728921 3.882305 15.516291 3.9536262 15.28125 4.03125 L 15.28125 4.0625 C 15.167865 4.0855697 15.0507 4.0920521 14.9375 4.125 C 12.819122 4.741579 11.56874 6.8894242 12.15625 8.90625 C 12.743761 10.923075 14.944121 12.05408 17.0625 11.4375 C 17.175698 11.404553 17.298199 11.353882 17.40625 11.3125 L 17.40625 11.375 C 17.933743 11.172825 18.477721 11.004861 19.03125 10.84375 C 26.673144 8.619488 34.458112 11.089286 38.6875 16.46875 C 38.58909 15.801805 38.443 15.131289 38.25 14.46875 C 36.342009 7.918938 30.252078 3.6151999 23.21875 3.0625 z "
       style="opacity:1;fill:none;fill-opacity:1;stroke:#ffffff;stroke-width:1;stroke-linecap:round;stroke-linejoin:miter;stroke-miterlimit:4;stroke-dasharray:none;stroke-dashoffset:0;stroke-opacity:0.54983921000000002"
       id="path8756"
       d="M 23.15625,4.03125 C 20.926387,3.8560207 18.569986,4.074741 16.25,4.75 C 16.105122,4.7921684 15.958102,4.8272876 15.8125,4.875 C 15.70688,4.9380883 15.590223,4.980509 15.46875,5 C 15.262227,5.0420199 15.192299,5.0701989 15.21875,5.0625 C 13.582367,5.5387885 12.661305,7.1404876 13.09375,8.625 C 13.526622,10.110977 15.141499,10.977269 16.78125,10.5 C 16.81852,10.489152 16.936149,10.454641 17.0625,10.40625 C 17.182154,10.360886 17.309601,10.339645 17.4375,10.34375 C 17.879517,10.187938 18.31173,10.033813 18.75,9.90625 C 25.324471,7.9926739 31.915923,9.5149855 36.59375,13.25 C 34.351616,8.0175271 29.24388,4.5096341 23.15625,4.03125 z" />
    <path
       sodipodi:type="inkscape:offset"
       inkscape:radius="-1.0446029"
       inkscape:original="M 5.3125 20.3125 C 4.8950349 20.810695 4.4789042 21.342673 4.125 21.90625 C -0.5399003 29.334897 2.3931885 39.572104 10.65625 44.78125 C 10.859632 44.909463 11.075292 45.036496 11.28125 45.15625 L 11.3125 45.125 C 11.401501 45.191978 11.466507 45.251982 11.5625 45.3125 C 13.358947 46.445003 15.703934 45.996829 16.78125 44.28125 C 17.858567 42.565672 17.265197 40.226255 15.46875 39.09375 C 15.372756 39.033235 15.286284 38.988903 15.1875 38.9375 L 15.21875 38.90625 C 14.736391 38.655409 14.250659 38.358421 13.78125 38.0625 C 7.3007065 33.977077 4.1386745 26.808141 5.3125 20.3125 z "
       style="opacity:1;fill:none;fill-opacity:1;stroke:#ffffff;stroke-width:1;stroke-linecap:round;stroke-linejoin:miter;stroke-miterlimit:4;stroke-dasharray:none;stroke-dashoffset:0;stroke-opacity:0.52411576999999998"
       id="path8764"
       d="M 4.21875,24.125 C 1.2088905,30.834251 3.9860332,39.346647 11.21875,43.90625 C 11.31695,43.968156 11.424918,44.030399 11.53125,44.09375 C 11.559494,44.110578 11.596505,44.108185 11.625,44.125 C 11.737199,44.159172 11.842843,44.211994 11.9375,44.28125 C 12.070741,44.381521 12.11254,44.429645 12.125,44.4375 C 13.469362,45.285003 15.148416,44.925568 15.90625,43.71875 C 16.664258,42.511657 16.241492,40.810505 14.90625,39.96875 C 14.854965,39.936419 14.820803,39.928104 14.71875,39.875 C 14.599446,39.812583 14.493333,39.727693 14.40625,39.625 C 14.007026,39.402326 13.587112,39.16972 13.21875,38.9375 C 7.6923152,35.45356 4.5884677,29.837017 4.21875,24.125 z" />
    <path
       sodipodi:type="inkscape:offset"
       inkscape:radius="-1.0101528"
       inkscape:original="M 42.40625 23.3125 C 40.895852 23.55771 39.583199 24.711374 39.15625 26.34375 C 39.12583 26.460052 39.114082 26.571281 39.09375 26.6875 L 39.03125 26.6875 C 38.932132 27.254939 38.804997 27.837532 38.65625 28.40625 C 36.602661 36.257809 30.367905 41.741465 23.4375 42.625 C 24.073604 42.888167 24.724458 43.103156 25.40625 43.28125 C 34.393117 45.628738 43.81906 39.417436 46.4375 29.40625 C 46.50195 29.159842 46.538664 28.902567 46.59375 28.65625 L 46.5625 28.65625 C 46.601675 28.544958 46.657079 28.428802 46.6875 28.3125 C 47.256766 26.136 46.044185 23.948382 43.96875 23.40625 C 43.449891 23.270717 42.909716 23.230763 42.40625 23.3125 z "
       style="opacity:1;fill:none;fill-opacity:1;stroke:#ffffff;stroke-width:1;stroke-linecap:round;stroke-linejoin:miter;stroke-miterlimit:4;stroke-dasharray:none;stroke-dashoffset:0;stroke-opacity:0.51125399000000005"
       id="path8768"
       d="M 42.5625,24.3125 C 41.455415,24.492233 40.453176,25.339018 40.125,26.59375 C 40.118367,26.619108 40.121553,26.716075 40.09375,26.875 C 40.063733,26.998385 40.010724,27.115005 39.9375,27.21875 C 39.937661,27.229166 39.937661,27.239584 39.9375,27.25 C 39.846015,27.723327 39.747864,28.186492 39.625,28.65625 C 37.850338,35.441377 33.03529,40.413699 27.28125,42.53125 C 35.173626,43.636918 43.135026,38.078869 45.46875,29.15625 C 45.496118,29.051617 45.532482,28.874525 45.5625,28.71875 C 45.55967,28.623998 45.57019,28.52932 45.59375,28.4375 C 45.601496,28.395211 45.611934,28.353459 45.625,28.3125 C 45.690126,28.127484 45.722645,28.047611 45.71875,28.0625 C 46.157229,26.386045 45.244349,24.773507 43.71875,24.375 C 43.318796,24.270527 42.901755,24.257422 42.5625,24.3125 z" />
  </g>
</svg>
