<?xml version="1.0" encoding="UTF-8" standalone="no"?>
<!-- Created with Inkscape (http://www.inkscape.org/) -->

<svg
   xmlns:dc="http://purl.org/dc/elements/1.1/"
   xmlns:cc="http://creativecommons.org/ns#"
   xmlns:rdf="http://www.w3.org/1999/02/22-rdf-syntax-ns#"
   xmlns:svg="http://www.w3.org/2000/svg"
   xmlns="http://www.w3.org/2000/svg"
   xmlns:xlink="http://www.w3.org/1999/xlink"
   xmlns:sodipodi="http://sodipodi.sourceforge.net/DTD/sodipodi-0.dtd"
   xmlns:inkscape="http://www.inkscape.org/namespaces/inkscape"
   version="1.0"
   width="48"
   height="48"
   id="svg11622"
   sodipodi:version="0.32"
   inkscape:version="0.47+devel r9474"
   sodipodi:docname="plugin-text.svg"
   inkscape:output_extension="org.inkscape.output.svg.inkscape">
  <metadata
     id="metadata212">
    <rdf:RDF>
      <cc:Work
         rdf:about="">
        <dc:format>image/svg+xml</dc:format>
        <dc:type
           rdf:resource="http://purl.org/dc/dcmitype/StillImage" />
      </cc:Work>
    </rdf:RDF>
  </metadata>
  <sodipodi:namedview
     inkscape:window-height="867"
     inkscape:window-width="1100"
     inkscape:pageshadow="2"
     inkscape:pageopacity="0.0"
     guidetolerance="10.0"
     gridtolerance="10.0"
     objecttolerance="10.0"
     borderopacity="1.0"
     bordercolor="#666666"
     pagecolor="#ffffff"
     id="base"
     showgrid="false"
     inkscape:showpageshadow="false"
     inkscape:zoom="6.7617086"
     inkscape:cx="24.887349"
     inkscape:cy="24"
     inkscape:window-x="127"
     inkscape:window-y="49"
     inkscape:current-layer="svg11622"
     inkscape:window-maximized="0"
     inkscape:snap-global="false" />
  <defs
     id="defs11624">
    <linearGradient
       inkscape:collect="always"
       id="linearGradient3825">
      <stop
         style="stop-color:#000000;stop-opacity:1;"
         offset="0"
         id="stop3827" />
      <stop
         style="stop-color:#000000;stop-opacity:0;"
         offset="1"
         id="stop3829" />
    </linearGradient>
    <linearGradient
       inkscape:collect="always"
       xlink:href="#linearGradient3825"
       id="linearGradient3831"
       x1="10.467712"
       y1="17.854689"
       x2="10.467712"
       y2="51.70414"
       gradientUnits="userSpaceOnUse" />
  </defs>
  <path
     style="fill:#eeeeec;fill-opacity:1;fill-rule:evenodd;stroke:#5d5a5a;stroke-width:1;stroke-linecap:round;stroke-miterlimit:4;stroke-opacity:1;stroke-dasharray:none"
     d="m 21.412461,5.9299302 c -3.45401,0.5451943 -6.155963,0.8781477 -9.420139,2.1852482 -1.641741,0.621911 -3.2411189,1.394687 -4.6098078,2.5081646 -1.4108789,1.080838 -2.7700819,2.269638 -3.8363763,3.699102 -0.5577618,0.809738 -1.0831053,1.641625 -1.4539407,2.556187 -0.4533929,1.36727 -0.8440882,2.799929 -0.790955,4.254097 -1.877e-4,1.682975 0.6600255,3.291473 1.4304188,4.759399 0.6693097,1.294912 1.6408641,2.412356 2.6754068,3.428743 1.4665544,1.283001 3.0843336,2.393061 4.8004242,3.316551 1.968899,0.894381 3.998919,1.674773 6.104698,2.182424 2.243133,0.603043 4.07826,1.276277 6.317468,1.862607 1.229032,0.627878 1.414381,1.31602 2.062028,2.120714 0.865201,1.389919 1.615622,1.975362 2.779603,2.859474 0.178954,0.258783 3.256309,2.284653 2.783284,1.623543 -0.586562,-1.173076 -2.226622,-3.423154 -2.75205,-4.850625 -0.31905,-0.731016 0.131729,-1.488853 0.803766,-2.001553 0.696295,-0.511335 1.285094,-0.677504 2.031519,-0.955941 1.8032,-0.685953 2.922095,-1.031777 4.546241,-1.575876 1.896885,-0.598729 3.664078,-1.531739 5.385943,-2.514767 1.480706,-1.170935 3.092307,-2.239492 4.1875,-3.8125 0.66249,-0.908531 1.266788,-1.861777 1.66469,-2.918481 0.681545,-1.682649 0.988679,-3.549104 0.740674,-5.355229 C 46.6103,17.154953 45.437609,15.260748 44.113742,13.606172 43.029285,12.391792 41.896721,11.195455 40.501178,10.333213 39.4583,9.6459824 38.397289,8.9827044 37.241319,8.5002264 34.550339,7.2885447 31.668427,6.5427329 28.757632,6.096191 27.023749,5.8459445 26.463153,5.937389 24.712539,5.8986802 c -0.4375,0.010417 -2.862578,0.020833 -3.300078,0.03125 z"
     id="path3050"
     inkscape:connector-curvature="0"
     sodipodi:nodetypes="cccccccccccccccccccccccccccc" />
  <g
     style="font-size:40px;font-style:normal;font-variant:normal;font-weight:normal;font-stretch:normal;text-align:start;line-height:125%;letter-spacing:0;word-spacing:0;writing-mode:lr-tb;text-anchor:start;fill:url(#linearGradient3831);fill-opacity:1;stroke:none;font-family:Neuropol;-inkscape-font-specification:Neuropol"
     id="text3044"
     transform="matrix(0.46833097,0,0,0.46833097,19.201165,8.08234)">
    <path
       d="m -6.8638191,18.373226 c -2.69e-5,1.028667 -0.5078389,1.542989 -1.5234375,1.542969 l -9.6289064,0 0,18.710937 c -1.6e-5,1.028647 -0.501317,1.542969 -1.503906,1.542969 -1.015638,0 -1.647148,-0.03906 -1.894531,-0.117187 -0.611991,-0.182292 -0.917981,-0.657552 -0.917969,-1.425782 l 0,-18.710937 -9.550781,0 c -1.028647,2e-5 -1.542969,-0.514302 -1.542969,-1.542969 0,-0.703102 0.07813,-1.184873 0.234375,-1.445312 0.208332,-0.36456 0.64453,-0.546852 1.308594,-0.546875 l 23.4960934,0 c 1.0155986,2.3e-5 1.5234106,0.664085 1.5234375,1.992187"
       id="path3049"
       inkscape:connector-curvature="0"
       style="fill-opacity:1;fill:url(#linearGradient3831)" />
    <path
       d="m 10.890087,31.127132 c -2.7e-5,1.132821 -0.384141,1.699226 -1.1523436,1.699219 l -20.4882814,0 0,0.136719 c -5e-6,1.770839 1.0416607,2.91016 3.1250001,3.417969 0.4557205,0.10417 1.113272,0.188805 1.9726563,0.253906 0.8723848,0.05209 1.9791545,0.07813 3.3203125,0.07813 1.0156105,3e-6 1.52342246,0.638023 1.52343748,1.914062 -1.502e-5,1.028647 -0.50782698,1.542969 -1.52343748,1.542969 -1.3802205,0 -2.5130318,-0.01302 -3.3984375,-0.03906 -0.8724051,-0.01302 -1.5364669,-0.04557 -1.9921875,-0.09766 -2.2656309,-0.234374 -3.9322959,-0.768228 -4.9999999,-1.601562 -1.523439,-1.184893 -2.285157,-2.578121 -2.285156,-4.179688 l 0,-6.894531 c -10e-7,-2.161443 1.171873,-3.763004 3.515625,-4.804687 1.6015562,-0.75519 3.7239499,-1.132794 6.3671871,-1.132813 l 7.6953125,0 c 2.1614378,1.9e-5 3.9518006,0.358091 5.3710938,1.074219 1.9661201,0.911475 2.9491916,2.285171 2.9492186,4.121094 l 0,4.511718 m -4.0234374,-1.875 0,-2.304687 c -2.27e-5,-1.406236 -2.7929886,-2.10936 -8.3789062,-2.109375 -3.2942819,1.5e-5 -5.5533942,0.117202 -6.7773438,0.351562 -1.7317766,0.325536 -2.5976616,0.963556 -2.5976566,1.914063 l 0,2.148437 17.7539066,0"
       id="path3051"
       inkscape:connector-curvature="0"
       style="fill-opacity:1;fill:url(#linearGradient3831)" />
    <path
       d="m 37.6479,38.802914 c -2.7e-5,0.703125 -0.3581,1.132812 -1.074219,1.289062 -0.104193,0.05208 -0.742213,0.07813 -1.914063,0.07813 -0.312523,0 -0.612002,-0.104167 -0.898437,-0.3125 l -9.21875,-6.71875 -9.296875,6.71875 c -0.286463,0.208333 -1.015629,0.3125 -2.1875,0.3125 -1.171876,0 -1.757813,-0.455729 -1.757813,-1.367187 0,-0.533853 0.292968,-1.009113 0.878907,-1.425782 l 9.179687,-6.5625 -9.082031,-6.582031 c -0.559897,-0.403629 -0.839845,-0.878889 -0.839844,-1.425781 -10e-7,-0.716128 0.371093,-1.152325 1.113281,-1.308594 0.169269,-0.03904 0.82031,-0.05857 1.953125,-0.05859 0.325517,1.9e-5 0.624996,0.09767 0.898438,0.292969 l 9.160156,6.71875 8.964844,-6.699219 c 0.247373,-0.208314 0.963518,-0.312481 2.148437,-0.3125 1.171849,1.9e-5 1.757786,0.449237 1.757813,1.347657 -2.7e-5,0.546891 -0.279974,1.022151 -0.839844,1.425781 l -8.867187,6.542969 9.0625,6.621093 c 0.57289,0.416669 0.859348,0.891929 0.859375,1.425782"
       id="path3053"
       inkscape:connector-curvature="0"
       style="fill-opacity:1;fill:url(#linearGradient3831)" />
    <path
       d="m 53.917431,23.509945 c -1.6e-5,1.01564 -0.514338,1.523452 -1.542969,1.523437 l -6.523437,0 0,13.59375 c -8e-6,1.028647 -0.50782,1.542969 -1.523438,1.542969 -1.002609,0 -1.588546,-0.04557 -1.757812,-0.136719 -0.5599,-0.208333 -0.839848,-0.677082 -0.839844,-1.40625 l 0,-13.59375 c -0.546878,1.5e-5 -0.996096,-0.0065 -1.347656,-0.01953 -0.338544,-0.02603 -0.579429,-0.05207 -0.722657,-0.07813 -0.651042,-0.221339 -0.976563,-0.761703 -0.976562,-1.621094 -10e-7,-0.859357 0.32552,-1.399721 0.976562,-1.621093 0.143228,-0.02602 0.384113,-0.04556 0.722657,-0.05859 0.35156,-0.02602 0.800778,-0.03904 1.347656,-0.03906 l 0,-3.691406 c -4e-6,-1.015602 0.507808,-1.523414 1.523437,-1.523437 1.002599,2.3e-5 1.588535,0.0456 1.757813,0.136718 0.559888,0.195336 0.839836,0.657575 0.839844,1.386719 l 0,3.691406 6.523437,0 c 1.028631,1.9e-5 1.542953,0.638039 1.542969,1.914063"
       id="path3055"
       inkscape:connector-curvature="0"
       style="fill-opacity:1;fill:url(#linearGradient3831)" />
  </g>
</svg>
