<?xml version="1.0" encoding="UTF-8" standalone="no"?>
<!-- Created with Inkscape (http://www.inkscape.org/) -->

<svg
   xmlns:dc="http://purl.org/dc/elements/1.1/"
   xmlns:cc="http://creativecommons.org/ns#"
   xmlns:rdf="http://www.w3.org/1999/02/22-rdf-syntax-ns#"
   xmlns:svg="http://www.w3.org/2000/svg"
   xmlns="http://www.w3.org/2000/svg"
   xmlns:xlink="http://www.w3.org/1999/xlink"
   xmlns:sodipodi="http://sodipodi.sourceforge.net/DTD/sodipodi-0.dtd"
   xmlns:inkscape="http://www.inkscape.org/namespaces/inkscape"
   width="48"
   height="48"
   id="svg3304"
   sodipodi:version="0.32"
   inkscape:version="0.47+devel r9425"
   sodipodi:docname="plugin-wallpaperold.svg"
   inkscape:output_extension="org.inkscape.output.svg.inkscape"
   version="1.0">
  <defs
     id="defs3306">
    <linearGradient
       inkscape:collect="always"
       id="linearGradient3684">
      <stop
         style="stop-color:#2e3436;stop-opacity:1;"
         offset="0"
         id="stop3686" />
      <stop
         style="stop-color:#2e3436;stop-opacity:0;"
         offset="1"
         id="stop3688" />
    </linearGradient>
    <linearGradient
       inkscape:collect="always"
       id="linearGradient3666">
      <stop
         style="stop-color:#729fcf;stop-opacity:1;"
         offset="0"
         id="stop3668" />
      <stop
         style="stop-color:#729fcf;stop-opacity:0;"
         offset="1"
         id="stop3670" />
    </linearGradient>
    <filter
       inkscape:collect="always"
       id="filter3650"
       color-interpolation-filters="sRGB">
      <feGaussianBlur
         inkscape:collect="always"
         stdDeviation="1.6485714"
         id="feGaussianBlur3652" />
    </filter>
    <linearGradient
       inkscape:collect="always"
       xlink:href="#linearGradient3666"
       id="linearGradient3672"
       x1="159.50719"
       y1="-93.97448"
       x2="88.780792"
       y2="-12.662307"
       gradientUnits="userSpaceOnUse"
       gradientTransform="matrix(0.17818723,0,0,0.17827767,1.5426162,24.809351)" />
    <linearGradient
       inkscape:collect="always"
       xlink:href="#linearGradient3684"
       id="linearGradient3690"
       x1="59.989452"
       y1="145.2827"
       x2="106.66666"
       y2="92.894524"
       gradientUnits="userSpaceOnUse"
       gradientTransform="matrix(0.17958957,0,0,0.17958957,1.7366071,-15.267453)" />
  </defs>
  <sodipodi:namedview
     id="base"
     pagecolor="#ffffff"
     bordercolor="#849193"
     borderopacity="1.0000000"
     inkscape:pageopacity="0.0"
     inkscape:pageshadow="2"
     inkscape:zoom="7.5572037"
     inkscape:cx="24"
     inkscape:cy="24"
     inkscape:current-layer="layer1"
     showgrid="false"
     inkscape:grid-bbox="true"
     inkscape:document-units="px"
     inkscape:showpageshadow="false"
     showborder="true"
     inkscape:window-width="1142"
     inkscape:window-height="710"
     inkscape:window-x="103"
     inkscape:window-y="130"
     showguides="true"
     inkscape:guide-bbox="true"
     inkscape:grid-points="false"
     inkscape:object-points="false"
     inkscape:object-paths="false"
     inkscape:window-maximized="0"
     inkscape:snap-global="false">
    <inkscape:grid
       id="GridFromPre046Settings"
       type="xygrid"
       originx="0px"
       originy="0px"
       spacingx="1px"
       spacingy="1px"
       color="#0000ff"
       empcolor="#0000ff"
       opacity="0.2"
       empopacity="0.4"
       empspacing="2"
       visible="true"
       enabled="true"
       snapvisiblegridlinesonly="true" />
  </sodipodi:namedview>
  <metadata
     id="metadata3309">
    <rdf:RDF>
      <cc:Work
         rdf:about="">
        <dc:format>image/svg+xml</dc:format>
        <dc:type
           rdf:resource="http://purl.org/dc/dcmitype/StillImage" />
        <dc:title>Desktop Wallpaper</dc:title>
        <dc:creator>
          <cc:Agent>
            <dc:title>Luca Ferretti &lt;elle.uca@libero.it&gt;</dc:title>
          </cc:Agent>
        </dc:creator>
        <cc:license
           rdf:resource="http://creativecommons.org/licenses/GPL/2.0/" />
        <dc:subject>
          <rdf:Bag>
            <rdf:li>monitor</rdf:li>
            <rdf:li>display</rdf:li>
            <rdf:li>video</rdf:li>
            <rdf:li>screen</rdf:li>
            <rdf:li>LCD</rdf:li>
            <rdf:li>CRT</rdf:li>
          </rdf:Bag>
        </dc:subject>
        <dc:contributor>
          <cc:Agent>
            <dc:title>Andreas Nilsson &lt;nisses.mail@home.se&gt;
Jakub Steiner &lt;jimmac@novell.cX</dc:title>
          </cc:Agent>
        </dc:contributor>
      </cc:Work>
      <cc:License
         rdf:about="http://creativecommons.org/licenses/GPL/2.0/">
        <cc:permits
           rdf:resource="http://web.resource.org/cc/Reproduction" />
        <cc:permits
           rdf:resource="http://web.resource.org/cc/Distribution" />
        <cc:requires
           rdf:resource="http://web.resource.org/cc/Notice" />
        <cc:permits
           rdf:resource="http://web.resource.org/cc/DerivativeWorks" />
        <cc:requires
           rdf:resource="http://web.resource.org/cc/ShareAlike" />
        <cc:requires
           rdf:resource="http://web.resource.org/cc/SourceCode" />
      </cc:License>
    </rdf:RDF>
  </metadata>
  <g
     id="layer1"
     inkscape:label="Layer 1"
     inkscape:groupmode="layer"
     transform="translate(0,16)">
    <path
       style="fill:#2e3436;stroke:#000000;stroke-width:0.17958958px;stroke-linecap:butt;stroke-linejoin:miter;stroke-opacity:1"
       d="m 1.5426163,-15.153585 30.4789117,38.483489 0.615739,1.026227 1.641964,1.539338 2.565559,1.847208 1.949845,1.128847 1.847194,0.615736 2.257703,0.82098 2.155075,0.307869 c 0,0 2.257702,0.513113 2.257702,0.102628 0,-0.410492 -0.02289,-45.980558 -0.02289,-45.980558 l -45.747171,0.108282 z"
       id="path2877"
       sodipodi:nodetypes="cccccccccscc"
       inkscape:connector-curvature="0" />
    <path
       sodipodi:nodetypes="cccccccccscc"
       id="path3664"
       d="m 1.5426163,-14.81924 30.2409217,38.202369 0.610931,1.018729 1.629121,1.528095 2.545552,1.833714 1.934598,1.120601 1.832772,0.611239 2.240076,0.814984 2.138249,0.305618 c 0,0 2.240075,0.509365 2.240075,0.101872 0,-0.407493 -0.02289,-45.644678 -0.02289,-45.644678 l -45.3899523,0.107366 z"
       style="fill:url(#linearGradient3672);fill-opacity:1;stroke:#867f7f;stroke-width:0.71292979;stroke-linecap:butt;stroke-linejoin:miter;stroke-miterlimit:4;stroke-opacity:1;stroke-dasharray:none"
       inkscape:connector-curvature="0" />
    <path
       style="fill:#eeeeec;fill-opacity:1;stroke:#000000;stroke-width:0.17958958px;stroke-linecap:butt;stroke-linejoin:miter;stroke-opacity:1"
       d="m 39.370083,29.155578 -2.327845,-1.35791 -1.551881,-0.872942 -1.842891,-1.260915 -1.454885,-2.133858 c 0,0 -0.581973,-1.64889 -0.581973,-2.036863 0,-0.387976 -0.387982,-1.939873 -0.387982,-2.327845 0,-0.387976 -0.09707,-1.84288 0,-2.230852 0.09707,-0.387975 0.09707,-0.678957 0.290986,-1.357911 0.1939,-0.678954 0.678969,-1.842875 0.678969,-1.842875 l 0.77594,-1.357911 c 0,0 0.775941,-1.06693 1.163923,-1.357909 0.387959,-0.290982 1.260917,-0.775947 1.260917,-0.775947 l 1.357914,-0.581962 1.745872,-0.193991 1.357914,0 -0.09707,0.096995 -0.09706,-0.096995 -38.1184511,-24.636344 31.2319141,39.476353 2.23085,2.327844 2.327844,1.64889 2.521837,0.969935"
       id="path3674"
       sodipodi:nodetypes="cccccssssccsccccccccccc"
       inkscape:connector-curvature="0" />
    <path
       sodipodi:nodetypes="cccccssssccsccccccccccc"
       id="path3682"
       d="m 39.564074,29.349565 -2.327845,-1.357909 -1.551881,-0.872943 -1.648899,-1.357909 -1.6489,-2.036865 c 0,0 -0.58195,-1.648888 -0.58195,-2.036863 0,-0.387975 -0.387982,-1.939872 -0.387982,-2.327845 0,-0.387973 -0.09707,-1.842876 0,-2.230849 0.09707,-0.387976 0.09707,-0.678957 0.290986,-1.357912 0.1939,-0.678954 0.678946,-1.842876 0.678946,-1.842876 l 0.775963,-1.35791 c 0,0 0.775941,-1.06693 1.163923,-1.357909 0.387959,-0.290981 1.260918,-0.775949 1.260918,-0.775949 l 1.35789,-0.5819622 1.745895,-0.1939904 1.357914,0 -0.09706,0.096995 -0.09707,-0.096995 -38.1184541,-24.6363624 31.2319141,39.476373 2.230849,2.327842 2.327845,1.648892 2.521836,0.969935"
       style="fill:url(#linearGradient3690);fill-opacity:1;stroke:#000000;stroke-width:0.17958958px;stroke-linecap:butt;stroke-linejoin:miter;stroke-opacity:1"
       inkscape:connector-curvature="0" />
    <path
       style="fill:none;stroke:#ffffff;stroke-width:3;stroke-linecap:butt;stroke-linejoin:miter;stroke-miterlimit:4;stroke-opacity:1;stroke-dasharray:none;filter:url(#filter3650)"
       d="M -8.654623,-229.59614 163.91682,-72.453284"
       id="path3640"
       transform="matrix(0.17855726,0,0,0.17552256,3.4656305,25.752792)"
       inkscape:connector-curvature="0" />
  </g>
  <g
     inkscape:groupmode="layer"
     id="layer3"
     inkscape:label="Layer"
     transform="translate(0,-208)" />
  <g
     inkscape:groupmode="layer"
     id="layer2"
     inkscape:label="new"
     transform="translate(0,16)" />
</svg>
