<?xml version="1.0" encoding="UTF-8" standalone="no"?>
<!-- Created with Inkscape (http://www.inkscape.org/) -->

<svg
   xmlns:dc="http://purl.org/dc/elements/1.1/"
   xmlns:cc="http://creativecommons.org/ns#"
   xmlns:rdf="http://www.w3.org/1999/02/22-rdf-syntax-ns#"
   xmlns:svg="http://www.w3.org/2000/svg"
   xmlns="http://www.w3.org/2000/svg"
   xmlns:xlink="http://www.w3.org/1999/xlink"
   xmlns:sodipodi="http://sodipodi.sourceforge.net/DTD/sodipodi-0.dtd"
   xmlns:inkscape="http://www.inkscape.org/namespaces/inkscape"
   width="72"
   height="72"
   id="svg3611"
   sodipodi:version="0.32"
   inkscape:version="0.92.3 (unknown)"
   version="1.0"
   sodipodi:docname="plugin-titleinfo.svg"
   inkscape:output_extension="org.inkscape.output.svg.inkscape">
  <defs
     id="defs3613">
    <inkscape:perspective
       sodipodi:type="inkscape:persp3d"
       inkscape:vp_x="0 : 16 : 1"
       inkscape:vp_y="0 : 1000 : 0"
       inkscape:vp_z="32 : 16 : 1"
       inkscape:persp3d-origin="16 : 10.666667 : 1"
       id="perspective3619" />
    <linearGradient
       id="linearGradient3690">
      <stop
         style="stop-color:white;stop-opacity:1;"
         offset="0"
         id="stop3692" />
      <stop
         style="stop-color:white;stop-opacity:0.46875"
         offset="1"
         id="stop3694" />
    </linearGradient>
    <linearGradient
       id="linearGradient3674">
      <stop
         style="stop-color:#3465a4;stop-opacity:1"
         offset="0"
         id="stop3676" />
      <stop
         style="stop-color:#729fcf;stop-opacity:1;"
         offset="1"
         id="stop3678" />
    </linearGradient>
    <linearGradient
       id="linearGradient2781">
      <stop
         style="stop-color:#d3d7cf;stop-opacity:1"
         offset="0"
         id="stop2783" />
      <stop
         style="stop-color:#eeeeec;stop-opacity:1"
         offset="1"
         id="stop2785" />
    </linearGradient>
    <radialGradient
       gradientUnits="userSpaceOnUse"
       gradientTransform="matrix(-5.189409e-2,1.7251908,-2.0664067,-6.2888621e-2,77.196893,-35.974945)"
       r="8.7322731"
       fy="29.052198"
       fx="29.358974"
       cy="29.052198"
       cx="29.358974"
       id="radialGradient6152"
       xlink:href="#linearGradient6146"
       inkscape:collect="always" />
    <linearGradient
       id="linearGradient51765">
      <stop
         style="stop-color:#000000;stop-opacity:1"
         offset="0"
         id="stop51767" />
      <stop
         style="stop-color:#000000;stop-opacity:0"
         offset="1"
         id="stop51769" />
    </linearGradient>
    <linearGradient
       id="linearGradient47870">
      <stop
         style="stop-color:#000000;stop-opacity:0"
         offset="0"
         id="stop47872" />
      <stop
         style="stop-color:#000000;stop-opacity:1"
         offset="0.5"
         id="stop47878" />
      <stop
         style="stop-color:#000000;stop-opacity:0"
         offset="1"
         id="stop47874" />
    </linearGradient>
    <linearGradient
       id="linearGradient6146">
      <stop
         id="stop6148"
         offset="0"
         style="stop-color:#729fcf;stop-opacity:1" />
      <stop
         id="stop6150"
         offset="1"
         style="stop-color:#3465a4;stop-opacity:1" />
    </linearGradient>
    <inkscape:perspective
       id="perspective3662"
       inkscape:persp3d-origin="16 : 10.666667 : 1"
       inkscape:vp_z="32 : 16 : 1"
       inkscape:vp_y="0 : 1000 : 0"
       inkscape:vp_x="0 : 16 : 1"
       sodipodi:type="inkscape:persp3d" />
    <radialGradient
       r="21.535715"
       fy="44.051216"
       fx="25.304846"
       cy="44.051216"
       cx="25.304846"
       gradientTransform="matrix(0.928681,0,0,0.102029,1.804722,37.76401)"
       gradientUnits="userSpaceOnUse"
       id="radialGradient7927"
       xlink:href="#linearGradient2189"
       inkscape:collect="always" />
    <radialGradient
       r="20.978409"
       fy="15.445013"
       fx="16.981855"
       cy="15.445013"
       cx="16.981855"
       gradientTransform="matrix(-1.50631,4.232823e-3,3.006144e-3,1.069777,54.850852,-0.3745243)"
       gradientUnits="userSpaceOnUse"
       id="radialGradient7925"
       xlink:href="#linearGradient2097"
       inkscape:collect="always" />
    <radialGradient
       r="21.535715"
       fy="44.051216"
       fx="25.304846"
       cy="44.051216"
       cx="25.304846"
       gradientTransform="matrix(0.928681,0,0,0.102029,1.804722,37.76401)"
       gradientUnits="userSpaceOnUse"
       id="radialGradient7918"
       xlink:href="#linearGradient2189"
       inkscape:collect="always" />
    <radialGradient
       r="20.978409"
       fy="15.445013"
       fx="16.981855"
       cy="15.445013"
       cx="16.981855"
       gradientTransform="matrix(-1.50631,4.232823e-3,3.006144e-3,1.069777,54.81232,-0.459221)"
       gradientUnits="userSpaceOnUse"
       id="radialGradient7916"
       xlink:href="#linearGradient2097"
       inkscape:collect="always" />
    <radialGradient
       gradientUnits="userSpaceOnUse"
       gradientTransform="matrix(0.928681,0,0,0.102029,1.804722,37.76401)"
       r="21.535715"
       fy="44.051216"
       fx="25.304846"
       cy="44.051216"
       cx="25.304846"
       id="radialGradient2195"
       xlink:href="#linearGradient2189"
       inkscape:collect="always" />
    <radialGradient
       gradientUnits="userSpaceOnUse"
       gradientTransform="matrix(-1.50631,4.232823e-3,3.006144e-3,1.069777,54.81232,-0.459221)"
       r="20.978409"
       fy="15.445013"
       fx="16.981855"
       cy="15.445013"
       cx="16.981855"
       id="radialGradient2103"
       xlink:href="#linearGradient2097"
       inkscape:collect="always" />
    <linearGradient
       id="linearGradient2097"
       inkscape:collect="always">
      <stop
         id="stop2099"
         offset="0"
         style="stop-color:#ffffff;stop-opacity:1.0000000" />
      <stop
         id="stop2101"
         offset="1"
         style="stop-color:#e7e7e3;stop-opacity:1.0000000" />
    </linearGradient>
    <linearGradient
       id="linearGradient2189"
       inkscape:collect="always">
      <stop
         id="stop2191"
         offset="0"
         style="stop-color:#000000;stop-opacity:1;" />
      <stop
         id="stop2193"
         offset="1"
         style="stop-color:#000000;stop-opacity:0;" />
    </linearGradient>
    <inkscape:perspective
       id="perspective3730"
       inkscape:persp3d-origin="16 : 10.666667 : 1"
       inkscape:vp_z="32 : 16 : 1"
       inkscape:vp_y="0 : 1000 : 0"
       inkscape:vp_x="0 : 16 : 1"
       sodipodi:type="inkscape:persp3d" />
    <linearGradient
       inkscape:collect="always"
       xlink:href="#linearGradient47870"
       id="linearGradient15402"
       gradientUnits="userSpaceOnUse"
       gradientTransform="matrix(0.9788196,0,0,0.7154223,-8.5008021,52.112719)"
       x1="32.084972"
       y1="-14.402173"
       x2="32.084972"
       y2="-5.5633383" />
    <radialGradient
       inkscape:collect="always"
       xlink:href="#linearGradient51765"
       id="radialGradient15404"
       gradientUnits="userSpaceOnUse"
       gradientTransform="matrix(1.9576392,-8.146468e-7,6.6614241e-7,1.4565793,-59.017557,62.738067)"
       cx="51.4375"
       cy="-12.203125"
       fx="51.4375"
       fy="-12.203125"
       r="2.171875" />
    <radialGradient
       inkscape:collect="always"
       xlink:href="#linearGradient51765"
       id="radialGradient15406"
       gradientUnits="userSpaceOnUse"
       gradientTransform="matrix(-1.9576392,-9.2540676e-8,-1.2888861e-7,1.4565793,110.01781,62.73803)"
       cx="51.4375"
       cy="-12.203125"
       fx="51.4375"
       fy="-12.203125"
       r="2.171875" />
    <radialGradient
       gradientUnits="userSpaceOnUse"
       gradientTransform="matrix(0.73091589,0,0,0.11149788,-74.217426,25.946501)"
       r="21.535715"
       fy="44.051216"
       fx="25.304846"
       cy="44.051216"
       cx="25.304846"
       id="radialGradient2195-3"
       xlink:href="#linearGradient51765"
       inkscape:collect="always" />
    <linearGradient
       inkscape:collect="always"
       xlink:href="#linearGradient3690"
       id="linearGradient3995"
       gradientUnits="userSpaceOnUse"
       gradientTransform="matrix(2.0203936,0,0,1.9327413,-10.832106,9.7973828)"
       x1="9.5"
       y1="16.26436"
       x2="9.5"
       y2="13.408723" />
    <linearGradient
       inkscape:collect="always"
       xlink:href="#linearGradient3674"
       id="linearGradient2434"
       gradientUnits="userSpaceOnUse"
       gradientTransform="matrix(1.9948902,0,0,2.0368259,-10.192211,9.2270788)"
       x1="16.440886"
       y1="3.9467564"
       x2="16.491102"
       y2="8.1244717" />
    <linearGradient
       inkscape:collect="always"
       xlink:href="#linearGradient2781"
       id="linearGradient2437"
       gradientUnits="userSpaceOnUse"
       gradientTransform="matrix(1.9948902,0,0,1.8861338,-10.192211,11.341342)"
       x1="24.925514"
       y1="40.000107"
       x2="24.925514"
       y2="19.53867" />
    <linearGradient
       inkscape:collect="always"
       xlink:href="#linearGradient3690"
       id="linearGradient2431"
       gradientUnits="userSpaceOnUse"
       gradientTransform="matrix(2.0203936,0,0,1.9327413,-10.83211,9.7973838)"
       x1="9.5"
       y1="16.26436"
       x2="9.5"
       y2="13.408723" />
    <radialGradient
       gradientUnits="userSpaceOnUse"
       gradientTransform="matrix(-1.50631,0.00423282,0.00300614,1.069777,54.81232,-0.459221)"
       r="20.978409"
       fy="15.445013"
       fx="16.981855"
       cy="15.445013"
       cx="16.981855"
       id="radialGradient2103-3"
       xlink:href="#linearGradient2097"
       inkscape:collect="always" />
    <radialGradient
       inkscape:collect="always"
       xlink:href="#linearGradient6146"
       id="radialGradient8765"
       gradientUnits="userSpaceOnUse"
       gradientTransform="matrix(-0.3450886,2.1506619,-1.3857715,-0.229431,-9.121993,-60.756663)"
       cx="14.487679"
       cy="-22.655226"
       fx="14.487679"
       fy="-22.655226"
       r="12.3125" />
    <radialGradient
       inkscape:collect="always"
       xlink:href="#linearGradient6146"
       id="radialGradient8767"
       gradientUnits="userSpaceOnUse"
       gradientTransform="matrix(-9.5889478e-7,0.24917473,-0.25011961,-4.9764474e-8,56.161033,18.504919)"
       cx="15.252953"
       cy="2.8720422"
       fx="15.252953"
       fy="2.8720422"
       r="5.5790009" />
    <radialGradient
       inkscape:collect="always"
       xlink:href="#linearGradient51765"
       id="radialGradient4085"
       gradientUnits="userSpaceOnUse"
       gradientTransform="matrix(0.3358024,0,0,0.03773367,46.354973,24.433722)"
       cx="26.812502"
       cy="0.49999759"
       fx="26.812502"
       fy="0.49999759"
       r="25.312502" />
  </defs>
  <sodipodi:namedview
     id="base"
     pagecolor="#ffffff"
     bordercolor="#666666"
     borderopacity="1.0"
     inkscape:pageopacity="0.0"
     inkscape:pageshadow="2"
     inkscape:zoom="7.9180417"
     inkscape:cx="24.720441"
     inkscape:cy="42.671953"
     inkscape:current-layer="layer1"
     showgrid="true"
     inkscape:grid-bbox="true"
     inkscape:document-units="px"
     inkscape:window-width="1280"
     inkscape:window-height="948"
     inkscape:window-x="0"
     inkscape:window-y="24"
     inkscape:window-maximized="1" />
  <metadata
     id="metadata3616">
    <rdf:RDF>
      <cc:Work
         rdf:about="">
        <dc:format>image/svg+xml</dc:format>
        <dc:type
           rdf:resource="http://purl.org/dc/dcmitype/StillImage" />
        <dc:title />
      </cc:Work>
    </rdf:RDF>
  </metadata>
  <g
     id="layer1"
     inkscape:label="Layer 1"
     inkscape:groupmode="layer">
    <g
       inkscape:label="Layer 1"
       id="g3749"
       transform="matrix(1.8753568,0,0,2.1124953,-273.4992,22.067174)">
      <path
         sodipodi:nodetypes="csssc"
         id="path3668"
         d="M 15.523796,20.224456 C 14.918245,20.224456 14.431341,20.742826 14.431341,21.387509 C 14.431341,22.032192 14.918245,22.569321 15.523796,22.569321 C 16.129346,22.569321 16.568189,22.015109 16.568189,21.370426 C 16.568189,20.725743 16.129346,20.224456 15.523796,20.224456 z"
         style="opacity:0.35800003;fill:none;fill-opacity:1;stroke:#eeeeec;stroke-width:0.85735518;stroke-miterlimit:4;stroke-dasharray:none;stroke-opacity:1" />
    </g>
    <path
       transform="matrix(0.5775205,0,0,0.5750875,-42.468813,-27.596117)"
       d="m 20.255859,-25.066406 c -3.310858,0.199499 -5.826247,1.163976 -7.578125,2.875 -1.752866,1.711989 -2.9094743,4.300865 -3.0859371,8.3125 0.015867,1.132273 0.8260901,1.955078 2.0019531,1.955078 1.187409,0 1.993884,-0.836723 2.117188,-2.195313 a 2.3616811,2.3616811 0 0 1 0.002,-0.01563 c 0.215045,-2.220704 0.567295,-4.038466 1.833984,-5.523437 a 2.3616811,2.3616811 0 0 1 0.01758,-0.01758 c 1.129811,-1.296268 2.845133,-1.998002 4.466797,-1.998047 1.322902,4e-5 2.867268,0.335287 3.945312,1.511719 1.017556,1.082436 1.353493,2.513482 1.353516,3.818359 -3.4e-5,1.931313 -1.098965,3.48321 -2.560547,4.849609 -2.236142,2.1279059 -3.708643,3.6996002 -4.167969,4.2968754 -0.463079,0.6204034 -0.802612,1.3108154 -1.068359,2.15625 a 2.3616811,2.3616811 0 0 1 -0.002,0.00977 c -0.238705,0.7469392 -0.41993,1.8234432 -0.419922,3.3125 v 1 c 0,1.11130237 0.83987,1.9511719 1.951172,1.9511719 1.070036,0 1.919922,-0.88173887 1.919922,-2.0136719 4e-6,-0.279465 -0.0014,-0.1653707 0.0059,-0.0703125 a 2.3616811,2.3616811 0 0 1 -0.0059,-0.2441406 c 0.03997,-1.4697199 0.317079,-2.7800014 0.851562,-3.9121094 a 2.3616811,2.3616811 0 0 1 0.0059,-0.013672 c 0.675925,-1.4074833 1.78803,-2.5908019 3.416015,-4.0703125 a 2.3616811,2.3616811 0 0 1 0.0059,-0.00586 c 2.088989,-1.8843988 3.374841,-3.4248088 3.830078,-4.3027348 0.529531,-1.021242 0.765604,-2.070311 0.765625,-3.193359 -2.2e-5,-2.942899 -0.933917,-4.862071 -3.179688,-6.603516 a 2.3616811,2.3616811 0 0 1 -0.0039,-0.002 c -1.52604,-1.189013 -3.560002,-1.854943 -6.417969,-1.867187 z"
       id="path3261"
       style="font-style:normal;font-weight:normal;font-size:28px;font-family:'Arial Black';fill:none;fill-opacity:1;stroke:#ffffff;stroke-width:1.73519933px;stroke-linecap:butt;stroke-linejoin:miter;stroke-opacity:0.23717951"
       inkscape:original="M 20.1875 -27.4375 C 12.691257 -27.013184 7.581816 -22.887823 7.21875 -13.90625 C 7.2187498 -11.49164 9.1589798 -9.5625 11.59375 -9.5625 C 14.02852 -9.5625002 15.843353 -11.49164 16.0625 -13.90625 C 16.258339 -15.92862 16.65073 -17.312555 17.34375 -18.125 C 18.051814 -18.937384 18.96159 -19.31247 20.03125 -19.3125 C 21.025553 -19.31247 21.767891 -19.098318 22.25 -18.5625 C 22.747141 -18.043906 22.968733 -17.294424 22.96875 -16.34375 C 22.968733 -15.393023 22.376533 -14.359565 21.15625 -13.21875 C 18.866293 -11.04076 17.381617 -9.489251 16.71875 -8.625 C 16.070927 -7.7607066 15.61268 -6.804395 15.28125 -5.75 C 14.949802 -4.712856 14.749991 -3.395424 14.75 -1.71875 L 14.75 -0.71875 C 14.75 1.665617 16.678133 3.59375 19.0625 3.59375 C 21.446868 3.59375 23.34375 1.603115 23.34375 -0.78125 C 23.343751 -0.841938 23.352186 -0.92105995 23.34375 -1.03125 C 23.376461 -2.2340321 23.60787 -3.235607 23.96875 -4 C 24.375497 -4.8469721 25.322121 -5.960896 26.84375 -7.34375 C 29.028213 -9.3142728 30.4794 -10.946927 31.1875 -12.3125 C 31.895548 -13.678026 32.218723 -15.124459 32.21875 -16.59375 C 32.218724 -20.137235 30.866883 -22.936353 28.125 -25.0625 C 26.106211 -26.635438 23.471745 -27.437462 20.1875 -27.4375 z "
       inkscape:radius="-2.361445"
       sodipodi:type="inkscape:offset" />
    <g
       transform="matrix(1.2925882,0,0,1.5763227,-6.0146261,-7.9064192)"
       id="g8007">
      <rect
         width="32.357079"
         height="6.3234997"
         x="9.3215466"
         y="41.809082"
         style="opacity:0.3;fill:url(#linearGradient15402);fill-opacity:1;fill-rule:evenodd;stroke:none"
         id="rect8009" />
      <path
         inkscape:connector-curvature="0"
         d="m 41.6785,41.799698 v 6.327016 c 2.343798,-0.02389 4.251748,-1.421401 4.251748,-3.152329 0,-1.730927 -1.907949,-3.150801 -4.251748,-3.174687 z"
         style="opacity:0.3;fill:url(#radialGradient15404);fill-opacity:1;fill-rule:evenodd;stroke:none"
         id="path8011" />
      <path
         inkscape:connector-curvature="0"
         d="m 9.3217476,41.799698 v 6.327016 C 6.9779494,48.102828 5.07,46.705313 5.07,44.974385 c 0,-1.730927 1.9079484,-3.150801 4.2517476,-3.174687 z"
         style="opacity:0.3;fill:url(#radialGradient15406);fill-opacity:1;fill-rule:evenodd;stroke:none"
         id="path8013" />
    </g>
    <ellipse
       ry="2.966187"
       rx="16.949627"
       cy="30.575617"
       cx="-56.327061"
       transform="scale(-1,1)"
       id="path1314"
       style="opacity:0.2;fill:url(#radialGradient2195-3);fill-opacity:1;stroke:none;stroke-width:0.9274103;stroke-linecap:round;stroke-linejoin:round;stroke-miterlimit:4;stroke-dasharray:none;stroke-dashoffset:0;stroke-opacity:1" />
    <rect
       style="opacity:0.8;fill:none;fill-opacity:1;stroke:url(#linearGradient2431);stroke-width:1.60279858;stroke-miterlimit:4;stroke-dasharray:none;stroke-opacity:1"
       id="rect1919"
       width="43.342896"
       height="40.192654"
       x="5.1325383"
       y="21.734875"
       rx="2.4218514"
       ry="2.4218516" />
    <rect
       style="fill:url(#linearGradient2437);fill-opacity:1;stroke:#888a85;stroke-width:1.60279739;stroke-miterlimit:4;stroke-dasharray:none;stroke-opacity:1"
       id="rect1915"
       width="46.48111"
       height="41.979202"
       x="3.5504191"
       y="21.425243"
       rx="3.2055938"
       ry="3.2055941" />
    <path
       inkscape:connector-curvature="0"
       style="fill:url(#linearGradient2434);fill-opacity:1;stroke:#204a87;stroke-width:1.60279775;stroke-miterlimit:4;stroke-opacity:1"
       d="m 3.550417,28.348831 v -5.24724 c 0,-1.646857 1.256397,-2.972666 2.817034,-2.972666 H 47.21444 c 1.560635,0 2.817034,1.325809 2.817034,2.972666 v 5.24724"
       id="path1917"
       sodipodi:nodetypes="cccccc" />
    <rect
       style="opacity:0.8;fill:none;stroke:url(#linearGradient3995);stroke-width:1.57437038;stroke-miterlimit:4;stroke-dasharray:none;stroke-opacity:1"
       id="rect8019"
       width="43.342896"
       height="40.192654"
       x="5.1325383"
       y="21.734875"
       rx="2.4218514"
       ry="2.4218516" />
    <g
       inkscape:label="Layer 1"
       id="g2415"
       transform="matrix(0.8474812,0,0,0.8474812,34.647081,-3.0015495)">
      <path
         inkscape:connector-curvature="0"
         sodipodi:nodetypes="cscccsc"
         id="path2079"
         d="m 22.978023,4.5 c 11.31746,0 20.598044,7.622561 20.5,17 -0.142857,13.806522 -17.574237,18.772257 -25.25,16.46875 -4.75,1.558036 -5.922008,3.525825 -12.8862937,3.512432 4.035714,-2.65625 3.954569,-4.27635 3.987309,-7.146886 C 5.2028083,31.225857 2.4780243,26.481404 2.4780233,21.5 c 0,-9.377951 9.1825387,-16.9999998 20.4999997,-17 z"
         style="opacity:1;fill:url(#radialGradient2103-3);fill-opacity:1;stroke:#888a85;stroke-width:0.95604855;stroke-linecap:round;stroke-linejoin:round;stroke-miterlimit:4;stroke-dasharray:none;stroke-dashoffset:0;stroke-opacity:1" />
      <path
         inkscape:connector-curvature="0"
         sodipodi:nodetypes="cscccsc"
         id="path2095"
         d="m 22.983361,5.4547703 c 10.786694,0 19.632039,7.2517687 19.538593,16.1730517 C 42.385797,34.76274 25.468865,39.183875 18.153079,36.99242 13.996233,38.554252 13.641818,39.167206 8.5145603,40.162686 10.271863,38.11031 10.36985,36.326316 10.383282,33.953563 6.4505643,30.996331 3.4447683,26.366911 3.4447673,21.627822 c 0,-8.92177 8.7518967,-16.1730517 19.5385937,-16.1730517 z"
         style="opacity:1;fill:none;fill-opacity:1;stroke:#ffffff;stroke-width:0.95625001;stroke-linecap:round;stroke-linejoin:miter;stroke-miterlimit:4;stroke-dasharray:none;stroke-dashoffset:0;stroke-opacity:1" />
    </g>
    <ellipse
       ry="0.95513374"
       rx="8.499999"
       cy="24.452587"
       cx="55.358688"
       style="opacity:0.24694375;fill:url(#radialGradient4085);fill-opacity:1;fill-rule:evenodd;stroke:none;stroke-width:0.20679659;stroke-linecap:round;stroke-linejoin:round;stroke-miterlimit:4;stroke-dasharray:none;stroke-dashoffset:0;stroke-opacity:1"
       id="path14866" />
    <ellipse
       ry="1.7857021"
       rx="2.0961535"
       cy="22.305567"
       cx="55.442673"
       style="fill:url(#radialGradient8767);fill-opacity:1;fill-rule:evenodd;stroke:#204a87;stroke-width:0.94116193;stroke-linecap:butt;stroke-linejoin:round;stroke-miterlimit:4;stroke-dasharray:none;stroke-dashoffset:0;stroke-opacity:1"
       id="path2222" />
    <path
       sodipodi:type="inkscape:offset"
       inkscape:radius="-0.78740001"
       inkscape:original="M 19.96875 5.625 C 17.922508 5.625 16.3125 7.2350084 16.3125 9.28125 C 16.3125 11.327492 17.932229 12.96875 19.96875 12.96875 C 22.005271 12.96875 23.65625 11.317771 23.65625 9.28125 C 23.65625 7.2447298 22.014992 5.625 19.96875 5.625 z "
       style="fill:none;fill-opacity:1;fill-rule:evenodd;stroke:#ffffff;stroke-width:2.64333057;stroke-linecap:butt;stroke-linejoin:round;stroke-miterlimit:4;stroke-dasharray:none;stroke-dashoffset:0;stroke-opacity:0.23529412"
       id="path2317"
       d="m 19.96875,6.4121094 c -1.633218,0 -2.869141,1.235923 -2.869141,2.8691406 0,1.630724 1.25567,2.900391 2.869141,2.900391 1.610965,0 2.900391,-1.289426 2.900391,-2.900391 0,-1.6134696 -1.269667,-2.8691406 -2.900391,-2.8691406 z"
       transform="matrix(0.3860907,0,0,0.32834973,47.729423,19.283863)" />
    <path
       sodipodi:type="inkscape:offset"
       inkscape:radius="-0.68594623"
       inkscape:original="M 20.1875 -27.4375 C 12.691257 -27.013184 7.581816 -22.887823 7.21875 -13.90625 C 7.2187498 -11.49164 9.1589798 -9.5625 11.59375 -9.5625 C 14.02852 -9.5625002 15.843353 -11.49164 16.0625 -13.90625 C 16.258339 -15.92862 16.65073 -17.312555 17.34375 -18.125 C 18.051814 -18.937384 18.96159 -19.31247 20.03125 -19.3125 C 21.025553 -19.31247 21.767891 -19.098318 22.25 -18.5625 C 22.747141 -18.043906 22.968733 -17.294424 22.96875 -16.34375 C 22.968733 -15.393023 22.376533 -14.359565 21.15625 -13.21875 C 18.866293 -11.04076 17.381617 -9.489251 16.71875 -8.625 C 16.070927 -7.7607066 15.61268 -6.804395 15.28125 -5.75 C 14.949802 -4.712856 14.749991 -3.395424 14.75 -1.71875 L 14.75 -0.71875 C 14.75 1.665617 16.678133 3.59375 19.0625 3.59375 C 21.446868 3.59375 23.34375 1.603115 23.34375 -0.78125 C 23.343751 -0.841938 23.352186 -0.92105995 23.34375 -1.03125 C 23.376461 -2.2340321 23.60787 -3.235607 23.96875 -4 C 24.375497 -4.8469721 25.322121 -5.960896 26.84375 -7.34375 C 29.028213 -9.3142728 30.4794 -10.946927 31.1875 -12.3125 C 31.895548 -13.678026 32.218723 -15.124459 32.21875 -16.59375 C 32.218724 -20.137235 30.866883 -22.936353 28.125 -25.0625 C 26.106211 -26.635438 23.471745 -27.437462 20.1875 -27.4375 z "
       style="font-style:normal;font-weight:normal;font-size:28px;font-family:'Arial Black';fill:url(#radialGradient8765);fill-opacity:1;stroke:#204a87;stroke-width:1.73519933px;stroke-linecap:butt;stroke-linejoin:miter;stroke-opacity:1"
       id="path2864"
       d="m 20.207031,-26.75 c -3.622393,0.208492 -6.58719,1.296598 -8.699219,3.359375 -2.112933,2.06366 -3.4220811,5.138905 -3.601562,9.494141 0.00549,2.042185 1.6185855,3.648437 3.6875,3.648437 2.07244,0 3.593849,-1.612843 3.785156,-3.720703 a 0.68601482,0.68601482 0 0 1 0,-0.0039 c 0.201418,-2.079982 0.583702,-3.589858 1.44336,-4.597656 a 0.68601482,0.68601482 0 0 1 0.0039,-0.0059 c 0.830572,-0.952941 1.975073,-1.42184 3.205078,-1.421875 1.089443,3.3e-5 2.065226,0.24928 2.720703,0.972656 0.64834,0.682726 0.902325,1.629338 0.902344,2.681641 -2.2e-5,1.235565 -0.738922,2.420611 -2.029297,3.626953 -2.272584,2.161794 -3.753697,3.7175887 -4.357422,4.5039064 -8.72e-4,0.00116 -0.0011,0.00274 -0.002,0.00391 -2.66e-4,3.461e-4 -0.0017,0.00161 -0.002,0.00195 -0.593095,0.7927473 -1.016087,1.669407 -1.328125,2.6621093 a 0.68601482,0.68601482 0 0 1 0,0.00391 c -0.304508,0.9528461 -0.500009,2.2000901 -0.5,3.8222656 v 1 c 0,2.0145706 1.612382,3.6269531 3.626953,3.6269531 2.002584,0 3.595703,-1.6688912 3.595703,-3.6894531 2e-6,-0.12423776 0.0058,-0.14669554 0.002,-0.19726562 a 0.68601482,0.68601482 0 0 1 -0.002,-0.0722656 c 0.03482,-1.2803215 0.278145,-2.3709817 0.689453,-3.2421876 a 0.68601482,0.68601482 0 0 1 0.002,-0.00391 c 0.484937,-1.0097879 1.48068,-2.143757 3.033203,-3.5546875 a 0.68601482,0.68601482 0 0 1 0.002,-0.00195 c 2.15673,-1.9455058 3.55871,-3.5514684 4.193359,-4.7753904 0.656193,-1.26552 0.955053,-2.596129 0.955078,-3.964844 -2.5e-5,-3.369028 -1.230351,-5.911382 -3.828125,-7.925781 a 0.68601482,0.68601482 0 0 1 -0.002,-0.002 C 25.827697,-25.982723 23.369094,-26.746463 20.207031,-26.75 Z"
       transform="matrix(0.5775205,0,0,0.50940462,44.419744,17.301815)" />
    <path
       transform="matrix(0.5775205,0,0,0.50940462,44.419744,17.301815)"
       d="m 20.255859,-25.066406 c -3.310858,0.199499 -5.826247,1.163976 -7.578125,2.875 -1.752866,1.711989 -2.9094743,4.300865 -3.0859371,8.3125 0.015867,1.132273 0.8260901,1.955078 2.0019531,1.955078 1.187409,0 1.993884,-0.836723 2.117188,-2.195313 a 2.3616811,2.3616811 0 0 1 0.002,-0.01563 c 0.215045,-2.220704 0.567295,-4.038466 1.833984,-5.523437 a 2.3616811,2.3616811 0 0 1 0.01758,-0.01758 c 1.129811,-1.296268 2.845133,-1.998002 4.466797,-1.998047 1.322902,4e-5 2.867268,0.335287 3.945312,1.511719 1.017556,1.082436 1.353493,2.513482 1.353516,3.818359 -3.4e-5,1.931313 -1.098965,3.48321 -2.560547,4.849609 -2.236142,2.1279059 -3.708643,3.6996002 -4.167969,4.2968754 -0.463079,0.6204034 -0.802612,1.3108154 -1.068359,2.15625 a 2.3616811,2.3616811 0 0 1 -0.002,0.00977 c -0.238705,0.7469392 -0.41993,1.8234432 -0.419922,3.3125 v 1 c 0,1.11130237 0.83987,1.9511719 1.951172,1.9511719 1.070036,0 1.919922,-0.88173887 1.919922,-2.0136719 4e-6,-0.279465 -0.0014,-0.1653707 0.0059,-0.0703125 a 2.3616811,2.3616811 0 0 1 -0.0059,-0.2441406 c 0.03997,-1.4697199 0.317079,-2.7800014 0.851562,-3.9121094 a 2.3616811,2.3616811 0 0 1 0.0059,-0.013672 c 0.675925,-1.4074833 1.78803,-2.5908019 3.416015,-4.0703125 a 2.3616811,2.3616811 0 0 1 0.0059,-0.00586 c 2.088989,-1.8843988 3.374841,-3.4248088 3.830078,-4.3027348 0.529531,-1.021242 0.765604,-2.070311 0.765625,-3.193359 -2.2e-5,-2.942899 -0.933917,-4.862071 -3.179688,-6.603516 a 2.3616811,2.3616811 0 0 1 -0.0039,-0.002 c -1.52604,-1.189013 -3.560002,-1.854943 -6.417969,-1.867187 z"
       id="path3261-5"
       style="font-style:normal;font-weight:normal;font-size:28px;font-family:'Arial Black';fill:none;fill-opacity:1;stroke:#ffffff;stroke-width:1.73519933px;stroke-linecap:butt;stroke-linejoin:miter;stroke-opacity:0.23717951"
       inkscape:original="M 20.1875 -27.4375 C 12.691257 -27.013184 7.581816 -22.887823 7.21875 -13.90625 C 7.2187498 -11.49164 9.1589798 -9.5625 11.59375 -9.5625 C 14.02852 -9.5625002 15.843353 -11.49164 16.0625 -13.90625 C 16.258339 -15.92862 16.65073 -17.312555 17.34375 -18.125 C 18.051814 -18.937384 18.96159 -19.31247 20.03125 -19.3125 C 21.025553 -19.31247 21.767891 -19.098318 22.25 -18.5625 C 22.747141 -18.043906 22.968733 -17.294424 22.96875 -16.34375 C 22.968733 -15.393023 22.376533 -14.359565 21.15625 -13.21875 C 18.866293 -11.04076 17.381617 -9.489251 16.71875 -8.625 C 16.070927 -7.7607066 15.61268 -6.804395 15.28125 -5.75 C 14.949802 -4.712856 14.749991 -3.395424 14.75 -1.71875 L 14.75 -0.71875 C 14.75 1.665617 16.678133 3.59375 19.0625 3.59375 C 21.446868 3.59375 23.34375 1.603115 23.34375 -0.78125 C 23.343751 -0.841938 23.352186 -0.92105995 23.34375 -1.03125 C 23.376461 -2.2340321 23.60787 -3.235607 23.96875 -4 C 24.375497 -4.8469721 25.322121 -5.960896 26.84375 -7.34375 C 29.028213 -9.3142728 30.4794 -10.946927 31.1875 -12.3125 C 31.895548 -13.678026 32.218723 -15.124459 32.21875 -16.59375 C 32.218724 -20.137235 30.866883 -22.936353 28.125 -25.0625 C 26.106211 -26.635438 23.471745 -27.437462 20.1875 -27.4375 z "
       inkscape:radius="-2.361445"
       sodipodi:type="inkscape:offset" />
  </g>
</svg>
