<?xml version="1.0" encoding="UTF-8" standalone="no"?>
<!-- Created with Inkscape (http://www.inkscape.org/) -->

<svg
   xmlns:dc="http://purl.org/dc/elements/1.1/"
   xmlns:cc="http://creativecommons.org/ns#"
   xmlns:rdf="http://www.w3.org/1999/02/22-rdf-syntax-ns#"
   xmlns:svg="http://www.w3.org/2000/svg"
   xmlns="http://www.w3.org/2000/svg"
   xmlns:xlink="http://www.w3.org/1999/xlink"
   xmlns:sodipodi="http://sodipodi.sourceforge.net/DTD/sodipodi-0.dtd"
   xmlns:inkscape="http://www.inkscape.org/namespaces/inkscape"
   inkscape:export-ydpi="90.000000"
   inkscape:export-xdpi="90.000000"
   inkscape:export-filename="/home/patrick/Desktop/desktop.png"
   width="48"
   height="48"
   id="svg11300"
   sodipodi:version="0.32"
   inkscape:version="0.47+devel r9425"
   sodipodi:docname="plugin-glib.svg"
   inkscape:output_extension="org.inkscape.output.svg.inkscape"
   version="1.0">
  <defs
     id="defs3">
    <linearGradient
       inkscape:collect="always"
       id="linearGradient8700">
      <stop
         style="stop-color:#000000;stop-opacity:1;"
         offset="0"
         id="stop8702" />
      <stop
         style="stop-color:#000000;stop-opacity:0;"
         offset="1"
         id="stop8704" />
    </linearGradient>
    <radialGradient
       inkscape:collect="always"
       xlink:href="#linearGradient8700"
       id="radialGradient8706"
       cx="-3.8750002"
       cy="35.4375"
       fx="-3.8750002"
       fy="35.4375"
       r="8"
       gradientTransform="matrix(1,0,0,0.3671875,0,22.425292)"
       gradientUnits="userSpaceOnUse" />
    <linearGradient
       inkscape:collect="always"
       xlink:href="#aigrd1"
       id="linearGradient3773"
       gradientUnits="userSpaceOnUse"
       gradientTransform="matrix(0.200685,0,0,0.200685,-54.33576,-1.050787)"
       x1="99.777298"
       y1="15.4238"
       x2="153.0005"
       y2="248.6311" />
    <linearGradient
       id="aigrd1"
       gradientUnits="userSpaceOnUse"
       x1="99.777298"
       y1="15.4238"
       x2="153.0005"
       y2="248.6311">
      <stop
         offset="0"
         style="stop-color:#184375"
         id="stop53300" />
      <stop
         offset="1"
         style="stop-color:#C8BDDC"
         id="stop53302" />
    </linearGradient>
  </defs>
  <sodipodi:namedview
     stroke="#ef2929"
     fill="#eeeeec"
     id="base"
     pagecolor="#ffffff"
     bordercolor="#666666"
     borderopacity="0.25490196"
     inkscape:pageopacity="0.0"
     inkscape:pageshadow="2"
     inkscape:zoom="11.461022"
     inkscape:cx="24"
     inkscape:cy="24"
     inkscape:current-layer="layer1"
     showgrid="false"
     inkscape:grid-bbox="true"
     inkscape:document-units="px"
     inkscape:showpageshadow="false"
     inkscape:window-width="1280"
     inkscape:window-height="975"
     inkscape:window-x="0"
     inkscape:window-y="24"
     showguides="true"
     inkscape:guide-bbox="true"
     inkscape:window-maximized="1"
     inkscape:snap-global="false">
    <inkscape:grid
       type="xygrid"
       id="grid7913"
       empspacing="5"
       visible="true"
       enabled="true"
       snapvisiblegridlinesonly="true" />
  </sodipodi:namedview>
  <metadata
     id="metadata4">
    <rdf:RDF>
      <cc:Work
         rdf:about="">
        <dc:format>image/svg+xml</dc:format>
        <dc:type
           rdf:resource="http://purl.org/dc/dcmitype/StillImage" />
        <dc:creator>
          <cc:Agent>
            <dc:title>Patrick Niklaus</dc:title>
          </cc:Agent>
        </dc:creator>
        <dc:source />
        <cc:license
           rdf:resource="http://creativecommons.org/licenses/GPL/2.0/" />
        <dc:title>SchemeP</dc:title>
        <dc:subject>
          <rdf:Bag />
        </dc:subject>
      </cc:Work>
      <cc:License
         rdf:about="http://creativecommons.org/licenses/GPL/2.0/">
        <cc:permits
           rdf:resource="http://web.resource.org/cc/Reproduction" />
        <cc:permits
           rdf:resource="http://web.resource.org/cc/Distribution" />
        <cc:requires
           rdf:resource="http://web.resource.org/cc/Notice" />
        <cc:permits
           rdf:resource="http://web.resource.org/cc/DerivativeWorks" />
        <cc:requires
           rdf:resource="http://web.resource.org/cc/ShareAlike" />
        <cc:requires
           rdf:resource="http://web.resource.org/cc/SourceCode" />
      </cc:License>
    </rdf:RDF>
  </metadata>
  <g
     id="layer1"
     inkscape:label="Layer 1"
     inkscape:groupmode="layer"
     transform="translate(0,16)">
    <path
       sodipodi:type="arc"
       style="opacity:0.2;fill:url(#radialGradient8706);fill-opacity:1;stroke:none"
       id="path8698"
       sodipodi:cx="-3.8750002"
       sodipodi:cy="35.4375"
       sodipodi:rx="8"
       sodipodi:ry="2.9375002"
       d="m 4.1249998,35.4375 a 8,2.9375002 0 1 1 -15.9999998,0 8,2.9375002 0 1 1 15.9999998,0 z"
       transform="matrix(1.4439928,0,0,1.213656,22.705738,-14.197516)" />
    <path
       d="m 28.418065,-14.745238 c -7.86029,0 -9.334133,12.7864205 -4.912294,12.7864205 4.4212,0 12.772893,-12.7864205 4.912294,-12.7864205 z m -12.150899,1.56265 c -0.124851,-5.8e-4 -0.251094,0.01353 -0.389396,0.03421 -4.423443,0.655913 -2.864523,9.4398312 -0.509204,9.6040898 2.280796,0.1590596 4.767885,-9.6230688 0.8986,-9.6382978 z m -7.5181663,3.4789214 c -0.2703241,-0.020293 -0.5753398,0.048124 -0.9085726,0.2053087 -3.5553788,1.676098 -0.5440303,8.58628027 1.4477132,8.1212696 1.8064767,-0.420764 2.0739017,-8.1316674 -0.5391406,-8.3265783 z m -5.8108753,5.4293835 c -0.3091129,-0.011596 -0.6425197,0.095668 -0.9984228,0.3764089 -2.84610432,2.2465752 0.961354,7.6740452 2.6358479,6.832355 1.4651846,-0.7367997 0.5264236,-7.125562 -1.6374251,-7.2087639 z M 18.264012,-0.12239587 C 12.302987,0.10877787 4.980968,3.6086346 3.6769689,10.280119 c -1.486618,7.59968 6.1115813,18.135975 14.0479021,18.135975 3.904267,0 8.412921,-4.023039 9.255454,-9.12502 0.643467,-3.890541 -7.573789,-2.334818 -7.278553,0.239532 0.35368,3.085716 -1.986313,4.612697 -4.273293,2.623442 C 8.1480712,15.821653 27.485991,12.657916 26.211524,4.0066702 25.781773,1.0893795 22.342625,-0.28057613 18.264012,-0.12239587 z"
       id="path8"
       style="fill:#729fcf;fill-opacity:1;stroke:#204a87;stroke-width:0.77694857;stroke-miterlimit:4;stroke-opacity:1;stroke-dasharray:none"
       inkscape:connector-curvature="0" />
    <path
       sodipodi:type="inkscape:offset"
       inkscape:radius="-0.24955741"
       inkscape:original="M 18.96875 1.21875 C 17.849709 1.21875 16.98371 1.6277511 16.3125 2.3125 C 15.641289 2.9972489 15.17711 3.9786161 14.9375 4.9375 C 14.697889 5.8963838 14.719389 6.8481607 14.90625 7.46875 C 14.999681 7.7790451 15.124476 8.0056394 15.25 8.125 C 15.375525 8.2443603 15.490712 8.28125 15.6875 8.28125 C 16.080921 8.2812499 16.899453 7.8928094 17.6875 7.15625 C 18.475546 6.4196905 19.238898 5.3911131 19.75 4.40625 C 20.261103 3.4213866 20.480096 2.4659103 20.375 1.96875 C 20.322451 1.7201698 20.218697 1.5958823 20.03125 1.46875 C 19.843803 1.3416177 19.528299 1.21875 18.96875 1.21875 z M 10.6875 2.25 C 10.184688 2.3245567 9.9342761 2.5787353 9.71875 3.03125 C 9.5032242 3.4837649 9.3980327 4.1658167 9.4375 4.84375 C 9.4769674 5.5216836 9.654433 6.1937593 9.875 6.65625 C 9.9397573 6.8801778 10.111768 7.1189681 10.25 7.21875 C 10.34669 7.2885435 10.580613 6.876024 10.71875 6.625 C 10.995025 6.1229514 11.246891 5.3931957 11.375 4.65625 C 11.503109 3.9193043 11.473038 3.1807926 11.34375 2.75 C 11.279105 2.5346038 11.195748 2.4076381 11.125 2.34375 C 11.054252 2.2798619 11.015637 2.2506764 10.84375 2.25 C 10.814529 2.2498849 10.758447 2.2394844 10.6875 2.25 z M 5.75 4.59375 C 5.7213266 4.5916113 5.6758255 4.5880937 5.53125 4.65625 C 5.145158 4.8382622 4.9645162 5.0844491 4.875 5.5 C 4.7854835 5.9155512 4.8107201 6.4947551 4.96875 7.03125 C 5.12678 7.5677448 5.4023597 8.0697168 5.65625 8.375 C 6.1315726 8.9868966 6.0105551 8.4589665 6.15625 8.21875 C 6.2847376 7.7976922 6.3533306 7.1933408 6.34375 6.59375 C 6.3341696 5.9941591 6.2479969 5.4028688 6.09375 5.03125 C 5.939503 4.6596316 5.8369323 4.6002347 5.75 4.59375 z M 1.90625 8.21875 C 1.8751415 8.2175538 1.8199237 8.2080328 1.6875 8.3125 C 1.3860852 8.5504237 1.3209384 8.7823634 1.3125 9.15625 C 1.3040616 9.5301367 1.4015438 10.008539 1.625 10.4375 C 1.8484563 10.866462 2.1796712 11.235524 2.4375 11.4375 C 2.7299825 11.72416 2.7229435 11.547802 2.75 11.28125 C 2.7943599 10.913864 2.7508128 10.348771 2.65625 9.84375 C 2.5616872 9.3387302 2.4001833 8.8699497 2.21875 8.5625 C 2.0373166 8.25505 1.9166491 8.2191498 1.90625 8.21875 z M 12.1875 11 C 10.323826 11.072278 8.2086361 11.637937 6.5 12.71875 C 4.7913632 13.799563 3.5149756 15.348582 3.125 17.34375 C 2.6867091 19.58431 3.630561 22.456311 5.34375 24.71875 C 7.0569386 26.981188 9.4775178 28.5625 11.8125 28.5625 C 13.930691 28.562502 16.777133 26.177751 17.28125 23.125 C 17.348472 22.718556 17.275386 22.693327 17.03125 22.5625 C 16.787114 22.431672 16.267996 22.342836 15.71875 22.40625 C 15.169504 22.469663 14.577129 22.652032 14.21875 22.875 C 14.03956 22.986484 13.927391 23.111926 13.875 23.1875 C 13.82261 23.263074 13.841829 23.2645 13.84375 23.28125 C 13.984756 24.511478 13.602383 25.622756 12.75 26.15625 C 11.897618 26.689746 10.739541 26.493862 9.8125 25.6875 C 9.1326601 25.096183 8.6625135 24.489771 8.5 23.8125 C 8.3374869 23.135227 8.4881474 22.464017 8.8125 21.90625 C 9.4612048 20.790715 10.67052 19.92856 11.9375 19.03125 C 13.204481 18.133938 14.565787 17.210123 15.5 16.21875 C 16.434213 15.227376 16.922385 14.295162 16.75 13.125 C 16.645571 12.416109 16.236526 11.883185 15.4375 11.5 C 14.638474 11.116814 13.464023 10.950494 12.1875 11 z "
       style="fill:none;stroke:#ffffff;stroke-width:0.5192222;stroke-miterlimit:4;stroke-opacity:0.29166667;stroke-dasharray:none"
       id="path8152"
       d="M 18.96875,1.46875 C 17.910517,1.46875 17.130869,1.8564053 16.5,2.5 15.871966,3.1407011 15.418442,4.0758059 15.1875,5 c -0.229344,0.9177957 -0.199325,1.8480514 -0.03125,2.40625 0.08541,0.2836677 0.210165,0.4636554 0.28125,0.53125 0.08888,0.084519 0.0844,0.09375 0.25,0.09375 0.114578,0 0.387612,-0.072192 0.71875,-0.25 0.331138,-0.177808 0.746478,-0.4587091 1.125,-0.8125 0.762107,-0.7123149 1.502971,-1.7297546 2,-2.6875 0.494131,-0.9521589 0.670956,-1.8847742 0.59375,-2.25 C 20.082717,1.8312347 20.06657,1.7962336 19.90625,1.6875 19.764646,1.5914597 19.491767,1.46875 18.96875,1.46875 z M 10.71875,2.5 C 10.28545,2.5642495 10.136358,2.7074821 9.9375,3.125 9.7502801,3.5180843 9.6500924,4.2011962 9.6875,4.84375 9.7250009,5.4879057 9.8912304,6.1378515 10.09375,6.5625 A 0.24958236,0.24958236 0 0 1 10.125,6.59375 c 0.02559,0.088485 0.09194,0.1618013 0.15625,0.25 C 10.349443,6.739115 10.441735,6.6058806 10.5,6.5 10.757915,6.0313148 11.001583,5.3349569 11.125,4.625 11.247162,3.9222639 11.203529,3.1782866 11.09375,2.8125 11.038322,2.6278148 10.989805,2.5502634 10.96875,2.53125 10.936109,2.5017737 10.9343,2.4987701 10.9375,2.5 c 0.0032,0.00123 -0.02186,2.829e-4 -0.09375,0 -0.08718,-3.434e-4 -0.09653,-0.00422 -0.125,0 z m -5,2.34375 C 5.7041621,4.8481983 5.6721488,4.852773 5.625,4.875 5.29026,5.0328038 5.2042345,5.1946787 5.125,5.5625 c -0.07743,0.3594444 -0.052559,0.9095471 0.09375,1.40625 0.1477323,0.5015354 0.4003377,0.9798612 0.625,1.25 0.017024,0.021916 0.015807,0.012945 0.03125,0.03125 0.00923,-0.031559 0.015752,-0.05924 0.03125,-0.09375 C 6.0225177,7.7752371 6.1029838,7.1716368 6.09375,6.59375 6.0845096,6.0154402 6.0059317,5.4404467 5.875,5.125 5.8035802,4.9529324 5.7422629,4.8699273 5.71875,4.84375 z M 1.84375,8.5 C 1.5905209,8.699888 1.5703372,8.8090026 1.5625,9.15625 1.5551482,9.4819914 1.6416784,9.9245903 1.84375,10.3125 2.0221373,10.654944 2.2867578,10.966221 2.5,11.15625 2.5261232,10.830896 2.4909954,10.32759 2.40625,9.875 2.316006,9.3930449 2.1579478,8.9551521 2,8.6875 1.9324951,8.5731088 1.9073888,8.5324131 1.875,8.5 c -0.00261,-0.00261 -0.028919,0.00221 -0.03125,0 z m 10.34375,2.75 c -1.820598,0.07061 -3.8992555,0.6354 -5.5625,1.6875 -1.6650492,1.053241 -2.8750254,2.550329 -3.25,4.46875 -0.4176184,2.134881 0.4777907,4.939675 2.15625,7.15625 1.6786777,2.216863 4.0589391,3.75 6.28125,3.75 0.965441,1e-6 2.152192,-0.555465 3.15625,-1.5 1.004058,-0.944535 1.821041,-2.256564 2.0625,-3.71875 0.0311,-0.188037 0.02316,-0.23346 0.03125,-0.21875 0.0081,0.01471 -0.03093,-0.02659 -0.15625,-0.09375 -0.155775,-0.08348 -0.651182,-0.183313 -1.15625,-0.125 -0.5154,0.05951 -1.100779,0.247449 -1.40625,0.4375 -0.147558,0.0918 -0.218963,0.205229 -0.25,0.25 0.118184,1.261197 -0.286609,2.447837 -1.21875,3.03125 -0.961836,0.602002 -2.229159,0.36077 -3.21875,-0.5 -0.7005995,-0.609374 -1.2261422,-1.249405 -1.40625,-2 -0.1794072,-0.747679 -0.00746,-1.489802 0.34375,-2.09375 0.6883693,-1.183743 1.920114,-2.071153 3.1875,-2.96875 1.269857,-0.899349 2.626953,-1.790374 3.53125,-2.75 0.910421,-0.966126 1.347199,-1.822202 1.1875,-2.90625 -0.09336,-0.633774 -0.408627,-1.078966 -1.15625,-1.4375 C 14.605308,11.364618 13.436472,11.201562 12.1875,11.25 z"
       transform="matrix(1.4963701,0,0,1.4963701,0.05953179,-15.45919)" />
    <g
       transform="matrix(0.60663074,0,0,0.60663074,19.141836,1.8607182)"
       id="g3988">
      <path
         inkscape:connector-curvature="0"
         id="path3243"
         d="M 22.699525,0.94746963 C 22.22635,0.97984519 21.766437,1.0531317 21.301673,1.1063165 l -0.03177,0 -1.111928,6.0679506 C 18.345621,7.5870046 16.640562,8.2874574 15.106644,9.2392765 L 10.118853,5.6493371 C 8.770521,6.6961412 7.543552,7.9170049 6.465374,9.2392765 l 3.462862,5.0513305 c -1.051422,1.606783 -1.842083,3.441487 -2.287395,5.369025 -7.6e-5,0.0091 -6.2e-5,0.03018 0,0.03177 l -6.036181,0.95308 c -0.110357,0.901369 -0.158847,1.832904 -0.158847,2.763936 0,0.761753 0.021033,1.513329 0.095308,2.255625 l 6.036182,1.080159 c 0.429297,2.096161 1.244809,4.053785 2.382703,5.782026 l -3.58994,4.924254 c 1.028135,1.276384 2.215105,2.43848 3.494632,3.462861 l 5.0831,-3.494631 c 1.776475,1.133244 3.759545,1.927892 5.909103,2.319165 l 0.953082,6.004411 c 0.677254,0.06165 1.371775,0.06354 2.065009,0.06354 0.978685,-10e-7 1.91352,-0.03709 2.859244,-0.158847 l 1.143697,-6.131489 c 2.040927,-0.507904 3.958179,-1.388998 5.62318,-2.573319 l 4.892483,3.55817 c 1.26877,-1.079445 2.428987,-2.320188 3.431093,-3.653479 l -3.55817,-5.146638 c 0.963606,-1.664197 1.631298,-3.500366 1.969701,-5.464333 l 6.004412,-0.953081 c 0.05266,-0.62659 0.06354,-1.234265 0.06354,-1.874393 0,-1.1124 -0.129295,-2.203101 -0.285924,-3.272246 l -6.09972,-1.111928 c -0.478008,-1.76508 -1.262312,-3.41188 -2.255625,-4.892484 L 41.25284,9.2075071 C 40.140075,7.8466524 38.870718,6.5895264 37.472284,5.5222596 l -5.178408,3.55817 C 30.805549,8.200202 29.203897,7.5248159 27.464931,7.1424978 L 26.51185,1.1063165 C 25.644369,1.0042729 24.769749,0.94746963 23.874992,0.94746963 c -0.241826,1e-8 -0.490706,-0.007609 -0.730696,0 -0.116995,0.003709 -0.232771,-0.006806 -0.349463,0 -0.0316,0.001843 -0.06376,-0.002158 -0.09531,0 z M 23.525529,16.387386 c 0.116063,-0.0059 0.231944,0 0.349463,0 3.760606,0 6.830416,3.06981 6.830416,6.830416 1e-6,3.760605 -3.069811,6.798646 -6.830416,6.798646 -3.760605,1e-6 -6.798646,-3.038041 -6.798646,-6.798646 10e-7,-3.643086 2.851212,-6.647839 6.449183,-6.830416 z"
         style="color:#000000;fill:url(#linearGradient3773);fill-opacity:1;fill-rule:nonzero;stroke:#3f4561;stroke-width:1;stroke-linecap:round;stroke-linejoin:round;stroke-miterlimit:4;stroke-opacity:1;stroke-dasharray:none;stroke-dashoffset:0;marker:none;visibility:visible;display:inline;overflow:visible"
         inkscape:r_cx="true"
         inkscape:r_cy="true" />
      <path
         transform="matrix(0.616598,0,0,0.616598,9.38202,8.539674)"
         d="m 36.239223,23.781593 c 0,7.029438 -5.698484,12.727923 -12.727922,12.727923 -7.029437,0 -12.727922,-5.698485 -12.727922,-12.727923 0,-7.029437 5.698485,-12.727922 12.727922,-12.727922 7.029438,0 12.727922,5.698485 12.727922,12.727922 z"
         sodipodi:ry="12.727922"
         sodipodi:rx="12.727922"
         sodipodi:cy="23.781593"
         sodipodi:cx="23.511301"
         id="path3283"
         style="opacity:0.64772728;color:#000000;fill:none;stroke:#ffffff;stroke-width:1.62180054;stroke-linecap:butt;stroke-linejoin:miter;stroke-miterlimit:4;stroke-opacity:1;stroke-dasharray:none;stroke-dashoffset:0;marker:none;visibility:visible;display:inline;overflow:visible"
         sodipodi:type="arc"
         inkscape:r_cx="true"
         inkscape:r_cy="true" />
      <path
         inkscape:connector-curvature="0"
         sodipodi:nodetypes="ccccccccccccccccccccccccccccccccc"
         style="opacity:0.34659089;color:#000000;fill:none;stroke:#ffffff;stroke-width:0.99999923;stroke-linecap:butt;stroke-linejoin:miter;stroke-miterlimit:4;stroke-opacity:1;stroke-dasharray:none;stroke-dashoffset:0;marker:none;visibility:visible;display:inline;overflow:visible"
         d="m 21.995808,2.1484671 -0.892784,5.8750572 c -1.69877,0.3868703 -4.823582,1.5700792 -6.261367,2.4622467 L 10.091975,6.9406268 C 8.828145,7.9218257 8.741474,7.9883656 7.730867,9.2277688 l 3.434196,5.0932192 c -0.985526,1.506083 -2.169267,4.189994 -2.594285,6.107942 0,0 -6.01779,1.014425 -6.01779,1.014425 -0.103441,0.844879 -0.053728,2.653173 0.015892,3.348948 l 5.748217,1.035517 c 0.402393,1.96479 1.908227,5.127412 2.974807,6.747341 l -3.635002,4.802558 c 0.963699,1.196391 1.156572,1.30587 2.355908,2.266051 l 4.860631,-3.561037 c 1.66514,1.062221 4.970289,2.354376 6.98513,2.721127 l 0.797728,5.801092 c 0.63481,0.05778 2.38853,0.219875 3.274984,0.105749 l 0.892783,-6.03888 c 1.913018,-0.476072 5.218473,-1.832925 6.779125,-2.943023 l 4.855433,3.50816 c 1.189254,-1.011792 1.199909,-1.164249 2.139211,-2.41398 l -3.59802,-5.114311 c 0.903215,-1.5599 2.071087,-4.610599 2.388282,-6.45148 l 5.890949,-0.977443 c 0.04935,-0.58732 0.05176,-2.225166 -0.09506,-3.227305 L 39.182092,20.016922 C 38.73404,18.362463 37.196418,15.381153 36.265359,13.993342 L 40.080075,9.1907857 C 39.037052,7.915218 38.64924,7.7402002 37.338448,6.7398212 L 32.313994,10.337839 C 30.918941,9.5127782 28.137095,8.2550417 26.507114,7.8966842 L 25.619528,2.1484671 c -0.813114,-0.095648 -3.15904,-0.053175 -3.62372,0 z"
         id="path3285"
         inkscape:r_cx="true"
         inkscape:r_cy="true" />
      <path
         inkscape:connector-curvature="0"
         sodipodi:nodetypes="cccccccccsccccccccccccccccccccsccccc"
         inkscape:r_cy="true"
         inkscape:r_cx="true"
         id="path3767"
         d="M 10.102903,6.2970655 C 8.7545689,7.3438694 8.1656464,7.9719226 7.0874684,9.2941942 l 3.4024586,4.9649588 c -1.0514198,1.598602 -2.1582995,4.166961 -2.3475411,5.728553 0,0 -6.0625,1.044194 -6.0625,1.044194 C 2.0109129,21.595256 1.90625,22.884803 1.90625,22.884803 l 0.1767767,1.5625 c 0.42773,0.08833 0.840155,0.170515 1.28125,0.21875 l 0.5,-1.53125 c 0.344041,0.02848 0.679653,0.0625 1.03125,0.0625 0.351208,0 0.718458,-0.03383 1.0625,-0.0625 l 0.46875,1.53125 c 0.441288,-0.04824 0.884772,-0.130415 1.3125,-0.21875 l 0,-1.5625 c 0.685757,-0.159623 1.332001,-0.387758 1.96875,-0.65625 l 0.9375003,1.28125 c 0.402351,-0.182094 0.775596,-0.375819 1.15625,-0.59375 l -0.5,-1.5 c 0.597233,-0.36225 1.161752,-0.795347 1.6875,-1.25 l 1.28125,0.9375 c 0.325635,-0.29658 0.641113,-0.611862 0.9375,-0.9375 l -0.9375,-1.25 c 0.454846,-0.525748 0.8565,-1.089882 1.21875,-1.6875 l 1.5,0.46875 c 0.217931,-0.380847 0.443294,-0.754094 0.625,-1.15625 l -1.28125,-0.9375 c 0.26849,-0.636749 0.464989,-1.282992 0.625,-1.96875 l 1.59375,0 c 0.08833,-0.427727 0.139459,-0.871212 0.1875,-1.3125 l -1.5,-0.46875 c 0.02886,-0.343848 0.0625,-0.711097 0.0625,-1.0625 -1e-6,-0.351403 -0.03402,-0.687014 -0.0625,-1.0312496 l 1.5,-0.46875 c -0.04555,-0.4198872 -0.105591,-0.8419986 -0.1875,-1.25 -1.147428,0.399301 -2.55266,1.1531195 -3.568512,1.7834709 L 10.102903,6.2970655 z"
         style="opacity:0.5;color:#000000;fill:#ffffff;fill-opacity:1;fill-rule:nonzero;stroke:none;stroke-width:1;marker:none;visibility:visible;display:inline;overflow:visible" />
      <path
         inkscape:connector-curvature="0"
         inkscape:r_cy="true"
         inkscape:r_cx="true"
         id="path3770"
         d="m 37.236641,17.217754 c -0.383781,0.181376 -0.746638,0.385755 -1.113405,0.595541 l 0.56965,1.734841 c -0.697094,0.4223 -1.35473,0.919689 -1.967878,1.450015 l -1.475909,-1.087512 c -0.380086,0.345899 -0.741772,0.707584 -1.087511,1.087512 l 1.087511,1.475908 c -0.530326,0.613312 -1.027552,1.270943 -1.450015,1.967878 l -0.543756,-0.181252 c -0.04768,0.700283 -0.236379,1.361485 -0.517862,1.967878 l 0.103572,0.07768 c -0.313157,0.74268 -0.564548,1.530398 -0.750901,2.330382 l -1.475908,0 c -0.136283,0.08545 -0.270553,0.18506 -0.414291,0.258931 -0.07837,0.415267 -0.134912,0.817326 -0.181251,1.242871 l 1.760733,0.569648 c -0.03339,0.401276 -0.05179,0.807195 -0.05179,1.216978 -2e-6,0.409941 0.0184,0.815701 0.05179,1.216977 l -1.760733,0.569648 c 0.05602,0.514755 0.129991,1.02867 0.233038,1.527695 l 1.838412,-0.02589 c 0.128118,0.549987 0.303065,1.107439 0.49197,1.631267 0.744916,-0.28728 1.473833,-0.630185 2.149129,-1.035725 -0.411587,-1.216041 -0.647328,-2.529108 -0.647328,-3.883969 10e-7,-5.197933 3.292381,-9.636655 7.897405,-11.341191 l -1.087511,-0.181253 c -0.222788,-0.822662 -0.511324,-1.628591 -0.880367,-2.382167 -0.01085,-0.02216 -0.01492,-0.05558 -0.02589,-0.07768 l -0.05179,-0.05179 -0.699115,-0.673221 z"
         style="opacity:0.5;color:#000000;fill:#ffffff;fill-opacity:1;fill-rule:nonzero;stroke:none;stroke-width:1;marker:none;visibility:visible;display:inline;overflow:visible" />
    </g>
  </g>
</svg>
