<?xml version="1.0" encoding="UTF-8" standalone="no"?>
<!-- Created with Inkscape (http://www.inkscape.org/) -->

<svg
   xmlns:dc="http://purl.org/dc/elements/1.1/"
   xmlns:cc="http://creativecommons.org/ns#"
   xmlns:rdf="http://www.w3.org/1999/02/22-rdf-syntax-ns#"
   xmlns:svg="http://www.w3.org/2000/svg"
   xmlns="http://www.w3.org/2000/svg"
   xmlns:xlink="http://www.w3.org/1999/xlink"
   xmlns:sodipodi="http://sodipodi.sourceforge.net/DTD/sodipodi-0.dtd"
   xmlns:inkscape="http://www.inkscape.org/namespaces/inkscape"
   inkscape:export-ydpi="90.000000"
   inkscape:export-xdpi="90.000000"
   inkscape:export-filename="/home/jimmac/Desktop/wi-fi.png"
   width="48"
   height="48"
   id="svg11300"
   sodipodi:version="0.32"
   inkscape:version="0.47+devel r9474"
   sodipodi:docname="plugin-regex.svg"
   inkscape:output_extension="org.inkscape.output.svg.inkscape"
   sodipodi:modified="true"
   version="1.0">
  <defs
     id="defs3">
    <linearGradient
       id="linearGradient5048">
      <stop
         style="stop-color:black;stop-opacity:0;"
         offset="0"
         id="stop5050" />
      <stop
         id="stop5056"
         offset="0.5"
         style="stop-color:black;stop-opacity:1;" />
      <stop
         style="stop-color:black;stop-opacity:0;"
         offset="1"
         id="stop5052" />
    </linearGradient>
    <linearGradient
       inkscape:collect="always"
       id="linearGradient5060">
      <stop
         style="stop-color:black;stop-opacity:1;"
         offset="0"
         id="stop5062" />
      <stop
         style="stop-color:black;stop-opacity:0;"
         offset="1"
         id="stop5064" />
    </linearGradient>
    <linearGradient
       id="linearGradient3832">
      <stop
         style="stop-color:#ffffff;stop-opacity:1;"
         offset="0"
         id="stop3834" />
      <stop
         style="stop-color:#e0e0e0;stop-opacity:1;"
         offset="1"
         id="stop3836" />
    </linearGradient>
    <linearGradient
       inkscape:collect="always"
       id="linearGradient4816">
      <stop
         style="stop-color:#204a87;stop-opacity:1;"
         offset="0"
         id="stop4818" />
      <stop
         style="stop-color:#204a87;stop-opacity:0;"
         offset="1"
         id="stop4820" />
    </linearGradient>
    <linearGradient
       inkscape:collect="always"
       xlink:href="#linearGradient5048"
       id="linearGradient5169"
       gradientUnits="userSpaceOnUse"
       gradientTransform="matrix(2.774389,0,0,1.969706,-1892.179,-872.8854)"
       x1="302.85715"
       y1="366.64789"
       x2="302.85715"
       y2="609.50507" />
    <radialGradient
       inkscape:collect="always"
       xlink:href="#linearGradient5060"
       id="radialGradient5171"
       gradientUnits="userSpaceOnUse"
       gradientTransform="matrix(2.774389,0,0,1.969706,-1891.633,-872.8854)"
       cx="605.71429"
       cy="486.64789"
       fx="605.71429"
       fy="486.64789"
       r="117.14286" />
    <radialGradient
       inkscape:collect="always"
       xlink:href="#linearGradient5060"
       id="radialGradient5173"
       gradientUnits="userSpaceOnUse"
       gradientTransform="matrix(-2.774389,0,0,1.969706,112.7623,-872.8854)"
       cx="605.71429"
       cy="486.64789"
       fx="605.71429"
       fy="486.64789"
       r="117.14286" />
    <linearGradient
       inkscape:collect="always"
       xlink:href="#linearGradient4816"
       id="linearGradient3001"
       gradientUnits="userSpaceOnUse"
       x1="13.267747"
       y1="7.7190704"
       x2="13.267747"
       y2="12.480761"
       gradientTransform="matrix(2.8730474,0,0,2.532368,-14.17013,-31.542723)" />
    <linearGradient
       inkscape:collect="always"
       xlink:href="#linearGradient3832"
       id="linearGradient3004"
       gradientUnits="userSpaceOnUse"
       gradientTransform="matrix(2.8553695,0,0,2.4939189,-14.722514,-32.841014)"
       x1="17.88068"
       y1="11.072588"
       x2="17.88068"
       y2="21.767578" />
  </defs>
  <sodipodi:namedview
     stroke="#ef2929"
     fill="#eeeeec"
     id="base"
     pagecolor="#ffffff"
     bordercolor="#666666"
     borderopacity="0.25490196"
     inkscape:pageopacity="0.0"
     inkscape:pageshadow="2"
     inkscape:zoom="7.5572037"
     inkscape:cx="0.77712459"
     inkscape:cy="24"
     inkscape:current-layer="layer1"
     showgrid="false"
     inkscape:grid-bbox="true"
     inkscape:document-units="px"
     inkscape:showpageshadow="false"
     inkscape:window-width="1278"
     inkscape:window-height="710"
     inkscape:window-x="0"
     inkscape:window-y="255"
     showguides="true"
     inkscape:guide-bbox="true"
     showborder="true"
     inkscape:window-maximized="0">
    <inkscape:grid
       type="xygrid"
       id="grid8803"
       visible="true"
       enabled="true"
       empspacing="5"
       snapvisiblegridlinesonly="true" />
  </sodipodi:namedview>
  <metadata
     id="metadata4">
    <rdf:RDF>
      <cc:Work
         rdf:about="">
        <dc:format>image/svg+xml</dc:format>
        <dc:type
           rdf:resource="http://purl.org/dc/dcmitype/StillImage" />
        <dc:creator>
          <cc:Agent>
            <dc:title>Patrick Niklaus</dc:title>
          </cc:Agent>
        </dc:creator>
        <dc:source />
        <cc:license
           rdf:resource="http://creativecommons.org/licenses/GPL/2.0/" />
        <dc:title>State</dc:title>
        <dc:subject>
          <rdf:Bag />
        </dc:subject>
      </cc:Work>
      <cc:License
         rdf:about="http://creativecommons.org/licenses/GPL/2.0/">
        <cc:permits
           rdf:resource="http://web.resource.org/cc/Reproduction" />
        <cc:permits
           rdf:resource="http://web.resource.org/cc/Distribution" />
        <cc:requires
           rdf:resource="http://web.resource.org/cc/Notice" />
        <cc:permits
           rdf:resource="http://web.resource.org/cc/DerivativeWorks" />
        <cc:requires
           rdf:resource="http://web.resource.org/cc/ShareAlike" />
        <cc:requires
           rdf:resource="http://web.resource.org/cc/SourceCode" />
      </cc:License>
    </rdf:RDF>
  </metadata>
  <g
     id="layer1"
     inkscape:label="Layer 1"
     inkscape:groupmode="layer"
     transform="translate(0,16)">
    <g
       id="g5022"
       transform="matrix(0.02548766,0,0,0.02971955,46.77794,21.354251)">
      <rect
         y="-150.69685"
         x="-1559.2523"
         height="478.35718"
         width="1339.6335"
         id="rect4173"
         style="opacity:0.40206185;color:#000000;fill:url(#linearGradient5169);fill-opacity:1;fill-rule:nonzero;stroke:none;stroke-width:1;marker:none;visibility:visible;display:inline;overflow:visible" />
      <path
         inkscape:connector-curvature="0"
         sodipodi:nodetypes="cccc"
         id="path5058"
         d="m -219.61876,-150.68038 c 0,0 0,478.33079 0,478.33079 142.874166,0.90045 345.40022,-107.16966 345.40014,-239.196175 0,-132.026537 -159.436816,-239.134595 -345.40014,-239.134615 z"
         style="opacity:0.40206185;color:#000000;fill:url(#radialGradient5171);fill-opacity:1;fill-rule:nonzero;stroke:none;stroke-width:1;marker:none;visibility:visible;display:inline;overflow:visible" />
      <path
         inkscape:connector-curvature="0"
         style="opacity:0.40206185;color:#000000;fill:url(#radialGradient5173);fill-opacity:1;fill-rule:nonzero;stroke:none;stroke-width:1;marker:none;visibility:visible;display:inline;overflow:visible"
         d="m -1559.2523,-150.68038 c 0,0 0,478.33079 0,478.33079 -142.8742,0.90045 -345.4002,-107.16966 -345.4002,-239.196175 0,-132.026537 159.4368,-239.134595 345.4002,-239.134615 z"
         id="path5018"
         sodipodi:nodetypes="cccc" />
    </g>
    <rect
       ry="1.7516797"
       rx="1.7516789"
       y="-12.909755"
       x="0.9820134"
       height="39.613441"
       width="45.933414"
       id="rect4828"
       style="color:#000000;fill:url(#linearGradient3004);fill-opacity:1;fill-rule:evenodd;stroke:#8d8d8d;stroke-width:1;stroke-linecap:butt;stroke-linejoin:miter;stroke-miterlimit:4;stroke-opacity:1;stroke-dasharray:none;stroke-dashoffset:0;marker:none;visibility:visible;display:inline;overflow:visible" />
    <rect
       ry="0.35198259"
       rx="0.35198265"
       y="-10.522378"
       x="3.362257"
       height="6.3343015"
       width="41.172958"
       id="rect4830"
       style="color:#000000;fill:url(#linearGradient3001);fill-opacity:1;fill-rule:evenodd;stroke:none;stroke-width:1;marker:none;visibility:visible;display:inline;overflow:visible" />
    <rect
       style="color:#000000;fill:none;stroke:#ffffff;stroke-width:1;stroke-linecap:butt;stroke-linejoin:miter;stroke-miterlimit:4;stroke-opacity:0.54545456000000003;stroke-dasharray:none;stroke-dashoffset:0;marker:none;visibility:visible;display:inline;overflow:visible"
       id="rect4958"
       width="42.843567"
       height="36.948727"
       x="2.526962"
       y="-11.577386"
       rx="0.41529721"
       ry="0.36605224" />
    <path
       style="font-size:28px;font-style:normal;font-weight:normal;fill:#edd400;fill-opacity:1;stroke:#929292;stroke-width:1;stroke-linecap:butt;stroke-linejoin:miter;stroke-miterlimit:4;stroke-opacity:1;stroke-dasharray:none;font-family:Sans"
       d="m 21.659631,-2.6958088 c -0.517156,0.118385 -0.884669,0.5944176 -0.882546,1.1432631 l 0,6.6880548 -6.398433,-3.6584255 C 14.115965,1.3224393 13.804295,1.283761 13.513806,1.3697642 13.223317,1.4557437 12.978409,1.6592495 12.8342,1.9343772 L 11.013965,5.478476 c -0.145106,0.2792744 -0.174293,0.6078059 -0.08059,0.9098194 0.09364,0.3020136 0.302043,0.5514266 0.577048,0.6907492 l 6.12265,3.2582774 -6.12265,3.315454 c -0.275005,0.139307 -0.483379,0.388731 -0.577048,0.690742 -0.09364,0.302011 -0.06449,0.630538 0.08059,0.909818 l 1.820235,3.544101 c 0.14417,0.275127 0.389117,0.478595 0.679606,0.564609 0.290489,0.08602 0.602159,0.04734 0.864846,-0.107307 l 6.398433,-3.658428 0,6.630902 c 0.01187,0.626319 0.498824,1.131149 1.103186,1.143259 l 4.136919,0 c 0.604349,-0.01213 1.091487,-0.51694 1.103173,-1.143259 l 0,-6.573738 6.343263,3.601264 c 0.262687,0.15465 0.574371,0.193318 0.864846,0.107307 0.290503,-0.08602 0.53541,-0.289482 0.679606,-0.564609 l 1.875405,-3.544101 c 0.145093,-0.27928 0.17428,-0.607807 0.08058,-0.909818 -0.09364,-0.302011 -0.302042,-0.551429 -0.577048,-0.690742 L 30.319553,10.337322 36.38702,7.0790446 c 0.275006,-0.1392619 0.483379,-0.3887356 0.577061,-0.6907492 0.09364,-0.3020135 0.0645,-0.630545 -0.08058,-0.9098194 L 35.008091,1.9343772 C 34.863909,1.6592495 34.618975,1.4557767 34.328472,1.3697642 34.037997,1.2837848 33.726313,1.3224683 33.46364,1.4770836 l -6.343277,3.6012615 0,-6.6308908 C 27.108492,-2.178869 26.621539,-2.6836959 26.01719,-2.6958088 l -4.136919,0 c -0.07333,-0.00765 -0.147243,-0.00765 -0.22064,0 z"
       id="path2199"
       inkscape:connector-curvature="0" />
    <path
       style="font-size:28px;font-style:normal;font-weight:normal;fill:#c4a000;fill-opacity:1;stroke:#ffffff;stroke-width:1;stroke-linecap:butt;stroke-linejoin:miter;stroke-miterlimit:4;stroke-opacity:0.30128203999999997;stroke-dasharray:none;font-family:Sans"
       d="m 22.312397,-1.1656711 0,6.3255615 c -0.004,0.5116906 -0.268384,1.1510789 -0.693586,1.410116 -0.425215,0.2590396 -0.950166,0.2677444 -1.383136,0.022883 l -6.241603,-3.51419 -1.441841,2.7828594 5.727849,3.0685054 c 0.484408,0.2436849 0.816034,0.8492183 0.816034,1.4079228 0,0.558707 -0.283644,1.092266 -0.768052,1.335958 l -5.799822,3.187331 1.486974,2.854835 6.09469,-3.467339 c 0.43297,-0.244811 1.077862,-0.164138 1.503078,0.09491 0.425215,0.259038 0.712446,0.778467 0.717577,1.290166 l 0,6.231842 3.23633,0 0,-6.184985 c 0.004,-0.5117 0.316353,-1.055121 0.741568,-1.314156 0.425216,-0.259037 1.070095,-0.339711 1.503065,-0.09491 l 6.049543,3.420485 1.53212,-2.830847 -5.778666,-3.139349 c -0.484408,-0.24369 -0.792043,-0.753261 -0.792043,-1.311967 0,-0.5587045 0.307635,-1.1642326 0.792043,-1.4079308 L 35.393185,5.9095406 33.837061,3.0067201 27.787531,6.4740626 C 27.354561,6.7188686 26.733673,6.7101783 26.308457,6.4511795 25.883242,6.1921412 25.596011,5.6247334 25.590867,5.113027 l 0,-6.2787007 -3.27847,0 z"
       id="path4152"
       sodipodi:nodetypes="ccsccccsccccsccccsccccsccccsccc"
       inkscape:connector-curvature="0" />
  </g>
</svg>
