<?xml version="1.0" encoding="UTF-8" standalone="no"?>
<!-- Created with Inkscape (http://www.inkscape.org/) -->
<svg
   xmlns:dc="http://purl.org/dc/elements/1.1/"
   xmlns:cc="http://creativecommons.org/ns#"
   xmlns:rdf="http://www.w3.org/1999/02/22-rdf-syntax-ns#"
   xmlns:svg="http://www.w3.org/2000/svg"
   xmlns="http://www.w3.org/2000/svg"
   xmlns:xlink="http://www.w3.org/1999/xlink"
   xmlns:sodipodi="http://sodipodi.sourceforge.net/DTD/sodipodi-0.dtd"
   xmlns:inkscape="http://www.inkscape.org/namespaces/inkscape"
   inkscape:export-ydpi="90.000000"
   inkscape:export-xdpi="90.000000"
   inkscape:export-filename="/home/patrick/Desktop/desktop.png"
   width="48px"
   height="48px"
   id="svg11300"
   sodipodi:version="0.32"
   inkscape:version="0.45+devel"
   sodipodi:docbase="/home/patrick/Projects/Beryl/svn/beryl/trunk/beryl-settings/images"
   sodipodi:docname="plugin-glib.svg"
   inkscape:output_extension="org.inkscape.output.svg.inkscape">
  <defs
     id="defs3">
    <linearGradient
       inkscape:collect="always"
       id="linearGradient8700">
      <stop
         style="stop-color:#000000;stop-opacity:1;"
         offset="0"
         id="stop8702" />
      <stop
         style="stop-color:#000000;stop-opacity:0;"
         offset="1"
         id="stop8704" />
    </linearGradient>
    <linearGradient
       id="linearGradient4362">
      <stop
         style="stop-color:#83a9d8;stop-opacity:1;"
         offset="0"
         id="stop4364" />
      <stop
         style="stop-color:#3465a4;stop-opacity:1;"
         offset="1"
         id="stop4366" />
    </linearGradient>
    <linearGradient
       id="linearGradient8440">
      <stop
         style="stop-color:#edeeec;stop-opacity:1;"
         offset="0"
         id="stop8442" />
      <stop
         style="stop-color:#babdb6;stop-opacity:1;"
         offset="1"
         id="stop8444" />
    </linearGradient>
    <radialGradient
       inkscape:collect="always"
       xlink:href="#linearGradient8440"
       id="radialGradient2489"
       gradientUnits="userSpaceOnUse"
       gradientTransform="matrix(0.664143,0.4987188,-0.6514275,0.8675051,-6.5927319,-24.793918)"
       cx="56.704376"
       cy="10.241054"
       fx="56.704376"
       fy="10.241054"
       r="14.75" />
    <radialGradient
       inkscape:collect="always"
       xlink:href="#linearGradient4362"
       id="radialGradient7917"
       gradientUnits="userSpaceOnUse"
       gradientTransform="matrix(-0.5839219,2.043178,-2.8834764,-0.8047334,47.417663,84.52667)"
       cx="-30.094473"
       cy="19.634174"
       fx="-30.094473"
       fy="19.634174"
       r="12.989234" />
    <radialGradient
       inkscape:collect="always"
       xlink:href="#linearGradient8700"
       id="radialGradient8706"
       cx="-3.8750002"
       cy="35.4375"
       fx="-3.8750002"
       fy="35.4375"
       r="8"
       gradientTransform="matrix(1,0,0,0.3671875,0,22.425292)"
       gradientUnits="userSpaceOnUse" />
  </defs>
  <sodipodi:namedview
     stroke="#ef2929"
     fill="#eeeeec"
     id="base"
     pagecolor="#ffffff"
     bordercolor="#666666"
     borderopacity="0.25490196"
     inkscape:pageopacity="0.0"
     inkscape:pageshadow="2"
     inkscape:zoom="15.999999"
     inkscape:cx="30.588764"
     inkscape:cy="16.686432"
     inkscape:current-layer="layer1"
     showgrid="true"
     inkscape:grid-bbox="true"
     inkscape:document-units="px"
     inkscape:showpageshadow="false"
     inkscape:window-width="906"
     inkscape:window-height="680"
     inkscape:window-x="255"
     inkscape:window-y="76"
     showguides="true"
     inkscape:guide-bbox="true">
    <inkscape:grid
       type="xygrid"
       id="grid7913" />
  </sodipodi:namedview>
  <metadata
     id="metadata4">
    <rdf:RDF>
      <cc:Work
         rdf:about="">
        <dc:format>image/svg+xml</dc:format>
        <dc:type
           rdf:resource="http://purl.org/dc/dcmitype/StillImage" />
        <dc:creator>
          <cc:Agent>
            <dc:title>Patrick Niklaus</dc:title>
          </cc:Agent>
        </dc:creator>
        <dc:source />
        <cc:license
           rdf:resource="http://creativecommons.org/licenses/GPL/2.0/" />
        <dc:title>SchemeP</dc:title>
        <dc:subject>
          <rdf:Bag />
        </dc:subject>
      </cc:Work>
      <cc:License
         rdf:about="http://creativecommons.org/licenses/GPL/2.0/">
        <cc:permits
           rdf:resource="http://web.resource.org/cc/Reproduction" />
        <cc:permits
           rdf:resource="http://web.resource.org/cc/Distribution" />
        <cc:requires
           rdf:resource="http://web.resource.org/cc/Notice" />
        <cc:permits
           rdf:resource="http://web.resource.org/cc/DerivativeWorks" />
        <cc:requires
           rdf:resource="http://web.resource.org/cc/ShareAlike" />
        <cc:requires
           rdf:resource="http://web.resource.org/cc/SourceCode" />
      </cc:License>
    </rdf:RDF>
  </metadata>
  <g
     id="layer1"
     inkscape:label="Layer 1"
     inkscape:groupmode="layer">
    <path
       sodipodi:type="arc"
       style="opacity:0.2;fill:url(#radialGradient8706);fill-opacity:1;stroke:none;stroke-width:1;stroke-linecap:round;stroke-linejoin:miter;stroke-miterlimit:4;stroke-dasharray:none;stroke-dashoffset:0;stroke-opacity:1"
       id="path8698"
       sodipodi:cx="-3.8750002"
       sodipodi:cy="35.4375"
       sodipodi:rx="8"
       sodipodi:ry="2.9375002"
       d="M 4.1249998,35.4375 A 8,2.9375002 0 1 1 -11.875,35.4375 A 8,2.9375002 0 1 1 4.1249998,35.4375 z"
       transform="matrix(1.359375,0,0,1.1276596,24.267579,3.7260644)" />
    <path
       d="M 29.645157,3.2171591 C 22.245485,3.2171591 20.858012,15.097579 25.020738,15.097579 C 29.182865,15.097579 37.045125,3.2171591 29.645157,3.2171591 z M 18.206304,4.6690927 C 18.088801,4.6686359 17.969921,4.6818419 17.839733,4.7008869 C 13.675504,5.3103173 15.14306,13.471836 17.36038,13.624449 C 19.507526,13.772292 21.84885,4.6832417 18.206304,4.6690927 z M 11.128695,7.9014993 C 10.874217,7.882764 10.587089,7.9462969 10.273371,8.0922652 C 6.9263397,9.6495858 9.7612237,16.070141 11.636255,15.638079 C 13.336862,15.247137 13.588633,8.0826102 11.128695,7.9014993 z M 5.6583507,12.946173 C 5.3673437,12.93513 5.0534917,13.035027 4.7184317,13.295909 C 2.0391183,15.383301 5.6234607,20.426196 7.1998247,19.644145 C 8.5791397,18.959552 7.6953967,13.023472 5.6583507,12.946173 z M 20.08615,16.803867 C 14.474442,17.018666 7.5814857,20.270531 6.3538917,26.469291 C 4.9543827,33.530478 12.107344,43.320199 19.578591,43.320199 C 23.254065,43.320199 27.498522,39.582222 28.291668,34.841754 C 28.89743,31.226886 21.161725,32.672375 21.439642,35.064313 C 21.772597,37.931385 19.569724,39.350166 17.416776,37.501866 C 10.563008,31.618166 28.767722,28.678603 27.567929,20.640361 C 27.163355,17.929782 23.925737,16.656895 20.08615,16.803867 z"
       id="path8"
       style="fill:url(#radialGradient7917);fill-opacity:1;stroke:#204a87;stroke-width:0.99999994;stroke-opacity:1" />
    <path
       style="fill:none;fill-opacity:1;stroke:#729fcf;stroke-width:1;stroke-miterlimit:4;stroke-dasharray:none;stroke-opacity:1"
       d="M 29.65625,4.25 C 28.079878,4.25 26.883023,4.8292152 25.9375,5.78125 C 24.991977,6.7332848 24.337535,8.0730741 24,9.40625 C 23.662465,10.739426 23.674272,12.074669 23.9375,12.9375 C 24.069114,13.368916 24.260676,13.677798 24.4375,13.84375 C 24.614324,14.009702 24.754037,14.0625 25.03125,14.0625 C 25.585455,14.0625 26.733642,13.524069 27.84375,12.5 C 28.953858,11.475931 30.061269,10.056796 30.78125,8.6875 C 31.501231,7.318204 31.804298,5.9724726 31.65625,5.28125 C 31.582226,4.9356387 31.451553,4.7705074 31.1875,4.59375 C 30.923447,4.4169926 30.444478,4.25 29.65625,4.25 z M 18,5.6875 C 17.291697,5.7911594 16.928608,6.12085 16.625,6.75 C 16.321392,7.37915 16.194403,8.3386913 16.25,9.28125 C 16.305597,10.223809 16.533041,11.16948 16.84375,11.8125 C 16.934972,12.123836 17.172461,12.431582 17.367187,12.570313 C 17.503393,12.66735 17.836658,12.130259 18.03125,11.78125 C 18.420434,11.083231 18.788285,10.055856 18.96875,9.03125 C 19.149215,8.0066437 19.119627,6.9739487 18.9375,6.375 C 18.846437,6.0755256 18.724661,5.9013263 18.625,5.8125 C 18.525339,5.7236737 18.460884,5.6884405 18.21875,5.6875 C 18.177586,5.68734 18.099941,5.6728798 18,5.6875 z M 11.0625,8.9375 C 11.022108,8.9345262 10.922411,8.9364894 10.71875,9.03125 C 10.174869,9.284309 9.9385997,9.6409924 9.8124997,10.21875 C 9.6863997,10.796508 9.7461357,11.566589 9.9687497,12.3125 C 10.191364,13.058411 10.579849,13.763052 10.9375,14.1875 C 11.607079,15.038245 11.419762,14.302733 11.625,13.96875 C 11.805998,13.383336 11.919746,12.552386 11.90625,11.71875 C 11.892754,10.885114 11.748535,10.047927 11.53125,9.53125 C 11.313965,9.0145734 11.18496,8.946516 11.0625,8.9375 z M 5.6249997,13.96875 C 5.5811777,13.967087 5.5302927,13.948505 5.3437497,14.09375 C 4.9191517,14.424545 4.7931367,14.76142 4.7812497,15.28125 C 4.7693627,15.80108 4.9352207,16.466097 5.2499997,17.0625 C 5.5647787,17.658903 6.0118007,18.187934 6.3749997,18.46875 C 6.7870147,18.867305 6.7743857,18.589348 6.8124997,18.21875 C 6.8749887,17.707957 6.8207087,16.952151 6.6874997,16.25 C 6.5542907,15.547849 6.3180817,14.86496 6.0624997,14.4375 C 5.8069177,14.01004 5.6396487,13.969306 5.6249997,13.96875 z M 20.125,17.84375 C 17.499673,17.94424 14.531927,18.747301 12.125,20.25 C 9.7180727,21.752699 7.8931017,23.882286 7.3437497,26.65625 C 6.7263367,29.771392 8.0554097,33.760688 10.46875,36.90625 C 12.88209,40.051812 16.3045,42.28125 19.59375,42.28125 C 22.57761,42.281251 26.571109,38.931866 27.28125,34.6875 C 27.375946,34.122405 27.28141,34.088145 26.9375,33.90625 C 26.59359,33.724355 25.867463,33.630583 25.09375,33.71875 C 24.320037,33.806917 23.504842,34.064998 23,34.375 C 22.747579,34.530001 22.573802,34.707426 22.5,34.8125 C 22.426198,34.917574 22.466044,34.914211 22.46875,34.9375 C 22.667384,36.647936 22.106987,38.16451 20.90625,38.90625 C 19.705513,39.64799 18.055907,39.402368 16.75,38.28125 C 15.792321,37.459119 15.16643,36.597888 14.9375,35.65625 C 14.70857,34.714612 14.91809,33.775487 15.375,33 C 16.28882,31.449025 17.996476,30.278818 19.78125,29.03125 C 21.566024,27.783682 23.46524,26.503348 24.78125,25.125 C 26.09726,23.746652 26.805336,22.408174 26.5625,20.78125 C 26.415392,19.79565 25.813074,19.095259 24.6875,18.5625 C 23.561926,18.029741 21.923215,17.774918 20.125,17.84375 z"
       id="path8695"
       sodipodi:nodetypes="csssssssssccsscssssssccsssccssccsssccssccssssssssssssssssssc" />
    <g
       id="g2485"
       transform="matrix(0.7842374,-0.251925,0.2512199,0.7820424,4.4737981,27.776456)">
      <path
         id="path2212"
         d="M 26.012804,3.3202973 C 25.696155,3.3943463 25.51578,3.6993999 25.587355,4.0054664 L 26.641513,8.5132705 C 25.965958,8.8822096 25.352184,9.3500745 24.782212,9.8438129 L 21.072128,7.6796819 C 20.800827,7.5209504 20.460022,7.6149968 20.295801,7.895679 L 17.923821,11.895531 C 17.759601,12.176212 17.876156,12.545792 18.147457,12.704523 L 21.575412,14.693469 C 21.299902,15.560801 21.11721,16.466374 21.070371,17.395444 L 16.725894,18.411407 C 16.419827,18.482982 16.226395,18.779928 16.300444,19.096577 L 17.36988,23.669711 C 17.443929,23.98636 17.748984,24.166734 18.05505,24.09516 L 22.366861,23.086835 C 22.781305,23.836023 23.305151,24.49432 23.873898,25.111572 L 21.526944,29.071119 C 21.360115,29.350258 21.440468,29.693832 21.710276,29.855085 L 25.677462,32.234705 C 25.947271,32.395958 26.286961,32.297846 26.453789,32.018708 L 28.790994,28.164794 C 29.646461,28.412459 30.534887,28.58428 31.445026,28.612144 L 32.468629,32.989287 C 32.540203,33.295353 32.837149,33.488785 33.153799,33.414736 L 37.726933,32.3453 C 38.043582,32.271251 38.223956,31.966198 38.152382,31.660131 L 37.113501,27.217657 C 37.814362,26.815087 38.434127,26.311123 39.015216,25.773841 L 42.715552,28.043607 C 42.983322,28.208223 43.361875,28.129666 43.532183,27.852636 L 45.977133,23.870172 C 46.147441,23.593143 46.061572,23.250824 45.793801,23.086206 L 42.085827,20.783776 C 42.292758,20.033653 42.432045,19.247673 42.471264,18.454287 L 46.750411,17.4536 C 47.056477,17.382026 47.249909,17.085081 47.17586,16.768432 L 46.106424,12.195298 C 46.032375,11.878648 45.727321,11.698274 45.421255,11.769848 L 41.174773,12.762896 C 40.73573,11.963009 40.208309,11.234718 39.596878,10.582471 L 42.143243,6.8863555 C 42.327951,6.6187132 42.283938,6.2656484 42.025241,6.0871112 L 38.200574,3.4330029 C 37.941876,3.2544659 37.601318,3.348692 37.416608,3.6163347 L 34.7625,7.4410012 C 34.73053,7.4873242 34.712627,7.5441816 34.695059,7.5945788 C 33.932141,7.376048 33.132907,7.2260136 32.325265,7.1841146 L 31.271107,2.6763105 C 31.199533,2.370244 30.902589,2.1768122 30.585938,2.2508616 L 26.012804,3.3202973 z M 30.831242,13.907041 C 33.384239,13.310018 35.514115,14.780092 36.0173,16.931818 C 36.520483,19.083544 35.263393,21.345666 32.710394,21.94269 C 30.157394,22.539714 28.027521,21.069639 27.524336,18.917913 C 27.02115,16.766191 28.278243,14.504064 30.831242,13.907041 z"
         style="fill:url(#radialGradient2489);fill-opacity:1;fill-rule:evenodd;stroke:#555753;stroke-width:1;stroke-linecap:butt;stroke-linejoin:miter;stroke-miterlimit:4;stroke-dasharray:none;stroke-dashoffset:0;stroke-opacity:1" />
      <path
         transform="matrix(1.0452878,-0.2444425,0.2444425,1.0452878,-37.363201,15.597559)"
         d="M 60.5,3.25 L 60.5,7.15625 C 60.496479,7.5703048 60.210494,7.9482453 59.8125,8.0625 C 59.212599,8.228619 58.617411,8.4730048 58.03125,8.78125 C 57.680626,8.9647198 57.227804,8.9251771 56.9375,8.65625 L 54.34375,6.1875 L 51.90625,8.75 L 54.3125,11 C 54.627244,11.293647 54.678914,11.780586 54.46875,12.15625 C 54.06921,12.82689 53.744915,13.538474 53.53125,14.28125 C 53.416996,14.679245 53.039055,14.965229 52.625,14.96875 L 48.875,14.96875 L 48.875,18.53125 L 52.59375,18.53125 C 53.007805,18.534771 53.385746,18.820755 53.5,19.21875 C 53.68886,19.886671 53.980343,20.513823 54.34375,21.15625 C 54.544611,21.515651 54.504261,21.984607 54.21875,22.28125 L 51.53125,25.09375 L 54,27.5 L 56.65625,24.78125 C 56.949897,24.466506 57.436836,24.414836 57.8125,24.625 C 58.486779,25.003518 59.183718,25.307537 59.90625,25.5 C 60.304245,25.614254 60.590229,25.992195 60.59375,26.40625 L 60.59375,30.1875 L 64.15625,30.1875 L 64.15625,26.34375 C 64.154926,25.939357 64.428567,25.564508 64.8125,25.4375 C 65.437997,25.249716 66.049852,24.969408 66.65625,24.625 C 67.015651,24.424139 67.484607,24.464489 67.78125,24.75 L 70.375,27.3125 L 72.875,24.84375 L 70.28125,22.25 C 69.978325,21.947471 69.937115,21.461536 70.15625,21.09375 C 70.475199,20.508381 70.724465,19.915534 70.90625,19.28125 C 71.020504,18.883255 71.398445,18.597271 71.8125,18.59375 L 75.5,18.59375 L 75.5,15.03125 L 71.84375,15.03125 C 71.429695,15.027729 71.051754,14.741745 70.9375,14.34375 C 70.729928,13.600282 70.439945,12.904075 70.0625,12.25 C 69.852336,11.874336 69.904006,11.387397 70.21875,11.09375 L 73.0625,8.5 L 70.71875,5.9375 L 67.8125,8.5625 L 67.78125,8.59375 C 67.502398,8.9541153 66.997961,9.0630449 66.59375,8.84375 C 65.998677,8.5119092 65.391839,8.2481447 64.75,8.0625 C 64.352006,7.9482453 64.066021,7.5703048 64.0625,7.15625 L 64.0625,3.25 L 60.5,3.25 z M 62.21875,12 C 65.119724,12 67.21875,14.229306 67.21875,16.78125 C 67.218749,19.333195 65.119725,21.562499 62.21875,21.5625 C 59.317774,21.562501 57.21875,19.333195 57.21875,16.78125 C 57.218748,14.229307 59.317774,12 62.21875,12 z"
         id="path3195"
         style="fill:none;fill-opacity:1;fill-rule:evenodd;stroke:#dddddd;stroke-width:0.93154186;stroke-linecap:butt;stroke-linejoin:miter;stroke-miterlimit:4;stroke-dasharray:none;stroke-dashoffset:0;stroke-opacity:1"
         inkscape:original="M 60.375 3.125 L 60.375 7.15625 C 60.371912 7.5194123 60.130326 7.8372886 59.78125 7.9375 C 59.169905 8.1067881 58.559537 8.3768222 57.96875 8.6875 C 57.661279 8.8483892 57.285825 8.7983287 57.03125 8.5625 L 54.34375 6 L 51.71875 8.75 L 54.21875 11.09375 C 54.494859 11.351352 54.559366 11.764199 54.375 12.09375 C 53.971871 12.770414 53.623576 13.494497 53.40625 14.25 C 53.306039 14.599076 52.988162 14.840662 52.625 14.84375 L 48.75 14.84375 L 48.75 18.65625 L 52.59375 18.65625 C 52.956912 18.659338 53.274789 18.900924 53.375 19.25 C 53.567737 19.931631 53.884546 20.572703 54.25 21.21875 C 54.426168 21.533968 54.375412 21.927325 54.125 22.1875 L 51.34375 25.09375 L 54 27.6875 L 56.75 24.875 C 57.007602 24.598891 57.420449 24.534384 57.75 24.71875 C 58.429534 25.100218 59.139208 25.429005 59.875 25.625 C 60.224076 25.725211 60.465662 26.043088 60.46875 26.40625 L 60.46875 30.3125 L 64.28125 30.3125 L 64.28125 26.34375 C 64.280089 25.989098 64.507041 25.673886 64.84375 25.5625 C 65.481753 25.370962 66.108157 25.06554 66.71875 24.71875 C 67.033968 24.542582 67.427325 24.593338 67.6875 24.84375 L 70.375 27.5 L 73.0625 24.84375 L 70.375 22.15625 C 70.109267 21.890864 70.057769 21.478881 70.25 21.15625 C 70.571694 20.565843 70.8464 19.957479 71.03125 19.3125 C 71.131461 18.963424 71.449338 18.721838 71.8125 18.71875 L 75.625 18.71875 L 75.625 14.90625 L 71.84375 14.90625 C 71.480588 14.903162 71.162711 14.661576 71.0625 14.3125 C 70.851959 13.5584 70.53788 12.848827 70.15625 12.1875 C 69.971884 11.857949 70.036391 11.445102 70.3125 11.1875 L 73.21875 8.53125 L 70.71875 5.78125 L 67.71875 8.5 C 67.479528 8.8411617 67.022497 8.9486984 66.65625 8.75 C 66.056217 8.415393 65.434546 8.1264586 64.78125 7.9375 C 64.432174 7.8372886 64.190588 7.5194123 64.1875 7.15625 L 64.1875 3.125 L 60.375 3.125 z M 62.21875 12.125 C 65.060709 12.125 67.09375 14.292516 67.09375 16.78125 C 67.093749 19.269985 65.06071 21.437499 62.21875 21.4375 C 59.376789 21.437501 57.34375 19.269985 57.34375 16.78125 C 57.343748 14.292517 59.376789 12.125 62.21875 12.125 z "
         inkscape:radius="-0.1160666"
         sodipodi:type="inkscape:offset" />
    </g>
  </g>
</svg>
