<?xml version="1.0" encoding="UTF-8" standalone="no"?>
<!-- Created with Inkscape (http://www.inkscape.org/) -->

<svg
   xmlns:dc="http://purl.org/dc/elements/1.1/"
   xmlns:cc="http://creativecommons.org/ns#"
   xmlns:rdf="http://www.w3.org/1999/02/22-rdf-syntax-ns#"
   xmlns:svg="http://www.w3.org/2000/svg"
   xmlns="http://www.w3.org/2000/svg"
   xmlns:xlink="http://www.w3.org/1999/xlink"
   xmlns:sodipodi="http://sodipodi.sourceforge.net/DTD/sodipodi-0.dtd"
   xmlns:inkscape="http://www.inkscape.org/namespaces/inkscape"
   width="48"
   height="48"
   id="svg1306"
   sodipodi:version="0.32"
   inkscape:version="0.47+devel r9474"
   sodipodi:docname="plugin-notification.svg"
   inkscape:output_extension="org.inkscape.output.svg.inkscape"
   version="1.0">
  <defs
     id="defs1308">
    <linearGradient
       inkscape:collect="always"
       id="linearGradient2189">
      <stop
         style="stop-color:#000000;stop-opacity:1;"
         offset="0"
         id="stop2191" />
      <stop
         style="stop-color:#000000;stop-opacity:0;"
         offset="1"
         id="stop2193" />
    </linearGradient>
    <linearGradient
       inkscape:collect="always"
       id="linearGradient2097">
      <stop
         style="stop-color:#ffffff;stop-opacity:1.0000000"
         offset="0"
         id="stop2099" />
      <stop
         style="stop-color:#e7e7e3;stop-opacity:1.0000000"
         offset="1"
         id="stop2101" />
    </linearGradient>
    <radialGradient
       inkscape:collect="always"
       xlink:href="#linearGradient2097"
       id="radialGradient7925"
       gradientUnits="userSpaceOnUse"
       gradientTransform="matrix(-2.2222,0.005951,0.00443484,1.5040194,81.474602,-13.810777)"
       cx="16.981855"
       cy="15.445013"
       fx="16.981855"
       fy="15.445013"
       r="20.978409" />
    <radialGradient
       inkscape:collect="always"
       xlink:href="#linearGradient2189"
       id="radialGradient7927"
       gradientUnits="userSpaceOnUse"
       gradientTransform="matrix(0.928681,0,0,0.102029,1.804722,37.76401)"
       cx="25.304846"
       cy="44.051216"
       fx="25.304846"
       fy="44.051216"
       r="21.535715" />
  </defs>
  <sodipodi:namedview
     id="base"
     pagecolor="#ffffff"
     bordercolor="#666666"
     borderopacity="1.0"
     inkscape:pageopacity="0.0"
     inkscape:pageshadow="2"
     inkscape:zoom="7.5572037"
     inkscape:cx="0.77712459"
     inkscape:cy="24"
     inkscape:current-layer="layer1"
     showgrid="false"
     inkscape:grid-bbox="true"
     inkscape:document-units="px"
     fill="#3465a4"
     stroke="#888a85"
     inkscape:window-width="1278"
     inkscape:window-height="710"
     inkscape:window-x="0"
     inkscape:window-y="27"
     showguides="true"
     inkscape:guide-bbox="true"
     inkscape:showpageshadow="false"
     inkscape:window-maximized="0"
     inkscape:snap-global="false">
    <inkscape:grid
       type="xygrid"
       id="grid7929"
       visible="true"
       enabled="true"
       empspacing="5"
       snapvisiblegridlinesonly="true" />
  </sodipodi:namedview>
  <metadata
     id="metadata1311">
    <rdf:RDF>
      <cc:Work
         rdf:about="">
        <dc:format>image/svg+xml</dc:format>
        <dc:type
           rdf:resource="http://purl.org/dc/dcmitype/StillImage" />
        <dc:title>Konversation application icon</dc:title>
        <dc:date>March 2006</dc:date>
        <dc:creator>
          <cc:Agent>
            <dc:title>Andreas Nilsson</dc:title>
          </cc:Agent>
        </dc:creator>
        <dc:source>http://tango-project.org</dc:source>
        <dc:subject>
          <rdf:Bag>
            <rdf:li>konversation</rdf:li>
            <rdf:li>chat</rdf:li>
            <rdf:li>irc</rdf:li>
          </rdf:Bag>
        </dc:subject>
        <cc:license
           rdf:resource="http://creativecommons.org/licenses/GPL/2.0/" />
      </cc:Work>
      <cc:License
         rdf:about="http://creativecommons.org/licenses/GPL/2.0/">
        <cc:permits
           rdf:resource="http://web.resource.org/cc/Reproduction" />
        <cc:permits
           rdf:resource="http://web.resource.org/cc/Distribution" />
        <cc:requires
           rdf:resource="http://web.resource.org/cc/Notice" />
        <cc:permits
           rdf:resource="http://web.resource.org/cc/DerivativeWorks" />
        <cc:requires
           rdf:resource="http://web.resource.org/cc/ShareAlike" />
        <cc:requires
           rdf:resource="http://web.resource.org/cc/SourceCode" />
      </cc:License>
    </rdf:RDF>
  </metadata>
  <g
     id="layer1"
     inkscape:label="Layer 1"
     inkscape:groupmode="layer"
     transform="translate(0,16)">
    <path
       style="fill:url(#radialGradient7925);fill-opacity:1;stroke:#888a85;stroke-width:1;stroke-linecap:round;stroke-linejoin:round;stroke-miterlimit:4;stroke-opacity:1;stroke-dasharray:none;stroke-dashoffset:0"
       d="m 24.181417,-12.49277 c 12.653972,0 23.030532,7.9230707 22.920927,17.6701843 C 46.942611,19.52822 27.45269,24.689716 18.870482,22.295398 13.559547,23.914857 12.249128,25.960221 4.46241,25.946298 8.9747078,23.185333 8.8839781,21.501365 8.9205848,18.517668 4.3070766,15.286687 1.2605175,10.355195 1.2605175,5.1774143 c 0,-9.7476495 10.2669275,-17.6701843 22.9208995,-17.6701843 z"
       id="path7909"
       sodipodi:nodetypes="cscccsc"
       inkscape:connector-curvature="0" />
    <path
       style="fill:none;stroke:#ffffff;stroke-width:1;stroke-linecap:round;stroke-linejoin:miter;stroke-miterlimit:4;stroke-opacity:1;stroke-dasharray:none;stroke-dashoffset:0"
       d="m 24.167681,-11.195186 c 11.880009,0 21.621916,7.3993175 21.518997,16.5021394 C 45.536713,18.70915 26.90512,23.220249 18.847827,20.9842 14.269646,22.577812 11.718457,23.913336 8.3813709,24.432006 10.298163,22.799427 10.443353,20.60633 10.290495,17.936763 5.9591586,14.919356 2.6487111,10.142476 2.6487111,5.3069534 c 0,-9.1033129 9.6389609,-16.5021394 21.5189699,-16.5021394 z"
       id="path2095"
       sodipodi:nodetypes="cscccsc"
       inkscape:connector-curvature="0" />
    <path
       sodipodi:type="arc"
       style="opacity:0.2;fill:url(#radialGradient7927);fill-opacity:1;stroke:none"
       id="path7913"
       sodipodi:cx="24.535715"
       sodipodi:cy="42"
       sodipodi:rx="21.535715"
       sodipodi:ry="2.7142856"
       d="m 46.07143,42 c 0,1.499059 -9.641868,2.714286 -21.535715,2.714286 C 12.641868,44.714286 3,43.499059 3,42 c 0,-1.499059 9.641868,-2.714286 21.535715,-2.714286 11.893847,0 21.535715,1.215227 21.535715,2.714286 z"
       transform="matrix(-1.0168807,0,0,1.3455614,50.847057,-28.46064)" />
    <path
       style="fill:#ef2929;fill-opacity:1;stroke:#a40000;stroke-width:1;stroke-miterlimit:4;stroke-opacity:1;stroke-dasharray:none"
       d="m 23.427984,-9.7792891 c -2.094553,0 -4.429142,4.6657526 -4.42913,10.34002476 0,5.67427154 2.367174,10.80602834 4.461741,10.80602834 2.094553,0 4.378544,-5.1628236 4.378544,-10.83709896 0,-5.67427344 -2.316588,-10.30895414 -4.411155,-10.30895414 z m 0,23.6360441 c -1.622606,0 -2.927294,1.296862 -2.927294,2.909724 0,1.612864 1.304688,2.956655 2.927294,2.956657 1.62262,0 2.927308,-1.343791 2.927308,-2.956657 0,-1.612862 -1.304688,-2.909724 -2.927308,-2.909724 z"
       id="path2686"
       sodipodi:nodetypes="csssccsssc"
       inkscape:connector-curvature="0" />
    <path
       style="opacity:0.35800003000000002;fill:none;stroke:#eeeeec;stroke-width:1;stroke-miterlimit:4;stroke-opacity:1;stroke-dasharray:none"
       d="m 23.404212,-8.4428228 c -1.19593,0.5430923 -3.044191,4.0468531 -2.998087,9.2310366 0.04749,5.3377757 2.333473,9.2176352 2.998087,9.2310412 0.839898,0.01647 2.991157,-4.1348911 3.03554,-9.2310412 0.04602,-5.2940282 -1.877589,-8.9393658 -3.03554,-9.2310366 z"
       id="path3674"
       sodipodi:nodetypes="csssc"
       inkscape:connector-curvature="0" />
    <path
       style="opacity:0.35800003;fill:none;stroke:#eeeeec;stroke-width:0.74310499;stroke-miterlimit:4;stroke-opacity:1;stroke-dasharray:none"
       d="m 23.456949,15.149718 c -0.893349,0 -1.611668,0.728786 -1.611668,1.635158 0,0.906371 0.718319,1.661531 1.611668,1.661531 0.893349,0 1.540742,-0.779178 1.540742,-1.685549 0,-0.906371 -0.647393,-1.61114 -1.540742,-1.61114 z"
       id="path3668"
       sodipodi:nodetypes="csssc"
       inkscape:connector-curvature="0" />
    <text
       xml:space="preserve"
       style="font-size:40px;font-style:normal;font-weight:normal;line-height:125%;letter-spacing:0;word-spacing:0;fill:#000000;fill-opacity:1;stroke:none;font-family:Sans"
       x="-34.00729"
       y="43.633305"
       id="text2967"
       sodipodi:linespacing="125%"
       transform="translate(0,-16)"><tspan
         sodipodi:role="line"
         id="tspan2969" /></text>
  </g>
</svg>
