<?xml version="1.0" encoding="UTF-8" standalone="no"?>
<!-- Created with Inkscape (http://www.inkscape.org/) -->

<svg
   xmlns:dc="http://purl.org/dc/elements/1.1/"
   xmlns:cc="http://creativecommons.org/ns#"
   xmlns:rdf="http://www.w3.org/1999/02/22-rdf-syntax-ns#"
   xmlns:svg="http://www.w3.org/2000/svg"
   xmlns="http://www.w3.org/2000/svg"
   xmlns:xlink="http://www.w3.org/1999/xlink"
   xmlns:sodipodi="http://sodipodi.sourceforge.net/DTD/sodipodi-0.dtd"
   xmlns:inkscape="http://www.inkscape.org/namespaces/inkscape"
   inkscape:export-ydpi="90.000000"
   inkscape:export-xdpi="90.000000"
   inkscape:export-filename="/home/jimmac/Desktop/wi-fi.png"
   width="48"
   height="48"
   id="svg11300"
   sodipodi:version="0.32"
   inkscape:version="0.47 r22583"
   sodipodi:docname="plugin-trip.svg"
   inkscape:output_extension="org.inkscape.output.svg.inkscape"
   version="1.0">
  <defs
     id="defs3">
    <linearGradient
       inkscape:collect="always"
       id="linearGradient3678">
      <stop
         style="stop-color: white; stop-opacity: 1;"
         offset="0"
         id="stop3680" />
      <stop
         style="stop-color: white; stop-opacity: 0;"
         offset="1"
         id="stop3682" />
    </linearGradient>
    <linearGradient
       id="linearGradient3832">
      <stop
         style="stop-color:#ffffff;stop-opacity:1;"
         offset="0"
         id="stop3834" />
      <stop
         style="stop-color:#e0e0e0;stop-opacity:1;"
         offset="1"
         id="stop3836" />
    </linearGradient>
    <linearGradient
       inkscape:collect="always"
       id="linearGradient4816">
      <stop
         style="stop-color:#204a87;stop-opacity:1;"
         offset="0"
         id="stop4818" />
      <stop
         style="stop-color:#204a87;stop-opacity:0;"
         offset="1"
         id="stop4820" />
    </linearGradient>
    <linearGradient
       inkscape:collect="always"
       xlink:href="#linearGradient3678"
       id="linearGradient3735"
       gradientUnits="userSpaceOnUse"
       gradientTransform="matrix(1.1129071,0,0,1.1129071,-1.6743662,-19.33481)"
       x1="4.625"
       y1="-7.625"
       x2="25.621565"
       y2="36.571983" />
    <linearGradient
       inkscape:collect="always"
       xlink:href="#linearGradient4816"
       id="linearGradient3679"
       gradientUnits="userSpaceOnUse"
       x1="13.267747"
       y1="7.7190704"
       x2="13.267747"
       y2="12.480761"
       gradientTransform="matrix(1.5857848,0,0,1.397746,2.5828875,-12.862189)" />
    <linearGradient
       inkscape:collect="always"
       xlink:href="#linearGradient3832"
       id="linearGradient3682"
       gradientUnits="userSpaceOnUse"
       gradientTransform="matrix(1.5760275,0,0,1.376524,2.2779966,-13.578783)"
       x1="17.88068"
       y1="11.072588"
       x2="17.88068"
       y2="21.767578" />
  </defs>
  <sodipodi:namedview
     stroke="#ef2929"
     fill="#eeeeec"
     id="base"
     pagecolor="#ffffff"
     bordercolor="#666666"
     borderopacity="0.25490196"
     inkscape:pageopacity="0.0"
     inkscape:pageshadow="2"
     inkscape:zoom="11.387365"
     inkscape:cx="18.953496"
     inkscape:cy="22.198686"
     inkscape:current-layer="layer1"
     showgrid="false"
     inkscape:grid-bbox="true"
     inkscape:document-units="px"
     inkscape:showpageshadow="false"
     inkscape:window-width="1280"
     inkscape:window-height="973"
     inkscape:window-x="0"
     inkscape:window-y="24"
     showguides="true"
     inkscape:guide-bbox="true"
     inkscape:window-maximized="1"
     inkscape:snap-global="false">
    <inkscape:grid
       type="xygrid"
       id="grid8345"
       visible="true"
       enabled="true"
       empspacing="5"
       snapvisiblegridlinesonly="true" />
  </sodipodi:namedview>
  <metadata
     id="metadata4">
    <rdf:RDF>
      <cc:Work
         rdf:about="">
        <dc:format>image/svg+xml</dc:format>
        <dc:type
           rdf:resource="http://purl.org/dc/dcmitype/StillImage" />
        <dc:creator>
          <cc:Agent>
            <dc:title>Patrick Niklaus</dc:title>
          </cc:Agent>
        </dc:creator>
        <dc:source />
        <cc:license
           rdf:resource="http://creativecommons.org/licenses/GPL/2.0/" />
        <dc:title />
        <dc:subject>
          <rdf:Bag />
        </dc:subject>
      </cc:Work>
      <cc:License
         rdf:about="http://creativecommons.org/licenses/GPL/2.0/">
        <cc:permits
           rdf:resource="http://web.resource.org/cc/Reproduction" />
        <cc:permits
           rdf:resource="http://web.resource.org/cc/Distribution" />
        <cc:requires
           rdf:resource="http://web.resource.org/cc/Notice" />
        <cc:permits
           rdf:resource="http://web.resource.org/cc/DerivativeWorks" />
        <cc:requires
           rdf:resource="http://web.resource.org/cc/ShareAlike" />
        <cc:requires
           rdf:resource="http://web.resource.org/cc/SourceCode" />
      </cc:License>
    </rdf:RDF>
  </metadata>
  <g
     id="layer1"
     inkscape:label="Layer 1"
     inkscape:groupmode="layer"
     transform="translate(0,16)">
    <g
       id="layer6"
       inkscape:label="Shadow"
       transform="matrix(1.4347767,0,0,1.4347767,-59.236429,26.826976)" />
    <g
       style="display:inline"
       inkscape:label="Base"
       id="g6461"
       transform="matrix(1.4347767,0,0,1.4347767,-59.236429,26.826976)" />
    <g
       id="g2637"
       inkscape:label="base"
       style="display:inline"
       transform="matrix(1.4347767,0,0,1.4347767,-76.834151,94.978853)" />
    <g
       id="g8314"
       inkscape:label="Shadow"
       transform="matrix(1.4347767,0,0,1.4347767,-59.236429,26.826976)" />
    <g
       style="display:inline"
       inkscape:label="Base"
       id="g8316"
       transform="matrix(1.4347767,0,0,1.4347767,-59.236429,26.826976)" />
    <g
       id="g8318"
       inkscape:label="base"
       style="display:inline"
       transform="matrix(1.4347767,0,0,1.4347767,-76.834151,94.978853)" />
    <g
       transform="matrix(1.4347767,0,0,1.4347767,-60.928787,-69.573786)"
       id="g8230" />
    <g
       transform="matrix(1.4347767,0,0,1.4347767,-60.928787,-69.573786)"
       id="g8232"
       style="display:inline" />
    <g
       transform="matrix(1.4347767,0,0,1.4347767,-78.526509,-1.4218994)"
       id="g8234"
       style="display:inline" />
    <g
       transform="matrix(1.4347767,0,0,1.4347767,-83.670839,-195.49795)"
       id="layer2" />
    <g
       id="g8375"
       inkscape:label="Shadow"
       transform="matrix(1.4347767,0,0,1.4347767,-76.771337,-40.148604)" />
    <g
       style="display:inline"
       inkscape:label="Base"
       id="g8377"
       transform="matrix(1.4347767,0,0,1.4347767,-76.771337,-40.148604)" />
    <g
       id="g8379"
       inkscape:label="base"
       style="display:inline"
       transform="matrix(1.4347767,0,0,1.4347767,-94.36906,28.003279)" />
    <path
       sodipodi:nodetypes="cscscscsc"
       id="rect1879"
       d="M 2.2208087,23.512113 C 8.8008541,26.139952 20.673356,33.928691 27.53761,30.148964 34.568237,26.277625 39.430352,25.375298 45.624186,24.068567 46.368099,19.99603 44.846514,16.397829 44.082928,12.55318 42.770542,5.945334 42.019882,-0.95662821 45.624186,-8.7621926 38.083228,-8.895015 27.792605,-15.847545 22.075948,-11.484508 17.472442,-7.9710448 9.0148216,-8.7621926 2.2208087,-8.7621926 4.4985425,-2.9196024 4.9475255,2.7883999 4.3669268,8.7642457 3.8960899,13.610362 2.2208087,18.699554 2.2208087,23.512113 z"
       style="color:#000000;fill:#a0a28f;fill-opacity:1;fill-rule:nonzero;stroke:#3b4037;stroke-width:1.113;stroke-linecap:round;stroke-linejoin:round;stroke-miterlimit:4;stroke-opacity:1;stroke-dashoffset:1.19999999999999996;marker:none;visibility:visible;display:inline;overflow:visible;stroke-dasharray:none" />
    <path
       sodipodi:nodetypes="csccsscsc"
       id="rect3674"
       d="m 3.3337157,22.399206 c 6.3854904,0 7.3644843,4.798227 13.1837493,3.104787 8.362359,-2.433496 20.51326,-3.316709 27.993813,-3.104787 C 41.973805,13.24946 40.551367,2.6363453 42.972308,-7.4772802 36.031465,-7.5983311 30.012383,-13.317047 24.001876,-10.536811 17.895928,-7.7124281 15.840185,-6.8570122 11.837108,-7.0267108 1.9600413,-7.4454199 4.7530215,-5.2724389 5.8803979,-0.3605054 6.5484585,6.5966613 6.1518415,6.6209524 5.0297805,15.82132 4.7256089,18.315383 3.3337157,19.886664 3.3337157,22.399206 z"
       style="color:#000000;fill:none;stroke:url(#linearGradient3735);stroke-width:1.11290705;stroke-linecap:round;stroke-linejoin:round;stroke-miterlimit:4;stroke-opacity:1;stroke-dashoffset:1.2;marker:none;visibility:visible;display:inline;overflow:visible" />
    <path
       style="color:#000000;fill:#4a6588;fill-opacity:1;fill-rule:nonzero;stroke:#272840;stroke-width:1.09849334;stroke-linecap:round;stroke-linejoin:round;stroke-miterlimit:4;stroke-opacity:1;stroke-dashoffset:1.2;marker:none;visibility:visible;display:inline;overflow:visible"
       d="m 3.0411423,15.714568 5.8108254,11.124254 c 0.3316255,1.274539 -1.0590781,0.79777 -1.3763402,0.79777 L 1.068449,24.374909 c -0.31726146,0 -0.51617282,-0.248048 -0.44598871,-0.556164 L 2.3417822,16.270732 c 0.070184,-0.308115 0.3820986,-0.556164 0.6993601,-0.556164 z"
       id="rect2768"
       sodipodi:nodetypes="ccccccc"
       inkscape:connector-curvature="0" />
    <path
       style="color:#000000;fill:#5a7aa4;fill-opacity:1;fill-rule:nonzero;stroke:#272840;stroke-width:1.11290705;stroke-linecap:round;stroke-linejoin:round;stroke-miterlimit:4;stroke-opacity:1;stroke-dashoffset:1.2;marker:none;visibility:visible;display:inline;overflow:visible"
       d="m 10.801508,-9.7424072 -8.331493,8.3314946 c -0.3167579,0 -0.5717639,-0.255006 -0.5717639,-0.5717638 l 0,-7.7597308 c 0,-0.3167568 0.255006,-0.5717638 0.5717639,-0.5717638 l 7.759729,0 c 0.316758,0 0.571764,0.255007 0.571764,0.5717638 z"
       id="path4583"
       sodipodi:nodetypes="ccccccc"
       inkscape:connector-curvature="0" />
    <path
       style="color:#000000;fill:#5a7aa4;fill-opacity:1;fill-rule:nonzero;stroke:#272840;stroke-width:1.11290705;stroke-linecap:round;stroke-linejoin:round;stroke-miterlimit:4;stroke-opacity:1;stroke-dashoffset:1.2;marker:none;visibility:visible;display:inline;overflow:visible"
       d="m 44.725096,-1.8982778 -6.602771,-9.7586362 c 0.05999,-0.311025 0.35868,-0.513119 0.669704,-0.453128 l 7.619289,1.469645 c 0.311025,0.05999 0.51312,0.35868 0.453128,0.6697049 l -1.469644,7.6192875 c -0.05999,0.3110249 -0.358681,0.5131188 -0.669706,0.4531268 z"
       id="path4589"
       sodipodi:nodetypes="ccccccc"
       inkscape:connector-curvature="0" />
    <path
       style="color:#000000;fill:#5979a3;fill-opacity:1;fill-rule:nonzero;stroke:#272840;stroke-width:1.20831156;stroke-linecap:round;stroke-linejoin:round;stroke-miterlimit:4;stroke-opacity:1;stroke-dashoffset:1.2;marker:none;visibility:visible;display:inline;overflow:visible"
       d="m 37.53027,26.550318 8.488747,-9.639227 c 0.322737,0 0.582556,0.295033 0.582556,0.661509 l 0,8.977718 c 0,0.366476 -0.259819,0.66151 -0.582556,0.66151 l -7.906191,0 c -0.322737,0 -0.582556,-0.295034 -0.582556,-0.66151 z"
       id="path4595"
       sodipodi:nodetypes="ccccccc"
       inkscape:connector-curvature="0" />
    <path
       sodipodi:nodetypes="ccccscccscccccc"
       id="rect4828"
       d="m 34.893253,-2.8595691 c -1.007512,0.091447 -1.996387,0.2933848 -3.015887,0.2183974 -6.659335,0.012308 -13.31866,0.029493 -19.977992,0.04368 -0.750321,0.015421 -1.038812,0.7506831 -0.94156,1.3103869 0.0079,4.7109114 4.441886,10.1538978 3.991275,14.9046948 -0.173595,1.83022 -2.807418,3.850828 -3.991275,5.32123 -0.371583,0.724726 -0.956866,1.99959 -0.421436,1.845209 1.104638,0.07776 3.402083,-0.02073 4.508881,-0.0078 4.086141,1.029407 6.333444,2.049153 9.358543,1.809311 3.864968,-0.306431 7.635102,-1.98236 11.309309,-2.157993 1.053965,-0.492862 1.869254,-1.462055 2.242461,-2.385699 0.700051,-1.901426 0.597647,-3.679112 0.670779,-5.31628 0.154758,-5.061607 -1.999892,-9.9992998 -1.849978,-15.0610203 -0.471082,-0.50722 -1.167799,-0.6840936 -1.88312,-0.5241548 l 0,3.8e-5 z"
       style="color:#000000;fill:url(#linearGradient3682);fill-opacity:1;fill-rule:evenodd;stroke:#8d8d8d;stroke-width:1;stroke-linecap:butt;stroke-linejoin:miter;stroke-miterlimit:4;stroke-opacity:1;stroke-dasharray:none;stroke-dashoffset:0;marker:none;visibility:visible;display:inline;overflow:visible" />
    <path
       sodipodi:nodetypes="ccccccccc"
       id="rect4830"
       d="m 12.29582,-1.1997461 c -0.09038,1.01727668 0.317527,2.03836133 0.82861,3.0575693 -0.07645,0.2265803 1.954292,2.5297009 0.636003,0.889882 5.326031,5.3002026 14.290749,-3.35317022 22.212319,0.2483823 -0.637615,-0.8527998 -0.813008,-1.9234841 -0.813071,-2.62546982 -0.04623,-0.4407827 0.02412,-1.1292967 -0.01865,-1.57036378 -1.121139,-0.078323 -2.246488,-0.030337 -3.369793,-0.04368 -6.45877,0 -12.917538,0 -19.376308,0 l -0.09911,0.04368 z"
       style="color:#000000;fill:url(#linearGradient3679);fill-opacity:1;fill-rule:evenodd;stroke:none;stroke-width:1;marker:none;visibility:visible;display:inline;overflow:visible" />
    <path
       sodipodi:nodetypes="ccsccscccccccccc"
       id="rect4958"
       d="m 11.948931,-1.81126 c -0.292113,0.1165161 -0.08495,0.4799471 -0.148669,0.698873 0,4.849449 4.766304,10.8529969 4.331634,15.019392 -0.172125,1.649852 -3.254699,4.516911 -4.434518,5.989429 0.675569,0.08656 1.582816,-0.30429 2.43563,-0.421581 3.496774,0.440783 6.16952,2.075888 10.385679,1.86238 3.045413,-0.154222 5.945984,-1.994309 10.563433,-2.045943 1.01214,-0.522552 1.323925,-0.882822 1.813511,-1.951666 0.295497,-1.117077 0.5367,-2.027507 0.56319,-3.276793 0.176603,-1.231329 0.4537,-2.675893 -0.04055,-3.629622 C 37.386684,9.4151857 36.581605,8.2744097 36.572924,7.265511 36.450204,4.2884826 35.627035,1.9951113 35.487922,-0.98134832 35.388582,-1.2569684 35.578062,-1.5619043 35.339255,-1.81126 34.201621,-1.890256 33.05972,-1.841288 31.919907,-1.85494 c -6.623955,0 -13.247911,0 -19.871866,0 l -0.09911,0.04368 z"
       style="color:#000000;fill:none;stroke:#ffffff;stroke-width:1;stroke-linecap:butt;stroke-linejoin:miter;stroke-miterlimit:4;stroke-opacity:0.54545456;stroke-dasharray:none;stroke-dashoffset:0;marker:none;visibility:visible;display:inline;overflow:visible" />
  </g>
</svg>
