<?xml version="1.0" encoding="UTF-8" standalone="no"?>
<!-- Created with Inkscape (http://www.inkscape.org/) -->

<svg
   xmlns:dc="http://purl.org/dc/elements/1.1/"
   xmlns:cc="http://creativecommons.org/ns#"
   xmlns:rdf="http://www.w3.org/1999/02/22-rdf-syntax-ns#"
   xmlns:svg="http://www.w3.org/2000/svg"
   xmlns="http://www.w3.org/2000/svg"
   xmlns:xlink="http://www.w3.org/1999/xlink"
   xmlns:sodipodi="http://sodipodi.sourceforge.net/DTD/sodipodi-0.dtd"
   xmlns:inkscape="http://www.inkscape.org/namespaces/inkscape"
   inkscape:export-ydpi="90.000000"
   inkscape:export-xdpi="90.000000"
   inkscape:export-filename="/home/jimmac/Desktop/wi-fi.png"
   width="48"
   height="48"
   id="svg11300"
   sodipodi:version="0.32"
   inkscape:version="0.47+devel r9459"
   sodipodi:docname="plugin-ezoom.svg"
   inkscape:output_extension="org.inkscape.output.svg.inkscape"
   version="1.0">
  <defs
     id="defs3">
    <linearGradient
       inkscape:collect="always"
       id="linearGradient3807">
      <stop
         style="stop-color:#ffffff;stop-opacity:1;"
         offset="0"
         id="stop3809" />
      <stop
         style="stop-color:#ffffff;stop-opacity:0;"
         offset="1"
         id="stop3811" />
    </linearGradient>
    <linearGradient
       id="linearGradient2846">
      <stop
         id="stop2848"
         offset="0.0000000"
         style="stop-color:#8a8a8a;stop-opacity:1.0000000;" />
      <stop
         id="stop2850"
         offset="1.0000000"
         style="stop-color:#484848;stop-opacity:1.0000000;" />
    </linearGradient>
    <linearGradient
       id="linearGradient4440">
      <stop
         style="stop-color:#7d7d7d;stop-opacity:1;"
         offset="0"
         id="stop4442" />
      <stop
         id="stop4448"
         offset="0.50000000"
         style="stop-color:#b1b1b1;stop-opacity:1.0000000;" />
      <stop
         style="stop-color:#686868;stop-opacity:1.0000000;"
         offset="1.0000000"
         id="stop4444" />
    </linearGradient>
    <linearGradient
       id="linearGradient2366">
      <stop
         id="stop2368"
         offset="0"
         style="stop-color:#ffffff;stop-opacity:1;" />
      <stop
         style="stop-color:#ffffff;stop-opacity:0.21904762;"
         offset="0.50000000"
         id="stop2374" />
      <stop
         id="stop2370"
         offset="1.0000000"
         style="stop-color:#ffffff;stop-opacity:1.0000000;" />
    </linearGradient>
    <linearGradient
       id="linearGradient4454">
      <stop
         style="stop-color:#729fcf;stop-opacity:0.20784314;"
         offset="0.0000000"
         id="stop4456" />
      <stop
         style="stop-color:#729fcf;stop-opacity:0.67619050;"
         offset="1.0000000"
         id="stop4458" />
    </linearGradient>
    <linearGradient
       inkscape:collect="always"
       xlink:href="#linearGradient3678"
       id="linearGradient3684"
       x1="4.625"
       y1="-7.625"
       x2="25.621565"
       y2="36.571983"
       gradientUnits="userSpaceOnUse"
       gradientTransform="translate(1,0)" />
    <linearGradient
       inkscape:collect="always"
       id="linearGradient3678">
      <stop
         style="stop-color: white; stop-opacity: 1;"
         offset="0"
         id="stop3680" />
      <stop
         style="stop-color: white; stop-opacity: 0;"
         offset="1"
         id="stop3682" />
    </linearGradient>
    <linearGradient
       inkscape:collect="always"
       xlink:href="#linearGradient4440"
       id="linearGradient4479"
       gradientUnits="userSpaceOnUse"
       gradientTransform="matrix(-0.07905289,1.1734791,-1.1354055,-0.07648801,49.271241,-12.560034)"
       x1="30.65625"
       y1="34"
       x2="33.21875"
       y2="31.0625" />
    <radialGradient
       inkscape:collect="always"
       xlink:href="#linearGradient4454"
       id="radialGradient4481"
       gradientUnits="userSpaceOnUse"
       cx="18.240929"
       cy="21.817987"
       fx="18.240929"
       fy="21.817987"
       r="8.3085051" />
    <linearGradient
       inkscape:collect="always"
       xlink:href="#linearGradient2366"
       id="linearGradient4483"
       gradientUnits="userSpaceOnUse"
       x1="18.292673"
       y1="13.602121"
       x2="17.500893"
       y2="25.743469" />
    <linearGradient
       inkscape:collect="always"
       xlink:href="#linearGradient2846"
       id="linearGradient4485"
       gradientUnits="userSpaceOnUse"
       gradientTransform="matrix(-0.0592337,0.87927863,-0.87927863,-0.0592337,41.683441,-6.7821917)"
       x1="27.366341"
       y1="26.580296"
       x2="31.335964"
       y2="30.557772" />
    <linearGradient
       inkscape:collect="always"
       xlink:href="#linearGradient3807"
       id="linearGradient3813"
       x1="10.40602"
       y1="24.772169"
       x2="14.727009"
       y2="22.678635"
       gradientUnits="userSpaceOnUse" />
  </defs>
  <sodipodi:namedview
     stroke="#ef2929"
     fill="#eeeeec"
     id="base"
     pagecolor="#ffffff"
     bordercolor="#666666"
     borderopacity="0.25490196"
     inkscape:pageopacity="0.0"
     inkscape:pageshadow="2"
     inkscape:zoom="11.387365"
     inkscape:cx="24.526899"
     inkscape:cy="24"
     inkscape:current-layer="layer1"
     showgrid="false"
     inkscape:grid-bbox="true"
     inkscape:document-units="px"
     inkscape:showpageshadow="false"
     inkscape:window-width="1280"
     inkscape:window-height="975"
     inkscape:window-x="0"
     inkscape:window-y="24"
     showguides="true"
     inkscape:guide-bbox="true"
     inkscape:window-maximized="1"
     inkscape:snap-global="false">
    <inkscape:grid
       type="xygrid"
       id="grid8345"
       visible="true"
       enabled="true"
       empspacing="5"
       snapvisiblegridlinesonly="true" />
  </sodipodi:namedview>
  <metadata
     id="metadata4">
    <rdf:RDF>
      <cc:Work
         rdf:about="">
        <dc:format>image/svg+xml</dc:format>
        <dc:type
           rdf:resource="http://purl.org/dc/dcmitype/StillImage" />
        <dc:creator>
          <cc:Agent>
            <dc:title>Patrick Niklaus</dc:title>
          </cc:Agent>
        </dc:creator>
        <dc:source />
        <cc:license
           rdf:resource="http://creativecommons.org/licenses/GPL/2.0/" />
        <dc:title>Zoom</dc:title>
        <dc:subject>
          <rdf:Bag />
        </dc:subject>
      </cc:Work>
      <cc:License
         rdf:about="http://creativecommons.org/licenses/GPL/2.0/">
        <cc:permits
           rdf:resource="http://web.resource.org/cc/Reproduction" />
        <cc:permits
           rdf:resource="http://web.resource.org/cc/Distribution" />
        <cc:requires
           rdf:resource="http://web.resource.org/cc/Notice" />
        <cc:permits
           rdf:resource="http://web.resource.org/cc/DerivativeWorks" />
        <cc:requires
           rdf:resource="http://web.resource.org/cc/ShareAlike" />
        <cc:requires
           rdf:resource="http://web.resource.org/cc/SourceCode" />
      </cc:License>
    </rdf:RDF>
  </metadata>
  <g
     id="layer1"
     inkscape:label="Layer 1"
     inkscape:groupmode="layer"
     transform="translate(0,16)">
    <g
       id="layer6"
       inkscape:label="Shadow"
       transform="matrix(1.4347767,0,0,1.4347767,-59.236429,26.826976)" />
    <g
       style="display:inline"
       inkscape:label="Base"
       id="g6461"
       transform="matrix(1.4347767,0,0,1.4347767,-59.236429,26.826976)" />
    <g
       id="g2637"
       inkscape:label="base"
       style="display:inline"
       transform="matrix(1.4347767,0,0,1.4347767,-76.834151,94.978853)" />
    <g
       id="g8314"
       inkscape:label="Shadow"
       transform="matrix(1.4347767,0,0,1.4347767,-59.236429,26.826976)" />
    <g
       style="display:inline"
       inkscape:label="Base"
       id="g8316"
       transform="matrix(1.4347767,0,0,1.4347767,-59.236429,26.826976)" />
    <g
       id="g8318"
       inkscape:label="base"
       style="display:inline"
       transform="matrix(1.4347767,0,0,1.4347767,-76.834151,94.978853)" />
    <g
       transform="matrix(1.4347767,0,0,1.4347767,-60.928787,-69.573786)"
       id="g8230" />
    <g
       transform="matrix(1.4347767,0,0,1.4347767,-60.928787,-69.573786)"
       id="g8232"
       style="display:inline" />
    <g
       transform="matrix(1.4347767,0,0,1.4347767,-78.526509,-1.4218994)"
       id="g8234"
       style="display:inline" />
    <g
       transform="matrix(1.4347767,0,0,1.4347767,-83.670839,-195.49795)"
       id="layer2" />
    <g
       id="g8375"
       inkscape:label="Shadow"
       transform="matrix(1.4347767,0,0,1.4347767,-76.771337,-40.148604)" />
    <g
       style="display:inline"
       inkscape:label="Base"
       id="g8377"
       transform="matrix(1.4347767,0,0,1.4347767,-76.771337,-40.148604)" />
    <g
       id="g8379"
       inkscape:label="base"
       style="display:inline"
       transform="matrix(1.4347767,0,0,1.4347767,-94.36906,28.003279)" />
    <g
       transform="matrix(1.1129071,0,0,1.1129071,-2.9114648,-19.210619)"
       style="display:inline"
       id="g3335">
      <rect
         y="9.4999962"
         x="4.499999"
         height="28.999983"
         width="38.999981"
         id="rect1879"
         style="color:#000000;fill:#a0a28f;fill-opacity:1;fill-rule:nonzero;stroke:#3b4037;stroke-width:1;stroke-linecap:round;stroke-linejoin:round;stroke-miterlimit:4;stroke-opacity:1;stroke-dasharray:none;stroke-dashoffset:1.2;marker:none;visibility:visible;display:inline;overflow:visible" />
      <rect
         y="10.499998"
         x="5.49998"
         height="26.999969"
         width="37.000023"
         id="rect3674"
         style="color:#000000;fill:none;stroke:url(#linearGradient3684);stroke-width:1;stroke-linecap:round;stroke-linejoin:round;stroke-miterlimit:4;stroke-opacity:1;stroke-dasharray:none;stroke-dashoffset:1.2;marker:none;visibility:visible;display:inline;overflow:visible" />
      <path
         inkscape:connector-curvature="0"
         sodipodi:nodetypes="ccccccc"
         id="rect2768"
         d="m 4.0137577,31.50001 7.4862443,7.486243 c 0,0.284622 -0.229135,0.513757 -0.513757,0.513757 l -6.9724873,0 c -0.2846215,0 -0.5137572,-0.229135 -0.5137572,-0.513757 l 0,-6.972486 c 0,-0.284622 0.2291357,-0.513757 0.5137572,-0.513757 z"
         style="color:#000000;fill:#4a6588;fill-opacity:1;fill-rule:nonzero;stroke:#272840;stroke-width:1;stroke-linecap:round;stroke-linejoin:round;stroke-miterlimit:4;stroke-opacity:1;stroke-dashoffset:1.2;marker:none;visibility:visible;display:inline;overflow:visible" />
      <path
         inkscape:connector-curvature="0"
         sodipodi:nodetypes="ccccccc"
         id="path4583"
         d="M 11.5,9.0137677 4.013757,16.500012 C 3.729135,16.500012 3.5,16.270877 3.5,15.986255 l 0,-6.9724873 C 3.5,8.7291462 3.729135,8.5000105 4.013757,8.5000105 l 6.972486,0 c 0.284622,0 0.513757,0.2291357 0.513757,0.5137572 z"
         style="color:#000000;fill:#5a7aa4;fill-opacity:1;fill-rule:nonzero;stroke:#272840;stroke-width:1;stroke-linecap:round;stroke-linejoin:round;stroke-miterlimit:4;stroke-opacity:1;stroke-dashoffset:1.2;marker:none;visibility:visible;display:inline;overflow:visible" />
      <path
         inkscape:connector-curvature="0"
         sodipodi:nodetypes="ccccccc"
         id="path4589"
         d="M 43.986242,16.50001 36.499998,9.013767 c 0,-0.284622 0.229135,-0.513757 0.513757,-0.513757 l 6.972487,0 C 44.270864,8.50001 44.5,8.729145 44.5,9.013767 l 0,6.972486 c 0,0.284622 -0.229136,0.513757 -0.513758,0.513757 z"
         style="color:#000000;fill:#5a7aa4;fill-opacity:1;fill-rule:nonzero;stroke:#272840;stroke-width:1;stroke-linecap:round;stroke-linejoin:round;stroke-miterlimit:4;stroke-opacity:1;stroke-dashoffset:1.2;marker:none;visibility:visible;display:inline;overflow:visible" />
      <path
         inkscape:connector-curvature="0"
         sodipodi:nodetypes="ccccccc"
         id="path4595"
         d="m 36.499999,38.986252 7.486243,-7.486244 c 0.284622,0 0.513757,0.229135 0.513757,0.513757 l 0,6.972487 c 0,0.284622 -0.229135,0.513758 -0.513757,0.513758 l -6.972486,0 c -0.284622,0 -0.513757,-0.229136 -0.513757,-0.513758 z"
         style="color:#000000;fill:#5979a3;fill-opacity:1;fill-rule:nonzero;stroke:#272840;stroke-width:1;stroke-linecap:round;stroke-linejoin:round;stroke-miterlimit:4;stroke-opacity:1;stroke-dashoffset:1.2;marker:none;visibility:visible;display:inline;overflow:visible" />
    </g>
    <path
       style="color:#000000;fill:#dcdcdc;fill-opacity:1;fill-rule:evenodd;stroke:url(#linearGradient4485);stroke-width:1.76254392;stroke-linecap:round;stroke-linejoin:miter;stroke-miterlimit:10;stroke-opacity:1;stroke-dasharray:none;stroke-dashoffset:0;marker:none;visibility:visible;display:inline;overflow:visible"
       d="m 37.816,9.4104289 c 0.482111,-7.156563 -4.934836,-13.3560662 -12.091399,-13.838177 -7.156564,-0.4821111 -13.356067,4.934835 -13.838178,12.091398 -0.206107,3.0594941 0.829226,5.8421571 2.454404,8.1798801 -0.873164,-0.240219 -1.785035,-0.189146 -2.471532,0.501386 l -9.0266909,9.076137 c -1.015057,1.021057 -1.001455,2.659595 0.0196,3.67465 1.02106,1.015057 2.659597,1.001456 3.674652,-0.0196 l 9.0266919,-9.07614 c 0.552642,-0.555913 0.753136,-1.267879 0.701739,-1.989757 2.09144,1.895683 4.679632,3.287308 7.712534,3.491623 7.156563,0.482111 13.356066,-4.934835 13.838177,-12.0913981 z M 36.742322,9.2713239 C 36.289808,15.988538 31.744179,20.674826 24.267827,20.171172 16.639986,19.657313 12.925198,14.26936 13.367974,7.6966819 13.800555,1.2753539 18.972064,-3.666 25.842469,-3.2031665 32.862724,-2.7302384 37.184628,2.7056269 36.742322,9.2713239 z"
       id="path2844"
       sodipodi:nodetypes="csscccscccscczzzz"
       inkscape:connector-curvature="0" />
    <path
       sodipodi:nodetypes="ccccc"
       id="path4438"
       d="m 3.3996377,25.404856 c 2.027118,-0.286237 4.147811,1.513641 3.998018,3.435015 0,0 8.7778363,-8.912969 8.7778363,-8.912969 0.224295,-2.585932 -1.745364,-3.888696 -3.820898,-3.593339 l -8.9549563,9.071293 z"
       style="color:#000000;fill:url(#linearGradient4479);fill-opacity:1;fill-rule:evenodd;stroke:none;stroke-width:1;marker:none;visibility:visible;display:inline;overflow:visible"
       inkscape:connector-curvature="0" />
    <rect
       transform="matrix(-0.70715981,0.70705375,-0.71553612,-0.69857574,0,0)"
       ry="1.6637847"
       rx="1.8829792"
       y="-24.616085"
       x="1.4199255"
       height="3.9132671"
       width="16.786852"
       id="rect4495"
       style="opacity:0.43315507;color:#000000;fill:none;stroke:#ffffff;stroke-width:0.88129908;stroke-linecap:round;stroke-linejoin:miter;stroke-miterlimit:10;stroke-opacity:1;stroke-dasharray:none;stroke-dashoffset:0;marker:none;visibility:visible;display:inline;overflow:visible" />
    <path
       transform="matrix(-0.07378997,1.0953552,-1.0953552,-0.07378997,47.31767,-9.4281391)"
       d="m 28.549437,18.920233 c 0,6.101942 -4.946602,11.048544 -11.048544,11.048544 -6.101943,0 -11.0485443,-4.946602 -11.0485443,-11.048544 0,-6.101943 4.9466013,-11.0485442 11.0485443,-11.0485442 6.101942,0 11.048544,4.9466012 11.048544,11.0485442 z"
       sodipodi:ry="11.048544"
       sodipodi:rx="11.048544"
       sodipodi:cy="18.920233"
       sodipodi:cx="17.500893"
       id="path4450"
       style="color:#000000;fill:none;stroke:url(#linearGradient4483);stroke-width:0.8027336;stroke-linecap:round;stroke-linejoin:miter;stroke-miterlimit:10;stroke-opacity:1;stroke-dasharray:none;stroke-dashoffset:0;marker:none;visibility:visible;display:inline;overflow:visible"
       sodipodi:type="arc" />
    <path
       transform="matrix(-0.10123437,1.5027461,-1.5027461,-0.10123437,54.716796,-16.22517)"
       d="m 25.897786,18.478292 c 0,4.588661 -3.719844,8.308506 -8.308505,8.308506 -4.588661,0 -8.308505,-3.719845 -8.308505,-8.308506 0,-4.58866 3.719844,-8.308505 8.308505,-8.308505 4.588661,0 8.308505,3.719845 8.308505,8.308505 z"
       sodipodi:ry="8.3085051"
       sodipodi:rx="8.3085051"
       sodipodi:cy="18.478292"
       sodipodi:cx="17.589281"
       id="path4452"
       style="color:#000000;fill:url(#radialGradient4481);fill-opacity:1;fill-rule:evenodd;stroke:#d2d8e0;stroke-width:0.71499395;stroke-linecap:round;stroke-linejoin:miter;stroke-miterlimit:10;stroke-opacity:1;stroke-dashoffset:0;marker:none;visibility:visible"
       sodipodi:type="arc" />
    <path
       sodipodi:type="arc"
       style="color:#000000;fill:url(#linearGradient3813);fill-opacity:1;fill-rule:evenodd;stroke:none;stroke-width:0.71499395;marker:none;visibility:visible"
       id="path3805"
       sodipodi:cx="17.589281"
       sodipodi:cy="18.478292"
       sodipodi:rx="8.3085051"
       sodipodi:ry="8.3085051"
       d="m 25.897786,18.478292 c 0,4.588661 -3.719844,8.308506 -8.308505,8.308506 -4.588661,0 -8.308505,-3.719845 -8.308505,-8.308506 0,-4.58866 3.719844,-8.308505 8.308505,-8.308505 4.588661,0 8.308505,3.719845 8.308505,8.308505 z"
       transform="matrix(-0.10123437,1.5027461,-1.5027461,-0.10123437,54.716796,-16.22517)" />
  </g>
</svg>
