<?xml version="1.0" encoding="UTF-8" standalone="no"?>
<!-- Generator: Adobe Illustrator 12.0.0, SVG Export Plug-In . SVG Version: 6.00 Build 51448)  -->

<svg
   xmlns:dc="http://purl.org/dc/elements/1.1/"
   xmlns:cc="http://creativecommons.org/ns#"
   xmlns:rdf="http://www.w3.org/1999/02/22-rdf-syntax-ns#"
   xmlns:svg="http://www.w3.org/2000/svg"
   xmlns="http://www.w3.org/2000/svg"
   xmlns:xlink="http://www.w3.org/1999/xlink"
   xmlns:sodipodi="http://sodipodi.sourceforge.net/DTD/sodipodi-0.dtd"
   xmlns:inkscape="http://www.inkscape.org/namespaces/inkscape"
   version="1.1"
   id="Layer_1"
   width="48"
   height="48"
   viewBox="0 0 48 48"
   overflow="visible"
   enable-background="new 0 0 474.315 490.387"
   xml:space="preserve"
   inkscape:version="0.47+devel r9474"
   sodipodi:docname="plugin-autumn.svg"
   style="overflow:visible"><metadata
   id="metadata9"><rdf:RDF><cc:Work
       rdf:about=""><dc:format>image/svg+xml</dc:format><dc:type
         rdf:resource="http://purl.org/dc/dcmitype/StillImage" /></cc:Work></rdf:RDF></metadata><defs
   id="defs7"><linearGradient
     inkscape:collect="always"
     id="linearGradient3738"><stop
       style="stop-color:#d79d38;stop-opacity:1;"
       offset="0"
       id="stop3740" /><stop
       style="stop-color:#d79d38;stop-opacity:0;"
       offset="1"
       id="stop3742" /></linearGradient><linearGradient
     inkscape:collect="always"
     id="linearGradient3753"><stop
       style="stop-color:#ff8400;stop-opacity:1;"
       offset="0"
       id="stop3755" /><stop
       style="stop-color:#ff8400;stop-opacity:0;"
       offset="1"
       id="stop3757" /></linearGradient><linearGradient
     inkscape:collect="always"
     xlink:href="#linearGradient3753"
     id="linearGradient3759"
     x1="66.919823"
     y1="80.656708"
     x2="128.21519"
     y2="149.63449"
     gradientUnits="userSpaceOnUse"
     gradientTransform="matrix(0.18918322,0,0,0.18918322,0.0053244,0.67953196)" /><linearGradient
     inkscape:collect="always"
     xlink:href="#linearGradient3738"
     id="linearGradient3744"
     x1="0.57456169"
     y1="24.0776"
     x2="47.94844"
     y2="24.0776"
     gradientUnits="userSpaceOnUse" /></defs><sodipodi:namedview
   pagecolor="#ffffff"
   bordercolor="#666666"
   borderopacity="1"
   objecttolerance="10"
   gridtolerance="10"
   guidetolerance="10"
   inkscape:pageopacity="0"
   inkscape:pageshadow="2"
   inkscape:window-width="1280"
   inkscape:window-height="975"
   id="namedview5"
   showgrid="false"
   inkscape:zoom="11.461022"
   inkscape:cx="24.174505"
   inkscape:cy="24"
   inkscape:window-x="0"
   inkscape:window-y="24"
   inkscape:window-maximized="1"
   inkscape:current-layer="Layer_1"
   showguides="true"
   inkscape:guide-bbox="true"><sodipodi:guide
     orientation="1,0"
     position="-83.2,138.31111"
     id="guide3793" /></sodipodi:namedview>
<path
   d="m 31.626367,10.437931 c 0,0 0.316786,2.629309 0.286771,2.957659 -0.02992,0.328368 0.09389,1.357231 0.149886,1.628834 0.05598,0.271605 0.202307,0.754994 0.32732,0.90694 0.124917,0.151886 0.349712,0.361468 0.638192,0.368473 0.288466,0.0076 0.296891,0.03838 0.460358,-0.106455 0.163467,-0.145001 0.204182,-0.307595 0.253308,-0.438769 0.04908,-0.131232 0.0961,-0.396617 0.139642,0.0806 0.04357,0.477222 0.04591,0.611472 -0.110026,0.973551 -0.155843,0.362064 -0.623425,1.448284 -0.600013,2.605232 0.02343,1.156963 0.083,1.882757 -0.194145,2.547062 -0.277175,0.664322 -0.739408,1.833398 -0.739408,1.833398 0,0 -0.29179,0.735659 -0.181377,0.958945 0.11044,0.223285 0.172498,0.392104 0.703366,0.485867 0.530883,0.09376 2.204118,0.235478 2.814761,0.375293 0.610658,0.139802 1.960048,0.520038 2.365103,0.647509 0.405042,0.127413 2.246846,0.898363 2.872105,0.966841 0.625259,0.06852 2.366743,0.276193 2.966702,0.250298 0.599958,-0.02585 1.901877,0.114106 2.238656,0.175639 0.336779,0.06149 1.355552,0.277386 1.426917,0.291993 0.07128,0.0153 -0.834777,0.156247 -1.60129,0.378492 -0.766515,0.222247 -2.378698,1.126266 -2.730919,1.32179 -0.352193,0.195524 -2.326676,1.634936 -2.658946,1.841962 -0.33227,0.207043 -1.900885,1.588285 -2.199444,1.921149 -0.298545,0.33288 -0.82121,0.961822 -0.768375,1.284836 0.0528,0.323013 0.207643,0.83785 0.734609,1.168676 0.526967,0.330847 1.399136,0.754629 1.564864,0.743937 0.165714,-0.01076 0.385918,-0.06975 0.385918,-0.06975 0,0 0.0568,0.08597 -0.569322,0.203126 -0.626086,0.117169 -0.900779,0.224494 -1.30356,0.23127 -0.40278,0.006 -1.186143,0.16611 -1.466199,0.190568 -0.280028,0.02447 -1.048803,0.112425 -1.048803,0.112425 0,0 -1.058069,0.26665 -1.335837,0.425372 -0.277781,0.158723 -0.547964,0.534567 -0.480528,0.786229 0.06742,0.251672 0.548943,1.167868 0.548943,1.167868 l 0.629547,1.028249 0.77225,1.057466 0.647223,0.905502 0.462398,0.719034 0.302848,0.626891 0.180094,0.609224 c 0,0 -0.435677,-0.304718 -0.808442,-0.626293 -0.372751,-0.321593 -1.192706,-0.927942 -1.415185,-1.003197 -0.222451,-0.07525 -1.543479,-0.412476 -1.543479,-0.412476 l -1.047136,-0.2589 c 0,0 -0.976652,-0.05859 -1.281981,-0.128488 -0.305314,-0.0699 -0.990385,-0.172932 -1.204439,-0.216738 -0.214027,-0.04375 -0.565421,-0.03396 -0.703587,0.205391 -0.138112,0.239315 -0.331663,0.712622 -0.301854,1.075528 0.02978,0.362887 0.124779,0.843202 0.320301,1.1954 0.195524,0.352215 0.371938,0.50725 0.609004,0.511165 0.237066,0.0045 -0.309231,0.167153 -0.309231,0.167153 0,0 -0.328354,-0.02997 -0.732568,-0.343175 -0.404228,-0.313146 -1.308468,-1.234082 -1.373643,-1.351494 -0.06521,-0.117471 -0.713238,-0.837252 -1.086002,-1.158828 -0.372752,-0.321575 -1.046915,-0.950135 -1.412083,-1.054606 -0.365153,-0.104469 -0.733396,-0.157497 -0.792628,0.313547 -0.05915,0.471044 -0.01558,0.948254 -0.01558,0.948254 l 0.133327,0.183411 -0.279201,-0.161202 c 0,0 -0.139656,-0.0806 -0.394136,-0.653016 -0.254535,-0.572419 -0.870087,-2.177606 -0.870087,-2.177606 l -1.348507,-3.145214 -0.94308,-1.820887 c 0,0 -0.516887,-0.670699 -0.681775,-0.845682 -0.164887,-0.174979 -0.453367,-0.181971 -0.630595,-0.151271 -0.177226,0.0306 -0.500245,0.08351 -0.500245,0.08351 0,0 -0.343783,0.226985 -0.904901,1.152817 -0.561119,0.925847 -1.251994,2.122455 -1.867008,3.602202 -0.615002,1.479747 -1.188474,2.611197 -1.424919,3.112864 -0.236473,0.501681 -0.581897,1.099987 -0.562787,1.297179 0.01917,0.197175 0.100375,0.563154 0.125606,0.657528 0.02523,0.09438 0.0013,0.134291 -0.109888,0.282299 -0.112094,0.148061 -0.0699,0.305329 -0.281683,0.395789 -0.211779,0.09054 -0.180316,0.08198 -0.373578,-0.135975 -0.193276,-0.217947 -0.298325,-0.358391 -0.187706,-0.826347 0.110577,-0.467953 0.133741,-0.507844 0.360866,-0.855317 0.227208,-0.347471 1.357869,-2.167685 1.485364,-2.572728 0.127536,-0.405044 0.505209,-1.19745 0.710205,-1.690705 0.20501,-0.493238 1.320477,-2.747694 1.527748,-3.106682 0.207256,-0.358991 0.960217,-1.386813 0.984056,-1.61236 0.02386,-0.22555 0.164295,-0.330619 -0.05818,-0.405872 -0.222465,-0.07525 -0.94352,-0.438373 -1.280299,-0.499862 -0.336779,-0.06149 -1.301905,-0.140107 -1.51902,-0.132459 -0.217129,0.0076 -2.776529,0.01912 -3.615814,-0.09315 C 11.065886,32.232399 9.8415097,32.00413 9.5760686,31.957232 9.3106276,31.910272 8.3309003,31.903092 8.1368245,31.870812 7.9427171,31.838527 7.2944327,31.809932 7.0436066,31.691696 6.792753,31.573452 6.582642,31.2926 6.582642,31.2926 c 0,0 0.3789277,0.218773 0.6850701,0.103092 C 7.573882,31.279902 7.9291776,31.033017 7.9468534,30.910267 7.9646393,30.787598 8.0849787,30.670935 7.7344813,30.495144 7.383915,30.319336 6.5063959,29.812699 6.2240925,29.702904 5.9418029,29.593086 5.9418029,29.593086 5.9418029,29.593086 c 0,0 -0.1333271,-0.18341 -0.3067632,-0.389841 C 5.4617144,28.996799 5.3459665,28.690642 5.2892301,28.604696 5.2324247,28.518729 5.395947,28.373808 5.422971,28.096851 5.4498569,27.819907 5.5221046,27.64884 5.3854684,27.516838 5.2488321,27.384834 4.966639,27.27503 5.2488321,27.384834 c 0.2822896,0.10982 0.4441022,0.336169 0.4517131,0.553292 0.00828,0.217121 0.1433236,0.534796 0.1433236,0.534796 0,0 0.2800422,-0.02447 0.3659949,-0.08122 0.085897,-0.05675 0.412032,-0.160984 0.4673344,-0.394965 0.055427,-0.233975 0.021509,-0.359813 -0.0688,-0.571597 -0.090448,-0.211769 -1.218586,-1.527899 -1.218586,-1.527899 0,0 -1.4402506,-1.788808 -2.2026283,-2.494886 C 2.4248056,22.69627 1.9040023,22.262638 1.6908029,22.033174 1.4775898,21.803709 1.2138033,21.385496 1.2138033,21.385496 L 1.0781322,21.067834 c 0,0 -0.062872,0.01682 0.3390398,0.195755 0.4019532,0.178881 1.9929311,0.831518 2.5268878,0.873886 0.5339705,0.04237 1.8926259,0.268363 2.1611416,0.263836 0.2685294,-0.0045 1.3687338,-0.113955 1.5352893,-0.310229 C 7.8070185,21.894735 8.1148291,21.40766 7.900182,20.858272 7.6855487,20.308882 7.1703294,19.26685 7.0116053,18.989082 6.8528812,18.711298 6.6168493,17.830467 6.5716256,17.724576 c -0.045224,-0.105848 -0.095825,-0.294641 -0.095825,-0.294641 0,0 0.6396396,0.688394 0.9387916,0.861113 0.2991658,0.172719 0.898297,0.332483 1.1331018,0.202134 0.2348047,-0.130321 0.5232712,-0.12329 0.7299352,-0.987931 0.2066502,-0.864573 0.5292827,-2.114241 0.5292827,-2.114241 l 0.3265341,-1.486737 0.186107,-1.381688 c 0,0 0.162474,-1.847378 0.103683,-2.7588445 C 10.364501,8.8522873 10.16236,7.4060383 10.16236,7.4060383 l -0.07997,-1.93415 c 0,0 1.046486,2.3326459 2.503587,4.1843688 1.457099,1.8517369 1.655697,2.1525569 2.258538,2.7665089 0.602826,0.613952 1.509327,1.669154 1.745565,1.858727 0.236239,0.189575 1.16946,1.659074 1.374234,1.857092 0.20479,0.198001 0.55985,0.642325 0.756201,0.808865 0.196351,0.166554 0.480088,0.596269 0.949698,0.335586 0.469623,-0.260715 1.07063,-1.163511 1.178175,-1.58007 0.107544,-0.416563 0.490208,-2.322952 0.490208,-2.322952 0,0 0.06315,-0.708112 0.224353,-0.98732 0.161193,-0.279207 0.402174,-0.512372 0.456663,-0.560676 0.05446,-0.04834 0.03902,0.208693 0.06343,0.488726 0.02454,0.280033 0.173917,0.712028 0.453146,0.873229 0.279202,0.161201 0.417975,0.427467 0.850785,0.09238 0.432823,-0.335126 1.686031,-1.446402 1.826458,-1.551468 0.140414,-0.105076 1.324544,-1.096683 1.359097,-1.15652 0.0346,-0.05981 1.104326,-1.0376717 1.339972,-1.3536792 0.235633,-0.3160241 0.984678,-1.1067632 1.318588,-1.6851377 0.333925,-0.5783586 1.607302,-2.3693714 1.653353,-2.449154 0.04605,-0.079845 1.012446,-1.5693864 1.127601,-1.7688243 C 32.12717,3.1221292 32.12717,3.1221292 32.12717,3.1221292 l 0.09748,-0.076632 c 0,0 0.01379,1.3111591 -0.183239,2.0215419 -0.197413,0.7103595 -0.361087,1.5465567 -0.402023,2.4004531 -0.04095,0.8538931 -0.01379,2.9706118 -0.01379,2.9706118 z"
   id="path3"
   style="fill:#fce94f;stroke:#000000;stroke-width:0.09211587"
   inkscape:connector-curvature="0" />
<path
   style="fill:url(#linearGradient3759);fill-opacity:1;stroke:url(#linearGradient3744);stroke-width:1;stroke-opacity:1;stroke-miterlimit:4;stroke-dasharray:none"
   id="path2979"
   d="m 31.626367,10.437931 c 0,0 0.316786,2.629309 0.286771,2.957659 -0.02992,0.328368 0.09389,1.357231 0.149886,1.628834 0.05598,0.271605 0.202307,0.754994 0.32732,0.90694 0.124917,0.151886 0.349712,0.361468 0.638192,0.368473 0.288466,0.0076 0.296891,0.03838 0.460358,-0.106455 0.163467,-0.145001 0.204182,-0.307595 0.253308,-0.438769 0.04908,-0.131232 0.0961,-0.396617 0.139642,0.0806 0.04357,0.477222 0.04591,0.611472 -0.110026,0.973551 -0.155843,0.362064 -0.623425,1.448284 -0.600013,2.605232 0.02343,1.156963 0.083,1.882757 -0.194145,2.547062 -0.277175,0.664322 -0.739408,1.833398 -0.739408,1.833398 0,0 -0.29179,0.735659 -0.181377,0.958945 0.11044,0.223285 0.172498,0.392104 0.703366,0.485867 0.530883,0.09376 2.204118,0.235478 2.814761,0.375293 0.610658,0.139802 1.960048,0.520038 2.365103,0.647509 0.405042,0.127413 2.246846,0.898363 2.872105,0.966841 0.625259,0.06852 2.366743,0.276193 2.966702,0.250298 0.599958,-0.02585 1.901877,0.114106 2.238656,0.175639 0.336779,0.06149 1.355552,0.277386 1.426917,0.291993 0.07128,0.0153 -0.834777,0.156247 -1.60129,0.378492 -0.766515,0.222247 -2.378698,1.126266 -2.730919,1.32179 -0.352193,0.195524 -2.326676,1.634936 -2.658946,1.841962 -0.33227,0.207043 -1.900885,1.588285 -2.199444,1.921149 -0.298545,0.33288 -0.82121,0.961822 -0.768375,1.284836 0.0528,0.323013 0.207643,0.83785 0.734609,1.168676 0.526967,0.330847 1.399136,0.754629 1.564864,0.743937 0.165714,-0.01076 0.385918,-0.06975 0.385918,-0.06975 0,0 0.0568,0.08597 -0.569322,0.203126 -0.626086,0.117169 -0.900779,0.224494 -1.30356,0.23127 -0.40278,0.006 -1.186143,0.16611 -1.466199,0.190568 -0.280028,0.02447 -1.048803,0.112425 -1.048803,0.112425 0,0 -1.058069,0.26665 -1.335837,0.425372 -0.277781,0.158723 -0.547964,0.534567 -0.480528,0.786229 0.06742,0.251672 0.548943,1.167868 0.548943,1.167868 l 0.629547,1.028249 0.77225,1.057466 0.647223,0.905502 0.462398,0.719034 0.302848,0.626891 0.180094,0.609224 c 0,0 -0.435677,-0.304718 -0.808442,-0.626293 -0.372751,-0.321593 -1.192706,-0.927942 -1.415185,-1.003197 -0.222451,-0.07525 -1.543479,-0.412476 -1.543479,-0.412476 l -1.047136,-0.2589 c 0,0 -0.976652,-0.05859 -1.281981,-0.128488 -0.305314,-0.0699 -0.990385,-0.172932 -1.204439,-0.216738 -0.214027,-0.04375 -0.565421,-0.03396 -0.703587,0.205391 -0.138112,0.239315 -0.331663,0.712622 -0.301854,1.075528 0.02978,0.362887 0.124779,0.843202 0.320301,1.1954 0.195524,0.352215 0.371938,0.50725 0.609004,0.511165 0.237066,0.0045 -0.309231,0.167153 -0.309231,0.167153 0,0 -0.328354,-0.02997 -0.732568,-0.343175 -0.404228,-0.313146 -1.308468,-1.234082 -1.373643,-1.351494 -0.06521,-0.117471 -0.713238,-0.837252 -1.086002,-1.158828 -0.372752,-0.321575 -1.046915,-0.950135 -1.412083,-1.054606 -0.365153,-0.104469 -0.733396,-0.157497 -0.792628,0.313547 -0.05915,0.471044 -0.01558,0.948254 -0.01558,0.948254 l 0.133327,0.183411 -0.279201,-0.161202 c 0,0 -0.139656,-0.0806 -0.394136,-0.653016 -0.254535,-0.572419 -0.870087,-2.177606 -0.870087,-2.177606 l -1.348507,-3.145214 -0.94308,-1.820887 c 0,0 -0.516887,-0.670699 -0.681775,-0.845682 -0.164887,-0.174979 -0.453367,-0.181971 -0.630595,-0.151271 -0.177226,0.0306 -0.500245,0.08351 -0.500245,0.08351 0,0 -0.343783,0.226985 -0.904901,1.152817 -0.561119,0.925847 -1.251994,2.122455 -1.867008,3.602202 -0.615002,1.479747 -1.188474,2.611197 -1.424919,3.112864 -0.236473,0.501681 -0.581897,1.099987 -0.562787,1.297179 0.01917,0.197175 0.100375,0.563154 0.125606,0.657528 0.02523,0.09438 0.0013,0.134291 -0.109888,0.282299 -0.112094,0.148061 -0.0699,0.305329 -0.281683,0.395789 -0.211779,0.09054 -0.180316,0.08198 -0.373578,-0.135975 -0.193276,-0.217947 -0.298325,-0.358391 -0.187706,-0.826347 0.110577,-0.467953 0.133741,-0.507844 0.360866,-0.855317 0.227208,-0.347471 1.357869,-2.167685 1.485364,-2.572728 0.127536,-0.405044 0.505209,-1.19745 0.710205,-1.690705 0.20501,-0.493238 1.320477,-2.747694 1.527748,-3.106682 0.207256,-0.358991 0.960217,-1.386813 0.984056,-1.61236 0.02386,-0.22555 0.164295,-0.330619 -0.05818,-0.405872 -0.222465,-0.07525 -0.94352,-0.438373 -1.280299,-0.499862 -0.336779,-0.06149 -1.301905,-0.140107 -1.51902,-0.132459 -0.217129,0.0076 -2.776529,0.01912 -3.615814,-0.09315 C 11.065886,32.232399 9.8415097,32.00413 9.5760686,31.957232 9.3106276,31.910272 8.3309003,31.903092 8.1368245,31.870812 7.9427171,31.838527 7.2944327,31.809932 7.0436066,31.691696 6.792753,31.573452 6.582642,31.2926 6.582642,31.2926 c 0,0 0.3789277,0.218773 0.6850701,0.103092 C 7.573882,31.279902 7.9291776,31.033017 7.9468534,30.910267 7.9646393,30.787598 8.0849787,30.670935 7.7344813,30.495144 7.383915,30.319336 6.5063959,29.812699 6.2240925,29.702904 5.9418029,29.593086 5.9418029,29.593086 5.9418029,29.593086 c 0,0 -0.1333271,-0.18341 -0.3067632,-0.389841 C 5.4617144,28.996799 5.3459665,28.690642 5.2892301,28.604696 5.2324247,28.518729 5.395947,28.373808 5.422971,28.096851 5.4498569,27.819907 5.5221046,27.64884 5.3854684,27.516838 5.2488321,27.384834 4.966639,27.27503 5.2488321,27.384834 c 0.2822896,0.10982 0.4441022,0.336169 0.4517131,0.553292 0.00828,0.217121 0.1433236,0.534796 0.1433236,0.534796 0,0 0.2800422,-0.02447 0.3659949,-0.08122 0.085897,-0.05675 0.412032,-0.160984 0.4673344,-0.394965 0.055427,-0.233975 0.021509,-0.359813 -0.0688,-0.571597 -0.090448,-0.211769 -1.218586,-1.527899 -1.218586,-1.527899 0,0 -1.4402506,-1.788808 -2.2026283,-2.494886 C 2.4248056,22.69627 1.9040023,22.262638 1.6908029,22.033174 1.4775898,21.803709 1.2138033,21.385496 1.2138033,21.385496 L 1.0781322,21.067834 c 0,0 -0.062872,0.01682 0.3390398,0.195755 0.4019532,0.178881 1.9929311,0.831518 2.5268878,0.873886 0.5339705,0.04237 1.8926259,0.268363 2.1611416,0.263836 0.2685294,-0.0045 1.3687338,-0.113955 1.5352893,-0.310229 C 7.8070185,21.894735 8.1148291,21.40766 7.900182,20.858272 7.6855487,20.308882 7.1703294,19.26685 7.0116053,18.989082 6.8528812,18.711298 6.6168493,17.830467 6.5716256,17.724576 c -0.045224,-0.105848 -0.095825,-0.294641 -0.095825,-0.294641 0,0 0.6396396,0.688394 0.9387916,0.861113 0.2991658,0.172719 0.898297,0.332483 1.1331018,0.202134 0.2348047,-0.130321 0.5232712,-0.12329 0.7299352,-0.987931 0.2066502,-0.864573 0.5292827,-2.114241 0.5292827,-2.114241 l 0.3265341,-1.486737 0.186107,-1.381688 c 0,0 0.162474,-1.847378 0.103683,-2.7588445 C 10.364501,8.8522873 10.16236,7.4060383 10.16236,7.4060383 l -0.07997,-1.93415 c 0,0 1.046486,2.3326459 2.503587,4.1843688 1.457099,1.8517369 1.655697,2.1525569 2.258538,2.7665089 0.602826,0.613952 1.509327,1.669154 1.745565,1.858727 0.236239,0.189575 1.16946,1.659074 1.374234,1.857092 0.20479,0.198001 0.55985,0.642325 0.756201,0.808865 0.196351,0.166554 0.480088,0.596269 0.949698,0.335586 0.469623,-0.260715 1.07063,-1.163511 1.178175,-1.58007 0.107544,-0.416563 0.490208,-2.322952 0.490208,-2.322952 0,0 0.06315,-0.708112 0.224353,-0.98732 0.161193,-0.279207 0.402174,-0.512372 0.456663,-0.560676 0.05446,-0.04834 0.03902,0.208693 0.06343,0.488726 0.02454,0.280033 0.173917,0.712028 0.453146,0.873229 0.279202,0.161201 0.417975,0.427467 0.850785,0.09238 0.432823,-0.335126 1.686031,-1.446402 1.826458,-1.551468 0.140414,-0.105076 1.324544,-1.096683 1.359097,-1.15652 0.0346,-0.05981 1.104326,-1.0376717 1.339972,-1.3536792 0.235633,-0.3160241 0.984678,-1.1067632 1.318588,-1.6851377 0.333925,-0.5783586 1.607302,-2.3693714 1.653353,-2.449154 0.04605,-0.079845 1.012446,-1.5693864 1.127601,-1.7688243 C 32.12717,3.1221292 32.12717,3.1221292 32.12717,3.1221292 l 0.09748,-0.076632 c 0,0 0.01379,1.3111591 -0.183239,2.0215419 -0.197413,0.7103595 -0.361087,1.5465567 -0.402023,2.4004531 -0.04095,0.8538931 -0.01379,2.9706118 -0.01379,2.9706118 z"
   inkscape:connector-curvature="0" /><path
   style="fill:#ff8602;fill-opacity:1;stroke:none"
   d="M 19.310424,32.025081 30.140107,11.105633 c -3.921832,7.732854 -7.000049,14.789348 -12.174991,23.744585 l -0.605378,1.412569 -0.739931,1.345298 -0.538121,1.210771 -0.739903,1.748904 -0.605391,1.076234 -0.605391,0.739928 0,1.345298 -0.40358,0.605387 -0.53812,-0.336323 0.06728,-0.874454 0.672661,-1.27804 1.143497,-2.017956 c 0,0 0.739931,-1.614365 0.941715,-1.883414 0.201811,-0.269066 0.807188,-1.748904 0.807188,-1.748904 l 1.143511,-1.68162 1.345295,-2.488815 z"
   id="path3761"
   sodipodi:nodetypes="cccccccccccccccsccc"
   inkscape:connector-curvature="0" /><path
   sodipodi:nodetypes="cccccccccccccccsccc"
   id="path3795"
   d="m 26.560486,22.467027 5.889931,-3.166047 c -2.155226,1.179204 -3.986758,2.309842 -6.653702,3.606408 l -0.363705,0.227508 -0.39051,0.198859 -0.316966,0.192925 -0.447714,0.282725 -0.316042,0.157621 -0.268378,0.0878 -0.19067,0.279558 -0.194806,0.08183 -0.09775,-0.128639 0.142095,-0.17437 0.36281,-0.192237 0.594857,-0.294625 c 0,0 0.42866,-0.254763 0.521286,-0.288674 0.09266,-0.03396 0.465887,-0.275397 0.465887,-0.275397 l 0.547193,-0.22474 0.716093,-0.370462 z"
   style="fill:#ff8602;fill-opacity:1;stroke:none"
   inkscape:connector-curvature="0" /><path
   style="fill:#ff8602;fill-opacity:1;stroke:none"
   d="m 20.630584,24.531741 -1.930018,-6.402362 c 0.691605,2.357382 1.188501,4.451649 2.159225,7.253672 l 0.09651,0.418 0.135809,0.416669 0.08797,0.360471 0.117057,0.516429 0.112232,0.334868 0.127812,0.251736 -0.06274,0.332542 0.07997,0.195524 0.15995,-0.02187 0.02261,-0.22379 -0.12078,-0.392396 -0.212689,-0.628834 c 0,0 -0.123262,-0.483176 -0.164833,-0.572638 -0.04164,-0.08948 -0.135119,-0.524077 -0.135119,-0.524077 L 20.875225,25.299999 20.630356,24.53182 z"
   id="path3797"
   sodipodi:nodetypes="cccccccccccccccsccc"
   inkscape:connector-curvature="0" /><path
   sodipodi:nodetypes="cccccccccccccccsccc"
   id="path3799"
   d="M 16.625488,25.751692 12.504216,13.459664 c 1.4654,4.520858 2.445582,8.505392 4.594204,13.919056 l 0.188506,0.794593 0.296049,0.802717 0.17527,0.686484 0.226532,0.981063 0.246428,0.645951 0.30435,0.497337 -0.231717,0.594496 0.183598,0.381107 0.441744,0.0031 0.102581,-0.405349 -0.259637,-0.754061 -0.468051,-1.213541 c 0,0 -0.249695,-0.921623 -0.347285,-1.09731 -0.09762,-0.175684 -0.274513,-0.999999 -0.274513,-0.999999 L 17.156301,27.23036 16.625433,25.751957 z"
   style="fill:#ff8602;fill-opacity:1;stroke:none"
   inkscape:connector-curvature="0" /><path
   style="fill:#ff8602;fill-opacity:1;stroke:none"
   d="M 26.472341,31.883503 39.293066,29.95798 c -4.692358,0.753019 -8.686369,1.693948 -14.484709,2.245005 l -0.79329,0.193841 -0.849488,0.101863 -0.691027,0.156413 -0.976652,0.244854 -0.687332,0.07465 -0.581372,-0.04466 -0.423875,0.476918 -0.422883,0.01076 -0.203576,-0.392058 0.314208,-0.275872 0.789595,-0.112122 1.29359,-0.135671 c 0,0 0.934256,-0.197179 1.135116,-0.19025 0.200858,0.0076 1.01534,-0.210759 1.01534,-0.210759 l 1.187619,-0.01637 1.558011,-0.200252 z"
   id="path3801"
   sodipodi:nodetypes="cccccccccccccccsccc"
   inkscape:connector-curvature="0" /><path
   style="fill:#ff8602;fill-opacity:1;stroke:none"
   d="M 13.828637,23.27421 9.3536275,20.108163 c 1.6374845,1.179204 3.0290365,2.309841 5.0553065,3.606408 l 0.276347,0.227506 0.296698,0.198861 0.240803,0.192923 0.340156,0.282724 0.240127,0.157624 0.203906,0.0878 0.144854,0.279557 0.148053,0.08183 0.07418,-0.128639 -0.107957,-0.174373 -0.275658,-0.192234 -0.451961,-0.294625 c 0,0 -0.32568,-0.254765 -0.396066,-0.288674 -0.07031,-0.03396 -0.353973,-0.2754 -0.353973,-0.2754 l -0.415754,-0.224739 -0.544063,-0.370459 z"
   id="path3803"
   sodipodi:nodetypes="cccccccccccccccsccc"
   inkscape:connector-curvature="0" /><path
   sodipodi:nodetypes="cccccccccccccccsccc"
   id="path3805"
   d="m 26.075655,29.879744 3.644368,-4.094893 c -1.354091,1.4961 -2.632571,2.753173 -4.146571,4.62256 l -0.256839,0.249305 -0.230654,0.272737 -0.218507,0.21784 -0.318841,0.306585 -0.183363,0.2211 -0.10975,0.192863 -0.293941,0.112879 -0.09775,0.137968 0.119401,0.0881 0.185307,-0.08795 0.22172,-0.252546 0.34308,-0.416363 c 0,0 0.289432,-0.295299 0.33096,-0.361468 0.04163,-0.06622 0.313078,-0.321133 0.313078,-0.321133 l 0.269619,-0.388142 0.428701,-0.499464 z"
   style="fill:#ff8602;fill-opacity:1;stroke:none"
   inkscape:connector-curvature="0" /><path
   style="fill:#ff8602;fill-opacity:1;stroke:none"
   d="m 32.981686,29.709685 2.388611,-2.683883 c -0.887516,0.980575 -1.72545,1.80449 -2.717751,3.029733 l -0.168348,0.163406 -0.151128,0.178759 -0.143158,0.142709 -0.208979,0.200937 -0.120229,0.144851 -0.07197,0.126488 -0.192669,0.07402 -0.06411,0.09039 0.07831,0.05766 0.121469,-0.05766 0.145309,-0.165529 0.224877,-0.272889 c 0,0 0.189706,-0.193552 0.216923,-0.236915 0.02716,-0.04345 0.205188,-0.210484 0.205188,-0.210484 l 0.176718,-0.254397 0.280993,-0.327356 z"
   id="path3807"
   sodipodi:nodetypes="cccccccccccccccsccc"
   inkscape:connector-curvature="0" /><path
   sodipodi:nodetypes="cccccccccccccccsccc"
   id="path3809"
   d="m 31.333847,32.887509 2.85152,2.185748 C 33.12898,34.27747 32.150811,33.626197 30.945406,32.609863 l -0.196103,-0.128791 -0.182163,-0.146991 -0.167548,-0.113183 -0.243091,-0.157959 -0.145309,-0.119608 -0.09458,-0.110591 -0.203121,-0.0364 -0.07997,-0.07679 0.06605,-0.07144 0.130156,0.03366 0.173905,0.135216 0.272252,0.225627 c 0,0 0.222768,0.154333 0.257678,0.191806 0.03488,0.03747 0.241175,0.168038 0.241175,0.168038 l 0.221485,0.216541 0.33762,0.268559 z"
   style="fill:#ff8602;fill-opacity:1;stroke:none"
   inkscape:connector-curvature="0" /><path
   sodipodi:nodetypes="cccccccccccccccsccc"
   id="path3811"
   d="m 23.768102,20.138341 -1.155535,-3.401982 c 0.414859,1.25582 0.717954,2.391214 1.293908,3.85894 l 0.05901,0.227048 0.08094,0.219691 0.0535,0.195036 0.07156,0.280919 0.06674,0.176038 0.07446,0.124972 -0.03075,0.20406 0.04716,0.100334 0.08879,-0.03961 0.0096,-0.133989 -0.07225,-0.208081 -0.126295,-0.330248 c 0,0 -0.07459,-0.260502 -0.099,-0.305576 -0.02427,-0.04512 -0.0819,-0.282342 -0.0819,-0.282342 l -0.134015,-0.27924 -0.146067,-0.40593 z"
   style="fill:#ff8602;fill-opacity:1;stroke:none"
   inkscape:connector-curvature="0" /><path
   style="fill:#ff8602;fill-opacity:1;stroke:none"
   d="m 28.185878,34.322027 2.887326,4.659711 c -1.077165,-1.70635 -2.120867,-3.164225 -3.291485,-5.265772 l -0.210235,-0.289698 -0.180398,-0.308285 -0.177876,-0.252117 -0.26147,-0.35677 -0.142703,-0.249287 -0.07515,-0.208866 -0.270198,-0.161644 -0.07266,-0.152803 0.132914,-0.06624 0.167466,0.118396 0.175062,0.286855 0.26653,0.469085 c 0,0 0.234432,0.340604 0.26398,0.41292 0.0295,0.07236 0.253294,0.370095 0.253294,0.370095 l 0.198985,0.428675 0.336612,0.565649 z"
   id="path3813"
   sodipodi:nodetypes="cccccccccccccccsccc"
   inkscape:connector-curvature="0" /><path
   sodipodi:nodetypes="cccccccccccccccsccc"
   id="path3815"
   d="M 14.668226,28.100094 8.8298047,24.839993 c 2.1360613,1.213619 3.9492153,2.373471 6.5950223,3.712638 l 0.360024,0.233321 0.38727,0.205099 0.313808,0.197971 0.443123,0.289867 0.313491,0.16267 0.266931,0.09207 0.186174,0.282571 0.19347,0.08489 0.09968,-0.126957 -0.139338,-0.176636 -0.359694,-0.198017 -0.590059,-0.304121 c 0,0 -0.42451,-0.26162 -0.516585,-0.296998 -0.0921,-0.03533 -0.461405,-0.28283 -0.461405,-0.28283 L 15.378205,28.482042 14.668138,28.10014 z"
   style="fill:#ff8602;fill-opacity:1;stroke:none"
   inkscape:connector-curvature="0" /></svg>