<?xml version="1.0" encoding="UTF-8" standalone="no"?>
<!-- Created with Inkscape (http://www.inkscape.org/) -->

<svg
   xmlns:dc="http://purl.org/dc/elements/1.1/"
   xmlns:cc="http://creativecommons.org/ns#"
   xmlns:rdf="http://www.w3.org/1999/02/22-rdf-syntax-ns#"
   xmlns:svg="http://www.w3.org/2000/svg"
   xmlns="http://www.w3.org/2000/svg"
   xmlns:xlink="http://www.w3.org/1999/xlink"
   xmlns:sodipodi="http://sodipodi.sourceforge.net/DTD/sodipodi-0.dtd"
   xmlns:inkscape="http://www.inkscape.org/namespaces/inkscape"
   inkscape:export-ydpi="90.000000"
   inkscape:export-xdpi="90.000000"
   inkscape:export-filename="/home/jimmac/Desktop/wi-fi.png"
   width="48"
   height="48"
   id="svg11300"
   sodipodi:version="0.32"
   inkscape:version="0.47+devel r9425"
   sodipodi:docname="plugin-photo.svg"
   inkscape:output_extension="org.inkscape.output.svg.inkscape"
   sodipodi:modified="true"
   version="1.0">
  <defs
     id="defs3">
    <linearGradient
       id="linearGradient3775">
      <stop
         style="stop-color:#ffffff;stop-opacity:1;"
         offset="0"
         id="stop3777" />
      <stop
         style="stop-color:#ffffff;stop-opacity:0;"
         offset="1"
         id="stop3779" />
    </linearGradient>
    <linearGradient
       id="linearGradient3153">
      <stop
         style="stop-color:#f9f9f8;stop-opacity:1;"
         offset="0"
         id="stop3155" />
      <stop
         style="stop-color:#cdcfca;stop-opacity:1;"
         offset="1"
         id="stop3157" />
    </linearGradient>
    <linearGradient
       inkscape:collect="always"
       id="linearGradient6482">
      <stop
         style="stop-color:#000000;stop-opacity:1;"
         offset="0"
         id="stop6484" />
      <stop
         style="stop-color:#000000;stop-opacity:0;"
         offset="1"
         id="stop6486" />
    </linearGradient>
    <radialGradient
       inkscape:collect="always"
       xlink:href="#linearGradient3153"
       id="radialGradient3043"
       gradientUnits="userSpaceOnUse"
       gradientTransform="matrix(0.37883681,2.5222195,-2.5192374,0.34136586,43.863722,-20.223931)"
       cx="8.0419788"
       cy="13.534249"
       fx="8.0419788"
       fy="13.534249"
       r="19.677486" />
    <radialGradient
       inkscape:collect="always"
       xlink:href="#linearGradient6482"
       id="radialGradient3045"
       gradientUnits="userSpaceOnUse"
       gradientTransform="matrix(1,0,0,0.3954545,0,-4.2360423)"
       cx="13.030141"
       cy="-7.0069871"
       fx="13.030141"
       fy="-7.0069871"
       r="18.143234" />
    <linearGradient
       inkscape:collect="always"
       xlink:href="#linearGradient3775"
       id="linearGradient3047"
       gradientUnits="userSpaceOnUse"
       gradientTransform="matrix(1.7927154,0,0.25917737,1.7836677,-8.2770516,-21.928811)"
       x1="24.638496"
       y1="15.323943"
       x2="11.793427"
       y2="7.8122067" />
  </defs>
  <sodipodi:namedview
     stroke="#ef2929"
     fill="#eeeeec"
     id="base"
     pagecolor="#ffffff"
     bordercolor="#666666"
     borderopacity="0.25490196"
     inkscape:pageopacity="0.0"
     inkscape:pageshadow="2"
     inkscape:zoom="8.0520833"
     inkscape:cx="24"
     inkscape:cy="24"
     inkscape:current-layer="layer1"
     showgrid="false"
     inkscape:grid-bbox="true"
     inkscape:document-units="px"
     inkscape:showpageshadow="false"
     inkscape:window-width="1280"
     inkscape:window-height="975"
     inkscape:window-x="0"
     inkscape:window-y="24"
     showguides="true"
     inkscape:guide-bbox="true"
     inkscape:snap-global="false"
     inkscape:window-maximized="1">
    <inkscape:grid
       type="xygrid"
       id="grid7878"
       visible="true"
       enabled="true"
       empspacing="5"
       snapvisiblegridlinesonly="true" />
  </sodipodi:namedview>
  <metadata
     id="metadata4">
    <rdf:RDF>
      <cc:Work
         rdf:about="">
        <dc:format>image/svg+xml</dc:format>
        <dc:type
           rdf:resource="http://purl.org/dc/dcmitype/StillImage" />
        <dc:creator>
          <cc:Agent>
            <dc:title>Patrick Niklaus</dc:title>
          </cc:Agent>
        </dc:creator>
        <dc:source />
        <cc:license
           rdf:resource="http://creativecommons.org/licenses/GPL/2.0/" />
        <dc:title />
        <dc:subject>
          <rdf:Bag />
        </dc:subject>
      </cc:Work>
      <cc:License
         rdf:about="http://creativecommons.org/licenses/GPL/2.0/">
        <cc:permits
           rdf:resource="http://web.resource.org/cc/Reproduction" />
        <cc:permits
           rdf:resource="http://web.resource.org/cc/Distribution" />
        <cc:requires
           rdf:resource="http://web.resource.org/cc/Notice" />
        <cc:permits
           rdf:resource="http://web.resource.org/cc/DerivativeWorks" />
        <cc:requires
           rdf:resource="http://web.resource.org/cc/ShareAlike" />
        <cc:requires
           rdf:resource="http://web.resource.org/cc/SourceCode" />
      </cc:License>
    </rdf:RDF>
  </metadata>
  <g
     id="layer1"
     inkscape:label="Layer 1"
     inkscape:groupmode="layer"
     transform="translate(0,16)">
    <path
       style="fill:none;stroke:#535353;stroke-width:0.77294081000000003;stroke-linecap:butt;stroke-linejoin:miter;stroke-miterlimit:4;stroke-opacity:1;stroke-dasharray:none;stroke-dashoffset:0"
       d="m 24.117793,-14.168314 -22.5684219,9.397775 0,26.89442 22.5161859,8.608253 22.463934,-8.608253 -0.02619,-26.89442 -22.385572,-9.397775 z"
       id="path2891"
       sodipodi:nodetypes="ccccccc"
       inkscape:connector-curvature="0" />
    <rect
       ry="0"
       rx="0.96562272"
       y="-50.999928"
       x="-2.8323631"
       height="24.433666"
       width="0.31523666"
       id="rect3867"
       style="fill:#ffffff;fill-opacity:0;fill-rule:evenodd;stroke:#585d4d;stroke-width:0.50476927000000005;stroke-linecap:round;stroke-miterlimit:4;stroke-opacity:1;stroke-dasharray:none"
       transform="matrix(0.33410191,-0.94253696,-0.92649831,-0.37629892,0,0)" />
    <rect
       transform="matrix(-0.33410191,-0.94253696,0.92649831,-0.37629892,0,0)"
       style="fill:#ffffff;fill-opacity:0;fill-rule:evenodd;stroke:#5c5c5c;stroke-width:0.50476927000000005;stroke-linecap:round;stroke-miterlimit:4;stroke-opacity:1;stroke-dasharray:none"
       id="rect3891"
       width="0.31523666"
       height="24.433666"
       x="-21.155628"
       y="-5.5713596"
       rx="0.96562272"
       ry="0" />
    <g
       id="g3014"
       transform="matrix(0.6297817,0,0,0.6297817,9.570125,4.8671183)">
      <path
         sodipodi:nodetypes="ccccccc"
         id="rect2370"
         d="m 24.244258,-8.6701771 -18.4835667,7.2162529 0,20.6514212 18.4407807,6.610014 18.398011,-6.610014 -0.02146,-20.6514212 -18.333832,-7.2162529 z"
         style="fill:url(#radialGradient3043);fill-opacity:1;fill-rule:evenodd;stroke:#888a85;stroke-width:0.9121359;stroke-linecap:butt;stroke-linejoin:miter;stroke-miterlimit:4;stroke-opacity:1;stroke-dasharray:none;stroke-dashoffset:0"
         inkscape:connector-curvature="0" />
      <path
         sodipodi:nodetypes="cc"
         id="path9436"
         d="m 23.537483,5.4866551 0.02161,20.1395409"
         style="fill:none;stroke:#888a85;stroke-width:0.9121359;stroke-linecap:butt;stroke-linejoin:miter;stroke-miterlimit:4;stroke-opacity:1;stroke-dasharray:none"
         inkscape:connector-curvature="0" />
      <g
         id="g2986">
        <path
           sodipodi:type="arc"
           style="opacity:0.3;fill:url(#radialGradient3045);fill-opacity:1;fill-rule:evenodd;stroke:none"
           id="path5511"
           sodipodi:cx="13.030141"
           sodipodi:cy="-7.0069871"
           sodipodi:rx="18.143234"
           sodipodi:ry="7.1748242"
           d="m 31.173375,-7.0069871 c 0,3.962546 -8.123003,7.17482424 -18.143234,7.17482424 -10.0202317,0 -18.1432344,-3.21227824 -18.1432344,-7.17482424 0,-3.9625459 8.1230027,-7.1748239 18.1432344,-7.1748239 10.020231,0 18.143234,3.212278 18.143234,7.1748239 z"
           transform="matrix(0.79013038,0,0,0.91681284,13.843409,24.286553)" />
        <path
           inkscape:connector-curvature="0"
           id="path18255"
           d="m 24.814092,5.5801471 -0.0079,19.1856539"
           style="fill:none;stroke:#ffffff;stroke-width:1.24732172;stroke-linecap:butt;stroke-linejoin:miter;stroke-miterlimit:4;stroke-opacity:0.75241161;stroke-dasharray:none"
           sodipodi:nodetypes="cc" />
        <path
           inkscape:connector-curvature="0"
           id="path17284"
           d="M 8.8627289,-1.5032576 24.230328,4.2436518 39.311819,-1.374426"
           style="fill:none;stroke:#ffffff;stroke-width:1.24732172;stroke-linecap:butt;stroke-linejoin:miter;stroke-miterlimit:4;stroke-opacity:0.75241161;stroke-dasharray:none"
           sodipodi:nodetypes="ccc" />
        <path
           inkscape:connector-curvature="0"
           style="fill:none;stroke:#888a85;stroke-width:1.24734592;stroke-linecap:butt;stroke-linejoin:miter;stroke-miterlimit:4;stroke-opacity:1;stroke-dasharray:none"
           d="M 6.1372466,-1.237722 24.217896,5.5863378 42.432189,-1.2274199"
           id="path8465"
           sodipodi:nodetypes="ccc" />
        <path
           style="fill:#ffffff;fill-opacity:1;stroke:#070000;stroke-width:0.24531445;stroke-linecap:butt;stroke-linejoin:miter;stroke-miterlimit:4;stroke-opacity:1;stroke-dasharray:none"
           d="M 8.6255438,3.8810604 C 8.5321465,3.8346615 8.1075358,3.7429996 8.0531697,3.7005022 7.7367862,3.3055577 8.1430962,3.7708184 7.8623836,3.5513189 7.781923,3.4884177 7.7519475,3.3760491 7.6715817,3.3131526 7.6431838,3.2909234 7.604689,3.3052643 7.5761334,3.2830667 7.4956728,3.2201812 7.4656973,3.1078031 7.3853315,3.0449051 7.3569336,3.0226443 7.3184388,3.0370168 7.2898832,3.0148191 7.2644829,2.994988 7.0163647,2.6851976 7.0036961,2.6575759 c -0.014199,-0.031017 0.02256,-0.060913 0,-0.088996 -0.02256,-0.028067 -0.072888,-0.00205 -0.095448,-0.030086 -0.02256,-0.028066 0,-0.059336 0,-0.088996 0,-0.02966 -0.014199,-0.06694 0,-0.088996 0.020036,-0.031159 0.075254,-0.027719 0.095448,-0.058894 0.028398,-0.04408 -0.044963,-0.1502088 0,-0.1779772 0.02256,-0.013883 0.072888,0.043954 0.095448,0.030086 0.02256,-0.013883 -0.014199,-0.06694 0,-0.088996 0.020036,-0.031175 0.075254,-0.027719 0.095448,-0.05891 0.014199,-0.022024 -0.014199,-0.06694 0,-0.088996 0.012621,-0.019626 0.2608656,-0.1728671 0.286187,-0.1766897 0.028398,-0.00426 0.072888,0.043969 0.095448,0.030086 0.022561,-0.013883 -0.02256,-0.075096 0,-0.088996 0.022561,-0.013883 0.066893,0.034393 0.095448,0.030086 0.04023,-0.00599 0.055218,-0.05282 0.095448,-0.058894 0.056796,-0.00868 0.1339431,0.068786 0.1907861,0.060188 0.04023,-0.006 0.055218,-0.05282 0.095448,-0.058894 0.056953,-0.00868 0.1339431,0.06877 0.1907861,0.060188 0.04023,-0.006 0.055218,-0.05282 0.095448,-0.058894 0.1695982,-0.025605 0.053009,0.066151 0.095448,0.1190815 0.022561,0.028067 0.06358,0.020068 0.095448,0.030086 0.035024,0.011044 0.3777543,0.1156107 0.381588,0.1203752 0.022561,0.028067 -0.022403,0.060913 0,0.088996 0.044963,0.056133 0.1457756,0.0041 0.1907861,0.060188 0.031711,0.039631 -0.031711,0.1383448 0,0.1779772 0.02256,0.028066 0.072887,0.00205 0.095448,0.030086 0.03155,0.039426 -0.03155,0.1385499 0,0.1779771 0.04496,0.056149 0.145775,0.0041 0.190802,0.060188 0.02256,0.028066 -0.02256,0.060913 0,0.088996 0.04764,0.059541 0.238479,0.030749 0.286187,0.090289 0.02256,0.028066 -0.0224,0.060913 0,0.088996 0.02256,0.028082 0.09545,0.059746 0.09545,0.030086 0,-0.04195 -0.07525,-0.075223 -0.09545,-0.1190815 -0.0142,-0.031033 0.02256,-0.060913 0,-0.088996 -0.0224,-0.028082 -0.07289,-0.00205 -0.09545,-0.030086 -0.02256,-0.028082 0,-0.05932 0,-0.088996 0,-0.046525 -0.01262,-0.3365222 0,-0.3559542 0.02004,-0.031175 0.07525,-0.02772 0.09545,-0.058894 0.0142,-0.022024 -0.0142,-0.06694 0,-0.088996 0.02019,-0.031174 0.06358,-0.039252 0.09545,-0.058894 0.03187,-0.019626 0.0579,-0.04744 0.09545,-0.05891 0.06358,-0.00962 0.12716,-0.0192 0.1907866,-0.028808 0.03187,0.010097 0.06689,0.034393 0.09545,0.030086 0.227498,-0.034346 -0.03676,-0.083458 0.190786,-0.1177879 0.0284,-0.00426 0.06689,0.034393 0.09545,0.030086 0.04023,-0.006 0.05522,-0.05282 0.09545,-0.058894 0.0079,-0.00109 0.373447,0.1140173 0.381572,0.1203753 0.04023,0.031459 0.05522,0.087639 0.09545,0.1190816 0.03786,0.029565 0.266687,0.06593 0.286187,0.090289 0.02256,0.028082 -0.0224,0.060913 0,0.088996 0.04496,0.056133 0.145776,0.0041 0.190802,0.060188 0.04496,0.056133 -0.0284,0.1159421 0,0.1779787 0.02004,0.043859 0.07525,0.075223 0.09545,0.1190816 0.0142,0.031648 0,0.2268892 0,0.2669665 0,0.2373049 0.03187,-0.019626 -0.09545,0.058894 -0.02256,0.013883 0.0142,0.06694 0,0.088996 -0.06184,0.09589 -0.128895,0.021914 -0.190802,0.1177879 -0.0142,0.022056 0.02256,0.075112 0,0.088996 -0.0224,0.013883 -0.09545,-5.459e-4 -0.09545,-0.030086 0,-0.02966 0.07289,0.043969 0.09545,0.030086 0.04764,-0.029455 -0.04765,-0.2375211 0,-0.2669697 0.02256,-0.013883 0.06689,0.034393 0.09545,0.030086 0.04023,-0.006 0.05522,-0.05282 0.09545,-0.058894 0.0284,-0.00426 0.06532,0.029928 0.09545,0.030086 0.06752,1.83e-4 0.121795,-0.034472 0.190802,-0.028792 0.09261,0.00757 0.195677,0.089863 0.286187,0.090289 0.06737,1.815e-4 0.121795,-0.034472 0.190786,-0.028808 0.0751,0.00615 0.473171,0.1492622 0.572374,0.1805598 0.03187,0.010097 0.06689,0.034393 0.09545,0.030086 0.02477,-0.00379 0.116273,-0.1218898 0.190786,-0.028808 0.02256,0.028067 -0.0224,0.060913 0,0.088996 0.04496,0.056149 0.133943,0.015777 0.190802,0.060188 0.04023,0.031458 0.05522,0.087623 0.09545,0.1190815 0.05695,0.044474 0.133943,0.015777 0.190802,0.060188 0.04023,0.031459 0.05522,0.087623 0.09545,0.1190816 0.05695,0.04449 0.133943,0.015776 0.190802,0.060188 0.04023,0.031458 0.05522,0.087623 0.09545,0.1190816 0.0284,0.022229 0.07289,0.00205 0.09545,0.030086 0.0095,0.01199 0.0095,0.2610787 0,0.2669697 -0.0224,0.013883 -0.06689,-0.034393 -0.09545,-0.030086 -0.04023,0.006 -0.05522,0.05282 -0.09545,0.058894 -0.0284,0.00426 -0.06689,-0.034393 -0.09545,-0.030086 -0.04023,0.006 -0.05522,0.05282 -0.09545,0.05891 -0.0284,0.00426 -0.07289,-0.043969 -0.09545,-0.030086 -0.02256,0.013883 0.02256,0.075112 0,0.088996 -0.01956,0.01199 -0.248371,-0.096 -0.286187,-0.090289 -0.04023,0.006 -0.05522,0.05282 -0.09545,0.058894 -0.0284,0.00426 -0.06358,-0.020068 -0.09545,-0.030086 -0.03187,-0.010097 -0.06358,-0.020068 -0.09545,-0.030086 -0.03187,-0.010097 -0.09545,-5.459e-4 -0.09545,-0.030086 0,-0.02966 0.06358,0.020036 0.09545,0.030086 0.03187,0.010097 0.06358,0.020068 0.09545,0.030086 0.222592,0.070222 0.445184,0.1404273 0.667776,0.210652 0.09545,0.030086 0.195692,0.033588 0.286187,0.090274 0.0426,0.026726 0.05522,0.087623 0.09545,0.1190815 0.0568,0.04449 0.133943,0.015777 0.190786,0.060188 0.04023,0.031459 0.06358,0.079388 0.09545,0.1190816 0.03187,0.039694 0.07526,0.075223 0.09545,0.1190816 0.0047,0.00883 0.0047,0.3496515 0,0.3559558 -0.218301,0.338406 0.0396,-0.3651457 -0.190802,0.206782 -0.02004,0.049933 0.0284,0.13388 0,0.1779755 -0.02004,0.031174 -0.07526,0.027719 -0.09545,0.058894 -0.01893,0.029313 0.01956,0.2549258 0,0.266968 -0.02256,0.013883 -0.07289,-0.043985 -0.09545,-0.030086 -0.02256,0.013883 0.0142,0.06694 0,0.088996 -0.02019,0.031175 -0.06358,0.039268 -0.09545,0.058894 -0.03187,0.019626 -0.05522,0.05282 -0.09545,0.058894 -0.0284,0.00426 -0.06689,-0.034393 -0.09545,-0.030086 -0.04023,0.006 -0.0579,0.047424 -0.09545,0.05891 -0.481911,0.1476845 -0.0016,-1.11e-5 -0.286187,-0.00127 -0.06737,-3.644e-4 -0.123373,0.029108 -0.190786,0.028808 -0.08582,-3.644e-4 -0.200331,-0.089895 -0.286187,-0.090289 -0.0426,-1.814e-4 -0.05269,0.059099 -0.09545,0.058894 C 12.867651,6.035996 12.618109,5.9412815 12.537333,5.9158022 12.251146,5.8255132 11.964959,5.735244 11.678772,5.6449626 11.45618,5.5747566 11.233589,5.5045353 11.010997,5.4343122 c -0.03187,-0.010097 -0.06358,-0.020068 -0.09545,-0.030086 -0.03187,-0.010097 -0.07289,-0.00205 -0.09545,-0.030086 -0.0224,-0.028082 0.02256,-0.060913 0,-0.088996 -0.04765,-0.059541 -0.238495,-0.030733 -0.286188,-0.090289 -0.02256,-0.028082 0.02256,-0.060913 0,-0.088996 -0.02256,-0.028082 -0.06689,-0.00789 -0.09545,-0.030086 -0.04023,-0.031459 -0.05522,-0.087623 -0.09545,-0.1190816 -0.0568,-0.044474 -0.133943,-0.015777 -0.190786,-0.060188 -0.04023,-0.031458 -0.05522,-0.087639 -0.09545,-0.1190816 C 9.999824,4.732932 9.9228305,4.761645 9.8659875,4.717234 c -0.04023,-0.031459 -0.05522,-0.087623 -0.09545,-0.1190816 -0.0284,-0.022229 -0.07289,-0.00205 -0.09545,-0.030086 -0.0224,-0.028082 0.02256,-0.060929 0,-0.088996 -0.04496,-0.056149 -0.145776,-0.0041 -0.190786,-0.060188 -0.02256,-0.028067 0,-0.05932 0,-0.088996 C 9.3253135,4.1907325 9.1663175,4.0515925 8.6257332,3.8810635 z"
           id="path3817"
           inkscape:connector-curvature="0" />
        <path
           inkscape:connector-curvature="0"
           id="path3789"
           d="m 13.405341,15.580924 c 0.127159,0.148 0.381588,0.592288 0.381588,0.443974 0,-0.724386 -0.328106,-0.408351 -0.476989,-0.755193 -0.03818,-0.08889 0.03818,-0.178075 0,-0.266968 -0.02004,-0.04684 -0.07525,-0.08639 -0.09545,-0.133249 -0.0142,-0.03313 0.0142,-0.05587 0,-0.089 -0.02004,-0.04684 -0.07525,-0.08639 -0.09545,-0.133249 -0.0142,-0.03313 0.0142,-0.05587 0,-0.089 -0.02004,-0.04684 -0.07525,-0.08639 -0.09545,-0.133249 -0.0284,-0.06626 0.04496,-0.115169 0,-0.177979 -0.02256,-0.03139 -0.07289,-0.01278 -0.09545,-0.04425 -0.04496,-0.06281 0.0284,-0.11173 0,-0.177979 -0.01262,-0.02859 -0.178512,-0.237887 -0.190786,-0.26648 -0.0142,-0.03313 0.0142,-0.05587 0,-0.089 -0.105546,-0.245681 -0.05916,-0.05508 -0.190787,-0.177496 -0.04023,-0.03742 -0.06358,-0.08882 -0.09545,-0.133249 -0.05616,-0.07836 -0.337413,-0.491866 -0.381588,-0.532961 -0.0284,-0.02646 -0.07289,-0.01278 -0.09545,-0.04425 -0.02256,-0.03141 0.02256,-0.05758 0,-0.089 -0.04496,-0.06281 -0.145776,-0.0257 -0.190802,-0.08851 -0.02256,-0.0314 0.0224,-0.05758 0,-0.089 -0.04496,-0.06281 -0.133943,-0.03558 -0.190786,-0.08851 -0.04023,-0.03742 -0.05522,-0.09583 -0.09545,-0.133249 -0.03786,-0.03518 -0.266688,-0.105513 -0.286187,-0.132759 -0.02256,-0.03141 0.02256,-0.05759 0,-0.089 -0.02256,-0.0314 -0.06358,-0.0295 -0.09545,-0.04425 -0.03187,-0.01483 -0.06358,-0.0295 -0.09545,-0.04425 -0.190802,-0.08851 -0.381588,-0.177007 -0.57239,-0.265512 -0.03187,-0.01467 -0.06358,-0.0295 -0.09545,-0.04425 -0.03187,-0.01467 -0.06689,-0.04433 -0.09545,-0.04425 -0.04023,1.09e-4 -0.05522,0.04463 -0.09545,0.04474 -0.05995,1.58e-4 -0.3216205,-0.177163 -0.3815875,-0.177007 -0.04023,1.09e-4 -0.05522,0.04463 -0.09545,0.04474 -0.0284,7.2e-5 -0.06358,-0.0295 -0.09545,-0.04425 -0.03187,0.01499 -0.05522,0.04463 -0.09545,0.04474 -0.0284,7.2e-5 -0.06689,-0.04433 -0.09545,-0.04425 -0.04023,1.09e-4 -0.05522,0.04463 -0.09545,0.04474 -0.0284,7.2e-5 -0.06689,-0.04433 -0.09545,-0.04425 -0.04023,1.08e-4 -0.05522,0.04463 -0.095448,0.04474 -0.028398,7.2e-5 -0.072888,-0.05481 -0.095448,-0.04425 -0.022561,0.01057 0.02256,0.07844 0,0.089 -0.022561,0.01057 -0.072888,-0.05481 -0.095448,-0.04425 -0.02256,0.01057 0.022403,0.07844 0,0.089 -0.044963,0.02109 -0.1457755,-0.1096 -0.1908019,-0.08851 -0.022403,0.01057 0.02256,0.07844 0,0.089 -0.022403,0.01057 -0.066893,-0.04433 -0.095448,-0.04425 -0.04023,1.08e-4 -0.055218,0.04463 -0.095448,0.04474 -0.028398,7.1e-5 -0.072888,-0.05481 -0.095448,-0.04425 -0.022561,0.01057 0.014199,0.06905 0,0.089 -0.1985167,0.278269 0.00631,-0.09207 -0.1908019,4.73e-4 -0.022403,0.01057 0.014199,0.06906 0,0.089 -0.04023,0.05639 -0.1505086,0.03308 -0.1907862,0.08947 -0.014199,0.01994 0.014199,0.06905 0,0.089 -0.020036,0.02819 -0.075254,0.01655 -0.095448,0.04474 -0.014199,0.01994 0.014199,0.06905 0,0.089 -0.020036,0.02819 -0.075254,0.01655 -0.095448,0.04474 -0.028398,0.03987 0.028398,0.138108 0,0.177979 -0.020194,0.02819 -0.075254,0.01655 -0.095448,0.04474 -0.038179,0.05348 0.038179,0.213479 0,0.266968 -0.020036,0.02819 -0.075254,0.01655 -0.095448,0.04474 -0.028398,0.03987 0.028398,0.138108 0,0.177977 -0.020036,0.02819 -0.075254,0.01655 -0.095448,0.04474 -0.00473,0.0057 -0.00473,0.346485 0,0.355956 0.1178511,0.274609 0.095448,0.01357 0.095448,0.22223 0,0.02966 0,0.05934 0,0.089 0,0.02966 0.022561,0.07844 0,0.089 -0.022403,0.01057 -0.072888,-0.05481 -0.095448,-0.04425 -0.022403,0.01057 0,0.05932 0,0.089 0,0.02966 -0.022403,0.05759 0,0.089 0.02256,0.03141 0.072888,0.01278 0.095448,0.04425 0.044963,0.06281 -0.044963,0.115169 0,0.177979 0.022561,0.03139 0.072888,0.01278 0.095448,0.04425 0.044963,0.06281 -0.044963,0.115169 0,0.177979 0.02256,0.03139 0.072888,0.01278 0.095448,0.04425 0.022561,0.03139 -0.02256,0.05758 0,0.089 0.022561,0.03141 0.072888,0.01278 0.095448,0.04425 0.031553,0.04406 -0.031553,0.133912 0,0.177977 0.02256,0.03139 0.072888,0.01278 0.095448,0.04425 0.022561,0.0314 -0.022561,0.05759 0,0.089 0.022561,0.03141 0.066893,0.0178 0.095448,0.04425 0.04023,0.03742 0.055218,0.09583 0.095448,0.133249 0.028398,0.02646 0.072888,0.01278 0.095448,0.04425 0.02256,0.0314 -0.022561,0.05758 0,0.089 0.044963,0.06281 0.1339431,0.03558 0.1907861,0.08851 0.04023,0.03742 0.050485,0.112392 0.095448,0.133249 0.031869,0.01483 -0.02256,-0.07844 0,-0.089 0.022403,-0.01057 0.072888,0.05479 0.095448,0.04425 0.02256,-0.01057 -0.022561,-0.07844 0,-0.089 0.02256,-0.01057 0.072888,0.05479 0.095448,0.04425 0.031553,-0.01483 -0.031553,-0.163172 0,-0.177979 0.044963,-0.02109 0.1457755,0.1096 0.1907861,0.08851 0.02256,-0.01057 -0.022561,-0.07844 0,-0.089 0.02256,-0.01057 0.072888,0.05479 0.095448,0.04425 0.022561,-0.01057 -0.02256,-0.07844 0,-0.089 0.022561,-0.01057 0.066893,0.04433 0.095448,0.04425 0.106177,-2.73e-4 0.08472,-0.0892 0.190786,-0.08947 0.0284,-7.2e-5 0.07289,0.05481 0.09545,0.04425 0.02256,-0.01057 -0.0224,-0.07844 0,-0.089 0.04496,-0.02109 0.145775,0.109584 0.190802,0.08851 0.0224,-0.01057 -0.02256,-0.07844 0,-0.089 0.0224,-0.01057 0.07289,0.05481 0.09545,0.04425 0.02256,-0.01057 -0.02256,-0.07844 0,-0.089 0.02256,-0.01057 0.06689,0.04433 0.09545,0.04425 0.106177,-2.73e-4 0.08456,-0.0892 0.1907863,-0.08947 0.0284,-7.3e-5 0.07289,0.05479 0.09545,0.04425 0.0224,-0.01057 -0.02256,-0.07844 0,-0.089 0.0224,-0.01057 0.07289,0.05479 0.09545,0.04425 0.02256,-0.01057 -0.02256,-0.07844 0,-0.089 0.02256,-0.01057 0.07289,0.05481 0.09545,0.04425 0.0224,-0.01057 -0.0224,-0.07844 0,-0.089 0.0224,-0.01057 0.06689,0.04433 0.09545,0.04425 0.04023,-1.07e-4 0.05522,-0.04463 0.09545,-0.04474 0.05695,-1.52e-4 0.145775,0.109584 0.190802,0.08851 0.02256,-0.01057 -0.02256,-0.07844 0,-0.089 0.04496,-0.02109 0.133943,0.08863 0.190786,0.08851 0.04023,-1.07e-4 0.05522,-0.04463 0.09545,-0.04474 0.03786,-9.5e-5 0.266687,0.14191 0.286187,0.13276 0.02256,-0.01057 -0.0224,-0.07844 0,-0.089 0.02619,-0.01231 0.329841,0.177133 0.381588,0.177008 0.04023,-1.07e-4 0.05522,-0.04463 0.09545,-0.04474 0.02903,-7.4e-5 0.243228,0.112834 0.286203,0.13276 0.04985,0.02314 0.356488,0.153648 0.381573,0.177007 0.04023,0.03742 0.05522,0.09583 0.09545,0.133249 0.05695,0.05293 0.145775,0.0257 0.190786,0.08851 0.02256,0.03141 -0.03187,0.07425 0,0.089 0.04496,0.02086 0.05049,-0.0656 0.09545,-0.04474 0.03187,0.01467 -0.02256,0.05758 0,0.089 0.04496,0.06281 0.133943,0.03559 0.190786,0.08851 0.04023,0.03742 0.05522,0.09583 0.09545,0.133249 0.05695,0.05291 0.145775,0.0257 0.190786,0.08851 0.02256,0.0314 -0.03187,0.07424 0,0.089 0.162151,0.07521 0.317992,0.08817 0.09545,-0.311704 z"
           style="fill:#00ff05;fill-opacity:1;stroke:#000000;stroke-width:0.24531445;stroke-miterlimit:4;stroke-opacity:1;stroke-dasharray:none" />
        <rect
           style="fill:#00ff05;fill-opacity:1;stroke:#000000;stroke-width:0.25756285;stroke-miterlimit:4;stroke-opacity:1;stroke-dasharray:none"
           id="rect2986"
           width="1.2619212"
           height="9.7887878"
           x="14.556071"
           y="3.7562249"
           transform="matrix(0.90715163,0.42080389,0,1,0,0)" />
        <path
           sodipodi:type="star"
           style="fill:#ffff00;fill-opacity:1;stroke:#000000;stroke-width:0.2;stroke-miterlimit:4;stroke-opacity:1;stroke-dasharray:none"
           id="path2984"
           sodipodi:sides="29"
           sodipodi:cx="-8.338028"
           sodipodi:cy="14.197183"
           sodipodi:r1="3.9363222"
           sodipodi:r2="1.9681611"
           sodipodi:arg1="0.73139666"
           sodipodi:arg2="0.83972744"
           inkscape:flatsided="false"
           inkscape:rounded="0"
           inkscape:randomized="0"
           d="m -5.4084505,16.826291 -1.6155037,-1.163889 0.9818313,1.732194 -1.3275325,-1.483963 0.5865061,1.902761 -0.9774873,-1.734649 0.1637566,1.984357 -0.581736,-1.904225 -0.26665,1.973167 -0.1587833,-1.984761 -0.6845884,1.869713 0.2715939,-1.972492 -1.0705162,1.678834 0.6892718,-1.867992 -1.4063878,1.409455 1.0747199,-1.676146 -1.6764979,1.07417 1.4099151,-1.405926 -1.8682171,0.68866 1.679184,-1.069966 -1.972581,0.270947 1.869938,-0.683975 -1.984709,-0.159434 1.973254,-0.266003 -1.904034,-0.58236 1.984303,0.164407 -1.734328,-0.978056 1.902568,0.58713 -1.483528,-1.328019 1.7318723,0.982399 -1.1633593,-1.615885 1.4801955,1.331732 -0.7887925,-1.828194 1.1593057,1.618795 -0.3773434,-1.955019 0.7842088,1.830165 0.05175,-1.99043 0.372443,1.955959 0.4784237,-1.93277 -0.056738,1.990294 0.8827268,-1.784736 -0.4832657,1.931565 1.2457546,-1.553249 -0.8871966,1.782518 1.5505323,-1.249135 -1.2496431,1.550122 1.7828088,-0.886612 -1.5536577,1.245246 1.9317231,-0.482633 -1.785025,0.882142 1.9903122,-0.05609 -1.9329265,0.477791 1.9558366,0.373084 -1.9904466,0.0511 1.8299082,0.784809 -1.9548955,-0.377984 1.6184153,1.159836 -1.8279357,-0.789392 z"
           transform="matrix(1.2699613,0.58910177,0,1.1846658,24.270526,-4.4738921)" />
        <path
           inkscape:connector-curvature="0"
           style="fill:#00ff05;fill-opacity:1;stroke:#000000;stroke-width:0.24531445;stroke-linecap:butt;stroke-linejoin:miter;stroke-miterlimit:4;stroke-opacity:1;stroke-dasharray:none"
           d="m 14.921691,16.284324 c -0.12716,0.02999 -0.381573,0.238273 -0.381573,0.08996 0,-0.724386 0.32809,-0.103968 0.476974,-0.312675 0.03818,-0.05348 -0.03818,-0.213477 0,-0.266968 0.02004,-0.02819 0.07525,-0.01655 0.09545,-0.04474 0.0142,-0.01994 -0.0142,-0.06905 0,-0.089 0.02004,-0.02819 0.07525,-0.01655 0.09545,-0.04474 0.0142,-0.01994 -0.0142,-0.06905 0,-0.089 0.02004,-0.02819 0.07525,-0.01655 0.09545,-0.04474 0.0284,-0.03987 -0.04496,-0.156882 0,-0.177979 0.02256,-0.01057 0.07289,0.05481 0.09545,0.04425 0.04496,-0.02109 -0.0284,-0.138108 0,-0.177978 0.01262,-0.0172 0.178512,-0.07227 0.190786,-0.08947 0.0142,-0.01994 -0.0142,-0.06905 0,-0.089 0.105545,-0.147842 0.05916,-1.5e-4 0.190802,-4.73e-4 0.04023,-1.07e-4 0.06358,-0.02983 0.09545,-0.04474 0.05617,-0.02632 0.337414,-0.178836 0.381588,-0.178947 0.0284,-7.6e-5 0.07289,0.05479 0.09545,0.04425 0.0224,-0.01057 -0.02256,-0.07844 0,-0.089 0.04496,-0.02109 0.145776,0.1096 0.190786,0.08851 0.02256,-0.01057 -0.0224,-0.07844 0,-0.08899 0.04496,-0.02109 0.133944,0.08865 0.190787,0.08851 0.04023,-1.07e-4 0.05522,-0.04463 0.09545,-0.04474 0.03786,-9.3e-5 0.266687,0.14191 0.286187,0.13276 0.02256,-0.01057 -0.02256,-0.07844 0,-0.089 0.02256,-0.01057 0.06358,0.0295 0.09545,0.04425 0.03187,0.01467 0.06358,0.0295 0.09545,0.04425 0.190787,0.08851 0.381573,0.177008 0.572375,0.265512 0.03187,0.01467 0.06358,0.0295 0.09545,0.04425 0.03187,0.01467 0.06689,0.0178 0.09545,0.04425 0.04023,0.03742 0.05522,0.09583 0.09545,0.133249 0.05995,0.05579 0.321622,0.121227 0.381588,0.177007 0.04023,0.03742 0.05522,0.09583 0.09545,0.133249 0.0284,0.02646 0.06358,0.0295 0.09545,0.04425 0.03187,0.04441 0.05522,0.09583 0.09545,0.133249 0.0284,0.02646 0.06689,0.0178 0.09545,0.04425 0.04023,0.03742 0.05522,0.09583 0.09545,0.133249 0.0284,0.02646 0.06689,0.0178 0.09545,0.04425 0.04023,0.03742 0.05522,0.09583 0.09545,0.133249 0.0284,0.02646 0.07289,0.01278 0.09545,0.04425 0.02256,0.03139 -0.0224,0.05758 0,0.089 0.02256,0.03139 0.07289,0.01278 0.09545,0.04425 0.02256,0.03139 -0.02256,0.05758 0,0.089 0.04496,0.06281 0.145776,0.0257 0.190802,0.08851 0.0224,0.0314 -0.02256,0.05759 0,0.089 0.0224,0.03141 0.06689,0.0178 0.09545,0.04425 0.04023,0.03742 0.05522,0.09583 0.09545,0.133249 0.0284,0.02646 0.07289,0.01278 0.09545,0.04425 0.02256,0.03141 -0.0142,0.05587 0,0.089 0.198501,0.462432 -0.0063,-0.09819 0.190786,0.177496 0.0224,0.03141 -0.0142,0.05586 0,0.089 0.04023,0.0937 0.150508,0.17278 0.190802,0.266479 0.0142,0.03313 -0.0142,0.05586 0,0.089 0.02004,0.04684 0.07525,0.08639 0.09545,0.133249 0.0142,0.03313 -0.0142,0.05587 0,0.089 0.02004,0.04684 0.07525,0.08639 0.09545,0.133249 0.0284,0.06626 -0.0284,0.111714 0,0.177979 0.02019,0.04684 0.07525,0.08639 0.09545,0.133249 0.03818,0.08889 -0.03818,0.178073 0,0.266966 0.02004,0.04684 0.07525,0.08639 0.09545,0.133249 0.0284,0.06626 -0.0284,0.11173 0,0.177977 0.02019,0.04686 0.07525,0.08639 0.09545,0.133249 0.0047,0.0095 0.0047,0.350256 0,0.355956 -0.117851,0.165245 -0.09545,-0.07497 -0.09545,0.133722 0,0.02966 0,0.05932 0,0.089 0,0.02966 -0.0224,0.05758 0,0.089 0.02256,0.03141 0.07289,0.01278 0.09545,0.04425 0.0224,0.03141 0,0.05932 0,0.089 0,0.02966 0.0224,0.07844 0,0.089 -0.02256,0.01057 -0.07289,-0.05479 -0.09545,-0.04425 -0.04496,0.02109 0.04496,0.156882 0,0.177977 -0.0224,0.01057 -0.07289,-0.05479 -0.09545,-0.04425 -0.04496,0.02109 0.04496,0.156898 0,0.177978 -0.02256,0.01057 -0.07289,-0.05479 -0.09545,-0.04425 -0.0224,0.01057 0.02256,0.07844 0,0.089 -0.0224,0.01057 -0.07289,-0.05481 -0.09545,-0.04425 -0.03155,0.01483 0.03155,0.163184 0,0.177979 -0.02256,0.01057 -0.07289,-0.05479 -0.09545,-0.04425 -0.02256,0.01057 0.02256,0.07844 0,0.089 -0.02256,0.01057 -0.06689,-0.04433 -0.09545,-0.04425 -0.04023,1.07e-4 -0.05522,0.04463 -0.09545,0.04474 -0.0284,7.4e-5 -0.07289,-0.05481 -0.09545,-0.04425 -0.0224,0.01057 0.02256,0.07844 0,0.089 -0.04496,0.02109 -0.133943,-0.08865 -0.190802,-0.08851 -0.04023,1.08e-4 -0.05048,0.0656 -0.09545,0.04474 -0.03187,-0.01483 0.02256,-0.05758 0,-0.089 -0.02256,-0.03141 -0.07289,-0.01278 -0.09545,-0.04425 -0.02256,-0.03141 0.0224,-0.05758 0,-0.089 -0.02256,-0.03141 -0.07289,-0.01278 -0.09545,-0.04425 -0.03155,-0.04411 0.03155,-0.13388 0,-0.177979 -0.04496,-0.06281 -0.145775,-0.0257 -0.190786,-0.08851 -0.0224,-0.03139 0.02256,-0.05758 0,-0.089 -0.0224,-0.03141 -0.07289,-0.01278 -0.09545,-0.04425 -0.02256,-0.03141 0.02256,-0.05758 0,-0.089 -0.02256,-0.03141 -0.06689,-0.0178 -0.09545,-0.04425 -0.106176,-0.09873 -0.08472,-0.167753 -0.190801,-0.266483 -0.0284,-0.02646 -0.07289,-0.01278 -0.09545,-0.04425 -0.0224,-0.03139 0.02256,-0.05758 0,-0.089 -0.04496,-0.06281 -0.145775,-0.0257 -0.190786,-0.08851 -0.02256,-0.0314 0.0224,-0.05758 0,-0.089 -0.02256,-0.03141 -0.07289,-0.01278 -0.09545,-0.04425 -0.02256,-0.03141 0.02256,-0.05758 0,-0.089 -0.02256,-0.03139 -0.06689,-0.0178 -0.09545,-0.04425 -0.106177,-0.09876 -0.08456,-0.167715 -0.190802,-0.266481 -0.0284,-0.02646 -0.07289,-0.01278 -0.09545,-0.04425 -0.0224,-0.03141 0.02256,-0.05758 0,-0.089 -0.0224,-0.03139 -0.07289,-0.01278 -0.09545,-0.04425 -0.02256,-0.03139 0.02256,-0.05758 0,-0.089 -0.02256,-0.03139 -0.07289,-0.01278 -0.09545,-0.04425 -0.02256,-0.03139 0.02256,-0.05758 0,-0.08899 -0.02256,-0.03141 -0.06689,-0.0178 -0.09545,-0.04425 -0.04023,-0.03742 -0.05522,-0.09583 -0.09545,-0.133249 -0.05695,-0.05291 -0.145775,-0.0257 -0.190786,-0.08851 -0.02256,-0.03141 0.02256,-0.05758 0,-0.089 -0.04496,-0.06281 -0.133943,-0.03559 -0.190802,-0.08851 -0.04023,-0.03742 -0.05522,-0.09583 -0.09545,-0.133249 -0.03786,-0.03518 -0.266687,-0.105513 -0.286187,-0.132759 -0.02256,-0.0314 0.02256,-0.05758 0,-0.089 -0.02603,-0.03646 -0.329841,-0.128863 -0.381588,-0.177007 -0.04023,-0.03742 -0.05522,-0.09583 -0.09545,-0.133249 -0.02903,-0.02701 -0.243228,-0.112834 -0.286187,-0.13276 -0.04985,-0.02314 -0.356504,-0.1771 -0.381588,-0.177007 -0.04023,1.08e-4 -0.05522,0.04463 -0.09545,0.04474 -0.05695,1.5e-4 -0.145775,-0.109584 -0.190802,-0.08851 -0.0224,0.01057 0.03187,0.103747 0,0.089 -0.04496,-0.02086 -0.05048,-0.112377 -0.09545,-0.133249 -0.03187,-0.01467 0.02256,0.07844 0,0.089 -0.04496,0.02109 -0.133943,-0.08865 -0.190786,-0.08851 -0.04023,1.06e-4 -0.05522,0.04463 -0.09545,0.04474 -0.05695,1.39e-4 -0.145776,-0.1096 -0.190786,-0.08851 -0.02256,0.01057 0.03187,0.103746 0,0.089 -0.162136,-0.07521 -0.317993,-0.206834 -0.09545,-0.400207 z"
           id="path3787" />
        <path
           id="path3819"
           d="m 18.785074,6.9946559 c -0.06153,-0.030544 -0.341153,-0.09092 -0.376965,-0.1189238 -0.208377,-0.2601116 0.05916,0.046304 -0.12574,-0.098241 -0.05301,-0.041429 -0.07273,-0.1154372 -0.125739,-0.1568507 -0.01877,-0.014672 -0.04417,-0.00505 -0.06279,-0.019815 -0.05301,-0.041429 -0.07273,-0.1154372 -0.125739,-0.1568507 -0.01877,-0.014672 -0.04402,-0.00505 -0.06279,-0.019815 -0.01672,-0.013095 -0.180137,-0.2170904 -0.188483,-0.2352839 -0.0095,-0.020431 0.0142,-0.04012 0,-0.05861 -0.0142,-0.018474 -0.04796,-0.00127 -0.06279,-0.019815 -0.0142,-0.018474 0,-0.039063 0,-0.05861 0,-0.019531 -0.0095,-0.044096 0,-0.05861 0.01262,-0.020525 0.04954,-0.018254 0.06279,-0.038795 0.01878,-0.029029 -0.02966,-0.098935 0,-0.11722 0.0142,-0.00915 0.04796,0.02895 0.06279,0.019815 0.0142,-0.00915 -0.0095,-0.044096 0,-0.05861 0.01262,-0.020525 0.04954,-0.018269 0.06279,-0.038795 0.0095,-0.014514 -0.0095,-0.044096 0,-0.058626 0.0079,-0.012937 0.171807,-0.1138438 0.188498,-0.116368 0.01878,-0.00284 0.04796,0.02895 0.06279,0.019815 0.0142,-0.00915 -0.0142,-0.04946 0,-0.05861 0.0142,-0.00915 0.04402,0.022639 0.06279,0.019815 0.02651,-0.0041 0.03629,-0.034787 0.06279,-0.038795 0.03739,-0.00568 0.08819,0.045295 0.125739,0.039647 0.02651,-0.0041 0.03629,-0.034787 0.06279,-0.038795 0.03755,-0.00568 0.08819,0.045294 0.125739,0.039646 0.02651,-0.0041 0.03629,-0.034787 0.06279,-0.038795 0.111698,-0.016865 0.03487,0.043575 0.06279,0.078441 0.0142,0.018474 0.04197,0.013252 0.06279,0.019815 0.02303,0.00726 0.248781,0.076138 0.251306,0.079277 0.0142,0.018474 -0.0142,0.04012 0,0.05861 0.02966,0.036965 0.09608,0.00252 0.125739,0.039647 0.02098,0.026094 -0.02083,0.09111 0,0.11722 0.0142,0.018474 0.04796,0.00146 0.06279,0.019815 0.02082,0.025968 -0.02083,0.091252 0,0.1172041 0.02966,0.03698 0.09608,0.00252 0.125739,0.039647 0.0142,0.018474 -0.0142,0.04012 0,0.05861 0.03139,0.039221 0.157135,0.020241 0.188483,0.059462 0.0142,0.018474 -0.0142,0.04012 0,0.05861 0.0142,0.01849 0.06279,0.039347 0.06279,0.019815 0,-0.027625 -0.04954,-0.049538 -0.06279,-0.078441 -0.0095,-0.020431 0.0142,-0.04012 0,-0.05861 -0.0142,-0.01849 -0.04796,-0.00127 -0.06279,-0.019815 -0.0142,-0.01849 0,-0.039079 0,-0.05861 0,-0.030638 -0.0079,-0.2216356 0,-0.2344351 0.01262,-0.020525 0.04954,-0.018238 0.06279,-0.038795 0.0095,-0.014514 -0.0095,-0.044096 0,-0.05861 0.01262,-0.020525 0.04197,-0.025858 0.06279,-0.038795 0.02098,-0.012937 0.03818,-0.031238 0.06279,-0.038795 0.04197,-0.00631 0.08377,-0.012621 0.12574,-0.018963 0.02098,0.00663 0.04417,0.022639 0.06279,0.019815 0.149878,-0.022624 -0.02414,-0.054966 0.12574,-0.077589 0.01877,-0.00284 0.04402,0.022639 0.06279,0.019815 0.02651,-0.0041 0.03629,-0.034787 0.06279,-0.038795 0.0047,-7.273e-4 0.245957,0.075081 0.251305,0.079277 0.02651,0.02073 0.03629,0.057727 0.06279,0.078425 0.02493,0.019468 0.175641,0.043417 0.188483,0.059462 0.0142,0.01849 -0.0142,0.04012 0,0.05861 0.02966,0.03698 0.09608,0.00252 0.125739,0.039631 0.02966,0.036964 -0.01877,0.076359 0,0.11722 0.01262,0.028887 0.04954,0.049538 0.06279,0.078425 0.0095,0.020857 0,0.1494357 0,0.1758284 0,0.1562827 0.02098,-0.012937 -0.06279,0.038795 -0.0142,0.00915 0.0095,0.044096 0,0.05861 -0.0407,0.063154 -0.08488,0.014515 -0.125739,0.077589 -0.0095,0.014514 0.0142,0.049475 0,0.05861 -0.0142,0.00915 -0.06279,-3.644e-4 -0.06279,-0.019815 0,-0.019531 0.04796,0.028966 0.06279,0.019815 0.03139,-0.019389 -0.0314,-0.1564247 0,-0.1758283 0.0142,-0.00915 0.04417,0.022655 0.06279,0.019815 0.0265,-0.00394 0.03629,-0.034787 0.06279,-0.038795 0.01877,-0.00284 0.04291,0.019721 0.06279,0.019815 0.04449,1.815e-4 0.08015,-0.022703 0.125739,-0.018963 0.0609,0.00505 0.128895,0.059178 0.188499,0.059462 0.04449,1.814e-4 0.08014,-0.022703 0.125739,-0.018979 0.04938,0.00394 0.311635,0.098304 0.376966,0.1189238 0.02098,0.00663 0.04417,0.022655 0.06279,0.019815 0.01641,-0.00252 0.07652,-0.080271 0.12574,-0.018979 0.0142,0.018474 -0.0142,0.04012 0,0.05861 0.02966,0.03698 0.08819,0.010255 0.125739,0.039631 0.02651,0.020715 0.03629,0.057711 0.06279,0.078425 0.03739,0.029281 0.08819,0.010255 0.125739,0.039647 0.02651,0.020715 0.03629,0.057711 0.06279,0.078425 0.03739,0.029297 0.08819,0.010255 0.125581,0.039631 0.02651,0.020715 0.03629,0.057711 0.06279,0.078425 0.01877,0.014672 0.04796,0.00127 0.06279,0.019815 0.0063,0.00789 0.0063,0.1719473 0,0.1758284 -0.0142,0.00915 -0.04417,-0.022655 -0.06279,-0.019815 -0.0265,0.00394 -0.03629,0.034787 -0.06279,0.038795 -0.01877,0.00284 -0.04417,-0.022655 -0.06279,-0.019815 -0.02651,0.00394 -0.03629,0.034787 -0.06279,0.038795 -0.01877,0.00284 -0.04796,-0.028966 -0.06279,-0.019815 -0.0142,0.00915 0.0142,0.049475 0,0.05861 -0.01262,0.00789 -0.163571,-0.063217 -0.188483,-0.059462 -0.0265,0.00394 -0.03629,0.034803 -0.06279,0.038795 -0.01877,0.00284 -0.04197,-0.013252 -0.06279,-0.019815 -0.02098,-0.00663 -0.04181,-0.013252 -0.06279,-0.019815 -0.02098,-0.00663 -0.06279,-3.629e-4 -0.06279,-0.019815 0,-0.019531 0.04197,0.013252 0.06279,0.019815 0.02098,0.00663 0.04181,0.013252 0.06279,0.019815 0.146564,0.046257 0.293207,0.092482 0.439803,0.1387392 0.06279,0.019815 0.128895,0.022135 0.188483,0.059462 0.02808,0.017607 0.03629,0.057711 0.06279,0.078425 0.03755,0.029297 0.08819,0.010255 0.125739,0.039647 0.02651,0.020715 0.04197,0.052284 0.06279,0.078425 0.02098,0.026142 0.04954,0.049538 0.06279,0.078441 0.0032,0.00584 0.0032,0.2302812 0,0.2344336 -0.143725,0.2228773 0.02603,-0.240487 -0.12574,0.1361834 -0.01262,0.032894 0.01878,0.088175 0,0.11722 -0.01262,0.020525 -0.04954,0.018254 -0.06279,0.038795 -0.01262,0.019295 0.01262,0.1678962 0,0.1758255 -0.0142,0.00915 -0.04796,-0.028966 -0.06279,-0.019815 -0.0142,0.00915 0.0095,0.044095 0,0.05861 -0.01262,0.020525 -0.04181,0.025858 -0.06279,0.038795 -0.02098,0.012937 -0.03629,0.034787 -0.06279,0.038795 -0.01877,0.00284 -0.04417,-0.022655 -0.06279,-0.019815 -0.02651,0.0041 -0.03818,0.031222 -0.06279,0.038795 -0.317393,0.097263 -0.0015,-6.3e-6 -0.188483,-8.724e-4 -0.04449,-2.004e-4 -0.08125,0.019168 -0.125739,0.018979 -0.05664,-2.556e-4 -0.131892,-0.059194 -0.188483,-0.059462 -0.02808,-1.262e-4 -0.03471,0.038921 -0.06279,0.038779 -0.03376,-1.546e-4 -0.198106,-0.062491 -0.251305,-0.079277 -0.188483,-0.059462 -0.376981,-0.1189238 -0.565464,-0.178375 -0.146564,-0.046257 -0.293192,-0.092482 -0.439803,-0.1387392 -0.02098,-0.00663 -0.04181,-0.013252 -0.06279,-0.019815 -0.02098,-0.00663 -0.04796,-0.00129 -0.06279,-0.019815 -0.0142,-0.01849 0.0142,-0.04012 0,-0.05861 -0.03139,-0.039221 -0.157135,-0.020241 -0.188483,-0.059462 -0.0142,-0.01849 0.0142,-0.04012 0,-0.05861 -0.0142,-0.01849 -0.04402,-0.00505 -0.06279,-0.019815 -0.02651,-0.020715 -0.03629,-0.057711 -0.06279,-0.078441 -0.03739,-0.029281 -0.08819,-0.010255 -0.125739,-0.039647 -0.02651,-0.020715 -0.03629,-0.057711 -0.06279,-0.078441 -0.03739,-0.029297 -0.08819,-0.010255 -0.12574,-0.039631 -0.0265,-0.020715 -0.03629,-0.057711 -0.06279,-0.078441 -0.01877,-0.014672 -0.04796,-0.00129 -0.06279,-0.019815 -0.0142,-0.01849 0.0142,-0.04012 0,-0.05861 -0.02966,-0.03698 -0.09608,-0.00268 -0.125739,-0.039646 -0.0142,-0.018474 0,-0.039079 0,-0.05861 C 19.245888,7.1985282 19.141211,7.106893 18.785181,6.9945796 z"
           style="fill:#ffffff;fill-opacity:1;stroke:#070000;stroke-width:0.16156575;stroke-linecap:butt;stroke-linejoin:miter;stroke-miterlimit:4;stroke-opacity:1;stroke-dasharray:none"
           inkscape:connector-curvature="0" />
        <rect
           style="fill:#94f8ec;fill-opacity:1;stroke:#070000;stroke-width:0.23747037;stroke-miterlimit:4;stroke-opacity:1;stroke-dasharray:none"
           id="rect3889"
           width="7.9559755"
           height="8.0090084"
           x="29.663107"
           y="22.297821"
           transform="matrix(0.9050365,-0.42533391,0,1,0,0)" />
        <path
           sodipodi:type="arc"
           style="fill:#ff0000;fill-opacity:1;stroke:#070000;stroke-width:0.2;stroke-miterlimit:4;stroke-opacity:1;stroke-dasharray:none"
           id="path3891"
           sodipodi:cx="-6.8732395"
           sodipodi:cy="20.281691"
           sodipodi:rx="3.4929578"
           sodipodi:ry="3.1549296"
           d="m -3.3802817,20.281691 c 0,1.742419 -1.5638505,3.154929 -3.4929578,3.154929 -1.9291074,0 -3.4929575,-1.41251 -3.4929575,-3.154929 0,-1.74242 1.5638501,-3.15493 3.4929575,-3.15493 1.9291073,0 3.4929578,1.41251 3.4929578,3.15493 z"
           transform="matrix(1.0770333,-0.50616608,0,1.1846658,35.988341,-9.654525)" />
        <path
           sodipodi:type="star"
           style="fill:#00ff00;fill-opacity:1;stroke:#070000;stroke-width:0.2;stroke-miterlimit:4;stroke-opacity:1;stroke-dasharray:none"
           id="path3893"
           sodipodi:sides="5"
           sodipodi:cx="-6.084507"
           sodipodi:cy="6.6854458"
           sodipodi:r1="5.4219966"
           sodipodi:r2="2.7109983"
           sodipodi:arg1="0.74620256"
           sodipodi:arg2="1.3745211"
           inkscape:flatsided="false"
           inkscape:rounded="0"
           inkscape:randomized="0"
           d="M -2.1032863,10.366197 -5.5558151,9.3443923 -8.3548445,11.609226 -8.4499406,8.0099214 -11.468873,6.0477583 -8.0751173,4.8450702 -7.1418909,1.3675528 -4.9493382,4.2235555 -1.3536398,4.0364946 -3.3923238,7.0042895 z"
           transform="matrix(1.0770333,-0.50616608,0,1.1846658,43.107883,-1.4318685)" />
        <path
           style="fill:#4a6bfe;fill-opacity:1;stroke:none"
           d="m 5.6338003,-1.4566535 c 0.5386596,0 18.5008897,-7.7436324 18.5008897,-7.7436324 l 19.122298,7.3691438 -18.852976,7.3691389 z"
           id="path3771"
           inkscape:connector-curvature="0"
           sodipodi:nodetypes="ccccc" />
        <path
           id="path3773"
           d="M 5.5948637,-1.2424865 C 6.5618416,-1.0283353 24.13469,-8.879059 24.13469,-8.879059 L 43.256988,-1.8311421 23.868634,5.430918 z"
           style="fill:url(#linearGradient3047);fill-opacity:1;stroke:none"
           inkscape:connector-curvature="0"
           sodipodi:nodetypes="ccccc" />
        <path
           inkscape:connector-curvature="0"
           id="path3726"
           d="m 26.972943,-4.915084 c -0.124635,0 0.02461,0.00789 -0.165496,-0.054902 -0.01735,-0.00631 -0.03676,0 -0.05522,0 -0.03676,-0.018301 -0.07131,-0.041966 -0.110278,-0.054902 -0.03203,-0.011044 -0.172864,0 -0.220683,0 -0.03676,0 -0.07352,0 -0.110278,0 -0.01846,0 -0.03771,-0.00631 -0.05522,0 -0.03897,0.012621 -0.07131,0.041966 -0.110279,0.054902 -0.01735,0.00631 -0.03865,-0.00789 -0.05522,0 -0.07352,0.036602 -0.03692,0.073203 -0.110278,0.109805 -0.01656,0.00789 -0.04212,-0.012621 -0.05522,0 -0.01262,0.012621 0.01262,0.041966 0,0.054902 -0.01262,0.012621 -0.03865,-0.00789 -0.05522,0 -0.02319,0.011044 -0.03187,0.043385 -0.05522,0.054902 -0.01656,0.00789 -0.04212,-0.012621 -0.05522,0 -0.01262,0.012621 0.01262,0.041966 0,0.054902 -0.01262,0.012621 -0.04212,-0.012621 -0.05522,0 -0.0183,0.018143 0.0183,0.091662 0,0.109805 -0.01262,0.012621 -0.04212,-0.012621 -0.05522,0 -0.01262,0.012621 -0.01262,0.041966 0,0.054902 0.01262,0.012621 0.04212,-0.012621 0.05522,0 0.01262,0.012621 -0.01846,0.054903 0,0.054903 0.02603,0 0.03187,-0.043386 0.05522,-0.054903 0.03802,-0.018932 0.165512,0.041492 0.165512,-0.054902 0,-0.090558 -0.126528,-0.041966 -0.165512,-0.054902 -0.03897,-0.012621 -0.07131,-0.041966 -0.110278,-0.054903 -0.03487,-0.011044 -0.07352,0 -0.110436,0 -0.03676,0 -0.07541,-0.011044 -0.110279,0 -0.02461,0.00789 -0.03045,0.046699 -0.05522,0.054903 -0.03487,0.011044 -0.07462,-0.00947 -0.110278,0 -0.160006,0.039757 -0.06453,0.042912 -0.165512,0.109805 -0.03423,0.022718 -0.0762,0.032184 -0.110278,0.054903 -0.02161,0.014199 -0.03676,0.036602 -0.05522,0.054902 -0.01846,0.018301 -0.04354,0.031711 -0.05522,0.054902 -0.0079,0.016408 0.01262,0.041966 0,0.054902 -0.01262,0.012621 -0.04212,-0.012621 -0.05522,0 -0.01262,0.012621 0.0079,0.038495 0,0.054903 -0.01104,0.023191 -0.04354,0.031711 -0.05522,0.054902 -0.0079,0.016408 0,0.036602 0,0.054902 0,0.018301 0,0.036602 0,0.054902 0,0.036602 -0.01104,0.075096 0,0.109805 0.01262,0.03881 0.04212,0.070995 0.05522,0.109805 0.0063,0.017354 -0.0079,0.038495 0,0.054902 0.01104,0.023192 0.03676,0.036602 0.05522,0.054903 0.01846,0.018301 0.03187,0.043386 0.05522,0.054902 0.01656,0.00789 0.03865,-0.00789 0.05522,0 0.02319,0.011044 0.03187,0.043386 0.05522,0.054902 0.0032,0.00158 0.162609,0.00158 0.165496,0 0.02319,-0.011044 0.03676,-0.036602 0.05522,-0.054902 0.01846,-0.018301 0.04354,-0.031711 0.05522,-0.054902 0.0079,-0.016408 0,-0.036602 0,-0.054903 0,-0.018301 0.01262,-0.041966 0,-0.054902 -0.01262,-0.012621 -0.04212,0.012621 -0.05522,0 -0.07352,-0.073203 0.117062,-0.052694 -0.05522,-0.109805 -0.0032,-0.00109 -0.272225,-0.00109 -0.275837,0 -0.02461,0.00789 -0.03045,0.046699 -0.05522,0.054902 -0.238874,0.079198 0.02019,-0.1049143 -0.220683,0.054903 -0.02161,0.014199 -0.03676,0.036602 -0.05522,0.054902 -0.01846,0.018301 -0.04354,0.031711 -0.05522,0.054903 -0.0079,0.016408 0.01262,0.041966 0,0.054902 -0.01262,0.012621 -0.04212,-0.012621 -0.05522,0 -0.04307,0.042912 0.04796,0.095448 0.05522,0.109805 0.0079,0.016408 0,0.036602 0,0.054902 0.01846,0.018301 0.0407,0.033289 0.05522,0.054902 0.01846,0.036602 0.03676,0.073203 0.05522,0.109805 0,0.018301 -0.0079,0.038495 0,0.054902 0.01104,0.022718 0.142147,0.1490886 0.165512,0.1646601 0.03423,0.022718 0.0762,0.032184 0.110278,0.054902 0.02161,0.014199 0.03045,0.046699 0.05522,0.054903 0.05238,0.017354 0.110278,0 0.165512,0 0.03676,0 0.07352,0 0.110278,0 0.01846,0 0.03865,0.00789 0.05522,0 0.02319,-0.011044 0.03045,-0.046699 0.05522,-0.054903 0.26481,-0.087875 0.04228,0.080461 0.110279,-0.054902 0.01104,-0.023192 0.05522,-0.029029 0.05522,-0.054903 0,-0.091031 -0.07731,-0.038495 -0.110279,-0.054903 -0.02319,-0.011044 -0.03187,-0.043386 -0.05522,-0.054903 -0.0063,-0.00316 -0.2697,-0.00316 -0.275853,0 -0.04654,0.023192 -0.0639,0.086613 -0.110278,0.109805 -0.01657,0.00789 -0.04212,-0.012621 -0.05522,0 -0.01262,0.012621 0,0.036602 0,0.054903 0,0.012621 -0.0063,0.2072726 0,0.2195784 0.01104,0.023192 0.0407,0.033289 0.05522,0.054903 0.05364,0.079987 0.03439,0.1143801 0.110278,0.1646601 0.400015,0.1990057 -0.08724,-0.0579 0.165496,0.1098049 0.05459,0.036286 0.166065,0.073519 0.220683,0.109805 0.10097,0.066893 0.0047,0.070048 0.165512,0.109805 0.03566,0.00947 0.07352,0 0.110278,0 0.03676,0 0.07352,0 0.110279,0 0.03676,0 0.07352,0 0.110278,0 0.03676,0 0.07462,0.00947 0.110278,0 0.03992,-0.00947 0.07352,-0.036602 0.110278,-0.054903 0.03676,-0.018301 0.07352,-0.036602 0.110279,-0.054902 0.03676,-0.018301 0.07352,-0.036602 0.110278,-0.054903 0.03676,-0.018301 0.07746,-0.030291 0.110278,-0.054903 0.04165,-0.03108 0.07352,-0.073203 0.110278,-0.1098049 0.01846,-0.018301 0.03676,-0.036602 0.05522,-0.054903 0.01846,-0.018301 0.04354,-0.031711 0.05522,-0.054903 0.0063,-0.011044 0.0079,-0.1569769 0,-0.1646759 -0.02603,-0.025874 -0.08425,0.025874 -0.110278,0 -0.01262,-0.012621 0.01262,-0.041966 0,-0.054902 -0.01262,-0.012621 -0.04212,-0.012621 -0.05522,0 -0.03802,0.037864 0.04086,0.1027055 0.05522,0.109805 0.01657,0.00789 0.03865,-0.00789 0.05522,0 0.02319,0.011044 0.03187,0.043386 0.05522,0.054903 0.01657,0.00789 0.03771,-0.00631 0.05522,0 0.07794,0.025874 0.140885,0.089927 0.220683,0.1098049 0.02777,0.00631 0.376161,0.00158 0.386195,0 0.04023,-0.00789 0.07036,-0.044963 0.110278,-0.054902 0.03565,-0.00947 0.07541,0.011044 0.110278,0 0.02461,-0.00789 0.0336,-0.040546 0.05522,-0.054902 0.03424,-0.022718 0.08125,-0.026031 0.110279,-0.054903 0.01262,-0.012621 -0.0079,-0.038495 0,-0.054903 0.01104,-0.023192 0.04354,-0.031711 0.05522,-0.054902 0.0079,-0.016408 -0.0063,-0.037548 0,-0.054903 0.01262,-0.03881 0.04528,-0.070048 0.05522,-0.1098049 0.03076,-0.122584 -0.01799,-0.1085429 -0.05522,-0.2195784 -0.01104,-0.034709 0.01641,-0.07699 0,-0.109805 -0.01104,-0.023191 -0.03676,-0.036602 -0.05522,-0.054902 -0.01846,-0.018301 -0.03676,-0.036602 -0.05522,-0.054902 -0.01104,-0.011044 -0.06973,-0.09529 -0.110279,-0.054902 -0.0047,0.00473 -0.0047,0.1591856 0,0.1646759 0.01262,0.012621 0.03865,-0.00789 0.05522,0 0.182977,0.1820617 -0.05206,-0.025874 0.110279,0.054902 0.02319,0.011044 0.03187,0.043386 0.05522,0.054903 0.04985,0.024769 0.14262,-0.04733 0.165496,-0.054903 0.01735,-0.00631 0.03771,0.00631 0.05522,0 0.100181,-0.033289 0.10239,-0.047014 0.165496,-0.109805 0.01846,-0.018301 0.04354,-0.031711 0.05522,-0.054903 0.0079,-0.016408 -0.0079,-0.038495 0,-0.054902 0.01104,-0.023191 0.04701,-0.030291 0.05522,-0.054902 0.01104,-0.034708 0,-0.073203 0,-0.109805 0,-0.018301 0.0079,-0.038495 0,-0.054903 -0.01104,-0.023192 -0.0407,-0.033289 -0.05522,-0.054902 -0.02288,-0.034077 -0.03234,-0.075728 -0.05522,-0.1098049 -0.01578,-0.022876 -0.200946,-0.2097496 -0.220683,-0.2195626 -0.01656,-0.00789 -0.03865,0.00789 -0.05522,0 -0.02319,-0.011044 -0.03187,-0.043386 -0.05522,-0.054902 -0.01656,-0.00789 -0.04212,0.012621 -0.05522,0 -0.01262,-0.012621 0.01262,-0.041966 0,-0.054903 -0.01262,-0.012621 -0.04212,-0.012621 -0.05522,0 -0.01262,0.012621 0.0079,0.038495 0,0.054903 -0.01104,0.023192 -0.04354,0.031711 -0.05522,0.054902 -0.0016,0.00316 -0.0016,0.1617887 0,0.1646601 0.01104,0.023192 0.03187,0.043386 0.05522,0.054903 0.01657,0.00789 0.03865,-0.00789 0.05522,0 0.02335,0.011044 0.02919,0.054902 0.05522,0.054902 0.02603,0 0.03045,-0.046699 0.05522,-0.054902 0.03487,-0.011044 0.07541,0.011044 0.110279,0 0.02461,-0.00789 0.0336,-0.040546 0.05522,-0.054903 0.03423,-0.022718 0.08125,-0.026031 0.110278,-0.054902 0.02903,-0.028871 0.03234,-0.075728 0.05522,-0.109805 0.0142,-0.021456 0.04701,-0.030291 0.05522,-0.054902 0.01735,-0.052063 0,-0.109805 0,-0.1646759 0,-0.018301 0.0079,-0.038495 0,-0.054903 -0.01104,-0.023192 -0.03676,-0.036602 -0.05522,-0.054902 -0.01846,-0.018301 -0.03187,-0.043386 -0.05522,-0.054902 -0.01641,-0.00789 -0.03865,0.00789 -0.05522,0 -0.02319,-0.011044 -0.03187,-0.043386 -0.05522,-0.054903 -0.0047,-0.00158 -0.215981,-0.00158 -0.220683,0 -0.02335,0.011044 -0.03187,0.043386 -0.05522,0.054903 -0.01688,0.00789 -0.140727,0 -0.165512,0 -0.06958,0 -0.153348,0.00947 -0.220683,0 -0.09277,-0.012621 -0.183891,-0.036602 -0.496536,-0.2195784 z"
           style="fill:#ffffff;fill-opacity:1;stroke:#000000;stroke-width:0.14652017;stroke-linecap:butt;stroke-linejoin:miter;stroke-miterlimit:4;stroke-opacity:1;stroke-dasharray:none" />
        <path
           inkscape:connector-curvature="0"
           style="fill:#ffffff;fill-opacity:1;stroke:#000000;stroke-width:0.24504168;stroke-linecap:butt;stroke-linejoin:miter;stroke-miterlimit:4;stroke-opacity:1;stroke-dasharray:none"
           d="m 20.746655,-3.9850549 c -0.208456,0 0.04133,0.014199 -0.2768,-0.09182 -0.02919,-0.00947 -0.06153,0 -0.09229,0 -0.06153,-0.030607 -0.119271,-0.070206 -0.184539,-0.09182 -0.05348,-0.01767 -0.289106,0 -0.369061,0 -0.06153,0 -0.123058,0 -0.184539,0 -0.03076,0 -0.06311,-0.00947 -0.09229,0 -0.06532,0.021614 -0.119271,0.070206 -0.184539,0.09182 -0.02919,0.00947 -0.06468,-0.014199 -0.09229,0 -0.122741,0.061055 -0.06169,0.122584 -0.184538,0.1836078 -0.02745,0.014199 -0.07052,-0.021614 -0.09229,0 -0.02177,0.021614 0.02177,0.070206 0,0.09182 -0.02177,0.021614 -0.06468,-0.014199 -0.09229,0 -0.03897,0.019405 -0.05332,0.072414 -0.09229,0.09182 -0.02745,0.014199 -0.07052,-0.021614 -0.09229,0 -0.02177,0.021614 0.02177,0.070206 0,0.09182 -0.02177,0.021614 -0.07052,-0.021614 -0.09229,0 -0.03061,0.030449 0.03061,0.1531906 0,0.183592 -0.02177,0.021614 -0.07052,-0.021614 -0.09229,0 -0.02177,0.021614 -0.02177,0.070206 0,0.09182 0.02177,0.021614 0.07052,-0.021614 0.09229,0 0.02177,0.021614 -0.03076,0.09182 0,0.09182 0.04354,0 0.05332,-0.072415 0.09229,-0.09182 0.06358,-0.031711 0.2768,0.069259 0.2768,-0.09182 0,-0.1512973 -0.211564,-0.070206 -0.2768,-0.09182 -0.06531,-0.021614 -0.119271,-0.070206 -0.184539,-0.09182 -0.05837,-0.019405 -0.123057,0 -0.184538,0 -0.06153,0 -0.126213,-0.019405 -0.184523,0 -0.04134,0.014199 -0.05096,0.078094 -0.09229,0.09182 -0.05837,0.019405 -0.124793,-0.014199 -0.184539,0 -0.267602,0.066577 -0.107911,0.071626 -0.2768,0.1836078 -0.05727,0.038022 -0.127317,0.053798 -0.184538,0.09182 -0.03613,0.02398 -0.06153,0.061213 -0.09229,0.09182 -0.03076,0.030606 -0.07289,0.053167 -0.09229,0.09182 -0.0142,0.027451 0.02177,0.070206 0,0.09182 -0.02177,0.021614 -0.07052,-0.021614 -0.09229,0 -0.02177,0.021614 0.0142,0.064369 0,0.09182 -0.0194,0.038653 -0.07289,0.053167 -0.09229,0.09182 -0.0142,0.027293 0,0.061213 0,0.09182 0,0.030607 0,0.061213 0,0.09182 0,0.061213 -0.0194,0.1255815 0,0.1836078 0.02177,0.064999 0.07052,0.1186399 0.09229,0.183592 0.0095,0.029029 -0.0142,0.064368 0,0.09182 0.01941,0.038653 0.06153,0.061213 0.09229,0.09182 0.03076,0.030607 0.05333,0.072415 0.09229,0.09182 0.02745,0.014199 0.06468,-0.014199 0.09229,0 0.03897,0.019405 0.05333,0.072415 0.09229,0.09182 0.0047,0.00316 0.271972,0.00316 0.2768,0 0.03897,-0.019405 0.06153,-0.061213 0.09229,-0.09182 0.03076,-0.030607 0.07273,-0.053167 0.09229,-0.09182 0.0142,-0.027451 0,-0.061213 0,-0.09182 0,-0.030607 0.02177,-0.070206 0,-0.09182 -0.02177,-0.021614 -0.07052,0.021614 -0.09229,0 -0.123058,-0.1224262 0.195724,-0.088033 -0.09229,-0.183592 -0.0063,-0.00158 -0.455281,-0.00158 -0.461339,0 -0.04133,0.014199 -0.05096,0.078094 -0.09229,0.09182 -0.399478,0.1325232 0.03392,-0.1754987 -0.369061,0.09182 -0.03613,0.02398 -0.06153,0.061213 -0.09229,0.09182 -0.03076,0.030607 -0.07289,0.053167 -0.09229,0.09182 -0.0142,0.027293 0.02177,0.070206 0,0.09182 -0.02177,0.021614 -0.07052,-0.021614 -0.09229,0 -0.0721,0.071783 0.0803,0.1597063 0.09229,0.1836078 0.0142,0.027293 0,0.061213 0,0.09182 0.03076,0.030607 0.06816,0.055849 0.09229,0.09182 0.03076,0.061213 0.06153,0.1224263 0.09229,0.1836078 0,0.030607 -0.0142,0.064368 0,0.09182 0.01909,0.038022 0.23769,0.2494592 0.2768,0.2753959 0.05727,0.038022 0.127317,0.0537981 0.184538,0.0918197 0.03613,0.0239804 0.05096,0.0780941 0.09229,0.0918197 0.08756,0.0290131 0.184539,0 0.276816,0 0.06153,0 0.123057,0 0.184523,0 0.03076,0 0.06468,0.0141989 0.09229,0 0.03897,-0.0194052 0.05096,-0.0780941 0.09229,-0.0918197 0.44288,-0.1468799 0.07068,0.13465307 0.184523,-0.0918197 0.0194,-0.038653 0.09229,-0.048592 0.09229,-0.09182 0,-0.152244 -0.129368,-0.064368 -0.184539,-0.09182 -0.03881,-0.019405 -0.05333,-0.072414 -0.09229,-0.09182 -0.01104,-0.00473 -0.451036,-0.00473 -0.461338,0 -0.07778,0.038653 -0.106808,0.144829 -0.184539,0.1836078 -0.02745,0.014199 -0.07052,-0.021614 -0.09229,0 -0.02177,0.021614 0,0.061213 0,0.09182 0,0.021772 -0.01104,0.34663347 0,0.3672077 0.01941,0.0386999 0.06816,0.055786 0.09229,0.0918039 0.08961,0.13376959 0.05758,0.19121052 0.184539,0.27540379 0.668989,0.33281155 -0.145934,-0.0967577 0.2768,0.18360305 0.09135,0.060598 0.277715,0.1230257 0.369061,0.1836046 0.168825,0.1119821 0.0095,0.1170464 0.276816,0.183603 0.05964,0.01483 0.123057,0 0.184523,0 0.06153,0 0.123057,0 0.184538,0 0.06153,0 0.123057,0 0.184539,0 0.06153,0 0.124792,0.01483 0.184538,0 0.06673,-0.016581 0.123058,-0.061197 0.184539,-0.091804 0.06153,-0.030606 0.123057,-0.061197 0.184523,-0.091804 0.06153,-0.030607 0.123057,-0.061197 0.184538,-0.091804 0.06153,-0.030607 0.129526,-0.050753 0.184539,-0.091804 0.06958,-0.051921 0.123057,-0.1223947 0.184539,-0.18360462 0.03076,-0.0306066 0.06153,-0.0611973 0.09229,-0.0918039 0.03076,-0.0306066 0.07289,-0.053104 0.09229,-0.0918039 0.0095,-0.0188372 0.01262,-0.26245595 0,-0.27540379 -0.04354,-0.0432751 -0.141043,0.0432752 -0.184539,0 -0.02177,-0.0216455 0.02177,-0.0701742 0,-0.0918039 -0.02177,-0.0216139 -0.07052,-0.0216139 -0.09229,0 -0.06358,0.0633114 0.06831,0.17165072 0.09229,0.18359516 0.02745,0.0137256 0.06468,-0.0137256 0.09229,0 0.03897,0.0193579 0.05333,0.072446 0.09229,0.0918039 0.02745,0.0137256 0.06311,-0.009624 0.09229,0 0.130472,0.0432751 0.235639,0.15041387 0.369061,0.18360462 0.04654,0.0115169 0.629107,0.003155 0.645877,0 0.06737,-0.0134101 0.117852,-0.0752227 0.184539,-0.0918039 0.05964,-0.01483 0.126213,0.0193579 0.184539,0 0.04118,-0.0137256 0.05601,-0.0677919 0.09229,-0.0918039 0.05727,-0.0379584 0.135836,-0.0434171 0.184538,-0.0918039 0.02177,-0.0216455 -0.0142,-0.0644315 0,-0.0918039 0.01941,-0.0386999 0.07289,-0.053104 0.09229,-0.0918039 0.0142,-0.0274512 -0.0095,-0.0627908 0,-0.0918197 0.02177,-0.0649995 0.07557,-0.11721991 0.09229,-0.18360781 0.05143,-0.2049377 -0.02998,-0.1815252 -0.09229,-0.3672155 -0.0194,-0.058058 0.02745,-0.1288947 0,-0.183592 -0.0194,-0.038653 -0.06153,-0.061213 -0.09229,-0.09182 -0.03076,-0.030607 -0.06153,-0.061213 -0.09229,-0.09182 -0.01798,-0.017985 -0.116589,-0.1593277 -0.184538,-0.09182 -0.0095,0.00947 -0.0095,0.2662297 0,0.2754116 0.02177,0.021614 0.06468,-0.014199 0.09229,0 0.306018,0.3044722 -0.08693,-0.043228 0.184538,0.09182 0.03897,0.019405 0.05333,0.072415 0.09229,0.09182 0.0833,0.041492 0.2384,-0.079041 0.2768,-0.09182 0.02919,-0.00947 0.06311,0.00947 0.09229,0 0.167579,-0.055534 0.171239,-0.078567 0.2768,-0.1836078 0.03076,-0.030607 0.07289,-0.053009 0.09229,-0.09182 0.0142,-0.027294 -0.0142,-0.064368 0,-0.09182 0.01941,-0.038653 0.07857,-0.050801 0.09229,-0.09182 0.0194,-0.058058 0,-0.1224262 0,-0.1836077 0,-0.030607 0.0142,-0.064368 0,-0.09182 -0.0194,-0.038653 -0.06816,-0.055849 -0.09229,-0.09182 -0.03818,-0.056953 -0.05411,-0.1266859 -0.09229,-0.1836078 -0.02556,-0.038179 -0.336072,-0.3507921 -0.369077,-0.3671998 -0.02745,-0.014199 -0.06468,0.014199 -0.09229,0 -0.03897,-0.019405 -0.05332,-0.072415 -0.09229,-0.09182 -0.02745,-0.014199 -0.07052,0.021614 -0.09229,0 -0.02177,-0.021614 0.02177,-0.070206 0,-0.09182 -0.02177,-0.021614 -0.07052,-0.021614 -0.09229,0 -0.02177,0.021614 0.0142,0.064368 0,0.09182 -0.01941,0.038653 -0.07289,0.053167 -0.09229,0.09182 -0.0032,0.00473 -0.0032,0.2705998 0,0.2753959 0.0194,0.038653 0.05333,0.072415 0.09229,0.09182 0.02745,0.014199 0.06468,-0.014199 0.09229,0 0.03881,0.019405 0.04875,0.09182 0.09229,0.09182 0.04354,0 0.05096,-0.078094 0.09229,-0.09182 0.05837,-0.019405 0.126213,0.019405 0.184539,0 0.04133,-0.014199 0.05601,-0.067839 0.09229,-0.09182 0.05727,-0.038021 0.135836,-0.043386 0.184538,-0.09182 0.04859,-0.048434 0.05411,-0.1266859 0.09229,-0.1836078 0.02414,-0.035971 0.07857,-0.050801 0.09229,-0.09182 0.02919,-0.087087 0,-0.183592 0,-0.2753959 0,-0.030607 0.0142,-0.064368 0,-0.09182 -0.0194,-0.038653 -0.06153,-0.061213 -0.09229,-0.09182 -0.03076,-0.030607 -0.05332,-0.072414 -0.09229,-0.09182 -0.02745,-0.014199 -0.06468,0.014199 -0.09229,0 -0.03897,-0.019405 -0.05333,-0.072414 -0.09229,-0.09182 -0.0079,-0.00316 -0.361189,-0.00316 -0.369061,0 -0.03897,0.019405 -0.05332,0.072414 -0.09229,0.09182 -0.02808,0.014199 -0.235245,0 -0.2768,0 -0.116431,0 -0.25659,0.016092 -0.369062,0 -0.155241,-0.022087 -0.307564,-0.061213 -0.830415,-0.3671998 z"
           id="path3724" />
        <path
           inkscape:connector-curvature="0"
           style="fill:#ffffff;fill-opacity:1;stroke:#000000;stroke-width:0.18609452;stroke-linecap:butt;stroke-linejoin:miter;stroke-miterlimit:4;stroke-opacity:1;stroke-dasharray:none"
           d="m 31.685832,-2.3217463 c -0.17004,0 0.0336,0.00947 -0.225778,-0.065 -0.02367,-0.00631 -0.05017,0 -0.07525,0 -0.05017,-0.021614 -0.09734,-0.049538 -0.150508,-0.064999 -0.04354,-0.012621 -0.235844,0 -0.301065,0 -0.05017,0 -0.100339,0 -0.150508,0 -0.02509,0 -0.05143,-0.00631 -0.07525,0 -0.05317,0.015777 -0.09734,0.049538 -0.150509,0.064999 -0.02367,0.00631 -0.05285,-0.00947 -0.07525,0 -0.100181,0.043228 -0.05033,0.086613 -0.150509,0.1298412 -0.02256,0.00947 -0.05758,-0.015777 -0.07525,0 -0.01799,0.015777 0.01798,0.049539 0,0.064999 -0.01799,0.015777 -0.05285,-0.00947 -0.07525,0 -0.03171,0.014199 -0.04354,0.051274 -0.07525,0.064842 -0.02256,0.00947 -0.05758,-0.015777 -0.07525,0 -0.01783,0.015777 0.01799,0.049538 0,0.064999 -0.01783,0.015777 -0.05758,-0.015777 -0.07525,0 -0.02493,0.021456 0.02493,0.1083851 0,0.1298413 -0.01798,0.015777 -0.05758,-0.015777 -0.07525,0 -0.01799,0.015777 -0.01799,0.049539 0,0.065 0.01798,0.015777 0.05758,-0.015777 0.07525,0 0.01798,0.015777 -0.02509,0.064999 0,0.064999 0.0355,0 0.04354,-0.051274 0.07525,-0.064999 0.0519,-0.022403 0.225779,0.049065 0.225779,-0.065 0,-0.1069652 -0.172564,-0.049538 -0.225779,-0.064999 -0.05317,-0.015777 -0.09734,-0.049538 -0.150508,-0.065 -0.04764,-0.014199 -0.100339,0 -0.150509,0 -0.05017,0 -0.102863,-0.014199 -0.150508,0 -0.0336,0.00947 -0.04165,0.055218 -0.07526,0.065 -0.04764,0.014199 -0.101916,-0.011044 -0.150508,0 -0.218285,0.047014 -0.08803,0.050643 -0.225779,0.1298412 -0.0467,0.02682 -0.10381,0.038021 -0.150508,0.064842 -0.0295,0.016881 -0.05017,0.043228 -0.07525,0.065 -0.02509,0.021614 -0.05948,0.037548 -0.07526,0.064999 -0.01104,0.019405 0.01799,0.049539 0,0.065 -0.01798,0.015777 -0.05758,-0.015777 -0.07525,0 -0.01799,0.015777 0.01104,0.045594 0,0.065 -0.01593,0.027451 -0.05948,0.037548 -0.07525,0.064999 -0.01104,0.019405 0,0.043228 0,0.065 0,0.021614 0,0.043228 0,0.064999 0,0.043228 -0.01593,0.088822 0,0.1298412 0.01798,0.04591 0.05758,0.083931 0.07525,0.1298412 0.0079,0.02051 -0.01104,0.045594 0,0.065 0.01593,0.0272935 0.05017,0.0432278 0.07525,0.0649995 0.02509,0.0216139 0.04354,0.0512739 0.07526,0.0649995 0.02256,0.009466 0.05285,-0.009466 0.07525,0 0.03171,0.0141989 0.04354,0.0512739 0.07525,0.0649206 0.0047,0.001893 0.22185,0.001893 0.225779,0 0.03171,-0.0137256 0.05017,-0.0432751 0.07525,-0.0649206 0.02509,-0.0216139 0.05948,-0.0375483 0.07525,-0.0649995 0.01104,-0.0194052 0,-0.0432278 0,-0.0649995 0,-0.021614 0.01798,-0.049538 0,-0.065 -0.01798,-0.015777 -0.05758,0.015777 -0.07525,0 -0.100339,-0.086613 0.159643,-0.062318 -0.07525,-0.1298412 -0.0047,-0.00145 -0.371365,-0.00145 -0.376303,0 -0.0336,0.00947 -0.04165,0.055218 -0.07525,0.065 -0.325866,0.093713 0.02761,-0.1241617 -0.301065,0.064999 -0.0295,0.016881 -0.05017,0.043228 -0.07525,0.065 -0.02509,0.021614 -0.05948,0.0375482 -0.07525,0.0649995 -0.01104,0.0194052 0.01798,0.0495384 0,0.0649995 -0.01799,0.0157766 -0.05759,-0.0157766 -0.07526,0 -0.05885,0.0508006 0.06547,0.11292873 0.07526,0.12980966 0.01104,0.0194052 0,0.0432752 0,0.0649206 0.02508,0.0216455 0.05553,0.0394414 0.07525,0.0649206 0.02509,0.0432751 0.05017,0.0865503 0.07525,0.12980966 0,0.0216455 -0.01104,0.045547 0,0.0649206 0.01578,0.0268675 0.193894,0.17638525 0.225779,0.19471765 0.0467,0.02682 0.10381,0.038069 0.150508,0.064921 0.0295,0.016944 0.04165,0.055249 0.07525,0.064921 0.07131,0.020446 0.150509,0 0.225779,0 0.05017,0 0.100339,0 0.150509,0 0.02508,0 0.05285,0.00962 0.07525,0 0.03171,-0.013726 0.04165,-0.055234 0.07525,-0.064921 0.361252,-0.1038572 0.05774,0.095212 0.150509,-0.064921 0.01593,-0.027357 0.07525,-0.034314 0.07525,-0.064921 0,-0.10762781 -0.105545,-0.0455155 -0.150509,-0.0649207 -0.03171,-0.0137256 -0.04354,-0.0512265 -0.07525,-0.0649206 -0.0079,-0.003629 -0.367925,-0.003629 -0.376319,0 -0.06342,0.0273724 -0.08709,0.10243731 -0.150508,0.1298097 -0.02256,0.00962 -0.05758,-0.0153033 -0.07525,0 -0.01799,0.015303 0,0.043259 0,0.064921 0,0.015303 -0.0079,0.2450875 0,0.2596367 0.01593,0.027357 0.05553,0.039441 0.07525,0.064921 0.07305,0.094596 0.04701,0.1352052 0.150508,0.1947176 0.545696,0.2353187 -0.118955,-0.068423 0.225779,0.1298097 0.07447,0.042849 0.226536,0.086992 0.301049,0.1298097 0.137729,0.079183 0.0079,0.082764 0.225778,0.1298096 0.04875,0.01057 0.100339,0 0.150509,0 0.05017,0 0.100339,0 0.150508,0 0.05017,0 0.100339,0 0.150509,0 0.05017,0 0.101916,0.01057 0.150508,0 0.05443,-0.011832 0.100339,-0.043275 0.150509,-0.064921 0.05017,-0.021645 0.100339,-0.043275 0.150508,-0.064921 0.05017,-0.021645 0.100339,-0.043259 0.150509,-0.064921 0.05017,-0.021645 0.105703,-0.035892 0.150508,-0.064921 0.0568,-0.036728 0.100339,-0.08655 0.150509,-0.1298097 0.02508,-0.021645 0.05017,-0.043259 0.07525,-0.064921 0.02508,-0.021645 0.05948,-0.037548 0.07525,-0.064921 0.0079,-0.013252 0.01104,-0.1855641 0,-0.1947192 -0.0355,-0.030607 -0.115012,0.030607 -0.150509,0 -0.01783,-0.015303 0.01799,-0.049602 0,-0.064921 -0.01783,-0.015303 -0.05759,-0.015303 -0.07525,0 -0.0519,0.044774 0.05569,0.1213692 0.07525,0.1298097 0.02256,0.00962 0.05285,-0.00962 0.07525,0 0.03171,0.013726 0.04354,0.051227 0.07525,0.064921 0.02256,0.00962 0.05143,-0.00678 0.07525,0 0.106492,0.030606 0.19219,0.1063341 0.301048,0.1298096 0.03786,0.0082 0.513165,0.00237 0.526843,0 0.05506,-0.00947 0.09608,-0.053167 0.150509,-0.064921 0.04875,-0.01057 0.102863,0.013726 0.150508,0 0.03361,-0.00962 0.04575,-0.047945 0.07526,-0.064921 0.0467,-0.02682 0.110909,-0.030701 0.150508,-0.064921 0.01799,-0.0153029992 -0.01104,-0.045547 0,-0.064921 0.01594,-0.027357 0.05948,-0.037548 0.07525,-0.064921 0.01104,-0.019405 -0.0079,-0.04438 0,-0.064921 0.01799,-0.04591 0.06169,-0.08289 0.07525,-0.1298097 0.04197,-0.14490787 -0.02445,-0.12835824 -0.07525,-0.25963828 -0.01593,-0.0410506 0.02256,-0.0911097 0,-0.12980966 -0.01593,-0.0273566 -0.05017,-0.0432594 -0.07525,-0.0649206 -0.02508,-0.0216455 -0.05017,-0.0432594 -0.07525,-0.0649206 -0.0142,-0.0126213 -0.09513,-0.11264475 -0.150509,-0.0649206 -0.0079,0.006311 -0.0079,0.18824451 0,0.19474289 0.01799,0.0153033 0.05285,-0.009624 0.07526,0 0.249617,0.21527452 -0.071,-0.0306066 0.150508,0.0649206 0.03171,0.0137256 0.04354,0.0512265 0.07525,0.0649206 0.068,0.0293444 0.194463,-0.0559122 0.225779,-0.0649206 0.02367,-0.006784 0.05143,0.006784 0.07525,0 0.136783,-0.0392995 0.139623,-0.0555651 0.225779,-0.12980966 0.02509,-0.0216455 0.05948,-0.0375325 0.07525,-0.0649206 0.01104,-0.0194052 -0.01104,-0.045547 0,-0.0649206 0.01593,-0.0272935 0.06405,-0.0358128 0.07525,-0.0649995 0.01593,-0.0410191 0,-0.0866134 0,-0.12984126 0,-0.021614 0.01104,-0.045594 0,-0.064999 -0.01593,-0.027451 -0.05553,-0.039441 -0.07525,-0.065 -0.03108,-0.04023 -0.04417,-0.089611 -0.07525,-0.1298412 -0.02082,-0.026978 -0.274134,-0.2480235 -0.301049,-0.2596351 -0.02256,-0.00947 -0.05285,0.00947 -0.07525,0 -0.03171,-0.014199 -0.04354,-0.051274 -0.07525,-0.065 -0.02256,-0.00947 -0.05758,0.015777 -0.07525,0 -0.01798,-0.015777 0.01783,-0.049538 0,-0.064999 -0.01798,-0.015777 -0.05758,-0.015777 -0.07525,0 -0.01798,0.015777 0.01104,0.045594 0,0.064999 -0.01593,0.027294 -0.05948,0.037548 -0.07525,0.065 -0.0016,0.00316 -0.0016,0.1913225 0,0.1947303 0.01593,0.027293 0.04354,0.051274 0.07525,0.064999 0.02256,0.00947 0.05285,-0.00947 0.07525,0 0.03171,0.014199 0.03976,0.065 0.07525,0.065 0.0355,0 0.04165,-0.055218 0.07525,-0.065 0.04765,-0.014199 0.102863,0.014199 0.150509,0 0.0336,-0.00947 0.04575,-0.047961 0.07525,-0.064999 0.0467,-0.02682 0.110909,-0.030764 0.150508,-0.065 0.0396,-0.034235 0.04418,-0.089611 0.07525,-0.1298412 0.01956,-0.0254 0.06405,-0.035813 0.07525,-0.064999 0.02367,-0.061529 0,-0.1298413 0,-0.1947303 0,-0.021614 0.01104,-0.045594 0,-0.065 -0.01593,-0.027293 -0.05017,-0.043228 -0.07525,-0.064999 -0.02508,-0.021614 -0.04354,-0.051274 -0.07525,-0.064999 -0.02256,-0.00947 -0.05285,0.00947 -0.07525,0 -0.03171,-0.014199 -0.04354,-0.051274 -0.07525,-0.065 -0.0063,-0.00316 -0.294644,-0.00316 -0.301065,0 -0.03171,0.014199 -0.04354,0.051274 -0.07525,0.065 -0.02303,0.00947 -0.191906,0 -0.225778,0 -0.09497,0 -0.209292,0.011044 -0.301049,0 -0.126686,-0.015777 -0.250879,-0.043228 -0.677367,-0.2596352 z"
           id="path3728" />
      </g>
    </g>
    <rect
       style="fill:#555753;fill-opacity:0;fill-rule:evenodd;stroke:#5a5f51;stroke-width:0.52035737000000004;stroke-linecap:round;stroke-miterlimit:4;stroke-opacity:1;stroke-dasharray:none"
       id="rect3828"
       width="0.31745923"
       height="25.784281"
       x="24.034752"
       y="4.3985753"
       rx="0.97243077"
       ry="0" />
    <rect
       ry="0"
       rx="0.96562272"
       y="20.684855"
       x="-13.004074"
       height="24.433666"
       width="0.31523666"
       id="rect3841"
       style="fill:#ffffff;fill-opacity:0;fill-rule:evenodd;stroke:#5c6251;stroke-width:0.50476927000000005;stroke-linecap:round;stroke-miterlimit:4;stroke-opacity:1;stroke-dasharray:none"
       transform="matrix(-0.33410191,-0.94253696,0.92649831,-0.37629892,0,0)" />
    <rect
       transform="matrix(0.33410191,-0.94253696,-0.92649831,-0.37629892,0,0)"
       style="fill:#ffffff;fill-opacity:0;fill-rule:evenodd;stroke:#50514c;stroke-width:0.50476927000000005;stroke-linecap:round;stroke-miterlimit:4;stroke-opacity:1;stroke-dasharray:none"
       id="rect3854"
       width="0.31523666"
       height="24.433666"
       x="4.9094596"
       y="-24.417547"
       rx="0.96562272"
       ry="0" />
  </g>
</svg>
