<?xml version="1.0" encoding="UTF-8" standalone="no"?>
<!-- Created with Inkscape (http://www.inkscape.org/) -->

<svg
   xmlns:dc="http://purl.org/dc/elements/1.1/"
   xmlns:cc="http://creativecommons.org/ns#"
   xmlns:rdf="http://www.w3.org/1999/02/22-rdf-syntax-ns#"
   xmlns:svg="http://www.w3.org/2000/svg"
   xmlns="http://www.w3.org/2000/svg"
   xmlns:xlink="http://www.w3.org/1999/xlink"
   xmlns:sodipodi="http://sodipodi.sourceforge.net/DTD/sodipodi-0.dtd"
   xmlns:inkscape="http://www.inkscape.org/namespaces/inkscape"
   version="1.0"
   width="48"
   height="48"
   id="svg11300"
   inkscape:version="0.47+devel r9425"
   sodipodi:docname="plugin-crashhandler.svg">
  <metadata
     id="metadata35">
    <rdf:RDF>
      <cc:Work
         rdf:about="">
        <dc:format>image/svg+xml</dc:format>
        <dc:type
           rdf:resource="http://purl.org/dc/dcmitype/StillImage" />
      </cc:Work>
    </rdf:RDF>
  </metadata>
  <sodipodi:namedview
     pagecolor="#ffffff"
     bordercolor="#666666"
     borderopacity="1"
     objecttolerance="10"
     gridtolerance="10"
     guidetolerance="10"
     inkscape:pageopacity="0"
     inkscape:pageshadow="2"
     inkscape:window-width="1280"
     inkscape:window-height="999"
     id="namedview33"
     showgrid="false"
     inkscape:zoom="11.814576"
     inkscape:cx="24"
     inkscape:cy="24"
     inkscape:window-x="1280"
     inkscape:window-y="0"
     inkscape:window-maximized="1"
     inkscape:current-layer="svg11300"
     inkscape:snap-global="false" />
  <defs
     id="defs3">
    <linearGradient
       id="linearGradient5048">
      <stop
         style="stop-color:black;stop-opacity:0;"
         offset="0"
         id="stop5050" />
      <stop
         id="stop5056"
         offset="0.5"
         style="stop-color:black;stop-opacity:1;" />
      <stop
         style="stop-color:black;stop-opacity:0;"
         offset="1"
         id="stop5052" />
    </linearGradient>
    <linearGradient
       inkscape:collect="always"
       id="linearGradient5060">
      <stop
         style="stop-color:black;stop-opacity:1;"
         offset="0"
         id="stop5062" />
      <stop
         style="stop-color:black;stop-opacity:0;"
         offset="1"
         id="stop5064" />
    </linearGradient>
    <linearGradient
       id="linearGradient3832">
      <stop
         style="stop-color:#ffffff;stop-opacity:1;"
         offset="0"
         id="stop3834" />
      <stop
         style="stop-color:#e0e0e0;stop-opacity:1;"
         offset="1"
         id="stop3836" />
    </linearGradient>
    <linearGradient
       inkscape:collect="always"
       id="linearGradient4816">
      <stop
         style="stop-color:#204a87;stop-opacity:1;"
         offset="0"
         id="stop4818" />
      <stop
         style="stop-color:#204a87;stop-opacity:0;"
         offset="1"
         id="stop4820" />
    </linearGradient>
    <linearGradient
       inkscape:collect="always"
       xlink:href="#linearGradient4816"
       id="linearGradient3576"
       gradientUnits="userSpaceOnUse"
       x1="13.267747"
       y1="7.7190704"
       x2="13.267747"
       y2="12.480761"
       gradientTransform="matrix(2.8279306,0,0,2.4415347,-13.390866,-14.260864)" />
    <linearGradient
       inkscape:collect="always"
       xlink:href="#linearGradient3832"
       id="linearGradient3579"
       gradientUnits="userSpaceOnUse"
       gradientTransform="matrix(2.8105305,0,0,2.454756,-13.934576,-16.090439)"
       x1="17.88068"
       y1="11.072588"
       x2="17.88068"
       y2="21.767578" />
    <linearGradient
       inkscape:collect="always"
       xlink:href="#linearGradient5048"
       id="linearGradient4414"
       gradientUnits="userSpaceOnUse"
       gradientTransform="matrix(2.774389,0,0,1.969706,-1892.179,-872.8854)"
       x1="302.85715"
       y1="366.64789"
       x2="302.85715"
       y2="609.50507" />
    <radialGradient
       inkscape:collect="always"
       xlink:href="#linearGradient5060"
       id="radialGradient4416"
       gradientUnits="userSpaceOnUse"
       gradientTransform="matrix(2.774389,0,0,1.969706,-1891.633,-872.8854)"
       cx="605.71429"
       cy="486.64789"
       fx="605.71429"
       fy="486.64789"
       r="117.14286" />
    <radialGradient
       inkscape:collect="always"
       xlink:href="#linearGradient5060"
       id="radialGradient4418"
       gradientUnits="userSpaceOnUse"
       gradientTransform="matrix(-2.774389,0,0,1.969706,112.7623,-872.8854)"
       cx="605.71429"
       cy="486.64789"
       fx="605.71429"
       fy="486.64789"
       r="117.14286" />
    <linearGradient
       inkscape:collect="always"
       xlink:href="#linearGradient5048"
       id="linearGradient4428"
       gradientUnits="userSpaceOnUse"
       gradientTransform="matrix(2.774389,0,0,1.969706,-1892.179,-872.8854)"
       x1="302.85715"
       y1="366.64789"
       x2="302.85715"
       y2="609.50507" />
    <radialGradient
       inkscape:collect="always"
       xlink:href="#linearGradient5060"
       id="radialGradient4430"
       gradientUnits="userSpaceOnUse"
       gradientTransform="matrix(2.774389,0,0,1.969706,-1891.633,-872.8854)"
       cx="605.71429"
       cy="486.64789"
       fx="605.71429"
       fy="486.64789"
       r="117.14286" />
    <radialGradient
       inkscape:collect="always"
       xlink:href="#linearGradient5060"
       id="radialGradient4432"
       gradientUnits="userSpaceOnUse"
       gradientTransform="matrix(-2.774389,0,0,1.969706,112.7623,-872.8854)"
       cx="605.71429"
       cy="486.64789"
       fx="605.71429"
       fy="486.64789"
       r="117.14286" />
  </defs>
  <g
     transform="matrix(0.01027794,0,0,0.03252646,47.004677,36.437842)"
     id="g4420">
    <rect
       style="opacity:0.40206185;color:#000000;fill:url(#linearGradient4428);fill-opacity:1;fill-rule:nonzero;stroke:none;stroke-width:1;marker:none;visibility:visible;display:inline;overflow:visible"
       id="rect4422"
       width="1339.6335"
       height="478.35718"
       x="-1559.2523"
       y="-150.69685" />
    <path
       style="opacity:0.40206185;color:#000000;fill:url(#radialGradient4430);fill-opacity:1;fill-rule:nonzero;stroke:none;stroke-width:1;marker:none;visibility:visible;display:inline;overflow:visible"
       d="m -219.61876,-150.68038 c 0,0 0,478.33079 0,478.33079 142.874166,0.90045 345.40022,-107.16966 345.40014,-239.196175 0,-132.026537 -159.436816,-239.134595 -345.40014,-239.134615 z"
       id="path4424"
       sodipodi:nodetypes="cccc"
       inkscape:connector-curvature="0" />
    <path
       sodipodi:nodetypes="cccc"
       id="path4426"
       d="m -1559.2523,-150.68038 c 0,0 0,478.33079 0,478.33079 -142.8742,0.90045 -345.4002,-107.16966 -345.4002,-239.196175 0,-132.026537 159.4368,-239.134595 345.4002,-239.134615 z"
       style="opacity:0.40206185;color:#000000;fill:url(#radialGradient4432);fill-opacity:1;fill-rule:nonzero;stroke:none;stroke-width:1;marker:none;visibility:visible;display:inline;overflow:visible"
       inkscape:connector-curvature="0" />
  </g>
  <g
     id="g5022"
     transform="matrix(0.01272474,0,0,0.03252646,25.443101,36.159901)">
    <rect
       y="-150.69685"
       x="-1559.2523"
       height="478.35718"
       width="1339.6335"
       id="rect4173"
       style="opacity:0.40206185;color:#000000;fill:url(#linearGradient4414);fill-opacity:1;fill-rule:nonzero;stroke:none;stroke-width:1;marker:none;visibility:visible;display:inline;overflow:visible" />
    <path
       inkscape:connector-curvature="0"
       sodipodi:nodetypes="cccc"
       id="path5058"
       d="m -219.61876,-150.68038 c 0,0 0,478.33079 0,478.33079 142.874166,0.90045 345.40022,-107.16966 345.40014,-239.196175 0,-132.026537 -159.436816,-239.134595 -345.40014,-239.134615 z"
       style="opacity:0.40206185;color:#000000;fill:url(#radialGradient4416);fill-opacity:1;fill-rule:nonzero;stroke:none;stroke-width:1;marker:none;visibility:visible;display:inline;overflow:visible" />
    <path
       inkscape:connector-curvature="0"
       style="opacity:0.40206185;color:#000000;fill:url(#radialGradient4418);fill-opacity:1;fill-rule:nonzero;stroke:none;stroke-width:1;marker:none;visibility:visible;display:inline;overflow:visible"
       d="m -1559.2523,-150.68038 c 0,0 0,478.33079 0,478.33079 -142.8742,0.90045 -345.4002,-107.16966 -345.4002,-239.196175 0,-132.026537 159.4368,-239.134595 345.4002,-239.134615 z"
       id="path5018"
       sodipodi:nodetypes="cccc" />
  </g>
  <path
     style="color:#000000;fill:url(#linearGradient3579);fill-opacity:1;fill-rule:evenodd;stroke:#8d8d8d;stroke-width:1.55870783;stroke-linecap:butt;stroke-linejoin:miter;stroke-miterlimit:4;stroke-opacity:1;stroke-dasharray:none;stroke-dashoffset:0;marker:none;visibility:visible;display:inline;overflow:visible"
     d="m 3.2452589,3.5321134 c -0.9551896,0 -1.7228762,0.7676846 -1.7228762,1.7228762 l 0,35.5440234 c 0,0.955188 0.7676866,1.722876 1.7228762,1.722876 l 20.0070901,0 1.536617,-4.50121 -9.77848,-14.186565 12.525775,-6.39482 -8.536779,-13.9071806 -15.7542231,0 z m 15.9870501,0 13.239764,14.3262576 -11.594501,7.698619 10.259656,12.634425 -3.290539,4.330474 17.166671,0 c 0.9552,0 1.722877,-0.767688 1.722877,-1.722876 l 0,-35.5440234 c 0,-0.9551916 -0.767677,-1.7228762 -1.722877,-1.7228762 l -25.781051,0 z"
     id="rect4828"
     inkscape:connector-curvature="0" />
  <path
     style="color:#000000;fill:none;stroke:#ffffff;stroke-width:1.55870867;stroke-linecap:butt;stroke-linejoin:miter;stroke-miterlimit:4;stroke-opacity:0.54545456;stroke-dasharray:none;stroke-dashoffset:0;marker:none;visibility:visible;display:inline;overflow:visible"
     d="m 3.44704,4.8359119 c -0.226462,0 -0.4035623,0.1573843 -0.4035623,0.3569931 l 0,35.65267 c 0,0.19961 0.1771003,0.356994 0.4035623,0.356994 l 20.09839,0 1.088323,-3.011154 L 14.839749,24.00485 27.365525,17.610029 19.527214,4.8359119 z m 16.813338,-0.063915 12.040959,13.2415881 0.170736,0.170736 -11.594501,7.714139 10.259656,12.618905 -2.033305,2.685203 15.707667,0 c 0.226462,0 0.403551,-0.157384 0.403551,-0.356994 l 0,-35.6526697 c 0,-0.1996089 -0.177089,-0.3569931 -0.403551,-0.3569931 z"
     id="rect4958"
     inkscape:connector-curvature="0"
     sodipodi:nodetypes="sssscccccsccccccssssc" />
  <path
     inkscape:connector-curvature="0"
     id="path3601"
     d="M 23.141184,43.047484 24.337358,37.600486 14.554064,23.69037 27.076687,17.418747 20.888363,5.9024192 32.007462,17.820778 20.424047,25.378876 30.67693,37.761299 25.894852,42.773125"
     style="fill:none;stroke:#ada3a3;stroke-width:1.47561193;stroke-linecap:butt;stroke-linejoin:miter;stroke-miterlimit:4;stroke-opacity:1;stroke-dasharray:none"
     sodipodi:nodetypes="ccccccccc" />
  <path
     style="color:#000000;fill:url(#linearGradient3576);fill-opacity:1;fill-rule:evenodd;stroke:none;stroke-width:1;marker:none;visibility:visible;display:inline;overflow:visible"
     d="m 4.2075875,6.003678 c -0.1919394,0 -0.3414727,0.1464716 -0.3414727,0.3344765 l 0,5.4276175 c 0,0.188007 0.1495333,0.349681 0.3414727,0.349681 l 20.0536575,0 -3.818269,-6.111775 z m 17.1977165,0 5.75844,6.111775 16.887298,0 c 0.191939,0 0.341463,-0.161674 0.341463,-0.349681 l 0,-5.4276175 c 0,-0.1880049 -0.149524,-0.3344765 -0.341463,-0.3344765 z"
     id="rect4830"
     inkscape:connector-curvature="0"
     sodipodi:nodetypes="ssssccsccssssc" />
  <rect
     style="fill:#ffffff;fill-opacity:1;stroke:none"
     id="rect2984"
     width="7.3503666"
     height="1.661822"
     x="16.579237"
     y="4.329814"
     rx="0.11736464"
     ry="0.24728556" />
</svg>
