<?xml version="1.0" encoding="UTF-8" standalone="no"?>
<!-- Created with Inkscape (http://www.inkscape.org/) -->
<svg
   xmlns:dc="http://purl.org/dc/elements/1.1/"
   xmlns:cc="http://creativecommons.org/ns#"
   xmlns:rdf="http://www.w3.org/1999/02/22-rdf-syntax-ns#"
   xmlns:svg="http://www.w3.org/2000/svg"
   xmlns="http://www.w3.org/2000/svg"
   xmlns:xlink="http://www.w3.org/1999/xlink"
   xmlns:sodipodi="http://sodipodi.sourceforge.net/DTD/sodipodi-0.dtd"
   xmlns:inkscape="http://www.inkscape.org/namespaces/inkscape"
   inkscape:export-ydpi="90.000000"
   inkscape:export-xdpi="90.000000"
   inkscape:export-filename="/home/jimmac/Desktop/wi-fi.png"
   width="48px"
   height="48px"
   id="svg11300"
   sodipodi:version="0.32"
   inkscape:version="0.45+devel"
   sodipodi:docbase="/home/patrick/Projects/Beryl/svn/beryl/trunk/beryl-settings/images"
   sodipodi:docname="plugin-fisheye.svg"
   inkscape:output_extension="org.inkscape.output.svg.inkscape">
  <defs
     id="defs3">
    <linearGradient
       id="linearGradient4175">
      <stop
         style="stop-color:#ffffff;stop-opacity:1;"
         offset="0"
         id="stop4177" />
      <stop
         style="stop-color:#eeeeec;stop-opacity:1;"
         offset="1"
         id="stop4179" />
    </linearGradient>
    <linearGradient
       id="linearGradient4376">
      <stop
         style="stop-color:#babdb6;stop-opacity:1"
         offset="0"
         id="stop4378" />
      <stop
         style="stop-color:#eeeeec;stop-opacity:1"
         offset="1"
         id="stop4380" />
    </linearGradient>
    <linearGradient
       gradientUnits="userSpaceOnUse"
       y2="37.875011"
       x2="3.93751"
       y1="37.000011"
       x1="7.31251"
       id="linearGradient5540"
       xlink:href="#linearGradient5534"
       inkscape:collect="always" />
    <linearGradient
       gradientUnits="userSpaceOnUse"
       y2="39.375"
       x2="4.1875"
       y1="33.875"
       x1="3.875"
       id="linearGradient5532"
       xlink:href="#linearGradient5526"
       inkscape:collect="always" />
    <linearGradient
       id="linearGradient3678"
       inkscape:collect="always">
      <stop
         id="stop3680"
         offset="0"
         style="stop-color:white;stop-opacity:1;" />
      <stop
         id="stop3682"
         offset="1"
         style="stop-color:white;stop-opacity:0;" />
    </linearGradient>
    <linearGradient
       id="linearGradient5502"
       inkscape:collect="always">
      <stop
         id="stop5504"
         offset="0"
         style="stop-color:white;stop-opacity:1;" />
      <stop
         id="stop5506"
         offset="1"
         style="stop-color:white;stop-opacity:0;" />
    </linearGradient>
    <linearGradient
       id="linearGradient5526"
       inkscape:collect="always">
      <stop
         id="stop5528"
         offset="0"
         style="stop-color:white;stop-opacity:1;" />
      <stop
         id="stop5530"
         offset="1"
         style="stop-color:white;stop-opacity:0;" />
    </linearGradient>
    <linearGradient
       id="linearGradient5534"
       inkscape:collect="always">
      <stop
         id="stop5536"
         offset="0"
         style="stop-color:white;stop-opacity:1;" />
      <stop
         id="stop5538"
         offset="1"
         style="stop-color:white;stop-opacity:0;" />
    </linearGradient>
    <linearGradient
       id="linearGradient2853">
      <stop
         id="stop2855"
         offset="0"
         style="stop-color:#416797;stop-opacity:1;" />
      <stop
         id="stop2857"
         offset="1"
         style="stop-color:#a7bed8;stop-opacity:1;" />
    </linearGradient>
    <linearGradient
       inkscape:collect="always"
       xlink:href="#linearGradient5502"
       id="linearGradient2996"
       gradientUnits="userSpaceOnUse"
       gradientTransform="matrix(1,0,0,-1,1.1378255,46.516812)"
       x1="3.870008"
       y1="37.710594"
       x2="5.3180737"
       y2="33.51659" />
    <linearGradient
       inkscape:collect="always"
       xlink:href="#linearGradient4376"
       id="linearGradient3001"
       gradientUnits="userSpaceOnUse"
       x1="43.75"
       y1="39.187508"
       x2="42.375"
       y2="33.500008"
       gradientTransform="translate(0.1378255,-1.4832081)" />
    <linearGradient
       inkscape:collect="always"
       xlink:href="#linearGradient5502"
       id="linearGradient3004"
       gradientUnits="userSpaceOnUse"
       gradientTransform="matrix(-1,0,0,-1,47.137826,46.516812)"
       x1="5.5493865"
       y1="37.843178"
       x2="3.8596659"
       y2="33.251427" />
    <linearGradient
       inkscape:collect="always"
       xlink:href="#linearGradient4376"
       id="linearGradient3007"
       gradientUnits="userSpaceOnUse"
       x1="41.375"
       y1="14.75"
       x2="42.0625"
       y2="9.875"
       gradientTransform="translate(0.1378255,-1.4832081)" />
    <linearGradient
       inkscape:collect="always"
       xlink:href="#linearGradient4376"
       id="linearGradient3010"
       gradientUnits="userSpaceOnUse"
       x1="7.5"
       y1="15.75"
       x2="6.3125"
       y2="10"
       gradientTransform="translate(0.1378255,-1.4832081)" />
    <linearGradient
       inkscape:collect="always"
       xlink:href="#linearGradient4376"
       id="linearGradient3017"
       gradientUnits="userSpaceOnUse"
       x1="9.562501"
       y1="39.312511"
       x2="7.5000014"
       y2="34.187511"
       gradientTransform="translate(0.1378255,-1.4832081)" />
    <linearGradient
       inkscape:collect="always"
       xlink:href="#linearGradient3678"
       id="linearGradient3020"
       gradientUnits="userSpaceOnUse"
       gradientTransform="translate(1.1378255,-1.4832081)"
       x1="4.625"
       y1="-7.625"
       x2="23.875"
       y2="47.75" />
    <linearGradient
       inkscape:collect="always"
       xlink:href="#linearGradient2853"
       id="linearGradient4368"
       x1="-31.831854"
       y1="7.9310017"
       x2="-31.831854"
       y2="37.930984"
       gradientUnits="userSpaceOnUse"
       gradientTransform="translate(55.969671,-0.4142136)" />
    <linearGradient
       id="linearGradient4919">
      <stop
         id="stop4921"
         offset="0"
         style="stop-color:#729fcf;stop-opacity:1" />
      <stop
         id="stop4923"
         offset="1"
         style="stop-color:#204a87;stop-opacity:1" />
    </linearGradient>
    <linearGradient
       id="linearGradient4952"
       inkscape:collect="always">
      <stop
         id="stop4954"
         offset="0"
         style="stop-color:#ffffff;stop-opacity:1;" />
      <stop
         id="stop4956"
         offset="1"
         style="stop-color:#ffffff;stop-opacity:0;" />
    </linearGradient>
    <linearGradient
       id="linearGradient11102"
       inkscape:collect="always">
      <stop
         id="stop11104"
         offset="0"
         style="stop-color:#ffffff;stop-opacity:1;" />
      <stop
         id="stop11106"
         offset="1"
         style="stop-color:#ffffff;stop-opacity:0;" />
    </linearGradient>
    <radialGradient
       inkscape:collect="always"
       xlink:href="#linearGradient4175"
       id="radialGradient5745"
       gradientUnits="userSpaceOnUse"
       gradientTransform="matrix(-0.90051,0.598821,-0.6848243,-1.0298422,102.77216,21.495697)"
       cx="24.5378"
       cy="17.649998"
       fx="24.5378"
       fy="17.649998"
       r="9.4683435" />
    <radialGradient
       inkscape:collect="always"
       xlink:href="#linearGradient4919"
       id="radialGradient10112"
       gradientUnits="userSpaceOnUse"
       gradientTransform="matrix(1.459545,0,0,1.345339,-7.403138,-10.82184)"
       cx="17.062258"
       cy="28.851427"
       fx="17.062258"
       fy="28.851427"
       r="13.5" />
    <radialGradient
       inkscape:collect="always"
       xlink:href="#linearGradient11102"
       id="radialGradient10116"
       gradientUnits="userSpaceOnUse"
       gradientTransform="matrix(0.946826,0,0,0.946826,0.469351,0.499261)"
       cx="8.0402098"
       cy="9.5280285"
       fx="8.0402098"
       fy="9.5280285"
       r="9.8125" />
    <radialGradient
       inkscape:collect="always"
       xlink:href="#linearGradient4952"
       id="radialGradient10707"
       gradientUnits="userSpaceOnUse"
       gradientTransform="matrix(-1.7497677,0.5639063,-0.500294,-1.5514324,67.196078,49.242215)"
       cx="16.829521"
       cy="24.743624"
       fx="16.829521"
       fy="24.743624"
       r="16.924615" />
  </defs>
  <sodipodi:namedview
     stroke="#ef2929"
     fill="#eeeeec"
     id="base"
     pagecolor="#ffffff"
     bordercolor="#666666"
     borderopacity="0.25490196"
     inkscape:pageopacity="0.0"
     inkscape:pageshadow="2"
     inkscape:zoom="1.01"
     inkscape:cx="20.284599"
     inkscape:cy="25.167153"
     inkscape:current-layer="layer1"
     showgrid="false"
     inkscape:grid-bbox="true"
     inkscape:document-units="px"
     inkscape:showpageshadow="false"
     inkscape:window-width="906"
     inkscape:window-height="693"
     inkscape:window-x="114"
     inkscape:window-y="50"
     showguides="true"
     inkscape:guide-bbox="true">
    <inkscape:grid
       type="xygrid"
       id="grid3392" />
  </sodipodi:namedview>
  <metadata
     id="metadata4">
    <rdf:RDF>
      <cc:Work
         rdf:about="">
        <dc:format>image/svg+xml</dc:format>
        <dc:type
           rdf:resource="http://purl.org/dc/dcmitype/StillImage" />
        <dc:creator>
          <cc:Agent>
            <dc:title>Patrick Niklaus</dc:title>
          </cc:Agent>
        </dc:creator>
        <dc:source />
        <cc:license
           rdf:resource="http://creativecommons.org/licenses/GPL/2.0/" />
        <dc:title>Zoom</dc:title>
        <dc:subject>
          <rdf:Bag />
        </dc:subject>
      </cc:Work>
      <cc:License
         rdf:about="http://creativecommons.org/licenses/GPL/2.0/">
        <cc:permits
           rdf:resource="http://web.resource.org/cc/Reproduction" />
        <cc:permits
           rdf:resource="http://web.resource.org/cc/Distribution" />
        <cc:requires
           rdf:resource="http://web.resource.org/cc/Notice" />
        <cc:permits
           rdf:resource="http://web.resource.org/cc/DerivativeWorks" />
        <cc:requires
           rdf:resource="http://web.resource.org/cc/ShareAlike" />
        <cc:requires
           rdf:resource="http://web.resource.org/cc/SourceCode" />
      </cc:License>
    </rdf:RDF>
  </metadata>
  <g
     id="layer1"
     inkscape:label="Layer 1"
     inkscape:groupmode="layer">
    <g
       id="g3394">
      <path
         sodipodi:nodetypes="ccccccccccccccccccccccccccccccccc"
         id="rect5556"
         d="M 5.1378255,8.0167919 C 4.8532035,8.0167919 4.6378255,8.2321709 4.6378255,8.5167919 L 4.6378255,15.516792 C 4.6378255,15.801415 4.8532035,16.016794 5.1378255,16.016793 L 5.6378255,15.516792 L 5.6378255,31.516793 L 5.1378255,31.016793 C 4.8532035,31.016793 4.6378255,31.232171 4.6378255,31.516793 L 4.6378255,38.016792 C 4.6378255,38.301414 4.8532035,38.516792 5.1378255,38.516792 L 12.137826,38.516792 C 12.422448,38.516792 12.637826,38.301416 12.637826,38.016792 L 12.137826,38.016792 L 38.137826,38.016792 L 37.637826,38.016792 C 37.637826,38.301414 37.853204,38.516792 38.137826,38.516792 L 44.637826,38.516792 C 44.922448,38.516792 45.137825,38.301414 45.137826,38.016792 L 45.137826,31.516793 C 45.137826,31.232171 44.92245,31.016793 44.637826,31.016793 L 44.637826,31.516793 L 44.637826,15.516792 L 44.637826,16.016793 C 44.922448,16.016793 45.137826,15.801415 45.137826,15.516792 L 45.137826,8.5167919 C 45.137826,8.2321699 44.92245,8.0167924 44.637826,8.0167919 L 38.137826,8.0167919 C 37.853204,8.0167919 37.637828,8.2321697 37.637826,8.5167919 L 38.137826,9.0167924 L 12.137826,9.0167924 L 12.637826,8.5167919 C 12.637826,8.2321704 12.422448,8.0167919 12.137826,8.0167919 L 5.1378255,8.0167919 z"
         style="opacity:0.2;color:#000000;fill:#000000;fill-opacity:1;fill-rule:nonzero;stroke:#000000;stroke-width:0.99999964;stroke-linecap:round;stroke-linejoin:round;marker:none;marker-start:none;marker-mid:none;marker-end:none;stroke-miterlimit:4;stroke-dasharray:none;stroke-dashoffset:1.20000057;stroke-opacity:1;visibility:visible;display:inline;overflow:visible" />
      <rect
         y="8.0167885"
         x="4.637826"
         height="28.999983"
         width="38.999981"
         id="rect1879"
         style="color:#000000;fill:url(#linearGradient4368);fill-opacity:1;fill-rule:nonzero;stroke:#888a85;stroke-width:0.99999964;stroke-linecap:round;stroke-linejoin:round;marker:none;marker-start:none;marker-mid:none;marker-end:none;stroke-miterlimit:4;stroke-dasharray:none;stroke-dashoffset:1.20000057;stroke-opacity:1;visibility:visible;display:inline;overflow:visible" />
      <g
         transform="matrix(-1,0,0,-1,47.137826,46.516812)"
         style="opacity:0.1;display:inline"
         id="g5550">
        <path
           style="color:#000000;fill:#000000;fill-opacity:1;fill-rule:nonzero;stroke:#000000;stroke-width:1.00000012;stroke-linecap:round;stroke-linejoin:round;marker:none;marker-start:none;marker-mid:none;marker-end:none;stroke-miterlimit:4;stroke-dashoffset:1.20000057;stroke-opacity:1;visibility:visible;display:inline;overflow:visible"
           d="M 11.5,10.013768 L 4.013757,17.500012 C 3.729135,17.500012 3.5,17.270877 3.5,16.986255 L 3.5,10.013768 C 3.5,9.7291462 3.729135,9.5000105 4.013757,9.5000105 L 10.986243,9.5000105 C 11.270865,9.5000105 11.5,9.7291462 11.5,10.013768 z"
           id="path5552"
           sodipodi:nodetypes="ccccccc" />
        <path
           style="color:#000000;fill:#000000;fill-opacity:1;fill-rule:nonzero;stroke:#000000;stroke-width:1.00000012;stroke-linecap:round;stroke-linejoin:round;marker:none;marker-start:none;marker-mid:none;marker-end:none;stroke-miterlimit:4;stroke-dashoffset:1.20000057;stroke-opacity:1;visibility:visible;display:inline;overflow:visible"
           d="M 41.986242,17.50001 L 34.499998,10.013767 C 34.499998,9.729145 34.729133,9.50001 35.013755,9.50001 L 41.986242,9.50001 C 42.270864,9.50001 42.5,9.729145 42.5,10.013767 L 42.5,16.986253 C 42.5,17.270875 42.270864,17.50001 41.986242,17.50001 z"
           id="path5554"
           sodipodi:nodetypes="ccccccc" />
      </g>
      <rect
         y="9.0167904"
         x="5.6378069"
         height="26.999969"
         width="37.000023"
         id="rect3674"
         style="color:#000000;fill:none;fill-opacity:1;fill-rule:nonzero;stroke:url(#linearGradient3020);stroke-width:0.99999958;stroke-linecap:round;stroke-linejoin:round;marker:none;marker-start:none;marker-mid:none;marker-end:none;stroke-miterlimit:4;stroke-dasharray:none;stroke-dashoffset:1.20000057;stroke-opacity:1;visibility:visible;display:inline;overflow:visible" />
      <path
         sodipodi:nodetypes="ccccccc"
         id="rect2768"
         d="M 4.1515835,30.016803 L 11.637828,37.503045 C 11.637828,37.787667 11.408693,38.016803 11.124071,38.016803 L 4.1515835,38.016803 C 3.8669615,38.016803 3.6378255,37.787667 3.6378255,37.503045 L 3.6378255,30.53056 C 3.6378255,30.245938 3.8669615,30.016803 4.1515835,30.016803 z"
         style="color:#000000;fill:url(#linearGradient3017);fill-opacity:1;fill-rule:nonzero;stroke:#888a85;stroke-width:1.00000012;stroke-linecap:round;stroke-linejoin:round;marker:none;marker-start:none;marker-mid:none;marker-end:none;stroke-miterlimit:4;stroke-dashoffset:1.20000057;stroke-opacity:1;visibility:visible;display:inline;overflow:visible" />
      <path
         transform="translate(1.1378255,-1.4832081)"
         d="M 3.5,33.4375 L 3.5,38.5 L 8.5625,38.5 L 3.5,33.4375 z"
         id="path3688"
         style="opacity:0.6;color:#000000;fill:none;fill-opacity:1;fill-rule:nonzero;stroke:url(#linearGradient5532);stroke-width:1;stroke-linecap:round;stroke-linejoin:miter;marker:none;marker-start:none;marker-mid:none;marker-end:none;stroke-miterlimit:4;stroke-dasharray:none;stroke-dashoffset:1.20000057;stroke-opacity:1;visibility:visible;display:inline;overflow:visible"
         inkscape:original="M 3 31.5 C 2.7153785 31.5 2.5 31.715378 2.5 32 L 2.5 39 C 2.5 39.284622 2.7153785 39.499999 3 39.5 L 10 39.5 C 10.284622 39.5 10.5 39.284623 10.5 39 L 3 31.5 z "
         inkscape:radius="-0.9952234"
         sodipodi:type="inkscape:offset" />
      <g
         transform="translate(1.1378255,-1.4832081)"
         style="opacity:0.1"
         id="g5546">
        <path
           style="color:#000000;fill:#000000;fill-opacity:1;fill-rule:nonzero;stroke:#000000;stroke-width:1.00000012;stroke-linecap:round;stroke-linejoin:round;marker:none;marker-start:none;marker-mid:none;marker-end:none;stroke-miterlimit:4;stroke-dashoffset:1.20000057;stroke-opacity:1;visibility:visible;display:inline;overflow:visible"
           d="M 11.5,10.013768 L 4.013757,17.500012 C 3.729135,17.500012 3.5,17.270877 3.5,16.986255 L 3.5,10.013768 C 3.5,9.7291462 3.729135,9.5000105 4.013757,9.5000105 L 10.986243,9.5000105 C 11.270865,9.5000105 11.5,9.7291462 11.5,10.013768 z"
           id="path5542"
           sodipodi:nodetypes="ccccccc" />
        <path
           style="color:#000000;fill:#000000;fill-opacity:1;fill-rule:nonzero;stroke:#000000;stroke-width:1.00000012;stroke-linecap:round;stroke-linejoin:round;marker:none;marker-start:none;marker-mid:none;marker-end:none;stroke-miterlimit:4;stroke-dashoffset:1.20000057;stroke-opacity:1;visibility:visible;display:inline;overflow:visible"
           d="M 41.986242,17.50001 L 34.499998,10.013767 C 34.499998,9.729145 34.729133,9.50001 35.013755,9.50001 L 41.986242,9.50001 C 42.270864,9.50001 42.5,9.729145 42.5,10.013767 L 42.5,16.986253 C 42.5,17.270875 42.270864,17.50001 41.986242,17.50001 z"
           id="path5544"
           sodipodi:nodetypes="ccccccc" />
      </g>
      <path
         sodipodi:nodetypes="ccccccc"
         id="path4583"
         d="M 11.637826,7.5305596 L 4.1515825,15.016805 C 3.8669605,15.016805 3.6378255,14.787669 3.6378255,14.503047 L 3.6378255,7.5305596 C 3.6378255,7.2459381 3.8669605,7.0168024 4.1515825,7.0168024 L 11.124069,7.0168024 C 11.408691,7.0168024 11.637826,7.2459381 11.637826,7.5305596 z"
         style="color:#000000;fill:url(#linearGradient3010);fill-opacity:1;fill-rule:nonzero;stroke:#888a85;stroke-width:1.00000012;stroke-linecap:round;stroke-linejoin:round;marker:none;marker-start:none;marker-mid:none;marker-end:none;stroke-miterlimit:4;stroke-dashoffset:1.20000057;stroke-opacity:1;visibility:visible;display:inline;overflow:visible" />
      <path
         sodipodi:nodetypes="ccccccc"
         id="path4589"
         d="M 44.124068,15.016802 L 36.637824,7.5305589 C 36.637824,7.2459369 36.866959,7.0168019 37.151581,7.0168019 L 44.124068,7.0168019 C 44.40869,7.0168019 44.637826,7.2459369 44.637826,7.5305589 L 44.637826,14.503045 C 44.637826,14.787667 44.40869,15.016802 44.124068,15.016802 z"
         style="color:#000000;fill:url(#linearGradient3007);fill-opacity:1;fill-rule:nonzero;stroke:#888a85;stroke-width:1.00000012;stroke-linecap:round;stroke-linejoin:round;marker:none;marker-start:none;marker-mid:none;marker-end:none;stroke-miterlimit:4;stroke-dashoffset:1.20000057;stroke-opacity:1;visibility:visible;display:inline;overflow:visible" />
      <path
         id="path4591"
         d="M 37.356576,7.5167919 L 38.231576,8.3605419 L 38.387826,8.5167919 L 39.762826,8.5167919 L 43.137826,8.5167919 L 43.137826,11.891792 L 43.137826,13.266792 L 43.294076,13.423042 L 44.137826,14.298042 L 44.137826,13.079292 L 44.137826,8.0167919 L 44.137826,7.5167919 L 43.637826,7.5167919 L 38.575326,7.5167919 L 37.356576,7.5167919 z"
         style="opacity:0.5;color:#000000;fill:url(#linearGradient3004);fill-opacity:1;fill-rule:nonzero;stroke:none;stroke-width:1;stroke-linecap:round;stroke-linejoin:miter;marker:none;stroke-miterlimit:4;stroke-dashoffset:1.20000057;stroke-opacity:1;visibility:visible;display:inline;overflow:visible" />
      <path
         sodipodi:nodetypes="ccccccc"
         id="path4595"
         d="M 36.637825,37.503044 L 44.124068,30.016801 C 44.40869,30.016801 44.637825,30.245936 44.637825,30.530558 L 44.637825,37.503044 C 44.637825,37.787666 44.40869,38.016803 44.124068,38.016803 L 37.151582,38.016803 C 36.86696,38.016803 36.637825,37.787666 36.637825,37.503044 z"
         style="color:#000000;fill:url(#linearGradient3001);fill-opacity:1;fill-rule:nonzero;stroke:#888a85;stroke-width:1.00000012;stroke-linecap:round;stroke-linejoin:round;marker:none;marker-start:none;marker-mid:none;marker-end:none;stroke-miterlimit:4;stroke-dashoffset:1.20000057;stroke-opacity:1;visibility:visible;display:inline;overflow:visible" />
      <path
         transform="matrix(0,-1,1,0,5.1378145,40.516802)"
         d="M 3.5,33.4375 L 3.5,38.5 L 8.5625,38.5 L 3.5,33.4375 z"
         id="path4597"
         style="opacity:0.6;color:#000000;fill:none;fill-opacity:1;fill-rule:nonzero;stroke:url(#linearGradient5540);stroke-width:1;stroke-linecap:round;stroke-linejoin:miter;marker:none;marker-start:none;marker-mid:none;marker-end:none;stroke-miterlimit:4;stroke-dasharray:none;stroke-dashoffset:1.20000057;stroke-opacity:1;visibility:visible;display:inline;overflow:visible"
         inkscape:original="M 3 31.5 C 2.7153785 31.5 2.5 31.715378 2.5 32 L 2.5 39 C 2.5 39.284622 2.7153785 39.499999 3 39.5 L 10 39.5 C 10.284622 39.5 10.5 39.284623 10.5 39 L 3 31.5 z "
         inkscape:radius="-0.9952234"
         sodipodi:type="inkscape:offset" />
      <path
         id="path5522"
         d="M 10.919076,7.5167919 L 10.044076,8.3605419 L 9.8878256,8.5167919 L 8.5128255,8.5167919 L 5.1378255,8.5167919 L 5.1378255,11.891792 L 5.1378255,13.266792 L 4.9815755,13.423042 L 4.1378255,14.298042 L 4.1378255,13.079292 L 4.1378255,8.0167919 L 4.1378255,7.5167919 L 4.6378255,7.5167919 L 9.7003256,7.5167919 L 10.919076,7.5167919 z"
         style="opacity:0.5;color:#000000;fill:url(#linearGradient2996);fill-opacity:1;fill-rule:nonzero;stroke:none;stroke-width:1;stroke-linecap:round;stroke-linejoin:miter;marker:none;stroke-miterlimit:4;stroke-dashoffset:1.20000057;stroke-opacity:1;visibility:visible;display:inline;overflow:visible" />
    </g>
    <g
       id="g10713">
      <path
         sodipodi:type="arc"
         style="opacity:0.5;fill:url(#radialGradient10112);fill-opacity:1;fill-rule:nonzero;stroke:#ffffff;stroke-width:1.07028627;stroke-linecap:round;stroke-linejoin:round;marker:none;marker-start:none;marker-mid:none;marker-end:none;stroke-miterlimit:4;stroke-dasharray:none;stroke-dashoffset:0;stroke-opacity:0.3118644;visibility:visible;display:inline;overflow:visible"
         id="path1425"
         sodipodi:cx="17.5"
         sodipodi:cy="18.25"
         sodipodi:rx="13.5"
         sodipodi:ry="13.75"
         d="M 31,18.25 A 13.5,13.75 0 1 1 4,18.25 A 13.5,13.75 0 1 1 31,18.25 z"
         transform="matrix(-0.9417593,4.7184246e-2,-4.6326383e-2,-0.9246371,41.903252,38.759798)" />
      <path
         id="path4939"
         d="M 34.8125 16 C 34.793629 20.068315 30.331504 24.200789 29.71875 24.625 C 26.028713 27.179627 20.607193 27.987176 15.5625 22.25 C 14.327423 20.845384 13.356552 19.401996 12.75 19.4375 C 12.414512 20.662764 12.245404 21.973328 12.3125 23.3125 C 12.651945 30.087566 18.426188 35.276257 25.1875 34.9375 C 31.948812 34.598742 37.151946 28.837565 36.8125 22.0625 C 36.699507 19.807266 35.963134 17.760248 34.8125 16 z "
         style="opacity:0.50000000000000000;fill:url(#radialGradient10707);fill-opacity:1;fill-rule:nonzero;stroke:none;stroke-width:2;stroke-linecap:round;stroke-linejoin:round;marker:none;marker-start:none;marker-mid:none;marker-end:none;stroke-miterlimit:4;stroke-dasharray:none;stroke-dashoffset:0;stroke-opacity:1;visibility:visible;display:inline;overflow:visible" />
      <path
         sodipodi:type="arc"
         style="opacity:0.16078431;fill:url(#radialGradient10116);fill-opacity:1;fill-rule:nonzero;stroke:none;stroke-width:1;stroke-linecap:round;stroke-linejoin:miter;marker:none;marker-start:none;marker-mid:none;marker-end:none;stroke-miterlimit:4;stroke-dasharray:none;stroke-dashoffset:0;stroke-opacity:1;visibility:visible;display:inline;overflow:visible"
         id="path11092"
         sodipodi:cx="12.375"
         sodipodi:cy="12.9375"
         sodipodi:rx="9.8125"
         sodipodi:ry="9.8125"
         d="M 22.1875,12.9375 A 9.8125,9.8125 0 1 1 2.5625,12.9375 A 9.8125,9.8125 0 1 1 22.1875,12.9375 z"
         transform="matrix(-1.0527321,5.274423e-2,-5.274423e-2,-1.0527321,38.286941,35.67791)" />
    </g>
    <g
       id="g5741"
       transform="matrix(0.7642603,0,0,0.7640624,-30.166769,3.4990559)">
      <path
         sodipodi:nodetypes="cccccccsc"
         id="path3669"
         d="M 67.998554,17.622498 C 71.224523,20.525223 74.450493,23.427947 77.676464,26.330671 C 76.343865,26.80322 75.011267,27.275768 73.678668,27.748316 C 74.553781,29.279499 75.428894,30.810681 76.304007,32.341865 C 75.463435,32.641529 74.622865,32.941194 73.782294,33.240858 C 72.963437,31.647078 72.14458,30.053297 71.325724,28.459516 C 70.216667,28.814948 69.107611,29.17038 67.998554,29.525812 C 67.998554,28.841143 67.998554,28.156475 67.998554,27.471806 C 67.998554,24.188703 67.998554,20.9056 67.998554,17.622498 z"
         style="fill:url(#radialGradient5745);fill-opacity:1;stroke:#888a85;stroke-width:1.30862415;stroke-linecap:round;stroke-linejoin:round;stroke-miterlimit:4;stroke-dasharray:none;stroke-opacity:1" />
      <path
         transform="matrix(0.5395595,0,0,0.5395595,34.795555,8.6214427)"
         d="M 63.34375,20.75 C 63.34375,25.927052 63.343751,31.104292 63.34375,36.28125 C 64.61798,35.87703 65.893657,35.467137 67.15625,35.0625 C 68.001336,34.778021 68.927983,35.14868 69.34375,35.9375 C 70.621752,38.424939 71.885745,40.896678 73.15625,43.375 C 73.533327,43.242141 73.905117,43.101087 74.28125,42.96875 C 73.019553,40.760764 71.759029,38.546669 70.5,36.34375 C 70.228867,35.875665 70.180347,35.311127 70.367633,34.803643 C 70.554919,34.296158 70.958542,33.898483 71.46875,33.71875 C 72.969582,33.186546 74.469216,32.656367 75.96875,32.125 C 71.756885,28.337529 67.5569,24.537994 63.34375,20.75 z"
         id="path4947"
         style="fill:none;fill-opacity:1;stroke:#fbfbfa;stroke-width:1.21267831;stroke-linecap:round;stroke-linejoin:round;stroke-miterlimit:4;stroke-dasharray:none;stroke-opacity:1"
         inkscape:original="M 61.53125 16.6875 C 61.53125 24.041224 61.531252 31.396275 61.53125 38.75 C 63.586736 38.091255 65.663264 37.439994 67.71875 36.78125 C 69.236389 39.735106 70.732361 42.671146 72.25 45.625 C 73.807883 45.069613 75.379614 44.524136 76.9375 43.96875 C 75.315598 41.13091 73.684402 38.275337 72.0625 35.4375 C 74.53229 34.561697 76.998957 33.688302 79.46875 32.8125 C 73.489854 27.432696 67.510147 22.067306 61.53125 16.6875 z "
         inkscape:radius="-1.8171661"
         sodipodi:type="inkscape:offset" />
    </g>
    <g
       id="layer6"
       inkscape:label="Shadow"
       transform="translate(-42.70823,29.563374)" />
    <g
       style="display:inline"
       inkscape:label="Base"
       id="g6461"
       transform="translate(-42.70823,29.563374)" />
    <g
       id="g2637"
       inkscape:label="base"
       style="display:inline"
       transform="translate(-54.97336,77.063364)" />
  </g>
</svg>
