<?xml version="1.0" encoding="UTF-8" standalone="no"?>
<!-- Created with Inkscape (http://www.inkscape.org/) -->

<svg
   xmlns:dc="http://purl.org/dc/elements/1.1/"
   xmlns:cc="http://creativecommons.org/ns#"
   xmlns:rdf="http://www.w3.org/1999/02/22-rdf-syntax-ns#"
   xmlns:svg="http://www.w3.org/2000/svg"
   xmlns="http://www.w3.org/2000/svg"
   xmlns:xlink="http://www.w3.org/1999/xlink"
   xmlns:sodipodi="http://sodipodi.sourceforge.net/DTD/sodipodi-0.dtd"
   xmlns:inkscape="http://www.inkscape.org/namespaces/inkscape"
   width="48"
   height="48"
   id="svg1306"
   sodipodi:version="0.32"
   inkscape:version="0.47+devel r9459"
   sodipodi:docname="plugin-kdecompat.svg"
   inkscape:output_extension="org.inkscape.output.svg.inkscape"
   version="1.0">
  <defs
     id="defs1308">
    <filter
       color-interpolation-filters="sRGB"
       inkscape:collect="always"
       id="filter2904">
      <feGaussianBlur
         inkscape:collect="always"
         stdDeviation="2.32"
         id="feGaussianBlur2906" />
    </filter>
    <linearGradient
       inkscape:collect="always"
       xlink:href="#XMLID_25_-6"
       id="linearGradient2802-2"
       x1="67.629204"
       y1="-2.1941743"
       x2="67.629204"
       y2="78.850853"
       gradientUnits="userSpaceOnUse"
       gradientTransform="matrix(0.36217764,0,0,0.36217764,1.3363583,-14.988397)" />
    <radialGradient
       cx="66.136703"
       cy="0.75440001"
       r="81.971497"
       id="XMLID_25_-6"
       gradientUnits="userSpaceOnUse"
       gradientTransform="matrix(0.9459,0,0,1,1051.13,-330.171)">
      <stop
         style="stop-color: rgb(255, 255, 255); stop-opacity: 1;"
         offset="0.1302"
         id="stop95-4" />
      <stop
         style="stop-color: rgb(255, 255, 255); stop-opacity: 0.168627;"
         offset="0.5"
         id="stop97-5" />
    </radialGradient>
    <radialGradient
       inkscape:collect="always"
       xlink:href="#XMLID_27_-0"
       id="radialGradient2247-2"
       gradientUnits="userSpaceOnUse"
       gradientTransform="matrix(0.14982166,-0.20236458,-0.1807241,-0.13380001,30.184822,44.798801)"
       cx="110.74259"
       cy="123.17536"
       fx="110.74259"
       fy="123.17536"
       r="81.292717" />
    <radialGradient
       cx="76.764198"
       cy="58.0625"
       r="66.164497"
       id="XMLID_27_-0"
       gradientUnits="userSpaceOnUse"
       gradientTransform="matrix(0.9397,0,0,0.9397,4.2153,4.1331)">
      <stop
         style="stop-color: rgb(255, 255, 255); stop-opacity: 1;"
         offset="0"
         id="stop107-2" />
      <stop
         style="stop-color: rgb(253, 253, 252); stop-opacity: 1;"
         offset="0.32780001"
         id="stop109-9" />
      <stop
         style="stop-color: rgb(244, 245, 244); stop-opacity: 1;"
         offset="0.6773591"
         id="stop111-0" />
      <stop
         style="stop-color: rgb(202, 207, 208); stop-opacity: 1;"
         offset="1"
         id="stop113-9" />
    </radialGradient>
    <clipPath
       id="clipPath4458-9">
      <use
         id="use4460-4"
         x="0"
         y="0"
         width="1"
         height="1"
         xlink:href="#XMLID_10_" />
    </clipPath>
    <linearGradient
       inkscape:collect="always"
       xlink:href="#XMLID_23_-1"
       id="linearGradient2241-5"
       gradientUnits="userSpaceOnUse"
       x1="108.00493"
       y1="72.341148"
       x2="115.9771"
       y2="102.0937" />
    <linearGradient
       x1="115.9771"
       y1="72.399902"
       x2="115.9771"
       y2="120.3999"
       id="XMLID_23_-1"
       gradientUnits="userSpaceOnUse">
      <stop
         style="stop-color: rgb(0, 49, 110); stop-opacity: 0;"
         offset="0"
         id="stop79-0" />
      <stop
         style="stop-color: rgb(0, 49, 110); stop-opacity: 1;"
         offset="1"
         id="stop81-3" />
    </linearGradient>
    <filter
       color-interpolation-filters="sRGB"
       x="-0.29221493"
       width="1.5844299"
       y="-0.057434313"
       height="1.1148686"
       id="filter4442-7">
      <feGaussianBlur
         inkscape:collect="always"
         stdDeviation="2.4087233"
         id="feGaussianBlur4444-8" />
    </filter>
    <linearGradient
       inkscape:collect="always"
       xlink:href="#XMLID_23_-1"
       id="linearGradient2243-8"
       gradientUnits="userSpaceOnUse"
       x1="108.00493"
       y1="72.341148"
       x2="115.9771"
       y2="102.0937" />
    <filter
       color-interpolation-filters="sRGB"
       x="-0.29221493"
       width="1.5844299"
       y="-0.057434313"
       height="1.1148686"
       id="filter4446-6">
      <feGaussianBlur
         inkscape:collect="always"
         stdDeviation="2.4087233"
         id="feGaussianBlur4448-0" />
    </filter>
    <radialGradient
       inkscape:collect="always"
       xlink:href="#XMLID_20_-6"
       id="radialGradient2237-4"
       gradientUnits="userSpaceOnUse"
       gradientTransform="matrix(0.35582359,0,0,0.35582359,-0.24959946,-16.87172)"
       cx="69.600098"
       cy="68.399902"
       r="85" />
    <radialGradient
       cx="69.600098"
       cy="68.399902"
       r="85"
       id="XMLID_20_-6"
       gradientUnits="userSpaceOnUse"
       gradientTransform="translate(1047.34,-330.171)">
      <stop
         style="stop-color: rgb(97, 147, 255); stop-opacity: 1;"
         offset="0.5"
         id="stop47-7" />
      <stop
         style="stop-color: rgb(0, 54, 133); stop-opacity: 1;"
         offset="0.78109998"
         id="stop49-6" />
      <stop
         style="stop-color: rgb(112, 157, 255); stop-opacity: 1;"
         offset="1"
         id="stop51-0" />
    </radialGradient>
    <linearGradient
       inkscape:collect="always"
       xlink:href="#XMLID_18_-7"
       id="linearGradient2235-9"
       gradientUnits="userSpaceOnUse"
       gradientTransform="matrix(-0.36217764,-1.5831291e-8,1.5831291e-8,-0.36217764,49.723655,32.239567)"
       x1="9.5995998"
       y1="68.399902"
       x2="129.6001"
       y2="68.399902" />
    <linearGradient
       x1="9.5995998"
       y1="68.399902"
       x2="129.6001"
       y2="68.399902"
       id="XMLID_18_-7"
       gradientUnits="userSpaceOnUse"
       gradientTransform="matrix(-1,-4.37114e-8,4.37114e-8,-1,1186.54,-193.371)">
      <stop
         style="stop-color: rgb(0, 54, 133); stop-opacity: 1;"
         offset="0"
         id="stop13-5" />
      <stop
         style="stop-color: rgb(8, 60, 143); stop-opacity: 1;"
         offset="0.0105"
         id="stop15-9" />
      <stop
         style="stop-color: rgb(36, 81, 177); stop-opacity: 1;"
         offset="0.0533"
         id="stop17-7" />
      <stop
         style="stop-color: rgb(59, 99, 205); stop-opacity: 1;"
         offset="0.099"
         id="stop19-8" />
      <stop
         style="stop-color: rgb(77, 113, 227); stop-opacity: 1;"
         offset="0.1477"
         id="stop21-5" />
      <stop
         style="stop-color: rgb(89, 123, 243); stop-opacity: 1;"
         offset="0.20100001"
         id="stop23-3" />
      <stop
         style="stop-color: rgb(97, 128, 252); stop-opacity: 1;"
         offset="0.2622"
         id="stop25-3" />
      <stop
         style="stop-color: rgb(99, 130, 255); stop-opacity: 1;"
         offset="0.34909999"
         id="stop27-8" />
      <stop
         style="stop-color: rgb(99, 130, 255); stop-opacity: 1;"
         offset="0.58579999"
         id="stop31-3" />
      <stop
         style="stop-color: rgb(0, 54, 133); stop-opacity: 1;"
         offset="1"
         id="stop33-7" />
    </linearGradient>
  </defs>
  <sodipodi:namedview
     id="base"
     pagecolor="#ffffff"
     bordercolor="#666666"
     borderopacity="1.0"
     inkscape:pageopacity="0.0"
     inkscape:pageshadow="2"
     inkscape:zoom="11.387365"
     inkscape:cx="24"
     inkscape:cy="24"
     inkscape:current-layer="layer1"
     showgrid="false"
     inkscape:grid-bbox="true"
     inkscape:document-units="px"
     fill="#3465a4"
     stroke="#888a85"
     inkscape:window-width="1280"
     inkscape:window-height="975"
     inkscape:window-x="0"
     inkscape:window-y="24"
     showguides="true"
     inkscape:guide-bbox="true"
     inkscape:showpageshadow="false"
     showborder="true"
     inkscape:window-maximized="1"
     inkscape:snap-global="false">
    <inkscape:grid
       type="xygrid"
       id="grid7864"
       visible="true"
       enabled="true"
       empspacing="5"
       snapvisiblegridlinesonly="true" />
  </sodipodi:namedview>
  <metadata
     id="metadata1311">
    <rdf:RDF>
      <cc:Work
         rdf:about="">
        <dc:format>image/svg+xml</dc:format>
        <dc:type
           rdf:resource="http://purl.org/dc/dcmitype/StillImage" />
        <dc:title />
        <dc:date>March 2006</dc:date>
        <dc:creator>
          <cc:Agent>
            <dc:title>Andreas Nilsson</dc:title>
          </cc:Agent>
        </dc:creator>
        <dc:source>http://tango-project.org</dc:source>
        <dc:subject>
          <rdf:Bag>
            <rdf:li>konversation</rdf:li>
            <rdf:li>chat</rdf:li>
            <rdf:li>irc</rdf:li>
          </rdf:Bag>
        </dc:subject>
        <cc:license
           rdf:resource="http://creativecommons.org/licenses/GPL/2.0/" />
      </cc:Work>
      <cc:License
         rdf:about="http://creativecommons.org/licenses/GPL/2.0/">
        <cc:permits
           rdf:resource="http://web.resource.org/cc/Reproduction" />
        <cc:permits
           rdf:resource="http://web.resource.org/cc/Distribution" />
        <cc:requires
           rdf:resource="http://web.resource.org/cc/Notice" />
        <cc:permits
           rdf:resource="http://web.resource.org/cc/DerivativeWorks" />
        <cc:requires
           rdf:resource="http://web.resource.org/cc/ShareAlike" />
        <cc:requires
           rdf:resource="http://web.resource.org/cc/SourceCode" />
      </cc:License>
    </rdf:RDF>
  </metadata>
  <g
     id="layer1"
     inkscape:label="Layer 1"
     inkscape:groupmode="layer"
     transform="translate(0,16)">
    <g
       transform="matrix(0.38090946,0,0,0.36842158,-1.386218,-16.813018)"
       style="opacity:0.8;filter:url(#filter2904)"
       id="g8">
      <path
         inkscape:connector-curvature="0"
         d="m 126,113.8 c 0,8.8 -7.2,16 -16,16 l -84,0 c -8.8,0 -16,-7.2 -16,-16 l 0,-83.999998 c 0,-8.8 7.2,-16 16,-16 l 84,0 c 8.8,0 16,7.2 16,16 L 126,113.8 z"
         id="path10" />
    </g>
    <path
       inkscape:connector-curvature="0"
       id="path35"
       style="fill:url(#linearGradient2235-9)"
       d="m 2.7850695,-8.4691996 c 0,-3.1871634 2.6076794,-5.7948424 5.7948428,-5.7948424 l 31.8716327,0 c 3.187163,0 5.794842,2.607679 5.794842,5.7948424 l 0,31.8716326 c 0,3.187163 -2.607679,5.794842 -5.794842,5.794842 l -31.8716327,0 c -3.1871634,0 -5.7948428,-2.607679 -5.7948428,-5.794842 l 0,-31.8716326 z" />
    <path
       inkscape:connector-curvature="0"
       id="path53"
       style="fill:url(#radialGradient2237-4)"
       d="m 8.8594881,-12.815331 c -2.550545,0 -4.6257084,2.075163 -4.6257084,4.6257072 l 0,31.3124808 c 0,2.550545 2.0751634,4.625708 4.6257084,4.625708 l 31.3124809,0 c 2.550545,0 4.625707,-2.075163 4.625707,-4.625708 l 0,-31.3124808 c 0,-2.5505442 -2.075162,-4.6257072 -4.625707,-4.6257072 l -31.3124809,0 0,0 z" />
    <g
       id="g66"
       style="opacity:0.6"
       transform="matrix(0.36217764,0,0,0.36217764,-0.69183288,-17.306334)">
      <defs
         id="defs68">
        <path
           inkscape:connector-curvature="0"
           id="XMLID_10_"
           d="m 69.626,12.145 -0.052,0 c -22.727,-0.292 -46.472,4.077 -46.709,4.122 -2.424,0.451 -4.946,2.974 -5.397,5.397 -0.044,0.237 -4.414,23.983 -4.122,46.71 -0.292,22.777 4.078,46.523 4.122,46.761 0.451,2.423 2.974,4.945 5.398,5.398 0.237,0.044 23.982,4.413 46.709,4.121 22.779,0.292 46.524,-4.077 46.761,-4.121 2.423,-0.452 4.946,-2.976 5.398,-5.399 0.044,-0.236 4.413,-23.981 4.121,-46.709 0.292,-22.777 -4.077,-46.523 -4.121,-46.761 -0.453,-2.423 -2.976,-4.946 -5.398,-5.397 -0.238,-0.045 -23.984,-4.414 -46.71,-4.122 z" />
      </defs>
      <g
         id="g4450"
         clip-path="url(#clipPath4458-9)">
        <path
           inkscape:connector-curvature="0"
           id="path83"
           style="opacity:0.8;fill:url(#linearGradient2241-5);filter:url(#filter4442-7)"
           d="m 119.344,21.665 c -0.377,-1.278 -1.675,-2.576 -3.367,-3.591 -1.693,1.015 -2.989,2.312 -3.365,3.591 -0.07,0.237 -6.965,23.983 -6.504,46.71 -0.461,22.777 6.434,46.523 6.504,46.761 0.376,1.278 1.674,2.576 3.365,3.591 1.694,-1.016 2.991,-2.312 3.367,-3.592 0.069,-0.236 6.963,-23.981 6.503,-46.709 0.46,-22.778 -6.433,-46.524 -6.503,-46.761 z" />
        <path
           inkscape:connector-curvature="0"
           id="path4438"
           style="opacity:0.8;fill:url(#linearGradient2243-8);filter:url(#filter4446-6)"
           transform="matrix(-1,0,0,1,139.2,0)"
           d="m 119.344,21.665 c -0.377,-1.278 -1.675,-2.576 -3.367,-3.591 -1.693,1.015 -2.989,2.312 -3.365,3.591 -0.07,0.237 -6.965,23.983 -6.504,46.71 -0.461,22.777 6.434,46.523 6.504,46.761 0.376,1.278 1.674,2.576 3.365,3.591 1.694,-1.016 2.991,-2.312 3.367,-3.592 0.069,-0.236 6.963,-23.981 6.503,-46.709 0.46,-22.778 -6.433,-46.524 -6.503,-46.761 z" />
      </g>
    </g>
    <path
       inkscape:connector-curvature="0"
       d="m 27.017018,-7.9222394 -5.296848,0.5093124 0,21.821203 5.240257,-0.792263 0,-9.3034391 7.051146,10.3220631 5.52321,-1.754297 -7.220917,-9.9259323 7.277507,-9.3600282 -5.63639,-1.2902578 -6.994556,9.3600282 0.05659,-9.5863893 z m -12.008452,5.3194841 c -0.05989,0.00618 -0.12468,0.022727 -0.169771,0.067908 l -2.082522,2.08252134 c -0.08746,0.0877365 -0.09815,0.22201606 -0.03396,0.32822349 L 15.155699,3.893806 C 14.723623,4.6201485 14.37276,5.3992922 14.125757,6.2253245 L 9.6551269,7.1534048 C 9.5307184,7.1791189 9.4400828,7.2975521 9.4400828,7.4250379 l 0,2.9426941 c 0,0.124407 0.094615,0.230978 0.2150441,0.260315 l 4.3348131,1.052578 c 0.231792,0.956326 0.5899,1.871467 1.063897,2.705015 l -2.512608,3.825501 c -0.07008,0.106842 -0.05641,0.24936 0.03396,0.339542 l 2.082522,2.082521 c 0.08773,0.08746 0.222287,0.09842 0.328224,0.03393 l 3.938681,-2.388109 c 0.772522,0.446018 1.608889,0.80331 2.489972,1.04126 l 0.916762,4.414041 c 0.02571,0.12477 0.13292,0.215043 0.260315,0.215043 l 2.942693,0 c 0.123503,0 0.23098,-0.08293 0.260316,-0.203725 l 1.086532,-4.436677 c 0.908698,-0.245011 1.765439,-0.608734 2.55788,-1.075214 l 3.882091,2.546562 c 0.10702,0.06972 0.248816,0.05623 0.339542,-0.03393 l 2.071204,-2.082522 c 0.088,-0.08783 0.109733,-0.222287 0.04527,-0.328223 l -1.414757,-2.331519 -0.46404,0.147134 c -0.067,0.02065 -0.14125,-0.0096 -0.181089,-0.06791 0,0 -0.893678,-1.314625 -2.059886,-3.021919 -1.394737,2.729173 -4.239127,4.595128 -7.515186,4.595128 -4.655223,-1e-6 -8.431948,-3.776724 -8.431948,-8.4319483 0,-3.424279 2.047678,-6.3653701 4.979942,-7.6849567 l 0,-2.17306576 c -0.533665,0.18679159 -1.04923,0.41215852 -1.539254,0.67908306 -9.05e-4,-5.4334e-4 9.05e-4,-0.01076951 0,-0.0113145 L 15.178334,-2.5688 c -0.05342,-0.03495 -0.109875,-0.040134 -0.169771,-0.033954 z"
       style="fill:url(#radialGradient2247-2);fill-opacity:1"
       id="path5692_1_" />
    <path
       inkscape:connector-curvature="0"
       id="path99"
       style="opacity:0.7;fill:url(#linearGradient2802-2);fill-opacity:1"
       d="M 44.073321,0.73511145 C 43.640073,-4.1479203 42.960216,-7.5221106 42.949412,-7.5786255 42.787735,-8.4512302 41.514443,-9.7148184 40.649811,-9.8772543 40.564876,-9.8932474 32.461326,-11.466781 24.348464,-11.361571 l -0.01862,0 c -8.11249,-0.105211 -16.2164106,1.4683219 -16.3013463,1.4843167 -0.8650048,0.1627912 -2.137925,1.4260241 -2.2988561,2.2986288 -0.00782,0.042297 -0.3956219,1.8127432 -0.7715002,4.9413243 0,2.09531736 0,4.1902797 0,6.2855972 0,1.3065967 0.8679844,2.8179266 1.9296824,3.3645928 -7.606e-4,-0.036966 1.6786016,4.7998602 15.9392522,4.7998602 14.261026,0 19.426092,-7.4880512 19.424603,-7.4048782 1.002092,-0.6728474 1.821649,-2.2837006 1.821649,-3.59065298 0,-0.0273704 0,-0.0547373 0,-0.0821065 z" />
  </g>
</svg>
