<?xml version="1.0" encoding="UTF-8" standalone="no"?>
<!-- Created with Inkscape (http://www.inkscape.org/) -->

<svg
   xmlns:dc="http://purl.org/dc/elements/1.1/"
   xmlns:cc="http://creativecommons.org/ns#"
   xmlns:rdf="http://www.w3.org/1999/02/22-rdf-syntax-ns#"
   xmlns:svg="http://www.w3.org/2000/svg"
   xmlns="http://www.w3.org/2000/svg"
   xmlns:xlink="http://www.w3.org/1999/xlink"
   xmlns:sodipodi="http://sodipodi.sourceforge.net/DTD/sodipodi-0.dtd"
   xmlns:inkscape="http://www.inkscape.org/namespaces/inkscape"
   version="1.0"
   width="48"
   height="48"
   id="svg7631"
   inkscape:version="0.47+devel r9474"
   sodipodi:docname="plugin-colorfilter.svg">
  <metadata
     id="metadata80">
    <rdf:RDF>
      <cc:Work
         rdf:about="">
        <dc:format>image/svg+xml</dc:format>
        <dc:type
           rdf:resource="http://purl.org/dc/dcmitype/StillImage" />
        <dc:title />
      </cc:Work>
    </rdf:RDF>
  </metadata>
  <sodipodi:namedview
     pagecolor="#ffffff"
     bordercolor="#666666"
     borderopacity="1"
     objecttolerance="10"
     gridtolerance="10"
     guidetolerance="10"
     inkscape:pageopacity="0"
     inkscape:pageshadow="2"
     inkscape:window-width="1280"
     inkscape:window-height="975"
     id="namedview78"
     showgrid="false"
     inkscape:zoom="11.461022"
     inkscape:cx="24.523515"
     inkscape:cy="24"
     inkscape:window-x="0"
     inkscape:window-y="24"
     inkscape:window-maximized="1"
     inkscape:current-layer="svg7631"
     inkscape:snap-global="false" />
  <defs
     id="defs3">
    <linearGradient
       x1="32.084972"
       y1="-14.402173"
       x2="32.084972"
       y2="-5.5633383"
       id="linearGradient8245"
       xlink:href="#linearGradient47870"
       gradientUnits="userSpaceOnUse"
       gradientTransform="matrix(0.9788196,0,0,0.7154223,-8.5008021,52.112719)" />
    <linearGradient
       id="linearGradient47870">
      <stop
         id="stop47872"
         style="stop-color:#000000;stop-opacity:0"
         offset="0" />
      <stop
         id="stop47878"
         style="stop-color:#000000;stop-opacity:1"
         offset="0.5" />
      <stop
         id="stop47874"
         style="stop-color:#000000;stop-opacity:0"
         offset="1" />
    </linearGradient>
    <radialGradient
       cx="51.4375"
       cy="-12.203125"
       r="2.171875"
       fx="51.4375"
       fy="-12.203125"
       id="radialGradient8247"
       xlink:href="#linearGradient51765"
       gradientUnits="userSpaceOnUse"
       gradientTransform="matrix(1.9576392,-8.146468e-7,6.6614241e-7,1.4565793,-59.017557,62.738067)" />
    <linearGradient
       id="linearGradient51765">
      <stop
         id="stop51767"
         style="stop-color:#000000;stop-opacity:1"
         offset="0" />
      <stop
         id="stop51769"
         style="stop-color:#000000;stop-opacity:0"
         offset="1" />
    </linearGradient>
    <radialGradient
       cx="51.4375"
       cy="-12.203125"
       r="2.171875"
       fx="51.4375"
       fy="-12.203125"
       id="radialGradient8249"
       xlink:href="#linearGradient51765"
       gradientUnits="userSpaceOnUse"
       gradientTransform="matrix(-1.9576392,-9.2540676e-8,-1.2888861e-7,1.4565793,110.01781,62.73803)" />
    <radialGradient
       inkscape:collect="always"
       xlink:href="#linearGradient14450"
       id="radialGradient7997"
       gradientUnits="userSpaceOnUse"
       gradientTransform="matrix(0.83201418,0,0,0.13506521,12.080299,45.552479)"
       cx="14.375"
       cy="-12.875001"
       fx="14.375"
       fy="-12.875001"
       r="18.875" />
    <linearGradient
       id="linearGradient14450">
      <stop
         id="stop14452"
         style="stop-color:#000000;stop-opacity:1"
         offset="0" />
      <stop
         id="stop14454"
         style="stop-color:#000000;stop-opacity:0"
         offset="1" />
    </linearGradient>
    <radialGradient
       inkscape:collect="always"
       xlink:href="#linearGradient6431"
       id="radialGradient7994"
       gradientUnits="userSpaceOnUse"
       gradientTransform="matrix(0.82382622,-0.24872487,0.13657761,0.47280777,2.2245037,52.229351)"
       cx="25.000727"
       cy="-46.586014"
       fx="25.000727"
       fy="-46.586014"
       r="36.000511" />
    <linearGradient
       id="linearGradient6431">
      <stop
         id="stop6433"
         style="stop-color:#eeeeed;stop-opacity:1"
         offset="0" />
      <stop
         id="stop6435"
         style="stop-color:#9b9f95;stop-opacity:1"
         offset="1" />
    </linearGradient>
    <radialGradient
       inkscape:collect="always"
       xlink:href="#linearGradient1442"
       id="radialGradient1469"
       gradientUnits="userSpaceOnUse"
       gradientTransform="matrix(0,-0.843022,1.020168,0,0.606436,42.58614)"
       cx="35.292667"
       cy="20.494493"
       fx="35.292667"
       fy="20.494493"
       r="16.9562" />
    <linearGradient
       id="linearGradient1442">
      <stop
         id="stop1444"
         offset="0"
         style="stop-color:#73d216" />
      <stop
         id="stop1446"
         offset="1.0000000"
         style="stop-color:#4e9a06" />
    </linearGradient>
    <radialGradient
       inkscape:collect="always"
       xlink:href="#linearGradient8650"
       id="radialGradient1471"
       gradientUnits="userSpaceOnUse"
       gradientTransform="matrix(0,-2.046729,-1.55761,0,44.11559,66.93275)"
       cx="15.987216"
       cy="1.5350308"
       fx="15.987216"
       fy="1.5350308"
       r="17.171415" />
    <linearGradient
       id="linearGradient8650"
       inkscape:collect="always">
      <stop
         id="stop8652"
         offset="0"
         style="stop-color:#ffffff;stop-opacity:1;" />
      <stop
         id="stop8654"
         offset="1"
         style="stop-color:#ffffff;stop-opacity:0;" />
    </linearGradient>
    <radialGradient
       inkscape:collect="always"
       xlink:href="#linearGradient2591"
       id="radialGradient3200"
       gradientUnits="userSpaceOnUse"
       gradientTransform="matrix(0.843022,0,0,1.02017,4.4993,1.38199)"
       cx="22.291636"
       cy="32.797512"
       fx="22.291636"
       fy="32.797512"
       r="16.9562" />
    <linearGradient
       id="linearGradient2591">
      <stop
         style="stop-color: rgb(115, 210, 22);"
         offset="0"
         id="stop2593" />
      <stop
         style="stop-color: rgb(78, 154, 6);"
         offset="1.0000000"
         id="stop2595" />
    </linearGradient>
    <linearGradient
       inkscape:collect="always"
       xlink:href="#linearGradient3687"
       id="linearGradient3202"
       gradientUnits="userSpaceOnUse"
       x1="39.08004"
       y1="26.590775"
       x2="8.015358"
       y2="26.590775" />
    <linearGradient
       id="linearGradient3687">
      <stop
         style="stop-color: rgb(58, 115, 4); stop-opacity: 1;"
         offset="0"
         id="stop3689" />
      <stop
         id="stop3695"
         offset="0.76175678"
         style="stop-color: rgb(58, 115, 4); stop-opacity: 0.498039;" />
      <stop
         style="stop-color: rgb(58, 115, 4); stop-opacity: 0;"
         offset="1"
         id="stop3691" />
    </linearGradient>
    <radialGradient
       inkscape:collect="always"
       xlink:href="#linearGradient8650-7"
       id="radialGradient3204"
       gradientUnits="userSpaceOnUse"
       gradientTransform="matrix(2.04673,0,0,1.55761,-18.3534,5.39221)"
       cx="19.701141"
       cy="2.8969381"
       fx="19.701141"
       fy="2.8969381"
       r="17.171415" />
    <linearGradient
       id="linearGradient8650-7"
       inkscape:collect="always">
      <stop
         id="stop8652-5"
         offset="0"
         style="stop-color: rgb(255, 255, 255); stop-opacity: 1;" />
      <stop
         id="stop8654-8"
         offset="1"
         style="stop-color: rgb(255, 255, 255); stop-opacity: 0;" />
    </linearGradient>
    <linearGradient
       inkscape:collect="always"
       xlink:href="#linearGradient47870"
       id="linearGradient3414"
       gradientUnits="userSpaceOnUse"
       gradientTransform="matrix(0.9788196,0,0,0.7154223,-8.5008021,52.112719)"
       x1="32.084972"
       y1="-14.402173"
       x2="32.084972"
       y2="-5.5633383" />
    <radialGradient
       inkscape:collect="always"
       xlink:href="#linearGradient51765"
       id="radialGradient3416"
       gradientUnits="userSpaceOnUse"
       gradientTransform="matrix(1.9576392,-8.146468e-7,6.6614241e-7,1.4565793,-59.017557,62.738067)"
       cx="51.4375"
       cy="-12.203125"
       fx="51.4375"
       fy="-12.203125"
       r="2.171875" />
    <radialGradient
       inkscape:collect="always"
       xlink:href="#linearGradient51765"
       id="radialGradient3418"
       gradientUnits="userSpaceOnUse"
       gradientTransform="matrix(-1.9576392,-9.2540676e-8,-1.2888861e-7,1.4565793,110.01781,62.73803)"
       cx="51.4375"
       cy="-12.203125"
       fx="51.4375"
       fy="-12.203125"
       r="2.171875" />
    <radialGradient
       inkscape:collect="always"
       xlink:href="#linearGradient14450"
       id="radialGradient3420"
       gradientUnits="userSpaceOnUse"
       gradientTransform="matrix(0.83201418,0,0,0.13506521,12.080299,45.552479)"
       cx="14.375"
       cy="-12.875001"
       fx="14.375"
       fy="-12.875001"
       r="18.875" />
    <radialGradient
       inkscape:collect="always"
       xlink:href="#linearGradient6431"
       id="radialGradient3422"
       gradientUnits="userSpaceOnUse"
       gradientTransform="matrix(0.82382622,-0.24872487,0.13657761,0.47280777,2.2245037,52.229351)"
       cx="25.000727"
       cy="-46.586014"
       fx="25.000727"
       fy="-46.586014"
       r="36.000511" />
    <radialGradient
       inkscape:collect="always"
       xlink:href="#linearGradient1442"
       id="radialGradient3424"
       gradientUnits="userSpaceOnUse"
       gradientTransform="matrix(0,-0.843022,1.020168,0,0.606436,42.58614)"
       cx="35.292667"
       cy="20.494493"
       fx="35.292667"
       fy="20.494493"
       r="16.9562" />
    <radialGradient
       inkscape:collect="always"
       xlink:href="#linearGradient8650"
       id="radialGradient3426"
       gradientUnits="userSpaceOnUse"
       gradientTransform="matrix(0,-2.046729,-1.55761,0,44.11559,66.93275)"
       cx="15.987216"
       cy="1.5350308"
       fx="15.987216"
       fy="1.5350308"
       r="17.171415" />
    <radialGradient
       inkscape:collect="always"
       xlink:href="#linearGradient6431"
       id="radialGradient3461"
       gradientUnits="userSpaceOnUse"
       gradientTransform="matrix(0.82382622,-0.24872487,0.13657761,0.47280777,2.2590285,51.37624)"
       cx="25.000727"
       cy="-46.586014"
       fx="25.000727"
       fy="-46.586014"
       r="36.000511" />
    <radialGradient
       inkscape:collect="always"
       xlink:href="#linearGradient14450"
       id="radialGradient3464"
       gradientUnits="userSpaceOnUse"
       gradientTransform="matrix(0.83201418,0,0,0.13506521,12.114824,44.699368)"
       cx="14.375"
       cy="-12.875001"
       fx="14.375"
       fy="-12.875001"
       r="18.875" />
  </defs>
  <g
     id="g2958"
     transform="matrix(0.72291728,0,0,0.72291728,6.9858165,0.05392122)">
    <path
       d="M 23.239103,47.473688 C 12.967381,46.717913 4.6700202,40.385554 1.4762588,30.864778 L 25.006135,23.506 23.239103,47.473688 z"
       id="path3761"
       style="fill:#fcaf3e;fill-opacity:1;stroke:none"
       inkscape:connector-curvature="0" />
    <path
       d="m 43.730308,11.433766 c 5.214382,8.436747 4.955799,18.485451 -0.678227,26.356387 L 24.004864,23.600837 43.730308,11.433766 z"
       id="path3805"
       style="fill:#8ae234;fill-opacity:1;stroke:none"
       inkscape:connector-curvature="0" />
    <path
       d="M 19.360418,1.2064812 C 29.441164,-0.50040872 38.943627,3.6362515 44.284045,12.056368 L 23.351174,24.728558 19.360418,1.2064812 z"
       id="path3759"
       style="fill:#729fcf;fill-opacity:1;stroke:none"
       inkscape:connector-curvature="0" />
    <path
       d="M 45.285763,33.899975 C 41.030765,42.857953 32.446785,48.102548 22.771145,47.655827 l 1.570511,-23.684309 20.944107,9.928457 z"
       id="path3763"
       style="fill:#fce94f;fill-opacity:1;stroke:none"
       inkscape:connector-curvature="0" />
    <path
       d="M 3.4574942,11.984074 C 9.1654408,3.4014229 18.774086,-0.71965877 28.659662,1.17505 L 23.524061,25.302808 3.4574942,11.984074 z"
       id="path3765"
       style="fill:#75507b;fill-opacity:1;stroke:none"
       inkscape:connector-curvature="0" />
    <path
       d="M 5.0809207,37.788236 C -0.71718674,29.467774 -1.0708215,19.218584 4.1533834,10.906011 L 24.314244,24.361224 5.0809207,37.788236 z"
       id="path3767"
       style="fill:#ef2929;fill-opacity:1;stroke:none"
       inkscape:connector-curvature="0" />
    <path
       inkscape:connector-curvature="0"
       style="opacity:0.7032001;fill:#2e3436;fill-opacity:0;stroke:#2e3436;stroke-width:1.12170041;stroke-miterlimit:4;stroke-opacity:1;stroke-dasharray:none"
       id="path4788"
       d="M 43.79182,12.868719 A 23.281263,22.699184 38.609729 1 1 4.1031163,35.233542 23.281263,22.699184 38.609729 0 1 43.79182,12.868719 z" />
  </g>
  <g
     id="g2358"
     transform="matrix(0.4870903,0,0,0.9086538,18.936331,-11.424746)">
    <rect
       style="opacity:0.3;fill:url(#linearGradient3414);fill-opacity:1;fill-rule:evenodd;stroke:none"
       id="rect2360"
       y="41.809082"
       x="9.3215466"
       height="6.3234997"
       width="32.357079" />
    <path
       style="opacity:0.3;fill:url(#radialGradient3416);fill-opacity:1;fill-rule:evenodd;stroke:none"
       id="path2362"
       d="m 41.6785,41.799698 0,6.327016 c 2.343798,-0.02389 4.251748,-1.421401 4.251748,-3.152329 0,-1.730927 -1.907949,-3.150801 -4.251748,-3.174687 z"
       inkscape:connector-curvature="0" />
    <path
       style="opacity:0.3;fill:url(#radialGradient3418);fill-opacity:1;fill-rule:evenodd;stroke:none"
       id="path2364"
       d="m 9.3217476,41.799698 0,6.327016 C 6.9779494,48.102828 5.07,46.705313 5.07,44.974385 c 0,-1.730927 1.9079484,-3.150801 4.2517476,-3.174687 z"
       inkscape:connector-curvature="0" />
  </g>
  <path
     style="fill:none;stroke:#888a85;stroke-width:1.52007067;stroke-linecap:round;stroke-linejoin:round;stroke-miterlimit:4;stroke-opacity:1;stroke-dasharray:none"
     id="path6442"
     d="m 41.413701,23.642181 c 4.475812,-1.073538 1.851755,-1.694579 4.605641,-3.591293"
     inkscape:connector-curvature="0" />
  <path
     style="fill:none;stroke:#888a85;stroke-width:1.52007067;stroke-linecap:round;stroke-linejoin:round;stroke-miterlimit:4;stroke-opacity:1;stroke-dasharray:none"
     id="path9351"
     d="M 7.1739734,23.630611 C 2.7944676,22.557089 5.3620458,21.936047 2.6674157,20.039318"
     inkscape:connector-curvature="0" />
  <path
     style="opacity:0.33658537;fill:url(#radialGradient3464);fill-opacity:1;fill-rule:evenodd;stroke:none"
     id="path13479"
     d="m 39.779301,42.960408 c 0,1.407967 -7.031037,2.549356 -15.704275,2.549356 -8.673216,0 -15.7042522,-1.141389 -15.7042522,-2.549356 0,-1.40797 7.0310362,-2.549359 15.7042522,-2.549359 8.673238,0 15.704275,1.141389 15.704275,2.549359 z"
     inkscape:connector-curvature="0" />
  <path
     style="fill:url(#radialGradient3461);fill-opacity:1;fill-rule:evenodd;stroke:#888a85;stroke-width:1.52007067;stroke-linecap:round;stroke-linejoin:round;stroke-miterlimit:4;stroke-opacity:1;stroke-dasharray:none;stroke-dashoffset:0"
     id="path2233"
     d="m 6.3572917,22.341454 c -0.00115,0.07684 -0.016134,0.153357 -0.016134,0.230358 0,8.96584 8.0752363,16.24045 18.0262083,16.24045 9.950972,0 18.026197,-7.27461 18.026197,-16.24045 0,-0.07683 0.0011,-0.153716 0,-0.230358 l -36.0363063,0 z"
     inkscape:connector-curvature="0" />
  <path
     style="fill:none;stroke:#ffffff;stroke-width:1.49486518;stroke-linecap:round;stroke-linejoin:miter;stroke-miterlimit:4;stroke-opacity:0.53846154;stroke-dasharray:none;stroke-dashoffset:0"
     id="path11487"
     d="m 7.8418805,23.814823 c 0.4488707,7.445098 7.5672585,13.491438 16.5040515,13.491438 8.936803,0 16.055168,-6.04634 16.504062,-13.491438 l -33.0081135,0 z"
     inkscape:connector-curvature="0" />
  <g
     id="g11551"
     transform="matrix(1.0126501,0,0,0.98241864,-0.37786629,-5.2262143)">
    <path
       style="fill:#ffffff;fill-opacity:1;fill-rule:evenodd;stroke:none"
       id="path4178"
       transform="matrix(0.7197945,-0.210001,0.254312,0.5928197,24.202003,68.704237)"
       d="m 4.0658642,-60.098949 c 0,1.220388 -0.4748738,2.209709 -1.0606602,2.209709 -0.5857865,0 -1.0606603,-0.989321 -1.0606603,-2.209709 0,-1.220388 0.4748738,-2.209709 1.0606603,-2.209709 0.5857864,0 1.0606602,0.989321 1.0606602,2.209709 z"
       inkscape:connector-curvature="0" />
    <path
       style="fill:#ffffff;fill-opacity:1;fill-rule:evenodd;stroke:none"
       id="path11493"
       transform="matrix(0.7472018,-0.06240204,0.1311195,0.6315991,20.693374,70.591275)"
       d="m 4.0658642,-60.098949 c 0,1.220388 -0.4748738,2.209709 -1.0606602,2.209709 -0.5857865,0 -1.0606603,-0.989321 -1.0606603,-2.209709 0,-1.220388 0.4748738,-2.209709 1.0606603,-2.209709 0.5857864,0 1.0606602,0.989321 1.0606602,2.209709 z"
       inkscape:connector-curvature="0" />
    <path
       style="fill:#ffffff;fill-opacity:1;fill-rule:evenodd;stroke:none"
       id="path11495"
       transform="matrix(0.7406843,-0.1165819,0.1767094,0.6203898,27.695505,70.124625)"
       d="m 4.0658642,-60.098949 c 0,1.220388 -0.4748738,2.209709 -1.0606602,2.209709 -0.5857865,0 -1.0606603,-0.989321 -1.0606603,-2.209709 0,-1.220388 0.4748738,-2.209709 1.0606603,-2.209709 0.5857864,0 1.0606602,0.989321 1.0606602,2.209709 z"
       inkscape:connector-curvature="0" />
    <path
       style="fill:#ffffff;fill-opacity:1;fill-rule:evenodd;stroke:none"
       id="path11497"
       transform="matrix(0.7442456,0.09112124,-2.9495402e-4,0.6450656,21.908386,70.907901)"
       d="m 4.0658642,-60.098949 c 0,1.220388 -0.4748738,2.209709 -1.0606602,2.209709 -0.5857865,0 -1.0606603,-0.989321 -1.0606603,-2.209709 0,-1.220388 0.4748738,-2.209709 1.0606603,-2.209709 0.5857864,0 1.0606602,0.989321 1.0606602,2.209709 z"
       inkscape:connector-curvature="0" />
    <path
       style="fill:#ffffff;fill-opacity:1;fill-rule:evenodd;stroke:none"
       id="path11501"
       transform="matrix(-0.7472018,-0.06240204,-0.1311195,0.6315991,32.334915,70.528461)"
       d="m 4.0658642,-60.098949 c 0,1.220388 -0.4748738,2.209709 -1.0606602,2.209709 -0.5857865,0 -1.0606603,-0.989321 -1.0606603,-2.209709 0,-1.220388 0.4748738,-2.209709 1.0606603,-2.209709 0.5857864,0 1.0606602,0.989321 1.0606602,2.209709 z"
       inkscape:connector-curvature="0" />
    <path
       style="fill:#ffffff;fill-opacity:1;fill-rule:evenodd;stroke:none"
       id="path11503"
       transform="matrix(-0.7406843,-0.1165819,-0.1767094,0.6203898,25.553754,69.996895)"
       d="m 4.0658642,-60.098949 c 0,1.220388 -0.4748738,2.209709 -1.0606602,2.209709 -0.5857865,0 -1.0606603,-0.989321 -1.0606603,-2.209709 0,-1.220388 0.4748738,-2.209709 1.0606603,-2.209709 0.5857864,0 1.0606602,0.989321 1.0606602,2.209709 z"
       inkscape:connector-curvature="0" />
    <path
       style="fill:#ffffff;fill-opacity:1;fill-rule:evenodd;stroke:none"
       id="path11505"
       transform="matrix(-0.7442456,0.09112124,2.9495402e-4,0.6450656,31.208291,70.907901)"
       d="m 4.0658642,-60.098949 c 0,1.220388 -0.4748738,2.209709 -1.0606602,2.209709 -0.5857865,0 -1.0606603,-0.989321 -1.0606603,-2.209709 0,-1.220388 0.4748738,-2.209709 1.0606603,-2.209709 0.5857864,0 1.0606602,0.989321 1.0606602,2.209709 z"
       inkscape:connector-curvature="0" />
    <path
       style="fill:#ffffff;fill-opacity:1;fill-rule:evenodd;stroke:none"
       id="path11509"
       transform="matrix(0.6424977,-0.1874496,0.2270021,0.5291584,24.193809,68.321811)"
       d="m 4.0658642,-60.098949 c 0,1.220388 -0.4748738,2.209709 -1.0606602,2.209709 -0.5857865,0 -1.0606603,-0.989321 -1.0606603,-2.209709 0,-1.220388 0.4748738,-2.209709 1.0606603,-2.209709 0.5857864,0 1.0606602,0.989321 1.0606602,2.209709 z"
       inkscape:connector-curvature="0" />
    <path
       style="fill:#ffffff;fill-opacity:1;fill-rule:evenodd;stroke:none"
       id="path11511"
       transform="matrix(0.6669618,-0.05570085,0.1170389,0.5637734,21.061962,70.006205)"
       d="m 4.0658642,-60.098949 c 0,1.220388 -0.4748738,2.209709 -1.0606602,2.209709 -0.5857865,0 -1.0606603,-0.989321 -1.0606603,-2.209709 0,-1.220388 0.4748738,-2.209709 1.0606603,-2.209709 0.5857864,0 1.0606602,0.989321 1.0606602,2.209709 z"
       inkscape:connector-curvature="0" />
    <path
       style="fill:#ffffff;fill-opacity:1;fill-rule:evenodd;stroke:none"
       id="path11513"
       transform="matrix(0.6611442,-0.1040625,0.157733,0.5537678,27.312153,69.589667)"
       d="m 4.0658642,-60.098949 c 0,1.220388 -0.4748738,2.209709 -1.0606602,2.209709 -0.5857865,0 -1.0606603,-0.989321 -1.0606603,-2.209709 0,-1.220388 0.4748738,-2.209709 1.0606603,-2.209709 0.5857864,0 1.0606602,0.989321 1.0606602,2.209709 z"
       inkscape:connector-curvature="0" />
    <path
       style="fill:#ffffff;fill-opacity:1;fill-rule:evenodd;stroke:none"
       id="path11515"
       transform="matrix(0.6643231,0.08133597,-2.632797e-4,0.5757937,22.146497,70.288829)"
       d="m 4.0658642,-60.098949 c 0,1.220388 -0.4748738,2.209709 -1.0606602,2.209709 -0.5857865,0 -1.0606603,-0.989321 -1.0606603,-2.209709 0,-1.220388 0.4748738,-2.209709 1.0606603,-2.209709 0.5857864,0 1.0606602,0.989321 1.0606602,2.209709 z"
       inkscape:connector-curvature="0" />
    <path
       style="fill:#ffffff;fill-opacity:1;fill-rule:evenodd;stroke:none"
       id="path11517"
       transform="matrix(-0.6669618,-0.05570085,-0.1170389,0.5637734,31.453349,69.950136)"
       d="m 4.0658642,-60.098949 c 0,1.220388 -0.4748738,2.209709 -1.0606602,2.209709 -0.5857865,0 -1.0606603,-0.989321 -1.0606603,-2.209709 0,-1.220388 0.4748738,-2.209709 1.0606603,-2.209709 0.5857864,0 1.0606602,0.989321 1.0606602,2.209709 z"
       inkscape:connector-curvature="0" />
    <path
       style="fill:#ffffff;fill-opacity:1;fill-rule:evenodd;stroke:none"
       id="path11519"
       transform="matrix(-0.6611442,-0.1040625,-0.157733,0.5537678,25.400399,69.475654)"
       d="m 4.0658642,-60.098949 c 0,1.220388 -0.4748738,2.209709 -1.0606602,2.209709 -0.5857865,0 -1.0606603,-0.989321 -1.0606603,-2.209709 0,-1.220388 0.4748738,-2.209709 1.0606603,-2.209709 0.5857864,0 1.0606602,0.989321 1.0606602,2.209709 z"
       inkscape:connector-curvature="0" />
    <path
       style="fill:#ffffff;fill-opacity:1;fill-rule:evenodd;stroke:none"
       id="path11521"
       transform="matrix(-0.6643231,0.08133597,2.632797e-4,0.5757937,30.44771,70.288829)"
       d="m 4.0658642,-60.098949 c 0,1.220388 -0.4748738,2.209709 -1.0606602,2.209709 -0.5857865,0 -1.0606603,-0.989321 -1.0606603,-2.209709 0,-1.220388 0.4748738,-2.209709 1.0606603,-2.209709 0.5857864,0 1.0606602,0.989321 1.0606602,2.209709 z"
       inkscape:connector-curvature="0" />
    <path
       style="fill:#ffffff;fill-opacity:1;fill-rule:evenodd;stroke:none"
       id="path11523"
       transform="matrix(0.5431162,-0.1584549,0.1918894,0.4473082,24.372679,66.428538)"
       d="m 4.0658642,-60.098949 c 0,1.220388 -0.4748738,2.209709 -1.0606602,2.209709 -0.5857865,0 -1.0606603,-0.989321 -1.0606603,-2.209709 0,-1.220388 0.4748738,-2.209709 1.0606603,-2.209709 0.5857864,0 1.0606602,0.989321 1.0606602,2.209709 z"
       inkscape:connector-curvature="0" />
    <path
       style="fill:#ffffff;fill-opacity:1;fill-rule:evenodd;stroke:none"
       id="path11525"
       transform="matrix(0.5637962,-0.04708505,0.09893533,0.4765689,21.725266,67.85239)"
       d="m 4.0658642,-60.098949 c 0,1.220388 -0.4748738,2.209709 -1.0606602,2.209709 -0.5857865,0 -1.0606603,-0.989321 -1.0606603,-2.209709 0,-1.220388 0.4748738,-2.209709 1.0606603,-2.209709 0.5857864,0 1.0606602,0.989321 1.0606602,2.209709 z"
       inkscape:connector-curvature="0" />
    <path
       style="fill:#ffffff;fill-opacity:1;fill-rule:evenodd;stroke:none"
       id="path11527"
       transform="matrix(0.5588784,-0.08796611,0.1333349,0.468111,27.008677,67.500282)"
       d="m 4.0658642,-60.098949 c 0,1.220388 -0.4748738,2.209709 -1.0606602,2.209709 -0.5857865,0 -1.0606603,-0.989321 -1.0606603,-2.209709 0,-1.220388 0.4748738,-2.209709 1.0606603,-2.209709 0.5857864,0 1.0606602,0.989321 1.0606602,2.209709 z"
       inkscape:connector-curvature="0" />
    <path
       style="fill:#ffffff;fill-opacity:1;fill-rule:evenodd;stroke:none"
       id="path11529"
       transform="matrix(0.5615656,0.06875492,-2.225556e-4,0.4867299,22.642045,68.091298)"
       d="m 4.0658642,-60.098949 c 0,1.220388 -0.4748738,2.209709 -1.0606602,2.209709 -0.5857865,0 -1.0606603,-0.989321 -1.0606603,-2.209709 0,-1.220388 0.4748738,-2.209709 1.0606603,-2.209709 0.5857864,0 1.0606602,0.989321 1.0606602,2.209709 z"
       inkscape:connector-curvature="0" />
    <path
       style="fill:#ffffff;fill-opacity:1;fill-rule:evenodd;stroke:none"
       id="path11531"
       transform="matrix(-0.5637962,-0.04708505,-0.09893533,0.4765689,30.509313,67.804994)"
       d="m 4.0658642,-60.098949 c 0,1.220388 -0.4748738,2.209709 -1.0606602,2.209709 -0.5857865,0 -1.0606603,-0.989321 -1.0606603,-2.209709 0,-1.220388 0.4748738,-2.209709 1.0606603,-2.209709 0.5857864,0 1.0606602,0.989321 1.0606602,2.209709 z"
       inkscape:connector-curvature="0" />
    <path
       style="fill:#ffffff;fill-opacity:1;fill-rule:evenodd;stroke:none"
       id="path11533"
       transform="matrix(-0.5588784,-0.08796611,-0.1333349,0.468111,25.392633,67.403905)"
       d="m 4.0658642,-60.098949 c 0,1.220388 -0.4748738,2.209709 -1.0606602,2.209709 -0.5857865,0 -1.0606603,-0.989321 -1.0606603,-2.209709 0,-1.220388 0.4748738,-2.209709 1.0606603,-2.209709 0.5857864,0 1.0606602,0.989321 1.0606602,2.209709 z"
       inkscape:connector-curvature="0" />
    <path
       style="fill:#ffffff;fill-opacity:1;fill-rule:evenodd;stroke:none"
       id="path11535"
       transform="matrix(-0.5615656,0.06875492,2.225556e-4,0.4867299,29.659226,68.091298)"
       d="m 4.0658642,-60.098949 c 0,1.220388 -0.4748738,2.209709 -1.0606602,2.209709 -0.5857865,0 -1.0606603,-0.989321 -1.0606603,-2.209709 0,-1.220388 0.4748738,-2.209709 1.0606603,-2.209709 0.5857864,0 1.0606602,0.989321 1.0606602,2.209709 z"
       inkscape:connector-curvature="0" />
    <path
       style="fill:#ffffff;fill-opacity:1;fill-rule:evenodd;stroke:none"
       id="path11539"
       transform="matrix(0.4017856,-0.204272,0.2162954,0.3218416,30.719462,61.586064)"
       d="m 4.0658642,-60.098949 c 0,1.220388 -0.4748738,2.209709 -1.0606602,2.209709 -0.5857865,0 -1.0606603,-0.989321 -1.0606603,-2.209709 0,-1.220388 0.4748738,-2.209709 1.0606603,-2.209709 0.5857864,0 1.0606602,0.989321 1.0606602,2.209709 z"
       inkscape:connector-curvature="0" />
    <path
       style="fill:#ffffff;fill-opacity:1;fill-rule:evenodd;stroke:none"
       id="path11541"
       transform="matrix(0.4452496,-0.07008122,0.1062258,0.3729367,26.612554,64.36851)"
       d="m 4.0658642,-60.098949 c 0,1.220388 -0.4748738,2.209709 -1.0606602,2.209709 -0.5857865,0 -1.0606603,-0.989321 -1.0606603,-2.209709 0,-1.220388 0.4748738,-2.209709 1.0606603,-2.209709 0.5857864,0 1.0606602,0.989321 1.0606602,2.209709 z"
       inkscape:connector-curvature="0" />
    <path
       style="fill:#ffffff;fill-opacity:1;fill-rule:evenodd;stroke:none"
       id="path11543"
       transform="matrix(0.4473905,0.05477597,-1.7730655e-4,0.3877701,23.133727,64.839364)"
       d="m 4.0658642,-60.098949 c 0,1.220388 -0.4748738,2.209709 -1.0606602,2.209709 -0.5857865,0 -1.0606603,-0.989321 -1.0606603,-2.209709 0,-1.220388 0.4748738,-2.209709 1.0606603,-2.209709 0.5857864,0 1.0606602,0.989321 1.0606602,2.209709 z"
       inkscape:connector-curvature="0" />
    <path
       style="fill:#ffffff;fill-opacity:1;fill-rule:evenodd;stroke:none"
       id="path11547"
       transform="matrix(-0.4001215,-0.2075123,-0.2188893,0.3200831,18.285918,61.484096)"
       d="m 4.0658642,-60.098949 c 0,1.220388 -0.4748738,2.209709 -1.0606602,2.209709 -0.5857865,0 -1.0606603,-0.989321 -1.0606603,-2.209709 0,-1.220388 0.4748738,-2.209709 1.0606603,-2.209709 0.5857864,0 1.0606602,0.989321 1.0606602,2.209709 z"
       inkscape:connector-curvature="0" />
    <path
       style="fill:#ffffff;fill-opacity:1;fill-rule:evenodd;stroke:none"
       id="path11549"
       transform="matrix(-0.4473905,0.05477597,1.7730655e-4,0.3877701,28.724205,64.839364)"
       d="m 4.0658642,-60.098949 c 0,1.220388 -0.4748738,2.209709 -1.0606602,2.209709 -0.5857865,0 -1.0606603,-0.989321 -1.0606603,-2.209709 0,-1.220388 0.4748738,-2.209709 1.0606603,-2.209709 0.5857864,0 1.0606602,0.989321 1.0606602,2.209709 z"
       inkscape:connector-curvature="0" />
  </g>
  <g
     transform="matrix(0,0.56580869,-0.56580869,0,38.128806,23.060213)"
     id="g3180">
    <path
       inkscape:connector-curvature="0"
       style="color:#000000;fill:url(#radialGradient3200);fill-opacity:1;fill-rule:evenodd;stroke:url(#linearGradient3202);stroke-width:3.88309002;stroke-linecap:round;stroke-linejoin:round;stroke-miterlimit:10;stroke-opacity:1;stroke-dasharray:none;stroke-dashoffset:0;marker:none;visibility:visible;display:inline;overflow:visible"
       d="m 9.9569002,16.883062 0,15.628706 11.6492558,0 0,7.766882 19.891679,-16.128285 -19.891679,-15.0839538 0,7.8166508 -11.6492558,0 z"
       id="path3182"
       sodipodi:nodetypes="cccccccc" />
    <path
       inkscape:connector-curvature="0"
       style="opacity:0.50802098;color:#000000;fill:url(#radialGradient3204);fill-opacity:1;fill-rule:evenodd;stroke:none;stroke-width:1;marker:none;visibility:visible;display:inline;overflow:visible"
       d="m 23.126988,10.188623 0,7.806475 -11.228545,0.829506 0,9.040713 c 17.749999,2 15.044912,-8.284794 29.794912,-1.784794 l -18.566367,-15.8919 z"
       id="path3184"
       sodipodi:nodetypes="cccccc" />
    <path
       inkscape:connector-curvature="0"
       sodipodi:nodetypes="ccccccccc"
       id="path3186"
       d="m 13.455225,20.766147 0,7.76617 12.034016,0 0,5.044128 11.257064,-8.933436 -11.257064,-9.697607 0,5.820745 -12.034016,0 0,0 z"
       style="opacity:0.3;color:#000000;fill:none;stroke:#ffffff;stroke-width:3.11356997;stroke-linecap:butt;stroke-linejoin:round;stroke-miterlimit:10;stroke-opacity:1;stroke-dasharray:none;stroke-dashoffset:0;marker:none;visibility:visible;display:inline;overflow:visible" />
  </g>
</svg>
