<?xml version="1.0" encoding="UTF-8" standalone="no"?>
<!-- Created with Inkscape (http://www.inkscape.org/) -->
<svg
   xmlns:dc="http://purl.org/dc/elements/1.1/"
   xmlns:cc="http://creativecommons.org/ns#"
   xmlns:rdf="http://www.w3.org/1999/02/22-rdf-syntax-ns#"
   xmlns:svg="http://www.w3.org/2000/svg"
   xmlns="http://www.w3.org/2000/svg"
   xmlns:xlink="http://www.w3.org/1999/xlink"
   xmlns:sodipodi="http://sodipodi.sourceforge.net/DTD/sodipodi-0.dtd"
   xmlns:inkscape="http://www.inkscape.org/namespaces/inkscape"
   width="64px"
   height="64px"
   id="svg1381"
   sodipodi:version="0.32"
   inkscape:version="0.45+devel"
   sodipodi:docbase="/home/patrick/Projects/Beryl/svn/beryl/trunk/beryl-settings/images"
   sodipodi:docname="plugin-thumbnail.svg"
   inkscape:output_extension="org.inkscape.output.svg.inkscape">
  <defs
     id="defs1383">
    <linearGradient
       inkscape:collect="always"
       id="linearGradient3429">
      <stop
         style="stop-color:#000000;stop-opacity:1;"
         offset="0"
         id="stop3431" />
      <stop
         style="stop-color:#000000;stop-opacity:0;"
         offset="1"
         id="stop3433" />
    </linearGradient>
    <linearGradient
       id="linearGradient6732">
      <stop
         id="stop6734"
         offset="0"
         style="stop-color:#ffffff;stop-opacity:1;" />
      <stop
         id="stop6736"
         offset="1"
         style="stop-color:#dddddd;stop-opacity:1;" />
    </linearGradient>
    <linearGradient
       inkscape:collect="always"
       xlink:href="#linearGradient6732"
       id="linearGradient1756"
       gradientUnits="userSpaceOnUse"
       gradientTransform="matrix(90.89845,0,0,40.1329,-3052.485,-568.8747)"
       x1="23.050457"
       y1="10.763837"
       x2="22.963257"
       y2="36.625" />
    <linearGradient
       inkscape:collect="always"
       xlink:href="#linearGradient6732"
       id="linearGradient2871"
       gradientUnits="userSpaceOnUse"
       gradientTransform="matrix(1.107828,0,0,1.481798,-11.71993,-26.31118)"
       x1="16.25"
       y1="12.25"
       x2="31.5"
       y2="36.625" />
    <radialGradient
       gradientTransform="matrix(-1.9576392,-9.2540676e-8,-1.2888861e-7,1.4565793,110.01781,62.73803)"
       gradientUnits="userSpaceOnUse"
       xlink:href="#linearGradient51765"
       id="radialGradient54733"
       fy="-12.203125"
       fx="51.4375"
       r="2.171875"
       cy="-12.203125"
       cx="51.4375" />
    <radialGradient
       gradientTransform="matrix(1.9576392,-8.146468e-7,6.6614241e-7,1.4565793,-59.017557,62.738067)"
       gradientUnits="userSpaceOnUse"
       xlink:href="#linearGradient51765"
       id="radialGradient54731"
       fy="-12.203125"
       fx="51.4375"
       r="2.171875"
       cy="-12.203125"
       cx="51.4375" />
    <linearGradient
       gradientTransform="matrix(0.9788196,0,0,0.7154223,-8.5008021,52.112719)"
       gradientUnits="userSpaceOnUse"
       xlink:href="#linearGradient47870"
       id="linearGradient54729"
       y2="-5.5633383"
       x2="32.084972"
       y1="-14.402173"
       x1="32.084972" />
    <linearGradient
       id="linearGradient47870">
      <stop
         id="stop47872"
         offset="0"
         style="stop-color:#000000;stop-opacity:0" />
      <stop
         id="stop47878"
         offset="0.5"
         style="stop-color:#000000;stop-opacity:1" />
      <stop
         id="stop47874"
         offset="1"
         style="stop-color:#000000;stop-opacity:0" />
    </linearGradient>
    <linearGradient
       id="linearGradient51765">
      <stop
         id="stop51767"
         offset="0"
         style="stop-color:#000000;stop-opacity:1" />
      <stop
         id="stop51769"
         offset="1"
         style="stop-color:#000000;stop-opacity:0" />
    </linearGradient>
    <linearGradient
       id="linearGradient8440">
      <stop
         style="stop-color:#edeeec;stop-opacity:1;"
         offset="0"
         id="stop8442" />
      <stop
         style="stop-color:#babdb6;stop-opacity:1;"
         offset="1"
         id="stop8444" />
    </linearGradient>
    <radialGradient
       inkscape:collect="always"
       xlink:href="#linearGradient8440"
       id="radialGradient2452"
       gradientUnits="userSpaceOnUse"
       gradientTransform="matrix(0.5127519,0.3745031,-0.5029349,0.6514359,-11.643961,-16.193599)"
       cx="56.704376"
       cy="10.241054"
       fx="56.704376"
       fy="10.241054"
       r="14.75" />
    <radialGradient
       inkscape:collect="always"
       xlink:href="#linearGradient8440"
       id="radialGradient2454"
       gradientUnits="userSpaceOnUse"
       gradientTransform="matrix(0.2395866,0.4251895,-0.5706382,0.3059781,19.109791,-0.3381743)"
       cx="56.704376"
       cy="10.241054"
       fx="56.704376"
       fy="10.241054"
       r="14.75" />
    <radialGradient
       inkscape:collect="always"
       xlink:href="#linearGradient3429"
       id="radialGradient3435"
       cx="-2.7641447"
       cy="21.702158"
       fx="-2.7641447"
       fy="21.702158"
       r="8.1638689"
       gradientTransform="matrix(1,0,0,0.2834646,0,15.550365)"
       gradientUnits="userSpaceOnUse" />
    <radialGradient
       inkscape:collect="always"
       xlink:href="#linearGradient3429"
       id="radialGradient4408"
       gradientUnits="userSpaceOnUse"
       gradientTransform="matrix(1,0,0,0.2834646,0,15.550365)"
       cx="-2.7641447"
       cy="21.702158"
       fx="-2.7641447"
       fy="21.702158"
       r="8.1638689" />
    <radialGradient
       inkscape:collect="always"
       xlink:href="#linearGradient8440"
       id="radialGradient4435"
       gradientUnits="userSpaceOnUse"
       gradientTransform="matrix(0.5127519,0.3745031,-0.5029349,0.6514359,-11.643961,-16.193599)"
       cx="56.704376"
       cy="10.241054"
       fx="56.704376"
       fy="10.241054"
       r="14.75" />
    <radialGradient
       inkscape:collect="always"
       xlink:href="#linearGradient8440"
       id="radialGradient4437"
       gradientUnits="userSpaceOnUse"
       gradientTransform="matrix(0.2395866,0.4251895,-0.5706382,0.3059781,19.109791,-0.3381743)"
       cx="56.704376"
       cy="10.241054"
       fx="56.704376"
       fy="10.241054"
       r="14.75" />
    <radialGradient
       inkscape:collect="always"
       xlink:href="#linearGradient3429"
       id="radialGradient4439"
       gradientUnits="userSpaceOnUse"
       gradientTransform="matrix(1,0,0,0.2834646,0,15.550365)"
       cx="-2.7641447"
       cy="21.702158"
       fx="-2.7641447"
       fy="21.702158"
       r="8.1638689" />
    <radialGradient
       inkscape:collect="always"
       xlink:href="#linearGradient3429"
       id="radialGradient4441"
       gradientUnits="userSpaceOnUse"
       gradientTransform="matrix(1,0,0,0.2834646,0,15.550365)"
       cx="-2.7641447"
       cy="21.702158"
       fx="-2.7641447"
       fy="21.702158"
       r="8.1638689" />
    <linearGradient
       id="linearGradient2781">
      <stop
         id="stop2783"
         offset="0"
         style="stop-color:#d3d7cf;stop-opacity:1" />
      <stop
         id="stop2785"
         offset="1"
         style="stop-color:#eeeeec;stop-opacity:1" />
    </linearGradient>
    <linearGradient
       id="linearGradient3674">
      <stop
         id="stop3676"
         offset="0"
         style="stop-color:#3465a4;stop-opacity:1" />
      <stop
         id="stop3678"
         offset="1"
         style="stop-color:#729fcf;stop-opacity:1;" />
    </linearGradient>
    <linearGradient
       id="linearGradient3690">
      <stop
         id="stop3692"
         offset="0"
         style="stop-color:white;stop-opacity:1;" />
      <stop
         id="stop3694"
         offset="1"
         style="stop-color:white;stop-opacity:0.46875" />
    </linearGradient>
    <linearGradient
       inkscape:collect="always"
       xlink:href="#linearGradient2781"
       id="linearGradient2356"
       gradientUnits="userSpaceOnUse"
       gradientTransform="translate(5,-6)"
       x1="24.925514"
       y1="40.000107"
       x2="24.925514"
       y2="19.53867" />
    <linearGradient
       inkscape:collect="always"
       xlink:href="#linearGradient3674"
       id="linearGradient2358"
       gradientUnits="userSpaceOnUse"
       gradientTransform="translate(5,-6)"
       x1="23.069359"
       y1="6.7993021"
       x2="23.069359"
       y2="12.403291" />
    <linearGradient
       inkscape:collect="always"
       xlink:href="#linearGradient3690"
       id="linearGradient2360"
       gradientUnits="userSpaceOnUse"
       gradientTransform="translate(5,-6)"
       x1="9.5"
       y1="16.26436"
       x2="9.5"
       y2="13.408723" />
    <radialGradient
       inkscape:collect="always"
       xlink:href="#linearGradient3429"
       id="radialGradient7944"
       gradientUnits="userSpaceOnUse"
       gradientTransform="matrix(1,0,0,0.2834646,0,15.550365)"
       cx="-2.7641447"
       cy="21.702158"
       fx="-2.7641447"
       fy="21.702158"
       r="8.1638689" />
    <radialGradient
       inkscape:collect="always"
       xlink:href="#linearGradient3429"
       id="radialGradient7946"
       gradientUnits="userSpaceOnUse"
       gradientTransform="matrix(1,0,0,0.2834646,0,15.550365)"
       cx="-2.7641447"
       cy="21.702158"
       fx="-2.7641447"
       fy="21.702158"
       r="8.1638689" />
    <radialGradient
       inkscape:collect="always"
       xlink:href="#linearGradient8440"
       id="radialGradient8718"
       gradientUnits="userSpaceOnUse"
       gradientTransform="matrix(0.5127519,0.3745031,-0.5029349,0.6514359,-11.643961,-16.193599)"
       cx="56.704376"
       cy="10.241054"
       fx="56.704376"
       fy="10.241054"
       r="14.75" />
    <radialGradient
       inkscape:collect="always"
       xlink:href="#linearGradient8440"
       id="radialGradient8720"
       gradientUnits="userSpaceOnUse"
       gradientTransform="matrix(0.2395866,0.4251895,-0.5706382,0.3059781,19.109791,-0.3381743)"
       cx="56.704376"
       cy="10.241054"
       fx="56.704376"
       fy="10.241054"
       r="14.75" />
    <radialGradient
       inkscape:collect="always"
       xlink:href="#linearGradient8440"
       id="radialGradient8724"
       gradientUnits="userSpaceOnUse"
       gradientTransform="matrix(0.2519384,0.1930302,-0.2501954,0.3300516,7.2687729,-8.9857363)"
       cx="56.704376"
       cy="10.241054"
       fx="56.704376"
       fy="10.241054"
       r="14.75" />
    <radialGradient
       inkscape:collect="always"
       xlink:href="#linearGradient8440"
       id="radialGradient8728"
       gradientUnits="userSpaceOnUse"
       gradientTransform="matrix(0.3971205,9.2403542e-2,-0.1192252,0.5195426,-15.592373,-11.101385)"
       cx="56.704376"
       cy="10.241054"
       fx="56.704376"
       fy="10.241054"
       r="14.75" />
  </defs>
  <sodipodi:namedview
     id="base"
     pagecolor="#ffffff"
     bordercolor="#666666"
     borderopacity="1.0"
     inkscape:pageopacity="0.0"
     inkscape:pageshadow="2"
     inkscape:zoom="1"
     inkscape:cx="39.960656"
     inkscape:cy="32.234909"
     inkscape:current-layer="g1717"
     showgrid="false"
     inkscape:document-units="px"
     inkscape:grid-bbox="true"
     inkscape:window-width="874"
     inkscape:window-height="680"
     inkscape:window-x="251"
     inkscape:window-y="76">
    <inkscape:grid
       type="xygrid"
       id="grid7935" />
  </sodipodi:namedview>
  <metadata
     id="metadata1386">
    <rdf:RDF>
      <cc:Work
         rdf:about="">
        <dc:format>image/svg+xml</dc:format>
        <dc:type
           rdf:resource="http://purl.org/dc/dcmitype/StillImage" />
        <dc:title>Thumbnail</dc:title>
        <dc:creator>
          <cc:Agent>
            <dc:title>Patrick Niklaus, Andrew Wedderburn</dc:title>
          </cc:Agent>
        </dc:creator>
        <cc:license
           rdf:resource="http://creativecommons.org/licenses/GPL/2.0/" />
      </cc:Work>
      <cc:License
         rdf:about="http://creativecommons.org/licenses/GPL/2.0/">
        <cc:permits
           rdf:resource="http://web.resource.org/cc/Reproduction" />
        <cc:permits
           rdf:resource="http://web.resource.org/cc/Distribution" />
        <cc:requires
           rdf:resource="http://web.resource.org/cc/Notice" />
        <cc:permits
           rdf:resource="http://web.resource.org/cc/DerivativeWorks" />
        <cc:requires
           rdf:resource="http://web.resource.org/cc/ShareAlike" />
        <cc:requires
           rdf:resource="http://web.resource.org/cc/SourceCode" />
      </cc:License>
    </rdf:RDF>
  </metadata>
  <g
     id="layer1"
     inkscape:label="Layer 1"
     inkscape:groupmode="layer">
    <g
       inkscape:label="Layer 1"
       id="g1717"
       transform="translate(17.60985,22.71589)">
      <g
         id="g1752"
         transform="matrix(1.107713,0,0,1.107713,-1.993967,-4.669119)">
        <rect
           style="opacity:1;color:#000000;fill:url(#linearGradient2871);fill-opacity:1;fill-rule:evenodd;stroke:#939393;stroke-width:1.21729147;stroke-linecap:butt;stroke-linejoin:miter;marker:none;marker-start:none;marker-mid:none;marker-end:none;stroke-miterlimit:4;stroke-dasharray:none;stroke-dashoffset:0;stroke-opacity:1;visibility:visible;display:inline;overflow:visible"
           id="rect5857"
           width="43.897678"
           height="44.453953"
           x="-7.2886143"
           y="-12.974991"
           rx="2.4825926"
           ry="2.4825926" />
        <rect
           ry="1.579832"
           rx="1.579832"
           y="-11.301558"
           x="-6.2943397"
           height="41.107105"
           width="41.900925"
           id="rect6740"
           style="opacity:1;color:#000000;fill:none;fill-opacity:1;fill-rule:evenodd;stroke:#ffffff;stroke-width:1.21729171;stroke-linecap:butt;stroke-linejoin:miter;marker:none;marker-start:none;marker-mid:none;marker-end:none;stroke-miterlimit:4;stroke-dasharray:none;stroke-dashoffset:0;stroke-opacity:1;visibility:visible;display:inline;overflow:visible" />
      </g>
      <g
         transform="matrix(0.9890323,0,0,1.0984409,-10.606272,-33.398204)"
         id="g54724">
        <rect
           width="32.357079"
           height="6.3234997"
           x="9.3215466"
           y="41.809082"
           style="opacity:0.3;fill:url(#linearGradient54729);fill-opacity:1;fill-rule:evenodd;stroke:none;stroke-width:1.02400005;stroke-linecap:butt;stroke-linejoin:miter;stroke-miterlimit:4;stroke-dasharray:none;stroke-dashoffset:0;stroke-opacity:1"
           id="rect46899" />
        <path
           d="M 41.6785,41.799698 L 41.6785,48.126714 C 44.022298,48.102828 45.930248,46.705313 45.930248,44.974385 C 45.930248,43.243458 44.022299,41.823584 41.6785,41.799698 z"
           style="opacity:0.3;fill:url(#radialGradient54731);fill-opacity:1;fill-rule:evenodd;stroke:none;stroke-width:1.02400005;stroke-linecap:butt;stroke-linejoin:miter;stroke-miterlimit:4;stroke-dasharray:none;stroke-dashoffset:0;stroke-opacity:1"
           id="path48849" />
        <path
           d="M 9.3217476,41.799698 L 9.3217476,48.126714 C 6.9779494,48.102828 5.07,46.705313 5.07,44.974385 C 5.07,43.243458 6.9779484,41.823584 9.3217476,41.799698 z"
           style="opacity:0.3;fill:url(#radialGradient54733);fill-opacity:1;fill-rule:evenodd;stroke:none;stroke-width:1.02400005;stroke-linecap:butt;stroke-linejoin:miter;stroke-miterlimit:4;stroke-dasharray:none;stroke-dashoffset:0;stroke-opacity:1"
           id="path52742" />
      </g>
      <g
         id="g2820"
         transform="matrix(1.1171914,0,0,1,-19.10117,-16.340781)">
        <rect
           ry="2"
           rx="1.7902035"
           y="3"
           x="13.5"
           height="30.499985"
           width="33.000038"
           id="rect1915"
           style="opacity:1;fill:url(#linearGradient2356);fill-opacity:1;stroke:#888a85;stroke-width:0.94609839;stroke-miterlimit:4;stroke-dasharray:none;stroke-opacity:1" />
        <path
           sodipodi:nodetypes="cccccc"
           id="path1917"
           d="M 13.499999,8.030334 L 13.499999,4.500005 C 13.499999,3.392005 14.391999,2.500005 15.499999,2.500005 L 44.499999,2.500005 C 45.607999,2.500005 46.499999,3.392005 46.499999,4.500005 L 46.499999,8.030334"
           style="fill:url(#linearGradient2358);fill-opacity:1;stroke:#204a87;stroke-width:0.94609857;stroke-miterlimit:4;stroke-opacity:1" />
        <rect
           ry="0.99539089"
           rx="0.89097607"
           y="3.5000076"
           x="14.5"
           height="29.000008"
           width="31.000004"
           id="rect1919"
           style="opacity:0.8;fill:none;fill-opacity:1;stroke:url(#linearGradient2360);stroke-width:0.94609892;stroke-miterlimit:4;stroke-dasharray:none;stroke-opacity:1" />
      </g>
      <g
         transform="matrix(2.764844e-2,0,0,2.43871e-2,41.40319,28.04041)"
         id="g5022"
         style="display:inline">
        <g
           id="g1748">
          <rect
             style="opacity:1;color:#000000;fill:url(#linearGradient1756);fill-opacity:1;fill-rule:evenodd;stroke:#939393;stroke-width:57.38420868;stroke-linecap:butt;stroke-linejoin:miter;marker:none;marker-start:none;marker-mid:none;marker-end:none;stroke-miterlimit:4;stroke-dasharray:none;stroke-dashoffset:0;stroke-opacity:1;visibility:visible;display:inline;overflow:visible"
             id="rect1742"
             width="3601.8506"
             height="1203.9873"
             x="-2688.8904"
             y="-207.67786"
             rx="99.463104"
             ry="112.76454" />
          <rect
             ry="71.75927"
             rx="63.29472"
             y="-162.35461"
             x="-2607.3086"
             height="1113.3416"
             width="3438.0149"
             id="rect1744"
             style="opacity:1;color:#000000;fill:none;fill-opacity:1;fill-rule:evenodd;stroke:#ffffff;stroke-width:57.38422394;stroke-linecap:butt;stroke-linejoin:miter;marker:none;marker-start:none;marker-mid:none;marker-end:none;stroke-miterlimit:4;stroke-dasharray:none;stroke-dashoffset:0;stroke-opacity:1;visibility:visible;display:inline;overflow:visible" />
        </g>
      </g>
      <rect
         style="opacity:0.60989009"
         id="rect2396"
         width="59"
         height="26.454546"
         x="-15.60985"
         y="23.284109"
         rx="1.03125"
         ry="1.03125" />
      <g
         inkscape:label="Layer 1"
         id="g1506"
         transform="translate(-112.7273,33.27273)">
        <rect
           ry="1.03125"
           rx="1.03125"
           y="-1.98862"
           x="116.11745"
           height="4.4892092"
           width="36.454548"
           id="rect1521"
           style="opacity:1;color:#000000;fill:#c8c8c8;fill-opacity:1;fill-rule:evenodd;stroke:none;stroke-width:1;stroke-linecap:butt;stroke-linejoin:miter;marker:none;marker-start:none;marker-mid:none;marker-end:none;stroke-miterlimit:4;stroke-dasharray:none;stroke-dashoffset:0;stroke-opacity:1;visibility:visible;display:inline;overflow:visible" />
      </g>
      <path
         style="fill:url(#radialGradient8728);fill-opacity:1;fill-rule:evenodd;stroke:#555753;stroke-width:1;stroke-linecap:butt;stroke-linejoin:miter;stroke-miterlimit:4;stroke-dasharray:none;stroke-dashoffset:0;stroke-opacity:1"
         d="M 4.6271336,-4.9322691 C 4.499925,-4.8360798 4.4798298,-4.6630551 4.5729001,-4.5396153 L 5.9436102,-2.7215454 C 5.7142399,-2.4214465 5.5322727,-2.0891225 5.3751018,-1.7538623 L 3.2805719,-1.9903725 C 3.1273137,-2.0078828 2.9932528,-1.8978993 2.9755475,-1.7390456 L 2.7089954,0.53100205 C 2.6912902,0.68985584 2.81718,0.83292829 2.9704381,0.85043846 L 4.9035766,1.064189 C 4.9528546,1.5089962 5.0513662,1.9525681 5.2154658,2.3797283 L 3.4700845,3.6994864 C 3.3471263,3.792462 3.3195652,3.9644311 3.4158466,4.0921428 L 4.8064272,5.936558 C 4.9027131,6.0642677 5.0754145,6.084809 5.1983774,5.9918321 L 6.9306331,4.6819971 C 7.265708,4.9366409 7.6317183,5.1286804 8.0096864,5.2933408 L 7.7463214,7.5402918 C 7.7271432,7.6989677 7.8316177,7.8375355 7.9847103,7.8564759 L 10.23744,8.138844 C 10.390532,8.1577845 10.523281,8.0461943 10.542464,7.887517 L 10.822499,5.6900131 C 11.255381,5.6315056 11.687929,5.5323398 12.10153,5.3641168 L 13.432512,7.1294875 C 13.525577,7.2529302 13.697249,7.2809531 13.824461,7.1847618 L 15.661702,5.795543 C 15.788914,5.6993516 15.80901,5.5263278 15.71594,5.4028872 L 14.365092,3.611168 C 14.599109,3.2909168 14.77657,2.9411671 14.930051,2.584114 L 17.041255,2.8700709 C 17.194103,2.8909294 17.34817,2.780417 17.369333,2.6219965 L 17.672065,0.345277 C 17.693228,0.18685657 17.586529,0.04994927 17.433681,0.029090747 L 15.312543,-0.27004003 C 15.25587,-0.648511 15.161722,-1.0296736 15.021239,-1.3942949 L 16.740374,-2.694208 C 16.863336,-2.7871848 16.890898,-2.9591541 16.794612,-3.0868632 L 15.404031,-4.9312789 C 15.30775,-5.0589914 15.135044,-5.0795306 15.012085,-4.9865556 L 13.306071,-3.6965642 C 12.949871,-3.9691264 12.56831,-4.1919355 12.164236,-4.3638588 L 12.569483,-6.5319305 C 12.598972,-6.6889886 12.5089,-6.8390425 12.357344,-6.8679629 L 10.113821,-7.302087 C 9.9622702,-7.3310094 9.8283569,-7.2209946 9.7988676,-7.0639361 L 9.3709237,-4.8166482 C 9.3658197,-4.7894648 9.369122,-4.7603377 9.3712854,-4.7341817 C 8.9857015,-4.6809508 8.5974853,-4.5897019 8.2270384,-4.448146 L 6.8563283,-6.2662158 C 6.763258,-6.3896558 6.5915914,-6.417681 6.4643783,-6.3214891 L 4.6271336,-4.9322691 z M 8.8966299,-1.1277352 C 9.9222898,-1.9032807 11.170075,-1.665097 11.824364,-0.7972733 C 12.478649,0.070552437 12.365734,1.337622 11.340075,2.1131681 C 10.314415,2.8887139 9.0666301,2.6505304 8.4123448,1.7827041 C 7.7580562,0.91488282 7.8709703,-0.35218913 8.8966299,-1.1277352 z"
         id="path2212" />
      <path
         sodipodi:type="inkscape:offset"
         inkscape:radius="-1.0449361"
         inkscape:original="M 60.375 3.125 L 60.375 7.15625 C 60.371912 7.5194123 60.130326 7.8372886 59.78125 7.9375 C 59.169905 8.1067881 58.559537 8.3768222 57.96875 8.6875 C 57.661279 8.8483892 57.285825 8.7983287 57.03125 8.5625 L 54.34375 6 L 51.71875 8.75 L 54.21875 11.09375 C 54.494859 11.351352 54.559366 11.764199 54.375 12.09375 C 53.971871 12.770414 53.623576 13.494497 53.40625 14.25 C 53.306039 14.599076 52.988162 14.840662 52.625 14.84375 L 48.75 14.84375 L 48.75 18.65625 L 52.59375 18.65625 C 52.956912 18.659338 53.274789 18.900924 53.375 19.25 C 53.567737 19.931631 53.884546 20.572703 54.25 21.21875 C 54.426168 21.533968 54.375412 21.927325 54.125 22.1875 L 51.34375 25.09375 L 54 27.6875 L 56.75 24.875 C 57.007602 24.598891 57.420449 24.534384 57.75 24.71875 C 58.429534 25.100218 59.139208 25.429005 59.875 25.625 C 60.224076 25.725211 60.465662 26.043088 60.46875 26.40625 L 60.46875 30.3125 L 64.28125 30.3125 L 64.28125 26.34375 C 64.280089 25.989098 64.507041 25.673886 64.84375 25.5625 C 65.481753 25.370962 66.108157 25.06554 66.71875 24.71875 C 67.033968 24.542582 67.427325 24.593338 67.6875 24.84375 L 70.375 27.5 L 73.0625 24.84375 L 70.375 22.15625 C 70.109267 21.890864 70.057769 21.478881 70.25 21.15625 C 70.571694 20.565843 70.8464 19.957479 71.03125 19.3125 C 71.131461 18.963424 71.449338 18.721838 71.8125 18.71875 L 75.625 18.71875 L 75.625 14.90625 L 71.84375 14.90625 C 71.480588 14.903162 71.162711 14.661576 71.0625 14.3125 C 70.851959 13.5584 70.53788 12.848827 70.15625 12.1875 C 69.971884 11.857949 70.036391 11.445102 70.3125 11.1875 L 73.21875 8.53125 L 70.71875 5.78125 L 67.71875 8.5 C 67.479528 8.8411617 67.022497 8.9486984 66.65625 8.75 C 66.056217 8.415393 65.434546 8.1264586 64.78125 7.9375 C 64.432174 7.8372886 64.190588 7.5194123 64.1875 7.15625 L 64.1875 3.125 L 60.375 3.125 z M 62.21875 12.125 C 65.060709 12.125 67.09375 14.292516 67.09375 16.78125 C 67.093749 19.269985 65.06071 21.437499 62.21875 21.4375 C 59.376789 21.437501 57.34375 19.269985 57.34375 16.78125 C 57.343748 14.292517 59.376789 12.125 62.21875 12.125 z "
         style="fill:none;fill-opacity:1;fill-rule:evenodd;stroke:#dddddd;stroke-width:1.89672124;stroke-linecap:butt;stroke-linejoin:miter;stroke-miterlimit:4;stroke-dasharray:none;stroke-dashoffset:0;stroke-opacity:1"
         id="path3195"
         d="M 61.40625,4.15625 L 61.40625,7.15625 C 61.399266,7.9775921 60.851984,8.710858 60.0625,8.9375 C 59.554188,9.0782572 59.01789,9.336223 58.46875,9.625 C 57.772775,9.9891804 56.888743,9.8775602 56.3125,9.34375 C 56.312344,9.3333339 56.312344,9.3229161 56.3125,9.3125 L 54.375,7.46875 L 53.1875,8.71875 L 54.9375,10.34375 C 55.561437,10.925866 55.697871,11.849048 55.28125,12.59375 C 55.281406,12.604166 55.281406,12.614584 55.28125,12.625 C 54.910431,13.24743 54.590615,13.890331 54.40625,14.53125 C 54.179608,15.320736 53.446342,15.868016 52.625,15.875 L 49.78125,15.875 L 49.78125,17.625 L 52.59375,17.625 C 53.415092,17.631984 54.148358,18.179264 54.375,18.96875 C 54.532837,19.526954 54.809229,20.105289 55.15625,20.71875 C 55.554724,21.43174 55.441406,22.317761 54.875,22.90625 L 52.8125,25.0625 L 53.96875,26.21875 L 56,24.15625 C 56.582116,23.532313 57.505298,23.395879 58.25,23.8125 C 58.882225,24.16741 59.539839,24.460805 60.15625,24.625 C 60.945736,24.851642 61.493016,25.584908 61.5,26.40625 L 61.5,29.28125 L 63.25,29.28125 L 63.25,26.34375 C 63.247373,25.541289 63.738137,24.81453 64.5,24.5625 C 64.510416,24.562344 64.520834,24.562344 64.53125,24.5625 C 65.056662,24.404763 65.614673,24.137841 66.1875,23.8125 C 66.197916,23.812344 66.208334,23.812344 66.21875,23.8125 C 66.93174,23.414026 67.817761,23.527344 68.40625,24.09375 C 68.416666,24.093594 68.427084,24.093594 68.4375,24.09375 L 70.375,26 L 71.5625,24.84375 L 69.625,22.90625 C 69.024435,22.306469 68.909301,21.354158 69.34375,20.625 C 69.640731,20.079949 69.873994,19.579947 70.03125,19.03125 C 70.257892,18.241764 70.991158,17.694484 71.8125,17.6875 L 74.59375,17.6875 L 74.59375,15.9375 L 71.84375,15.9375 C 71.022408,15.930516 70.289142,15.383236 70.0625,14.59375 C 69.878684,13.935373 69.593953,13.314787 69.25,12.71875 C 69.249844,12.708334 69.249844,12.697916 69.25,12.6875 C 68.833379,11.942798 68.969813,11.019616 69.59375,10.4375 C 69.593594,10.427084 69.593594,10.416666 69.59375,10.40625 L 71.75,8.4375 L 70.65625,7.25 L 68.40625,9.28125 L 68.375,9.21875 C 67.806838,9.8401048 66.911551,10.06602 66.15625,9.65625 C 65.600875,9.3465466 65.050147,9.0966239 64.5,8.9375 C 63.710516,8.710858 63.163234,7.9775921 63.15625,7.15625 L 63.15625,4.15625 L 61.40625,4.15625 z M 62.21875,11.09375 C 65.592013,11.09375 68.125,13.723445 68.125,16.78125 C 68.124999,19.839055 65.592013,22.468749 62.21875,22.46875 C 58.845485,22.468751 56.3125,19.839055 56.3125,16.78125 C 56.312498,13.723446 58.845485,11.09375 62.21875,11.09375 z"
         transform="matrix(0.419941,-0.3175359,0.3178467,0.4215809,-21.340682,13.176104)" />
      <path
         style="fill:url(#radialGradient8724);fill-opacity:1;fill-rule:evenodd;stroke:#555753;stroke-width:1;stroke-linecap:butt;stroke-linejoin:miter;stroke-miterlimit:4;stroke-dasharray:none;stroke-dashoffset:0;stroke-opacity:1"
         d="M 19.629229,1.8806313 C 19.508406,1.9079782 19.438979,2.0241934 19.46556,2.1415934 L 19.857006,3.8706855 C 19.598751,4.0097908 19.363808,4.1869646 19.145502,4.3741822 L 17.736694,3.5339295 C 17.633676,3.4723024 17.503597,3.5072284 17.440384,3.6141642 L 16.527462,5.1379494 C 16.464249,5.2448852 16.507824,5.3867433 16.610843,5.4483698 L 17.912542,6.220662 C 17.80559,6.5518373 17.73392,6.8979459 17.713962,7.2534806 L 16.056197,7.6286788 C 15.93941,7.6551117 15.86503,7.7681813 15.892524,7.8896405 L 16.289648,9.643792 C 16.317146,9.7652514 16.432975,9.8352708 16.549765,9.8088385 L 18.195065,9.4364605 C 18.351289,9.7245893 18.549403,9.9782679 18.764723,10.216375 L 17.861426,11.724809 C 17.797225,11.831146 17.827062,11.962933 17.929507,12.025521 L 19.435793,12.949085 C 19.538237,13.011672 19.667898,12.975186 19.732102,12.86885 L 20.631441,11.400825 C 20.956854,11.498348 21.294999,11.566939 21.641743,11.580488 L 22.021845,13.259461 C 22.048422,13.376861 22.161135,13.451853 22.281963,13.424507 L 24.026976,13.029561 C 24.147803,13.002214 24.217229,12.886 24.190649,12.768599 L 23.804873,11.064566 C 24.072849,10.912666 24.310155,10.721691 24.532799,10.517839 L 25.937651,11.398501 C 26.039311,11.46237 26.183735,11.433493 26.24926,11.327975 L 27.189948,9.8110774 C 27.255474,9.7055598 27.22353,9.5742352 27.121871,9.5103661 L 25.714182,8.6171737 C 25.794735,8.3306537 25.849593,8.0301922 25.866339,7.7265788 L 27.499176,7.357022 C 27.615966,7.3305897 27.690346,7.2175197 27.662849,7.0960609 L 27.265724,5.3419094 C 27.238231,5.2204497 27.122397,5.15043 27.005611,5.1768628 L 25.385236,5.5435988 C 25.219757,5.2359824 25.020438,4.955496 24.788935,4.7038563 L 25.767614,3.2969043 C 25.838606,3.1950259 25.822637,3.0597199 25.724466,2.9905507 L 24.273106,1.9623536 C 24.174938,1.8931844 24.044955,1.9281799 23.973963,2.0300591 L 22.953934,3.4858838 C 22.941647,3.5035165 22.934697,3.5252267 22.927887,3.5444654 C 22.637674,3.4583887 22.333468,3.3984206 22.02581,3.3798238 L 21.634363,1.6507318 C 21.607783,1.5333315 21.495073,1.4583387 21.374246,1.4856859 L 19.629229,1.8806313 z M 21.44125,5.9488824 C 22.415423,5.7284003 23.223669,6.2979402 23.410523,7.1232946 C 23.597373,7.9486476 23.113224,8.8106933 22.139051,9.0311763 C 21.164878,9.2516591 20.356632,8.6821186 20.169782,7.8567647 C 19.982928,7.0314132 20.467077,6.1693654 21.44125,5.9488824 z"
         id="path2320" />
      <path
         sodipodi:type="inkscape:offset"
         inkscape:radius="-1.2535752"
         inkscape:original="M 60.375 3.125 L 60.375 7.15625 C 60.371912 7.5194123 60.130326 7.8372886 59.78125 7.9375 C 59.169905 8.1067881 58.559537 8.3768222 57.96875 8.6875 C 57.661279 8.8483892 57.285825 8.7983287 57.03125 8.5625 L 54.34375 6 L 51.71875 8.75 L 54.21875 11.09375 C 54.494859 11.351352 54.559366 11.764199 54.375 12.09375 C 53.971871 12.770414 53.623576 13.494497 53.40625 14.25 C 53.306039 14.599076 52.988162 14.840662 52.625 14.84375 L 48.75 14.84375 L 48.75 18.65625 L 52.59375 18.65625 C 52.956912 18.659338 53.274789 18.900924 53.375 19.25 C 53.567737 19.931631 53.884546 20.572703 54.25 21.21875 C 54.426168 21.533968 54.375412 21.927325 54.125 22.1875 L 51.34375 25.09375 L 54 27.6875 L 56.75 24.875 C 57.007602 24.598891 57.420449 24.534384 57.75 24.71875 C 58.429534 25.100218 59.139208 25.429005 59.875 25.625 C 60.224076 25.725211 60.465662 26.043088 60.46875 26.40625 L 60.46875 30.3125 L 64.28125 30.3125 L 64.28125 26.34375 C 64.280089 25.989098 64.507041 25.673886 64.84375 25.5625 C 65.481753 25.370962 66.108157 25.06554 66.71875 24.71875 C 67.033968 24.542582 67.427325 24.593338 67.6875 24.84375 L 70.375 27.5 L 73.0625 24.84375 L 70.375 22.15625 C 70.109267 21.890864 70.057769 21.478881 70.25 21.15625 C 70.571694 20.565843 70.8464 19.957479 71.03125 19.3125 C 71.131461 18.963424 71.449338 18.721838 71.8125 18.71875 L 75.625 18.71875 L 75.625 14.90625 L 71.84375 14.90625 C 71.480588 14.903162 71.162711 14.661576 71.0625 14.3125 C 70.851959 13.5584 70.53788 12.848827 70.15625 12.1875 C 69.971884 11.857949 70.036391 11.445102 70.3125 11.1875 L 73.21875 8.53125 L 70.71875 5.78125 L 67.71875 8.5 C 67.479528 8.8411617 67.022497 8.9486984 66.65625 8.75 C 66.056217 8.415393 65.434546 8.1264586 64.78125 7.9375 C 64.432174 7.8372886 64.190588 7.5194123 64.1875 7.15625 L 64.1875 3.125 L 60.375 3.125 z M 62.21875 12.125 C 65.060709 12.125 67.09375 14.292516 67.09375 16.78125 C 67.093749 19.269985 65.06071 21.437499 62.21875 21.4375 C 59.376789 21.437501 57.34375 19.269985 57.34375 16.78125 C 57.343748 14.292517 59.376789 12.125 62.21875 12.125 z "
         style="fill:none;fill-opacity:1;fill-rule:evenodd;stroke:#dddddd;stroke-width:1.57315135;stroke-linecap:butt;stroke-linejoin:miter;stroke-miterlimit:4;stroke-dasharray:none;stroke-dashoffset:0;stroke-opacity:1"
         id="path2322"
         d="M 61.625,4.375 L 61.625,7.15625 C 61.617238,8.0690755 61.002419,8.9043639 60.125,9.15625 C 59.63726,9.2913106 59.103325,9.5280959 58.5625,9.8125 C 57.788953,10.217271 56.82797,10.062057 56.1875,9.46875 C 56.177084,9.4688798 56.166666,9.4688798 56.15625,9.46875 L 54.375,7.78125 L 53.5,8.71875 L 55.0625,10.1875 C 55.755886,10.83441 55.931744,11.891156 55.46875,12.71875 C 55.458518,12.729349 55.448099,12.739768 55.4375,12.75 C 55.073133,13.361602 54.802784,13.975709 54.625,14.59375 C 54.373114,15.471171 53.537826,16.085988 52.625,16.09375 L 50,16.09375 L 50,17.40625 L 52.59375,17.40625 C 53.506576,17.414012 54.341864,18.028829 54.59375,18.90625 C 54.744618,19.439809 55.00041,19.986796 55.34375,20.59375 C 55.786611,21.386162 55.66075,22.408457 55.03125,23.0625 L 53.125,25.0625 L 53.96875,25.90625 L 55.84375,24 C 56.49066,23.306614 57.547406,23.162006 58.375,23.625 C 58.997779,23.974607 59.594926,24.248404 60.1875,24.40625 C 60.197916,24.40612 60.208334,24.40612 60.21875,24.40625 C 61.096171,24.658136 61.710988,25.493424 61.71875,26.40625 L 61.71875,29.0625 L 63.03125,29.0625 L 63.03125,26.34375 C 63.02833,25.451876 63.590748,24.655112 64.4375,24.375 C 64.447916,24.37487 64.458334,24.37487 64.46875,24.375 C 64.971682,24.224012 65.528463,23.946058 66.09375,23.625 C 66.886162,23.182139 67.908457,23.308 68.5625,23.9375 L 70.375,25.71875 L 71.28125,24.8125 L 69.5,23.03125 C 68.83258,22.364702 68.704688,21.310328 69.1875,20.5 C 69.479547,19.964005 69.660754,19.498223 69.8125,18.96875 C 70.064386,18.091329 70.899674,17.476512 71.8125,17.46875 L 74.375,17.46875 L 74.375,16.15625 L 71.84375,16.15625 C 70.930924,16.148488 70.095636,15.533671 69.84375,14.65625 C 69.665271,14.016986 69.398931,13.395501 69.0625,12.8125 C 68.599506,11.984906 68.775364,10.92816 69.46875,10.28125 C 69.46862,10.270834 69.46862,10.260416 69.46875,10.25 L 71.4375,8.4375 L 70.625,7.5625 L 68.5625,9.4375 L 68.5,9.375 C 67.865325,10.036844 66.887352,10.291254 66.0625,9.84375 C 66.052084,9.8438798 66.041666,9.8438798 66.03125,9.84375 C 65.484792,9.5390191 64.967051,9.3094168 64.4375,9.15625 C 63.560081,8.9043639 62.945262,8.0690755 62.9375,7.15625 L 62.9375,4.375 L 61.625,4.375 z M 62.21875,10.875 C 65.698097,10.875 68.34375,13.609821 68.34375,16.78125 C 68.343749,19.952679 65.698097,22.687499 62.21875,22.6875 C 58.739402,22.687501 56.09375,19.952679 56.09375,16.78125 C 56.093747,13.609821 58.739402,10.875 62.21875,10.875 z"
         transform="matrix(0.3988606,-9.0273407e-2,9.0770966e-2,0.4009489,-4.5479909,6.380241)" />
      <path
         sodipodi:type="arc"
         style="opacity:0.3;fill:url(#radialGradient7944);fill-opacity:1;fill-rule:evenodd;stroke:none;stroke-width:1;stroke-linecap:round;stroke-linejoin:round;stroke-miterlimit:4;stroke-dasharray:none;stroke-dashoffset:0;stroke-opacity:1"
         id="path2456"
         sodipodi:cx="-2.7641447"
         sodipodi:cy="21.702158"
         sodipodi:rx="8.1638689"
         sodipodi:ry="2.3141677"
         d="M 5.3997242,21.702158 A 8.1638689,2.3141677 0 1 1 -10.928014,21.702158 A 8.1638689,2.3141677 0 1 1 5.3997242,21.702158 z"
         transform="matrix(1.0629921,0,0,0.5978052,11.871727,0.2306015)" />
      <path
         sodipodi:type="arc"
         style="opacity:0.3;fill:url(#radialGradient7946);fill-opacity:1;fill-rule:evenodd;stroke:none;stroke-width:1;stroke-linecap:round;stroke-linejoin:round;stroke-miterlimit:4;stroke-dasharray:none;stroke-dashoffset:0;stroke-opacity:1"
         id="path4406"
         sodipodi:cx="-2.7641447"
         sodipodi:cy="21.702158"
         sodipodi:rx="8.1638689"
         sodipodi:ry="2.3141677"
         d="M 5.3997242,21.702158 A 8.1638689,2.3141677 0 1 1 -10.928014,21.702158 A 8.1638689,2.3141677 0 1 1 5.3997242,21.702158 z"
         transform="matrix(0.8793119,0,0,0.5198988,23.433956,2.1016269)" />
      <g
         id="g4419"
         transform="matrix(0.604684,0,0,0.604684,-14.172235,30.611661)">
        <g
           transform="matrix(0.5807099,-0.2572389,0.2653125,0.5989357,-5.0431723,-2.7013165)"
           id="g4421">
          <path
             style="fill:url(#radialGradient4435);fill-opacity:1;fill-rule:evenodd;stroke:#555753;stroke-width:1;stroke-linecap:butt;stroke-linejoin:miter;stroke-miterlimit:4;stroke-dasharray:none;stroke-dashoffset:0;stroke-opacity:1"
             d="M 13.529155,4.9182174 C 13.284693,4.973823 13.14543,5.2028973 13.200694,5.4327315 L 14.014551,8.8177785 C 13.492992,9.0948261 13.019123,9.44616 12.579077,9.8169231 L 9.714708,8.1918116 C 9.5052507,8.0726153 9.2421281,8.1432376 9.115342,8.3540104 L 7.2840536,11.35762 C 7.1572675,11.568393 7.2472577,11.845921 7.456715,11.965117 L 10.103266,13.458677 C 9.890558,14.109983 9.7495121,14.790005 9.7133492,15.487672 L 6.3591912,16.250589 C 6.1228974,16.304337 5.9735597,16.527322 6.0307223,16.765104 L 6.856384,20.199208 C 6.9135543,20.43699 7.1490683,20.572438 7.3853698,20.518691 L 10.714305,19.761509 C 11.034281,20.324097 11.438712,20.818432 11.877816,21.281946 L 10.065844,24.255289 C 9.9370509,24.464903 9.9990851,24.722903 10.207392,24.843993 L 13.270255,26.630922 C 13.478562,26.752012 13.74082,26.678336 13.869621,26.468723 L 15.674058,23.574702 C 16.334524,23.760682 17.020437,23.889707 17.723111,23.910631 L 18.513382,27.19756 C 18.568637,27.427395 18.797898,27.572649 19.042367,27.517043 L 22.573055,26.713971 C 22.817524,26.658365 22.956787,26.429292 22.901524,26.199457 L 22.099456,22.863469 C 22.640555,22.561167 23.119049,22.182725 23.56768,21.779263 L 26.424521,23.483699 C 26.631253,23.607315 26.923513,23.548324 27.055001,23.340294 L 28.942626,20.349741 C 29.074114,20.141711 29.007818,19.884653 28.801086,19.761037 L 25.938346,18.032072 C 26.098106,17.468782 26.205637,16.878566 26.235917,16.282789 L 29.539637,15.531343 C 29.775938,15.477596 29.925276,15.254611 29.868106,15.01683 L 29.042444,11.582725 C 28.985282,11.344942 28.74976,11.209494 28.513466,11.263241 L 25.234961,12.008951 C 24.896,11.408292 24.488805,10.861396 24.016751,10.371604 L 25.982669,7.5960788 C 26.125274,7.395098 26.091297,7.129971 25.891567,6.995902 L 22.938729,5.0028517 C 22.739007,4.8687829 22.476077,4.93954 22.333472,5.1405213 L 20.284365,8.012579 C 20.259683,8.0473644 20.245863,8.0900603 20.232298,8.1279051 C 19.643285,7.9638037 19.026239,7.8511383 18.402693,7.8196751 L 17.588836,4.4346281 C 17.533572,4.2047938 17.30432,4.0595399 17.05985,4.1151463 L 13.529155,4.9182174 z M 17.249234,12.868124 C 19.220279,12.419802 20.864646,13.523725 21.253134,15.139521 C 21.641614,16.755317 20.671077,18.454013 18.700032,18.902336 C 16.728988,19.350659 15.08462,18.246736 14.69614,16.630939 C 14.307652,15.015147 15.278189,13.316447 17.249234,12.868124 z"
             id="path4423" />
          <path
             sodipodi:type="inkscape:offset"
             inkscape:radius="-0.39745662"
             inkscape:original="M 60.375 3.125 L 60.375 7.15625 C 60.371912 7.5194123 60.130326 7.8372886 59.78125 7.9375 C 59.169905 8.1067881 58.559537 8.3768222 57.96875 8.6875 C 57.661279 8.8483892 57.285825 8.7983287 57.03125 8.5625 L 54.34375 6 L 51.71875 8.75 L 54.21875 11.09375 C 54.494859 11.351352 54.559366 11.764199 54.375 12.09375 C 53.971871 12.770414 53.623576 13.494497 53.40625 14.25 C 53.306039 14.599076 52.988162 14.840662 52.625 14.84375 L 48.75 14.84375 L 48.75 18.65625 L 52.59375 18.65625 C 52.956912 18.659338 53.274789 18.900924 53.375 19.25 C 53.567737 19.931631 53.884546 20.572703 54.25 21.21875 C 54.426168 21.533968 54.375412 21.927325 54.125 22.1875 L 51.34375 25.09375 L 54 27.6875 L 56.75 24.875 C 57.007602 24.598891 57.420449 24.534384 57.75 24.71875 C 58.429534 25.100218 59.139208 25.429005 59.875 25.625 C 60.224076 25.725211 60.465662 26.043088 60.46875 26.40625 L 60.46875 30.3125 L 64.28125 30.3125 L 64.28125 26.34375 C 64.280089 25.989098 64.507041 25.673886 64.84375 25.5625 C 65.481753 25.370962 66.108157 25.06554 66.71875 24.71875 C 67.033968 24.542582 67.427325 24.593338 67.6875 24.84375 L 70.375 27.5 L 73.0625 24.84375 L 70.375 22.15625 C 70.109267 21.890864 70.057769 21.478881 70.25 21.15625 C 70.571694 20.565843 70.8464 19.957479 71.03125 19.3125 C 71.131461 18.963424 71.449338 18.721838 71.8125 18.71875 L 75.625 18.71875 L 75.625 14.90625 L 71.84375 14.90625 C 71.480588 14.903162 71.162711 14.661576 71.0625 14.3125 C 70.851959 13.5584 70.53788 12.848827 70.15625 12.1875 C 69.971884 11.857949 70.036391 11.445102 70.3125 11.1875 L 73.21875 8.53125 L 70.71875 5.78125 L 67.71875 8.5 C 67.479528 8.8411617 67.022497 8.9486984 66.65625 8.75 C 66.056217 8.415393 65.434546 8.1264586 64.78125 7.9375 C 64.432174 7.8372886 64.190588 7.5194123 64.1875 7.15625 L 64.1875 3.125 L 60.375 3.125 z M 62.21875 12.125 C 65.060709 12.125 67.09375 14.292516 67.09375 16.78125 C 67.093749 19.269985 65.06071 21.437499 62.21875 21.4375 C 59.376789 21.437501 57.34375 19.269985 57.34375 16.78125 C 57.343748 14.292517 59.376789 12.125 62.21875 12.125 z "
             style="fill:none;fill-opacity:1;fill-rule:evenodd;stroke:#dddddd;stroke-width:1.22343159;stroke-linecap:butt;stroke-linejoin:miter;stroke-miterlimit:4;stroke-dasharray:none;stroke-dashoffset:0;stroke-opacity:1"
             id="path4425"
             d="M 60.78125,3.53125 L 60.78125,7.15625 C 60.77668,7.6936877 60.422842,8.1641989 59.90625,8.3125 C 59.895837,8.3129096 59.885413,8.3129096 59.875,8.3125 C 59.302845,8.470936 58.731196,8.7289025 58.15625,9.03125 C 57.701006,9.269464 57.126926,9.1929203 56.75,8.84375 L 54.34375,6.5625 L 52.28125,8.75 L 54.5,10.8125 C 54.90841,11.193535 54.991457,11.79379 54.71875,12.28125 C 54.71916,12.291663 54.71916,12.302087 54.71875,12.3125 C 54.327911,12.968535 53.986039,13.663081 53.78125,14.375 C 53.632949,14.891592 53.162437,15.24543 52.625,15.25 L 49.15625,15.25 L 49.15625,18.25 L 52.59375,18.25 C 53.131187,18.25457 53.601699,18.608408 53.75,19.125 C 53.75041,19.135413 53.75041,19.145837 53.75,19.15625 C 53.929462,19.790934 54.235307,20.397598 54.59375,21.03125 C 54.854475,21.497766 54.776855,22.083696 54.40625,22.46875 L 51.90625,25.09375 L 54,27.125 L 56.46875,24.59375 C 56.849785,24.18534 57.45004,24.102293 57.9375,24.375 C 58.599039,24.746366 59.278366,25.066101 59.96875,25.25 C 59.979163,25.24959 59.989587,25.24959 60,25.25 C 60.516592,25.398301 60.87043,25.868813 60.875,26.40625 L 60.875,29.90625 L 63.875,29.90625 L 63.875,26.34375 C 63.873281,25.818767 64.220328,25.352382 64.71875,25.1875 C 65.313928,25.008819 65.935022,24.713631 66.53125,24.375 C 66.997766,24.114275 67.583696,24.191895 67.96875,24.5625 L 70.375,26.9375 L 72.5,24.84375 L 70.09375,22.4375 C 69.700659,22.044922 69.621888,21.414759 69.90625,20.9375 C 70.218544,20.364345 70.481896,19.795857 70.65625,19.1875 C 70.804551,18.670908 71.275063,18.31707 71.8125,18.3125 L 75.21875,18.3125 L 75.21875,15.3125 L 71.84375,15.3125 C 71.306313,15.30793 70.835801,14.954092 70.6875,14.4375 C 70.68709,14.427087 70.68709,14.416663 70.6875,14.40625 C 70.487124,13.68856 70.179799,13.011493 69.8125,12.375 C 69.539793,11.88754 69.62284,11.287285 70.03125,10.90625 L 72.65625,8.5 L 70.6875,6.34375 L 68,8.78125 L 67.96875,8.75 C 67.605078,9.2077617 66.988291,9.3756143 66.46875,9.09375 C 65.885703,8.7686155 65.270312,8.4901105 64.65625,8.3125 C 64.139658,8.1641989 63.78582,7.6936877 63.78125,7.15625 L 63.78125,3.53125 L 60.78125,3.53125 z M 62.21875,11.71875 C 65.262798,11.71875 67.5,14.076062 67.5,16.78125 C 67.499999,19.486439 65.262799,21.843749 62.21875,21.84375 C 59.1747,21.843751 56.9375,19.486439 56.9375,16.78125 C 56.937498,14.076062 59.1747,11.71875 62.21875,11.71875 z"
             transform="matrix(0.807015,-0.1835593,0.188722,0.7849383,-35.400318,14.137586)" />
          <path
             style="fill:url(#radialGradient4437);fill-opacity:1;fill-rule:evenodd;stroke:#555753;stroke-width:1;stroke-linecap:butt;stroke-linejoin:miter;stroke-miterlimit:4;stroke-dasharray:none;stroke-dashoffset:0;stroke-opacity:1"
             d="M 29.974023,22.470736 C 29.782653,22.434203 29.608601,22.553485 29.572001,22.73378 L 29.032896,25.389179 C 28.572418,25.423661 28.121225,25.525691 27.687575,25.652025 L 26.195337,23.608209 C 26.086335,23.458499 25.876808,23.426822 25.717618,23.536994 L 23.431725,25.099373 C 23.272535,25.209545 23.244804,25.434485 23.353806,25.584194 L 24.735194,27.466932 C 24.370046,27.863043 24.046165,28.301811 23.790716,28.785708 L 21.165016,28.284429 C 20.98004,28.249116 20.800863,28.360945 20.762989,28.54747 L 20.216077,31.241356 C 20.178209,31.427884 20.300301,31.597228 20.485282,31.632544 L 23.091238,32.130052 C 23.132396,32.628797 23.255825,33.105358 23.413952,33.570823 L 21.151704,35.117727 C 20.991475,35.226453 20.950388,35.428842 21.057952,35.579538 L 22.637389,37.799904 C 22.744952,37.950599 22.954873,37.979841 23.115107,37.871118 L 25.345888,36.378168 C 25.752149,36.715481 26.195187,37.020285 26.685705,37.25358 L 26.162228,39.832012 C 26.125623,40.012304 26.240058,40.186663 26.431434,40.223199 L 29.195325,40.750859 C 29.3867,40.787395 29.560751,40.668113 29.597352,40.487818 L 30.12864,37.870901 C 30.61127,37.82457 31.074667,37.704739 31.525168,37.557869 L 32.985943,39.655641 C 33.09156,39.80764 33.317881,39.85663 33.479495,39.749866 L 35.800967,38.214267 C 35.962581,38.107504 36.00034,37.904458 35.894724,37.752459 L 34.437855,35.635444 C 34.736525,35.285339 35.007095,34.899888 35.224811,34.486474 L 37.811027,34.980214 C 37.996008,35.01553 38.175186,34.903701 38.213054,34.717174 L 38.759966,32.023288 C 38.79784,31.836762 38.675742,31.667415 38.490766,31.632102 L 35.924289,31.14213 C 35.882235,30.610463 35.774166,30.09574 35.601371,29.601381 L 37.907423,28.242728 C 38.074585,28.144424 38.13788,27.945698 38.040665,27.788458 L 36.60702,25.45601 C 36.50981,25.298772 36.300376,25.267251 36.133213,25.365556 L 33.73647,26.766857 C 33.707538,26.783871 33.683689,26.809876 33.661618,26.832518 C 33.29873,26.532944 32.899051,26.26116 32.468019,26.044985 L 33.007124,23.389586 C 33.043725,23.209291 32.929295,23.034934 32.737919,22.998399 L 29.974023,22.470736 z M 29.988267,29.269321 C 31.531239,29.563894 32.331566,30.858549 32.074237,32.126063 C 31.816904,33.393573 30.570233,34.297432 29.02726,34.00286 C 27.484288,33.708288 26.683961,32.413632 26.941295,31.146121 C 27.198622,29.878611 28.445294,28.974749 29.988267,29.269321 z"
             id="path4427" />
          <path
             sodipodi:type="inkscape:offset"
             inkscape:radius="-0.79479486"
             inkscape:original="M 60.375 3.125 L 60.375 7.15625 C 60.371912 7.5194123 60.130326 7.8372886 59.78125 7.9375 C 59.169905 8.1067881 58.559537 8.3768222 57.96875 8.6875 C 57.661279 8.8483892 57.285825 8.7983287 57.03125 8.5625 L 54.34375 6 L 51.71875 8.75 L 54.21875 11.09375 C 54.494859 11.351352 54.559366 11.764199 54.375 12.09375 C 53.971871 12.770414 53.623576 13.494497 53.40625 14.25 C 53.306039 14.599076 52.988162 14.840662 52.625 14.84375 L 48.75 14.84375 L 48.75 18.65625 L 52.59375 18.65625 C 52.956912 18.659338 53.274789 18.900924 53.375 19.25 C 53.567737 19.931631 53.884546 20.572703 54.25 21.21875 C 54.426168 21.533968 54.375412 21.927325 54.125 22.1875 L 51.34375 25.09375 L 54 27.6875 L 56.75 24.875 C 57.007602 24.598891 57.420449 24.534384 57.75 24.71875 C 58.429534 25.100218 59.139208 25.429005 59.875 25.625 C 60.224076 25.725211 60.465662 26.043088 60.46875 26.40625 L 60.46875 30.3125 L 64.28125 30.3125 L 64.28125 26.34375 C 64.280089 25.989098 64.507041 25.673886 64.84375 25.5625 C 65.481753 25.370962 66.108157 25.06554 66.71875 24.71875 C 67.033968 24.542582 67.427325 24.593338 67.6875 24.84375 L 70.375 27.5 L 73.0625 24.84375 L 70.375 22.15625 C 70.109267 21.890864 70.057769 21.478881 70.25 21.15625 C 70.571694 20.565843 70.8464 19.957479 71.03125 19.3125 C 71.131461 18.963424 71.449338 18.721838 71.8125 18.71875 L 75.625 18.71875 L 75.625 14.90625 L 71.84375 14.90625 C 71.480588 14.903162 71.162711 14.661576 71.0625 14.3125 C 70.851959 13.5584 70.53788 12.848827 70.15625 12.1875 C 69.971884 11.857949 70.036391 11.445102 70.3125 11.1875 L 73.21875 8.53125 L 70.71875 5.78125 L 67.71875 8.5 C 67.479528 8.8411617 67.022497 8.9486984 66.65625 8.75 C 66.056217 8.415393 65.434546 8.1264586 64.78125 7.9375 C 64.432174 7.8372886 64.190588 7.5194123 64.1875 7.15625 L 64.1875 3.125 L 60.375 3.125 z M 62.21875 12.125 C 65.060709 12.125 67.09375 14.292516 67.09375 16.78125 C 67.093749 19.269985 65.06071 21.437499 62.21875 21.4375 C 59.376789 21.437501 57.34375 19.269985 57.34375 16.78125 C 57.343748 14.292517 59.376789 12.125 62.21875 12.125 z "
             style="fill:none;fill-opacity:1;fill-rule:evenodd;stroke:#dddddd;stroke-width:1.57315135;stroke-linecap:butt;stroke-linejoin:miter;stroke-miterlimit:4;stroke-dasharray:none;stroke-dashoffset:0;stroke-opacity:1"
             id="path4429"
             d="M 61.15625,3.90625 L 61.15625,7.15625 C 61.150199,7.8679111 60.684057,8.4911235 60,8.6875 C 60.000205,8.6979157 60.000205,8.7083343 60,8.71875 C 59.467023,8.8663371 58.90286,9.1122303 58.34375,9.40625 C 57.740776,9.7217657 56.999241,9.6187281 56.5,9.15625 C 56.489296,9.146125 56.478875,9.1357043 56.46875,9.125 L 54.375,7.125 L 52.84375,8.71875 L 54.75,10.5 C 55.290672,11.004432 55.423522,11.823429 55.0625,12.46875 C 55.062705,12.479166 55.062705,12.489584 55.0625,12.5 C 54.683947,13.135413 54.348505,13.800401 54.15625,14.46875 C 53.959874,15.152809 53.336661,15.618949 52.625,15.625 L 49.53125,15.625 L 49.53125,17.875 L 52.59375,17.875 C 53.305411,17.881051 53.928624,18.347191 54.125,19.03125 C 54.291191,19.619 54.586067,20.191239 54.9375,20.8125 C 54.937705,20.822916 54.937705,20.833334 54.9375,20.84375 C 55.282757,21.46152 55.178262,22.240104 54.6875,22.75 L 52.46875,25.0625 L 54,26.5625 L 56.1875,24.3125 C 56.691932,23.771828 57.479679,23.670228 58.125,24.03125 C 58.76855,24.392518 59.448761,24.671943 60.09375,24.84375 C 60.093955,24.854166 60.093955,24.864584 60.09375,24.875 C 60.777809,25.071376 61.243949,25.694589 61.25,26.40625 L 61.25,29.53125 L 63.5,29.53125 L 63.5,26.34375 C 63.497724,25.648487 63.933662,25.030862 64.59375,24.8125 C 64.604166,24.812295 64.614584,24.812295 64.625,24.8125 C 65.177365,24.646672 65.730632,24.361725 66.3125,24.03125 C 66.322916,24.031045 66.333334,24.031045 66.34375,24.03125 C 66.96152,23.685993 67.740104,23.790488 68.25,24.28125 L 70.375,26.375 L 71.9375,24.84375 L 69.8125,22.71875 C 69.292089,22.199018 69.186034,21.381842 69.5625,20.75 C 69.865397,20.194091 70.117389,19.665495 70.28125,19.09375 C 70.477626,18.409691 71.100839,17.943551 71.8125,17.9375 L 74.84375,17.9375 L 74.84375,15.6875 L 71.84375,15.6875 C 71.132089,15.681449 70.508876,15.215309 70.3125,14.53125 C 70.122287,13.849958 69.821723,13.205416 69.46875,12.59375 C 69.468545,12.583334 69.468545,12.572916 69.46875,12.5625 C 69.107728,11.917179 69.240578,11.098182 69.78125,10.59375 L 72.09375,8.46875 L 70.65625,6.90625 L 68.375,8.96875 L 68.25,9.09375 L 68.21875,9.0625 C 67.727654,9.6096533 66.940239,9.7950184 66.28125,9.4375 C 65.715185,9.1218351 65.137339,8.8537658 64.5625,8.6875 C 63.878443,8.4911235 63.412301,7.8679111 63.40625,7.15625 L 63.40625,3.90625 L 61.15625,3.90625 z M 62.21875,11.34375 C 65.464827,11.34375 67.875,13.859672 67.875,16.78125 C 67.874999,19.702828 65.464827,22.218749 62.21875,22.21875 C 58.972671,22.218751 56.5625,19.702828 56.5625,16.78125 C 56.562498,13.859672 58.972671,11.34375 62.21875,11.34375 z"
             transform="matrix(0.631747,0.1206081,-0.1250089,0.6157451,-7.6997053,13.802796)" />
        </g>
        <path
           transform="matrix(1.0629921,0,0,0.8055556,11.3628,-3.0623757)"
           d="M 5.3997242,21.702158 A 8.1638689,2.3141677 0 1 1 -10.928014,21.702158 A 8.1638689,2.3141677 0 1 1 5.3997242,21.702158 z"
           sodipodi:ry="2.3141677"
           sodipodi:rx="8.1638689"
           sodipodi:cy="21.702158"
           sodipodi:cx="-2.7641447"
           id="path4431"
           style="opacity:0.38630808;fill:url(#radialGradient4439);fill-opacity:1;fill-rule:evenodd;stroke:none;stroke-width:1;stroke-linecap:round;stroke-linejoin:round;stroke-miterlimit:4;stroke-dasharray:none;stroke-dashoffset:0;stroke-opacity:1"
           sodipodi:type="arc" />
        <path
           transform="matrix(0.8793119,0,0,0.8055556,22.642108,-3.0623757)"
           d="M 5.3997242,21.702158 A 8.1638689,2.3141677 0 1 1 -10.928014,21.702158 A 8.1638689,2.3141677 0 1 1 5.3997242,21.702158 z"
           sodipodi:ry="2.3141677"
           sodipodi:rx="8.1638689"
           sodipodi:cy="21.702158"
           sodipodi:cx="-2.7641447"
           id="path4433"
           style="opacity:0.38630808;fill:url(#radialGradient4441);fill-opacity:1;fill-rule:evenodd;stroke:none;stroke-width:1;stroke-linecap:round;stroke-linejoin:round;stroke-miterlimit:4;stroke-dasharray:none;stroke-dashoffset:0;stroke-opacity:1"
           sodipodi:type="arc" />
      </g>
    </g>
  </g>
</svg>
