<?xml version="1.0" encoding="UTF-8" standalone="no"?>
<!-- Created with Inkscape (http://www.inkscape.org/) -->
<svg
   xmlns:dc="http://purl.org/dc/elements/1.1/"
   xmlns:cc="http://web.resource.org/cc/"
   xmlns:rdf="http://www.w3.org/1999/02/22-rdf-syntax-ns#"
   xmlns:svg="http://www.w3.org/2000/svg"
   xmlns="http://www.w3.org/2000/svg"
   xmlns:xlink="http://www.w3.org/1999/xlink"
   xmlns:sodipodi="http://sodipodi.sourceforge.net/DTD/sodipodi-0.dtd"
   xmlns:inkscape="http://www.inkscape.org/namespaces/inkscape"
   inkscape:export-ydpi="90.000000"
   inkscape:export-xdpi="90.000000"
   inkscape:export-filename="/home/jimmac/Desktop/wi-fi.png"
   width="48px"
   height="48px"
   id="svg11300"
   sodipodi:version="0.32"
   inkscape:version="0.44"
   sodipodi:docbase="/home/andrew/pixmaps"
   sodipodi:docname="beryl-settings-section-bs.svg">
  <defs
     id="defs3">
    <radialGradient
       gradientUnits="userSpaceOnUse"
       gradientTransform="matrix(1.006701,0,0,1.007522,-0.160816,0.426981)"
       r="19.141981"
       fy="23.381506"
       fx="23.99999"
       cy="23.381506"
       cx="23.99999"
       id="radialGradient4081"
       xlink:href="#linearGradient4083"
       inkscape:collect="always" />
    <radialGradient
       gradientTransform="matrix(0.487739,1.292402,-1.10267,0.497242,-41.77393,32.41492)"
       gradientUnits="userSpaceOnUse"
       r="9.5"
       fy="-22.113297"
       fx="-33.519073"
       cy="-22.113297"
       cx="-33.519073"
       id="radialGradient4020"
       xlink:href="#linearGradient4032"
       inkscape:collect="always" />
    <linearGradient
       y2="-9.5590506"
       x2="-37.19698"
       y1="-25.326815"
       x1="-28.968945"
       gradientUnits="userSpaceOnUse"
       id="linearGradient3168"
       xlink:href="#linearGradient4026"
       inkscape:collect="always" />
    <linearGradient
       id="linearGradient4026">
      <stop
         style="stop-color:#fff9c6;stop-opacity:1"
         offset="0"
         id="stop4028" />
      <stop
         id="stop4042"
         offset="0.54166669"
         style="stop-color:#fff28c;stop-opacity:1;" />
      <stop
         style="stop-color:#ffea85;stop-opacity:1;"
         offset="1"
         id="stop4030" />
    </linearGradient>
    <linearGradient
       id="linearGradient4032">
      <stop
         style="stop-color:#fff7c2;stop-opacity:0.63829786"
         offset="0"
         id="stop4034" />
      <stop
         id="stop4036"
         offset="0.59394139"
         style="stop-color:#fcaf3e;stop-opacity:0.18348624;" />
      <stop
         style="stop-color:#fcaf3e;stop-opacity:0.50458717;"
         offset="0.83850551"
         id="stop4038" />
      <stop
         style="stop-color:#fcaf3e;stop-opacity:1;"
         offset="1"
         id="stop4040" />
    </linearGradient>
    <linearGradient
       id="linearGradient4083">
      <stop
         style="stop-color:#ffffff;stop-opacity:0;"
         offset="0"
         id="stop4085" />
      <stop
         id="stop4089"
         offset="0.75"
         style="stop-color:#ffffff;stop-opacity:0;" />
      <stop
         style="stop-color:#ffffff;stop-opacity:1;"
         offset="1"
         id="stop4087" />
    </linearGradient>
  </defs>
  <sodipodi:namedview
     stroke="#ef2929"
     fill="#eeeeec"
     id="base"
     pagecolor="#ffffff"
     bordercolor="#666666"
     borderopacity="0.25490196"
     inkscape:pageopacity="0.0"
     inkscape:pageshadow="2"
     inkscape:zoom="4.2870939"
     inkscape:cx="22.688321"
     inkscape:cy="20.884737"
     inkscape:current-layer="layer1"
     showgrid="false"
     inkscape:grid-bbox="true"
     inkscape:document-units="px"
     inkscape:showpageshadow="false"
     inkscape:window-width="1264"
     inkscape:window-height="936"
     inkscape:window-x="1288"
     inkscape:window-y="33" />
  <metadata
     id="metadata4">
    <rdf:RDF>
      <cc:Work
         rdf:about="">
        <dc:format>image/svg+xml</dc:format>
        <dc:type
           rdf:resource="http://purl.org/dc/dcmitype/StillImage" />
        <dc:creator>
          <cc:Agent>
            <dc:title>Jakub Steiner</dc:title>
          </cc:Agent>
        </dc:creator>
        <dc:source>http://jimmac.musichall.cz</dc:source>
        <cc:license
           rdf:resource="http://creativecommons.org/licenses/by-sa/2.0/" />
        <dc:title>Windows</dc:title>
        <dc:subject>
          <rdf:Bag>
            <rdf:li>window</rdf:li>
            <rdf:li>manager</rdf:li>
            <rdf:li>decoration</rdf:li>
            <rdf:li>behavior</rdf:li>
          </rdf:Bag>
        </dc:subject>
      </cc:Work>
      <cc:License
         rdf:about="http://creativecommons.org/licenses/by-sa/2.0/">
        <cc:permits
           rdf:resource="http://web.resource.org/cc/Reproduction" />
        <cc:permits
           rdf:resource="http://web.resource.org/cc/Distribution" />
        <cc:requires
           rdf:resource="http://web.resource.org/cc/Notice" />
        <cc:requires
           rdf:resource="http://web.resource.org/cc/Attribution" />
        <cc:permits
           rdf:resource="http://web.resource.org/cc/DerivativeWorks" />
        <cc:requires
           rdf:resource="http://web.resource.org/cc/ShareAlike" />
      </cc:License>
    </rdf:RDF>
  </metadata>
  <g
     id="layer1"
     inkscape:label="Layer 1"
     inkscape:groupmode="layer">
    <g
       inkscape:label="Layer 1"
       id="g3113"
       transform="matrix(0.726319,0,0,0.726319,3.887429e-2,0.616386)">
      <g
         id="g3936">
        <g
           id="g4091"
           style="opacity:0.7">
          <path
             id="path7492"
             d="M 24,2.5 L 21.625,9.1875 C 22.399034,9.0641318 23.191406,9 24,9 C 24.808594,9 25.600966,9.0641317 26.375,9.1875 L 24,2.5 z M 8.8125,8.78125 L 11.84375,15.21875 C 12.779034,13.928569 13.928569,12.779034 15.21875,11.84375 L 8.8125,8.78125 z M 39.21875,8.78125 L 32.78125,11.84375 C 34.071431,12.779034 35.220966,13.928569 36.15625,15.21875 L 39.21875,8.78125 z M 9.1875,21.59375 L 2.5,23.96875 L 9.1875,26.34375 C 9.0673373,25.57952 9,24.797813 9,24 C 9,23.180625 9.0608858,22.377571 9.1875,21.59375 z M 38.8125,21.625 C 38.935868,22.399034 39,23.191406 39,24 C 39,24.808594 38.935868,25.600966 38.8125,26.375 L 45.5,24 L 38.8125,21.625 z M 11.84375,32.78125 L 8.8125,39.1875 L 15.21875,36.15625 C 13.928569,35.220966 12.779034,34.071431 11.84375,32.78125 z M 36.15625,32.78125 C 35.229789,34.05926 34.087617,35.194799 32.8125,36.125 L 39.21875,39.1875 L 36.15625,32.78125 z M 21.625,38.8125 L 24,45.5 L 26.375,38.8125 C 25.600966,38.935868 24.808594,39 24,39 C 23.191406,39 22.399034,38.935868 21.625,38.8125 z "
             style="fill:#fce94f;fill-opacity:1;stroke:#fcaf3e;stroke-width:0.73732895;stroke-linecap:square;stroke-linejoin:miter;stroke-miterlimit:4;stroke-dasharray:none;stroke-opacity:1" />
          <path
             id="path7494"
             d="M 24,5.25 L 22.65625,9.0625 C 23.098888,9.0231486 23.547187,9 24,9 C 24.452813,9 24.901112,9.0231486 25.34375,9.0625 L 24,5.25 z M 10.78125,10.75 L 12.5,14.375 C 13.071538,13.694089 13.724004,13.038745 14.40625,12.46875 L 10.78125,10.75 z M 37.25,10.75 L 33.625,12.46875 C 34.304675,13.038189 34.961811,13.695325 35.53125,14.375 L 37.25,10.75 z M 9.0625,22.625 L 5.28125,23.96875 L 9.0625,25.3125 C 9.024981,24.880146 9,24.442031 9,24 C 9,23.536406 9.0212735,23.077908 9.0625,22.625 z M 38.9375,22.65625 C 38.976851,23.098888 39,23.547187 39,24 C 39,24.452813 38.976851,24.901112 38.9375,25.34375 L 42.71875,24 L 38.9375,22.65625 z M 35.53125,33.59375 C 34.958293,34.27954 34.309985,34.957363 33.625,35.53125 L 37.25,37.25 L 35.53125,33.59375 z M 12.5,33.625 L 10.78125,37.21875 L 14.375,35.5 C 13.702932,34.935884 13.064116,34.297068 12.5,33.625 z M 22.65625,38.9375 L 24,42.71875 L 25.34375,38.9375 C 24.901112,38.976851 24.452813,39 24,39 C 23.547187,39 23.098888,38.976851 22.65625,38.9375 z "
             style="fill:none;fill-opacity:1;stroke:url(#radialGradient4081);stroke-width:0.84646249;stroke-linecap:square;stroke-linejoin:miter;stroke-miterlimit:4;stroke-dasharray:none;stroke-opacity:1" />
        </g>
        <g
           id="g4046">
          <g
             id="g3931">
            <path
               sodipodi:type="arc"
               style="fill:#ffee54;fill-opacity:1;stroke:#fcaf3e;stroke-width:0.75991178;stroke-linecap:square;stroke-linejoin:miter;stroke-miterlimit:4;stroke-dasharray:none;stroke-opacity:1"
               id="path7498"
               sodipodi:cx="-32"
               sodipodi:cy="-17.5"
               sodipodi:rx="9.5"
               sodipodi:ry="9.5"
               d="M -22.5 -17.5 A 9.5 9.5 0 1 1  -41.5,-17.5 A 9.5 9.5 0 1 1  -22.5 -17.5 z"
               transform="matrix(0.778062,-1.061285,1.061287,0.778062,67.47952,3.641324)"
               inkscape:r_cx="true"
               inkscape:r_cy="true" />
            <path
               sodipodi:type="arc"
               style="fill:url(#radialGradient4020);fill-opacity:1;stroke:none;stroke-width:1.01737845;stroke-linecap:square;stroke-linejoin:miter;stroke-miterlimit:4;stroke-dasharray:none;stroke-opacity:1"
               id="path7500"
               sodipodi:cx="-32"
               sodipodi:cy="-17.5"
               sodipodi:rx="9.5"
               sodipodi:ry="9.5"
               d="M -22.5 -17.5 A 9.5 9.5 0 1 1  -41.5,-17.5 A 9.5 9.5 0 1 1  -22.5 -17.5 z"
               transform="matrix(1.244257,-0.167707,0.216642,1.251844,67.61648,40.527)"
               inkscape:r_cx="true"
               inkscape:r_cy="true" />
            <path
               sodipodi:type="arc"
               style="fill:none;fill-opacity:1;stroke:url(#linearGradient3168);stroke-width:0.82601947;stroke-linecap:square;stroke-linejoin:miter;stroke-miterlimit:4;stroke-dasharray:none;stroke-opacity:1"
               id="path7502"
               sodipodi:cx="-32"
               sodipodi:cy="-17.5"
               sodipodi:rx="9.5"
               sodipodi:ry="9.5"
               d="M -22.5 -17.5 A 9.5 9.5 0 1 1  -41.5,-17.5 A 9.5 9.5 0 1 1  -22.5 -17.5 z"
               transform="matrix(0.715791,-0.976349,0.97635,0.715792,64.00044,5.269544)"
               inkscape:r_cx="true"
               inkscape:r_cy="true" />
          </g>
        </g>
      </g>
    </g>
    <g
       id="g6144">
      <path
         inkscape:r_cy="true"
         inkscape:r_cx="true"
         transform="matrix(0.701122,-0.956337,0.956339,0.701122,71.84697,14.5947)"
         d="M -22.5 -17.5 A 9.5 9.5 0 1 1  -41.5,-17.5 A 9.5 9.5 0 1 1  -22.5 -17.5 z"
         sodipodi:ry="9.5"
         sodipodi:rx="9.5"
         sodipodi:cy="-17.5"
         sodipodi:cx="-32"
         id="path4954"
         style="fill:#555753;fill-opacity:1;stroke:#170c00;stroke-width:0.75991178;stroke-linecap:square;stroke-linejoin:miter;stroke-miterlimit:4;stroke-dasharray:none;stroke-opacity:1"
         sodipodi:type="arc" />
      <path
         inkscape:r_cy="true"
         inkscape:r_cx="true"
         transform="matrix(0.645009,-0.879801,0.879801,0.645009,68.71193,16.06192)"
         d="M -22.5 -17.5 A 9.5 9.5 0 1 1  -41.5,-17.5 A 9.5 9.5 0 1 1  -22.5 -17.5 z"
         sodipodi:ry="9.5"
         sodipodi:rx="9.5"
         sodipodi:cy="-17.5"
         sodipodi:cx="-32"
         id="path4956"
         style="fill:none;fill-opacity:1;stroke:silver;stroke-width:0.82601947;stroke-linecap:square;stroke-linejoin:miter;stroke-miterlimit:4;stroke-dasharray:none;stroke-opacity:1"
         sodipodi:type="arc" />
      <path
         sodipodi:end="3.149985"
         sodipodi:start="0"
         inkscape:r_cy="true"
         inkscape:r_cx="true"
         transform="matrix(-5.737594e-3,0.951784,-0.964661,-5.659975e-3,15.56636,63.39921)"
         d="M -22.5,-17.5 A 9.5,9.5 0 1 1 -41.499665,-17.579726 L -32,-17.5 z"
         sodipodi:ry="9.5"
         sodipodi:rx="9.5"
         sodipodi:cy="-17.5"
         sodipodi:cx="-32"
         id="path4966"
         style="fill:#eeeeec;fill-opacity:1;stroke:none;stroke-width:0.75991178;stroke-linecap:square;stroke-linejoin:miter;stroke-miterlimit:4;stroke-dasharray:none;stroke-opacity:1"
         sodipodi:type="arc" />
    </g>
  </g>
</svg>
