<?xml version="1.0" encoding="UTF-8" standalone="no"?>
<!-- Created with Inkscape (http://www.inkscape.org/) -->
<svg
   xmlns:dc="http://purl.org/dc/elements/1.1/"
   xmlns:cc="http://creativecommons.org/ns#"
   xmlns:rdf="http://www.w3.org/1999/02/22-rdf-syntax-ns#"
   xmlns:svg="http://www.w3.org/2000/svg"
   xmlns="http://www.w3.org/2000/svg"
   xmlns:xlink="http://www.w3.org/1999/xlink"
   xmlns:sodipodi="http://sodipodi.sourceforge.net/DTD/sodipodi-0.dtd"
   xmlns:inkscape="http://www.inkscape.org/namespaces/inkscape"
   inkscape:export-ydpi="90.000000"
   inkscape:export-xdpi="90.000000"
   inkscape:export-filename="/home/jimmac/Desktop/wi-fi.png"
   width="48px"
   height="48px"
   id="svg11300"
   sodipodi:version="0.32"
   inkscape:version="0.45+devel"
   sodipodi:docbase="/home/andrew/Desktop/stuff/images"
   sodipodi:docname="plugin-widget.svg"
   inkscape:output_extension="org.inkscape.output.svg.inkscape">
  <defs
     id="defs3">
    <linearGradient
       id="linearGradient4376">
      <stop
         style="stop-color:#babdb6;stop-opacity:1"
         offset="0"
         id="stop4378" />
      <stop
         style="stop-color:#eeeeec;stop-opacity:1"
         offset="1"
         id="stop4380" />
    </linearGradient>
    <linearGradient
       gradientUnits="userSpaceOnUse"
       y2="37.875011"
       x2="3.93751"
       y1="37.000011"
       x1="7.31251"
       id="linearGradient5540"
       xlink:href="#linearGradient5534"
       inkscape:collect="always" />
    <linearGradient
       gradientUnits="userSpaceOnUse"
       y2="39.375"
       x2="4.1875"
       y1="33.875"
       x1="3.875"
       id="linearGradient5532"
       xlink:href="#linearGradient5526"
       inkscape:collect="always" />
    <linearGradient
       id="linearGradient3678"
       inkscape:collect="always">
      <stop
         id="stop3680"
         offset="0"
         style="stop-color:white;stop-opacity:1;" />
      <stop
         id="stop3682"
         offset="1"
         style="stop-color:white;stop-opacity:0;" />
    </linearGradient>
    <linearGradient
       id="linearGradient5502"
       inkscape:collect="always">
      <stop
         id="stop5504"
         offset="0"
         style="stop-color:white;stop-opacity:1;" />
      <stop
         id="stop5506"
         offset="1"
         style="stop-color:white;stop-opacity:0;" />
    </linearGradient>
    <linearGradient
       id="linearGradient5526"
       inkscape:collect="always">
      <stop
         id="stop5528"
         offset="0"
         style="stop-color:white;stop-opacity:1;" />
      <stop
         id="stop5530"
         offset="1"
         style="stop-color:white;stop-opacity:0;" />
    </linearGradient>
    <linearGradient
       id="linearGradient5534"
       inkscape:collect="always">
      <stop
         id="stop5536"
         offset="0"
         style="stop-color:white;stop-opacity:1;" />
      <stop
         id="stop5538"
         offset="1"
         style="stop-color:white;stop-opacity:0;" />
    </linearGradient>
    <linearGradient
       id="linearGradient2853">
      <stop
         id="stop2855"
         offset="0"
         style="stop-color:#416797;stop-opacity:1;" />
      <stop
         id="stop2857"
         offset="1"
         style="stop-color:#a7bed8;stop-opacity:1;" />
    </linearGradient>
    <linearGradient
       inkscape:collect="always"
       xlink:href="#linearGradient5502"
       id="linearGradient2996"
       gradientUnits="userSpaceOnUse"
       gradientTransform="matrix(1,0,0,-1,1,47.00002)"
       x1="3.870008"
       y1="37.710594"
       x2="5.3180737"
       y2="33.51659" />
    <linearGradient
       inkscape:collect="always"
       xlink:href="#linearGradient4376"
       id="linearGradient3001"
       gradientUnits="userSpaceOnUse"
       x1="43.75"
       y1="39.187508"
       x2="42.375"
       y2="33.500008"
       gradientTransform="translate(-2.7995022e-3,-1.0137661)" />
    <linearGradient
       inkscape:collect="always"
       xlink:href="#linearGradient5502"
       id="linearGradient3004"
       gradientUnits="userSpaceOnUse"
       gradientTransform="matrix(-1,0,0,-1,47,47.016812)"
       x1="5.5493865"
       y1="37.843178"
       x2="3.8596659"
       y2="33.251427" />
    <linearGradient
       inkscape:collect="always"
       xlink:href="#linearGradient4376"
       id="linearGradient3007"
       gradientUnits="userSpaceOnUse"
       x1="41.375"
       y1="14.75"
       x2="42.0625"
       y2="9.875"
       gradientTransform="translate(-2.7995022e-3,-0.9862531)" />
    <linearGradient
       inkscape:collect="always"
       xlink:href="#linearGradient4376"
       id="linearGradient3010"
       gradientUnits="userSpaceOnUse"
       x1="7.5"
       y1="15.75"
       x2="6.3125"
       y2="10"
       gradientTransform="translate(-1.3757002e-2,-0.9988331)" />
    <linearGradient
       inkscape:collect="always"
       xlink:href="#linearGradient4376"
       id="linearGradient3017"
       gradientUnits="userSpaceOnUse"
       x1="9.562501"
       y1="39.312511"
       x2="7.5000014"
       y2="34.187511"
       gradientTransform="translate(1.2825498e-2,-1.0457081)" />
    <linearGradient
       inkscape:collect="always"
       xlink:href="#linearGradient3678"
       id="linearGradient3020"
       gradientUnits="userSpaceOnUse"
       gradientTransform="matrix(1,0,0,0.9994213,1.0128255,-0.9927567)"
       x1="4.625"
       y1="-7.625"
       x2="23.875"
       y2="47.75" />
    <linearGradient
       inkscape:collect="always"
       xlink:href="#linearGradient2853"
       id="linearGradient4368"
       x1="-31.831854"
       y1="7.9310017"
       x2="-31.831854"
       y2="37.930984"
       gradientUnits="userSpaceOnUse"
       gradientTransform="translate(55.844671,7.0161407e-2)" />
    <linearGradient
       inkscape:collect="always"
       id="linearGradient5150">
      <stop
         style="stop-color:white;stop-opacity:1;"
         offset="0"
         id="stop5152" />
      <stop
         style="stop-color:white;stop-opacity:0;"
         offset="1"
         id="stop5154" />
    </linearGradient>
    <linearGradient
       id="linearGradient5142">
      <stop
         style="stop-color:#f1ff74;stop-opacity:1;"
         offset="0"
         id="stop5144" />
      <stop
         style="stop-color:#ffc10f;stop-opacity:1;"
         offset="1"
         id="stop5146" />
    </linearGradient>
    <linearGradient
       id="linearGradient5134">
      <stop
         style="stop-color:#ffdf1a;stop-opacity:1;"
         offset="0"
         id="stop5136" />
      <stop
         style="stop-color:#fff9ce;stop-opacity:1;"
         offset="1"
         id="stop5138" />
    </linearGradient>
    <linearGradient
       inkscape:collect="always"
       id="linearGradient5125">
      <stop
         style="stop-color:#ffc10f;stop-opacity:1;"
         offset="0"
         id="stop5127" />
      <stop
         style="stop-color:#ffc10f;stop-opacity:0;"
         offset="1"
         id="stop5129" />
    </linearGradient>
    <linearGradient
       id="linearGradient5101">
      <stop
         style="stop-color:white;stop-opacity:1;"
         offset="0"
         id="stop5103" />
      <stop
         style="stop-color:#edd400;stop-opacity:0.1262136;"
         offset="1"
         id="stop5105" />
    </linearGradient>
    <linearGradient
       id="linearGradient6732">
      <stop
         style="stop-color:#ffffff;stop-opacity:1;"
         offset="0"
         id="stop6734" />
      <stop
         style="stop-color:#dddddd;stop-opacity:1;"
         offset="1"
         id="stop6736" />
    </linearGradient>
    <linearGradient
       id="linearGradient2959"
       gradientTransform="scale(1.2034584,0.8309385)"
       x1="1.7063013"
       y1="28.281273"
       x2="39.013513"
       y2="28.281273"
       gradientUnits="userSpaceOnUse">
      <stop
         style="stop-color:#416797;stop-opacity:1;"
         offset="0"
         id="stop2961" />
      <stop
         style="stop-color:#a7bed8;stop-opacity:1;"
         offset="1"
         id="stop2963" />
    </linearGradient>
    <linearGradient
       inkscape:collect="always"
       xlink:href="#linearGradient2959"
       id="linearGradient3901"
       gradientUnits="userSpaceOnUse"
       gradientTransform="matrix(0.5905183,0,0,0.2656606,13.922321,12.297539)"
       x1="93.621719"
       y1="-14.691302"
       x2="93.871719"
       y2="-4.6441493" />
    <linearGradient
       inkscape:collect="always"
       xlink:href="#linearGradient2959"
       id="linearGradient3903"
       gradientUnits="userSpaceOnUse"
       gradientTransform="matrix(0.5905183,0,0,0.2626107,13.922321,12.367365)"
       x1="93.621719"
       y1="-14.691302"
       x2="93.871719"
       y2="-4.6441493" />
    <linearGradient
       inkscape:collect="always"
       xlink:href="#linearGradient6732"
       id="linearGradient3905"
       gradientUnits="userSpaceOnUse"
       gradientTransform="matrix(0.6407666,0,0,0.1117721,12.74477,14.015018)"
       x1="16.25"
       y1="12.25"
       x2="31.5"
       y2="36.625" />
    <radialGradient
       inkscape:collect="always"
       xlink:href="#linearGradient5101"
       id="radialGradient3907"
       gradientUnits="userSpaceOnUse"
       cx="23.142857"
       cy="24.285715"
       fx="23.142857"
       fy="24.285715"
       r="23.142857" />
    <radialGradient
       inkscape:collect="always"
       xlink:href="#linearGradient5125"
       id="radialGradient3909"
       gradientUnits="userSpaceOnUse"
       cx="23.071428"
       cy="23.142857"
       fx="23.071428"
       fy="23.142857"
       r="22.825405" />
    <radialGradient
       inkscape:collect="always"
       xlink:href="#linearGradient5142"
       id="radialGradient3911"
       gradientUnits="userSpaceOnUse"
       gradientTransform="matrix(1.421498,0,0,1.421498,-9.724552,-9.754659)"
       cx="23.071423"
       cy="30.798319"
       fx="23.071423"
       fy="30.798319"
       r="22.856438" />
    <linearGradient
       inkscape:collect="always"
       xlink:href="#linearGradient5134"
       id="linearGradient3913"
       gradientUnits="userSpaceOnUse"
       x1="20.908642"
       y1="52.221584"
       x2="15.422572"
       y2="-4.3302984" />
    <radialGradient
       inkscape:collect="always"
       xlink:href="#linearGradient5150"
       id="radialGradient3915"
       gradientUnits="userSpaceOnUse"
       gradientTransform="matrix(0,-0.4242651,0.6526141,0,1.9402918,26.589528)"
       cx="25.245258"
       cy="25.618958"
       fx="25.245258"
       fy="25.618958"
       r="14.760339" />
  </defs>
  <sodipodi:namedview
     stroke="#ef2929"
     fill="#eeeeec"
     id="base"
     pagecolor="#ffffff"
     bordercolor="#666666"
     borderopacity="0.25490196"
     inkscape:pageopacity="0.0"
     inkscape:pageshadow="2"
     inkscape:zoom="22.627417"
     inkscape:cx="43.367535"
     inkscape:cy="36.521685"
     inkscape:current-layer="layer1"
     showgrid="true"
     inkscape:grid-bbox="true"
     inkscape:document-units="px"
     inkscape:showpageshadow="false"
     inkscape:window-width="906"
     inkscape:window-height="680"
     inkscape:window-x="91"
     inkscape:window-y="61"
     showguides="true"
     inkscape:guide-bbox="true">
    <inkscape:grid
       type="xygrid"
       id="grid7939" />
  </sodipodi:namedview>
  <metadata
     id="metadata4">
    <rdf:RDF>
      <cc:Work
         rdf:about="">
        <dc:format>image/svg+xml</dc:format>
        <dc:type
           rdf:resource="http://purl.org/dc/dcmitype/StillImage" />
        <dc:creator>
          <cc:Agent>
            <dc:title>Patrick Niklaus</dc:title>
          </cc:Agent>
        </dc:creator>
        <dc:source />
        <cc:license
           rdf:resource="http://creativecommons.org/licenses/GPL/2.0/" />
        <dc:title>Zoom</dc:title>
        <dc:subject>
          <rdf:Bag />
        </dc:subject>
      </cc:Work>
      <cc:License
         rdf:about="http://creativecommons.org/licenses/GPL/2.0/">
        <cc:permits
           rdf:resource="http://web.resource.org/cc/Reproduction" />
        <cc:permits
           rdf:resource="http://web.resource.org/cc/Distribution" />
        <cc:requires
           rdf:resource="http://web.resource.org/cc/Notice" />
        <cc:permits
           rdf:resource="http://web.resource.org/cc/DerivativeWorks" />
        <cc:requires
           rdf:resource="http://web.resource.org/cc/ShareAlike" />
        <cc:requires
           rdf:resource="http://web.resource.org/cc/SourceCode" />
      </cc:License>
    </rdf:RDF>
  </metadata>
  <g
     id="layer1"
     inkscape:label="Layer 1"
     inkscape:groupmode="layer">
    <path
       style="opacity:0.2;fill:#000000;fill-opacity:1;fill-rule:nonzero;stroke:#000000;stroke-width:0.99999964;stroke-linecap:round;stroke-linejoin:round;marker:none;marker-start:none;marker-mid:none;marker-end:none;stroke-miterlimit:4;stroke-dasharray:none;stroke-dashoffset:1.20000057;stroke-opacity:1;visibility:visible;display:inline;overflow:visible"
       d="M 5.0128255,8.4542915 C 4.7282035,8.4542915 4.5128255,8.6701031 4.5128255,8.9552958 L 4.5128255,15.969357 C 4.5128255,16.254552 4.7282035,16.470363 5.0128255,16.470362 L 5.5128255,15.969357 L 5.5128255,32.001497 L 5.0128255,31.500493 C 4.7282035,31.500493 4.5128255,31.716303 4.5128255,32.001497 L 4.5128255,38.514553 C 4.5128255,38.799746 4.7282035,39.015557 5.0128255,39.015557 L 12.012826,39.015557 C 12.297448,39.015557 12.512826,38.799748 12.512826,38.514553 L 12.012826,38.514553 L 38.012826,38.514553 L 37.512826,38.514553 C 37.512826,38.799746 37.728204,39.015557 38.012826,39.015557 L 44.512826,39.015557 C 44.797448,39.015557 45.012825,38.799746 45.012826,38.514553 L 45.012826,32.001497 C 45.012826,31.716303 44.79745,31.500493 44.512826,31.500493 L 44.512826,32.001497 L 44.512826,15.969357 L 44.512826,16.470362 C 44.797448,16.470362 45.012826,16.254552 45.012826,15.969357 L 45.012826,8.9552958 C 45.012826,8.6701021 44.79745,8.454292 44.512826,8.4542915 L 38.012826,8.4542915 C 37.728204,8.4542915 37.512828,8.6701019 37.512826,8.9552958 L 38.012826,9.4563007 L 12.012826,9.4563007 L 12.512826,8.9552958 C 12.512826,8.6701026 12.297448,8.4542915 12.012826,8.4542915 L 5.0128255,8.4542915 z"
       id="rect5556"
       sodipodi:nodetypes="ccccccccccccccccccccccccccccccccc" />
    <rect
       style="fill:url(#linearGradient4368);fill-opacity:1;fill-rule:nonzero;stroke:#888a85;stroke-width:0.99999964;stroke-linecap:round;stroke-linejoin:round;marker:none;marker-start:none;marker-mid:none;marker-end:none;stroke-miterlimit:4;stroke-dasharray:none;stroke-dashoffset:1.20000057;stroke-opacity:1;visibility:visible;display:inline;overflow:visible"
       id="rect1879"
       width="38.999981"
       height="28.999983"
       x="4.512826"
       y="8.5011635" />
    <g
       transform="translate(-9.6375138e-2,0.2152268)"
       id="g3062">
      <g
         id="g3874"
         transform="matrix(1.1316619,0,0,1.1316619,-6.259217,-2.1533821)">
        <rect
           ry="0.75841093"
           rx="0.96118325"
           y="14.555654"
           x="15.430187"
           height="7.9698172"
           width="25.922382"
           id="rect5857"
           style="opacity:1;fill:url(#linearGradient3901);fill-opacity:1;fill-rule:evenodd;stroke:#939393;stroke-width:0.99999994;stroke-linecap:butt;stroke-linejoin:miter;marker:none;marker-start:none;marker-mid:none;marker-end:none;stroke-miterlimit:4;stroke-dasharray:none;stroke-dashoffset:0;stroke-opacity:1;visibility:visible;display:inline;overflow:visible" />
        <rect
           style="opacity:1;fill:url(#linearGradient3903);fill-opacity:1;fill-rule:evenodd;stroke:#ffffff;stroke-width:1;stroke-linecap:butt;stroke-linejoin:miter;marker:none;marker-start:none;marker-mid:none;marker-end:none;stroke-miterlimit:4;stroke-dasharray:none;stroke-dashoffset:0;stroke-opacity:0.56188121;visibility:visible;display:inline;overflow:visible"
           id="rect6740"
           width="23.623329"
           height="6.0545998"
           x="16.762909"
           y="15.474621"
           rx="1.0334072"
           ry="1.3600094" />
        <path
           id="flowRoot3043"
           d="M -38.447266,38.119193 L -31.855469,38.119193 L -31.855469,39.390677 L -35.265625,46.86724 L -37.462891,46.86724 L -34.234375,39.777396 L -38.447266,39.777396 L -38.447266,38.119193 M -27.90625,38.828177 C -28.187503,38.828185 -28.425784,38.925842 -28.621094,39.121146 C -28.816408,39.316466 -28.914064,39.554747 -28.914062,39.83599 C -28.914064,40.117247 -28.818361,40.353575 -28.626953,40.544974 C -28.431643,40.736387 -28.191409,40.83209 -27.90625,40.832084 C -27.625003,40.83209 -27.386722,40.736387 -27.191406,40.544974 C -26.996098,40.349668 -26.898442,40.11334 -26.898438,39.83599 C -26.898442,39.554747 -26.998051,39.316466 -27.197266,39.121146 C -27.392582,38.925842 -27.62891,38.828185 -27.90625,38.828177 M -27.90625,37.878959 C -27.648441,37.878968 -27.400394,37.929749 -27.162109,38.031302 C -26.923832,38.128967 -26.710942,38.269592 -26.523438,38.453177 C -26.339848,38.640686 -26.201177,38.851623 -26.107422,39.08599 C -26.009771,39.320372 -25.960942,39.570372 -25.960938,39.83599 C -25.960942,40.097715 -26.009771,40.347715 -26.107422,40.58599 C -26.201177,40.820371 -26.335942,41.025449 -26.511719,41.201224 C -26.699223,41.38873 -26.914066,41.533261 -27.15625,41.634818 C -27.398441,41.732479 -27.652347,41.781308 -27.917969,41.781302 C -28.468752,41.781308 -28.931643,41.595761 -29.306641,41.224662 C -29.677736,40.849668 -29.863282,40.386778 -29.863281,39.83599 C -29.863282,39.285216 -29.675782,38.822326 -29.300781,38.447318 C -28.921877,38.068421 -28.457034,37.878968 -27.90625,37.878959 M -16.867188,46.386771 C -17.281258,46.601615 -17.712898,46.763724 -18.162109,46.873099 C -18.611334,46.982474 -19.080084,47.037162 -19.568359,47.037162 C -21.025395,47.037162 -22.17969,46.630912 -23.03125,45.818412 C -23.882814,45.002007 -24.308594,43.89654 -24.308594,42.502006 C -24.308594,41.103574 -23.882814,39.998106 -23.03125,39.185599 C -22.17969,38.369202 -21.025395,37.960999 -19.568359,37.96099 C -19.080084,37.960999 -18.611334,38.015686 -18.162109,38.125052 C -17.712898,38.234436 -17.281258,38.396545 -16.867188,38.611381 L -16.867188,40.421927 C -17.285164,40.136778 -17.697273,39.927794 -18.103516,39.794974 C -18.509772,39.662169 -18.937506,39.595763 -19.386719,39.595756 C -20.191411,39.595763 -20.824223,39.853575 -21.285156,40.369193 C -21.746097,40.884824 -21.976565,41.595761 -21.976562,42.502006 C -21.976565,43.404353 -21.746097,44.113336 -21.285156,44.628959 C -20.824223,45.144585 -20.191411,45.402398 -19.386719,45.402396 C -18.937506,45.402398 -18.509772,45.335991 -18.103516,45.203177 C -17.697273,45.070367 -17.285164,44.861383 -16.867188,44.576224 L -16.867188,46.386771"
           style="fill:#555753;stroke-width:1.66120934;stroke-miterlimit:4;stroke-dasharray:none"
           transform="matrix(0.6019711,0,0,0.6019711,48.232008,-6.9245441)" />
        <rect
           ry="0.70128012"
           rx="1.5905972"
           y="15.467312"
           x="16.219105"
           height="3.4027576"
           width="24.20295"
           id="rect3032"
           style="opacity:0.29799996;fill:url(#linearGradient3905);fill-opacity:1;fill-rule:evenodd;stroke:#eeeeec;stroke-width:0.9695121;stroke-linecap:butt;stroke-linejoin:miter;marker:none;marker-start:none;marker-mid:none;marker-end:none;stroke-miterlimit:4;stroke-dasharray:none;stroke-dashoffset:0;stroke-opacity:1;visibility:visible;display:inline;overflow:visible" />
        <path
           transform="matrix(0.2404701,0,0,0.2404652,13.01611,12.711217)"
           d="M 46.285713,24.285715 A 23.142857,23.142857 0 1 1 0,24.285715 A 23.142857,23.142857 0 1 1 46.285713,24.285715 z"
           sodipodi:ry="23.142857"
           sodipodi:rx="23.142857"
           sodipodi:cy="24.285715"
           sodipodi:cx="23.142857"
           id="path4226"
           style="fill:url(#radialGradient3907);fill-opacity:1;fill-rule:evenodd;stroke:none;stroke-width:4.15856361;stroke-linecap:round;stroke-linejoin:miter;marker:none;marker-start:none;marker-mid:none;marker-end:none;stroke-miterlimit:4;stroke-dasharray:none;stroke-dashoffset:0;stroke-opacity:1;visibility:visible;display:inline;overflow:visible"
           sodipodi:type="arc" />
        <path
           transform="matrix(0.2819432,-9.5948408e-2,9.5950254e-2,0.2819374,9.9062015,14.215531)"
           d="M 45.294142,35.650815 L 31.887448,31.859136 L 35.036916,45.43106 L 25.808424,34.993091 L 21.120389,48.113251 L 19.000079,34.342973 L 7.9629591,42.845811 L 13.624016,30.11519 L -0.25798184,31.301114 L 11.387095,23.652033 L -0.9323434,17.144522 L 12.999525,17.005509 L 6.1539794,4.8706506 L 17.949369,12.285842 L 18.751129,-1.6236314 L 24.665087,10.991494 L 32.8596,-0.27643573 L 31.014486,13.53341 L 44.000052,8.4845125 L 34.981677,19.10455 L 48.63547,21.877674 L 35.307105,25.936117 L 45.294142,35.650815 z"
           inkscape:randomized="0"
           inkscape:rounded="0"
           inkscape:flatsided="false"
           sodipodi:arg2="0.80919811"
           sodipodi:arg1="0.52359878"
           sodipodi:r2="12.137954"
           sodipodi:r1="25.152658"
           sodipodi:cy="23.074486"
           sodipodi:cx="23.511301"
           sodipodi:sides="11"
           id="path5113"
           style="opacity:0.66292138;fill:#edd400;fill-opacity:1;fill-rule:evenodd;stroke:none;stroke-width:3.98107457;stroke-linecap:round;stroke-linejoin:miter;marker:none;marker-start:none;marker-mid:none;marker-end:none;stroke-miterlimit:4;stroke-dasharray:none;stroke-dashoffset:0;stroke-opacity:1;visibility:visible;display:inline;overflow:visible"
           sodipodi:type="star" />
        <path
           transform="matrix(0.1936832,0,0,0.1936796,14.198604,14.120318)"
           d="M 45.214285,23.142857 A 22.142857,22.142857 0 1 1 0.9285717,23.142857 A 22.142857,22.142857 0 1 1 45.214285,23.142857 z"
           sodipodi:ry="22.142857"
           sodipodi:rx="22.142857"
           sodipodi:cy="23.142857"
           sodipodi:cx="23.071428"
           id="path1314"
           style="fill:url(#radialGradient3909);fill-opacity:1;fill-rule:evenodd;stroke:#ff9e1a;stroke-width:5.16311836;stroke-linecap:butt;stroke-linejoin:round;marker:none;marker-start:none;marker-mid:none;marker-end:none;stroke-miterlimit:4;stroke-dasharray:none;stroke-dashoffset:0;stroke-opacity:1;visibility:visible;display:inline;overflow:visible"
           sodipodi:type="arc" />
        <path
           transform="matrix(0.1592861,0,0,0.1592829,15.055728,14.854893)"
           d="M 45.214285,23.142857 A 22.142857,22.142857 0 1 1 0.9285717,23.142857 A 22.142857,22.142857 0 1 1 45.214285,23.142857 z"
           sodipodi:ry="22.142857"
           sodipodi:rx="22.142857"
           sodipodi:cy="23.142857"
           sodipodi:cx="23.071428"
           id="path2044"
           style="fill:url(#radialGradient3911);fill-opacity:1;fill-rule:evenodd;stroke:url(#linearGradient3913);stroke-width:5.49806547;stroke-linecap:butt;stroke-linejoin:round;marker:none;marker-start:none;marker-mid:none;marker-end:none;stroke-miterlimit:4;stroke-dasharray:none;stroke-dashoffset:0;stroke-opacity:1;visibility:visible;display:inline;overflow:visible"
           sodipodi:type="arc" />
        <path
           sodipodi:nodetypes="cssc"
           id="path2046"
           d="M 22.491005,17.653357 C 20.886593,16.439697 13.818405,20.694588 14.950269,17.332481 C 15.533392,15.600358 17.180435,14.689819 18.560196,14.658515 C 20.328044,14.618405 21.956201,15.751846 22.491005,17.653357 z"
           style="opacity:0.73033711;fill:url(#radialGradient3915);fill-opacity:1;fill-rule:evenodd;stroke:none;stroke-width:1;stroke-linecap:butt;stroke-linejoin:round;marker:none;marker-start:none;marker-mid:none;marker-end:none;stroke-miterlimit:4;stroke-dasharray:none;stroke-dashoffset:0;stroke-opacity:1;visibility:visible;display:inline;overflow:visible" />
      </g>
    </g>
    <g
       id="g5550"
       style="opacity:0.1;display:inline"
       transform="matrix(-1,0,0,-1,47.012826,46.954312)">
      <path
         sodipodi:nodetypes="ccccccc"
         id="path5552"
         d="M 11.5,10.013768 L 4.013757,17.500012 C 3.729135,17.500012 3.5,17.270877 3.5,16.986255 L 3.5,10.013768 C 3.5,9.7291462 3.729135,9.5000105 4.013757,9.5000105 L 10.986243,9.5000105 C 11.270865,9.5000105 11.5,9.7291462 11.5,10.013768 z"
         style="fill:#000000;fill-opacity:1;fill-rule:nonzero;stroke:#000000;stroke-width:1.00000012;stroke-linecap:round;stroke-linejoin:round;marker:none;marker-start:none;marker-mid:none;marker-end:none;stroke-miterlimit:4;stroke-dashoffset:1.20000057;stroke-opacity:1;visibility:visible;display:inline;overflow:visible" />
      <path
         sodipodi:nodetypes="ccccccc"
         id="path5554"
         d="M 41.986242,17.50001 L 34.499998,10.013767 C 34.499998,9.729145 34.729133,9.50001 35.013755,9.50001 L 41.986242,9.50001 C 42.270864,9.50001 42.5,9.729145 42.5,10.013767 L 42.5,16.986253 C 42.5,17.270875 42.270864,17.50001 41.986242,17.50001 z"
         style="fill:#000000;fill-opacity:1;fill-rule:nonzero;stroke:#000000;stroke-width:1.00000012;stroke-linecap:round;stroke-linejoin:round;marker:none;marker-start:none;marker-mid:none;marker-end:none;stroke-miterlimit:4;stroke-dashoffset:1.20000057;stroke-opacity:1;visibility:visible;display:inline;overflow:visible" />
    </g>
    <rect
       style="fill:none;fill-opacity:1;fill-rule:nonzero;stroke:url(#linearGradient3020);stroke-width:0.99999952;stroke-linecap:round;stroke-linejoin:round;marker:none;marker-start:none;marker-mid:none;marker-end:none;stroke-miterlimit:4;stroke-dasharray:none;stroke-dashoffset:1.20000057;stroke-opacity:1;visibility:visible;display:inline;overflow:visible"
       id="rect3674"
       width="37.000023"
       height="26.984344"
       x="5.5128069"
       y="9.5011654" />
    <path
       style="fill:url(#linearGradient3017);fill-opacity:1;fill-rule:nonzero;stroke:#888a85;stroke-width:1.00000012;stroke-linecap:round;stroke-linejoin:round;marker:none;marker-start:none;marker-mid:none;marker-end:none;stroke-miterlimit:4;stroke-dashoffset:1.20000057;stroke-opacity:1;visibility:visible;display:inline;overflow:visible"
       d="M 4.0265835,30.454303 L 11.512828,37.940545 C 11.512828,38.225167 11.283693,38.454303 10.999071,38.454303 L 4.0265835,38.454303 C 3.7419615,38.454303 3.5128255,38.225167 3.5128255,37.940545 L 3.5128255,30.96806 C 3.5128255,30.683438 3.7419615,30.454303 4.0265835,30.454303 z"
       id="rect2768"
       sodipodi:nodetypes="ccccccc" />
    <path
       sodipodi:type="inkscape:offset"
       inkscape:radius="-0.9952234"
       inkscape:original="M 3 31.5 C 2.7153785 31.5 2.5 31.715378 2.5 32 L 2.5 39 C 2.5 39.284622 2.7153785 39.499999 3 39.5 L 10 39.5 C 10.284622 39.5 10.5 39.284623 10.5 39 L 3 31.5 z "
       style="opacity:0.6;fill:none;fill-opacity:1;fill-rule:nonzero;stroke:url(#linearGradient5532);stroke-width:1;stroke-linecap:round;stroke-linejoin:miter;marker:none;marker-start:none;marker-mid:none;marker-end:none;stroke-miterlimit:4;stroke-dasharray:none;stroke-dashoffset:1.20000057;stroke-opacity:1;visibility:visible;display:inline;overflow:visible"
       id="path3688"
       d="M 3.5,33.4375 L 3.5,38.5 L 8.5625,38.5 L 3.5,33.4375 z"
       transform="translate(1.0128255,-1.0457081)" />
    <g
       id="g5546"
       style="opacity:0.1"
       transform="translate(1.0128255,-1.0457081)">
      <path
         sodipodi:nodetypes="ccccccc"
         id="path5542"
         d="M 11.5,10.013768 L 4.013757,17.500012 C 3.729135,17.500012 3.5,17.270877 3.5,16.986255 L 3.5,10.013768 C 3.5,9.7291462 3.729135,9.5000105 4.013757,9.5000105 L 10.986243,9.5000105 C 11.270865,9.5000105 11.5,9.7291462 11.5,10.013768 z"
         style="fill:#000000;fill-opacity:1;fill-rule:nonzero;stroke:#000000;stroke-width:1.00000012;stroke-linecap:round;stroke-linejoin:round;marker:none;marker-start:none;marker-mid:none;marker-end:none;stroke-miterlimit:4;stroke-dashoffset:1.20000057;stroke-opacity:1;visibility:visible;display:inline;overflow:visible" />
      <path
         sodipodi:nodetypes="ccccccc"
         id="path5544"
         d="M 41.986242,17.50001 L 34.499998,10.013767 C 34.499998,9.729145 34.729133,9.50001 35.013755,9.50001 L 41.986242,9.50001 C 42.270864,9.50001 42.5,9.729145 42.5,10.013767 L 42.5,16.986253 C 42.5,17.270875 42.270864,17.50001 41.986242,17.50001 z"
         style="fill:#000000;fill-opacity:1;fill-rule:nonzero;stroke:#000000;stroke-width:1.00000012;stroke-linecap:round;stroke-linejoin:round;marker:none;marker-start:none;marker-mid:none;marker-end:none;stroke-miterlimit:4;stroke-dashoffset:1.20000057;stroke-opacity:1;visibility:visible;display:inline;overflow:visible" />
    </g>
    <path
       style="fill:url(#linearGradient3010);fill-opacity:1;fill-rule:nonzero;stroke:#888a85;stroke-width:1.00000012;stroke-linecap:round;stroke-linejoin:round;marker:none;marker-start:none;marker-mid:none;marker-end:none;stroke-miterlimit:4;stroke-dashoffset:1.20000057;stroke-opacity:1;visibility:visible;display:inline;overflow:visible"
       d="M 11.486244,8.0149346 L 4,15.50118 C 3.715378,15.50118 3.486243,15.272044 3.486243,14.987422 L 3.486243,8.0149346 C 3.486243,7.7303131 3.715378,7.5011774 4,7.5011774 L 10.972487,7.5011774 C 11.257108,7.5011774 11.486244,7.7303131 11.486244,8.0149346 z"
       id="path4583"
       sodipodi:nodetypes="ccccccc" />
    <path
       style="fill:url(#linearGradient3007);fill-opacity:1;fill-rule:nonzero;stroke:#888a85;stroke-width:1;stroke-linecap:round;stroke-linejoin:round;marker:none;marker-start:none;marker-mid:none;marker-end:none;stroke-miterlimit:4;stroke-dasharray:none;stroke-dashoffset:1.20000057;stroke-opacity:1;visibility:visible;display:inline;overflow:visible"
       d="M 43.983443,15.513757 L 36.497199,8.0275139 C 36.497199,7.7428919 36.726334,7.5137569 37.010956,7.5137569 L 43.983443,7.5137569 C 44.268065,7.5137569 44.497201,7.7428919 44.497201,8.0275139 L 44.497201,15 C 44.497201,15.284622 44.268065,15.513757 43.983443,15.513757 z"
       id="path4589"
       sodipodi:nodetypes="ccccccc" />
    <path
       style="opacity:0.5;fill:url(#linearGradient3004);fill-opacity:1;fill-rule:nonzero;stroke:none;stroke-width:1;stroke-linecap:round;stroke-linejoin:miter;marker:none;stroke-miterlimit:4;stroke-dasharray:none;stroke-dashoffset:1.20000057;stroke-opacity:1;visibility:visible;display:inline;overflow:visible"
       d="M 37.21875,8.0167919 L 38.09375,8.8605419 L 38.25,9.0167919 L 39.625,9.0167919 L 43,9.0167919 L 43,12.391792 L 43,13.766792 L 43.15625,13.923042 L 44,14.798042 L 44,13.579292 L 44,8.5167919 L 44,8.0167919 L 43.5,8.0167919 L 38.4375,8.0167919 L 37.21875,8.0167919 z"
       id="path4591" />
    <path
       style="fill:url(#linearGradient3001);fill-opacity:1;fill-rule:nonzero;stroke:#888a85;stroke-width:1.00000012;stroke-linecap:round;stroke-linejoin:round;marker:none;marker-start:none;marker-mid:none;marker-end:none;stroke-miterlimit:4;stroke-dashoffset:1.20000057;stroke-opacity:1;visibility:visible;display:inline;overflow:visible"
       d="M 36.4972,37.972486 L 43.983443,30.486243 C 44.268065,30.486243 44.4972,30.715378 44.4972,31 L 44.4972,37.972486 C 44.4972,38.257108 44.268065,38.486245 43.983443,38.486245 L 37.010957,38.486245 C 36.726335,38.486245 36.4972,38.257108 36.4972,37.972486 z"
       id="path4595"
       sodipodi:nodetypes="ccccccc" />
    <path
       sodipodi:type="inkscape:offset"
       inkscape:radius="-0.9952234"
       inkscape:original="M 3 31.5 C 2.7153785 31.5 2.5 31.715378 2.5 32 L 2.5 39 C 2.5 39.284622 2.7153785 39.499999 3 39.5 L 10 39.5 C 10.284622 39.5 10.5 39.284623 10.5 39 L 3 31.5 z "
       style="opacity:0.6;fill:none;fill-opacity:1;fill-rule:nonzero;stroke:url(#linearGradient5540);stroke-width:1;stroke-linecap:round;stroke-linejoin:miter;marker:none;marker-start:none;marker-mid:none;marker-end:none;stroke-miterlimit:4;stroke-dasharray:none;stroke-dashoffset:1.20000057;stroke-opacity:1;visibility:visible;display:inline;overflow:visible"
       id="path4597"
       d="M 3.5,33.4375 L 3.5,38.5 L 8.5625,38.5 L 3.5,33.4375 z"
       transform="matrix(0,-1,1,0,5.0128145,40.954302)" />
    <path
       style="opacity:0.5;fill:url(#linearGradient2996);fill-opacity:1;fill-rule:nonzero;stroke:none;stroke-width:1;stroke-linecap:round;stroke-linejoin:miter;marker:none;stroke-miterlimit:4;stroke-dashoffset:1.20000057;stroke-opacity:1;visibility:visible;display:inline;overflow:visible"
       d="M 10.781251,8 L 9.9062505,8.84375 L 9.7500001,9 L 8.375,9 L 5,9 L 5,12.375 L 5,13.75 L 4.84375,13.90625 L 4,14.78125 L 4,13.5625 L 4,8.5 L 4,8 L 4.5,8 L 9.5625001,8 L 10.781251,8 z"
       id="path5522" />
    <g
       id="layer6"
       inkscape:label="Shadow"
       transform="translate(-42.70823,29.563374)" />
    <g
       style="display:inline"
       inkscape:label="Base"
       id="g6461"
       transform="translate(-42.70823,29.563374)" />
    <g
       id="g2637"
       inkscape:label="base"
       style="display:inline"
       transform="translate(-54.97336,77.063364)" />
  </g>
</svg>
