<?xml version="1.0" encoding="UTF-8" standalone="no"?>
<!-- Created with Inkscape (http://www.inkscape.org/) -->

<svg
   xmlns:dc="http://purl.org/dc/elements/1.1/"
   xmlns:cc="http://creativecommons.org/ns#"
   xmlns:rdf="http://www.w3.org/1999/02/22-rdf-syntax-ns#"
   xmlns:svg="http://www.w3.org/2000/svg"
   xmlns="http://www.w3.org/2000/svg"
   xmlns:xlink="http://www.w3.org/1999/xlink"
   xmlns:sodipodi="http://sodipodi.sourceforge.net/DTD/sodipodi-0.dtd"
   xmlns:inkscape="http://www.inkscape.org/namespaces/inkscape"
   inkscape:export-ydpi="90.000000"
   inkscape:export-xdpi="90.000000"
   inkscape:export-filename="/home/jimmac/Desktop/wi-fi.png"
   width="48"
   height="48"
   id="svg11300"
   sodipodi:version="0.32"
   inkscape:version="0.47+devel r9474"
   sodipodi:docname="plugin-showmouse.svg"
   inkscape:output_extension="org.inkscape.output.svg.inkscape"
   sodipodi:modified="true"
   version="1.0">
  <defs
     id="defs3">
    <linearGradient
       inkscape:collect="always"
       id="linearGradient8676">
      <stop
         style="stop-color:#ffffff;stop-opacity:1;"
         offset="0"
         id="stop8678" />
      <stop
         style="stop-color:#ffffff;stop-opacity:0;"
         offset="1"
         id="stop8680" />
    </linearGradient>
    <linearGradient
       inkscape:collect="always"
       id="linearGradient8668">
      <stop
         style="stop-color:#ffffff;stop-opacity:1;"
         offset="0"
         id="stop8670" />
      <stop
         style="stop-color:#ffffff;stop-opacity:0;"
         offset="1"
         id="stop8672" />
    </linearGradient>
    <linearGradient
       inkscape:collect="always"
       id="linearGradient8660">
      <stop
         style="stop-color:#ffffff;stop-opacity:1;"
         offset="0"
         id="stop8662" />
      <stop
         style="stop-color:#ffffff;stop-opacity:0;"
         offset="1"
         id="stop8664" />
    </linearGradient>
    <linearGradient
       inkscape:collect="always"
       id="linearGradient8681">
      <stop
         style="stop-color:#edd400;stop-opacity:1;"
         offset="0"
         id="stop8683" />
      <stop
         style="stop-color:#edd400;stop-opacity:0;"
         offset="1"
         id="stop8685" />
    </linearGradient>
    <linearGradient
       inkscape:collect="always"
       id="linearGradient8673">
      <stop
         style="stop-color:#edd400;stop-opacity:1;"
         offset="0"
         id="stop8675" />
      <stop
         style="stop-color:#edd400;stop-opacity:0;"
         offset="1"
         id="stop8677" />
    </linearGradient>
    <linearGradient
       inkscape:collect="always"
       id="linearGradient8665">
      <stop
         style="stop-color:#edd400;stop-opacity:1;"
         offset="0"
         id="stop8667" />
      <stop
         style="stop-color:#edd400;stop-opacity:0;"
         offset="1"
         id="stop8669" />
    </linearGradient>
    <linearGradient
       inkscape:collect="always"
       id="linearGradient8716">
      <stop
         style="stop-color:#edd400;stop-opacity:1;"
         offset="0"
         id="stop8718" />
      <stop
         style="stop-color:#edd400;stop-opacity:0;"
         offset="1"
         id="stop8720" />
    </linearGradient>
    <linearGradient
       id="linearGradient124">
      <stop
         id="stop125"
         offset="0.0000000"
         style="stop-color:#ffffff;stop-opacity:1.0000000;" />
      <stop
         id="stop126"
         offset="1"
         style="stop-color:silver;stop-opacity:1;" />
    </linearGradient>
    <linearGradient
       id="linearGradient10554"
       inkscape:collect="always">
      <stop
         id="stop10556"
         offset="0"
         style="stop-color:white;stop-opacity:1;" />
      <stop
         id="stop10558"
         offset="1"
         style="stop-color:white;stop-opacity:0;" />
    </linearGradient>
    <linearGradient
       inkscape:collect="always"
       xlink:href="#linearGradient124"
       id="linearGradient4372"
       gradientUnits="userSpaceOnUse"
       gradientTransform="matrix(1.4019046,3.2381864,-0.8095466,0.3504761,-482.91339,-745.38115)"
       x1="253.75711"
       y1="-129.52815"
       x2="252.00447"
       y2="-135.47408" />
    <radialGradient
       inkscape:collect="always"
       xlink:href="#linearGradient124"
       id="radialGradient4374"
       gradientUnits="userSpaceOnUse"
       gradientTransform="matrix(1.279254,0,0,1.7073246,-321.71546,-587.15241)"
       cx="307.7507"
       cy="361.47824"
       fx="307.7507"
       fy="361.47824"
       r="12.509617" />
    <radialGradient
       inkscape:collect="always"
       xlink:href="#linearGradient8716"
       id="radialGradient8722"
       cx="17.5625"
       cy="2.5505798"
       fx="17.5625"
       fy="2.5505798"
       r="12.84375"
       gradientTransform="matrix(1.9476015,0.79117608,-0.41905639,1.0277844,-18.156396,-26.350611)"
       gradientUnits="userSpaceOnUse" />
    <radialGradient
       inkscape:collect="always"
       xlink:href="#linearGradient8716"
       id="radialGradient8726"
       gradientUnits="userSpaceOnUse"
       gradientTransform="matrix(-0.67338336,-1.9105257,1.0080134,-0.35635365,22.441093,59.699531)"
       cx="17.5625"
       cy="2.5505798"
       fx="17.5625"
       fy="2.5505798"
       r="12.84375" />
    <radialGradient
       inkscape:collect="always"
       xlink:href="#linearGradient8716"
       id="radialGradient8730"
       gradientUnits="userSpaceOnUse"
       gradientTransform="matrix(-1.7139644,1.2890719,-0.68170256,-0.90476342,74.624361,-10.731433)"
       cx="17.5625"
       cy="2.5505798"
       fx="17.5625"
       fy="2.5505798"
       r="12.84375" />
    <linearGradient
       inkscape:collect="always"
       xlink:href="#linearGradient8665"
       id="linearGradient8671"
       x1="20.585707"
       y1="5.8888607"
       x2="37.848656"
       y2="14.418337"
       gradientUnits="userSpaceOnUse"
       gradientTransform="matrix(0.97455977,0,0,0.97412621,0.04589061,-16.78167)" />
    <linearGradient
       inkscape:collect="always"
       xlink:href="#linearGradient8673"
       id="linearGradient8679"
       x1="8.4011497"
       y1="37.36874"
       x2="5.5226607"
       y2="18.895575"
       gradientUnits="userSpaceOnUse"
       gradientTransform="matrix(0.97455977,0,0,0.97412621,0.04589061,-16.78167)" />
    <linearGradient
       inkscape:collect="always"
       xlink:href="#linearGradient8681"
       id="linearGradient8687"
       x1="41.054279"
       y1="34.407265"
       x2="22.929279"
       y2="40.157265"
       gradientUnits="userSpaceOnUse"
       gradientTransform="matrix(0.97455977,0,0,0.97412621,0.04589061,-16.78167)" />
    <linearGradient
       inkscape:collect="always"
       xlink:href="#linearGradient8660"
       id="linearGradient8666"
       x1="41.65625"
       y1="32.163155"
       x2="24.516338"
       y2="42.413155"
       gradientUnits="userSpaceOnUse" />
    <linearGradient
       inkscape:collect="always"
       xlink:href="#linearGradient8668"
       id="linearGradient8674"
       x1="9.6503668"
       y1="39.639404"
       x2="5.1133409"
       y2="20.635908"
       gradientUnits="userSpaceOnUse" />
    <linearGradient
       inkscape:collect="always"
       xlink:href="#linearGradient8676"
       id="linearGradient8682"
       x1="22.121695"
       y1="6.4904122"
       x2="37.09375"
       y2="13.296315"
       gradientUnits="userSpaceOnUse" />
    <linearGradient
       inkscape:collect="always"
       xlink:href="#linearGradient10554"
       id="linearGradient8678"
       gradientUnits="userSpaceOnUse"
       gradientTransform="matrix(1.5347684,0,0,1.4230823,-296.72742,-584.34298)"
       x1="240.9062"
       y1="425.18195"
       x2="248.28683"
       y2="437.96558" />
  </defs>
  <sodipodi:namedview
     stroke="#ef2929"
     fill="#eeeeec"
     id="base"
     pagecolor="#ffffff"
     bordercolor="#666666"
     borderopacity="0.25490196"
     inkscape:pageopacity="0.0"
     inkscape:pageshadow="2"
     inkscape:zoom="7.5572037"
     inkscape:cx="0.77712459"
     inkscape:cy="24"
     inkscape:current-layer="layer1"
     showgrid="false"
     inkscape:grid-bbox="true"
     inkscape:document-units="px"
     inkscape:showpageshadow="false"
     inkscape:window-width="1278"
     inkscape:window-height="710"
     inkscape:window-x="0"
     inkscape:window-y="49"
     showguides="true"
     inkscape:guide-bbox="true"
     inkscape:window-maximized="0">
    <inkscape:grid
       type="xygrid"
       id="grid7912"
       visible="true"
       enabled="true"
       empspacing="5"
       snapvisiblegridlinesonly="true" />
  </sodipodi:namedview>
  <metadata
     id="metadata4">
    <rdf:RDF>
      <cc:Work
         rdf:about="">
        <dc:format>image/svg+xml</dc:format>
        <dc:type
           rdf:resource="http://purl.org/dc/dcmitype/StillImage" />
        <dc:creator>
          <cc:Agent>
            <dc:title>Patrick Niklaus</dc:title>
          </cc:Agent>
        </dc:creator>
        <dc:source />
        <cc:license
           rdf:resource="http://creativecommons.org/licenses/GPL/2.0/" />
        <dc:title>State</dc:title>
        <dc:subject>
          <rdf:Bag />
        </dc:subject>
      </cc:Work>
      <cc:License
         rdf:about="http://creativecommons.org/licenses/GPL/2.0/">
        <cc:permits
           rdf:resource="http://web.resource.org/cc/Reproduction" />
        <cc:permits
           rdf:resource="http://web.resource.org/cc/Distribution" />
        <cc:requires
           rdf:resource="http://web.resource.org/cc/Notice" />
        <cc:permits
           rdf:resource="http://web.resource.org/cc/DerivativeWorks" />
        <cc:requires
           rdf:resource="http://web.resource.org/cc/ShareAlike" />
        <cc:requires
           rdf:resource="http://web.resource.org/cc/SourceCode" />
      </cc:License>
    </rdf:RDF>
  </metadata>
  <g
     id="layer1"
     inkscape:label="Layer 1"
     inkscape:groupmode="layer"
     transform="translate(0,16)">
    <path
       inkscape:transform-center-y="-0.10789887"
       inkscape:transform-center-x="-0.37648674"
       transform="matrix(-0.08225842,0.0327152,-0.0327152,-0.08225842,6.1068733,6.9919962)"
       d="m -124.49551,137.94391 -33.48808,-18.37552 -33.29863,18.71663 7.12778,-37.5274 -28.09041,-25.885125 37.89328,-4.817684 15.9378,-34.714516 16.29155,34.549909 37.94052,4.430369 -27.82455,26.170707 z"
       inkscape:randomized="0"
       inkscape:rounded="0"
       inkscape:flatsided="false"
       sodipodi:arg2="1.565689"
       sodipodi:arg1="0.93737044"
       sodipodi:r2="27.416285"
       sodipodi:r1="56.812904"
       sodipodi:cy="92.152458"
       sodipodi:cx="-158.12361"
       sodipodi:sides="5"
       id="path3785"
       style="fill:#fce94f;fill-opacity:1;stroke:#d9b12a;stroke-width:11.29620339;stroke-miterlimit:4;stroke-opacity:1;stroke-dasharray:none"
       sodipodi:type="star" />
    <path
       style="fill:url(#radialGradient8722);fill-opacity:1;stroke:url(#linearGradient8671);stroke-width:1.41456532;stroke-linecap:round;stroke-linejoin:miter;stroke-miterlimit:4;stroke-opacity:1;stroke-dasharray:none;stroke-dashoffset:0"
       d="m 15.621105,-13.072934 c -0.233729,0.06804 -0.45774,0.15314 -0.686801,0.228749 l 0.0071,0.02674 c -0.110484,0.0225 -0.218028,0.03452 -0.32835,0.06662 -2.064487,0.600625 -3.278722,2.670913 -2.706162,4.6355604 0.572574,1.9646478 2.717153,3.0866795 4.781641,2.4860539 0.110336,-0.032108 0.207504,-0.079647 0.312803,-0.1199603 l 0.0155,0.053334 c 0.514067,-0.1969475 1.047867,-0.3627222 1.587312,-0.5196678 7.447474,-2.1667186 15.009814,0.246587 19.131613,5.48685866 C 37.639831,-1.3783424 37.497735,-2.0425365 37.309652,-2.6879455 34.830368,-11.195056 25.116323,-15.835538 15.620357,-13.072864 z"
       id="path8705"
       inkscape:transform-center-y="1.4899535"
       inkscape:transform-center-x="-0.35243114"
       inkscape:connector-curvature="0" />
    <path
       sodipodi:type="star"
       style="fill:#fce94f;fill-opacity:1;stroke:#d9b12a;stroke-width:11.29620339;stroke-miterlimit:4;stroke-opacity:1;stroke-dasharray:none"
       id="path3783"
       sodipodi:sides="5"
       sodipodi:cx="-158.12361"
       sodipodi:cy="92.152458"
       sodipodi:r1="56.812904"
       sodipodi:r2="27.416285"
       sodipodi:arg1="0.93737044"
       sodipodi:arg2="1.565689"
       inkscape:flatsided="false"
       inkscape:rounded="0"
       inkscape:randomized="0"
       d="m -124.49551,137.94391 -33.48808,-18.37552 -33.29863,18.71663 7.12778,-37.5274 -28.09041,-25.885125 37.89328,-4.817684 15.9378,-34.714516 16.29155,34.549909 37.94052,4.430369 -27.82455,26.170707 z"
       transform="matrix(-0.08225842,0.0327152,-0.0327152,-0.08225842,3.76055,1.5172438)"
       inkscape:transform-center-x="-0.37648704"
       inkscape:transform-center-y="-0.10789805" />
    <path
       sodipodi:type="inkscape:offset"
       inkscape:radius="-1.3593043"
       inkscape:original="M 23.21875 3.0625 C 20.874307 2.8782667 18.404712 3.1034849 15.96875 3.8125 C 15.728921 3.882305 15.516291 3.9536262 15.28125 4.03125 L 15.28125 4.0625 C 15.167865 4.0855697 15.0507 4.0920521 14.9375 4.125 C 12.819122 4.741579 11.56874 6.8894242 12.15625 8.90625 C 12.743761 10.923075 14.944121 12.05408 17.0625 11.4375 C 17.175698 11.404553 17.298199 11.353882 17.40625 11.3125 L 17.40625 11.375 C 17.933743 11.172825 18.477721 11.004861 19.03125 10.84375 C 26.673144 8.619488 34.458112 11.089286 38.6875 16.46875 C 38.58909 15.801805 38.443 15.131289 38.25 14.46875 C 36.342009 7.918938 30.252078 3.6151999 23.21875 3.0625 z "
       style="fill:none;stroke:url(#linearGradient8682);stroke-width:1.45181465;stroke-linecap:round;stroke-linejoin:miter;stroke-miterlimit:4;stroke-opacity:0.54983921;stroke-dasharray:none;stroke-dashoffset:0"
       id="path8756"
       d="M 23.125,4.40625 C 20.941135,4.2346354 18.617178,4.4632922 16.34375,5.125 16.230056,5.1580919 16.114814,5.1815407 16,5.21875 A 1.3594402,1.3594402 0 0 1 15.96875,5.25 1.3594402,1.3594402 0 0 1 15.5625,5.40625 c -0.243913,0.049627 -0.332514,0.055267 -0.25,0.03125 -1.442887,0.4199694 -2.213944,1.822933 -1.84375,3.09375 0.370793,1.2728704 1.771143,2.015094 3.21875,1.59375 0.0068,-0.002 0.08505,-0.04255 0.21875,-0.09375 a 1.3594402,1.3594402 0 0 1 0.375,-0.0625 c 0.0094,-0.00333 0.02183,0.00331 0.03125,0 0.447263,-0.1571869 0.907473,-0.3105165 1.34375,-0.4375 6.028757,-1.7547396 12.156882,-0.752806 16.8125,2.25 C 32.975089,7.5960684 28.438957,4.8238366 23.125,4.40625 z"
       transform="matrix(0.97455978,0,0,0.97412622,0.04588897,-16.781669)" />
    <path
       inkscape:transform-center-y="0.10789797"
       inkscape:transform-center-x="0.37648686"
       transform="matrix(0.08225842,-0.0327152,0.0327152,0.08225842,23.455142,12.944838)"
       d="m -124.49551,137.94391 -33.48808,-18.37552 -33.29863,18.71663 7.12778,-37.5274 -28.09041,-25.885125 37.89328,-4.817684 15.9378,-34.714516 16.29155,34.549909 37.94052,4.430369 -27.82455,26.170707 z"
       inkscape:randomized="0"
       inkscape:rounded="0"
       inkscape:flatsided="false"
       sodipodi:arg2="1.565689"
       sodipodi:arg1="0.93737044"
       sodipodi:r2="27.416285"
       sodipodi:r1="56.812904"
       sodipodi:cy="92.152458"
       sodipodi:cx="-158.12361"
       sodipodi:sides="5"
       id="path3787"
       style="fill:#fce94f;fill-opacity:1;stroke:#d9b12a;stroke-width:11.29620339;stroke-miterlimit:4;stroke-opacity:1;stroke-dasharray:none"
       sodipodi:type="star" />
    <path
       id="path8724"
       d="m 10.442805,26.849321 c 0.198194,0.124888 0.402543,0.231816 0.60327,0.348472 l 0.01434,-0.02269 c 0.08672,0.06524 0.164051,0.135042 0.257605,0.193992 1.750738,1.103203 4.017508,0.652153 5.067412,-1.019038 1.049904,-1.671187 0.48913,-3.935629 -1.261607,-5.038832 -0.09351,-0.05894 -0.18985,-0.09853 -0.286111,-0.148607 l 0.02858,-0.04538 C 14.396207,20.872881 13.935977,20.594354 13.478522,20.306089 7.1628401,16.326371 4.0735422,9.3299874 5.2175163,3.0024134 4.8106589,3.4877233 4.4228554,4.0156242 4.0779563,4.564618 -0.46827398,11.80106 2.3901243,21.774957 10.442976,26.849322 z"
       style="opacity:0.98000004;fill:url(#radialGradient8726);fill-opacity:1;stroke:url(#linearGradient8679);stroke-width:1.41456532;stroke-linecap:round;stroke-linejoin:miter;stroke-miterlimit:4;stroke-opacity:1;stroke-dasharray:none;stroke-dashoffset:0"
       inkscape:connector-curvature="0" />
    <path
       inkscape:transform-center-y="0.10789828"
       inkscape:transform-center-x="0.3764943"
       transform="matrix(0.08225842,-0.0327152,0.0327152,0.08225842,52.262765,1.8649813)"
       d="m -124.49551,137.94391 -33.48808,-18.37552 -33.29863,18.71663 7.12778,-37.5274 -28.09041,-25.885125 37.89328,-4.817684 15.9378,-34.714516 16.29155,34.549909 37.94052,4.430369 -27.82455,26.170707 z"
       inkscape:randomized="0"
       inkscape:rounded="0"
       inkscape:flatsided="false"
       sodipodi:arg2="1.565689"
       sodipodi:arg1="0.93737044"
       sodipodi:r2="27.416285"
       sodipodi:r1="56.812904"
       sodipodi:cy="92.152458"
       sodipodi:cx="-158.12361"
       sodipodi:sides="5"
       id="path3781"
       style="fill:#fce94f;fill-opacity:1;stroke:#d9b12a;stroke-width:11.29620339;stroke-miterlimit:4;stroke-opacity:1;stroke-dasharray:none"
       sodipodi:type="star" />
    <path
       style="fill:url(#radialGradient8730);fill-opacity:1;stroke:url(#linearGradient8687);stroke-width:1.41456532;stroke-linecap:round;stroke-linejoin:miter;stroke-miterlimit:4;stroke-opacity:1;stroke-dasharray:none;stroke-dashoffset:0"
       d="m 45.287972,11.857507 c 0.0628,-0.240034 0.105485,-0.480538 0.159222,-0.720483 l -0.02736,-0.0072 c 0.03824,-0.108413 0.0839,-0.208757 0.113566,-0.32205 0.554805,-2.1201862 -0.624495,-4.2663854 -2.647129,-4.7944859 -2.022634,-0.5281135 -4.12989,0.7599815 -4.684679,2.8801678 -0.02967,0.1133016 -0.03889,0.2231814 -0.05867,0.3363925 l -0.05488,-0.01434 c -0.0966,0.5527597 -0.230846,1.1064466 -0.375811,1.6604496 -2.001339,7.64841 -8.078852,12.998737 -14.832951,13.859411 0.61992,0.256359 1.276787,0.479911 1.941222,0.653396 8.758241,2.28675 17.915817,-3.779128 20.467627,-13.531286 z"
       id="path8728"
       inkscape:connector-curvature="0" />
    <path
       sodipodi:type="star"
       style="fill:#fce94f;fill-opacity:1;stroke:#d9b12a;stroke-width:11.29620339;stroke-miterlimit:4;stroke-opacity:1;stroke-dasharray:none"
       id="path3789"
       sodipodi:sides="5"
       sodipodi:cx="-158.12361"
       sodipodi:cy="92.152458"
       sodipodi:r1="56.812904"
       sodipodi:r2="27.416285"
       sodipodi:arg1="0.93737044"
       sodipodi:arg2="1.565689"
       inkscape:flatsided="false"
       inkscape:rounded="0"
       inkscape:randomized="0"
       d="m -124.49551,137.94391 -33.48808,-18.37552 -33.29863,18.71663 7.12778,-37.5274 -28.09041,-25.885125 37.89328,-4.817684 15.9378,-34.714516 16.29155,34.549909 37.94052,4.430369 -27.82455,26.170707 z"
       transform="matrix(0.08225842,-0.0327152,0.0327152,0.08225842,21.108817,7.4700849)"
       inkscape:transform-center-x="0.37648833"
       inkscape:transform-center-y="0.10789828" />
    <path
       sodipodi:type="inkscape:offset"
       inkscape:radius="-1.493752"
       inkscape:original="M 5.3125 20.3125 C 4.8950349 20.810695 4.4789042 21.342673 4.125 21.90625 C -0.5399003 29.334897 2.3931885 39.572104 10.65625 44.78125 C 10.859632 44.909463 11.075292 45.036496 11.28125 45.15625 L 11.3125 45.125 C 11.401501 45.191978 11.466507 45.251982 11.5625 45.3125 C 13.358947 46.445003 15.703934 45.996829 16.78125 44.28125 C 17.858567 42.565672 17.265197 40.226255 15.46875 39.09375 C 15.372756 39.033235 15.286284 38.988903 15.1875 38.9375 L 15.21875 38.90625 C 14.736391 38.655409 14.250659 38.358421 13.78125 38.0625 C 7.3007065 33.977077 4.1386745 26.808141 5.3125 20.3125 z "
       style="fill:none;stroke:url(#linearGradient8674);stroke-width:1.45181465;stroke-linecap:round;stroke-linejoin:miter;stroke-miterlimit:4;stroke-opacity:0.52411577;stroke-dasharray:none;stroke-dashoffset:0"
       id="path8764"
       d="m 3.9375,26.125 c -1.7097911,6.153437 1.0850399,13.362172 7.5,17.40625 0.058,0.03657 0.125114,0.08718 0.1875,0.125 a 1.4939014,1.4939014 0 0 1 0.15625,0.0625 1.4939014,1.4939014 0 0 1 0.4375,0.21875 c 0.152263,0.114586 0.148457,0.139788 0.125,0.125 1.149978,0.724961 2.567034,0.425565 3.1875,-0.5625 0.620714,-0.988458 0.293187,-2.439509 -0.84375,-3.15625 C 14.655438,40.323538 14.603459,40.303836 14.5,40.25 A 1.4939014,1.4939014 0 0 1 14.125,40 1.4939014,1.4939014 0 0 1 14.09375,39.96875 C 13.714293,39.754145 13.344983,39.529981 13,39.3125 7.9953671,36.157511 4.8620708,31.279175 3.9375,26.125 z"
       transform="matrix(0.97455978,0,0,0.97412622,0.04588897,-16.781669)" />
    <g
       id="g4366"
       transform="matrix(0.92148527,0,0,0.90432574,-49.30258,-19.554954)">
      <path
         sodipodi:nodetypes="cccccccc"
         style="fill:none;stroke:#888a85;stroke-width:1.54958844;stroke-linecap:round;stroke-linejoin:round;stroke-miterlimit:4;stroke-opacity:1;stroke-dasharray:none;stroke-dashoffset:0"
         d="m 71.401064,17.737975 0,21.977386 6.978408,-4.269247 4.268574,9.161092 3.501191,-1.423081 -4.172651,-8.938737 6.28196,-0.622598 -16.857482,-15.884815 z"
         id="rect16"
         inkscape:connector-curvature="0" />
      <path
         transform="matrix(0.8698963,0,0,0.8065934,98.369116,14.067108)"
         d="m -22.34375,19.125 -2.40625,1 a 0.35634045,0.35634045 0 0 0 -0.21875,0.40625 l 0.78125,5.375 a 0.35634045,0.35634045 0 0 0 0.34375,0.28125 l 1.28125,-0.0625 4.625,10.71875 a 0.35634045,0.35634045 0 0 0 0.03125,0.0625 0.35634045,0.35634045 0 0 0 0.40625,0.125 L -15.0625,36 a 0.35634045,0.35634045 0 0 0 0.1875,-0.5 l -4.46875,-10.3125 0.71875,-0.96875 a 0.35634045,0.35634045 0 0 0 0,-0.4375 L -21.9375,19.25 a 0.35634045,0.35634045 0 0 0 -0.03125,-0.03125 0.35634045,0.35634045 0 0 0 -0.375,-0.09375 z"
         id="path2887"
         style="fill:url(#linearGradient4372);fill-opacity:1;fill-rule:evenodd;stroke:none"
         inkscape:original="M -22.21875 19.46875 L -24.625 20.46875 L -23.84375 25.84375 L -22.34375 25.78125 L -17.625 36.6875 L -15.1875 35.65625 L -19.75 25.125 L -18.90625 24 L -22.21875 19.46875 z "
         inkscape:radius="0.35630482"
         sodipodi:type="inkscape:offset" />
      <path
         sodipodi:nodetypes="ccccc"
         id="path2891"
         d="m 72.159588,19.530082 c 0.01838,0.02654 0.113307,12.352976 -0.01364,18.853012 l 7.646334,-4.74237 c 2.274689,-0.29736 7.51279,-0.318178 7.544108,-0.326279 L 72.15959,19.530082 z"
         style="fill:url(#radialGradient4374);fill-opacity:1;fill-rule:evenodd;stroke:none"
         inkscape:connector-curvature="0" />
      <path
         style="fill:none;stroke:url(#linearGradient8678);stroke-width:1.54958844;stroke-linecap:butt;stroke-linejoin:miter;stroke-miterlimit:4;stroke-opacity:1;stroke-dashoffset:0"
         d="m 72.958869,21.309665 c 0.0076,5.067586 -0.0017,9.029063 -0.03207,14.09656 -3.89e-4,0.536623 0.0012,1.073245 8.16e-4,1.609868 2.229167,-1.385417 4.33961,-2.772178 6.568777,-4.157595 3.000848,-0.30174 3.907875,-0.212901 5.875934,-0.285345 -4.23183,-3.987449 -8.16602,-7.292665 -12.41346,-11.263488 z"
         id="path8732"
         sodipodi:nodetypes="cscccc"
         inkscape:connector-curvature="0" />
    </g>
    <path
       sodipodi:type="star"
       style="fill:#fce94f;fill-opacity:1;stroke:#d9b12a;stroke-width:11.29620339;stroke-miterlimit:4;stroke-opacity:1;stroke-dasharray:none"
       id="path3779"
       sodipodi:sides="5"
       sodipodi:cx="-158.12361"
       sodipodi:cy="92.152458"
       sodipodi:r1="56.812904"
       sodipodi:r2="27.416285"
       sodipodi:arg1="0.93737044"
       sodipodi:arg2="1.565689"
       inkscape:flatsided="false"
       inkscape:rounded="0"
       inkscape:randomized="0"
       d="m -124.49551,137.94391 -33.48808,-18.37552 -33.29863,18.71663 7.12778,-37.5274 -28.09041,-25.885125 37.89328,-4.817684 15.9378,-34.714516 16.29155,34.549909 37.94052,4.430369 -27.82455,26.170707 z"
       transform="matrix(0.08225842,-0.0327152,0.0327152,0.08225842,49.916445,-3.6097728)"
       inkscape:transform-center-x="0.37649071"
       inkscape:transform-center-y="0.10789747" />
    <path
       sodipodi:type="inkscape:offset"
       inkscape:radius="-1.4340611"
       inkscape:original="M 42.40625 23.3125 C 40.895852 23.55771 39.583199 24.711374 39.15625 26.34375 C 39.12583 26.460052 39.114082 26.571281 39.09375 26.6875 L 39.03125 26.6875 C 38.932132 27.254939 38.804997 27.837532 38.65625 28.40625 C 36.602661 36.257809 30.367905 41.741465 23.4375 42.625 C 24.073604 42.888167 24.724458 43.103156 25.40625 43.28125 C 34.393117 45.628738 43.81906 39.417436 46.4375 29.40625 C 46.50195 29.159842 46.538664 28.902567 46.59375 28.65625 L 46.5625 28.65625 C 46.601675 28.544958 46.657079 28.428802 46.6875 28.3125 C 47.256766 26.136 46.044185 23.948382 43.96875 23.40625 C 43.449891 23.270717 42.909716 23.230763 42.40625 23.3125 z "
       style="fill:none;stroke:url(#linearGradient8666);stroke-width:1.45181465;stroke-linecap:round;stroke-linejoin:miter;stroke-miterlimit:4;stroke-opacity:0.51125399;stroke-dasharray:none;stroke-dashoffset:0"
       id="path8768"
       d="m 42.625,24.71875 c -0.937836,0.152256 -1.807024,0.903745 -2.09375,2 0.0033,-0.01281 -3.11e-4,0.0419 -0.03125,0.21875 a 1.4342045,1.4342045 0 0 1 -0.1875,0.5 1.4342045,1.4342045 0 0 1 0,0.03125 c -0.08713,0.435656 -0.168352,0.880848 -0.28125,1.3125 -1.622661,6.203977 -5.705366,11.032542 -10.78125,13.53125 7.009478,0.0067 13.716647,-5.26809 15.8125,-13.28125 0.01498,-0.05726 0.04513,-0.191128 0.0625,-0.28125 a 1.4342045,1.4342045 0 0 1 0,-0.125 1.4342045,1.4342045 0 0 1 0.09375,-0.4375 c 0.07602,-0.215954 0.112045,-0.319943 0.09375,-0.25 0.383594,-1.466612 -0.423888,-2.818014 -1.71875,-3.15625 -0.350055,-0.09144 -0.698405,-0.10639 -0.96875,-0.0625 z"
       transform="matrix(0.97455978,0,0,0.97412622,0.04588897,-16.781669)" />
    <path
       sodipodi:type="star"
       style="fill:#fce94f;fill-opacity:1;stroke:#d9b12a;stroke-width:9.16896196;stroke-miterlimit:4;stroke-opacity:1;stroke-dasharray:none"
       id="path3005"
       sodipodi:sides="5"
       sodipodi:cx="-158.12361"
       sodipodi:cy="92.152458"
       sodipodi:r1="56.812904"
       sodipodi:r2="27.416285"
       sodipodi:arg1="0.93737044"
       sodipodi:arg2="1.565689"
       inkscape:flatsided="false"
       inkscape:rounded="0"
       inkscape:randomized="0"
       d="m -124.49551,137.94391 -33.48808,-18.37552 -33.29863,18.71663 7.12778,-37.5274 -28.09041,-25.885125 37.89328,-4.817684 15.9378,-34.714516 16.29155,34.549909 37.94052,4.430369 -27.82455,26.170707 z"
       transform="matrix(0.1090636,0,0,0.1090636,27.971081,-17.331151)"
       inkscape:transform-center-x="0.0097807708"
       inkscape:transform-center-y="-0.58237775" />
    <path
       inkscape:transform-center-y="0.13293047"
       inkscape:transform-center-x="0.46384088"
       transform="matrix(0.10134275,-0.04030527,0.04030527,0.10134275,53.798897,-9.3059862)"
       d="m -124.49551,137.94391 -33.48808,-18.37552 -33.29863,18.71663 7.12778,-37.5274 -28.09041,-25.885125 37.89328,-4.817684 15.9378,-34.714516 16.29155,34.549909 37.94052,4.430369 -27.82455,26.170707 z"
       inkscape:randomized="0"
       inkscape:rounded="0"
       inkscape:flatsided="false"
       sodipodi:arg2="1.565689"
       sodipodi:arg1="0.93737044"
       sodipodi:r2="27.416285"
       sodipodi:r1="56.812904"
       sodipodi:cy="92.152458"
       sodipodi:cx="-158.12361"
       sodipodi:sides="5"
       id="path3775"
       style="fill:#fce94f;fill-opacity:1;stroke:#d9b12a;stroke-width:9.16896238;stroke-miterlimit:4;stroke-opacity:1;stroke-dasharray:none"
       sodipodi:type="star" />
    <path
       sodipodi:type="star"
       style="fill:#fce94f;fill-opacity:1;stroke:#d9b12a;stroke-width:9.16896152;stroke-miterlimit:4;stroke-opacity:1;stroke-dasharray:none"
       id="path3777"
       sodipodi:sides="5"
       sodipodi:cx="-158.12361"
       sodipodi:cy="92.152458"
       sodipodi:r1="56.812904"
       sodipodi:r2="27.416285"
       sodipodi:arg1="0.93737044"
       sodipodi:arg2="1.565689"
       inkscape:flatsided="false"
       inkscape:rounded="0"
       inkscape:randomized="0"
       d="m -124.49551,137.94391 -33.48808,-18.37552 -33.29863,18.71663 7.12778,-37.5274 -28.09041,-25.885125 37.89328,-4.817684 15.9378,-34.714516 16.29155,34.549909 37.94052,4.430369 -27.82455,26.170707 z"
       transform="matrix(0.1090636,0,0,0.1090636,34.765128,15.922233)"
       inkscape:transform-center-x="0.0097809942"
       inkscape:transform-center-y="-0.58237726" />
  </g>
</svg>
