<?xml version="1.0" encoding="UTF-8" standalone="no"?>
<!-- Created with Inkscape (http://www.inkscape.org/) -->

<svg
   xmlns:dc="http://purl.org/dc/elements/1.1/"
   xmlns:cc="http://creativecommons.org/ns#"
   xmlns:rdf="http://www.w3.org/1999/02/22-rdf-syntax-ns#"
   xmlns:svg="http://www.w3.org/2000/svg"
   xmlns="http://www.w3.org/2000/svg"
   xmlns:sodipodi="http://sodipodi.sourceforge.net/DTD/sodipodi-0.dtd"
   xmlns:inkscape="http://www.inkscape.org/namespaces/inkscape"
   version="1.0"
   width="48"
   height="48"
   id="svg11300"
   inkscape:version="0.47+devel r9474"
   sodipodi:docname="plugin-animationplus.svg"
   inkscape:output_extension="org.inkscape.output.svg.inkscape">
  <metadata
     id="metadata31">
    <rdf:RDF>
      <cc:Work
         rdf:about="">
        <dc:format>image/svg+xml</dc:format>
        <dc:type
           rdf:resource="http://purl.org/dc/dcmitype/StillImage" />
        <dc:title />
      </cc:Work>
    </rdf:RDF>
  </metadata>
  <sodipodi:namedview
     pagecolor="#ffffff"
     bordercolor="#666666"
     borderopacity="1"
     objecttolerance="10"
     gridtolerance="10"
     guidetolerance="10"
     inkscape:pageopacity="0"
     inkscape:pageshadow="2"
     inkscape:window-width="785"
     inkscape:window-height="565"
     id="namedview29"
     showgrid="false"
     inkscape:zoom="6.1875"
     inkscape:cx="52.363636"
     inkscape:cy="24"
     inkscape:window-x="321"
     inkscape:window-y="150"
     inkscape:window-maximized="0"
     inkscape:current-layer="svg11300" />
  <defs
     id="defs3" />
  <path
     d="m 44.377422,30.692853 c 0.249854,1.566972 0.07341,0.868105 0.121311,4.470664 C 44.396015,39.413788 11.328235,44.269003 3.5276769,48.103507 3.5437489,45.89865 3.5437489,46.848471 3.6748357,45.26335 3.607719,41.55807 41.799229,36.956835 44.377422,30.692853 z"
     id="path6775"
     sodipodi:nodetypes="ccccc"
     style="fill:#729fcf;fill-opacity:1;stroke:#5980aa;stroke-width:0.99239129;stroke-miterlimit:4;stroke-opacity:1;stroke-dasharray:none"
     inkscape:connector-curvature="0" />
  <path
     d="m 44.377422,15.926365 c 0.249854,1.566976 0.07341,0.868106 0.121311,4.470669 C 44.396015,24.647302 11.328235,29.502507 3.5276769,33.337018 3.5437484,31.13218 3.5437484,32.081979 3.6748357,30.496849 3.607719,26.79157 41.799229,22.190338 44.377422,15.926365 z"
     id="path6789"
     sodipodi:nodetypes="ccccc"
     style="fill:#f57900;fill-opacity:1;stroke:#c77459;stroke-width:0.99239129;stroke-miterlimit:4;stroke-opacity:1;stroke-dasharray:none"
     inkscape:connector-curvature="0" />
  <path
     d="M 3.6653168,30.692853 C 3.4154629,32.259825 3.5919028,31.560958 3.5440089,35.163534 3.6467296,39.413788 36.714504,44.269003 44.515064,48.103507 44.498994,45.89865 44.498994,46.848471 44.367909,45.26335 44.435022,41.55807 6.2435138,36.956835 3.6653168,30.692853 z"
     id="path6783"
     sodipodi:nodetypes="ccccc"
     style="fill:#f57900;fill-opacity:1;stroke:#c77459;stroke-width:0.99239129;stroke-miterlimit:4;stroke-opacity:1;stroke-dasharray:none"
     inkscape:connector-curvature="0" />
  <path
     d="m 44.377422,1.1598592 c 0.249854,1.5669726 0.07341,0.8681086 0.121311,4.4706713 C 44.396015,9.8807964 11.328235,14.736002 3.5276769,18.570514 3.5437484,16.365675 3.5437484,17.315469 3.6748357,15.730347 3.607719,12.025065 41.799229,7.4238353 44.377422,1.1598592 z"
     id="path6803"
     sodipodi:nodetypes="ccccc"
     style="fill:#729fcf;fill-opacity:1;stroke:#000000;stroke-width:0.03485722;stroke-miterlimit:4;stroke-opacity:1;stroke-dasharray:none"
     inkscape:connector-curvature="0" />
  <path
     d="m 3.6653168,15.926365 c -0.2498539,1.566976 -0.073414,0.868106 -0.1213079,4.470672 0.1027207,4.250265 33.1704951,9.10547 40.9710551,12.939981 -0.01607,-2.204838 -0.01607,-1.255037 -0.147155,-2.840167 C 44.435022,26.79157 6.2435138,22.190342 3.6653168,15.926365 z"
     id="path6797"
     sodipodi:nodetypes="ccccc"
     style="fill:#729fcf;fill-opacity:1;stroke:#5980aa;stroke-width:0.99239129;stroke-miterlimit:4;stroke-opacity:1;stroke-dasharray:none"
     inkscape:connector-curvature="0" />
  <path
     d="M 3.6653168,1.1598592 C 3.4154629,2.7268318 3.5919027,2.0279678 3.5440089,5.6305305 3.6467296,9.8807964 36.714504,14.736002 44.515064,18.570514 44.498995,16.365675 44.498995,17.315473 44.367909,15.730347 44.435022,12.025065 6.2435138,7.4238353 3.6653168,1.1598592 z"
     id="path6811"
     sodipodi:nodetypes="ccccc"
     style="fill:#f57900;fill-opacity:1;stroke:#c77459;stroke-width:0.99239129;stroke-miterlimit:4;stroke-opacity:1;stroke-dasharray:none"
     inkscape:connector-curvature="0" />
  <path
     inkscape:connector-curvature="0"
     style="fill:#729fcf;fill-opacity:1;stroke:#5980aa;stroke-width:0.99239129;stroke-miterlimit:4;stroke-opacity:1;stroke-dasharray:none"
     sodipodi:nodetypes="ccccc"
     id="path4486"
     d="m 44.377422,1.1598592 c 0.249854,1.5669726 0.07341,0.8681086 0.121311,4.4706713 C 44.396015,9.8807964 11.328235,14.736002 3.5276769,18.570514 3.5437484,16.365675 3.5437484,17.315469 3.6748357,15.730347 3.607719,12.025065 41.799229,7.4238353 44.377422,1.1598592 z" />
</svg>
