<?xml version="1.0" encoding="UTF-8" standalone="no"?>
<!-- Created with Inkscape (http://www.inkscape.org/) -->
<svg
   xmlns:dc="http://purl.org/dc/elements/1.1/"
   xmlns:cc="http://web.resource.org/cc/"
   xmlns:rdf="http://www.w3.org/1999/02/22-rdf-syntax-ns#"
   xmlns:svg="http://www.w3.org/2000/svg"
   xmlns="http://www.w3.org/2000/svg"
   xmlns:xlink="http://www.w3.org/1999/xlink"
   xmlns:sodipodi="http://sodipodi.sourceforge.net/DTD/sodipodi-0.dtd"
   xmlns:inkscape="http://www.inkscape.org/namespaces/inkscape"
   inkscape:export-ydpi="90.000000"
   inkscape:export-xdpi="90.000000"
   inkscape:export-filename="/home/patrick/Desktop/desktop.png"
   width="48px"
   height="48px"
   id="svg11300"
   sodipodi:version="0.32"
   inkscape:version="0.45+devel"
   sodipodi:docbase="/home/patrick/Projects/Fusion/config/ccsm/images"
   sodipodi:docname="plugin-fs.svg"
   inkscape:output_extension="org.inkscape.output.svg.inkscape">
  <defs
     id="defs3">
    <linearGradient
       id="linearGradient6969">
      <stop
         style="stop-color:#78a1d5;stop-opacity:1;"
         offset="0"
         id="stop6971" />
      <stop
         style="stop-color:#3465a4;stop-opacity:1;"
         offset="1"
         id="stop6973" />
    </linearGradient>
    <linearGradient
       id="linearGradient5810">
      <stop
         style="stop-color:#d4d4d4;stop-opacity:1;"
         offset="0"
         id="stop5812" />
      <stop
         style="stop-color:#999999;stop-opacity:1;"
         offset="1"
         id="stop5814" />
    </linearGradient>
    <linearGradient
       id="linearGradient8440">
      <stop
         style="stop-color:#edeeec;stop-opacity:1;"
         offset="0"
         id="stop8442" />
      <stop
         style="stop-color:#babdb6;stop-opacity:1;"
         offset="1"
         id="stop8444" />
    </linearGradient>
    <linearGradient
       id="linearGradient51765">
      <stop
         style="stop-color:#000000;stop-opacity:1"
         offset="0"
         id="stop51767" />
      <stop
         style="stop-color:#000000;stop-opacity:0"
         offset="1"
         id="stop51769" />
    </linearGradient>
    <linearGradient
       id="linearGradient47870">
      <stop
         style="stop-color:#000000;stop-opacity:0"
         offset="0"
         id="stop47872" />
      <stop
         style="stop-color:#000000;stop-opacity:1"
         offset="0.5"
         id="stop47878" />
      <stop
         style="stop-color:#000000;stop-opacity:0"
         offset="1"
         id="stop47874" />
    </linearGradient>
    <linearGradient
       inkscape:collect="always"
       xlink:href="#linearGradient47870"
       id="linearGradient9129"
       gradientUnits="userSpaceOnUse"
       gradientTransform="matrix(0.982794,0,0,0.9842658,-9.9809772,53.029792)"
       x1="32.084972"
       y1="-14.402173"
       x2="32.084972"
       y2="-5.5633383" />
    <radialGradient
       inkscape:collect="always"
       xlink:href="#linearGradient51765"
       id="radialGradient9131"
       gradientUnits="userSpaceOnUse"
       gradientTransform="matrix(1.965588,-1.1207771e-6,6.6884721e-7,2.0039369,-60.70285,67.647964)"
       cx="51.4375"
       cy="-12.203125"
       fx="51.4375"
       fy="-12.203125"
       r="2.171875" />
    <radialGradient
       inkscape:collect="always"
       xlink:href="#linearGradient51765"
       id="radialGradient9133"
       gradientUnits="userSpaceOnUse"
       gradientTransform="matrix(-1.965588,-1.2731588e-7,-1.2941195e-7,2.0039369,109.01887,67.647913)"
       cx="51.4375"
       cy="-12.203125"
       fx="51.4375"
       fy="-12.203125"
       r="2.171875" />
    <radialGradient
       inkscape:collect="always"
       xlink:href="#linearGradient6969"
       id="radialGradient9137"
       gradientUnits="userSpaceOnUse"
       gradientTransform="matrix(3.1627684e-2,1.2044819,-1.898884,4.9861567e-2,23.905448,2.3037761)"
       cx="13.645408"
       cy="6.998682"
       fx="13.645408"
       fy="6.998682"
       r="22.562502" />
    <radialGradient
       inkscape:collect="always"
       xlink:href="#linearGradient5810"
       id="radialGradient9141"
       gradientUnits="userSpaceOnUse"
       gradientTransform="matrix(0.191332,2.6247762,-2.5727803,0.1875417,24.858014,0.568714)"
       cx="3.3189297"
       cy="8.3332911"
       fx="3.3189297"
       fy="8.3332911"
       r="18.265773" />
    <radialGradient
       inkscape:collect="always"
       xlink:href="#linearGradient8440"
       id="radialGradient9536"
       gradientUnits="userSpaceOnUse"
       gradientTransform="matrix(0.5995759,0.2750639,-0.359289,0.7831675,-16.471458,-33.846293)"
       cx="56.704376"
       cy="10.241054"
       fx="56.704376"
       fy="10.241054"
       r="14.75" />
    <linearGradient
       id="linearGradient3307"
       inkscape:collect="always">
      <stop
         id="stop3309"
         offset="0"
         style="stop-color:#888a85;stop-opacity:1;" />
      <stop
         id="stop3311"
         offset="1"
         style="stop-color:#888a85;stop-opacity:0;" />
    </linearGradient>
    <linearGradient
       id="linearGradient3315"
       inkscape:collect="always">
      <stop
         id="stop3317"
         offset="0"
         style="stop-color:white;stop-opacity:1;" />
      <stop
         id="stop3319"
         offset="1"
         style="stop-color:white;stop-opacity:0;" />
    </linearGradient>
    <linearGradient
       id="linearGradient3331"
       inkscape:collect="always">
      <stop
         id="stop3333"
         offset="0"
         style="stop-color:#d3d7cf;stop-opacity:1;" />
      <stop
         id="stop3335"
         offset="1"
         style="stop-color:#d3d7cf;stop-opacity:0;" />
    </linearGradient>
    <linearGradient
       id="linearGradient3355">
      <stop
         style="stop-color:#6f716c;stop-opacity:1;"
         offset="0"
         id="stop3357" />
      <stop
         style="stop-color:#888a85;stop-opacity:0;"
         offset="1"
         id="stop3359" />
    </linearGradient>
    <linearGradient
       inkscape:collect="always"
       xlink:href="#linearGradient3331"
       id="linearGradient2427"
       gradientUnits="userSpaceOnUse"
       x1="35.197689"
       y1="46.093544"
       x2="33.665684"
       y2="50.415848" />
    <linearGradient
       inkscape:collect="always"
       xlink:href="#linearGradient3355"
       id="linearGradient2429"
       gradientUnits="userSpaceOnUse"
       x1="38.045502"
       y1="44.886215"
       x2="33.233128"
       y2="51.470303" />
    <linearGradient
       inkscape:collect="always"
       xlink:href="#linearGradient3315"
       id="linearGradient2431"
       gradientUnits="userSpaceOnUse"
       x1="33.358002"
       y1="37.386215"
       x2="33.358002"
       y2="52.806263" />
    <linearGradient
       inkscape:collect="always"
       xlink:href="#linearGradient3307"
       id="linearGradient2433"
       gradientUnits="userSpaceOnUse"
       x1="36.201752"
       y1="37.667465"
       x2="30.034962"
       y2="41.842426" />
    <linearGradient
       inkscape:collect="always"
       id="linearGradient4138">
      <stop
         style="stop-color:#3465a4;stop-opacity:1;"
         offset="0"
         id="stop4140" />
      <stop
         style="stop-color:#3465a4;stop-opacity:0;"
         offset="1"
         id="stop4142" />
    </linearGradient>
    <linearGradient
       inkscape:collect="always"
       xlink:href="#linearGradient4138"
       id="linearGradient3577"
       gradientUnits="userSpaceOnUse"
       gradientTransform="matrix(0.8547791,-9.910609e-3,-1.0949174e-2,-0.9433915,15.108626,29.192204)"
       x1="22.958183"
       y1="13.433893"
       x2="15.305674"
       y2="25.953739" />
  </defs>
  <sodipodi:namedview
     stroke="#ef2929"
     fill="#eeeeec"
     id="base"
     pagecolor="#ffffff"
     bordercolor="#666666"
     borderopacity="0.25490196"
     inkscape:pageopacity="0.0"
     inkscape:pageshadow="2"
     inkscape:zoom="5.656854"
     inkscape:cx="32.20873"
     inkscape:cy="54.438405"
     inkscape:current-layer="layer1"
     showgrid="false"
     inkscape:grid-bbox="true"
     inkscape:document-units="px"
     inkscape:showpageshadow="false"
     inkscape:window-width="906"
     inkscape:window-height="662"
     inkscape:window-x="282"
     inkscape:window-y="93"
     showguides="true"
     inkscape:guide-bbox="true" />
  <metadata
     id="metadata4">
    <rdf:RDF>
      <cc:Work
         rdf:about="">
        <dc:format>image/svg+xml</dc:format>
        <dc:type
           rdf:resource="http://purl.org/dc/dcmitype/StillImage" />
        <dc:creator>
          <cc:Agent>
            <dc:title />
          </cc:Agent>
        </dc:creator>
        <dc:source />
        <cc:license
           rdf:resource="http://creativecommons.org/licenses/GPL/2.0/" />
        <dc:title>Desktop</dc:title>
        <dc:subject>
          <rdf:Bag />
        </dc:subject>
      </cc:Work>
      <cc:License
         rdf:about="http://creativecommons.org/licenses/GPL/2.0/">
        <cc:permits
           rdf:resource="http://web.resource.org/cc/Reproduction" />
        <cc:permits
           rdf:resource="http://web.resource.org/cc/Distribution" />
        <cc:requires
           rdf:resource="http://web.resource.org/cc/Notice" />
        <cc:permits
           rdf:resource="http://web.resource.org/cc/DerivativeWorks" />
        <cc:requires
           rdf:resource="http://web.resource.org/cc/ShareAlike" />
        <cc:requires
           rdf:resource="http://web.resource.org/cc/SourceCode" />
      </cc:License>
    </rdf:RDF>
  </metadata>
  <g
     id="layer1"
     inkscape:label="Layer 1"
     inkscape:groupmode="layer">
    <g
       id="g7423"
       transform="matrix(0.9960174,0,0,0.9710853,-3.1414238,-0.944683)">
      <rect
         width="32.488461"
         height="8.6997623"
         x="7.9137373"
         y="38.854225"
         style="opacity:0.4;fill:url(#linearGradient9129);fill-opacity:1;fill-rule:evenodd;stroke:none;stroke-width:1.02400005;stroke-linecap:butt;stroke-linejoin:miter;stroke-miterlimit:4;stroke-dasharray:none;stroke-dashoffset:0;stroke-opacity:1"
         id="rect2402" />
      <path
         d="M 40.402073,38.841314 L 40.402073,47.545914 C 42.755388,47.513052 44.671085,45.590375 44.671085,43.208994 C 44.671085,40.827614 42.755389,38.874176 40.402073,38.841314 z"
         style="opacity:0.4;fill:url(#radialGradient9131);fill-opacity:1;fill-rule:evenodd;stroke:none;stroke-width:1.02400005;stroke-linecap:butt;stroke-linejoin:miter;stroke-miterlimit:4;stroke-dasharray:none;stroke-dashoffset:0;stroke-opacity:1"
         id="path2404" />
      <path
         d="M 7.9139392,38.841314 L 7.9139392,47.545914 C 5.5606243,47.513052 3.6449278,45.590375 3.6449278,43.208994 C 3.6449278,40.827614 5.5606233,38.874176 7.9139392,38.841314 z"
         style="opacity:0.4;fill:url(#radialGradient9133);fill-opacity:1;fill-rule:evenodd;stroke:none;stroke-width:1.02400005;stroke-linecap:butt;stroke-linejoin:miter;stroke-miterlimit:4;stroke-dasharray:none;stroke-dashoffset:0;stroke-opacity:1"
         id="path2406" />
    </g>
    <path
       style="fill:url(#radialGradient9141);fill-opacity:1;fill-rule:evenodd;stroke:#888a85;stroke-width:1;stroke-linecap:round;stroke-linejoin:round;stroke-miterlimit:4;stroke-dashoffset:0;stroke-opacity:1"
       d="M 5.734375,9.6718732 L 36.109379,9.6718732 C 37.771379,9.6718732 39.109379,11.009873 39.109379,12.671873 C 39.100338,22.525098 39.121819,32.378406 39.10821,42.231609 C 39.123116,42.266455 14.755775,42.207748 2.5813175,42.229869 L 2.734375,12.671873 C 2.734375,11.009873 4.072375,9.6718732 5.734375,9.6718732 z"
       id="rect5037"
       sodipodi:nodetypes="ccccccc" />
    <path
       sodipodi:type="inkscape:offset"
       inkscape:radius="-1.0113667"
       inkscape:original="M 5 9 C 3.338 9 2 10.338 2 12 L 1.84375 41.5625 C 14.018208 41.540379 38.389904 41.597346 38.375 41.5625 C 38.388609 31.709297 38.365959 21.853225 38.375 12 C 38.375 10.338 37.037 9 35.375 9 L 5 9 z "
       style="fill:none;fill-opacity:1;fill-rule:evenodd;stroke:#d6d6d5;stroke-width:1;stroke-linecap:round;stroke-linejoin:round;stroke-miterlimit:4;stroke-dashoffset:0;stroke-opacity:1"
       id="path8507"
       d="M 5,10 C 3.8808033,10 3,10.880803 3,12 L 2.84375,40.5625 C 8.9138621,40.553536 17.407904,40.555691 24.6875,40.5625 C 28.493927,40.56606 31.90285,40.562405 34.375,40.5625 C 35.611075,40.562547 36.625613,40.564315 37.3125,40.5625 C 37.339975,40.562427 37.348521,40.562576 37.375,40.5625 C 37.385851,31.044662 37.366263,21.522019 37.375,12 C 37.375,10.880803 36.494197,10 35.375,10 L 5,10 z"
       transform="translate(0.734375,0.6718751)" />
    <g
       id="g9532"
       transform="translate(-5.8461944,21.920311)">
      <path
         id="path2591"
         d="M 13.576433,-17.524861 C 13.343159,-17.413985 13.254612,-17.146801 13.361782,-16.921323 L 14.940209,-13.60044 C 14.478109,-13.200158 14.080644,-12.733516 13.721538,-12.254181 L 10.47702,-13.308124 C 10.239682,-13.385564 9.9910327,-13.255094 9.9109129,-13.00955 L 8.7445207,-9.5050776 C 8.6644017,-9.2595354 8.8171956,-8.9923471 9.0545321,-8.914906 L 12.050534,-7.9493494 C 11.982979,-7.2297163 11.993913,-6.4960561 12.11425,-5.7670722 L 8.9136899,-4.2458357 C 8.6882118,-4.1386653 8.5881631,-3.8755715 8.6990391,-3.6422972 L 10.300341,-0.27328543 C 10.411217,-0.040011151 10.678402,0.048534236 10.903879,-0.058635914 L 14.080375,-1.5684345 C 14.528393,-1.05686 15.045993,-0.63427902 15.591519,-0.25112883 L 14.437754,3.2178411 C 14.355349,3.4626268 14.475659,3.7157351 14.712263,3.795386 L 18.192671,4.9732164 C 18.429275,5.0528669 18.676373,4.9194283 18.758777,4.6746429 L 19.922792,1.2893037 C 20.62852,1.3372474 21.347038,1.3207688 22.058129,1.1888966 L 23.590804,4.4135227 C 23.697974,4.6390005 23.961067,4.7390485 24.194342,4.6281723 L 27.563354,3.0268704 C 27.796628,2.9159944 27.885174,2.6488113 27.778004,2.4233334 L 26.222454,-0.8494209 C 26.698522,-1.2800736 27.094549,-1.7757434 27.454939,-2.2907496 L 30.709708,-1.1531763 C 30.945296,-1.0705716 31.225856,-1.1953869 31.311316,-1.4391227 L 32.537275,-4.9424062 C 32.622736,-5.186141 32.498356,-5.4373458 32.262766,-5.519951 L 28.996561,-6.6815884 C 29.030657,-7.2986863 29.006204,-7.9322046 28.902836,-8.5545946 L 32.055269,-10.052956 C 32.280747,-10.160126 32.380795,-10.42322 32.269919,-10.656494 L 30.668618,-14.025505 C 30.557742,-14.258779 30.290557,-14.347326 30.06508,-14.240156 L 26.936712,-12.753232 C 26.461051,-13.300008 25.928872,-13.776309 25.344315,-14.179422 L 26.697279,-17.477564 C 26.795498,-17.716443 26.701793,-17.983046 26.470898,-18.077985 L 23.054812,-19.492892 C 22.823916,-19.587831 22.575487,-19.457263 22.477267,-19.218383 L 21.062359,-15.802297 C 21.045359,-15.760953 21.041052,-15.713804 21.035917,-15.671726 C 20.406933,-15.712667 19.761315,-15.694321 19.127409,-15.590629 L 17.548982,-18.911512 C 17.441812,-19.13699 17.178721,-19.237039 16.945444,-19.126162 L 13.576433,-17.524861 z M 19.101685,-10.120751 C 20.982469,-11.014693 22.883477,-10.232925 23.636912,-8.6477569 C 24.390346,-7.0625868 23.796187,-5.0948595 21.915401,-4.2009162 C 20.034616,-3.3069732 18.133612,-4.0887415 17.380176,-5.6739106 C 16.62674,-7.259076 17.220901,-9.2268079 19.101685,-10.120751 z"
         style="fill:url(#radialGradient9536);fill-opacity:1;fill-rule:evenodd;stroke:#555753;stroke-width:0.99999994;stroke-linecap:butt;stroke-linejoin:miter;stroke-miterlimit:4;stroke-dasharray:none;stroke-dashoffset:0;stroke-opacity:1" />
      <path
         transform="matrix(0.7700597,-0.3660118,0.3660118,0.7700597,-33.541382,2.6925352)"
         d="M 60.84375,3.53125 C 60.841746,3.5415703 60.841746,3.5521797 60.84375,3.5625 C 60.83343,3.5604959 60.82282,3.5604959 60.8125,3.5625 C 60.810496,3.5728203 60.810496,3.5834297 60.8125,3.59375 C 60.799419,3.6011089 60.788609,3.6119186 60.78125,3.625 L 60.78125,7.15625 C 60.776577,7.7057634 60.402627,8.1922807 59.875,8.34375 C 59.307035,8.5010257 58.761996,8.7603892 58.1875,9.0625 C 57.720796,9.3067102 57.134484,9.2311717 56.75,8.875 L 54.4375,6.65625 C 54.42718,6.6542459 54.41657,6.6542459 54.40625,6.65625 C 54.398891,6.6431686 54.388081,6.6323589 54.375,6.625 C 54.361919,6.6323589 54.351109,6.6431686 54.34375,6.65625 C 54.33343,6.6542459 54.32282,6.6542459 54.3125,6.65625 L 52.375,8.65625 C 52.372996,8.6665703 52.372996,8.6771797 52.375,8.6875 C 52.361919,8.6948589 52.351109,8.7056686 52.34375,8.71875 C 52.351109,8.7318314 52.361919,8.7426411 52.375,8.75 C 52.372996,8.7603203 52.372996,8.7709297 52.375,8.78125 L 54.5,10.78125 C 54.91764,11.170897 55.029136,11.813548 54.75,12.3125 C 54.359217,12.96844 54.016014,13.667513 53.8125,14.375 C 53.661252,14.901856 53.177425,15.245303 52.625,15.25 L 49.25,15.25 C 49.23968,15.247996 49.22907,15.247996 49.21875,15.25 C 49.216746,15.26032 49.216746,15.27093 49.21875,15.28125 C 49.20843,15.279246 49.19782,15.279246 49.1875,15.28125 C 49.185496,15.29157 49.185496,15.30218 49.1875,15.3125 C 49.174419,15.319859 49.163609,15.330669 49.15625,15.34375 L 49.15625,18.15625 C 49.154246,18.16657 49.154246,18.17718 49.15625,18.1875 C 49.16657,18.189504 49.17718,18.189504 49.1875,18.1875 C 49.185496,18.19782 49.185496,18.20843 49.1875,18.21875 C 49.19782,18.220754 49.20843,18.220754 49.21875,18.21875 C 49.226109,18.231831 49.236919,18.242641 49.25,18.25 L 52.59375,18.25 C 53.143263,18.254673 53.629781,18.628622 53.78125,19.15625 C 53.959485,19.786594 54.266759,20.366705 54.625,21 C 54.892644,21.478897 54.816478,22.074996 54.4375,22.46875 L 52,25.03125 C 51.997996,25.04157 51.997996,25.05218 52,25.0625 C 51.986919,25.069859 51.976109,25.080669 51.96875,25.09375 C 51.976109,25.106831 51.986919,25.117641 52,25.125 C 51.997996,25.13532 51.997996,25.14593 52,25.15625 L 53.9375,27.03125 C 53.94782,27.033254 53.95843,27.033254 53.96875,27.03125 C 53.976109,27.044331 53.986919,27.055141 54,27.0625 C 54.013081,27.055141 54.023891,27.044331 54.03125,27.03125 C 54.04157,27.033254 54.05218,27.033254 54.0625,27.03125 L 56.4375,24.59375 C 56.827147,24.17611 57.469798,24.064614 57.96875,24.34375 C 58.629601,24.71473 59.282579,25.035973 59.96875,25.21875 C 60.496378,25.370219 60.870327,25.856737 60.875,26.40625 L 60.875,29.8125 C 60.872996,29.82282 60.872996,29.83343 60.875,29.84375 C 60.88532,29.845754 60.89593,29.845754 60.90625,29.84375 C 60.904246,29.85407 60.904246,29.86468 60.90625,29.875 C 60.91657,29.877004 60.92718,29.877004 60.9375,29.875 C 60.944859,29.888081 60.955669,29.898891 60.96875,29.90625 L 63.78125,29.90625 C 63.79157,29.908254 63.80218,29.908254 63.8125,29.90625 C 63.814504,29.89593 63.814504,29.88532 63.8125,29.875 C 63.82282,29.877004 63.83343,29.877004 63.84375,29.875 C 63.845754,29.86468 63.845754,29.85407 63.84375,29.84375 C 63.856831,29.836391 63.867641,29.825581 63.875,29.8125 L 63.875,26.34375 C 63.873239,25.805844 64.207315,25.325437 64.71875,25.15625 C 64.727883,25.153508 64.740857,25.159037 64.75,25.15625 C 64.762735,25.152368 64.768497,25.12897 64.78125,25.125 C 65.351215,24.947575 65.925387,24.670105 66.5,24.34375 C 66.978897,24.076106 67.574996,24.152272 67.96875,24.53125 L 70.3125,26.84375 C 70.32282,26.845754 70.33343,26.845754 70.34375,26.84375 C 70.351109,26.856831 70.361919,26.867641 70.375,26.875 C 70.388081,26.867641 70.398891,26.856831 70.40625,26.84375 C 70.41657,26.845754 70.42718,26.845754 70.4375,26.84375 L 72.375,24.90625 C 72.377004,24.89593 72.377004,24.88532 72.375,24.875 C 72.388081,24.867641 72.398891,24.856831 72.40625,24.84375 C 72.398891,24.830669 72.388081,24.819859 72.375,24.8125 C 72.377004,24.80218 72.377004,24.79157 72.375,24.78125 L 70.0625,22.46875 C 69.661055,22.06783 69.583466,21.426796 69.875,20.9375 C 70.186899,20.36507 70.451747,19.823266 70.625,19.21875 C 70.776469,18.691122 71.262987,18.317173 71.8125,18.3125 L 75.125,18.3125 C 75.13532,18.314504 75.14593,18.314504 75.15625,18.3125 C 75.158254,18.30218 75.158254,18.29157 75.15625,18.28125 C 75.16657,18.283254 75.17718,18.283254 75.1875,18.28125 C 75.189504,18.27093 75.189504,18.26032 75.1875,18.25 C 75.200581,18.242641 75.211391,18.231831 75.21875,18.21875 L 75.21875,15.40625 C 75.220754,15.39593 75.220754,15.38532 75.21875,15.375 C 75.20843,15.372996 75.19782,15.372996 75.1875,15.375 C 75.189504,15.36468 75.189504,15.35407 75.1875,15.34375 C 75.17718,15.341746 75.16657,15.341746 75.15625,15.34375 C 75.148891,15.330669 75.138081,15.319859 75.125,15.3125 L 71.84375,15.3125 C 71.294237,15.307827 70.807719,14.933878 70.65625,14.40625 C 70.456844,13.692031 70.147768,13.04139 69.78125,12.40625 C 69.502114,11.907298 69.61361,11.264647 70.03125,10.875 L 72.5625,8.5625 C 72.564504,8.5521797 72.564504,8.5415703 72.5625,8.53125 C 72.575581,8.5238911 72.586391,8.5130814 72.59375,8.5 C 72.586391,8.4869186 72.575581,8.4761089 72.5625,8.46875 C 72.564504,8.4584297 72.564504,8.4478203 72.5625,8.4375 L 70.75,6.4375 C 70.73968,6.4354959 70.72907,6.4354959 70.71875,6.4375 C 70.711391,6.4244186 70.700581,6.4136089 70.6875,6.40625 C 70.674419,6.4136089 70.663609,6.4244186 70.65625,6.4375 C 70.64593,6.4354959 70.63532,6.4354959 70.625,6.4375 L 68.0625,8.75 C 68.05218,8.7479959 68.04157,8.7479959 68.03125,8.75 C 68.018169,8.7573589 68.007359,8.7681686 68,8.78125 C 67.98968,8.7792459 67.97907,8.7792459 67.96875,8.78125 C 67.59036,9.2287602 66.956597,9.4066236 66.4375,9.125 C 65.854096,8.7996663 65.265686,8.5200228 64.65625,8.34375 C 64.129395,8.1925024 63.785947,7.7086749 63.78125,7.15625 L 63.78125,3.625 C 63.783254,3.6146797 63.783254,3.6040703 63.78125,3.59375 C 63.77093,3.5917459 63.76032,3.5917459 63.75,3.59375 C 63.752004,3.5834297 63.752004,3.5728203 63.75,3.5625 C 63.73968,3.5604959 63.72907,3.5604959 63.71875,3.5625 C 63.711391,3.5494186 63.700581,3.5386089 63.6875,3.53125 L 60.875,3.53125 C 60.86468,3.5292459 60.85407,3.5292459 60.84375,3.53125 z M 61.65625,11.71875 C 61.840633,11.70085 62.027583,11.71875 62.21875,11.71875 C 65.277423,11.71875 67.5,14.060208 67.5,16.78125 C 67.499999,19.502293 65.277424,21.843749 62.21875,21.84375 C 59.160075,21.843751 56.9375,19.502293 56.9375,16.78125 C 56.937498,14.230275 58.890504,11.987251 61.65625,11.71875 z"
         id="path9530"
         style="fill:none;fill-opacity:1;fill-rule:evenodd;stroke:#dddddd;stroke-width:1.17285872;stroke-linecap:butt;stroke-linejoin:miter;stroke-miterlimit:4;stroke-dasharray:none;stroke-dashoffset:0;stroke-opacity:1"
         inkscape:original="M 60.84375 3.53125 C 60.841746 3.5415703 60.841746 3.5521797 60.84375 3.5625 C 60.83343 3.5604959 60.82282 3.5604959 60.8125 3.5625 C 60.810496 3.5728203 60.810496 3.5834297 60.8125 3.59375 C 60.799419 3.6011089 60.788609 3.6119186 60.78125 3.625 L 60.78125 7.15625 C 60.776577 7.7057634 60.402627 8.1922807 59.875 8.34375 C 59.307035 8.5010257 58.761996 8.7603892 58.1875 9.0625 C 57.720796 9.3067102 57.134484 9.2311717 56.75 8.875 L 54.4375 6.65625 C 54.42718 6.6542459 54.41657 6.6542459 54.40625 6.65625 C 54.398891 6.6431686 54.388081 6.6323589 54.375 6.625 C 54.361919 6.6323589 54.351109 6.6431686 54.34375 6.65625 C 54.33343 6.6542459 54.32282 6.6542459 54.3125 6.65625 L 52.375 8.65625 C 52.372996 8.6665703 52.372996 8.6771797 52.375 8.6875 C 52.361919 8.6948589 52.351109 8.7056686 52.34375 8.71875 C 52.351109 8.7318314 52.361919 8.7426411 52.375 8.75 C 52.372996 8.7603203 52.372996 8.7709297 52.375 8.78125 L 54.5 10.78125 C 54.91764 11.170897 55.029136 11.813548 54.75 12.3125 C 54.359217 12.96844 54.016014 13.667513 53.8125 14.375 C 53.661252 14.901856 53.177425 15.245303 52.625 15.25 L 49.25 15.25 C 49.23968 15.247996 49.22907 15.247996 49.21875 15.25 C 49.216746 15.26032 49.216746 15.27093 49.21875 15.28125 C 49.20843 15.279246 49.19782 15.279246 49.1875 15.28125 C 49.185496 15.29157 49.185496 15.30218 49.1875 15.3125 C 49.174419 15.319859 49.163609 15.330669 49.15625 15.34375 L 49.15625 18.15625 C 49.154246 18.16657 49.154246 18.17718 49.15625 18.1875 C 49.16657 18.189504 49.17718 18.189504 49.1875 18.1875 C 49.185496 18.19782 49.185496 18.20843 49.1875 18.21875 C 49.19782 18.220754 49.20843 18.220754 49.21875 18.21875 C 49.226109 18.231831 49.236919 18.242641 49.25 18.25 L 52.59375 18.25 C 53.143263 18.254673 53.629781 18.628622 53.78125 19.15625 C 53.959485 19.786594 54.266759 20.366705 54.625 21 C 54.892644 21.478897 54.816478 22.074996 54.4375 22.46875 L 52 25.03125 C 51.997996 25.04157 51.997996 25.05218 52 25.0625 C 51.986919 25.069859 51.976109 25.080669 51.96875 25.09375 C 51.976109 25.106831 51.986919 25.117641 52 25.125 C 51.997996 25.13532 51.997996 25.14593 52 25.15625 L 53.9375 27.03125 C 53.94782 27.033254 53.95843 27.033254 53.96875 27.03125 C 53.976109 27.044331 53.986919 27.055141 54 27.0625 C 54.013081 27.055141 54.023891 27.044331 54.03125 27.03125 C 54.04157 27.033254 54.05218 27.033254 54.0625 27.03125 L 56.4375 24.59375 C 56.827147 24.17611 57.469798 24.064614 57.96875 24.34375 C 58.629601 24.71473 59.282579 25.035973 59.96875 25.21875 C 60.496378 25.370219 60.870327 25.856737 60.875 26.40625 L 60.875 29.8125 C 60.872996 29.82282 60.872996 29.83343 60.875 29.84375 C 60.88532 29.845754 60.89593 29.845754 60.90625 29.84375 C 60.904246 29.85407 60.904246 29.86468 60.90625 29.875 C 60.91657 29.877004 60.92718 29.877004 60.9375 29.875 C 60.944859 29.888081 60.955669 29.898891 60.96875 29.90625 L 63.78125 29.90625 C 63.79157 29.908254 63.80218 29.908254 63.8125 29.90625 C 63.814504 29.89593 63.814504 29.88532 63.8125 29.875 C 63.82282 29.877004 63.83343 29.877004 63.84375 29.875 C 63.845754 29.86468 63.845754 29.85407 63.84375 29.84375 C 63.856831 29.836391 63.867641 29.825581 63.875 29.8125 L 63.875 26.34375 C 63.873239 25.805844 64.207315 25.325437 64.71875 25.15625 C 64.727883 25.153508 64.740857 25.159037 64.75 25.15625 C 64.762735 25.152368 64.768497 25.12897 64.78125 25.125 C 65.351215 24.947575 65.925387 24.670105 66.5 24.34375 C 66.978897 24.076106 67.574996 24.152272 67.96875 24.53125 L 70.3125 26.84375 C 70.32282 26.845754 70.33343 26.845754 70.34375 26.84375 C 70.351109 26.856831 70.361919 26.867641 70.375 26.875 C 70.388081 26.867641 70.398891 26.856831 70.40625 26.84375 C 70.41657 26.845754 70.42718 26.845754 70.4375 26.84375 L 72.375 24.90625 C 72.377004 24.89593 72.377004 24.88532 72.375 24.875 C 72.388081 24.867641 72.398891 24.856831 72.40625 24.84375 C 72.398891 24.830669 72.388081 24.819859 72.375 24.8125 C 72.377004 24.80218 72.377004 24.79157 72.375 24.78125 L 70.0625 22.46875 C 69.661055 22.06783 69.583466 21.426796 69.875 20.9375 C 70.186899 20.36507 70.451747 19.823266 70.625 19.21875 C 70.776469 18.691122 71.262987 18.317173 71.8125 18.3125 L 75.125 18.3125 C 75.13532 18.314504 75.14593 18.314504 75.15625 18.3125 C 75.158254 18.30218 75.158254 18.29157 75.15625 18.28125 C 75.16657 18.283254 75.17718 18.283254 75.1875 18.28125 C 75.189504 18.27093 75.189504 18.26032 75.1875 18.25 C 75.200581 18.242641 75.211391 18.231831 75.21875 18.21875 L 75.21875 15.40625 C 75.220754 15.39593 75.220754 15.38532 75.21875 15.375 C 75.20843 15.372996 75.19782 15.372996 75.1875 15.375 C 75.189504 15.36468 75.189504 15.35407 75.1875 15.34375 C 75.17718 15.341746 75.16657 15.341746 75.15625 15.34375 C 75.148891 15.330669 75.138081 15.319859 75.125 15.3125 L 71.84375 15.3125 C 71.294237 15.307827 70.807719 14.933878 70.65625 14.40625 C 70.456844 13.692031 70.147768 13.04139 69.78125 12.40625 C 69.502114 11.907298 69.61361 11.264647 70.03125 10.875 L 72.5625 8.5625 C 72.564504 8.5521797 72.564504 8.5415703 72.5625 8.53125 C 72.575581 8.5238911 72.586391 8.5130814 72.59375 8.5 C 72.586391 8.4869186 72.575581 8.4761089 72.5625 8.46875 C 72.564504 8.4584297 72.564504 8.4478203 72.5625 8.4375 L 70.75 6.4375 C 70.73968 6.4354959 70.72907 6.4354959 70.71875 6.4375 C 70.711391 6.4244186 70.700581 6.4136089 70.6875 6.40625 C 70.674419 6.4136089 70.663609 6.4244186 70.65625 6.4375 C 70.64593 6.4354959 70.63532 6.4354959 70.625 6.4375 L 68.0625 8.75 C 68.05218 8.7479959 68.04157 8.7479959 68.03125 8.75 C 68.018169 8.7573589 68.007359 8.7681686 68 8.78125 C 67.98968 8.7792459 67.97907 8.7792459 67.96875 8.78125 C 67.59036 9.2287602 66.956597 9.4066236 66.4375 9.125 C 65.854096 8.7996663 65.265686 8.5200228 64.65625 8.34375 C 64.129395 8.1925024 63.785947 7.7086749 63.78125 7.15625 L 63.78125 3.625 C 63.783254 3.6146797 63.783254 3.6040703 63.78125 3.59375 C 63.77093 3.5917459 63.76032 3.5917459 63.75 3.59375 C 63.752004 3.5834297 63.752004 3.5728203 63.75 3.5625 C 63.73968 3.5604959 63.72907 3.5604959 63.71875 3.5625 C 63.711391 3.5494186 63.700581 3.5386089 63.6875 3.53125 L 60.875 3.53125 C 60.86468 3.5292459 60.85407 3.5292459 60.84375 3.53125 z M 61.65625 11.71875 C 61.840633 11.70085 62.027583 11.71875 62.21875 11.71875 C 65.277423 11.71875 67.5 14.060208 67.5 16.78125 C 67.499999 19.502293 65.277424 21.843749 62.21875 21.84375 C 59.160075 21.843751 56.9375 19.502293 56.9375 16.78125 C 56.937498 14.230275 58.890504 11.987251 61.65625 11.71875 z "
         inkscape:radius="-0.0059234626"
         sodipodi:type="inkscape:offset" />
    </g>
    <path
       style="fill:url(#radialGradient9137);fill-opacity:1;fill-rule:evenodd;stroke:#204a87;stroke-width:1;stroke-linecap:round;stroke-linejoin:round;stroke-miterlimit:4;stroke-dashoffset:0;stroke-opacity:1"
       d="M 10.01733,15.451473 L 21.389987,15.447796 C 21.389987,15.447796 22.153426,15.469011 22.714041,15.88941 C 23.274657,16.309809 23.296931,16.689646 23.302231,17.221426 C 23.309754,17.976312 23.309035,18.635199 23.309035,18.635199 L 45.497402,18.677648 L 38.969214,42.46339 L 2.5942103,42.46339 L 10.01733,15.451473 z"
       id="rect5425"
       sodipodi:nodetypes="cczsccccc" />
    <path
       transform="translate(0.75,-0.5)"
       style="fill:none;fill-opacity:1;fill-rule:evenodd;stroke:#ffffff;stroke-width:1;stroke-linecap:round;stroke-linejoin:miter;stroke-miterlimit:4;stroke-dashoffset:0;stroke-opacity:0.39108911"
       d="M 10.022367,16.952507 L 3.1875,41.919575 L 37.442862,41.941672 L 43.427966,20.171533 L 21.570313,20.132194 C 21.570313,20.132194 21.555399,19.170888 21.567679,18.430736 C 21.584977,17.380413 21.654331,17.365085 21.219727,17.110978 C 20.779287,16.853459 19.800291,16.952507 19.800291,16.952507 L 10.022367,16.952507 z"
       id="path7360"
       sodipodi:nodetypes="cccccszcc" />
    <g
       style="display:inline"
       inkscape:label="Base"
       id="g2721"
       transform="translate(-5.156883,-98.255354)" />
    <path
       id="path6270"
       d="M 27.144318,24.715446 C 26.500998,24.754038 25.884312,24.874904 25.269318,25.090446 L 29.738068,29.559196 L 28.300568,32.402946 L 25.456818,33.809196 L 20.988068,29.371696 C 20.112534,31.837738 20.671806,34.680434 22.644318,36.652946 C 24.616831,38.625459 27.459522,39.153479 29.925568,38.277946 L 31.86908,40.442429 L 40.02533,40.442429 C 40.128792,40.442429 40.237135,40.420908 40.33783,40.411179 L 34.175568,34.027946 C 35.037736,31.567967 34.484733,28.712111 32.519318,26.746696 C 31.045257,25.272636 29.074279,24.599671 27.144318,24.715446 z"
       style="opacity:0.2;color:#000000;fill:#000000;fill-opacity:1;fill-rule:nonzero;stroke:#000000;stroke-width:1.00000036;stroke-linecap:round;stroke-linejoin:round;marker:none;marker-start:none;marker-mid:none;marker-end:none;stroke-miterlimit:4;stroke-dasharray:none;stroke-dashoffset:1.4;stroke-opacity:1;visibility:visible;display:inline;overflow:visible"
       sodipodi:nodetypes="ccccccscccccsc" />
    <g
       id="g3199"
       transform="translate(-63.108202,-2.2335499)">
      <path
         inkscape:transform-center-y="4.25"
         sodipodi:nodetypes="csccccsccccc"
         id="path3193"
         d="M 32.5,24.1875 C 30.13715,25.312159 28.5,27.710447 28.5,30.5 C 28.5,33.289555 30.137147,35.687838 32.5,36.8125 L 32.5,55.350096 L 38.53125,55.350096 L 38.53125,36.8125 C 40.880361,35.682677 42.5,33.279516 42.5,30.5 C 42.5,27.720486 40.880357,25.31732 38.53125,24.1875 L 38.53125,30.5 L 35.515625,31.5 L 32.5,30.5 L 32.5,24.1875 z"
         style="opacity:1;color:#000000;fill:url(#linearGradient2427);fill-opacity:1;fill-rule:nonzero;stroke:url(#linearGradient2429);stroke-width:1;stroke-linecap:round;stroke-linejoin:round;marker:none;marker-start:none;marker-mid:none;marker-end:none;stroke-miterlimit:4;stroke-dasharray:none;stroke-dashoffset:1.4;stroke-opacity:1;visibility:visible;display:inline;overflow:visible"
         transform="matrix(0.707107,-0.707107,0.707107,0.707107,44.01958,36.46818)" />
      <path
         sodipodi:nodetypes="cssccccsscccccccc"
         id="path3195"
         d="M 31.5,26.34375 C 30.359137,27.432066 29.5,28.792056 29.5,30.5 C 29.5,32.900502 30.909032,34.940748 32.9375,35.90625 C 33.284845,36.073728 33.504061,36.426909 33.5,36.8125 L 33.5,55.742212 L 37.53125,55.742212 L 37.53125,36.8125 C 37.527189,36.426909 37.746405,36.073728 38.09375,35.90625 C 40.107408,34.937766 41.5,32.893233 41.5,30.5 C 41.5,28.802203 40.65724,27.433848 39.53125,26.34375 L 39.53125,30.5 C 39.527628,30.92786 39.250736,31.305441 38.84375,31.4375 L 35.8125,32.4375 C 35.60958,32.504668 35.39042,32.504668 35.1875,32.4375 L 32.1875,31.4375 C 31.780514,31.305441 31.503622,30.92786 31.5,30.5 L 31.5,26.34375 z"
         style="color:#000000;fill:none;fill-opacity:1;fill-rule:nonzero;stroke:url(#linearGradient2431);stroke-width:1;stroke-linecap:round;stroke-linejoin:miter;marker:none;marker-start:none;marker-mid:none;marker-end:none;stroke-miterlimit:4;stroke-dashoffset:1.4;stroke-opacity:1;visibility:visible;display:inline;overflow:visible"
         transform="matrix(0.707107,-0.707107,0.707107,0.707107,44.01958,36.46818)" />
      <rect
         ry="1.0000045"
         rx="1.0000045"
         y="37.499985"
         x="34.500008"
         height="15.000015"
         width="2.0000091"
         id="rect3197"
         style="opacity:0.4;color:#000000;fill:none;fill-opacity:1;fill-rule:nonzero;stroke:url(#linearGradient2433);stroke-width:0.99999976;stroke-linecap:round;stroke-linejoin:miter;marker:none;marker-start:none;marker-mid:none;marker-end:none;stroke-miterlimit:4;stroke-dasharray:none;stroke-dashoffset:1.4;stroke-opacity:1;visibility:visible;display:inline;overflow:visible"
         transform="matrix(0.707107,-0.707107,0.707107,0.707107,44.01958,36.46818)" />
    </g>
    <path
       id="rect4784"
       d="M -122.59391,-10.646865 L -74.593908,-10.646865 L -74.593908,37.353135 L -122.59391,37.353135 L -122.59391,-10.646865 z"
       style="fill:none;fill-opacity:0.75;fill-rule:evenodd;stroke:none;stroke-width:1px;stroke-linecap:butt;stroke-linejoin:miter;stroke-opacity:1" />
    <g
       id="layer2"
       inkscape:label="new"
       transform="translate(-123.59391,-9.646865)" />
  </g>
</svg>
