<?xml version="1.0" encoding="UTF-8" standalone="no"?>
<!-- Created with Inkscape (http://www.inkscape.org/) -->

<svg
   xmlns:dc="http://purl.org/dc/elements/1.1/"
   xmlns:cc="http://creativecommons.org/ns#"
   xmlns:rdf="http://www.w3.org/1999/02/22-rdf-syntax-ns#"
   xmlns:svg="http://www.w3.org/2000/svg"
   xmlns="http://www.w3.org/2000/svg"
   xmlns:xlink="http://www.w3.org/1999/xlink"
   xmlns:sodipodi="http://sodipodi.sourceforge.net/DTD/sodipodi-0.dtd"
   xmlns:inkscape="http://www.inkscape.org/namespaces/inkscape"
   width="48"
   height="48"
   id="svg2"
   sodipodi:version="0.32"
   inkscape:version="0.47+devel r9425"
   version="1.0"
   sodipodi:docname="plugin-fireflies.svg"
   inkscape:output_extension="org.inkscape.output.svg.inkscape"
   inkscape:export-filename="/home/david/mail-mark-unread.png"
   inkscape:export-xdpi="33.75"
   inkscape:export-ydpi="33.75">
  <defs
     id="defs4">
    <linearGradient
       id="linearGradient4083">
      <stop
         id="stop4085"
         offset="0"
         style="stop-color:#ffffff;stop-opacity:0;" />
      <stop
         style="stop-color:#ffffff;stop-opacity:0;"
         offset="0.75"
         id="stop4089" />
      <stop
         id="stop4087"
         offset="1"
         style="stop-color:#ffffff;stop-opacity:1;" />
    </linearGradient>
    <linearGradient
       id="linearGradient4032">
      <stop
         id="stop4034"
         offset="0"
         style="stop-color:#fff7c2;stop-opacity:0.63829786" />
      <stop
         style="stop-color:#fcaf3e;stop-opacity:0.18348624;"
         offset="0.59394139"
         id="stop4036" />
      <stop
         id="stop4038"
         offset="0.83850551"
         style="stop-color:#fcaf3e;stop-opacity:0.50458717;" />
      <stop
         id="stop4040"
         offset="1"
         style="stop-color:#fcaf3e;stop-opacity:1;" />
    </linearGradient>
    <linearGradient
       id="linearGradient4026">
      <stop
         id="stop4028"
         offset="0"
         style="stop-color:#fff9c6;stop-opacity:1" />
      <stop
         style="stop-color:#fff28c;stop-opacity:1;"
         offset="0.54166669"
         id="stop4042" />
      <stop
         id="stop4030"
         offset="1"
         style="stop-color:#ffea85;stop-opacity:1;" />
    </linearGradient>
    <radialGradient
       inkscape:collect="always"
       xlink:href="#linearGradient4083"
       id="radialGradient4079"
       gradientUnits="userSpaceOnUse"
       gradientTransform="matrix(1.006701,0,0,1.007522,-0.160816,0.426981)"
       cx="23.99999"
       cy="23.381506"
       fx="23.99999"
       fy="23.381506"
       r="19.141981" />
    <radialGradient
       inkscape:collect="always"
       xlink:href="#linearGradient4032"
       id="radialGradient4082"
       gradientUnits="userSpaceOnUse"
       gradientTransform="matrix(0.487739,1.292402,-1.10267,0.497242,-41.77393,32.41492)"
       cx="-33.519073"
       cy="-22.113297"
       fx="-33.519073"
       fy="-22.113297"
       r="9.5" />
    <linearGradient
       inkscape:collect="always"
       xlink:href="#linearGradient4026"
       id="linearGradient4084"
       gradientUnits="userSpaceOnUse"
       x1="-28.968945"
       y1="-25.326815"
       x2="-37.19698"
       y2="-9.5590506" />
    <radialGradient
       inkscape:collect="always"
       xlink:href="#linearGradient4083"
       id="radialGradient4086"
       gradientUnits="userSpaceOnUse"
       gradientTransform="matrix(1.006701,0,0,1.007522,-0.160816,0.426981)"
       cx="23.99999"
       cy="23.381506"
       fx="23.99999"
       fy="23.381506"
       r="19.141981" />
    <radialGradient
       inkscape:collect="always"
       xlink:href="#linearGradient4032"
       id="radialGradient4088"
       gradientUnits="userSpaceOnUse"
       gradientTransform="matrix(0.487739,1.292402,-1.10267,0.497242,-41.77393,32.41492)"
       cx="-33.519073"
       cy="-22.113297"
       fx="-33.519073"
       fy="-22.113297"
       r="9.5" />
    <linearGradient
       inkscape:collect="always"
       xlink:href="#linearGradient4026"
       id="linearGradient4090"
       gradientUnits="userSpaceOnUse"
       x1="-28.968945"
       y1="-25.326815"
       x2="-37.19698"
       y2="-9.5590506" />
    <radialGradient
       inkscape:collect="always"
       xlink:href="#linearGradient4083"
       id="radialGradient4092"
       gradientUnits="userSpaceOnUse"
       gradientTransform="matrix(1.006701,0,0,1.007522,-0.160816,0.426981)"
       cx="23.99999"
       cy="23.381506"
       fx="23.99999"
       fy="23.381506"
       r="19.141981" />
    <radialGradient
       inkscape:collect="always"
       xlink:href="#linearGradient4032"
       id="radialGradient4094"
       gradientUnits="userSpaceOnUse"
       gradientTransform="matrix(0.487739,1.292402,-1.10267,0.497242,-41.77393,32.41492)"
       cx="-33.519073"
       cy="-22.113297"
       fx="-33.519073"
       fy="-22.113297"
       r="9.5" />
    <linearGradient
       inkscape:collect="always"
       xlink:href="#linearGradient4026"
       id="linearGradient4096"
       gradientUnits="userSpaceOnUse"
       x1="-28.968945"
       y1="-25.326815"
       x2="-37.19698"
       y2="-9.5590506" />
    <radialGradient
       inkscape:collect="always"
       xlink:href="#linearGradient4083"
       id="radialGradient4098"
       gradientUnits="userSpaceOnUse"
       gradientTransform="matrix(1.006701,0,0,1.007522,-0.160816,0.426981)"
       cx="23.99999"
       cy="23.381506"
       fx="23.99999"
       fy="23.381506"
       r="19.141981" />
    <radialGradient
       inkscape:collect="always"
       xlink:href="#linearGradient4032"
       id="radialGradient4100"
       gradientUnits="userSpaceOnUse"
       gradientTransform="matrix(0.487739,1.292402,-1.10267,0.497242,-41.77393,32.41492)"
       cx="-33.519073"
       cy="-22.113297"
       fx="-33.519073"
       fy="-22.113297"
       r="9.5" />
    <linearGradient
       inkscape:collect="always"
       xlink:href="#linearGradient4026"
       id="linearGradient4102"
       gradientUnits="userSpaceOnUse"
       x1="-28.968945"
       y1="-25.326815"
       x2="-37.19698"
       y2="-9.5590506" />
    <radialGradient
       inkscape:collect="always"
       xlink:href="#linearGradient4083"
       id="radialGradient4104"
       gradientUnits="userSpaceOnUse"
       gradientTransform="matrix(1.006701,0,0,1.007522,-0.160816,0.426981)"
       cx="23.99999"
       cy="23.381506"
       fx="23.99999"
       fy="23.381506"
       r="19.141981" />
    <radialGradient
       inkscape:collect="always"
       xlink:href="#linearGradient4032"
       id="radialGradient4106"
       gradientUnits="userSpaceOnUse"
       gradientTransform="matrix(0.487739,1.292402,-1.10267,0.497242,-41.77393,32.41492)"
       cx="-33.519073"
       cy="-22.113297"
       fx="-33.519073"
       fy="-22.113297"
       r="9.5" />
    <linearGradient
       inkscape:collect="always"
       xlink:href="#linearGradient4026"
       id="linearGradient4108"
       gradientUnits="userSpaceOnUse"
       x1="-28.968945"
       y1="-25.326815"
       x2="-37.19698"
       y2="-9.5590506" />
    <radialGradient
       inkscape:collect="always"
       xlink:href="#linearGradient4083"
       id="radialGradient4110"
       gradientUnits="userSpaceOnUse"
       gradientTransform="matrix(1.006701,0,0,1.007522,-0.160816,0.426981)"
       cx="23.99999"
       cy="23.381506"
       fx="23.99999"
       fy="23.381506"
       r="19.141981" />
    <radialGradient
       inkscape:collect="always"
       xlink:href="#linearGradient4032"
       id="radialGradient4112"
       gradientUnits="userSpaceOnUse"
       gradientTransform="matrix(0.487739,1.292402,-1.10267,0.497242,-41.77393,32.41492)"
       cx="-33.519073"
       cy="-22.113297"
       fx="-33.519073"
       fy="-22.113297"
       r="9.5" />
    <linearGradient
       inkscape:collect="always"
       xlink:href="#linearGradient4026"
       id="linearGradient4114"
       gradientUnits="userSpaceOnUse"
       x1="-28.968945"
       y1="-25.326815"
       x2="-37.19698"
       y2="-9.5590506" />
    <radialGradient
       inkscape:collect="always"
       xlink:href="#linearGradient4083"
       id="radialGradient3161"
       gradientUnits="userSpaceOnUse"
       gradientTransform="matrix(1.006701,0,0,1.007522,-0.160816,0.426981)"
       cx="23.99999"
       cy="23.381506"
       fx="23.99999"
       fy="23.381506"
       r="19.141981" />
    <radialGradient
       inkscape:collect="always"
       xlink:href="#linearGradient4032"
       id="radialGradient3163"
       gradientUnits="userSpaceOnUse"
       gradientTransform="matrix(0.487739,1.292402,-1.10267,0.497242,-41.77393,32.41492)"
       cx="-33.519073"
       cy="-22.113297"
       fx="-33.519073"
       fy="-22.113297"
       r="9.5" />
    <linearGradient
       inkscape:collect="always"
       xlink:href="#linearGradient4026"
       id="linearGradient3165"
       gradientUnits="userSpaceOnUse"
       x1="-28.968945"
       y1="-25.326815"
       x2="-37.19698"
       y2="-9.5590506" />
    <radialGradient
       inkscape:collect="always"
       xlink:href="#linearGradient4083"
       id="radialGradient3167"
       gradientUnits="userSpaceOnUse"
       gradientTransform="matrix(1.006701,0,0,1.007522,-0.160816,0.426981)"
       cx="23.99999"
       cy="23.381506"
       fx="23.99999"
       fy="23.381506"
       r="19.141981" />
    <radialGradient
       inkscape:collect="always"
       xlink:href="#linearGradient4032"
       id="radialGradient3169"
       gradientUnits="userSpaceOnUse"
       gradientTransform="matrix(0.487739,1.292402,-1.10267,0.497242,-41.77393,32.41492)"
       cx="-33.519073"
       cy="-22.113297"
       fx="-33.519073"
       fy="-22.113297"
       r="9.5" />
    <linearGradient
       inkscape:collect="always"
       xlink:href="#linearGradient4026"
       id="linearGradient3171"
       gradientUnits="userSpaceOnUse"
       x1="-28.968945"
       y1="-25.326815"
       x2="-37.19698"
       y2="-9.5590506" />
    <radialGradient
       inkscape:collect="always"
       xlink:href="#linearGradient4083"
       id="radialGradient3211"
       gradientUnits="userSpaceOnUse"
       gradientTransform="matrix(1.006701,0,0,1.007522,-0.160816,0.426981)"
       cx="23.99999"
       cy="23.381506"
       fx="23.99999"
       fy="23.381506"
       r="19.141981" />
    <radialGradient
       inkscape:collect="always"
       xlink:href="#linearGradient4032"
       id="radialGradient3213"
       gradientUnits="userSpaceOnUse"
       gradientTransform="matrix(0.487739,1.292402,-1.10267,0.497242,-41.77393,32.41492)"
       cx="-33.519073"
       cy="-22.113297"
       fx="-33.519073"
       fy="-22.113297"
       r="9.5" />
    <linearGradient
       inkscape:collect="always"
       xlink:href="#linearGradient4026"
       id="linearGradient3215"
       gradientUnits="userSpaceOnUse"
       x1="-28.968945"
       y1="-25.326815"
       x2="-37.19698"
       y2="-9.5590506" />
    <radialGradient
       inkscape:collect="always"
       xlink:href="#linearGradient4083"
       id="radialGradient3217"
       gradientUnits="userSpaceOnUse"
       gradientTransform="matrix(1.006701,0,0,1.007522,-0.160816,0.426981)"
       cx="23.99999"
       cy="23.381506"
       fx="23.99999"
       fy="23.381506"
       r="19.141981" />
    <radialGradient
       inkscape:collect="always"
       xlink:href="#linearGradient4032"
       id="radialGradient3219"
       gradientUnits="userSpaceOnUse"
       gradientTransform="matrix(0.487739,1.292402,-1.10267,0.497242,-41.77393,32.41492)"
       cx="-33.519073"
       cy="-22.113297"
       fx="-33.519073"
       fy="-22.113297"
       r="9.5" />
    <linearGradient
       inkscape:collect="always"
       xlink:href="#linearGradient4026"
       id="linearGradient3221"
       gradientUnits="userSpaceOnUse"
       x1="-28.968945"
       y1="-25.326815"
       x2="-37.19698"
       y2="-9.5590506" />
    <radialGradient
       inkscape:collect="always"
       xlink:href="#linearGradient4083"
       id="radialGradient3261"
       gradientUnits="userSpaceOnUse"
       gradientTransform="matrix(1.006701,0,0,1.007522,-0.160816,0.426981)"
       cx="23.99999"
       cy="23.381506"
       fx="23.99999"
       fy="23.381506"
       r="19.141981" />
    <radialGradient
       inkscape:collect="always"
       xlink:href="#linearGradient4032"
       id="radialGradient3263"
       gradientUnits="userSpaceOnUse"
       gradientTransform="matrix(0.487739,1.292402,-1.10267,0.497242,-41.77393,32.41492)"
       cx="-33.519073"
       cy="-22.113297"
       fx="-33.519073"
       fy="-22.113297"
       r="9.5" />
    <linearGradient
       inkscape:collect="always"
       xlink:href="#linearGradient4026"
       id="linearGradient3265"
       gradientUnits="userSpaceOnUse"
       x1="-28.968945"
       y1="-25.326815"
       x2="-37.19698"
       y2="-9.5590506" />
    <radialGradient
       inkscape:collect="always"
       xlink:href="#linearGradient4083"
       id="radialGradient3267"
       gradientUnits="userSpaceOnUse"
       gradientTransform="matrix(1.006701,0,0,1.007522,-0.160816,0.426981)"
       cx="23.99999"
       cy="23.381506"
       fx="23.99999"
       fy="23.381506"
       r="19.141981" />
    <radialGradient
       inkscape:collect="always"
       xlink:href="#linearGradient4032"
       id="radialGradient3269"
       gradientUnits="userSpaceOnUse"
       gradientTransform="matrix(0.487739,1.292402,-1.10267,0.497242,-41.77393,32.41492)"
       cx="-33.519073"
       cy="-22.113297"
       fx="-33.519073"
       fy="-22.113297"
       r="9.5" />
    <linearGradient
       inkscape:collect="always"
       xlink:href="#linearGradient4026"
       id="linearGradient3271"
       gradientUnits="userSpaceOnUse"
       x1="-28.968945"
       y1="-25.326815"
       x2="-37.19698"
       y2="-9.5590506" />
  </defs>
  <sodipodi:namedview
     id="base"
     pagecolor="#ffffff"
     bordercolor="#666666"
     borderopacity="1.0"
     gridtolerance="10000"
     guidetolerance="10"
     objecttolerance="10"
     inkscape:pageopacity="0.0"
     inkscape:pageshadow="2"
     inkscape:zoom="11.372634"
     inkscape:cx="24"
     inkscape:cy="24"
     inkscape:document-units="px"
     inkscape:current-layer="layer1"
     width="128px"
     height="128px"
     showgrid="false"
     borderlayer="true"
     inkscape:showpageshadow="false"
     showborder="true"
     inkscape:grid-points="true"
     inkscape:window-width="1270"
     inkscape:window-height="969"
     inkscape:window-x="0"
     inkscape:window-y="24"
     inkscape:window-maximized="0">
    <inkscape:grid
       id="GridFromPre046Settings"
       type="xygrid"
       originx="0px"
       originy="0px"
       spacingx="4px"
       spacingy="4px"
       color="#0000ff"
       empcolor="#0000ff"
       opacity="0.2"
       empopacity="0.4"
       empspacing="4"
       visible="true"
       enabled="true"
       snapvisiblegridlinesonly="true" />
  </sodipodi:namedview>
  <metadata
     id="metadata7">
    <rdf:RDF>
      <cc:Work
         rdf:about="">
        <dc:format>image/svg+xml</dc:format>
        <dc:type
           rdf:resource="http://purl.org/dc/dcmitype/StillImage" />
      </cc:Work>
    </rdf:RDF>
  </metadata>
  <g
     inkscape:label="Layer 1"
     inkscape:groupmode="layer"
     id="layer1"
     transform="translate(-31.964572,-41.03848)">
    <g
       id="g3887"
       transform="matrix(0.20494898,0,0,0.20494898,72.061976,69.871323)">
      <g
         id="g3936"
         transform="matrix(3.4175946,0,0,3.4175946,-198.92727,-143.24466)">
        <g
           id="g4091"
           style="opacity:0.7">
          <path
             id="path7492"
             d="M 24,2.5 21.625,9.1875 C 22.399034,9.0641318 23.191406,9 24,9 c 0.808594,0 1.600966,0.064132 2.375,0.1875 L 24,2.5 z m -15.1875,6.28125 3.03125,6.4375 c 0.935284,-1.290181 2.084819,-2.439716 3.375,-3.375 L 8.8125,8.78125 z m 30.40625,0 -6.4375,3.0625 c 1.290181,0.935284 2.439716,2.084819 3.375,3.375 l 3.0625,-6.4375 z M 9.1875,21.59375 2.5,23.96875 l 6.6875,2.375 C 9.0673373,25.57952 9,24.797813 9,24 9,23.180625 9.0608858,22.377571 9.1875,21.59375 z M 38.8125,21.625 C 38.935868,22.399034 39,23.191406 39,24 c 0,0.808594 -0.06413,1.600966 -0.1875,2.375 L 45.5,24 38.8125,21.625 z M 11.84375,32.78125 8.8125,39.1875 15.21875,36.15625 c -1.290181,-0.935284 -2.439716,-2.084819 -3.375,-3.375 z m 24.3125,0 c -0.926461,1.27801 -2.068633,2.413549 -3.34375,3.34375 l 6.40625,3.0625 -3.0625,-6.40625 z M 21.625,38.8125 24,45.5 26.375,38.8125 C 25.600966,38.935868 24.808594,39 24,39 23.191406,39 22.399034,38.93587 21.625,38.8125 z"
             style="fill:#fce94f;fill-opacity:1;stroke:#fcaf3e;stroke-width:0.73732895;stroke-linecap:square;stroke-linejoin:miter;stroke-miterlimit:4;stroke-opacity:1;stroke-dasharray:none"
             inkscape:connector-curvature="0" />
          <path
             id="path7494"
             d="M 24,5.25 22.65625,9.0625 C 23.098888,9.0231486 23.547187,9 24,9 c 0.452813,0 0.901112,0.023149 1.34375,0.0625 L 24,5.25 z M 10.78125,10.75 12.5,14.375 c 0.571538,-0.680911 1.224004,-1.336255 1.90625,-1.90625 L 10.78125,10.75 z m 26.46875,0 -3.625,1.71875 c 0.679675,0.569439 1.336811,1.226575 1.90625,1.90625 L 37.25,10.75 z M 9.0625,22.625 5.28125,23.96875 9.0625,25.3125 C 9.024981,24.880146 9,24.442031 9,24 9,23.536406 9.0212735,23.077908 9.0625,22.625 z m 29.875,0.03125 C 38.976851,23.098888 39,23.547187 39,24 c 0,0.452813 -0.02315,0.901112 -0.0625,1.34375 L 42.71875,24 38.9375,22.65625 z m -3.40625,10.9375 c -0.572957,0.68579 -1.221265,1.363613 -1.90625,1.9375 L 37.25,37.25 35.53125,33.59375 z M 12.5,33.625 10.78125,37.21875 14.375,35.5 C 13.702932,34.935884 13.064116,34.297068 12.5,33.625 z M 22.65625,38.9375 24,42.71875 25.34375,38.9375 C 24.901112,38.976851 24.452813,39 24,39 23.547187,39 23.098888,38.97685 22.65625,38.9375 z"
             style="fill:none;stroke:url(#radialGradient4079);stroke-width:0.84646249;stroke-linecap:square;stroke-linejoin:miter;stroke-miterlimit:4;stroke-opacity:1;stroke-dasharray:none"
             inkscape:connector-curvature="0" />
        </g>
        <g
           id="g4046">
          <g
             id="g3931">
            <path
               sodipodi:type="arc"
               style="fill:#ffee54;fill-opacity:1;stroke:#fcaf3e;stroke-width:0.75991178;stroke-linecap:square;stroke-linejoin:miter;stroke-miterlimit:4;stroke-opacity:1;stroke-dasharray:none"
               id="path7498"
               sodipodi:cx="-32"
               sodipodi:cy="-17.5"
               sodipodi:rx="9.5"
               sodipodi:ry="9.5"
               d="m -22.5,-17.5 c 0,5.246705 -4.253295,9.5 -9.5,9.5 -5.246705,0 -9.5,-4.253295 -9.5,-9.5 0,-5.246705 4.253295,-9.5 9.5,-9.5 5.246705,0 9.5,4.253295 9.5,9.5 z"
               transform="matrix(0.778062,-1.061285,1.061287,0.778062,67.47952,3.641324)"
               inkscape:r_cx="true"
               inkscape:r_cy="true" />
            <path
               sodipodi:type="arc"
               style="fill:url(#radialGradient4082);fill-opacity:1;stroke:none"
               id="path7500"
               sodipodi:cx="-32"
               sodipodi:cy="-17.5"
               sodipodi:rx="9.5"
               sodipodi:ry="9.5"
               d="m -22.5,-17.5 c 0,5.246705 -4.253295,9.5 -9.5,9.5 -5.246705,0 -9.5,-4.253295 -9.5,-9.5 0,-5.246705 4.253295,-9.5 9.5,-9.5 5.246705,0 9.5,4.253295 9.5,9.5 z"
               transform="matrix(1.244257,-0.167707,0.216642,1.251844,67.61648,40.527)"
               inkscape:r_cx="true"
               inkscape:r_cy="true" />
            <path
               sodipodi:type="arc"
               style="fill:none;stroke:url(#linearGradient4084);stroke-width:0.82601947;stroke-linecap:square;stroke-linejoin:miter;stroke-miterlimit:4;stroke-opacity:1;stroke-dasharray:none"
               id="path7502"
               sodipodi:cx="-32"
               sodipodi:cy="-17.5"
               sodipodi:rx="9.5"
               sodipodi:ry="9.5"
               d="m -22.5,-17.5 c 0,5.246705 -4.253295,9.5 -9.5,9.5 -5.246705,0 -9.5,-4.253295 -9.5,-9.5 0,-5.246705 4.253295,-9.5 9.5,-9.5 5.246705,0 9.5,4.253295 9.5,9.5 z"
               transform="matrix(0.715791,-0.976349,0.97635,0.715792,64.00044,5.269544)"
               inkscape:r_cx="true"
               inkscape:r_cy="true" />
          </g>
        </g>
      </g>
      <g
         transform="matrix(3.1383349,1.3530732,-1.3530732,3.1383349,-159.75128,-169.01618)"
         id="g3863">
        <g
           style="opacity:0.7"
           id="g3865">
          <path
             inkscape:connector-curvature="0"
             style="fill:#fce94f;fill-opacity:1;stroke:#fcaf3e;stroke-width:0.73732895;stroke-linecap:square;stroke-linejoin:miter;stroke-miterlimit:4;stroke-opacity:1;stroke-dasharray:none"
             d="M 24,2.5 21.625,9.1875 C 22.399034,9.0641318 23.191406,9 24,9 c 0.808594,0 1.600966,0.064132 2.375,0.1875 L 24,2.5 z m -15.1875,6.28125 3.03125,6.4375 c 0.935284,-1.290181 2.084819,-2.439716 3.375,-3.375 L 8.8125,8.78125 z m 30.40625,0 -6.4375,3.0625 c 1.290181,0.935284 2.439716,2.084819 3.375,3.375 l 3.0625,-6.4375 z M 9.1875,21.59375 2.5,23.96875 l 6.6875,2.375 C 9.0673373,25.57952 9,24.797813 9,24 9,23.180625 9.0608858,22.377571 9.1875,21.59375 z M 38.8125,21.625 C 38.935868,22.399034 39,23.191406 39,24 c 0,0.808594 -0.06413,1.600966 -0.1875,2.375 L 45.5,24 38.8125,21.625 z M 11.84375,32.78125 8.8125,39.1875 15.21875,36.15625 c -1.290181,-0.935284 -2.439716,-2.084819 -3.375,-3.375 z m 24.3125,0 c -0.926461,1.27801 -2.068633,2.413549 -3.34375,3.34375 l 6.40625,3.0625 -3.0625,-6.40625 z M 21.625,38.8125 24,45.5 26.375,38.8125 C 25.600966,38.935868 24.808594,39 24,39 23.191406,39 22.399034,38.93587 21.625,38.8125 z"
             id="path3867" />
          <path
             inkscape:connector-curvature="0"
             style="fill:none;stroke:url(#radialGradient4086);stroke-width:0.84646249;stroke-linecap:square;stroke-linejoin:miter;stroke-miterlimit:4;stroke-opacity:1;stroke-dasharray:none"
             d="M 24,5.25 22.65625,9.0625 C 23.098888,9.0231486 23.547187,9 24,9 c 0.452813,0 0.901112,0.023149 1.34375,0.0625 L 24,5.25 z M 10.78125,10.75 12.5,14.375 c 0.571538,-0.680911 1.224004,-1.336255 1.90625,-1.90625 L 10.78125,10.75 z m 26.46875,0 -3.625,1.71875 c 0.679675,0.569439 1.336811,1.226575 1.90625,1.90625 L 37.25,10.75 z M 9.0625,22.625 5.28125,23.96875 9.0625,25.3125 C 9.024981,24.880146 9,24.442031 9,24 9,23.536406 9.0212735,23.077908 9.0625,22.625 z m 29.875,0.03125 C 38.976851,23.098888 39,23.547187 39,24 c 0,0.452813 -0.02315,0.901112 -0.0625,1.34375 L 42.71875,24 38.9375,22.65625 z m -3.40625,10.9375 c -0.572957,0.68579 -1.221265,1.363613 -1.90625,1.9375 L 37.25,37.25 35.53125,33.59375 z M 12.5,33.625 10.78125,37.21875 14.375,35.5 C 13.702932,34.935884 13.064116,34.297068 12.5,33.625 z M 22.65625,38.9375 24,42.71875 25.34375,38.9375 C 24.901112,38.976851 24.452813,39 24,39 23.547187,39 23.098888,38.97685 22.65625,38.9375 z"
             id="path3869" />
        </g>
        <g
           id="g3871">
          <g
             id="g3873">
            <path
               inkscape:r_cy="true"
               inkscape:r_cx="true"
               transform="matrix(0.778062,-1.061285,1.061287,0.778062,67.47952,3.641324)"
               d="m -22.5,-17.5 c 0,5.246705 -4.253295,9.5 -9.5,9.5 -5.246705,0 -9.5,-4.253295 -9.5,-9.5 0,-5.246705 4.253295,-9.5 9.5,-9.5 5.246705,0 9.5,4.253295 9.5,9.5 z"
               sodipodi:ry="9.5"
               sodipodi:rx="9.5"
               sodipodi:cy="-17.5"
               sodipodi:cx="-32"
               id="path3875"
               style="fill:#ffee54;fill-opacity:1;stroke:#fcaf3e;stroke-width:0.75991178;stroke-linecap:square;stroke-linejoin:miter;stroke-miterlimit:4;stroke-opacity:1;stroke-dasharray:none"
               sodipodi:type="arc" />
            <path
               inkscape:r_cy="true"
               inkscape:r_cx="true"
               transform="matrix(1.244257,-0.167707,0.216642,1.251844,67.61648,40.527)"
               d="m -22.5,-17.5 c 0,5.246705 -4.253295,9.5 -9.5,9.5 -5.246705,0 -9.5,-4.253295 -9.5,-9.5 0,-5.246705 4.253295,-9.5 9.5,-9.5 5.246705,0 9.5,4.253295 9.5,9.5 z"
               sodipodi:ry="9.5"
               sodipodi:rx="9.5"
               sodipodi:cy="-17.5"
               sodipodi:cx="-32"
               id="path3877"
               style="fill:url(#radialGradient4088);fill-opacity:1;stroke:none"
               sodipodi:type="arc" />
            <path
               inkscape:r_cy="true"
               inkscape:r_cx="true"
               transform="matrix(0.715791,-0.976349,0.97635,0.715792,64.00044,5.269544)"
               d="m -22.5,-17.5 c 0,5.246705 -4.253295,9.5 -9.5,9.5 -5.246705,0 -9.5,-4.253295 -9.5,-9.5 0,-5.246705 4.253295,-9.5 9.5,-9.5 5.246705,0 9.5,4.253295 9.5,9.5 z"
               sodipodi:ry="9.5"
               sodipodi:rx="9.5"
               sodipodi:cy="-17.5"
               sodipodi:cx="-32"
               id="path3879"
               style="fill:none;stroke:url(#linearGradient4090);stroke-width:0.82601947;stroke-linecap:square;stroke-linejoin:miter;stroke-miterlimit:4;stroke-opacity:1;stroke-dasharray:none"
               sodipodi:type="arc" />
          </g>
        </g>
      </g>
    </g>
    <g
       transform="matrix(0.13436651,0,0,0.13436651,84.483656,76.100513)"
       id="g3919">
      <g
         transform="matrix(3.4175946,0,0,3.4175946,-198.92727,-143.24466)"
         id="g3921">
        <g
           style="opacity:0.7"
           id="g3923">
          <path
             inkscape:connector-curvature="0"
             style="fill:#fce94f;fill-opacity:1;stroke:#fcaf3e;stroke-width:0.73732895;stroke-linecap:square;stroke-linejoin:miter;stroke-miterlimit:4;stroke-opacity:1;stroke-dasharray:none"
             d="M 24,2.5 21.625,9.1875 C 22.399034,9.0641318 23.191406,9 24,9 c 0.808594,0 1.600966,0.064132 2.375,0.1875 L 24,2.5 z m -15.1875,6.28125 3.03125,6.4375 c 0.935284,-1.290181 2.084819,-2.439716 3.375,-3.375 L 8.8125,8.78125 z m 30.40625,0 -6.4375,3.0625 c 1.290181,0.935284 2.439716,2.084819 3.375,3.375 l 3.0625,-6.4375 z M 9.1875,21.59375 2.5,23.96875 l 6.6875,2.375 C 9.0673373,25.57952 9,24.797813 9,24 9,23.180625 9.0608858,22.377571 9.1875,21.59375 z M 38.8125,21.625 C 38.935868,22.399034 39,23.191406 39,24 c 0,0.808594 -0.06413,1.600966 -0.1875,2.375 L 45.5,24 38.8125,21.625 z M 11.84375,32.78125 8.8125,39.1875 15.21875,36.15625 c -1.290181,-0.935284 -2.439716,-2.084819 -3.375,-3.375 z m 24.3125,0 c -0.926461,1.27801 -2.068633,2.413549 -3.34375,3.34375 l 6.40625,3.0625 -3.0625,-6.40625 z M 21.625,38.8125 24,45.5 26.375,38.8125 C 25.600966,38.935868 24.808594,39 24,39 23.191406,39 22.399034,38.93587 21.625,38.8125 z"
             id="path3925" />
          <path
             inkscape:connector-curvature="0"
             style="fill:none;stroke:url(#radialGradient4092);stroke-width:0.84646249;stroke-linecap:square;stroke-linejoin:miter;stroke-miterlimit:4;stroke-opacity:1;stroke-dasharray:none"
             d="M 24,5.25 22.65625,9.0625 C 23.098888,9.0231486 23.547187,9 24,9 c 0.452813,0 0.901112,0.023149 1.34375,0.0625 L 24,5.25 z M 10.78125,10.75 12.5,14.375 c 0.571538,-0.680911 1.224004,-1.336255 1.90625,-1.90625 L 10.78125,10.75 z m 26.46875,0 -3.625,1.71875 c 0.679675,0.569439 1.336811,1.226575 1.90625,1.90625 L 37.25,10.75 z M 9.0625,22.625 5.28125,23.96875 9.0625,25.3125 C 9.024981,24.880146 9,24.442031 9,24 9,23.536406 9.0212735,23.077908 9.0625,22.625 z m 29.875,0.03125 C 38.976851,23.098888 39,23.547187 39,24 c 0,0.452813 -0.02315,0.901112 -0.0625,1.34375 L 42.71875,24 38.9375,22.65625 z m -3.40625,10.9375 c -0.572957,0.68579 -1.221265,1.363613 -1.90625,1.9375 L 37.25,37.25 35.53125,33.59375 z M 12.5,33.625 10.78125,37.21875 14.375,35.5 C 13.702932,34.935884 13.064116,34.297068 12.5,33.625 z M 22.65625,38.9375 24,42.71875 25.34375,38.9375 C 24.901112,38.976851 24.452813,39 24,39 23.547187,39 23.098888,38.97685 22.65625,38.9375 z"
             id="path3927" />
        </g>
        <g
           id="g3929">
          <g
             id="g3932">
            <path
               inkscape:r_cy="true"
               inkscape:r_cx="true"
               transform="matrix(0.778062,-1.061285,1.061287,0.778062,67.47952,3.641324)"
               d="m -22.5,-17.5 c 0,5.246705 -4.253295,9.5 -9.5,9.5 -5.246705,0 -9.5,-4.253295 -9.5,-9.5 0,-5.246705 4.253295,-9.5 9.5,-9.5 5.246705,0 9.5,4.253295 9.5,9.5 z"
               sodipodi:ry="9.5"
               sodipodi:rx="9.5"
               sodipodi:cy="-17.5"
               sodipodi:cx="-32"
               id="path3934"
               style="fill:#ffee54;fill-opacity:1;stroke:#fcaf3e;stroke-width:0.75991178;stroke-linecap:square;stroke-linejoin:miter;stroke-miterlimit:4;stroke-opacity:1;stroke-dasharray:none"
               sodipodi:type="arc" />
            <path
               inkscape:r_cy="true"
               inkscape:r_cx="true"
               transform="matrix(1.244257,-0.167707,0.216642,1.251844,67.61648,40.527)"
               d="m -22.5,-17.5 c 0,5.246705 -4.253295,9.5 -9.5,9.5 -5.246705,0 -9.5,-4.253295 -9.5,-9.5 0,-5.246705 4.253295,-9.5 9.5,-9.5 5.246705,0 9.5,4.253295 9.5,9.5 z"
               sodipodi:ry="9.5"
               sodipodi:rx="9.5"
               sodipodi:cy="-17.5"
               sodipodi:cx="-32"
               id="path3936"
               style="fill:url(#radialGradient4094);fill-opacity:1;stroke:none"
               sodipodi:type="arc" />
            <path
               inkscape:r_cy="true"
               inkscape:r_cx="true"
               transform="matrix(0.715791,-0.976349,0.97635,0.715792,64.00044,5.269544)"
               d="m -22.5,-17.5 c 0,5.246705 -4.253295,9.5 -9.5,9.5 -5.246705,0 -9.5,-4.253295 -9.5,-9.5 0,-5.246705 4.253295,-9.5 9.5,-9.5 5.246705,0 9.5,4.253295 9.5,9.5 z"
               sodipodi:ry="9.5"
               sodipodi:rx="9.5"
               sodipodi:cy="-17.5"
               sodipodi:cx="-32"
               id="path3938"
               style="fill:none;stroke:url(#linearGradient4096);stroke-width:0.82601947;stroke-linecap:square;stroke-linejoin:miter;stroke-miterlimit:4;stroke-opacity:1;stroke-dasharray:none"
               sodipodi:type="arc" />
          </g>
        </g>
      </g>
      <g
         id="g3940"
         transform="matrix(3.1383349,1.3530732,-1.3530732,3.1383349,-159.75128,-169.01618)">
        <g
           id="g3942"
           style="opacity:0.7">
          <path
             id="path3944"
             d="M 24,2.5 21.625,9.1875 C 22.399034,9.0641318 23.191406,9 24,9 c 0.808594,0 1.600966,0.064132 2.375,0.1875 L 24,2.5 z m -15.1875,6.28125 3.03125,6.4375 c 0.935284,-1.290181 2.084819,-2.439716 3.375,-3.375 L 8.8125,8.78125 z m 30.40625,0 -6.4375,3.0625 c 1.290181,0.935284 2.439716,2.084819 3.375,3.375 l 3.0625,-6.4375 z M 9.1875,21.59375 2.5,23.96875 l 6.6875,2.375 C 9.0673373,25.57952 9,24.797813 9,24 9,23.180625 9.0608858,22.377571 9.1875,21.59375 z M 38.8125,21.625 C 38.935868,22.399034 39,23.191406 39,24 c 0,0.808594 -0.06413,1.600966 -0.1875,2.375 L 45.5,24 38.8125,21.625 z M 11.84375,32.78125 8.8125,39.1875 15.21875,36.15625 c -1.290181,-0.935284 -2.439716,-2.084819 -3.375,-3.375 z m 24.3125,0 c -0.926461,1.27801 -2.068633,2.413549 -3.34375,3.34375 l 6.40625,3.0625 -3.0625,-6.40625 z M 21.625,38.8125 24,45.5 26.375,38.8125 C 25.600966,38.935868 24.808594,39 24,39 23.191406,39 22.399034,38.93587 21.625,38.8125 z"
             style="fill:#fce94f;fill-opacity:1;stroke:#fcaf3e;stroke-width:0.73732895;stroke-linecap:square;stroke-linejoin:miter;stroke-miterlimit:4;stroke-opacity:1;stroke-dasharray:none"
             inkscape:connector-curvature="0" />
          <path
             id="path3946"
             d="M 24,5.25 22.65625,9.0625 C 23.098888,9.0231486 23.547187,9 24,9 c 0.452813,0 0.901112,0.023149 1.34375,0.0625 L 24,5.25 z M 10.78125,10.75 12.5,14.375 c 0.571538,-0.680911 1.224004,-1.336255 1.90625,-1.90625 L 10.78125,10.75 z m 26.46875,0 -3.625,1.71875 c 0.679675,0.569439 1.336811,1.226575 1.90625,1.90625 L 37.25,10.75 z M 9.0625,22.625 5.28125,23.96875 9.0625,25.3125 C 9.024981,24.880146 9,24.442031 9,24 9,23.536406 9.0212735,23.077908 9.0625,22.625 z m 29.875,0.03125 C 38.976851,23.098888 39,23.547187 39,24 c 0,0.452813 -0.02315,0.901112 -0.0625,1.34375 L 42.71875,24 38.9375,22.65625 z m -3.40625,10.9375 c -0.572957,0.68579 -1.221265,1.363613 -1.90625,1.9375 L 37.25,37.25 35.53125,33.59375 z M 12.5,33.625 10.78125,37.21875 14.375,35.5 C 13.702932,34.935884 13.064116,34.297068 12.5,33.625 z M 22.65625,38.9375 24,42.71875 25.34375,38.9375 C 24.901112,38.976851 24.452813,39 24,39 23.547187,39 23.098888,38.97685 22.65625,38.9375 z"
             style="fill:none;stroke:url(#radialGradient4098);stroke-width:0.84646249;stroke-linecap:square;stroke-linejoin:miter;stroke-miterlimit:4;stroke-opacity:1;stroke-dasharray:none"
             inkscape:connector-curvature="0" />
        </g>
        <g
           id="g3948">
          <g
             id="g3950">
            <path
               sodipodi:type="arc"
               style="fill:#ffee54;fill-opacity:1;stroke:#fcaf3e;stroke-width:0.75991178;stroke-linecap:square;stroke-linejoin:miter;stroke-miterlimit:4;stroke-opacity:1;stroke-dasharray:none"
               id="path3952"
               sodipodi:cx="-32"
               sodipodi:cy="-17.5"
               sodipodi:rx="9.5"
               sodipodi:ry="9.5"
               d="m -22.5,-17.5 c 0,5.246705 -4.253295,9.5 -9.5,9.5 -5.246705,0 -9.5,-4.253295 -9.5,-9.5 0,-5.246705 4.253295,-9.5 9.5,-9.5 5.246705,0 9.5,4.253295 9.5,9.5 z"
               transform="matrix(0.778062,-1.061285,1.061287,0.778062,67.47952,3.641324)"
               inkscape:r_cx="true"
               inkscape:r_cy="true" />
            <path
               sodipodi:type="arc"
               style="fill:url(#radialGradient4100);fill-opacity:1;stroke:none"
               id="path3954"
               sodipodi:cx="-32"
               sodipodi:cy="-17.5"
               sodipodi:rx="9.5"
               sodipodi:ry="9.5"
               d="m -22.5,-17.5 c 0,5.246705 -4.253295,9.5 -9.5,9.5 -5.246705,0 -9.5,-4.253295 -9.5,-9.5 0,-5.246705 4.253295,-9.5 9.5,-9.5 5.246705,0 9.5,4.253295 9.5,9.5 z"
               transform="matrix(1.244257,-0.167707,0.216642,1.251844,67.61648,40.527)"
               inkscape:r_cx="true"
               inkscape:r_cy="true" />
            <path
               sodipodi:type="arc"
               style="fill:none;stroke:url(#linearGradient4102);stroke-width:0.82601947;stroke-linecap:square;stroke-linejoin:miter;stroke-miterlimit:4;stroke-opacity:1;stroke-dasharray:none"
               id="path3956"
               sodipodi:cx="-32"
               sodipodi:cy="-17.5"
               sodipodi:rx="9.5"
               sodipodi:ry="9.5"
               d="m -22.5,-17.5 c 0,5.246705 -4.253295,9.5 -9.5,9.5 -5.246705,0 -9.5,-4.253295 -9.5,-9.5 0,-5.246705 4.253295,-9.5 9.5,-9.5 5.246705,0 9.5,4.253295 9.5,9.5 z"
               transform="matrix(0.715791,-0.976349,0.97635,0.715792,64.00044,5.269544)"
               inkscape:r_cx="true"
               inkscape:r_cy="true" />
          </g>
        </g>
      </g>
    </g>
    <g
       id="g3970"
       transform="matrix(0.08667566,0,0,0.08667566,63.653026,86.725219)">
      <g
         id="g3972"
         transform="matrix(3.4175946,0,0,3.4175946,-198.92727,-143.24466)">
        <g
           id="g3974"
           style="opacity:0.7">
          <path
             id="path3976"
             d="M 24,2.5 21.625,9.1875 C 22.399034,9.0641318 23.191406,9 24,9 c 0.808594,0 1.600966,0.064132 2.375,0.1875 L 24,2.5 z m -15.1875,6.28125 3.03125,6.4375 c 0.935284,-1.290181 2.084819,-2.439716 3.375,-3.375 L 8.8125,8.78125 z m 30.40625,0 -6.4375,3.0625 c 1.290181,0.935284 2.439716,2.084819 3.375,3.375 l 3.0625,-6.4375 z M 9.1875,21.59375 2.5,23.96875 l 6.6875,2.375 C 9.0673373,25.57952 9,24.797813 9,24 9,23.180625 9.0608858,22.377571 9.1875,21.59375 z M 38.8125,21.625 C 38.935868,22.399034 39,23.191406 39,24 c 0,0.808594 -0.06413,1.600966 -0.1875,2.375 L 45.5,24 38.8125,21.625 z M 11.84375,32.78125 8.8125,39.1875 15.21875,36.15625 c -1.290181,-0.935284 -2.439716,-2.084819 -3.375,-3.375 z m 24.3125,0 c -0.926461,1.27801 -2.068633,2.413549 -3.34375,3.34375 l 6.40625,3.0625 -3.0625,-6.40625 z M 21.625,38.8125 24,45.5 26.375,38.8125 C 25.600966,38.935868 24.808594,39 24,39 23.191406,39 22.399034,38.93587 21.625,38.8125 z"
             style="fill:#fce94f;fill-opacity:1;stroke:#fcaf3e;stroke-width:0.73732895;stroke-linecap:square;stroke-linejoin:miter;stroke-miterlimit:4;stroke-opacity:1;stroke-dasharray:none"
             inkscape:connector-curvature="0" />
          <path
             id="path3978"
             d="M 24,5.25 22.65625,9.0625 C 23.098888,9.0231486 23.547187,9 24,9 c 0.452813,0 0.901112,0.023149 1.34375,0.0625 L 24,5.25 z M 10.78125,10.75 12.5,14.375 c 0.571538,-0.680911 1.224004,-1.336255 1.90625,-1.90625 L 10.78125,10.75 z m 26.46875,0 -3.625,1.71875 c 0.679675,0.569439 1.336811,1.226575 1.90625,1.90625 L 37.25,10.75 z M 9.0625,22.625 5.28125,23.96875 9.0625,25.3125 C 9.024981,24.880146 9,24.442031 9,24 9,23.536406 9.0212735,23.077908 9.0625,22.625 z m 29.875,0.03125 C 38.976851,23.098888 39,23.547187 39,24 c 0,0.452813 -0.02315,0.901112 -0.0625,1.34375 L 42.71875,24 38.9375,22.65625 z m -3.40625,10.9375 c -0.572957,0.68579 -1.221265,1.363613 -1.90625,1.9375 L 37.25,37.25 35.53125,33.59375 z M 12.5,33.625 10.78125,37.21875 14.375,35.5 C 13.702932,34.935884 13.064116,34.297068 12.5,33.625 z M 22.65625,38.9375 24,42.71875 25.34375,38.9375 C 24.901112,38.976851 24.452813,39 24,39 23.547187,39 23.098888,38.97685 22.65625,38.9375 z"
             style="fill:none;stroke:url(#radialGradient4104);stroke-width:0.84646249;stroke-linecap:square;stroke-linejoin:miter;stroke-miterlimit:4;stroke-opacity:1;stroke-dasharray:none"
             inkscape:connector-curvature="0" />
        </g>
        <g
           id="g3980">
          <g
             id="g3982">
            <path
               sodipodi:type="arc"
               style="fill:#ffee54;fill-opacity:1;stroke:#fcaf3e;stroke-width:0.75991178;stroke-linecap:square;stroke-linejoin:miter;stroke-miterlimit:4;stroke-opacity:1;stroke-dasharray:none"
               id="path3984"
               sodipodi:cx="-32"
               sodipodi:cy="-17.5"
               sodipodi:rx="9.5"
               sodipodi:ry="9.5"
               d="m -22.5,-17.5 c 0,5.246705 -4.253295,9.5 -9.5,9.5 -5.246705,0 -9.5,-4.253295 -9.5,-9.5 0,-5.246705 4.253295,-9.5 9.5,-9.5 5.246705,0 9.5,4.253295 9.5,9.5 z"
               transform="matrix(0.778062,-1.061285,1.061287,0.778062,67.47952,3.641324)"
               inkscape:r_cx="true"
               inkscape:r_cy="true" />
            <path
               sodipodi:type="arc"
               style="fill:url(#radialGradient4106);fill-opacity:1;stroke:none"
               id="path3986"
               sodipodi:cx="-32"
               sodipodi:cy="-17.5"
               sodipodi:rx="9.5"
               sodipodi:ry="9.5"
               d="m -22.5,-17.5 c 0,5.246705 -4.253295,9.5 -9.5,9.5 -5.246705,0 -9.5,-4.253295 -9.5,-9.5 0,-5.246705 4.253295,-9.5 9.5,-9.5 5.246705,0 9.5,4.253295 9.5,9.5 z"
               transform="matrix(1.244257,-0.167707,0.216642,1.251844,67.61648,40.527)"
               inkscape:r_cx="true"
               inkscape:r_cy="true" />
            <path
               sodipodi:type="arc"
               style="fill:none;stroke:url(#linearGradient4108);stroke-width:0.82601947;stroke-linecap:square;stroke-linejoin:miter;stroke-miterlimit:4;stroke-opacity:1;stroke-dasharray:none"
               id="path3988"
               sodipodi:cx="-32"
               sodipodi:cy="-17.5"
               sodipodi:rx="9.5"
               sodipodi:ry="9.5"
               d="m -22.5,-17.5 c 0,5.246705 -4.253295,9.5 -9.5,9.5 -5.246705,0 -9.5,-4.253295 -9.5,-9.5 0,-5.246705 4.253295,-9.5 9.5,-9.5 5.246705,0 9.5,4.253295 9.5,9.5 z"
               transform="matrix(0.715791,-0.976349,0.97635,0.715792,64.00044,5.269544)"
               inkscape:r_cx="true"
               inkscape:r_cy="true" />
          </g>
        </g>
      </g>
      <g
         transform="matrix(3.1383349,1.3530732,-1.3530732,3.1383349,-159.75128,-169.01618)"
         id="g3990">
        <g
           style="opacity:0.7"
           id="g3992">
          <path
             inkscape:connector-curvature="0"
             style="fill:#fce94f;fill-opacity:1;stroke:#fcaf3e;stroke-width:0.73732895;stroke-linecap:square;stroke-linejoin:miter;stroke-miterlimit:4;stroke-opacity:1;stroke-dasharray:none"
             d="M 24,2.5 21.625,9.1875 C 22.399034,9.0641318 23.191406,9 24,9 c 0.808594,0 1.600966,0.064132 2.375,0.1875 L 24,2.5 z m -15.1875,6.28125 3.03125,6.4375 c 0.935284,-1.290181 2.084819,-2.439716 3.375,-3.375 L 8.8125,8.78125 z m 30.40625,0 -6.4375,3.0625 c 1.290181,0.935284 2.439716,2.084819 3.375,3.375 l 3.0625,-6.4375 z M 9.1875,21.59375 2.5,23.96875 l 6.6875,2.375 C 9.0673373,25.57952 9,24.797813 9,24 9,23.180625 9.0608858,22.377571 9.1875,21.59375 z M 38.8125,21.625 C 38.935868,22.399034 39,23.191406 39,24 c 0,0.808594 -0.06413,1.600966 -0.1875,2.375 L 45.5,24 38.8125,21.625 z M 11.84375,32.78125 8.8125,39.1875 15.21875,36.15625 c -1.290181,-0.935284 -2.439716,-2.084819 -3.375,-3.375 z m 24.3125,0 c -0.926461,1.27801 -2.068633,2.413549 -3.34375,3.34375 l 6.40625,3.0625 -3.0625,-6.40625 z M 21.625,38.8125 24,45.5 26.375,38.8125 C 25.600966,38.935868 24.808594,39 24,39 23.191406,39 22.399034,38.93587 21.625,38.8125 z"
             id="path3994" />
          <path
             inkscape:connector-curvature="0"
             style="fill:none;stroke:url(#radialGradient4110);stroke-width:0.84646249;stroke-linecap:square;stroke-linejoin:miter;stroke-miterlimit:4;stroke-opacity:1;stroke-dasharray:none"
             d="M 24,5.25 22.65625,9.0625 C 23.098888,9.0231486 23.547187,9 24,9 c 0.452813,0 0.901112,0.023149 1.34375,0.0625 L 24,5.25 z M 10.78125,10.75 12.5,14.375 c 0.571538,-0.680911 1.224004,-1.336255 1.90625,-1.90625 L 10.78125,10.75 z m 26.46875,0 -3.625,1.71875 c 0.679675,0.569439 1.336811,1.226575 1.90625,1.90625 L 37.25,10.75 z M 9.0625,22.625 5.28125,23.96875 9.0625,25.3125 C 9.024981,24.880146 9,24.442031 9,24 9,23.536406 9.0212735,23.077908 9.0625,22.625 z m 29.875,0.03125 C 38.976851,23.098888 39,23.547187 39,24 c 0,0.452813 -0.02315,0.901112 -0.0625,1.34375 L 42.71875,24 38.9375,22.65625 z m -3.40625,10.9375 c -0.572957,0.68579 -1.221265,1.363613 -1.90625,1.9375 L 37.25,37.25 35.53125,33.59375 z M 12.5,33.625 10.78125,37.21875 14.375,35.5 C 13.702932,34.935884 13.064116,34.297068 12.5,33.625 z M 22.65625,38.9375 24,42.71875 25.34375,38.9375 C 24.901112,38.976851 24.452813,39 24,39 23.547187,39 23.098888,38.97685 22.65625,38.9375 z"
             id="path3996" />
        </g>
        <g
           id="g3998">
          <g
             id="g4000">
            <path
               inkscape:r_cy="true"
               inkscape:r_cx="true"
               transform="matrix(0.778062,-1.061285,1.061287,0.778062,67.47952,3.641324)"
               d="m -22.5,-17.5 c 0,5.246705 -4.253295,9.5 -9.5,9.5 -5.246705,0 -9.5,-4.253295 -9.5,-9.5 0,-5.246705 4.253295,-9.5 9.5,-9.5 5.246705,0 9.5,4.253295 9.5,9.5 z"
               sodipodi:ry="9.5"
               sodipodi:rx="9.5"
               sodipodi:cy="-17.5"
               sodipodi:cx="-32"
               id="path4002"
               style="fill:#ffee54;fill-opacity:1;stroke:#fcaf3e;stroke-width:0.75991178;stroke-linecap:square;stroke-linejoin:miter;stroke-miterlimit:4;stroke-opacity:1;stroke-dasharray:none"
               sodipodi:type="arc" />
            <path
               inkscape:r_cy="true"
               inkscape:r_cx="true"
               transform="matrix(1.244257,-0.167707,0.216642,1.251844,67.61648,40.527)"
               d="m -22.5,-17.5 c 0,5.246705 -4.253295,9.5 -9.5,9.5 -5.246705,0 -9.5,-4.253295 -9.5,-9.5 0,-5.246705 4.253295,-9.5 9.5,-9.5 5.246705,0 9.5,4.253295 9.5,9.5 z"
               sodipodi:ry="9.5"
               sodipodi:rx="9.5"
               sodipodi:cy="-17.5"
               sodipodi:cx="-32"
               id="path4004"
               style="fill:url(#radialGradient4112);fill-opacity:1;stroke:none"
               sodipodi:type="arc" />
            <path
               inkscape:r_cy="true"
               inkscape:r_cx="true"
               transform="matrix(0.715791,-0.976349,0.97635,0.715792,64.00044,5.269544)"
               d="m -22.5,-17.5 c 0,5.246705 -4.253295,9.5 -9.5,9.5 -5.246705,0 -9.5,-4.253295 -9.5,-9.5 0,-5.246705 4.253295,-9.5 9.5,-9.5 5.246705,0 9.5,4.253295 9.5,9.5 z"
               sodipodi:ry="9.5"
               sodipodi:rx="9.5"
               sodipodi:cy="-17.5"
               sodipodi:cx="-32"
               id="path4006"
               style="fill:none;stroke:url(#linearGradient4114);stroke-width:0.82601947;stroke-linecap:square;stroke-linejoin:miter;stroke-miterlimit:4;stroke-opacity:1;stroke-dasharray:none"
               sodipodi:type="arc" />
          </g>
        </g>
      </g>
    </g>
    <g
       transform="matrix(0.20091248,0.04047543,-0.04047543,0.20091248,69.112086,74.355979)"
       id="g3123">
      <g
         transform="matrix(3.4175946,0,0,3.4175946,-198.92727,-143.24466)"
         id="g3125">
        <g
           style="opacity:0.7"
           id="g3127">
          <path
             inkscape:connector-curvature="0"
             style="fill:#fce94f;fill-opacity:1;stroke:#fcaf3e;stroke-width:0.73732895;stroke-linecap:square;stroke-linejoin:miter;stroke-miterlimit:4;stroke-opacity:1;stroke-dasharray:none"
             d="M 24,2.5 21.625,9.1875 C 22.399034,9.0641318 23.191406,9 24,9 c 0.808594,0 1.600966,0.064132 2.375,0.1875 L 24,2.5 z m -15.1875,6.28125 3.03125,6.4375 c 0.935284,-1.290181 2.084819,-2.439716 3.375,-3.375 L 8.8125,8.78125 z m 30.40625,0 -6.4375,3.0625 c 1.290181,0.935284 2.439716,2.084819 3.375,3.375 l 3.0625,-6.4375 z M 9.1875,21.59375 2.5,23.96875 l 6.6875,2.375 C 9.0673373,25.57952 9,24.797813 9,24 9,23.180625 9.0608858,22.377571 9.1875,21.59375 z M 38.8125,21.625 C 38.935868,22.399034 39,23.191406 39,24 c 0,0.808594 -0.06413,1.600966 -0.1875,2.375 L 45.5,24 38.8125,21.625 z M 11.84375,32.78125 8.8125,39.1875 15.21875,36.15625 c -1.290181,-0.935284 -2.439716,-2.084819 -3.375,-3.375 z m 24.3125,0 c -0.926461,1.27801 -2.068633,2.413549 -3.34375,3.34375 l 6.40625,3.0625 -3.0625,-6.40625 z M 21.625,38.8125 24,45.5 26.375,38.8125 C 25.600966,38.935868 24.808594,39 24,39 23.191406,39 22.399034,38.93587 21.625,38.8125 z"
             id="path3129" />
          <path
             inkscape:connector-curvature="0"
             style="fill:none;stroke:url(#radialGradient3161);stroke-width:0.84646249;stroke-linecap:square;stroke-linejoin:miter;stroke-miterlimit:4;stroke-opacity:1;stroke-dasharray:none"
             d="M 24,5.25 22.65625,9.0625 C 23.098888,9.0231486 23.547187,9 24,9 c 0.452813,0 0.901112,0.023149 1.34375,0.0625 L 24,5.25 z M 10.78125,10.75 12.5,14.375 c 0.571538,-0.680911 1.224004,-1.336255 1.90625,-1.90625 L 10.78125,10.75 z m 26.46875,0 -3.625,1.71875 c 0.679675,0.569439 1.336811,1.226575 1.90625,1.90625 L 37.25,10.75 z M 9.0625,22.625 5.28125,23.96875 9.0625,25.3125 C 9.024981,24.880146 9,24.442031 9,24 9,23.536406 9.0212735,23.077908 9.0625,22.625 z m 29.875,0.03125 C 38.976851,23.098888 39,23.547187 39,24 c 0,0.452813 -0.02315,0.901112 -0.0625,1.34375 L 42.71875,24 38.9375,22.65625 z m -3.40625,10.9375 c -0.572957,0.68579 -1.221265,1.363613 -1.90625,1.9375 L 37.25,37.25 35.53125,33.59375 z M 12.5,33.625 10.78125,37.21875 14.375,35.5 C 13.702932,34.935884 13.064116,34.297068 12.5,33.625 z M 22.65625,38.9375 24,42.71875 25.34375,38.9375 C 24.901112,38.976851 24.452813,39 24,39 23.547187,39 23.098888,38.97685 22.65625,38.9375 z"
             id="path3131" />
        </g>
        <g
           id="g3133">
          <g
             id="g3135">
            <path
               inkscape:r_cy="true"
               inkscape:r_cx="true"
               transform="matrix(0.778062,-1.061285,1.061287,0.778062,67.47952,3.641324)"
               d="m -22.5,-17.5 c 0,5.246705 -4.253295,9.5 -9.5,9.5 -5.246705,0 -9.5,-4.253295 -9.5,-9.5 0,-5.246705 4.253295,-9.5 9.5,-9.5 5.246705,0 9.5,4.253295 9.5,9.5 z"
               sodipodi:ry="9.5"
               sodipodi:rx="9.5"
               sodipodi:cy="-17.5"
               sodipodi:cx="-32"
               id="path3137"
               style="fill:#ffee54;fill-opacity:1;stroke:#fcaf3e;stroke-width:0.75991178;stroke-linecap:square;stroke-linejoin:miter;stroke-miterlimit:4;stroke-opacity:1;stroke-dasharray:none"
               sodipodi:type="arc" />
            <path
               inkscape:r_cy="true"
               inkscape:r_cx="true"
               transform="matrix(1.244257,-0.167707,0.216642,1.251844,67.61648,40.527)"
               d="m -22.5,-17.5 c 0,5.246705 -4.253295,9.5 -9.5,9.5 -5.246705,0 -9.5,-4.253295 -9.5,-9.5 0,-5.246705 4.253295,-9.5 9.5,-9.5 5.246705,0 9.5,4.253295 9.5,9.5 z"
               sodipodi:ry="9.5"
               sodipodi:rx="9.5"
               sodipodi:cy="-17.5"
               sodipodi:cx="-32"
               id="path3139"
               style="fill:url(#radialGradient3163);fill-opacity:1;stroke:none"
               sodipodi:type="arc" />
            <path
               inkscape:r_cy="true"
               inkscape:r_cx="true"
               transform="matrix(0.715791,-0.976349,0.97635,0.715792,64.00044,5.269544)"
               d="m -22.5,-17.5 c 0,5.246705 -4.253295,9.5 -9.5,9.5 -5.246705,0 -9.5,-4.253295 -9.5,-9.5 0,-5.246705 4.253295,-9.5 9.5,-9.5 5.246705,0 9.5,4.253295 9.5,9.5 z"
               sodipodi:ry="9.5"
               sodipodi:rx="9.5"
               sodipodi:cy="-17.5"
               sodipodi:cx="-32"
               id="path3141"
               style="fill:none;stroke:url(#linearGradient3165);stroke-width:0.82601947;stroke-linecap:square;stroke-linejoin:miter;stroke-miterlimit:4;stroke-opacity:1;stroke-dasharray:none"
               sodipodi:type="arc" />
          </g>
        </g>
      </g>
      <g
         id="g3143"
         transform="matrix(3.1383349,1.3530732,-1.3530732,3.1383349,-159.75128,-169.01618)">
        <g
           id="g3145"
           style="opacity:0.7">
          <path
             id="path3147"
             d="M 24,2.5 21.625,9.1875 C 22.399034,9.0641318 23.191406,9 24,9 c 0.808594,0 1.600966,0.064132 2.375,0.1875 L 24,2.5 z m -15.1875,6.28125 3.03125,6.4375 c 0.935284,-1.290181 2.084819,-2.439716 3.375,-3.375 L 8.8125,8.78125 z m 30.40625,0 -6.4375,3.0625 c 1.290181,0.935284 2.439716,2.084819 3.375,3.375 l 3.0625,-6.4375 z M 9.1875,21.59375 2.5,23.96875 l 6.6875,2.375 C 9.0673373,25.57952 9,24.797813 9,24 9,23.180625 9.0608858,22.377571 9.1875,21.59375 z M 38.8125,21.625 C 38.935868,22.399034 39,23.191406 39,24 c 0,0.808594 -0.06413,1.600966 -0.1875,2.375 L 45.5,24 38.8125,21.625 z M 11.84375,32.78125 8.8125,39.1875 15.21875,36.15625 c -1.290181,-0.935284 -2.439716,-2.084819 -3.375,-3.375 z m 24.3125,0 c -0.926461,1.27801 -2.068633,2.413549 -3.34375,3.34375 l 6.40625,3.0625 -3.0625,-6.40625 z M 21.625,38.8125 24,45.5 26.375,38.8125 C 25.600966,38.935868 24.808594,39 24,39 23.191406,39 22.399034,38.93587 21.625,38.8125 z"
             style="fill:#fce94f;fill-opacity:1;stroke:#fcaf3e;stroke-width:0.73732895;stroke-linecap:square;stroke-linejoin:miter;stroke-miterlimit:4;stroke-opacity:1;stroke-dasharray:none"
             inkscape:connector-curvature="0" />
          <path
             id="path3149"
             d="M 24,5.25 22.65625,9.0625 C 23.098888,9.0231486 23.547187,9 24,9 c 0.452813,0 0.901112,0.023149 1.34375,0.0625 L 24,5.25 z M 10.78125,10.75 12.5,14.375 c 0.571538,-0.680911 1.224004,-1.336255 1.90625,-1.90625 L 10.78125,10.75 z m 26.46875,0 -3.625,1.71875 c 0.679675,0.569439 1.336811,1.226575 1.90625,1.90625 L 37.25,10.75 z M 9.0625,22.625 5.28125,23.96875 9.0625,25.3125 C 9.024981,24.880146 9,24.442031 9,24 9,23.536406 9.0212735,23.077908 9.0625,22.625 z m 29.875,0.03125 C 38.976851,23.098888 39,23.547187 39,24 c 0,0.452813 -0.02315,0.901112 -0.0625,1.34375 L 42.71875,24 38.9375,22.65625 z m -3.40625,10.9375 c -0.572957,0.68579 -1.221265,1.363613 -1.90625,1.9375 L 37.25,37.25 35.53125,33.59375 z M 12.5,33.625 10.78125,37.21875 14.375,35.5 C 13.702932,34.935884 13.064116,34.297068 12.5,33.625 z M 22.65625,38.9375 24,42.71875 25.34375,38.9375 C 24.901112,38.976851 24.452813,39 24,39 23.547187,39 23.098888,38.97685 22.65625,38.9375 z"
             style="fill:none;stroke:url(#radialGradient3167);stroke-width:0.84646249;stroke-linecap:square;stroke-linejoin:miter;stroke-miterlimit:4;stroke-opacity:1;stroke-dasharray:none"
             inkscape:connector-curvature="0" />
        </g>
        <g
           id="g3151">
          <g
             id="g3153">
            <path
               sodipodi:type="arc"
               style="fill:#ffee54;fill-opacity:1;stroke:#fcaf3e;stroke-width:0.75991178;stroke-linecap:square;stroke-linejoin:miter;stroke-miterlimit:4;stroke-opacity:1;stroke-dasharray:none"
               id="path3155"
               sodipodi:cx="-32"
               sodipodi:cy="-17.5"
               sodipodi:rx="9.5"
               sodipodi:ry="9.5"
               d="m -22.5,-17.5 c 0,5.246705 -4.253295,9.5 -9.5,9.5 -5.246705,0 -9.5,-4.253295 -9.5,-9.5 0,-5.246705 4.253295,-9.5 9.5,-9.5 5.246705,0 9.5,4.253295 9.5,9.5 z"
               transform="matrix(0.778062,-1.061285,1.061287,0.778062,67.47952,3.641324)"
               inkscape:r_cx="true"
               inkscape:r_cy="true" />
            <path
               sodipodi:type="arc"
               style="fill:url(#radialGradient3169);fill-opacity:1;stroke:none"
               id="path3157"
               sodipodi:cx="-32"
               sodipodi:cy="-17.5"
               sodipodi:rx="9.5"
               sodipodi:ry="9.5"
               d="m -22.5,-17.5 c 0,5.246705 -4.253295,9.5 -9.5,9.5 -5.246705,0 -9.5,-4.253295 -9.5,-9.5 0,-5.246705 4.253295,-9.5 9.5,-9.5 5.246705,0 9.5,4.253295 9.5,9.5 z"
               transform="matrix(1.244257,-0.167707,0.216642,1.251844,67.61648,40.527)"
               inkscape:r_cx="true"
               inkscape:r_cy="true" />
            <path
               sodipodi:type="arc"
               style="fill:none;stroke:url(#linearGradient3171);stroke-width:0.82601947;stroke-linecap:square;stroke-linejoin:miter;stroke-miterlimit:4;stroke-opacity:1;stroke-dasharray:none"
               id="path3159"
               sodipodi:cx="-32"
               sodipodi:cy="-17.5"
               sodipodi:rx="9.5"
               sodipodi:ry="9.5"
               d="m -22.5,-17.5 c 0,5.246705 -4.253295,9.5 -9.5,9.5 -5.246705,0 -9.5,-4.253295 -9.5,-9.5 0,-5.246705 4.253295,-9.5 9.5,-9.5 5.246705,0 9.5,4.253295 9.5,9.5 z"
               transform="matrix(0.715791,-0.976349,0.97635,0.715792,64.00044,5.269544)"
               inkscape:r_cx="true"
               inkscape:r_cy="true" />
          </g>
        </g>
      </g>
    </g>
    <g
       id="g3173"
       transform="matrix(0.13167335,0.02676733,-0.02676733,0.13167335,82.530046,79.064865)">
      <g
         id="g3175"
         transform="matrix(3.4175946,0,0,3.4175946,-198.92727,-143.24466)">
        <g
           id="g3177"
           style="opacity:0.7">
          <path
             id="path3179"
             d="M 24,2.5 21.625,9.1875 C 22.399034,9.0641318 23.191406,9 24,9 c 0.808594,0 1.600966,0.064132 2.375,0.1875 L 24,2.5 z m -15.1875,6.28125 3.03125,6.4375 c 0.935284,-1.290181 2.084819,-2.439716 3.375,-3.375 L 8.8125,8.78125 z m 30.40625,0 -6.4375,3.0625 c 1.290181,0.935284 2.439716,2.084819 3.375,3.375 l 3.0625,-6.4375 z M 9.1875,21.59375 2.5,23.96875 l 6.6875,2.375 C 9.0673373,25.57952 9,24.797813 9,24 9,23.180625 9.0608858,22.377571 9.1875,21.59375 z M 38.8125,21.625 C 38.935868,22.399034 39,23.191406 39,24 c 0,0.808594 -0.06413,1.600966 -0.1875,2.375 L 45.5,24 38.8125,21.625 z M 11.84375,32.78125 8.8125,39.1875 15.21875,36.15625 c -1.290181,-0.935284 -2.439716,-2.084819 -3.375,-3.375 z m 24.3125,0 c -0.926461,1.27801 -2.068633,2.413549 -3.34375,3.34375 l 6.40625,3.0625 -3.0625,-6.40625 z M 21.625,38.8125 24,45.5 26.375,38.8125 C 25.600966,38.935868 24.808594,39 24,39 23.191406,39 22.399034,38.93587 21.625,38.8125 z"
             style="fill:#fce94f;fill-opacity:1;stroke:#fcaf3e;stroke-width:0.73732895;stroke-linecap:square;stroke-linejoin:miter;stroke-miterlimit:4;stroke-opacity:1;stroke-dasharray:none"
             inkscape:connector-curvature="0" />
          <path
             id="path3181"
             d="M 24,5.25 22.65625,9.0625 C 23.098888,9.0231486 23.547187,9 24,9 c 0.452813,0 0.901112,0.023149 1.34375,0.0625 L 24,5.25 z M 10.78125,10.75 12.5,14.375 c 0.571538,-0.680911 1.224004,-1.336255 1.90625,-1.90625 L 10.78125,10.75 z m 26.46875,0 -3.625,1.71875 c 0.679675,0.569439 1.336811,1.226575 1.90625,1.90625 L 37.25,10.75 z M 9.0625,22.625 5.28125,23.96875 9.0625,25.3125 C 9.024981,24.880146 9,24.442031 9,24 9,23.536406 9.0212735,23.077908 9.0625,22.625 z m 29.875,0.03125 C 38.976851,23.098888 39,23.547187 39,24 c 0,0.452813 -0.02315,0.901112 -0.0625,1.34375 L 42.71875,24 38.9375,22.65625 z m -3.40625,10.9375 c -0.572957,0.68579 -1.221265,1.363613 -1.90625,1.9375 L 37.25,37.25 35.53125,33.59375 z M 12.5,33.625 10.78125,37.21875 14.375,35.5 C 13.702932,34.935884 13.064116,34.297068 12.5,33.625 z M 22.65625,38.9375 24,42.71875 25.34375,38.9375 C 24.901112,38.976851 24.452813,39 24,39 23.547187,39 23.098888,38.97685 22.65625,38.9375 z"
             style="fill:none;stroke:url(#radialGradient3211);stroke-width:0.84646249;stroke-linecap:square;stroke-linejoin:miter;stroke-miterlimit:4;stroke-opacity:1;stroke-dasharray:none"
             inkscape:connector-curvature="0" />
        </g>
        <g
           id="g3183">
          <g
             id="g3185">
            <path
               sodipodi:type="arc"
               style="fill:#ffee54;fill-opacity:1;stroke:#fcaf3e;stroke-width:0.75991178;stroke-linecap:square;stroke-linejoin:miter;stroke-miterlimit:4;stroke-opacity:1;stroke-dasharray:none"
               id="path3187"
               sodipodi:cx="-32"
               sodipodi:cy="-17.5"
               sodipodi:rx="9.5"
               sodipodi:ry="9.5"
               d="m -22.5,-17.5 c 0,5.246705 -4.253295,9.5 -9.5,9.5 -5.246705,0 -9.5,-4.253295 -9.5,-9.5 0,-5.246705 4.253295,-9.5 9.5,-9.5 5.246705,0 9.5,4.253295 9.5,9.5 z"
               transform="matrix(0.778062,-1.061285,1.061287,0.778062,67.47952,3.641324)"
               inkscape:r_cx="true"
               inkscape:r_cy="true" />
            <path
               sodipodi:type="arc"
               style="fill:url(#radialGradient3213);fill-opacity:1;stroke:none"
               id="path3189"
               sodipodi:cx="-32"
               sodipodi:cy="-17.5"
               sodipodi:rx="9.5"
               sodipodi:ry="9.5"
               d="m -22.5,-17.5 c 0,5.246705 -4.253295,9.5 -9.5,9.5 -5.246705,0 -9.5,-4.253295 -9.5,-9.5 0,-5.246705 4.253295,-9.5 9.5,-9.5 5.246705,0 9.5,4.253295 9.5,9.5 z"
               transform="matrix(1.244257,-0.167707,0.216642,1.251844,67.61648,40.527)"
               inkscape:r_cx="true"
               inkscape:r_cy="true" />
            <path
               sodipodi:type="arc"
               style="fill:none;stroke:url(#linearGradient3215);stroke-width:0.82601947;stroke-linecap:square;stroke-linejoin:miter;stroke-miterlimit:4;stroke-opacity:1;stroke-dasharray:none"
               id="path3191"
               sodipodi:cx="-32"
               sodipodi:cy="-17.5"
               sodipodi:rx="9.5"
               sodipodi:ry="9.5"
               d="m -22.5,-17.5 c 0,5.246705 -4.253295,9.5 -9.5,9.5 -5.246705,0 -9.5,-4.253295 -9.5,-9.5 0,-5.246705 4.253295,-9.5 9.5,-9.5 5.246705,0 9.5,4.253295 9.5,9.5 z"
               transform="matrix(0.715791,-0.976349,0.97635,0.715792,64.00044,5.269544)"
               inkscape:r_cx="true"
               inkscape:r_cy="true" />
          </g>
        </g>
      </g>
      <g
         transform="matrix(3.1383349,1.3530732,-1.3530732,3.1383349,-159.75128,-169.01618)"
         id="g3193">
        <g
           style="opacity:0.7"
           id="g3195">
          <path
             inkscape:connector-curvature="0"
             style="fill:#fce94f;fill-opacity:1;stroke:#fcaf3e;stroke-width:0.73732895;stroke-linecap:square;stroke-linejoin:miter;stroke-miterlimit:4;stroke-opacity:1;stroke-dasharray:none"
             d="M 24,2.5 21.625,9.1875 C 22.399034,9.0641318 23.191406,9 24,9 c 0.808594,0 1.600966,0.064132 2.375,0.1875 L 24,2.5 z m -15.1875,6.28125 3.03125,6.4375 c 0.935284,-1.290181 2.084819,-2.439716 3.375,-3.375 L 8.8125,8.78125 z m 30.40625,0 -6.4375,3.0625 c 1.290181,0.935284 2.439716,2.084819 3.375,3.375 l 3.0625,-6.4375 z M 9.1875,21.59375 2.5,23.96875 l 6.6875,2.375 C 9.0673373,25.57952 9,24.797813 9,24 9,23.180625 9.0608858,22.377571 9.1875,21.59375 z M 38.8125,21.625 C 38.935868,22.399034 39,23.191406 39,24 c 0,0.808594 -0.06413,1.600966 -0.1875,2.375 L 45.5,24 38.8125,21.625 z M 11.84375,32.78125 8.8125,39.1875 15.21875,36.15625 c -1.290181,-0.935284 -2.439716,-2.084819 -3.375,-3.375 z m 24.3125,0 c -0.926461,1.27801 -2.068633,2.413549 -3.34375,3.34375 l 6.40625,3.0625 -3.0625,-6.40625 z M 21.625,38.8125 24,45.5 26.375,38.8125 C 25.600966,38.935868 24.808594,39 24,39 23.191406,39 22.399034,38.93587 21.625,38.8125 z"
             id="path3197" />
          <path
             inkscape:connector-curvature="0"
             style="fill:none;stroke:url(#radialGradient3217);stroke-width:0.84646249;stroke-linecap:square;stroke-linejoin:miter;stroke-miterlimit:4;stroke-opacity:1;stroke-dasharray:none"
             d="M 24,5.25 22.65625,9.0625 C 23.098888,9.0231486 23.547187,9 24,9 c 0.452813,0 0.901112,0.023149 1.34375,0.0625 L 24,5.25 z M 10.78125,10.75 12.5,14.375 c 0.571538,-0.680911 1.224004,-1.336255 1.90625,-1.90625 L 10.78125,10.75 z m 26.46875,0 -3.625,1.71875 c 0.679675,0.569439 1.336811,1.226575 1.90625,1.90625 L 37.25,10.75 z M 9.0625,22.625 5.28125,23.96875 9.0625,25.3125 C 9.024981,24.880146 9,24.442031 9,24 9,23.536406 9.0212735,23.077908 9.0625,22.625 z m 29.875,0.03125 C 38.976851,23.098888 39,23.547187 39,24 c 0,0.452813 -0.02315,0.901112 -0.0625,1.34375 L 42.71875,24 38.9375,22.65625 z m -3.40625,10.9375 c -0.572957,0.68579 -1.221265,1.363613 -1.90625,1.9375 L 37.25,37.25 35.53125,33.59375 z M 12.5,33.625 10.78125,37.21875 14.375,35.5 C 13.702932,34.935884 13.064116,34.297068 12.5,33.625 z M 22.65625,38.9375 24,42.71875 25.34375,38.9375 C 24.901112,38.976851 24.452813,39 24,39 23.547187,39 23.098888,38.97685 22.65625,38.9375 z"
             id="path3199" />
        </g>
        <g
           id="g3201">
          <g
             id="g3203">
            <path
               inkscape:r_cy="true"
               inkscape:r_cx="true"
               transform="matrix(0.778062,-1.061285,1.061287,0.778062,67.47952,3.641324)"
               d="m -22.5,-17.5 c 0,5.246705 -4.253295,9.5 -9.5,9.5 -5.246705,0 -9.5,-4.253295 -9.5,-9.5 0,-5.246705 4.253295,-9.5 9.5,-9.5 5.246705,0 9.5,4.253295 9.5,9.5 z"
               sodipodi:ry="9.5"
               sodipodi:rx="9.5"
               sodipodi:cy="-17.5"
               sodipodi:cx="-32"
               id="path3205"
               style="fill:#ffee54;fill-opacity:1;stroke:#fcaf3e;stroke-width:0.75991178;stroke-linecap:square;stroke-linejoin:miter;stroke-miterlimit:4;stroke-opacity:1;stroke-dasharray:none"
               sodipodi:type="arc" />
            <path
               inkscape:r_cy="true"
               inkscape:r_cx="true"
               transform="matrix(1.244257,-0.167707,0.216642,1.251844,67.61648,40.527)"
               d="m -22.5,-17.5 c 0,5.246705 -4.253295,9.5 -9.5,9.5 -5.246705,0 -9.5,-4.253295 -9.5,-9.5 0,-5.246705 4.253295,-9.5 9.5,-9.5 5.246705,0 9.5,4.253295 9.5,9.5 z"
               sodipodi:ry="9.5"
               sodipodi:rx="9.5"
               sodipodi:cy="-17.5"
               sodipodi:cx="-32"
               id="path3207"
               style="fill:url(#radialGradient3219);fill-opacity:1;stroke:none"
               sodipodi:type="arc" />
            <path
               inkscape:r_cy="true"
               inkscape:r_cx="true"
               transform="matrix(0.715791,-0.976349,0.97635,0.715792,64.00044,5.269544)"
               d="m -22.5,-17.5 c 0,5.246705 -4.253295,9.5 -9.5,9.5 -5.246705,0 -9.5,-4.253295 -9.5,-9.5 0,-5.246705 4.253295,-9.5 9.5,-9.5 5.246705,0 9.5,4.253295 9.5,9.5 z"
               sodipodi:ry="9.5"
               sodipodi:rx="9.5"
               sodipodi:cy="-17.5"
               sodipodi:cx="-32"
               id="path3209"
               style="fill:none;stroke:url(#linearGradient3221);stroke-width:0.82601947;stroke-linecap:square;stroke-linejoin:miter;stroke-miterlimit:4;stroke-opacity:1;stroke-dasharray:none"
               sodipodi:type="arc" />
          </g>
        </g>
      </g>
    </g>
    <g
       transform="matrix(0.08489423,0.01748254,-0.01748254,0.08489423,62.374446,88.659952)"
       id="g3223">
      <g
         transform="matrix(3.4175946,0,0,3.4175946,-198.92727,-143.24466)"
         id="g3225">
        <g
           style="opacity:0.7"
           id="g3227">
          <path
             inkscape:connector-curvature="0"
             style="fill:#fce94f;fill-opacity:1;stroke:#fcaf3e;stroke-width:0.73732895;stroke-linecap:square;stroke-linejoin:miter;stroke-miterlimit:4;stroke-opacity:1;stroke-dasharray:none"
             d="M 24,2.5 21.625,9.1875 C 22.399034,9.0641318 23.191406,9 24,9 c 0.808594,0 1.600966,0.064132 2.375,0.1875 L 24,2.5 z m -15.1875,6.28125 3.03125,6.4375 c 0.935284,-1.290181 2.084819,-2.439716 3.375,-3.375 L 8.8125,8.78125 z m 30.40625,0 -6.4375,3.0625 c 1.290181,0.935284 2.439716,2.084819 3.375,3.375 l 3.0625,-6.4375 z M 9.1875,21.59375 2.5,23.96875 l 6.6875,2.375 C 9.0673373,25.57952 9,24.797813 9,24 9,23.180625 9.0608858,22.377571 9.1875,21.59375 z M 38.8125,21.625 C 38.935868,22.399034 39,23.191406 39,24 c 0,0.808594 -0.06413,1.600966 -0.1875,2.375 L 45.5,24 38.8125,21.625 z M 11.84375,32.78125 8.8125,39.1875 15.21875,36.15625 c -1.290181,-0.935284 -2.439716,-2.084819 -3.375,-3.375 z m 24.3125,0 c -0.926461,1.27801 -2.068633,2.413549 -3.34375,3.34375 l 6.40625,3.0625 -3.0625,-6.40625 z M 21.625,38.8125 24,45.5 26.375,38.8125 C 25.600966,38.935868 24.808594,39 24,39 23.191406,39 22.399034,38.93587 21.625,38.8125 z"
             id="path3229" />
          <path
             inkscape:connector-curvature="0"
             style="fill:none;stroke:url(#radialGradient3261);stroke-width:0.84646249;stroke-linecap:square;stroke-linejoin:miter;stroke-miterlimit:4;stroke-opacity:1;stroke-dasharray:none"
             d="M 24,5.25 22.65625,9.0625 C 23.098888,9.0231486 23.547187,9 24,9 c 0.452813,0 0.901112,0.023149 1.34375,0.0625 L 24,5.25 z M 10.78125,10.75 12.5,14.375 c 0.571538,-0.680911 1.224004,-1.336255 1.90625,-1.90625 L 10.78125,10.75 z m 26.46875,0 -3.625,1.71875 c 0.679675,0.569439 1.336811,1.226575 1.90625,1.90625 L 37.25,10.75 z M 9.0625,22.625 5.28125,23.96875 9.0625,25.3125 C 9.024981,24.880146 9,24.442031 9,24 9,23.536406 9.0212735,23.077908 9.0625,22.625 z m 29.875,0.03125 C 38.976851,23.098888 39,23.547187 39,24 c 0,0.452813 -0.02315,0.901112 -0.0625,1.34375 L 42.71875,24 38.9375,22.65625 z m -3.40625,10.9375 c -0.572957,0.68579 -1.221265,1.363613 -1.90625,1.9375 L 37.25,37.25 35.53125,33.59375 z M 12.5,33.625 10.78125,37.21875 14.375,35.5 C 13.702932,34.935884 13.064116,34.297068 12.5,33.625 z M 22.65625,38.9375 24,42.71875 25.34375,38.9375 C 24.901112,38.976851 24.452813,39 24,39 23.547187,39 23.098888,38.97685 22.65625,38.9375 z"
             id="path3231" />
        </g>
        <g
           id="g3233">
          <g
             id="g3235">
            <path
               inkscape:r_cy="true"
               inkscape:r_cx="true"
               transform="matrix(0.778062,-1.061285,1.061287,0.778062,67.47952,3.641324)"
               d="m -22.5,-17.5 c 0,5.246705 -4.253295,9.5 -9.5,9.5 -5.246705,0 -9.5,-4.253295 -9.5,-9.5 0,-5.246705 4.253295,-9.5 9.5,-9.5 5.246705,0 9.5,4.253295 9.5,9.5 z"
               sodipodi:ry="9.5"
               sodipodi:rx="9.5"
               sodipodi:cy="-17.5"
               sodipodi:cx="-32"
               id="path3237"
               style="fill:#ffee54;fill-opacity:1;stroke:#fcaf3e;stroke-width:0.75991178;stroke-linecap:square;stroke-linejoin:miter;stroke-miterlimit:4;stroke-opacity:1;stroke-dasharray:none"
               sodipodi:type="arc" />
            <path
               inkscape:r_cy="true"
               inkscape:r_cx="true"
               transform="matrix(1.244257,-0.167707,0.216642,1.251844,67.61648,40.527)"
               d="m -22.5,-17.5 c 0,5.246705 -4.253295,9.5 -9.5,9.5 -5.246705,0 -9.5,-4.253295 -9.5,-9.5 0,-5.246705 4.253295,-9.5 9.5,-9.5 5.246705,0 9.5,4.253295 9.5,9.5 z"
               sodipodi:ry="9.5"
               sodipodi:rx="9.5"
               sodipodi:cy="-17.5"
               sodipodi:cx="-32"
               id="path3239"
               style="fill:url(#radialGradient3263);fill-opacity:1;stroke:none"
               sodipodi:type="arc" />
            <path
               inkscape:r_cy="true"
               inkscape:r_cx="true"
               transform="matrix(0.715791,-0.976349,0.97635,0.715792,64.00044,5.269544)"
               d="m -22.5,-17.5 c 0,5.246705 -4.253295,9.5 -9.5,9.5 -5.246705,0 -9.5,-4.253295 -9.5,-9.5 0,-5.246705 4.253295,-9.5 9.5,-9.5 5.246705,0 9.5,4.253295 9.5,9.5 z"
               sodipodi:ry="9.5"
               sodipodi:rx="9.5"
               sodipodi:cy="-17.5"
               sodipodi:cx="-32"
               id="path3241"
               style="fill:none;stroke:url(#linearGradient3265);stroke-width:0.82601947;stroke-linecap:square;stroke-linejoin:miter;stroke-miterlimit:4;stroke-opacity:1;stroke-dasharray:none"
               sodipodi:type="arc" />
          </g>
        </g>
      </g>
      <g
         id="g3243"
         transform="matrix(3.1383349,1.3530732,-1.3530732,3.1383349,-159.75128,-169.01618)">
        <g
           id="g3245"
           style="opacity:0.7">
          <path
             id="path3247"
             d="M 24,2.5 21.625,9.1875 C 22.399034,9.0641318 23.191406,9 24,9 c 0.808594,0 1.600966,0.064132 2.375,0.1875 L 24,2.5 z m -15.1875,6.28125 3.03125,6.4375 c 0.935284,-1.290181 2.084819,-2.439716 3.375,-3.375 L 8.8125,8.78125 z m 30.40625,0 -6.4375,3.0625 c 1.290181,0.935284 2.439716,2.084819 3.375,3.375 l 3.0625,-6.4375 z M 9.1875,21.59375 2.5,23.96875 l 6.6875,2.375 C 9.0673373,25.57952 9,24.797813 9,24 9,23.180625 9.0608858,22.377571 9.1875,21.59375 z M 38.8125,21.625 C 38.935868,22.399034 39,23.191406 39,24 c 0,0.808594 -0.06413,1.600966 -0.1875,2.375 L 45.5,24 38.8125,21.625 z M 11.84375,32.78125 8.8125,39.1875 15.21875,36.15625 c -1.290181,-0.935284 -2.439716,-2.084819 -3.375,-3.375 z m 24.3125,0 c -0.926461,1.27801 -2.068633,2.413549 -3.34375,3.34375 l 6.40625,3.0625 -3.0625,-6.40625 z M 21.625,38.8125 24,45.5 26.375,38.8125 C 25.600966,38.935868 24.808594,39 24,39 23.191406,39 22.399034,38.93587 21.625,38.8125 z"
             style="fill:#fce94f;fill-opacity:1;stroke:#fcaf3e;stroke-width:0.73732895;stroke-linecap:square;stroke-linejoin:miter;stroke-miterlimit:4;stroke-opacity:1;stroke-dasharray:none"
             inkscape:connector-curvature="0" />
          <path
             id="path3249"
             d="M 24,5.25 22.65625,9.0625 C 23.098888,9.0231486 23.547187,9 24,9 c 0.452813,0 0.901112,0.023149 1.34375,0.0625 L 24,5.25 z M 10.78125,10.75 12.5,14.375 c 0.571538,-0.680911 1.224004,-1.336255 1.90625,-1.90625 L 10.78125,10.75 z m 26.46875,0 -3.625,1.71875 c 0.679675,0.569439 1.336811,1.226575 1.90625,1.90625 L 37.25,10.75 z M 9.0625,22.625 5.28125,23.96875 9.0625,25.3125 C 9.024981,24.880146 9,24.442031 9,24 9,23.536406 9.0212735,23.077908 9.0625,22.625 z m 29.875,0.03125 C 38.976851,23.098888 39,23.547187 39,24 c 0,0.452813 -0.02315,0.901112 -0.0625,1.34375 L 42.71875,24 38.9375,22.65625 z m -3.40625,10.9375 c -0.572957,0.68579 -1.221265,1.363613 -1.90625,1.9375 L 37.25,37.25 35.53125,33.59375 z M 12.5,33.625 10.78125,37.21875 14.375,35.5 C 13.702932,34.935884 13.064116,34.297068 12.5,33.625 z M 22.65625,38.9375 24,42.71875 25.34375,38.9375 C 24.901112,38.976851 24.452813,39 24,39 23.547187,39 23.098888,38.97685 22.65625,38.9375 z"
             style="fill:none;stroke:url(#radialGradient3267);stroke-width:0.84646249;stroke-linecap:square;stroke-linejoin:miter;stroke-miterlimit:4;stroke-opacity:1;stroke-dasharray:none"
             inkscape:connector-curvature="0" />
        </g>
        <g
           id="g3251">
          <g
             id="g3253">
            <path
               sodipodi:type="arc"
               style="fill:#ffee54;fill-opacity:1;stroke:#fcaf3e;stroke-width:0.75991178;stroke-linecap:square;stroke-linejoin:miter;stroke-miterlimit:4;stroke-opacity:1;stroke-dasharray:none"
               id="path3255"
               sodipodi:cx="-32"
               sodipodi:cy="-17.5"
               sodipodi:rx="9.5"
               sodipodi:ry="9.5"
               d="m -22.5,-17.5 c 0,5.246705 -4.253295,9.5 -9.5,9.5 -5.246705,0 -9.5,-4.253295 -9.5,-9.5 0,-5.246705 4.253295,-9.5 9.5,-9.5 5.246705,0 9.5,4.253295 9.5,9.5 z"
               transform="matrix(0.778062,-1.061285,1.061287,0.778062,67.47952,3.641324)"
               inkscape:r_cx="true"
               inkscape:r_cy="true" />
            <path
               sodipodi:type="arc"
               style="fill:url(#radialGradient3269);fill-opacity:1;stroke:none"
               id="path3257"
               sodipodi:cx="-32"
               sodipodi:cy="-17.5"
               sodipodi:rx="9.5"
               sodipodi:ry="9.5"
               d="m -22.5,-17.5 c 0,5.246705 -4.253295,9.5 -9.5,9.5 -5.246705,0 -9.5,-4.253295 -9.5,-9.5 0,-5.246705 4.253295,-9.5 9.5,-9.5 5.246705,0 9.5,4.253295 9.5,9.5 z"
               transform="matrix(1.244257,-0.167707,0.216642,1.251844,67.61648,40.527)"
               inkscape:r_cx="true"
               inkscape:r_cy="true" />
            <path
               sodipodi:type="arc"
               style="fill:none;stroke:url(#linearGradient3271);stroke-width:0.82601947;stroke-linecap:square;stroke-linejoin:miter;stroke-miterlimit:4;stroke-opacity:1;stroke-dasharray:none"
               id="path3259"
               sodipodi:cx="-32"
               sodipodi:cy="-17.5"
               sodipodi:rx="9.5"
               sodipodi:ry="9.5"
               d="m -22.5,-17.5 c 0,5.246705 -4.253295,9.5 -9.5,9.5 -5.246705,0 -9.5,-4.253295 -9.5,-9.5 0,-5.246705 4.253295,-9.5 9.5,-9.5 5.246705,0 9.5,4.253295 9.5,9.5 z"
               transform="matrix(0.715791,-0.976349,0.97635,0.715792,64.00044,5.269544)"
               inkscape:r_cx="true"
               inkscape:r_cy="true" />
          </g>
        </g>
      </g>
    </g>
  </g>
</svg>
