<?xml version="1.0" encoding="UTF-8" standalone="no"?>
<!-- Created with Inkscape (http://www.inkscape.org/) -->

<svg
   xmlns:dc="http://purl.org/dc/elements/1.1/"
   xmlns:cc="http://creativecommons.org/ns#"
   xmlns:rdf="http://www.w3.org/1999/02/22-rdf-syntax-ns#"
   xmlns:svg="http://www.w3.org/2000/svg"
   xmlns="http://www.w3.org/2000/svg"
   xmlns:xlink="http://www.w3.org/1999/xlink"
   xmlns:sodipodi="http://sodipodi.sourceforge.net/DTD/sodipodi-0.dtd"
   xmlns:inkscape="http://www.inkscape.org/namespaces/inkscape"
   inkscape:export-ydpi="90.000000"
   inkscape:export-xdpi="90.000000"
   inkscape:export-filename="/home/jimmac/Desktop/wi-fi.png"
   width="48"
   height="48"
   id="svg11300"
   sodipodi:version="0.32"
   inkscape:version="0.47+devel r9474"
   sodipodi:docname="plugin-mousegestures.svg"
   inkscape:output_extension="org.inkscape.output.svg.inkscape"
   version="1.0">
  <defs
     id="defs3">
    <linearGradient
       inkscape:collect="always"
       id="linearGradient4139">
      <stop
         style="stop-color:#ffffff;stop-opacity:1;"
         offset="0"
         id="stop4141" />
      <stop
         style="stop-color:#ffffff;stop-opacity:0;"
         offset="1"
         id="stop4143" />
    </linearGradient>
    <linearGradient
       inkscape:collect="always"
       id="linearGradient4092">
      <stop
         style="stop-color:#72d116;stop-opacity:1;"
         offset="0"
         id="stop4094" />
      <stop
         style="stop-color:#72d116;stop-opacity:0;"
         offset="1"
         id="stop4096" />
    </linearGradient>
    <linearGradient
       id="linearGradient124">
      <stop
         id="stop125"
         offset="0.0000000"
         style="stop-color:#ffffff;stop-opacity:1.0000000;" />
      <stop
         id="stop126"
         offset="1"
         style="stop-color:silver;stop-opacity:1;" />
    </linearGradient>
    <linearGradient
       id="linearGradient10554"
       inkscape:collect="always">
      <stop
         id="stop10556"
         offset="0"
         style="stop-color:white;stop-opacity:1;" />
      <stop
         id="stop10558"
         offset="1"
         style="stop-color:white;stop-opacity:0;" />
    </linearGradient>
    <linearGradient
       inkscape:collect="always"
       xlink:href="#linearGradient124"
       id="linearGradient4038"
       gradientUnits="userSpaceOnUse"
       gradientTransform="matrix(1.4019046,3.2381864,-0.8095466,0.3504761,-482.91339,-745.38115)"
       x1="253.75711"
       y1="-129.52815"
       x2="252.00447"
       y2="-135.47408" />
    <radialGradient
       inkscape:collect="always"
       xlink:href="#linearGradient124"
       id="radialGradient4040"
       gradientUnits="userSpaceOnUse"
       gradientTransform="matrix(1.279254,0,0,1.7073246,-321.71546,-587.15241)"
       cx="307.7507"
       cy="361.47824"
       fx="307.7507"
       fy="361.47824"
       r="12.509617" />
    <linearGradient
       inkscape:collect="always"
       xlink:href="#linearGradient10554"
       id="linearGradient4042"
       gradientUnits="userSpaceOnUse"
       gradientTransform="matrix(1.5347684,0,0,1.4230823,-296.72742,-584.34298)"
       x1="240.9062"
       y1="425.18195"
       x2="248.28683"
       y2="437.96558" />
    <linearGradient
       inkscape:collect="always"
       xlink:href="#linearGradient4092"
       id="linearGradient4179"
       gradientUnits="userSpaceOnUse"
       gradientTransform="matrix(-1,0,0,-1,248.99368,-154.57684)"
       x1="153.63895"
       y1="-134.41684"
       x2="273.20737"
       y2="105.95369" />
    <radialGradient
       inkscape:collect="always"
       xlink:href="#linearGradient4139"
       id="radialGradient4181"
       gradientUnits="userSpaceOnUse"
       gradientTransform="matrix(1,0,0,1.3515802,0,23.00445)"
       cx="66.829468"
       cy="-57.456509"
       fx="66.829468"
       fy="-57.456509"
       r="59.784206" />
    <linearGradient
       inkscape:collect="always"
       xlink:href="#linearGradient4092"
       id="linearGradient3757"
       gradientUnits="userSpaceOnUse"
       gradientTransform="matrix(0.18815121,0,0,0.18815121,1.5246338,59.452634)"
       x1="153.63895"
       y1="-134.41684"
       x2="273.20737"
       y2="105.95369" />
  </defs>
  <sodipodi:namedview
     stroke="#ef2929"
     fill="#eeeeec"
     id="base"
     pagecolor="#ffffff"
     bordercolor="#666666"
     borderopacity="0.25490196"
     inkscape:pageopacity="0.0"
     inkscape:pageshadow="2"
     inkscape:zoom="7.5572037"
     inkscape:cx="24"
     inkscape:cy="24"
     inkscape:current-layer="layer1"
     showgrid="false"
     inkscape:grid-bbox="true"
     inkscape:document-units="px"
     inkscape:showpageshadow="false"
     inkscape:window-width="1272"
     inkscape:window-height="710"
     inkscape:window-x="0"
     inkscape:window-y="24"
     showguides="true"
     inkscape:guide-bbox="true"
     width="72px"
     height="72px"
     inkscape:window-maximized="0">
    <inkscape:grid
       type="xygrid"
       id="grid7912"
       empspacing="5"
       visible="true"
       enabled="true"
       snapvisiblegridlinesonly="true" />
  </sodipodi:namedview>
  <metadata
     id="metadata4">
    <rdf:RDF>
      <cc:Work
         rdf:about="">
        <dc:format>image/svg+xml</dc:format>
        <dc:type
           rdf:resource="http://purl.org/dc/dcmitype/StillImage" />
        <dc:creator>
          <cc:Agent>
            <dc:title>Patrick Niklaus</dc:title>
          </cc:Agent>
        </dc:creator>
        <dc:source />
        <cc:license
           rdf:resource="http://creativecommons.org/licenses/GPL/2.0/" />
        <dc:title>State</dc:title>
        <dc:subject>
          <rdf:Bag />
        </dc:subject>
      </cc:Work>
      <cc:License
         rdf:about="http://creativecommons.org/licenses/GPL/2.0/">
        <cc:permits
           rdf:resource="http://web.resource.org/cc/Reproduction" />
        <cc:permits
           rdf:resource="http://web.resource.org/cc/Distribution" />
        <cc:requires
           rdf:resource="http://web.resource.org/cc/Notice" />
        <cc:permits
           rdf:resource="http://web.resource.org/cc/DerivativeWorks" />
        <cc:requires
           rdf:resource="http://web.resource.org/cc/ShareAlike" />
        <cc:requires
           rdf:resource="http://web.resource.org/cc/SourceCode" />
      </cc:License>
      <cc:Work
         rdf:about="">
        <dc:format>image/svg+xml</dc:format>
        <dc:type
           rdf:resource="http://purl.org/dc/dcmitype/StillImage" />
      </cc:Work>
    </rdf:RDF>
  </metadata>
  <g
     id="layer1"
     inkscape:label="Layer 1"
     inkscape:groupmode="layer"
     transform="translate(0,-24)">
    <path
       style="fill:#2e3436;fill-opacity:1;stroke:#000000;stroke-width:0.21212962px;stroke-linecap:butt;stroke-linejoin:miter;stroke-opacity:1"
       d="m 33.165172,37.131321 0,4.903348 -8.711335,-7.484054 8.711335,-6.967915 0,3.612991 13.573477,0 0,26.581301 -11.547583,0 0,-6.193699 7.293209,0 0,-13.93583 -9.319103,-0.516142 z"
       id="path4154"
       sodipodi:nodetypes="cccccccccccc"
       inkscape:connector-curvature="0" />
    <path
       sodipodi:nodetypes="cccccccccccc"
       id="path4156"
       d="m 33.165172,37.131321 0,4.903348 -8.711335,-7.484054 8.711335,-6.967915 0,3.612991 13.573477,0 0,26.581301 -11.547583,0 0,-6.193699 7.293209,0 0,-13.93583 -9.319103,-0.516142 z"
       style="fill:url(#linearGradient3757);fill-opacity:1;stroke:#000000;stroke-width:0.21212962px;stroke-linecap:butt;stroke-linejoin:miter;stroke-opacity:1"
       inkscape:connector-curvature="0" />
    <path
       inkscape:connector-curvature="0"
       style="fill:#8ec25e;fill-opacity:1;stroke:#6c924a;stroke-width:1;stroke-linecap:butt;stroke-linejoin:miter;stroke-opacity:1;stroke-miterlimit:4;stroke-dasharray:none"
       d="m 33.165172,37.131321 0,4.903348 -8.711335,-7.484054 8.711335,-6.967915 0,3.612991 13.573477,0 0,26.581301 -11.547583,0 0,-6.193699 7.293209,0 0,-13.93583 -9.319103,-0.516142 z"
       id="path4158"
       sodipodi:nodetypes="cccccccccccc" />
    <g
       id="g4366"
       transform="matrix(1.0691801,0,0,1.0691801,-51.759277,22.079358)">
      <path
         sodipodi:nodetypes="cccccccc"
         style="fill:none;stroke:#888a85;stroke-width:1.04247308;stroke-linecap:round;stroke-linejoin:round;stroke-miterlimit:4;stroke-opacity:1;stroke-dasharray:none;stroke-dashoffset:0"
         d="m 71.401064,17.737975 0,21.977386 6.978408,-4.269247 4.268574,9.161092 3.501191,-1.423081 -4.172651,-8.938737 6.28196,-0.622598 -16.857482,-15.884815 z"
         id="rect16"
         inkscape:connector-curvature="0" />
      <path
         transform="matrix(0.8698963,0,0,0.8065934,98.369116,14.067108)"
         d="m -22.34375,19.125 -2.40625,1 a 0.35634045,0.35634045 0 0 0 -0.21875,0.40625 l 0.78125,5.375 a 0.35634045,0.35634045 0 0 0 0.34375,0.28125 l 1.28125,-0.0625 4.625,10.71875 a 0.35634045,0.35634045 0 0 0 0.03125,0.0625 0.35634045,0.35634045 0 0 0 0.40625,0.125 L -15.0625,36 a 0.35634045,0.35634045 0 0 0 0.1875,-0.5 l -4.46875,-10.3125 0.71875,-0.96875 a 0.35634045,0.35634045 0 0 0 0,-0.4375 L -21.9375,19.25 a 0.35634045,0.35634045 0 0 0 -0.03125,-0.03125 0.35634045,0.35634045 0 0 0 -0.375,-0.09375 z"
         id="path2887"
         style="fill:url(#linearGradient4038);fill-opacity:1;fill-rule:evenodd;stroke:none"
         inkscape:original="M -22.21875 19.46875 L -24.625 20.46875 L -23.84375 25.84375 L -22.34375 25.78125 L -17.625 36.6875 L -15.1875 35.65625 L -19.75 25.125 L -18.90625 24 L -22.21875 19.46875 z "
         inkscape:radius="0.35630482"
         sodipodi:type="inkscape:offset" />
      <path
         sodipodi:nodetypes="ccccc"
         id="path2891"
         d="m 71.871259,18.78694 c 0.01838,0.02654 0.110064,13.649154 -0.01688,20.14919 l 8.05663,-4.880629 c 2.274689,-0.29736 7.394066,-0.732955 7.425384,-0.741056 L 71.871259,18.78694 z"
         style="fill:url(#radialGradient4040);fill-opacity:1;fill-rule:evenodd;stroke:none"
         inkscape:connector-curvature="0" />
      <path
         sodipodi:type="inkscape:offset"
         inkscape:radius="-0.17767379"
         inkscape:original="M 72.28125 19.75 C 72.308434 19.786317 72.236734 38.231507 72.25 38.21875 L 79.5625 33.6875 C 81.782403 33.496235 86.332488 32.96244 86.34375 32.96875 C 86.382631 32.954521 72.347636 19.74392 72.28125 19.75 z "
         style="fill:none;stroke:url(#linearGradient4042);stroke-width:1.04247308;stroke-linecap:butt;stroke-linejoin:miter;stroke-miterlimit:4;stroke-opacity:1;stroke-dashoffset:0"
         id="path8699"
         d="m 72.46875,20.15625 c 5.21e-4,0.120649 -2.28e-4,0.232408 0,0.40625 6.67e-4,0.508154 0.0013,1.226595 0,2.09375 -0.0027,1.734309 -0.02482,4.036606 -0.03125,6.34375 -0.0064,2.307144 0.0044,4.615806 0,6.34375 -0.0022,0.863972 6.38e-4,1.590703 0,2.09375 -2.48e-4,0.19563 -6.6e-5,0.311681 0,0.4375 l 7.03125,-4.34375 a 0.17769155,0.17769155 0 0 1 0.03125,0 0.17769155,0.17769155 0 0 1 0.03125,-0.03125 0.17769155,0.17769155 0 0 1 0.03125,0 c 1.106211,-0.09531 2.771561,-0.280985 4.1875,-0.4375 0.707969,-0.07826 1.349635,-0.135353 1.8125,-0.1875 0.153818,-0.01733 0.263979,-0.01883 0.375,-0.03125 -0.09234,-0.08888 -0.172012,-0.178516 -0.3125,-0.3125 -0.379838,-0.362253 -0.90692,-0.87989 -1.5625,-1.5 -1.31116,-1.24022 -3.087754,-2.910757 -4.84375,-4.5625 -1.755996,-1.651743 -3.488232,-3.293614 -4.8125,-4.53125 -0.662134,-0.618818 -1.235403,-1.139743 -1.625,-1.5 -0.137159,-0.12683 -0.218487,-0.195282 -0.3125,-0.28125 z" />
    </g>
    <g
       id="g4147"
       transform="matrix(0.18815121,0,0,0.18815121,-0.30062449,59.655443)"
       style="fill:#8ec25e;fill-opacity:1;stroke:#6c924a;stroke-opacity:1;stroke-width:5.31487414;stroke-miterlimit:4;stroke-dasharray:none">
      <path
         style="fill:#8ec25e;fill-opacity:1;stroke:#6c924a;stroke-width:5.31487414;stroke-linecap:butt;stroke-linejoin:miter;stroke-opacity:1;stroke-miterlimit:4;stroke-dasharray:none"
         d="m 80.8282,-35.94187 0,-26.060677 46.29965,39.776807 -46.29965,37.03359 0,-19.20259 -72.14132,0 0,-141.27627 61.37395,0 0,32.91873 -38.76249,0 0,74.06718 49.52986,2.74323 z"
         id="path4117"
         sodipodi:nodetypes="cccccccccccc"
         inkscape:connector-curvature="0" />
      <path
         sodipodi:nodetypes="cccccccccccc"
         id="path4119"
         d="m 80.8282,-35.94187 0,-26.060677 46.29965,39.776807 -46.29965,37.03359 0,-19.20259 -72.14132,0 0,-141.27627 61.37395,0 0,32.91873 -38.76249,0 0,74.06718 49.52986,2.74323 z"
         style="fill:#8ec25e;fill-opacity:1;stroke:#6c924a;stroke-width:5.31487414;stroke-linecap:butt;stroke-linejoin:miter;stroke-opacity:1;stroke-miterlimit:4;stroke-dasharray:none"
         inkscape:connector-curvature="0" />
      <path
         inkscape:connector-curvature="0"
         style="fill:#8ec25e;fill-opacity:1;stroke:#6c924a;stroke-width:5.31487414;stroke-linecap:butt;stroke-linejoin:miter;stroke-opacity:1;stroke-miterlimit:4;stroke-dasharray:none"
         d="m 80.8282,-35.94187 0,-26.060677 46.29965,39.776807 -46.29965,37.03359 0,-19.20259 -72.14132,0 0,-141.27627 61.37395,0 0,32.91873 -38.76249,0 0,74.06718 49.52986,2.74323 z"
         id="path4136"
         sodipodi:nodetypes="cccccccccccc" />
    </g>
  </g>
</svg>
