<?xml version="1.0" encoding="UTF-8" standalone="no"?>
<!-- Created with Inkscape (http://www.inkscape.org/) -->

<svg
   xmlns:dc="http://purl.org/dc/elements/1.1/"
   xmlns:cc="http://creativecommons.org/ns#"
   xmlns:rdf="http://www.w3.org/1999/02/22-rdf-syntax-ns#"
   xmlns:svg="http://www.w3.org/2000/svg"
   xmlns="http://www.w3.org/2000/svg"
   xmlns:xlink="http://www.w3.org/1999/xlink"
   xmlns:sodipodi="http://sodipodi.sourceforge.net/DTD/sodipodi-0.dtd"
   xmlns:inkscape="http://www.inkscape.org/namespaces/inkscape"
   width="32"
   height="32"
   id="svg6009"
   sodipodi:version="0.32"
   inkscape:version="0.47 r22583"
   sodipodi:docname="plugin-titleinfo.svg"
   inkscape:output_extension="org.inkscape.output.svg.inkscape"
   version="1.0">
  <defs
     id="defs6011">
    <inkscape:perspective
       sodipodi:type="inkscape:persp3d"
       inkscape:vp_x="0 : 128 : 1"
       inkscape:vp_y="0 : 1000 : 0"
       inkscape:vp_z="256 : 128 : 1"
       inkscape:persp3d-origin="128 : 85.333333 : 1"
       id="perspective25" />
    <radialGradient
       id="XMLID_6_"
       cx="42.378899"
       cy="6.0488"
       r="122.3935"
       fx="63.066601"
       fy="24.1598"
       gradientTransform="matrix(1.0151,0,0,1.0491,-1.0186,-1.3463)"
       gradientUnits="userSpaceOnUse">
      <stop
         offset="0"
         style="stop-color:#FFFFFF"
         id="stop35" />
      <stop
         offset="1"
         style="stop-color:#DDDDDD"
         id="stop37" />
    </radialGradient>
    <radialGradient
       inkscape:collect="always"
       xlink:href="#XMLID_6_"
       id="radialGradient3013"
       gradientUnits="userSpaceOnUse"
       gradientTransform="matrix(2.1314831,0.63482561,-1.0292259,4.2695213,-75.075347,49.854533)"
       cx="55.281715"
       cy="-19.845272"
       fx="55.281715"
       fy="-19.845272"
       r="48.465927" />
    <linearGradient
       id="linearGradient47870">
      <stop
         id="stop47872"
         offset="0"
         style="stop-color:#000000;stop-opacity:0" />
      <stop
         id="stop47878"
         offset="0.5"
         style="stop-color:#000000;stop-opacity:1" />
      <stop
         id="stop47874"
         offset="1"
         style="stop-color:#000000;stop-opacity:0" />
    </linearGradient>
    <linearGradient
       id="linearGradient51765">
      <stop
         id="stop51767"
         offset="0"
         style="stop-color:#000000;stop-opacity:1" />
      <stop
         id="stop51769"
         offset="1"
         style="stop-color:#000000;stop-opacity:0" />
    </linearGradient>
    <linearGradient
       id="linearGradient2781">
      <stop
         id="stop2783"
         offset="0"
         style="stop-color:#d3d7cf;stop-opacity:1" />
      <stop
         id="stop2785"
         offset="1"
         style="stop-color:#eeeeec;stop-opacity:1" />
    </linearGradient>
    <linearGradient
       id="linearGradient3674">
      <stop
         id="stop3676"
         offset="0"
         style="stop-color:#3465a4;stop-opacity:1" />
      <stop
         id="stop3678"
         offset="1"
         style="stop-color:#729fcf;stop-opacity:1;" />
    </linearGradient>
    <linearGradient
       id="linearGradient3690">
      <stop
         id="stop3692"
         offset="0"
         style="stop-color:white;stop-opacity:1;" />
      <stop
         id="stop3694"
         offset="1"
         style="stop-color:white;stop-opacity:0.46875" />
    </linearGradient>
    <linearGradient
       inkscape:collect="always"
       xlink:href="#linearGradient3690"
       id="linearGradient8029"
       gradientUnits="userSpaceOnUse"
       gradientTransform="matrix(1.2605424,0,0,1.2497964,-7.4733925,-5.2173431)"
       x1="9.5"
       y1="16.26436"
       x2="9.5"
       y2="13.408723" />
    <linearGradient
       inkscape:collect="always"
       xlink:href="#linearGradient3674"
       id="linearGradient8032"
       gradientUnits="userSpaceOnUse"
       gradientTransform="matrix(1.2446306,0,0,1.3808054,-7.0741535,-5.8905786)"
       x1="16.440886"
       y1="3.9467564"
       x2="16.491102"
       y2="8.1244717" />
    <linearGradient
       inkscape:collect="always"
       xlink:href="#linearGradient2781"
       id="linearGradient8035"
       gradientUnits="userSpaceOnUse"
       gradientTransform="matrix(1.2446306,0,0,1.2223948,-7.0741535,-4.2265436)"
       x1="24.925514"
       y1="40.000107"
       x2="24.925514"
       y2="19.53867" />
    <linearGradient
       inkscape:collect="always"
       xlink:href="#linearGradient47870"
       id="linearGradient8041"
       gradientUnits="userSpaceOnUse"
       gradientTransform="matrix(0.9788196,0,0,0.7154223,-8.5008021,52.112719)"
       x1="32.084972"
       y1="-14.402173"
       x2="32.084972"
       y2="-5.5633383" />
    <radialGradient
       inkscape:collect="always"
       xlink:href="#linearGradient51765"
       id="radialGradient8043"
       gradientUnits="userSpaceOnUse"
       gradientTransform="matrix(1.9576392,-8.146468e-7,6.6614241e-7,1.4565793,-59.017557,62.738067)"
       cx="51.4375"
       cy="-12.203125"
       fx="51.4375"
       fy="-12.203125"
       r="2.171875" />
    <radialGradient
       inkscape:collect="always"
       xlink:href="#linearGradient51765"
       id="radialGradient8045"
       gradientUnits="userSpaceOnUse"
       gradientTransform="matrix(-1.9576392,-9.2540676e-8,-1.2888861e-7,1.4565793,110.01781,62.73803)"
       cx="51.4375"
       cy="-12.203125"
       fx="51.4375"
       fy="-12.203125"
       r="2.171875" />
    <linearGradient
       gradientTransform="translate(0.9970328,1)"
       y2="15.485572"
       x2="12.71875"
       y1="15.485572"
       x1="8.9375"
       gradientUnits="userSpaceOnUse"
       id="linearGradient7941"
       xlink:href="#linearGradient7887"
       inkscape:collect="always" />
    <linearGradient
       y2="27.137815"
       x2="22.958183"
       y1="15.732881"
       x1="23.007862"
       gradientTransform="matrix(0,-0.9434952,0.8699482,0,-6.3944864,38.19338)"
       gradientUnits="userSpaceOnUse"
       id="linearGradient7939"
       xlink:href="#linearGradient4138"
       inkscape:collect="always" />
    <linearGradient
       y2="15.485572"
       x2="12.71875"
       y1="15.485572"
       x1="8.9375"
       gradientTransform="matrix(-1,0,0,1,31.016098,0.9973192)"
       gradientUnits="userSpaceOnUse"
       id="linearGradient7937"
       xlink:href="#linearGradient7887"
       inkscape:collect="always" />
    <linearGradient
       y2="27.137815"
       x2="22.958183"
       y1="15.732881"
       x1="23.007862"
       gradientTransform="matrix(0,-0.9434952,-0.8699482,0,38.407617,38.190699)"
       gradientUnits="userSpaceOnUse"
       id="linearGradient7935"
       xlink:href="#linearGradient4138"
       inkscape:collect="always" />
    <linearGradient
       gradientTransform="matrix(0,1,-1,0,31.485097,-0.01609807)"
       y2="15.485572"
       x2="12.71875"
       y1="15.485572"
       x1="8.9375"
       gradientUnits="userSpaceOnUse"
       id="linearGradient7933"
       xlink:href="#linearGradient7887"
       inkscape:collect="always" />
    <linearGradient
       y2="27.137815"
       x2="22.958183"
       y1="15.732881"
       x1="23.007862"
       gradientTransform="matrix(0.9434952,0,0,0.8699482,-5.708283,-7.4076173)"
       gradientUnits="userSpaceOnUse"
       id="linearGradient7931"
       xlink:href="#linearGradient4138"
       inkscape:collect="always" />
    <linearGradient
       y2="15.485572"
       x2="12.71875"
       y1="15.485572"
       x1="8.9375"
       gradientTransform="matrix(0,-1,-1,0,31.487778,31.002967)"
       gradientUnits="userSpaceOnUse"
       id="linearGradient7928"
       xlink:href="#linearGradient7887"
       inkscape:collect="always" />
    <linearGradient
       y2="27.137815"
       x2="22.958183"
       y1="15.732881"
       x1="23.007862"
       gradientTransform="matrix(0.9434952,0,0,-0.8699482,-5.705602,38.394486)"
       gradientUnits="userSpaceOnUse"
       id="linearGradient7926"
       xlink:href="#linearGradient4138"
       inkscape:collect="always" />
    <linearGradient
       inkscape:collect="always"
       id="linearGradient4138">
      <stop
         style="stop-color:#3465a4;stop-opacity:1;"
         offset="0"
         id="stop4140" />
      <stop
         style="stop-color:#3465a4;stop-opacity:0;"
         offset="1"
         id="stop4142" />
    </linearGradient>
    <linearGradient
       id="linearGradient7887"
       inkscape:collect="always">
      <stop
         id="stop7889"
         offset="0"
         style="stop-color:#204a87;stop-opacity:1;" />
      <stop
         id="stop7891"
         offset="1"
         style="stop-color:#204a87;stop-opacity:0;" />
    </linearGradient>
    <inkscape:perspective
       id="perspective2885"
       inkscape:persp3d-origin="16 : 10.666667 : 1"
       inkscape:vp_z="32 : 16 : 1"
       inkscape:vp_y="0 : 1000 : 0"
       inkscape:vp_x="0 : 16 : 1"
       sodipodi:type="inkscape:persp3d" />
  </defs>
  <sodipodi:namedview
     id="base"
     pagecolor="#ffffff"
     bordercolor="#666666"
     borderopacity="1.0"
     inkscape:pageopacity="0.0"
     inkscape:pageshadow="2"
     inkscape:zoom="7.0781247"
     inkscape:cx="28.44505"
     inkscape:cy="17.903921"
     inkscape:current-layer="layer1-4"
     showgrid="false"
     inkscape:grid-bbox="true"
     inkscape:document-units="px"
     inkscape:window-width="1680"
     inkscape:window-height="980"
     inkscape:window-x="0"
     inkscape:window-y="25"
     showborder="true"
     inkscape:showpageshadow="false"
     inkscape:window-maximized="1">
    <inkscape:grid
       type="xygrid"
       id="grid7880"
       empspacing="5"
       visible="true"
       enabled="true"
       snapvisiblegridlinesonly="true" />
  </sodipodi:namedview>
  <metadata
     id="metadata6014">
    <rdf:RDF>
      <cc:Work
         rdf:about="">
        <dc:format>image/svg+xml</dc:format>
        <dc:type
           rdf:resource="http://purl.org/dc/dcmitype/StillImage" />
        <dc:title />
      </cc:Work>
    </rdf:RDF>
  </metadata>
  <g
     id="layer1"
     inkscape:label="Layer 1"
     inkscape:groupmode="layer"
     transform="translate(7.5765038,-1.91845)">
    <g
       id="g2860"
       transform="matrix(3.4810954,0,0,3.4810954,21.288749,-78.014658)">
      <g
         inkscape:label="Layer 1"
         id="layer1-4"
         transform="matrix(3.073232,0,0,3.073232,-8.0180536,-38.683942)">
        <g
           id="g7966"
           inkscape:label="Layer 1"
           transform="matrix(0.12180261,0,0,0.12180261,-0.03961793,20.191936)">
          <g
             transform="matrix(0.7831573,0,0,0.7895297,-3.9706075,-6.0021028)"
             id="g8007">
            <rect
               width="32.357079"
               height="6.3234997"
               x="9.3215466"
               y="41.809082"
               style="opacity:0.3;fill:url(#linearGradient8041);fill-opacity:1;fill-rule:evenodd;stroke:none"
               id="rect8009" />
            <path
               d="m 41.6785,41.799698 0,6.327016 c 2.343798,-0.02389 4.251748,-1.421401 4.251748,-3.152329 0,-1.730927 -1.907949,-3.150801 -4.251748,-3.174687 z"
               style="opacity:0.3;fill:url(#radialGradient8043);fill-opacity:1;fill-rule:evenodd;stroke:none"
               id="path8011" />
            <path
               d="m 9.3217476,41.799698 0,6.327016 C 6.9779494,48.102828 5.07,46.705313 5.07,44.974385 c 0,-1.730927 1.9079484,-3.150801 4.2517476,-3.174687 z"
               style="opacity:0.3;fill:url(#radialGradient8045);fill-opacity:1;fill-rule:evenodd;stroke:none"
               id="path8013" />
          </g>
          <rect
             style="fill:url(#linearGradient8035);fill-opacity:1;stroke:#888a85;stroke-width:1.00000024;stroke-miterlimit:4;stroke-opacity:1;stroke-dasharray:none"
             id="rect8015"
             width="28.999998"
             height="27.206532"
             x="1.5000006"
             y="2.3087878"
             rx="1.9999999"
             ry="2.0775311" />
          <path
             style="fill:url(#linearGradient8032);fill-opacity:1;stroke:#204a87;stroke-width:1.00000048;stroke-miterlimit:4;stroke-opacity:1"
             d="m 1.5000005,7.0724426 0,-3.5572098 c 0,-1.1164371 0.783878,-2.0152302 1.757574,-2.0152302 l 25.4848165,0 c 0.973695,0 1.757574,0.8987931 1.757574,2.0152302 l 0,3.5572098"
             id="path8017"
             sodipodi:nodetypes="cccccc" />
          <rect
             style="opacity:0.8;fill:none;stroke:url(#linearGradient8029);stroke-width:1.00000095;stroke-miterlimit:4;stroke-opacity:1;stroke-dasharray:none"
             id="rect8019"
             width="27.042036"
             height="25.990356"
             x="2.4870994"
             y="2.5019701"
             rx="1.5110157"
             ry="1.5660769" />
        </g>
        <rect
           style="fill:#ffffff"
           id="rect2937"
           width="3.6931672"
           height="1.0937952"
           x="0.065338135"
           y="22.896561" />
        <rect
           style="fill:#ffffff"
           id="rect2939"
           width="0.92650872"
           height="2.9725497"
           x="2.8448648"
           y="20.245716" />
      </g>
      <path
         style="font-size:16.08689117px;font-style:normal;font-variant:normal;font-weight:normal;font-stretch:normal;text-align:start;line-height:125%;writing-mode:lr-tb;text-anchor:start;fill:#ffffff;fill-opacity:1;stroke:none;font-family:Plymdale;-inkscape-font-specification:Plymdale"
         id="path2861"
         d="m -6.2484086,24.624895 0.1920237,0 c 0.1841857,0 0.3331024,0.03331 0.44283,0.09993 0.1097277,0.06662 0.1665512,0.152836 0.1665512,0.262563 0,0.109728 -0.054864,0.197902 -0.1645917,0.264523 -0.1097277,0.06662 -0.2547255,0.09797 -0.4389113,0.09797 l 0.5290448,0.417358 c 0.019594,0.01568 0.029392,0.03527 0.029392,0.05486 0,0.02743 -0.015676,0.04899 -0.045067,0.06466 -0.023513,0.01568 -0.050945,0.02155 -0.082296,0.02155 -0.041148,0 -0.074458,-0.0098 -0.097971,-0.03135 l -0.7073525,-0.556477 c -0.021554,-0.01568 -0.031351,-0.03331 -0.031351,-0.05486 0,-0.02743 0.015675,-0.04899 0.047026,-0.06466 0.023513,-0.01372 0.050945,-0.02155 0.082296,-0.02155 l 0.2704007,0 c 0.2351308,0 0.3526965,-0.0627 0.3526965,-0.192024 0,-0.125403 -0.1175657,-0.190064 -0.3526965,-0.190064 l -0.1920237,0 c -0.2233743,0 -0.3350617,0.06858 -0.3350617,0.201821 l 0,0.820999 c 0,0.02351 -0.013716,0.04507 -0.037229,0.06074 -0.025473,0.01568 -0.054864,0.02351 -0.090134,0.02351 -0.037229,0 -0.06858,-0.0078 -0.092093,-0.02351 -0.025473,-0.01568 -0.037229,-0.03723 -0.037229,-0.06074 l 0,-0.820999 c 0,-0.113647 0.052905,-0.20574 0.1587135,-0.27236 0.1058089,-0.06662 0.2488472,-0.10189 0.433033,-0.10189" />
      <path
         style="font-size:16.08689117px;font-style:normal;font-variant:normal;font-weight:normal;font-stretch:normal;text-align:start;line-height:125%;writing-mode:lr-tb;text-anchor:start;fill:#ffffff;fill-opacity:1;stroke:none;font-family:Plymdale;-inkscape-font-specification:Plymdale"
         id="path2863"
         d="m -4.9349507,25.265627 c 0,0.133241 0.052905,0.248847 0.1626323,0.342899 0.1077682,0.09405 0.23905,0.141079 0.3938444,0.141079 0.152835,0 0.2821574,-0.04703 0.3918851,-0.141079 0.1077682,-0.09405 0.1626323,-0.209658 0.1626323,-0.342899 0,-0.133241 -0.054864,-0.246888 -0.1626323,-0.34094 -0.1097277,-0.09405 -0.2390501,-0.143038 -0.3918851,-0.143038 -0.1547944,0 -0.2860762,0.04899 -0.3938444,0.143038 -0.1097278,0.09405 -0.1626323,0.207699 -0.1626323,0.34094 m -0.2566848,0 c 0,-0.180267 0.078377,-0.333103 0.2370905,-0.462425 0.1587133,-0.129321 0.3507373,-0.193983 0.576071,-0.193983 0.2233743,0 0.4134389,0.06466 0.5741116,0.193983 0.1587133,0.129322 0.23905,0.282158 0.23905,0.462425 0,0.180267 -0.080337,0.335062 -0.23905,0.464384 -0.1606727,0.129322 -0.3507373,0.192023 -0.5741116,0.192023 -0.2253337,0 -0.4173577,-0.0627 -0.576071,-0.192023 -0.1587133,-0.129322 -0.2370905,-0.284117 -0.2370905,-0.464384" />
      <path
         style="font-size:16.08689117px;font-style:normal;font-variant:normal;font-weight:normal;font-stretch:normal;text-align:start;line-height:125%;writing-mode:lr-tb;text-anchor:start;fill:#ffffff;fill-opacity:1;stroke:none;font-family:Plymdale;-inkscape-font-specification:Plymdale"
         id="path2865"
         d="m -3.0329304,25.265627 c 0,0.133241 0.052905,0.248847 0.1626323,0.342899 0.1077683,0.09405 0.2390501,0.141079 0.3938445,0.141079 0.152835,0 0.2821573,-0.04703 0.391885,-0.141079 0.1077683,-0.09405 0.1626323,-0.209658 0.1626323,-0.342899 0,-0.133241 -0.054864,-0.246888 -0.1626323,-0.34094 -0.1097277,-0.09405 -0.23905,-0.143038 -0.391885,-0.143038 -0.1547944,0 -0.2860762,0.04899 -0.3938445,0.143038 -0.1097277,0.09405 -0.1626323,0.207699 -0.1626323,0.34094 m -0.2566848,0 c 0,-0.180267 0.078377,-0.333103 0.2370905,-0.462425 0.1587133,-0.129321 0.3507373,-0.193983 0.5760711,-0.193983 0.2233743,0 0.4134388,0.06466 0.5741116,0.193983 0.1587133,0.129322 0.2390499,0.282158 0.2390499,0.462425 0,0.180267 -0.080337,0.335062 -0.2390499,0.464384 -0.1606728,0.129322 -0.3507373,0.192023 -0.5741116,0.192023 -0.2253338,0 -0.4173578,-0.0627 -0.5760711,-0.192023 -0.1587133,-0.129322 -0.2370905,-0.284117 -0.2370905,-0.464384" />
      <path
         style="font-size:16.08689117px;font-style:normal;font-variant:normal;font-weight:normal;font-stretch:normal;text-align:start;line-height:125%;writing-mode:lr-tb;text-anchor:start;fill:#ffffff;fill-opacity:1;stroke:none;font-family:Plymdale;-inkscape-font-specification:Plymdale"
         id="path2867"
         d="m -0.1725978,24.624895 c 0.0352696,0 0.0646611,0.0098 0.0901336,0.02547 0.025472,0.01763 0.039188,0.03723 0.039188,0.06074 0,0.02351 -0.013716,0.04507 -0.039188,0.06074 -0.0254725,0.01763 -0.054864,0.02547 -0.0901336,0.02547 l -0.48789692,0 0,1.02282 c 0,0.02351 -0.0137159,0.04507 -0.0391885,0.06074 -0.0254725,0.01568 -0.0548639,0.02351 -0.0901336,0.02351 -0.0352696,0 -0.0666204,-0.0078 -0.0901336,-0.02351 -0.0254725,-0.01568 -0.0372291,-0.03723 -0.0372291,-0.06074 l 0,-1.02282 -0.48789688,0 c -0.037229,0 -0.06858,-0.0078 -0.092093,-0.02547 -0.025473,-0.01568 -0.037229,-0.03723 -0.037229,-0.06074 0,-0.02351 0.011756,-0.04311 0.037229,-0.06074 0.023513,-0.01568 0.054864,-0.02547 0.092093,-0.02547 l 1.23247855,0" />
      <path
         style="font-size:16.08689117px;font-style:normal;font-variant:normal;font-weight:normal;font-stretch:normal;text-align:start;line-height:125%;writing-mode:lr-tb;text-anchor:start;fill:#ffffff;fill-opacity:1;stroke:none;font-family:Plymdale;-inkscape-font-specification:Plymdale"
         id="path2869"
         d="m 0.11350861,25.054009 c 0,-0.03527 0.013716,-0.06466 0.041148,-0.08817 0.027432,-0.02351 0.062702,-0.03723 0.1018902,-0.03723 0.039188,0 0.072499,0.01372 0.099931,0.03723 0.027432,0.02351 0.043107,0.0529 0.043107,0.08817 l 0,0.01568 c 0,0.03527 -0.015675,0.06466 -0.043107,0.08817 -0.027432,0.02351 -0.060742,0.03527 -0.099931,0.03527 -0.039189,0 -0.074458,-0.01176 -0.1018902,-0.03527 -0.027432,-0.02351 -0.041148,-0.0529 -0.041148,-0.08817 l 0,-0.01568 m 0,0.711271 c 0,-0.03331 0.013716,-0.0627 0.041148,-0.08621 0.027432,-0.02351 0.062702,-0.03723 0.1018902,-0.03723 0.039188,0 0.072499,0.01371 0.099931,0.03723 0.027432,0.02351 0.043107,0.0529 0.043107,0.08621 l 0,0.01568 c 0,0.03527 -0.015675,0.06466 -0.043107,0.08817 -0.027432,0.02351 -0.060742,0.03527 -0.099931,0.03527 -0.039189,0 -0.074458,-0.01176 -0.1018902,-0.03527 -0.027432,-0.02351 -0.041148,-0.05291 -0.041148,-0.08817 l 0,-0.01568" />
      <path
         d="m -6.2484086,24.624895 0.1920237,0 c 0.1841857,0 0.3331024,0.03331 0.44283,0.09993 0.1097277,0.06662 0.1665512,0.152836 0.1665512,0.262563 0,0.109728 -0.054864,0.197902 -0.1645917,0.264523 -0.1097277,0.06662 -0.2547255,0.09797 -0.4389113,0.09797 l 0.5290448,0.417358 c 0.019594,0.01568 0.029392,0.03527 0.029392,0.05486 0,0.02743 -0.015676,0.04899 -0.045067,0.06466 -0.023513,0.01568 -0.050945,0.02155 -0.082296,0.02155 -0.041148,0 -0.074458,-0.0098 -0.097971,-0.03135 l -0.7073525,-0.556477 c -0.021554,-0.01568 -0.031351,-0.03331 -0.031351,-0.05486 0,-0.02743 0.015675,-0.04899 0.047026,-0.06466 0.023513,-0.01372 0.050945,-0.02155 0.082296,-0.02155 l 0.2704007,0 c 0.2351308,0 0.3526965,-0.0627 0.3526965,-0.192024 0,-0.125403 -0.1175657,-0.190064 -0.3526965,-0.190064 l -0.1920237,0 c -0.2233743,0 -0.3350617,0.06858 -0.3350617,0.201821 l 0,0.820999 c 0,0.02351 -0.013716,0.04507 -0.037229,0.06074 -0.025473,0.01568 -0.054864,0.02351 -0.090134,0.02351 -0.037229,0 -0.06858,-0.0078 -0.092093,-0.02351 -0.025473,-0.01568 -0.037229,-0.03723 -0.037229,-0.06074 l 0,-0.820999 c 0,-0.113647 0.052905,-0.20574 0.1587135,-0.27236 0.1058089,-0.06662 0.2488472,-0.10189 0.433033,-0.10189"
         id="path3603"
         style="font-size:16.08689117px;font-style:normal;font-variant:normal;font-weight:normal;font-stretch:normal;text-align:start;line-height:125%;writing-mode:lr-tb;text-anchor:start;fill:#ffffff;fill-opacity:1;stroke:none;font-family:Plymdale;-inkscape-font-specification:Plymdale" />
      <path
         d="m -4.9349507,25.265627 c 0,0.133241 0.052905,0.248847 0.1626323,0.342899 0.1077682,0.09405 0.23905,0.141079 0.3938444,0.141079 0.152835,0 0.2821574,-0.04703 0.3918851,-0.141079 0.1077682,-0.09405 0.1626323,-0.209658 0.1626323,-0.342899 0,-0.133241 -0.054864,-0.246888 -0.1626323,-0.34094 -0.1097277,-0.09405 -0.2390501,-0.143038 -0.3918851,-0.143038 -0.1547944,0 -0.2860762,0.04899 -0.3938444,0.143038 -0.1097278,0.09405 -0.1626323,0.207699 -0.1626323,0.34094 m -0.2566848,0 c 0,-0.180267 0.078377,-0.333103 0.2370905,-0.462425 0.1587133,-0.129321 0.3507373,-0.193983 0.576071,-0.193983 0.2233743,0 0.4134389,0.06466 0.5741116,0.193983 0.1587133,0.129322 0.23905,0.282158 0.23905,0.462425 0,0.180267 -0.080337,0.335062 -0.23905,0.464384 -0.1606727,0.129322 -0.3507373,0.192023 -0.5741116,0.192023 -0.2253337,0 -0.4173577,-0.0627 -0.576071,-0.192023 -0.1587133,-0.129322 -0.2370905,-0.284117 -0.2370905,-0.464384"
         id="path3605"
         style="font-size:16.08689117px;font-style:normal;font-variant:normal;font-weight:normal;font-stretch:normal;text-align:start;line-height:125%;writing-mode:lr-tb;text-anchor:start;fill:#ffffff;fill-opacity:1;stroke:none;font-family:Plymdale;-inkscape-font-specification:Plymdale" />
      <path
         d="m -3.0329304,25.265627 c 0,0.133241 0.052905,0.248847 0.1626323,0.342899 0.1077683,0.09405 0.2390501,0.141079 0.3938445,0.141079 0.152835,0 0.2821573,-0.04703 0.391885,-0.141079 0.1077683,-0.09405 0.1626323,-0.209658 0.1626323,-0.342899 0,-0.133241 -0.054864,-0.246888 -0.1626323,-0.34094 -0.1097277,-0.09405 -0.23905,-0.143038 -0.391885,-0.143038 -0.1547944,0 -0.2860762,0.04899 -0.3938445,0.143038 -0.1097277,0.09405 -0.1626323,0.207699 -0.1626323,0.34094 m -0.2566848,0 c 0,-0.180267 0.078377,-0.333103 0.2370905,-0.462425 0.1587133,-0.129321 0.3507373,-0.193983 0.5760711,-0.193983 0.2233743,0 0.4134388,0.06466 0.5741116,0.193983 0.1587133,0.129322 0.2390499,0.282158 0.2390499,0.462425 0,0.180267 -0.080337,0.335062 -0.2390499,0.464384 -0.1606728,0.129322 -0.3507373,0.192023 -0.5741116,0.192023 -0.2253338,0 -0.4173578,-0.0627 -0.5760711,-0.192023 -0.1587133,-0.129322 -0.2370905,-0.284117 -0.2370905,-0.464384"
         id="path3607"
         style="font-size:16.08689117px;font-style:normal;font-variant:normal;font-weight:normal;font-stretch:normal;text-align:start;line-height:125%;writing-mode:lr-tb;text-anchor:start;fill:#ffffff;fill-opacity:1;stroke:none;font-family:Plymdale;-inkscape-font-specification:Plymdale" />
      <path
         d="m -0.1725978,24.624895 c 0.0352696,0 0.0646611,0.0098 0.0901336,0.02547 0.025472,0.01763 0.039188,0.03723 0.039188,0.06074 0,0.02351 -0.013716,0.04507 -0.039188,0.06074 -0.0254725,0.01763 -0.054864,0.02547 -0.0901336,0.02547 l -0.48789692,0 0,1.02282 c 0,0.02351 -0.0137159,0.04507 -0.0391885,0.06074 -0.0254725,0.01568 -0.0548639,0.02351 -0.0901336,0.02351 -0.0352696,0 -0.0666204,-0.0078 -0.0901336,-0.02351 -0.0254725,-0.01568 -0.0372291,-0.03723 -0.0372291,-0.06074 l 0,-1.02282 -0.48789688,0 c -0.037229,0 -0.06858,-0.0078 -0.092093,-0.02547 -0.025473,-0.01568 -0.037229,-0.03723 -0.037229,-0.06074 0,-0.02351 0.011756,-0.04311 0.037229,-0.06074 0.023513,-0.01568 0.054864,-0.02547 0.092093,-0.02547 l 1.23247855,0"
         id="path3609"
         style="font-size:16.08689117px;font-style:normal;font-variant:normal;font-weight:normal;font-stretch:normal;text-align:start;line-height:125%;writing-mode:lr-tb;text-anchor:start;fill:#ffffff;fill-opacity:1;stroke:none;font-family:Plymdale;-inkscape-font-specification:Plymdale" />
      <path
         d="m 0.11350861,25.054009 c 0,-0.03527 0.013716,-0.06466 0.041148,-0.08817 0.027432,-0.02351 0.062702,-0.03723 0.1018902,-0.03723 0.039188,0 0.072499,0.01372 0.099931,0.03723 0.027432,0.02351 0.043107,0.0529 0.043107,0.08817 l 0,0.01568 c 0,0.03527 -0.015675,0.06466 -0.043107,0.08817 -0.027432,0.02351 -0.060742,0.03527 -0.099931,0.03527 -0.039189,0 -0.074458,-0.01176 -0.1018902,-0.03527 -0.027432,-0.02351 -0.041148,-0.0529 -0.041148,-0.08817 l 0,-0.01568 m 0,0.711271 c 0,-0.03331 0.013716,-0.0627 0.041148,-0.08621 0.027432,-0.02351 0.062702,-0.03723 0.1018902,-0.03723 0.039188,0 0.072499,0.01371 0.099931,0.03723 0.027432,0.02351 0.043107,0.0529 0.043107,0.08621 l 0,0.01568 c 0,0.03527 -0.015675,0.06466 -0.043107,0.08817 -0.027432,0.02351 -0.060742,0.03527 -0.099931,0.03527 -0.039189,0 -0.074458,-0.01176 -0.1018902,-0.03527 -0.027432,-0.02351 -0.041148,-0.05291 -0.041148,-0.08817 l 0,-0.01568"
         id="path3611"
         style="font-size:16.08689117px;font-style:normal;font-variant:normal;font-weight:normal;font-stretch:normal;text-align:start;line-height:125%;writing-mode:lr-tb;text-anchor:start;fill:#ffffff;fill-opacity:1;stroke:none;font-family:Plymdale;-inkscape-font-specification:Plymdale" />
    </g>
  </g>
</svg>
