<?xml version="1.0" encoding="UTF-8" standalone="no"?>
<!-- Created with Inkscape (http://www.inkscape.org/) -->

<svg
   xmlns:dc="http://purl.org/dc/elements/1.1/"
   xmlns:cc="http://creativecommons.org/ns#"
   xmlns:rdf="http://www.w3.org/1999/02/22-rdf-syntax-ns#"
   xmlns:svg="http://www.w3.org/2000/svg"
   xmlns="http://www.w3.org/2000/svg"
   xmlns:xlink="http://www.w3.org/1999/xlink"
   xmlns:sodipodi="http://sodipodi.sourceforge.net/DTD/sodipodi-0.dtd"
   xmlns:inkscape="http://www.inkscape.org/namespaces/inkscape"
   inkscape:export-ydpi="90.000000"
   inkscape:export-xdpi="90.000000"
   inkscape:export-filename="/home/patrick/Desktop/desktop.png"
   width="48"
   height="48"
   id="svg11300"
   sodipodi:version="0.32"
   inkscape:version="0.47+devel r9425"
   sodipodi:docname="plugin-fs.svg"
   inkscape:output_extension="org.inkscape.output.svg.inkscape"
   version="1.0">
  <defs
     id="defs3">
    <linearGradient
       inkscape:collect="always"
       id="linearGradient5634">
      <stop
         style="stop-color:#a09999;stop-opacity:1;"
         offset="0"
         id="stop5636" />
      <stop
         style="stop-color:#a09999;stop-opacity:0;"
         offset="1"
         id="stop5638" />
    </linearGradient>
    <linearGradient
       id="linearGradient3307"
       inkscape:collect="always">
      <stop
         id="stop3309"
         offset="0"
         style="stop-color:#888a85;stop-opacity:1;" />
      <stop
         id="stop3311"
         offset="1"
         style="stop-color:#888a85;stop-opacity:0;" />
    </linearGradient>
    <linearGradient
       id="linearGradient3315"
       inkscape:collect="always">
      <stop
         id="stop3317"
         offset="0"
         style="stop-color:white;stop-opacity:1;" />
      <stop
         id="stop3319"
         offset="1"
         style="stop-color:white;stop-opacity:0;" />
    </linearGradient>
    <linearGradient
       id="linearGradient3331"
       inkscape:collect="always">
      <stop
         id="stop3333"
         offset="0"
         style="stop-color:#d3d7cf;stop-opacity:1;" />
      <stop
         id="stop3335"
         offset="1"
         style="stop-color:#d3d7cf;stop-opacity:0;" />
    </linearGradient>
    <linearGradient
       id="linearGradient5048">
      <stop
         style="stop-color:black;stop-opacity:0;"
         offset="0"
         id="stop5050" />
      <stop
         id="stop5056"
         offset="0.5"
         style="stop-color:black;stop-opacity:1;" />
      <stop
         style="stop-color:black;stop-opacity:0;"
         offset="1"
         id="stop5052" />
    </linearGradient>
    <linearGradient
       inkscape:collect="always"
       id="linearGradient5060">
      <stop
         style="stop-color:black;stop-opacity:1;"
         offset="0"
         id="stop5062" />
      <stop
         style="stop-color:black;stop-opacity:0;"
         offset="1"
         id="stop5064" />
    </linearGradient>
    <linearGradient
       id="linearGradient1789">
      <stop
         style="stop-color:#202020;stop-opacity:1.0000000;"
         offset="0.0000000"
         id="stop1790" />
      <stop
         style="stop-color:#b9b9b9;stop-opacity:1.0000000;"
         offset="1.0000000"
         id="stop1791" />
    </linearGradient>
    <linearGradient
       id="linearGradient3096">
      <stop
         id="stop3098"
         offset="0"
         style="stop-color:#424242;stop-opacity:1;" />
      <stop
         id="stop3100"
         offset="1.0000000"
         style="stop-color:#777777;stop-opacity:1.0000000;" />
    </linearGradient>
    <linearGradient
       id="linearGradient3983">
      <stop
         style="stop-color:#ffffff;stop-opacity:0.87628865;"
         offset="0.0000000"
         id="stop3984" />
      <stop
         style="stop-color:#fffffe;stop-opacity:0.0000000;"
         offset="1.0000000"
         id="stop3985" />
    </linearGradient>
    <linearGradient
       id="linearGradient9766">
      <stop
         style="stop-color:#6194cb;stop-opacity:1;"
         offset="0"
         id="stop9768" />
      <stop
         style="stop-color:#729fcf;stop-opacity:1;"
         offset="1"
         id="stop9770" />
    </linearGradient>
    <linearGradient
       id="linearGradient319"
       inkscape:collect="always">
      <stop
         id="stop320"
         offset="0"
         style="stop-color:#ffffff;stop-opacity:1;" />
      <stop
         id="stop321"
         offset="1"
         style="stop-color:#ffffff;stop-opacity:0;" />
    </linearGradient>
    <linearGradient
       inkscape:collect="always"
       xlink:href="#linearGradient319"
       id="linearGradient4616"
       gradientUnits="userSpaceOnUse"
       gradientTransform="matrix(1.4787055,0,0,0.91613836,-3.6010038,-17.69564)"
       x1="13.035696"
       y1="32.567184"
       x2="12.853771"
       y2="46.689312" />
    <linearGradient
       inkscape:collect="always"
       xlink:href="#linearGradient9766"
       id="linearGradient4619"
       gradientUnits="userSpaceOnUse"
       gradientTransform="matrix(1.1223665,0,0,1.1223665,-2.6138021,-16.216191)"
       x1="22.175976"
       y1="36.987999"
       x2="22.065331"
       y2="32.050499" />
    <linearGradient
       inkscape:collect="always"
       xlink:href="#linearGradient3983"
       id="linearGradient4624"
       gradientUnits="userSpaceOnUse"
       gradientTransform="matrix(1.7024549,0,0,0.79573317,-3.6010031,-17.69564)"
       x1="6.2297964"
       y1="13.773066"
       x2="9.8980894"
       y2="66.834053" />
    <radialGradient
       inkscape:collect="always"
       xlink:href="#linearGradient1789"
       id="radialGradient4642"
       gradientUnits="userSpaceOnUse"
       gradientTransform="matrix(1.1841213,-0.03069116,0.19944789,1.3366588,-6.6231048,-24.213388)"
       cx="20.706017"
       cy="37.517986"
       fx="20.706017"
       fy="37.517986"
       r="30.905205" />
    <linearGradient
       inkscape:collect="always"
       xlink:href="#linearGradient3096"
       id="linearGradient4644"
       gradientUnits="userSpaceOnUse"
       gradientTransform="matrix(1.1223665,0,0,1.1223665,-2.6138021,-16.216191)"
       x1="18.112709"
       y1="31.36775"
       x2="15.514889"
       y2="6.1802502" />
    <linearGradient
       inkscape:collect="always"
       xlink:href="#linearGradient5048"
       id="linearGradient5702"
       gradientUnits="userSpaceOnUse"
       gradientTransform="matrix(2.774389,0,0,1.969706,-1892.179,-872.8854)"
       x1="302.85715"
       y1="366.64789"
       x2="302.85715"
       y2="609.50507" />
    <radialGradient
       inkscape:collect="always"
       xlink:href="#linearGradient5060"
       id="radialGradient5704"
       gradientUnits="userSpaceOnUse"
       gradientTransform="matrix(2.774389,0,0,1.969706,-1891.633,-872.8854)"
       cx="605.71429"
       cy="486.64789"
       fx="605.71429"
       fy="486.64789"
       r="117.14286" />
    <radialGradient
       inkscape:collect="always"
       xlink:href="#linearGradient5060"
       id="radialGradient5706"
       gradientUnits="userSpaceOnUse"
       gradientTransform="matrix(-2.774389,0,0,1.969706,112.7623,-872.8854)"
       cx="605.71429"
       cy="486.64789"
       fx="605.71429"
       fy="486.64789"
       r="117.14286" />
    <linearGradient
       inkscape:collect="always"
       xlink:href="#linearGradient3331"
       id="linearGradient5708"
       gradientUnits="userSpaceOnUse"
       gradientTransform="matrix(4.1256864,-4.1256605,4.1256864,4.1256605,-407.30391,-126.49531)"
       x1="35.197689"
       y1="46.093544"
       x2="33.665684"
       y2="50.415848" />
    <linearGradient
       inkscape:collect="always"
       xlink:href="#linearGradient5634"
       id="linearGradient5710"
       gradientUnits="userSpaceOnUse"
       x1="-179.61215"
       y1="-110.09697"
       x2="-16.165005"
       y2="-110.09697" />
    <linearGradient
       inkscape:collect="always"
       xlink:href="#linearGradient3315"
       id="linearGradient5712"
       gradientUnits="userSpaceOnUse"
       gradientTransform="matrix(4.1256864,-4.1256605,4.1256864,4.1256605,-407.30391,-126.49531)"
       x1="33.358002"
       y1="37.386215"
       x2="32.39225"
       y2="48.299358" />
    <linearGradient
       inkscape:collect="always"
       xlink:href="#linearGradient3307"
       id="linearGradient5714"
       gradientUnits="userSpaceOnUse"
       gradientTransform="matrix(5.8345833,0,0,5.8345833,-198.56048,-377.45242)"
       x1="36.201752"
       y1="37.667465"
       x2="30.034962"
       y2="41.842426" />
    <linearGradient
       inkscape:collect="always"
       xlink:href="#linearGradient3264"
       id="linearGradient3281"
       gradientUnits="userSpaceOnUse"
       x1="14.462892"
       y1="12.284524"
       x2="34.534348"
       y2="39.684914"
       gradientTransform="matrix(1.241935,0,0,1.241935,-5.027508,-7.208988)" />
    <linearGradient
       id="linearGradient3264">
      <stop
         style="stop-color:#c9c9c9;stop-opacity:1;"
         offset="0"
         id="stop3266" />
      <stop
         id="stop3276"
         offset="0.25"
         style="stop-color:#f8f8f8;stop-opacity:1;" />
      <stop
         id="stop3272"
         offset="0.5"
         style="stop-color:#e2e2e2;stop-opacity:1;" />
      <stop
         style="stop-color:#b0b0b0;stop-opacity:1;"
         offset="0.75"
         id="stop3274" />
      <stop
         style="stop-color:#c9c9c9;stop-opacity:1;"
         offset="1"
         id="stop3268" />
    </linearGradient>
  </defs>
  <sodipodi:namedview
     stroke="#ef2929"
     fill="#eeeeec"
     id="base"
     pagecolor="#ffffff"
     bordercolor="#666666"
     borderopacity="0.25490196"
     inkscape:pageopacity="0.0"
     inkscape:pageshadow="2"
     inkscape:zoom="11.461022"
     inkscape:cx="24"
     inkscape:cy="24"
     inkscape:current-layer="layer1"
     showgrid="false"
     inkscape:grid-bbox="true"
     inkscape:document-units="px"
     inkscape:showpageshadow="false"
     inkscape:window-width="1280"
     inkscape:window-height="975"
     inkscape:window-x="0"
     inkscape:window-y="24"
     showguides="true"
     inkscape:guide-bbox="true"
     inkscape:window-maximized="1"
     inkscape:snap-global="false">
    <inkscape:grid
       type="xygrid"
       id="grid7947"
       empspacing="5"
       visible="true"
       enabled="true"
       snapvisiblegridlinesonly="true" />
  </sodipodi:namedview>
  <metadata
     id="metadata4">
    <rdf:RDF>
      <cc:Work
         rdf:about="">
        <dc:format>image/svg+xml</dc:format>
        <dc:type
           rdf:resource="http://purl.org/dc/dcmitype/StillImage" />
        <dc:creator>
          <cc:Agent>
            <dc:title />
          </cc:Agent>
        </dc:creator>
        <dc:source />
        <cc:license
           rdf:resource="http://creativecommons.org/licenses/GPL/2.0/" />
        <dc:title>Desktop</dc:title>
        <dc:subject>
          <rdf:Bag />
        </dc:subject>
      </cc:Work>
      <cc:License
         rdf:about="http://creativecommons.org/licenses/GPL/2.0/">
        <cc:permits
           rdf:resource="http://web.resource.org/cc/Reproduction" />
        <cc:permits
           rdf:resource="http://web.resource.org/cc/Distribution" />
        <cc:requires
           rdf:resource="http://web.resource.org/cc/Notice" />
        <cc:permits
           rdf:resource="http://web.resource.org/cc/DerivativeWorks" />
        <cc:requires
           rdf:resource="http://web.resource.org/cc/ShareAlike" />
        <cc:requires
           rdf:resource="http://web.resource.org/cc/SourceCode" />
      </cc:License>
    </rdf:RDF>
  </metadata>
  <g
     id="layer1"
     inkscape:label="Layer 1"
     inkscape:groupmode="layer"
     transform="translate(0,16)">
    <g
       style="display:inline"
       inkscape:label="Base"
       id="g2721"
       transform="matrix(1.4345189,0,0,1.4345189,-5.5221168,-155.86417)" />
    <g
       id="layer2"
       inkscape:label="new"
       transform="matrix(1.4345189,0,0,1.4345189,-175.42226,-28.753637)" />
    <g
       transform="matrix(1.4345189,0,0,1.4345189,22.054671,-85.188627)"
       id="g8811"
       style="display:inline" />
    <g
       style="display:inline"
       transform="matrix(0.02313061,0,0,0.02133502,44.066739,24.788435)"
       id="g6707">
      <rect
         style="opacity:0.40206185;color:#000000;fill:url(#linearGradient5702);fill-opacity:1;fill-rule:nonzero;stroke:none;stroke-width:1;marker:none;visibility:visible;display:inline;overflow:visible"
         id="rect6709"
         width="1339.6335"
         height="478.35718"
         x="-1559.2523"
         y="-150.69685" />
      <path
         inkscape:connector-curvature="0"
         style="opacity:0.40206185;color:#000000;fill:url(#radialGradient5704);fill-opacity:1;fill-rule:nonzero;stroke:none;stroke-width:1;marker:none;visibility:visible;display:inline;overflow:visible"
         d="m -219.61876,-150.68038 c 0,0 0,478.33079 0,478.33079 142.874166,0.90045 345.40022,-107.16966 345.40014,-239.196175 0,-132.026537 -159.436816,-239.134595 -345.40014,-239.134615 z"
         id="path6711"
         sodipodi:nodetypes="cccc" />
      <path
         inkscape:connector-curvature="0"
         sodipodi:nodetypes="cccc"
         id="path6713"
         d="m -1559.2523,-150.68038 c 0,0 0,478.33079 0,478.33079 -142.8742,0.90045 -345.4002,-107.16966 -345.4002,-239.196175 0,-132.026537 159.4368,-239.134595 345.4002,-239.134615 z"
         style="opacity:0.40206185;color:#000000;fill:url(#radialGradient5706);fill-opacity:1;fill-rule:nonzero;stroke:none;stroke-width:1;marker:none;visibility:visible;display:inline;overflow:visible" />
    </g>
    <path
       inkscape:connector-curvature="0"
       d="m 2.4612985,27.205276 c 0.02441,0.467242 0.5161887,0.934495 0.9834268,0.934495 l 35.1603947,0 c 0.467257,0 0.910029,-0.467253 0.885563,-0.934495 L 38.43966,-3.3530961 c -0.02441,-0.4672531 -0.51617,-0.9345043 -0.983427,-0.9345043 l -14.89478,0 c -0.54441,0 -1.385529,-0.3542101 -1.573145,-1.2420432 l -0.686211,-3.2470866 c -0.174435,-0.825703 -0.990168,-1.164892 -1.457406,-1.164892 l -16.5873069,0 c -0.4672568,0 -0.9100476,0.46724 -0.8855817,0.934493 L 2.4612985,27.205276 z"
       id="path216"
       style="fill:url(#radialGradient4642);fill-opacity:1;fill-rule:nonzero;stroke:url(#linearGradient4644);stroke-width:1.12236643;stroke-linecap:round;stroke-linejoin:round;stroke-miterlimit:4;stroke-opacity:1;stroke-dasharray:none"
       sodipodi:nodetypes="ccccccssssccc" />
    <path
       inkscape:connector-curvature="0"
       sodipodi:nodetypes="cc"
       id="path9788"
       d="m 3.2523585,9.1072039 33.9690725,0"
       style="opacity:0.11363633;color:#000000;fill:#729fcf;fill-opacity:1;fill-rule:nonzero;stroke:#000000;stroke-width:1.12236679;stroke-linecap:round;stroke-linejoin:round;stroke-miterlimit:4;stroke-opacity:1;stroke-dasharray:none;stroke-dashoffset:0;marker:none;visibility:visible;display:inline;overflow:visible" />
    <path
       inkscape:connector-curvature="0"
       sodipodi:nodetypes="cc"
       id="path9784"
       d="m 3.0453648,4.6177381 34.1726302,0"
       style="opacity:0.11363633;color:#000000;fill:#729fcf;fill-opacity:1;fill-rule:nonzero;stroke:#000000;stroke-width:1.12236691;stroke-linecap:round;stroke-linejoin:round;stroke-miterlimit:4;stroke-opacity:1;stroke-dasharray:none;stroke-dashoffset:0;marker:none;visibility:visible;display:inline;overflow:visible" />
    <path
       inkscape:connector-curvature="0"
       style="opacity:0.11363633;color:#000000;fill:#729fcf;fill-opacity:1;fill-rule:nonzero;stroke:#000000;stroke-width:1.12236643;stroke-linecap:round;stroke-linejoin:round;stroke-miterlimit:4;stroke-opacity:1;stroke-dasharray:none;stroke-dashoffset:0;marker:none;visibility:visible;display:inline;overflow:visible"
       d="m 2.9763794,-2.1164625 34.2404326,0"
       id="path9778"
       sodipodi:nodetypes="cc" />
    <path
       inkscape:connector-curvature="0"
       style="opacity:0.11363633;color:#000000;fill:#729fcf;fill-opacity:1;fill-rule:nonzero;stroke:#000000;stroke-width:1.12236691;stroke-linecap:round;stroke-linejoin:round;stroke-miterlimit:4;stroke-opacity:1;stroke-dasharray:none;stroke-dashoffset:0;marker:none;visibility:visible;display:inline;overflow:visible"
       d="m 3.4314502,20.330872 33.7930228,0"
       id="path9798"
       sodipodi:nodetypes="cc" />
    <path
       inkscape:connector-curvature="0"
       sodipodi:nodetypes="cc"
       id="path9800"
       d="m 3.5694773,22.575605 33.6572487,0"
       style="opacity:0.11363633;color:#000000;fill:#729fcf;fill-opacity:1;fill-rule:nonzero;stroke:#000000;stroke-width:1.12236679;stroke-linecap:round;stroke-linejoin:round;stroke-miterlimit:4;stroke-opacity:1;stroke-dasharray:none;stroke-dashoffset:0;marker:none;visibility:visible;display:inline;overflow:visible" />
    <path
       inkscape:connector-curvature="0"
       style="opacity:0.11363633;color:#000000;fill:#729fcf;fill-opacity:1;fill-rule:nonzero;stroke:#000000;stroke-width:1.12236691;stroke-linecap:round;stroke-linejoin:round;stroke-miterlimit:4;stroke-opacity:1;stroke-dasharray:none;stroke-dashoffset:0;marker:none;visibility:visible;display:inline;overflow:visible"
       d="m 3.0453648,2.3730052 34.1726302,0"
       id="path9782"
       sodipodi:nodetypes="cc" />
    <path
       inkscape:connector-curvature="0"
       sodipodi:nodetypes="cc"
       id="path9780"
       d="m 3.0108721,0.12827226 34.2065219,0"
       style="opacity:0.11363633;color:#000000;fill:#729fcf;fill-opacity:1;fill-rule:nonzero;stroke:#000000;stroke-width:1.12236679;stroke-linecap:round;stroke-linejoin:round;stroke-miterlimit:4;stroke-opacity:1;stroke-dasharray:none;stroke-dashoffset:0;marker:none;visibility:visible;display:inline;overflow:visible" />
    <path
       inkscape:connector-curvature="0"
       sodipodi:nodetypes="cc"
       id="path9776"
       d="m 2.9106048,-4.3611935 17.1506632,0"
       style="opacity:0.11363633;color:#000000;fill:#729fcf;fill-opacity:1;fill-rule:nonzero;stroke:#000000;stroke-width:1.12236679;stroke-linecap:round;stroke-linejoin:round;stroke-miterlimit:4;stroke-opacity:1;stroke-dasharray:none;stroke-dashoffset:0;marker:none;visibility:visible;display:inline;overflow:visible" />
    <path
       inkscape:connector-curvature="0"
       style="opacity:0.11363633;color:#000000;fill:#729fcf;fill-opacity:1;fill-rule:nonzero;stroke:#000000;stroke-width:1.12236631;stroke-linecap:round;stroke-linejoin:round;stroke-miterlimit:4;stroke-opacity:1;stroke-dasharray:none;stroke-dashoffset:0;marker:none;visibility:visible;display:inline;overflow:visible"
       d="m 2.8563403,-6.6059264 16.5927707,0"
       id="path9774"
       sodipodi:nodetypes="cc" />
    <path
       inkscape:connector-curvature="0"
       style="opacity:0.11363633;color:#000000;fill:#729fcf;fill-opacity:1;fill-rule:nonzero;stroke:#000000;stroke-width:1.12236691;stroke-linecap:round;stroke-linejoin:round;stroke-miterlimit:4;stroke-opacity:1;stroke-dasharray:none;stroke-dashoffset:0;marker:none;visibility:visible;display:inline;overflow:visible"
       d="m 3.3624272,15.841404 33.8609198,0"
       id="path9794"
       sodipodi:nodetypes="cc" />
    <path
       inkscape:connector-curvature="0"
       sodipodi:nodetypes="cc"
       id="path9792"
       d="m 3.3213439,13.59667 33.9012141,0"
       style="opacity:0.11363633;color:#000000;fill:#729fcf;fill-opacity:1;fill-rule:nonzero;stroke:#000000;stroke-width:1.12236643;stroke-linecap:round;stroke-linejoin:round;stroke-miterlimit:4;stroke-opacity:1;stroke-dasharray:none;stroke-dashoffset:0;marker:none;visibility:visible;display:inline;overflow:visible" />
    <path
       inkscape:connector-curvature="0"
       style="opacity:0.11363633;color:#000000;fill:#729fcf;fill-opacity:1;fill-rule:nonzero;stroke:#000000;stroke-width:1.12236679;stroke-linecap:round;stroke-linejoin:round;stroke-miterlimit:4;stroke-opacity:1;stroke-dasharray:none;stroke-dashoffset:0;marker:none;visibility:visible;display:inline;overflow:visible"
       d="m 3.2523585,11.351937 33.9690725,0"
       id="path9790"
       sodipodi:nodetypes="cc" />
    <path
       inkscape:connector-curvature="0"
       style="opacity:0.11363633;color:#000000;fill:#729fcf;fill-opacity:1;fill-rule:nonzero;stroke:#000000;stroke-width:1.12236667;stroke-linecap:round;stroke-linejoin:round;stroke-miterlimit:4;stroke-opacity:1;stroke-dasharray:none;stroke-dashoffset:0;marker:none;visibility:visible;display:inline;overflow:visible"
       d="m 3.2178658,6.862471 34.0029832,0"
       id="path9786"
       sodipodi:nodetypes="cc" />
    <path
       inkscape:connector-curvature="0"
       sodipodi:nodetypes="cc"
       id="path9796"
       d="m 3.3624272,18.086139 33.8609198,0"
       style="opacity:0.11363633;color:#000000;fill:#729fcf;fill-opacity:1;fill-rule:nonzero;stroke:#000000;stroke-width:1.12236691;stroke-linecap:round;stroke-linejoin:round;stroke-miterlimit:4;stroke-opacity:1;stroke-dasharray:none;stroke-dashoffset:0;marker:none;visibility:visible;display:inline;overflow:visible" />
    <path
       inkscape:connector-curvature="0"
       style="opacity:0.11363633;color:#000000;fill:#729fcf;fill-opacity:1;fill-rule:nonzero;stroke:#000000;stroke-width:1.12236679;stroke-linecap:round;stroke-linejoin:round;stroke-miterlimit:4;stroke-opacity:1;stroke-dasharray:none;stroke-dashoffset:0;marker:none;visibility:visible;display:inline;overflow:visible"
       d="m 3.5694773,24.820338 33.6572487,0"
       id="path9802"
       sodipodi:nodetypes="cc" />
    <path
       inkscape:connector-curvature="0"
       style="opacity:0.45142858;color:#000000;fill:url(#linearGradient4624);fill-opacity:1;fill-rule:nonzero;stroke:none;stroke-width:1.21380496;marker:none;visibility:visible;display:block;overflow:visible"
       d="m 4.1971054,27.403497 c 0.018777,0.350425 -0.2030506,0.584057 -0.5595815,0.467242 l 0,0 C 3.2809554,27.75393 3.0351128,27.520303 3.0167492,27.169865 L 1.953071,-8.8182342 c -0.018777,-0.350436 0.1853255,-0.562047 0.5358292,-0.562047 l 16.1868198,-0.05353 c 0.350447,0 1.045991,0.337247 1.271573,1.483969 l 0.643664,3.1600662 C 20.111645,-5.3119658 20.12047,-5.3280837 19.875379,-6.088027 l -0.455784,-1.4132618 c -0.245862,-0.8166883 -0.783644,-0.9336968 -1.134072,-0.9336968 l -14.4648142,0 c -0.3504285,0 -0.5718239,0.2336209 -0.5534604,0.5840682 l 1.0527877,35.3712264 -0.122987,-0.11681 z"
       id="path219"
       sodipodi:nodetypes="cccccccccscccccc" />
    <g
       style="fill:#ffffff;fill-opacity:0.75706213;fill-rule:nonzero;stroke:none"
       id="g220"
       transform="matrix(1.1681187,0,0.06116058,1.1681187,-12.34493,-13.2188)"
       inkscape:export-filename="/home/jimmac/ximian_art/icons/nautilus/suse93/gnome-fs-directory.png"
       inkscape:export-xdpi="74.800003"
       inkscape:export-ydpi="74.800003">
      <path
         inkscape:connector-curvature="0"
         style="fill:#ffffff;fill-opacity:0.50847461"
         d="m 42.417183,8.5151772 c 0.0051,-0.097113 -0.128161,-0.2469882 -0.235117,-0.2470056 l -13.031401,-0.00212 c 0,0 0.911714,0.5879545 2.201812,0.5962436 l 11.053497,0.07102 c 0.01109,-0.2117278 0.0027,-0.2560322 0.01121,-0.4181395 z"
         id="path221"
         sodipodi:nodetypes="cscscs" />
    </g>
    <g
       transform="matrix(0.56445817,0,0,0.56445817,0.96329773,-14.588988)"
       id="g3335">
      <path
         inkscape:connector-curvature="0"
         id="path3243-6"
         d="M 23.25,0.46875 C 22.784561,0.50059628 22.332166,0.57268469 21.875,0.625 l -0.03125,0 L 20.75,6.59375 C 18.967275,6.9997399 17.290091,7.6887415 15.78125,8.625 L 10.875,5.09375 C 9.5487118,6.1234406 8.3418016,7.3243453 7.28125,8.625 l 3.40625,4.96875 c -1.0342329,1.580515 -1.8119683,3.385224 -2.25,5.28125 -7.5e-5,0.009 -6.09e-5,0.02969 0,0.03125 L 2.5,19.84375 c -0.1085533,0.886633 -0.15625,1.802939 -0.15625,2.71875 10e-8,0.7493 0.020689,1.488589 0.09375,2.21875 l 5.9375,1.0625 c 0.422279,2.061892 1.2244587,3.987512 2.34375,5.6875 L 7.1875,36.375 c 1.0113261,1.255518 2.1788917,2.398616 3.4375,3.40625 l 5,-3.4375 c 1.747433,1.114717 3.698083,1.896374 5.8125,2.28125 l 0.9375,5.90625 c 0.666183,0.06064 1.349349,0.0625 2.03125,0.0625 0.962685,-10e-7 1.882237,-0.03648 2.8125,-0.15625 l 1.125,-6.03125 C 30.351311,37.906649 32.237219,37.03996 33.875,35.875 l 4.8125,3.5 c 1.248028,-1.061797 2.389277,-2.282256 3.375,-3.59375 l -3.5,-5.0625 c 0.947853,-1.63699 1.604629,-3.443141 1.9375,-5.375 l 5.90625,-0.9375 c 0.05179,-0.616346 0.0625,-1.214087 0.0625,-1.84375 0,-1.094214 -0.127182,-2.167084 -0.28125,-3.21875 l -6,-1.09375 C 39.717306,16.513776 38.945824,14.893898 37.96875,13.4375 L 41.5,8.59375 C 40.405427,7.2551429 39.156822,6.0185688 37.78125,4.96875 l -5.09375,3.5 C 31.223504,7.6029126 29.648037,6.9385679 27.9375,6.5625 L 27,0.625 C 26.146701,0.52462461 25.286379,0.46875 24.40625,0.46875 c -0.237872,10e-9 -0.482684,-0.007485 -0.71875,0 -0.115083,0.003649 -0.228966,-0.006695 -0.34375,0 -0.03109,0.001813 -0.06272,-0.002123 -0.09375,0 z m 0.8125,15.1875 c 0.114166,-0.0058 0.228152,0 0.34375,0 3.699127,0 6.71875,3.019624 6.71875,6.71875 1e-6,3.699126 -3.019624,6.6875 -6.71875,6.6875 -3.699125,1e-6 -6.6875,-2.988374 -6.6875,-6.6875 1e-6,-3.583527 2.8046,-6.539158 6.34375,-6.71875 z"
         style="color:#000000;fill:url(#linearGradient3281);fill-opacity:1;fill-rule:nonzero;stroke:#808080;stroke-width:1;stroke-linecap:butt;stroke-linejoin:miter;stroke-miterlimit:4;stroke-opacity:1;stroke-dasharray:none;stroke-dashoffset:0;marker:none;visibility:visible;display:inline;overflow:visible" />
      <path
         transform="matrix(0.606518,0,0,0.606518,10.15021,7.936835)"
         d="m 36.239223,23.781593 c 0,7.029438 -5.698484,12.727923 -12.727922,12.727923 -7.029437,0 -12.727922,-5.698485 -12.727922,-12.727923 0,-7.029437 5.698485,-12.727922 12.727922,-12.727922 7.029438,0 12.727922,5.698485 12.727922,12.727922 z"
         sodipodi:ry="12.727922"
         sodipodi:rx="12.727922"
         sodipodi:cy="23.781593"
         sodipodi:cx="23.511301"
         id="path3283-3"
         style="opacity:0.64772728;color:#000000;fill:none;stroke:#ffffff;stroke-width:1.64875567;stroke-linecap:butt;stroke-linejoin:miter;stroke-miterlimit:4;stroke-opacity:1;stroke-dasharray:none;stroke-dashoffset:0;marker:none;visibility:visible;display:inline;overflow:visible"
         sodipodi:type="arc" />
      <path
         inkscape:connector-curvature="0"
         sodipodi:nodetypes="ccccccccccccccccccccccccccccccccc"
         style="opacity:0.34659089;color:#000000;fill:none;stroke:#ffffff;stroke-width:0.9999997;stroke-linecap:butt;stroke-linejoin:miter;stroke-miterlimit:4;stroke-opacity:1;stroke-dasharray:none;stroke-dashoffset:0;marker:none;visibility:visible;display:inline;overflow:visible"
         d="M 22.557788,1.6501132 21.679599,7.4291233 C 20.008601,7.8096689 16.934874,8.9735344 15.520595,9.8511162 L 10.848562,6.3639293 C 9.6053938,7.3290873 9.5201391,7.3945394 8.5260544,8.6136804 l 3.3780526,5.0099536 c -0.969415,1.481461 -2.1338039,4.121495 -2.5518734,6.008088 0,0 -5.9194088,0.997841 -5.9194088,0.997841 -0.1017499,0.831066 -0.05285,2.609798 0.015632,3.294198 l 5.6542436,1.018588 c 0.395814,1.932669 1.8770306,5.043588 2.9261736,6.637034 l -3.575576,4.724044 c 0.9479445,1.176832 1.1376642,1.284521 2.317393,2.229005 l 4.781168,-3.50282 c 1.637918,1.044855 4.889033,2.315886 6.870935,2.676641 l 0.784687,5.706254 c 0.624432,0.05684 2.349481,0.216281 3.221443,0.10402 l 0.878188,-5.940154 c 1.881743,-0.468289 5.13316,-1.80296 6.668298,-2.89491 l 4.776055,3.450808 c 1.169811,-0.995251 1.180292,-1.145216 2.104238,-2.374516 l -3.539198,-5.030701 c 0.888449,-1.534398 2.037228,-4.535223 2.349237,-6.346009 l 5.794642,-0.961463 c 0.04855,-0.577719 0.05091,-2.188789 -0.0935,-3.174545 L 39.463105,19.226449 C 39.022378,17.599038 37.509894,14.666467 36.594056,13.301345 L 40.346408,8.5773019 C 39.320436,7.3225876 38.938964,7.150431 37.649602,6.1664065 L 32.707289,9.7056032 C 31.335043,8.8940304 28.598675,7.6568558 26.995341,7.3043568 L 26.122266,1.6501132 c -0.799821,-0.094085 -3.107395,-0.052306 -3.564478,0 z"
         id="path3285-2" />
    </g>
    <path
       inkscape:connector-curvature="0"
       style="color:#000000;fill:url(#linearGradient4619);fill-opacity:1;fill-rule:nonzero;stroke:#3465a4;stroke-width:1.12236643;stroke-linecap:butt;stroke-linejoin:round;stroke-miterlimit:4;stroke-opacity:1;stroke-dasharray:none;stroke-dashoffset:0;marker:none;visibility:visible;display:block"
       d="m 42.037904,28.129209 c 1.283872,-0.0495 2.203289,-1.23045 2.297529,-2.605013 0.88868,-12.961864 1.862418,-23.8300323 1.862418,-23.8300323 0.08093,-0.2777629 -0.188462,-0.5555371 -0.538909,-0.5555371 l -38.5770303,0 c 0,0 -2.0767346,24.5426674 -2.0767346,24.5426674 -0.12862,1.102242 -0.5230234,2.025557 -1.7394871,2.450934 l 38.772214,-0.0034 z"
       id="path233"
       sodipodi:nodetypes="cscccscc"
       inkscape:export-filename="/home/jimmac/ximian_art/icons/nautilus/suse93/gnome-fs-directory.png"
       inkscape:export-xdpi="74.800003"
       inkscape:export-ydpi="74.800003" />
    <path
       inkscape:connector-curvature="0"
       sodipodi:nodetypes="ccsscsc"
       id="path304"
       d="M 8.1836501,2.2623619 44.987283,2.3350839 43.220626,24.784638 c -0.09463,1.202627 -0.505824,1.602987 -2.10182,1.602987 -2.100506,0 -32.1871883,-0.03637 -35.2364028,-0.03637 0.2621783,-0.360066 0.3745941,-1.109593 0.3760962,-1.127539 L 8.1836501,2.2623487 z"
       style="opacity:0.46590911;fill:none;stroke:url(#linearGradient4616);stroke-width:1.12236619px;stroke-linecap:round;stroke-linejoin:miter;stroke-opacity:1" />
    <path
       inkscape:connector-curvature="0"
       sodipodi:nodetypes="ccccc"
       id="path323"
       d="M 8.1836501,1.9921641 6.874242,19.54966 c 0,0 9.311338,-4.655667 20.950492,-4.655667 11.639155,0 17.458732,-12.9018289 17.458732,-12.9018289 l -37.0998159,0 z"
       style="fill:#ffffff;fill-opacity:0.0892857;fill-rule:evenodd;stroke:none" />
    <g
       id="g5653"
       transform="matrix(0.18806399,0,0,0.18806399,52.330941,40.566585)">
      <path
         d="m -173.42906,-160.78986 c -5.10839,14.38828 -1.96817,31.03712 9.54065,42.54587 11.50883,11.50876 28.15775,14.64895 42.54614,9.54059 l 76.480306,76.479828 24.883046,-24.882889 -76.480307,-76.479829 c 5.0304,-14.3529 1.797834,-30.94961 -9.669575,-42.41695 -11.46741,-11.46733 -28.06425,-14.69988 -42.41722,-9.66951 l 26.0434,26.04323 -8.31584,16.5671 -16.56721,8.31579 -26.04339,-26.04323 z"
         id="path3193"
         style="fill:url(#linearGradient5708);fill-opacity:1;fill-rule:nonzero;stroke:url(#linearGradient5710);stroke-width:7.62782526;stroke-linecap:round;stroke-linejoin:round;stroke-miterlimit:4;stroke-opacity:1;stroke-dasharray:none;stroke-dashoffset:1.4;marker:none;visibility:visible;display:inline;overflow:visible"
         inkscape:connector-curvature="0" />
      <path
         d="m -168.02859,-144.47027 c -0.54635,4.29858 3.81374,15.14923 9.17841,20.51387 9.36136,9.3613 23.33931,12.25712 35.01363,8.11234 2.83714,-0.99122 -15.83217,-22.35123 7.61679,1.5968 21.633807,21.515518 77.133369,76.711496 77.133369,76.711496 l 13.795264,-13.795177 -76.374893,-76.711479 c -2.14724,-2.10267 -3.0937,-5.28527 -2.10247,-8.1224 4.07242,-11.61956 2.35889,-23.52584 -8.15704,-34.96876 -5.10575,-5.55583 -14.43929,-8.78328 -20.04796,-8.88591 l 15.01476,14.84611 c 2.33641,2.37601 2.8033,6.05639 1.28928,9.02489 l -8.3803,16.63156 c -0.74916,1.49046 -1.86166,2.60295 -3.35212,3.3521 l -16.50275,8.25132 c -2.96852,1.51402 -6.73305,0.79416 -9.10922,-1.54209 l -15.01475,-15.01467 z"
         id="path8105"
         style="fill:none;stroke:url(#linearGradient5712);stroke-width:7.62782526;stroke-linecap:round;stroke-linejoin:miter;stroke-miterlimit:4;stroke-opacity:1;stroke-dashoffset:1.4;marker:none;visibility:visible;display:inline;overflow:visible"
         inkscape:connector-curvature="0" />
      <rect
         width="11.66922"
         height="87.518837"
         rx="7.6278601"
         ry="7.6278601"
         x="2.7326894"
         y="-158.65564"
         transform="matrix(0.707109,-0.70710456,0.707109,0.70710456,0,0)"
         id="rect3197"
         style="opacity:0.4;fill:none;stroke:url(#linearGradient5714);stroke-width:7.62782383;stroke-linecap:round;stroke-linejoin:miter;stroke-miterlimit:4;stroke-opacity:1;stroke-dasharray:none;stroke-dashoffset:1.4;marker:none;visibility:visible;display:inline;overflow:visible" />
    </g>
  </g>
</svg>
