<?xml version="1.0" encoding="UTF-8" standalone="no"?>
<!-- Created with Inkscape (http://www.inkscape.org/) -->
<svg
   xmlns:dc="http://purl.org/dc/elements/1.1/"
   xmlns:cc="http://creativecommons.org/ns#"
   xmlns:rdf="http://www.w3.org/1999/02/22-rdf-syntax-ns#"
   xmlns:svg="http://www.w3.org/2000/svg"
   xmlns="http://www.w3.org/2000/svg"
   xmlns:xlink="http://www.w3.org/1999/xlink"
   xmlns:sodipodi="http://sodipodi.sourceforge.net/DTD/sodipodi-0.dtd"
   xmlns:inkscape="http://www.inkscape.org/namespaces/inkscape"
   inkscape:export-ydpi="90.000000"
   inkscape:export-xdpi="90.000000"
   inkscape:export-filename="/home/jimmac/Desktop/wi-fi.png"
   width="48px"
   height="48px"
   id="svg11300"
   sodipodi:version="0.32"
   inkscape:version="0.45+devel"
   sodipodi:docbase="/home/andrew/Desktop/stuff/images"
   sodipodi:docname="plugin-workarounds.svg"
   inkscape:output_extension="org.inkscape.output.svg.inkscape">
  <defs
     id="defs3">
    <linearGradient
       id="linearGradient47870">
      <stop
         id="stop47872"
         offset="0"
         style="stop-color:#000000;stop-opacity:0" />
      <stop
         id="stop47878"
         offset="0.5"
         style="stop-color:#000000;stop-opacity:1" />
      <stop
         id="stop47874"
         offset="1"
         style="stop-color:#000000;stop-opacity:0" />
    </linearGradient>
    <linearGradient
       id="linearGradient51765">
      <stop
         id="stop51767"
         offset="0"
         style="stop-color:#000000;stop-opacity:1" />
      <stop
         id="stop51769"
         offset="1"
         style="stop-color:#000000;stop-opacity:0" />
    </linearGradient>
    <linearGradient
       id="linearGradient2781">
      <stop
         id="stop2783"
         offset="0"
         style="stop-color:#d3d7cf;stop-opacity:1" />
      <stop
         id="stop2785"
         offset="1"
         style="stop-color:#eeeeec;stop-opacity:1" />
    </linearGradient>
    <linearGradient
       id="linearGradient3674">
      <stop
         id="stop3676"
         offset="0"
         style="stop-color:#3465a4;stop-opacity:1" />
      <stop
         id="stop3678"
         offset="1"
         style="stop-color:#729fcf;stop-opacity:1;" />
    </linearGradient>
    <linearGradient
       id="linearGradient3690">
      <stop
         id="stop3692"
         offset="0"
         style="stop-color:white;stop-opacity:1;" />
      <stop
         id="stop3694"
         offset="1"
         style="stop-color:white;stop-opacity:0.46875" />
    </linearGradient>
    <linearGradient
       inkscape:collect="always"
       xlink:href="#linearGradient47870"
       id="linearGradient2282"
       gradientUnits="userSpaceOnUse"
       gradientTransform="matrix(0.9788196,0,0,0.7154223,-8.5008021,52.112719)"
       x1="32.084972"
       y1="-14.402173"
       x2="32.084972"
       y2="-5.5633383" />
    <radialGradient
       inkscape:collect="always"
       xlink:href="#linearGradient51765"
       id="radialGradient2284"
       gradientUnits="userSpaceOnUse"
       gradientTransform="matrix(1.9576392,-8.146468e-7,6.6614241e-7,1.4565793,-59.017557,62.738067)"
       cx="51.4375"
       cy="-12.203125"
       fx="51.4375"
       fy="-12.203125"
       r="2.171875" />
    <radialGradient
       inkscape:collect="always"
       xlink:href="#linearGradient51765"
       id="radialGradient2286"
       gradientUnits="userSpaceOnUse"
       gradientTransform="matrix(-1.9576392,-9.2540676e-8,-1.2888861e-7,1.4565793,110.01781,62.73803)"
       cx="51.4375"
       cy="-12.203125"
       fx="51.4375"
       fy="-12.203125"
       r="2.171875" />
    <linearGradient
       inkscape:collect="always"
       xlink:href="#linearGradient3690"
       id="linearGradient2289"
       gradientUnits="userSpaceOnUse"
       gradientTransform="matrix(1.2605424,0,0,1.2058553,-7.4733927,-4.9459439)"
       x1="9.5"
       y1="16.26436"
       x2="9.5"
       y2="13.408723" />
    <linearGradient
       inkscape:collect="always"
       xlink:href="#linearGradient3674"
       id="linearGradient2292"
       gradientUnits="userSpaceOnUse"
       gradientTransform="matrix(1.2446306,0,0,1.2707947,-7.0741541,-5.3017616)"
       x1="23.069359"
       y1="6.7993021"
       x2="23.069359"
       y2="12.403291" />
    <linearGradient
       inkscape:collect="always"
       xlink:href="#linearGradient2781"
       id="linearGradient2295"
       gradientUnits="userSpaceOnUse"
       gradientTransform="matrix(1.2446306,0,0,1.1767765,-7.0741541,-3.982654)"
       x1="24.925514"
       y1="40.000107"
       x2="24.925514"
       y2="19.53867" />
  </defs>
  <sodipodi:namedview
     stroke="#ef2929"
     fill="#eeeeec"
     id="base"
     pagecolor="#ffffff"
     bordercolor="#666666"
     borderopacity="0.25490196"
     inkscape:pageopacity="0.0"
     inkscape:pageshadow="2"
     inkscape:zoom="1"
     inkscape:cx="36.449747"
     inkscape:cy="18.848969"
     inkscape:current-layer="layer1"
     showgrid="false"
     inkscape:grid-bbox="true"
     inkscape:document-units="px"
     inkscape:showpageshadow="false"
     inkscape:window-width="1233"
     inkscape:window-height="707"
     inkscape:window-x="33"
     inkscape:window-y="59"
     showguides="true"
     inkscape:guide-bbox="true">
    <inkscape:grid
       type="xygrid"
       id="grid7934" />
  </sodipodi:namedview>
  <metadata
     id="metadata4">
    <rdf:RDF>
      <cc:Work
         rdf:about="">
        <dc:format>image/svg+xml</dc:format>
        <dc:type
           rdf:resource="http://purl.org/dc/dcmitype/StillImage" />
        <dc:creator>
          <cc:Agent>
            <dc:title>Patrick Niklaus</dc:title>
          </cc:Agent>
        </dc:creator>
        <dc:source />
        <cc:license
           rdf:resource="http://creativecommons.org/licenses/GPL/2.0/" />
        <dc:title>State</dc:title>
        <dc:subject>
          <rdf:Bag />
        </dc:subject>
      </cc:Work>
      <cc:License
         rdf:about="http://creativecommons.org/licenses/GPL/2.0/">
        <cc:permits
           rdf:resource="http://web.resource.org/cc/Reproduction" />
        <cc:permits
           rdf:resource="http://web.resource.org/cc/Distribution" />
        <cc:requires
           rdf:resource="http://web.resource.org/cc/Notice" />
        <cc:permits
           rdf:resource="http://web.resource.org/cc/DerivativeWorks" />
        <cc:requires
           rdf:resource="http://web.resource.org/cc/ShareAlike" />
        <cc:requires
           rdf:resource="http://web.resource.org/cc/SourceCode" />
      </cc:License>
    </rdf:RDF>
  </metadata>
  <g
     id="layer1"
     inkscape:label="Layer 1"
     inkscape:groupmode="layer">
    <g
       transform="matrix(1.0842065,0,0,1.3618401,-3.702941,-19.378566)"
       id="g54724">
      <rect
         width="32.357079"
         height="6.3234997"
         x="9.3215466"
         y="41.809082"
         style="opacity:0.3;fill:url(#linearGradient2282);fill-opacity:1;fill-rule:evenodd;stroke:none;stroke-width:1.02400005;stroke-linecap:butt;stroke-linejoin:miter;stroke-miterlimit:4;stroke-dasharray:none;stroke-dashoffset:0;stroke-opacity:1"
         id="rect46899" />
      <path
         d="M 41.6785,41.799698 L 41.6785,48.126714 C 44.022298,48.102828 45.930248,46.705313 45.930248,44.974385 C 45.930248,43.243458 44.022299,41.823584 41.6785,41.799698 z "
         style="opacity:0.3;fill:url(#radialGradient2284);fill-opacity:1;fill-rule:evenodd;stroke:none;stroke-width:1.02400005;stroke-linecap:butt;stroke-linejoin:miter;stroke-miterlimit:4;stroke-dasharray:none;stroke-dashoffset:0;stroke-opacity:1"
         id="path48849" />
      <path
         d="M 9.3217476,41.799698 L 9.3217476,48.126714 C 6.9779494,48.102828 5.07,46.705313 5.07,44.974385 C 5.07,43.243458 6.9779484,41.823584 9.3217476,41.799698 z "
         style="opacity:0.3;fill:url(#radialGradient2286);fill-opacity:1;fill-rule:evenodd;stroke:none;stroke-width:1.02400005;stroke-linecap:butt;stroke-linejoin:miter;stroke-miterlimit:4;stroke-dasharray:none;stroke-dashoffset:0;stroke-opacity:1"
         id="path52742" />
    </g>
    <rect
       style="fill:url(#linearGradient2295);fill-opacity:1;stroke:#888a85;stroke-width:1.00000024;stroke-miterlimit:4;stroke-dasharray:none;stroke-opacity:1"
       id="rect1915"
       width="41.072853"
       height="35.891666"
       x="3.5052049"
       y="6.6083345"
       rx="1.9999999"
       ry="2" />
    <path
       style="fill:url(#linearGradient2292);fill-opacity:1;stroke:#204a87;stroke-width:1.00000048;stroke-miterlimit:4;stroke-opacity:1"
       d="M 3.505204,12.527912 L 3.505204,8.0415897 C 3.505204,6.6335492 4.6154143,5.5000002 5.994465,5.5000002 L 42.08875,5.5000002 C 43.4678,5.5000002 44.578011,6.6335492 44.578011,8.0415897 L 44.578011,12.527912"
       id="path1917"
       sodipodi:nodetypes="cccccc" />
    <rect
       style="opacity:0.8;fill:none;fill-opacity:1;stroke:url(#linearGradient2289);stroke-width:1.00000095;stroke-miterlimit:4;stroke-dasharray:none;stroke-opacity:1"
       id="rect1919"
       width="39.076817"
       height="34.969814"
       x="4.5017591"
       y="6.5096912"
       rx="1.5110159"
       ry="1.5110158" />
    <path
       style="font-size:28px;font-style:normal;font-weight:normal;fill:#e9b96e;fill-opacity:1;stroke:#c17d11;stroke-width:1;stroke-linecap:butt;stroke-linejoin:miter;stroke-miterlimit:4;stroke-dasharray:none;stroke-opacity:1;font-family:Sans"
       d="M 29.698433,11.277962 C 29.067284,11.221094 28.478701,11.617608 28.284996,12.230156 L 24.567231,22.818204 L 12.300059,25.796338 C 11.937139,25.851241 11.610755,26.0532 11.396178,26.355646 C 11.181601,26.658093 11.097356,27.034914 11.162868,27.399209 L 11.969105,32.014097 C 12.034992,32.373408 12.241154,32.689602 12.541193,32.891513 C 12.84123,33.093424 13.209932,33.164088 13.564305,33.087594 L 22.157221,31.345279 L 19.787815,38.736461 C 19.577319,39.438858 19.951607,40.179386 20.635444,40.41349 L 25.345999,41.923562 C 26.038491,42.130671 26.773559,41.745772 27.010666,41.051905 L 31.016536,29.985664 L 42.975176,27.549441 C 43.338099,27.494537 43.664481,27.292577 43.879058,26.990131 C 44.093635,26.687685 44.17788,26.310868 44.112369,25.946573 L 43.243324,21.311547 C 43.177437,20.952237 42.971273,20.636041 42.671236,20.43413 C 42.371198,20.232221 42.002499,20.161558 41.648123,20.238051 L 33.13844,21.936783 L 35.507847,14.5456 C 35.718343,13.843203 35.344056,13.102676 34.660217,12.868572 L 29.949662,11.3585 C 29.868799,11.323369 29.784651,11.296394 29.698433,11.277962 z"
       id="path2199"
       sodipodi:nodetypes="ccccsccsccccccccsccscccccc" />
    <g
       id="g4698"
       style="opacity:0.55719999"
       transform="matrix(1.6596178,0.5320271,-0.5320271,1.6596178,5.9232,-33.319035)">
      <rect
         transform="matrix(0.9520032,-0.3060879,0.128089,0.9917627,0,0)"
         ry="0.39059088"
         rx="0.34977305"
         y="33.150162"
         x="19.094793"
         height="0.56964093"
         width="0.912018"
         id="rect4650"
         style="opacity:0.98000004;fill:#c17d11;fill-opacity:1;stroke:#c17d11;stroke-width:0.15690327;stroke-linecap:round;stroke-linejoin:round;stroke-miterlimit:4;stroke-dasharray:none;stroke-opacity:1" />
      <rect
         transform="matrix(0.9520032,-0.3060879,0.128089,0.9917627,0,0)"
         ry="0.39059079"
         rx="0.34977305"
         y="34.355652"
         x="19.430689"
         height="0.56964093"
         width="0.912018"
         id="rect4652"
         style="opacity:0.98000004;fill:#c17d11;fill-opacity:1;stroke:#c17d11;stroke-width:0.15690327;stroke-linecap:round;stroke-linejoin:round;stroke-miterlimit:4;stroke-dasharray:none;stroke-opacity:1" />
      <rect
         transform="matrix(0.9520032,-0.3060879,0.128089,0.9917627,0,0)"
         ry="0.39059082"
         rx="0.34977305"
         y="35.592426"
         x="19.777773"
         height="0.56964093"
         width="0.912018"
         id="rect4654"
         style="opacity:0.98000004;fill:#c17d11;fill-opacity:1;stroke:#c17d11;stroke-width:0.15690327;stroke-linecap:round;stroke-linejoin:round;stroke-miterlimit:4;stroke-dasharray:none;stroke-opacity:1" />
      <rect
         transform="matrix(0.9520032,-0.3060879,0.128089,0.9917627,0,0)"
         ry="0.39059085"
         rx="0.34977305"
         y="32.878906"
         x="21.156551"
         height="0.56964093"
         width="0.912018"
         id="rect4656"
         style="opacity:0.98000004;fill:#c17d11;fill-opacity:1;stroke:#c17d11;stroke-width:0.15690327;stroke-linecap:round;stroke-linejoin:round;stroke-miterlimit:4;stroke-dasharray:none;stroke-opacity:1" />
      <rect
         transform="matrix(0.9520032,-0.3060879,0.128089,0.9917627,0,0)"
         ry="0.39059076"
         rx="0.34977305"
         y="34.084396"
         x="21.492449"
         height="0.56964093"
         width="0.912018"
         id="rect4658"
         style="opacity:0.98000004;fill:#c17d11;fill-opacity:1;stroke:#c17d11;stroke-width:0.15690327;stroke-linecap:round;stroke-linejoin:round;stroke-miterlimit:4;stroke-dasharray:none;stroke-opacity:1" />
      <rect
         transform="matrix(0.9520032,-0.3060879,0.128089,0.9917627,0,0)"
         ry="0.39059079"
         rx="0.34977305"
         y="35.321171"
         x="21.839533"
         height="0.56964093"
         width="0.912018"
         id="rect4660"
         style="opacity:0.98000004;fill:#c17d11;fill-opacity:1;stroke:#c17d11;stroke-width:0.15690327;stroke-linecap:round;stroke-linejoin:round;stroke-miterlimit:4;stroke-dasharray:none;stroke-opacity:1" />
      <rect
         transform="matrix(0.9520032,-0.3060879,0.128089,0.9917627,0,0)"
         ry="0.39059085"
         rx="0.34977305"
         y="32.342724"
         x="23.472776"
         height="0.56964093"
         width="0.912018"
         id="rect4662"
         style="opacity:0.98000004;fill:#c17d11;fill-opacity:1;stroke:#c17d11;stroke-width:0.15690327;stroke-linecap:round;stroke-linejoin:round;stroke-miterlimit:4;stroke-dasharray:none;stroke-opacity:1" />
      <rect
         transform="matrix(0.9520032,-0.3060879,0.128089,0.9917627,0,0)"
         ry="0.39059076"
         rx="0.34977305"
         y="33.548214"
         x="23.808672"
         height="0.56964093"
         width="0.912018"
         id="rect4664"
         style="opacity:0.98000004;fill:#c17d11;fill-opacity:1;stroke:#c17d11;stroke-width:0.15690327;stroke-linecap:round;stroke-linejoin:round;stroke-miterlimit:4;stroke-dasharray:none;stroke-opacity:1" />
      <rect
         transform="matrix(0.9520032,-0.3060879,0.128089,0.9917627,0,0)"
         ry="0.39059079"
         rx="0.34977305"
         y="34.784988"
         x="24.155756"
         height="0.56964093"
         width="0.912018"
         id="rect4666"
         style="opacity:0.98000004;fill:#c17d11;fill-opacity:1;stroke:#c17d11;stroke-width:0.15690327;stroke-linecap:round;stroke-linejoin:round;stroke-miterlimit:4;stroke-dasharray:none;stroke-opacity:1" />
      <rect
         transform="matrix(0.9520032,-0.3060879,0.128089,0.9917627,0,0)"
         ry="0.39059085"
         rx="0.34977305"
         y="32.013344"
         x="25.577242"
         height="0.56964093"
         width="0.912018"
         id="rect4668"
         style="opacity:0.98000004;fill:#c17d11;fill-opacity:1;stroke:#c17d11;stroke-width:0.15690327;stroke-linecap:round;stroke-linejoin:round;stroke-miterlimit:4;stroke-dasharray:none;stroke-opacity:1" />
      <rect
         transform="matrix(0.9520032,-0.3060879,0.128089,0.9917627,0,0)"
         ry="0.39059076"
         rx="0.34977305"
         y="33.218834"
         x="25.913137"
         height="0.56964093"
         width="0.912018"
         id="rect4670"
         style="opacity:0.98000004;fill:#c17d11;fill-opacity:1;stroke:#c17d11;stroke-width:0.15690327;stroke-linecap:round;stroke-linejoin:round;stroke-miterlimit:4;stroke-dasharray:none;stroke-opacity:1" />
      <rect
         transform="matrix(0.9520032,-0.3060879,0.128089,0.9917627,0,0)"
         ry="0.39059079"
         rx="0.34977305"
         y="34.455608"
         x="26.26022"
         height="0.56964093"
         width="0.912018"
         id="rect4672"
         style="opacity:0.98000004;fill:#c17d11;fill-opacity:1;stroke:#c17d11;stroke-width:0.15690327;stroke-linecap:round;stroke-linejoin:round;stroke-miterlimit:4;stroke-dasharray:none;stroke-opacity:1" />
      <rect
         transform="matrix(0.9381049,-0.3463512,0.1702069,0.9854083,0,0)"
         ry="0.39059091"
         rx="0.34977293"
         y="35.187603"
         x="8.7690754"
         height="0.56964093"
         width="0.91201776"
         id="rect4674"
         style="opacity:0.98000004;fill:#c17d11;fill-opacity:1;stroke:#c17d11;stroke-width:0.15690327;stroke-linecap:round;stroke-linejoin:round;stroke-miterlimit:4;stroke-dasharray:none;stroke-opacity:1" />
      <rect
         transform="matrix(0.9381049,-0.3463512,0.1702069,0.9854083,0,0)"
         ry="0.39059082"
         rx="0.34977293"
         y="36.393093"
         x="9.10497"
         height="0.56964093"
         width="0.91201776"
         id="rect4676"
         style="opacity:0.98000004;fill:#c17d11;fill-opacity:1;stroke:#c17d11;stroke-width:0.15690327;stroke-linecap:round;stroke-linejoin:round;stroke-miterlimit:4;stroke-dasharray:none;stroke-opacity:1" />
      <rect
         transform="matrix(0.9381049,-0.3463512,0.1702069,0.9854083,0,0)"
         ry="0.39059085"
         rx="0.34977293"
         y="37.629868"
         x="9.4520531"
         height="0.56964093"
         width="0.91201776"
         id="rect4678"
         style="opacity:0.98000004;fill:#c17d11;fill-opacity:1;stroke:#c17d11;stroke-width:0.15690327;stroke-linecap:round;stroke-linejoin:round;stroke-miterlimit:4;stroke-dasharray:none;stroke-opacity:1" />
      <rect
         transform="matrix(0.9381049,-0.3463512,0.1702069,0.9854083,0,0)"
         ry="0.39059088"
         rx="0.34977293"
         y="34.916348"
         x="10.830831"
         height="0.56964093"
         width="0.91201776"
         id="rect4680"
         style="opacity:0.98000004;fill:#c17d11;fill-opacity:1;stroke:#c17d11;stroke-width:0.15690327;stroke-linecap:round;stroke-linejoin:round;stroke-miterlimit:4;stroke-dasharray:none;stroke-opacity:1" />
      <rect
         transform="matrix(0.9381049,-0.3463512,0.1702069,0.9854083,0,0)"
         ry="0.39059079"
         rx="0.34977293"
         y="36.121838"
         x="11.166728"
         height="0.56964093"
         width="0.91201776"
         id="rect4682"
         style="opacity:0.98000004;fill:#c17d11;fill-opacity:1;stroke:#c17d11;stroke-width:0.15690327;stroke-linecap:round;stroke-linejoin:round;stroke-miterlimit:4;stroke-dasharray:none;stroke-opacity:1" />
      <rect
         transform="matrix(0.9381049,-0.3463512,0.1702069,0.9854083,0,0)"
         ry="0.39059082"
         rx="0.34977293"
         y="37.358612"
         x="11.513812"
         height="0.56964093"
         width="0.91201776"
         id="rect4684"
         style="opacity:0.98000004;fill:#c17d11;fill-opacity:1;stroke:#c17d11;stroke-width:0.15690327;stroke-linecap:round;stroke-linejoin:round;stroke-miterlimit:4;stroke-dasharray:none;stroke-opacity:1" />
      <rect
         transform="matrix(0.9381049,-0.3463512,0.1702069,0.9854083,0,0)"
         ry="0.39059088"
         rx="0.34977293"
         y="34.380165"
         x="13.147056"
         height="0.56964093"
         width="0.91201776"
         id="rect4686"
         style="opacity:0.98000004;fill:#c17d11;fill-opacity:1;stroke:#c17d11;stroke-width:0.15690327;stroke-linecap:round;stroke-linejoin:round;stroke-miterlimit:4;stroke-dasharray:none;stroke-opacity:1" />
      <rect
         transform="matrix(0.9381049,-0.3463512,0.1702069,0.9854083,0,0)"
         ry="0.39059079"
         rx="0.34977293"
         y="35.585655"
         x="13.482951"
         height="0.56964093"
         width="0.91201776"
         id="rect4688"
         style="opacity:0.98000004;fill:#c17d11;fill-opacity:1;stroke:#c17d11;stroke-width:0.15690327;stroke-linecap:round;stroke-linejoin:round;stroke-miterlimit:4;stroke-dasharray:none;stroke-opacity:1" />
      <rect
         transform="matrix(0.9381049,-0.3463512,0.1702069,0.9854083,0,0)"
         ry="0.39059082"
         rx="0.34977293"
         y="36.82243"
         x="13.830036"
         height="0.56964093"
         width="0.91201776"
         id="rect4690"
         style="opacity:0.98000004;fill:#c17d11;fill-opacity:1;stroke:#c17d11;stroke-width:0.15690327;stroke-linecap:round;stroke-linejoin:round;stroke-miterlimit:4;stroke-dasharray:none;stroke-opacity:1" />
      <rect
         transform="matrix(0.9381049,-0.3463512,0.1702069,0.9854083,0,0)"
         ry="0.39059088"
         rx="0.34977293"
         y="34.050785"
         x="15.251522"
         height="0.56964093"
         width="0.91201776"
         id="rect4692"
         style="opacity:0.98000004;fill:#c17d11;fill-opacity:1;stroke:#c17d11;stroke-width:0.15690327;stroke-linecap:round;stroke-linejoin:round;stroke-miterlimit:4;stroke-dasharray:none;stroke-opacity:1" />
      <rect
         transform="matrix(0.9381049,-0.3463512,0.1702069,0.9854083,0,0)"
         ry="0.39059079"
         rx="0.34977293"
         y="35.256275"
         x="15.587418"
         height="0.56964093"
         width="0.91201776"
         id="rect4694"
         style="opacity:0.98000004;fill:#c17d11;fill-opacity:1;stroke:#c17d11;stroke-width:0.15690327;stroke-linecap:round;stroke-linejoin:round;stroke-miterlimit:4;stroke-dasharray:none;stroke-opacity:1" />
      <rect
         transform="matrix(0.9381049,-0.3463512,0.1702069,0.9854083,0,0)"
         ry="0.39059082"
         rx="0.34977293"
         y="36.49305"
         x="15.9345"
         height="0.56964093"
         width="0.91201776"
         id="rect4696"
         style="opacity:0.98000004;fill:#c17d11;fill-opacity:1;stroke:#c17d11;stroke-width:0.15690327;stroke-linecap:round;stroke-linejoin:round;stroke-miterlimit:4;stroke-dasharray:none;stroke-opacity:1" />
    </g>
    <g
       id="g4724"
       style="opacity:0.55719999"
       transform="matrix(1.189352,-1.2739018,1.2739018,1.189352,-36.14012,20.452601)">
      <rect
         transform="matrix(0.9520032,-0.3060879,0.128089,0.9917627,0,0)"
         ry="0.39059088"
         rx="0.34977305"
         y="33.150162"
         x="19.094793"
         height="0.56964093"
         width="0.912018"
         id="rect4726"
         style="opacity:0.98000004;fill:#c17d11;fill-opacity:1;stroke:#c17d11;stroke-width:0.15690327;stroke-linecap:round;stroke-linejoin:round;stroke-miterlimit:4;stroke-dasharray:none;stroke-opacity:1" />
      <rect
         transform="matrix(0.9520032,-0.3060879,0.128089,0.9917627,0,0)"
         ry="0.39059079"
         rx="0.34977305"
         y="34.355652"
         x="19.430689"
         height="0.56964093"
         width="0.912018"
         id="rect4728"
         style="opacity:0.98000004;fill:#c17d11;fill-opacity:1;stroke:#c17d11;stroke-width:0.15690327;stroke-linecap:round;stroke-linejoin:round;stroke-miterlimit:4;stroke-dasharray:none;stroke-opacity:1" />
      <rect
         transform="matrix(0.9520032,-0.3060879,0.128089,0.9917627,0,0)"
         ry="0.39059082"
         rx="0.34977305"
         y="35.592426"
         x="19.777773"
         height="0.56964093"
         width="0.912018"
         id="rect4730"
         style="opacity:0.98000004;fill:#c17d11;fill-opacity:1;stroke:#c17d11;stroke-width:0.15690327;stroke-linecap:round;stroke-linejoin:round;stroke-miterlimit:4;stroke-dasharray:none;stroke-opacity:1" />
      <rect
         transform="matrix(0.9520032,-0.3060879,0.128089,0.9917627,0,0)"
         ry="0.39059085"
         rx="0.34977305"
         y="32.878906"
         x="21.156551"
         height="0.56964093"
         width="0.912018"
         id="rect4732"
         style="opacity:0.98000004;fill:#c17d11;fill-opacity:1;stroke:#c17d11;stroke-width:0.15690327;stroke-linecap:round;stroke-linejoin:round;stroke-miterlimit:4;stroke-dasharray:none;stroke-opacity:1" />
      <rect
         transform="matrix(0.9520032,-0.3060879,0.128089,0.9917627,0,0)"
         ry="0.39059076"
         rx="0.34977305"
         y="34.084396"
         x="21.492449"
         height="0.56964093"
         width="0.912018"
         id="rect4734"
         style="opacity:0.98000004;fill:#c17d11;fill-opacity:1;stroke:#c17d11;stroke-width:0.15690327;stroke-linecap:round;stroke-linejoin:round;stroke-miterlimit:4;stroke-dasharray:none;stroke-opacity:1" />
      <rect
         transform="matrix(0.9520032,-0.3060879,0.128089,0.9917627,0,0)"
         ry="0.39059079"
         rx="0.34977305"
         y="35.321171"
         x="21.839533"
         height="0.56964093"
         width="0.912018"
         id="rect4736"
         style="opacity:0.98000004;fill:#c17d11;fill-opacity:1;stroke:#c17d11;stroke-width:0.15690327;stroke-linecap:round;stroke-linejoin:round;stroke-miterlimit:4;stroke-dasharray:none;stroke-opacity:1" />
      <rect
         transform="matrix(0.9520032,-0.3060879,0.128089,0.9917627,0,0)"
         ry="0.39059085"
         rx="0.34977305"
         y="32.342724"
         x="23.472776"
         height="0.56964093"
         width="0.912018"
         id="rect4738"
         style="opacity:0.98000004;fill:#c17d11;fill-opacity:1;stroke:#c17d11;stroke-width:0.15690327;stroke-linecap:round;stroke-linejoin:round;stroke-miterlimit:4;stroke-dasharray:none;stroke-opacity:1" />
      <rect
         transform="matrix(0.9520032,-0.3060879,0.128089,0.9917627,0,0)"
         ry="0.39059076"
         rx="0.34977305"
         y="33.548214"
         x="23.808672"
         height="0.56964093"
         width="0.912018"
         id="rect4740"
         style="opacity:0.98000004;fill:#c17d11;fill-opacity:1;stroke:#c17d11;stroke-width:0.15690327;stroke-linecap:round;stroke-linejoin:round;stroke-miterlimit:4;stroke-dasharray:none;stroke-opacity:1" />
      <rect
         transform="matrix(0.9520032,-0.3060879,0.128089,0.9917627,0,0)"
         ry="0.39059079"
         rx="0.34977305"
         y="34.784988"
         x="24.155756"
         height="0.56964093"
         width="0.912018"
         id="rect4742"
         style="opacity:0.98000004;fill:#c17d11;fill-opacity:1;stroke:#c17d11;stroke-width:0.15690327;stroke-linecap:round;stroke-linejoin:round;stroke-miterlimit:4;stroke-dasharray:none;stroke-opacity:1" />
      <rect
         transform="matrix(0.9520032,-0.3060879,0.128089,0.9917627,0,0)"
         ry="0.39059085"
         rx="0.34977305"
         y="32.013344"
         x="25.577242"
         height="0.56964093"
         width="0.912018"
         id="rect4744"
         style="opacity:0.98000004;fill:#c17d11;fill-opacity:1;stroke:#c17d11;stroke-width:0.15690327;stroke-linecap:round;stroke-linejoin:round;stroke-miterlimit:4;stroke-dasharray:none;stroke-opacity:1" />
      <rect
         transform="matrix(0.9520032,-0.3060879,0.128089,0.9917627,0,0)"
         ry="0.39059076"
         rx="0.34977305"
         y="33.218834"
         x="25.913137"
         height="0.56964093"
         width="0.912018"
         id="rect4746"
         style="opacity:0.98000004;fill:#c17d11;fill-opacity:1;stroke:#c17d11;stroke-width:0.15690327;stroke-linecap:round;stroke-linejoin:round;stroke-miterlimit:4;stroke-dasharray:none;stroke-opacity:1" />
      <rect
         transform="matrix(0.9520032,-0.3060879,0.128089,0.9917627,0,0)"
         ry="0.39059079"
         rx="0.34977305"
         y="34.455608"
         x="26.26022"
         height="0.56964093"
         width="0.912018"
         id="rect4748"
         style="opacity:0.98000004;fill:#c17d11;fill-opacity:1;stroke:#c17d11;stroke-width:0.15690327;stroke-linecap:round;stroke-linejoin:round;stroke-miterlimit:4;stroke-dasharray:none;stroke-opacity:1" />
      <rect
         transform="matrix(0.9381049,-0.3463512,0.1702069,0.9854083,0,0)"
         ry="0.39059091"
         rx="0.34977293"
         y="35.187603"
         x="8.7690754"
         height="0.56964093"
         width="0.91201776"
         id="rect4750"
         style="opacity:0.98000004;fill:#c17d11;fill-opacity:1;stroke:#c17d11;stroke-width:0.15690327;stroke-linecap:round;stroke-linejoin:round;stroke-miterlimit:4;stroke-dasharray:none;stroke-opacity:1" />
      <rect
         transform="matrix(0.9381049,-0.3463512,0.1702069,0.9854083,0,0)"
         ry="0.39059082"
         rx="0.34977293"
         y="36.393093"
         x="9.10497"
         height="0.56964093"
         width="0.91201776"
         id="rect4752"
         style="opacity:0.98000004;fill:#c17d11;fill-opacity:1;stroke:#c17d11;stroke-width:0.15690327;stroke-linecap:round;stroke-linejoin:round;stroke-miterlimit:4;stroke-dasharray:none;stroke-opacity:1" />
      <rect
         transform="matrix(0.9381049,-0.3463512,0.1702069,0.9854083,0,0)"
         ry="0.39059085"
         rx="0.34977293"
         y="37.629868"
         x="9.4520531"
         height="0.56964093"
         width="0.91201776"
         id="rect4754"
         style="opacity:0.98000004;fill:#c17d11;fill-opacity:1;stroke:#c17d11;stroke-width:0.15690327;stroke-linecap:round;stroke-linejoin:round;stroke-miterlimit:4;stroke-dasharray:none;stroke-opacity:1" />
      <rect
         transform="matrix(0.9381049,-0.3463512,0.1702069,0.9854083,0,0)"
         ry="0.39059088"
         rx="0.34977293"
         y="34.916348"
         x="10.830831"
         height="0.56964093"
         width="0.91201776"
         id="rect4756"
         style="opacity:0.98000004;fill:#c17d11;fill-opacity:1;stroke:#c17d11;stroke-width:0.15690327;stroke-linecap:round;stroke-linejoin:round;stroke-miterlimit:4;stroke-dasharray:none;stroke-opacity:1" />
      <rect
         transform="matrix(0.9381049,-0.3463512,0.1702069,0.9854083,0,0)"
         ry="0.39059079"
         rx="0.34977293"
         y="36.121838"
         x="11.166728"
         height="0.56964093"
         width="0.91201776"
         id="rect4758"
         style="opacity:0.98000004;fill:#c17d11;fill-opacity:1;stroke:#c17d11;stroke-width:0.15690327;stroke-linecap:round;stroke-linejoin:round;stroke-miterlimit:4;stroke-dasharray:none;stroke-opacity:1" />
      <rect
         transform="matrix(0.9381049,-0.3463512,0.1702069,0.9854083,0,0)"
         ry="0.39059082"
         rx="0.34977293"
         y="37.358612"
         x="11.513812"
         height="0.56964093"
         width="0.91201776"
         id="rect4760"
         style="opacity:0.98000004;fill:#c17d11;fill-opacity:1;stroke:#c17d11;stroke-width:0.15690327;stroke-linecap:round;stroke-linejoin:round;stroke-miterlimit:4;stroke-dasharray:none;stroke-opacity:1" />
      <rect
         transform="matrix(0.9381049,-0.3463512,0.1702069,0.9854083,0,0)"
         ry="0.39059088"
         rx="0.34977293"
         y="34.380165"
         x="13.147056"
         height="0.56964093"
         width="0.91201776"
         id="rect4762"
         style="opacity:0.98000004;fill:#c17d11;fill-opacity:1;stroke:#c17d11;stroke-width:0.15690327;stroke-linecap:round;stroke-linejoin:round;stroke-miterlimit:4;stroke-dasharray:none;stroke-opacity:1" />
      <rect
         transform="matrix(0.9381049,-0.3463512,0.1702069,0.9854083,0,0)"
         ry="0.39059079"
         rx="0.34977293"
         y="35.585655"
         x="13.482951"
         height="0.56964093"
         width="0.91201776"
         id="rect4764"
         style="opacity:0.98000004;fill:#c17d11;fill-opacity:1;stroke:#c17d11;stroke-width:0.15690327;stroke-linecap:round;stroke-linejoin:round;stroke-miterlimit:4;stroke-dasharray:none;stroke-opacity:1" />
      <rect
         transform="matrix(0.9381049,-0.3463512,0.1702069,0.9854083,0,0)"
         ry="0.39059082"
         rx="0.34977293"
         y="36.82243"
         x="13.830036"
         height="0.56964093"
         width="0.91201776"
         id="rect4766"
         style="opacity:0.98000004;fill:#c17d11;fill-opacity:1;stroke:#c17d11;stroke-width:0.15690327;stroke-linecap:round;stroke-linejoin:round;stroke-miterlimit:4;stroke-dasharray:none;stroke-opacity:1" />
      <rect
         transform="matrix(0.9381049,-0.3463512,0.1702069,0.9854083,0,0)"
         ry="0.39059088"
         rx="0.34977293"
         y="34.050785"
         x="15.251522"
         height="0.56964093"
         width="0.91201776"
         id="rect4768"
         style="opacity:0.98000004;fill:#c17d11;fill-opacity:1;stroke:#c17d11;stroke-width:0.15690327;stroke-linecap:round;stroke-linejoin:round;stroke-miterlimit:4;stroke-dasharray:none;stroke-opacity:1" />
      <rect
         transform="matrix(0.9381049,-0.3463512,0.1702069,0.9854083,0,0)"
         ry="0.39059079"
         rx="0.34977293"
         y="35.256275"
         x="15.587418"
         height="0.56964093"
         width="0.91201776"
         id="rect4770"
         style="opacity:0.98000004;fill:#c17d11;fill-opacity:1;stroke:#c17d11;stroke-width:0.15690327;stroke-linecap:round;stroke-linejoin:round;stroke-miterlimit:4;stroke-dasharray:none;stroke-opacity:1" />
      <rect
         transform="matrix(0.9381049,-0.3463512,0.1702069,0.9854083,0,0)"
         ry="0.39059082"
         rx="0.34977293"
         y="36.49305"
         x="15.9345"
         height="0.56964093"
         width="0.91201776"
         id="rect4772"
         style="opacity:0.98000004;fill:#c17d11;fill-opacity:1;stroke:#c17d11;stroke-width:0.15690327;stroke-linecap:round;stroke-linejoin:round;stroke-miterlimit:4;stroke-dasharray:none;stroke-opacity:1" />
    </g>
    <path
       sodipodi:type="inkscape:offset"
       inkscape:radius="-1.0045097"
       inkscape:original="M 29.6875 11.28125 C 29.056351 11.224382 28.474955 11.606202 28.28125 12.21875 L 24.5625 22.8125 L 12.3125 25.78125 C 11.94958 25.836154 11.620827 26.041304 11.40625 26.34375 C 11.191673 26.646197 11.090738 27.041955 11.15625 27.40625 L 11.96875 32 C 12.034637 32.359313 12.231211 32.704339 12.53125 32.90625 C 12.831287 33.10816 13.208127 33.170244 13.5625 33.09375 L 22.15625 31.34375 L 19.78125 38.75 C 19.570754 39.452396 19.941163 40.172146 20.625 40.40625 L 25.34375 41.9375 C 26.036242 42.14461 26.762893 41.756367 27 41.0625 L 31.03125 30 L 42.96875 27.5625 C 43.331671 27.507597 43.660423 27.302446 43.875 27 C 44.089576 26.697554 44.190511 26.301795 44.125 25.9375 L 43.25 21.3125 C 43.184113 20.953191 42.956287 20.639411 42.65625 20.4375 C 42.356214 20.235591 42.010626 20.173507 41.65625 20.25 L 33.125 21.9375 L 35.5 14.53125 C 35.710496 13.828853 35.340089 13.109104 34.65625 12.875 L 29.9375 11.34375 C 29.856638 11.308619 29.773718 11.299682 29.6875 11.28125 z "
       style="font-size:28px;font-style:normal;font-weight:normal;fill:none;fill-opacity:1;stroke:#eeeeec;stroke-width:1;stroke-linecap:butt;stroke-linejoin:miter;stroke-miterlimit:4;stroke-dasharray:none;stroke-opacity:0.55948555;font-family:Sans"
       id="path8763"
       d="M 29.59375,12.28125 C 29.417755,12.265392 29.305664,12.355226 29.25,12.53125 C 29.239814,12.541895 29.229395,12.552314 29.21875,12.5625 L 25.5,23.15625 C 25.386729,23.464408 25.130027,23.697774 24.8125,23.78125 L 12.5625,26.75 C 12.531782,26.761948 12.500494,26.772378 12.46875,26.78125 C 12.383036,26.794217 12.277193,26.855124 12.21875,26.9375 C 12.157441,27.023915 12.14498,27.156081 12.15625,27.21875 L 12.96875,31.8125 C 12.991283,31.935385 13.064856,32.043056 13.09375,32.0625 C 13.1497,32.100152 13.242521,32.146851 13.34375,32.125 C 13.354166,32.124838 13.364584,32.124838 13.375,32.125 L 21.96875,30.375 C 22.315838,30.30587 22.673696,30.424468 22.9108,30.687205 C 23.147904,30.949942 23.229272,31.318054 23.125,31.65625 L 20.75,39.0625 C 20.686699,39.273727 20.745397,39.402986 20.9375,39.46875 L 25.65625,40.96875 C 25.833748,41.021836 25.991383,40.958117 26.0625,40.75 C 26.062338,40.739584 26.062338,40.729166 26.0625,40.71875 L 30.09375,29.65625 C 30.218908,29.332281 30.502522,29.095936 30.84375,29.03125 L 42.78125,26.59375 C 42.791436,26.583105 42.801855,26.572686 42.8125,26.5625 C 42.898211,26.549534 43.004055,26.488628 43.0625,26.40625 C 43.123807,26.319838 43.13627,26.18767 43.125,26.125 L 42.25,21.5 C 42.239495,21.442709 42.189272,21.345532 42.09375,21.28125 C 42.010997,21.225561 41.988143,21.194328 41.875,21.21875 C 41.864814,21.229395 41.854395,21.239814 41.84375,21.25 L 33.3125,22.9375 C 32.958087,23.012207 32.590898,22.890351 32.351472,22.61857 C 32.112045,22.346788 32.037455,21.967166 32.15625,21.625 L 34.53125,14.21875 C 34.594552,14.007519 34.535856,13.878265 34.34375,13.8125 L 29.625,12.3125 C 29.614355,12.302314 29.603936,12.291895 29.59375,12.28125 z" />
    <rect
       style="opacity:0.98000004;fill:#c17d11;fill-opacity:1;stroke:#c17d11;stroke-width:1.43359101;stroke-linecap:round;stroke-linejoin:round;stroke-miterlimit:4;stroke-dasharray:none;stroke-opacity:1"
       id="rect4648"
       width="8.8057156"
       height="4.925231"
       x="17.424376"
       y="29.002693"
       rx="3.3771288"
       ry="3.3771288"
       transform="matrix(0.9797296,-0.2003247,0.2003247,0.9797296,0,0)" />
  </g>
</svg>
