<?xml version="1.0" encoding="UTF-8" standalone="no"?>
<!-- Created with Inkscape (http://www.inkscape.org/) -->

<svg
   xmlns:dc="http://purl.org/dc/elements/1.1/"
   xmlns:cc="http://creativecommons.org/ns#"
   xmlns:rdf="http://www.w3.org/1999/02/22-rdf-syntax-ns#"
   xmlns:svg="http://www.w3.org/2000/svg"
   xmlns="http://www.w3.org/2000/svg"
   xmlns:xlink="http://www.w3.org/1999/xlink"
   xmlns:sodipodi="http://sodipodi.sourceforge.net/DTD/sodipodi-0.dtd"
   xmlns:inkscape="http://www.inkscape.org/namespaces/inkscape"
   inkscape:export-ydpi="90.000000"
   inkscape:export-xdpi="90.000000"
   inkscape:export-filename="/home/jimmac/Desktop/wi-fi.png"
   width="48"
   height="48"
   id="svg11300"
   sodipodi:version="0.32"
   inkscape:version="0.47+devel r9425"
   sodipodi:docname="plugin-mblur.svg"
   inkscape:output_extension="org.inkscape.output.svg.inkscape"
   version="1.0">
  <defs
     id="defs3">
    <linearGradient
       id="linearGradient3340"
       inkscape:collect="always">
      <stop
         id="stop3342"
         offset="0"
         style="stop-color:#ffffff;stop-opacity:1;" />
      <stop
         id="stop3344"
         offset="1"
         style="stop-color:#ffffff;stop-opacity:0;" />
    </linearGradient>
    <linearGradient
       id="linearGradient2257">
      <stop
         id="stop2259"
         offset="0"
         style="stop-color:#ef2929" />
      <stop
         id="stop2261"
         offset="1"
         style="stop-color:#cc0000" />
    </linearGradient>
    <radialGradient
       inkscape:collect="always"
       xlink:href="#linearGradient2257"
       id="radialGradient3130"
       gradientUnits="userSpaceOnUse"
       gradientTransform="matrix(2.365562,0,0,2.202845,-30.72517,-34.23996)"
       cx="22.5"
       cy="28.116049"
       fx="22.5"
       fy="28.116049"
       r="14.537862" />
    <radialGradient
       inkscape:collect="always"
       xlink:href="#linearGradient3340"
       id="radialGradient3132"
       gradientUnits="userSpaceOnUse"
       gradientTransform="matrix(3.658819,0,0,2.080782,-60.29089,13.57443)"
       cx="21.929186"
       cy="-3.2182934"
       fx="21.929186"
       fy="-3.2182934"
       r="13" />
    <radialGradient
       inkscape:collect="always"
       xlink:href="#linearGradient2257"
       id="radialGradient3142"
       gradientUnits="userSpaceOnUse"
       gradientTransform="matrix(2.365562,0,0,2.202845,-30.72517,-34.23996)"
       cx="22.5"
       cy="28.116049"
       fx="22.5"
       fy="28.116049"
       r="14.537862" />
    <radialGradient
       inkscape:collect="always"
       xlink:href="#linearGradient3340"
       id="radialGradient3144"
       gradientUnits="userSpaceOnUse"
       gradientTransform="matrix(3.658819,0,0,2.080782,-60.29089,13.57443)"
       cx="21.929186"
       cy="-3.2182934"
       fx="21.929186"
       fy="-3.2182934"
       r="13" />
    <radialGradient
       inkscape:collect="always"
       xlink:href="#linearGradient2257"
       id="radialGradient3158"
       gradientUnits="userSpaceOnUse"
       gradientTransform="matrix(2.365562,0,0,2.202845,-30.72517,-34.23996)"
       cx="22.5"
       cy="28.116049"
       fx="22.5"
       fy="28.116049"
       r="14.537862" />
    <radialGradient
       inkscape:collect="always"
       xlink:href="#linearGradient3340"
       id="radialGradient3160"
       gradientUnits="userSpaceOnUse"
       gradientTransform="matrix(3.658819,0,0,2.080782,-60.29089,13.57443)"
       cx="21.929186"
       cy="-3.2182934"
       fx="21.929186"
       fy="-3.2182934"
       r="13" />
    <radialGradient
       inkscape:collect="always"
       xlink:href="#linearGradient3340"
       id="radialGradient2984"
       gradientUnits="userSpaceOnUse"
       gradientTransform="matrix(3.8990559,0,0,2.2590253,-59.109112,-4.524187)"
       cx="21.929186"
       cy="-3.2182934"
       fx="21.929186"
       fy="-3.2182934"
       r="13" />
  </defs>
  <sodipodi:namedview
     stroke="#ef2929"
     fill="#eeeeec"
     id="base"
     pagecolor="#ffffff"
     bordercolor="#666666"
     borderopacity="0.25490196"
     inkscape:pageopacity="0.0"
     inkscape:pageshadow="2"
     inkscape:zoom="6.8500969"
     inkscape:cx="24"
     inkscape:cy="24"
     inkscape:current-layer="layer1"
     showgrid="false"
     inkscape:grid-bbox="true"
     inkscape:document-units="px"
     inkscape:showpageshadow="false"
     inkscape:window-width="1052"
     inkscape:window-height="662"
     inkscape:window-x="111"
     inkscape:window-y="55"
     inkscape:window-maximized="0"
     inkscape:snap-global="false">
    <inkscape:grid
       type="xygrid"
       id="grid7916"
       empspacing="5"
       visible="true"
       enabled="true"
       snapvisiblegridlinesonly="true" />
  </sodipodi:namedview>
  <metadata
     id="metadata4">
    <rdf:RDF>
      <cc:Work
         rdf:about="">
        <dc:format>image/svg+xml</dc:format>
        <dc:type
           rdf:resource="http://purl.org/dc/dcmitype/StillImage" />
        <dc:creator>
          <cc:Agent>
            <dc:title>Jakub Steiner</dc:title>
          </cc:Agent>
        </dc:creator>
        <dc:source>http://jimmac.musichall.cz</dc:source>
        <cc:license
           rdf:resource="http://creativecommons.org/licenses/by-sa/2.0/" />
        <dc:title>Windows</dc:title>
        <dc:subject>
          <rdf:Bag>
            <rdf:li>window</rdf:li>
            <rdf:li>manager</rdf:li>
            <rdf:li>decoration</rdf:li>
            <rdf:li>behavior</rdf:li>
          </rdf:Bag>
        </dc:subject>
      </cc:Work>
      <cc:License
         rdf:about="http://creativecommons.org/licenses/by-sa/2.0/">
        <cc:permits
           rdf:resource="http://web.resource.org/cc/Reproduction" />
        <cc:permits
           rdf:resource="http://web.resource.org/cc/Distribution" />
        <cc:requires
           rdf:resource="http://web.resource.org/cc/Notice" />
        <cc:requires
           rdf:resource="http://web.resource.org/cc/Attribution" />
        <cc:permits
           rdf:resource="http://web.resource.org/cc/DerivativeWorks" />
        <cc:requires
           rdf:resource="http://web.resource.org/cc/ShareAlike" />
      </cc:License>
    </rdf:RDF>
  </metadata>
  <g
     id="layer1"
     inkscape:label="Layer 1"
     inkscape:groupmode="layer"
     transform="translate(0,16)">
    <g
       id="g3150"
       transform="matrix(1.0695354,0,0,1.0856616,-12.707161,-19.261429)"
       style="opacity:0.18999999">
      <path
         transform="matrix(0.894862,0,0,0.9657,5.981291,3.472737)"
         d="m 36.5,22 c 0,7.179702 -6.268014,13 -14,13 -7.731986,0 -14,-5.820298 -14,-13 0,-7.179702 6.268014,-13 14,-13 7.731986,0 14,5.820298 14,13 z"
         sodipodi:ry="13"
         sodipodi:rx="14"
         sodipodi:cy="22"
         sodipodi:cx="22.5"
         id="path3152"
         style="fill:url(#radialGradient3158);fill-opacity:1;fill-rule:evenodd;stroke:#cc0000;stroke-width:1.43263113;stroke-linecap:square;stroke-linejoin:round;stroke-miterlimit:4;stroke-opacity:1;stroke-dasharray:none;stroke-dashoffset:0;marker:none;visibility:visible;display:inline;overflow:visible"
         sodipodi:type="arc" />
      <path
         transform="matrix(0.821429,0,0,0.821429,6.410632,5.003844)"
         d="m 38,24 c 0,7.731986 -6.268014,14 -14,14 -7.731986,0 -14,-6.268014 -14,-14 0,-7.731986 6.268014,-14 14,-14 7.731986,0 14,6.268014 14,14 z"
         sodipodi:ry="14"
         sodipodi:rx="14"
         sodipodi:cy="24"
         sodipodi:cx="24"
         id="path3154"
         style="fill:none;stroke:#f77d7d;stroke-width:1.62130094;stroke-linecap:square;stroke-linejoin:round;stroke-miterlimit:4;stroke-opacity:1;stroke-dasharray:none;stroke-dashoffset:0;marker:none;visibility:visible;display:inline;overflow:visible"
         sodipodi:type="arc" />
      <path
         sodipodi:nodetypes="cccsc"
         id="path3156"
         d="m 25.968665,12.718129 c -6.279532,0.0796 -11.404423,4.992059 -11.8125,11.1875 6.117823,2.51678 13.87042,-1.451223 23.142005,-3.381886 -0.68841,-2.748569 -4.55472,-7.805614 -11.173255,-7.805614 -0.05171,0 -0.104697,-6.53e-4 -0.15625,0 z"
         style="opacity:0.6;fill:url(#radialGradient3160);fill-opacity:1;fill-rule:evenodd;stroke:none;display:inline"
         inkscape:connector-curvature="0" />
    </g>
    <g
       id="g3134"
       transform="matrix(1.0695354,0,0,1.0856616,-6.6826671,-19.261429)"
       style="opacity:0.2">
      <path
         transform="matrix(0.894862,0,0,0.9657,5.981291,3.472737)"
         d="m 36.5,22 c 0,7.179702 -6.268014,13 -14,13 -7.731986,0 -14,-5.820298 -14,-13 0,-7.179702 6.268014,-13 14,-13 7.731986,0 14,5.820298 14,13 z"
         sodipodi:ry="13"
         sodipodi:rx="14"
         sodipodi:cy="22"
         sodipodi:cx="22.5"
         id="path3136"
         style="fill:url(#radialGradient3142);fill-opacity:1;fill-rule:evenodd;stroke:#cc0000;stroke-width:1.43263113;stroke-linecap:square;stroke-linejoin:round;stroke-miterlimit:4;stroke-opacity:1;stroke-dasharray:none;stroke-dashoffset:0;marker:none;visibility:visible;display:inline;overflow:visible"
         sodipodi:type="arc" />
      <path
         transform="matrix(0.821429,0,0,0.821429,6.410632,5.003844)"
         d="m 38,24 c 0,7.731986 -6.268014,14 -14,14 -7.731986,0 -14,-6.268014 -14,-14 0,-7.731986 6.268014,-14 14,-14 7.731986,0 14,6.268014 14,14 z"
         sodipodi:ry="14"
         sodipodi:rx="14"
         sodipodi:cy="24"
         sodipodi:cx="24"
         id="path3138"
         style="fill:none;stroke:#f77d7d;stroke-width:1.62130094;stroke-linecap:square;stroke-linejoin:round;stroke-miterlimit:4;stroke-opacity:1;stroke-dasharray:none;stroke-dashoffset:0;marker:none;visibility:visible;display:inline;overflow:visible"
         sodipodi:type="arc" />
      <path
         sodipodi:nodetypes="cccsc"
         id="path3140"
         d="m 25.968665,12.718129 c -6.279532,0.0796 -11.404423,4.992059 -11.8125,11.1875 6.117823,2.51678 13.87042,-1.451223 23.142005,-3.381886 -0.68841,-2.748569 -4.55472,-7.805614 -11.173255,-7.805614 -0.05171,0 -0.104697,-6.53e-4 -0.15625,0 z"
         style="opacity:0.6;fill:url(#radialGradient3144);fill-opacity:1;fill-rule:evenodd;stroke:none;display:inline"
         inkscape:connector-curvature="0" />
    </g>
    <g
       id="g3122"
       transform="matrix(1.0695354,0,0,1.0856616,-1.8413065,-19.261429)"
       style="opacity:0.51000001">
      <path
         transform="matrix(0.894862,0,0,0.9657,5.981291,3.472737)"
         d="m 36.5,22 c 0,7.179702 -6.268014,13 -14,13 -7.731986,0 -14,-5.820298 -14,-13 0,-7.179702 6.268014,-13 14,-13 7.731986,0 14,5.820298 14,13 z"
         sodipodi:ry="13"
         sodipodi:rx="14"
         sodipodi:cy="22"
         sodipodi:cx="22.5"
         id="path3124"
         style="fill:url(#radialGradient3130);fill-opacity:1;fill-rule:evenodd;stroke:#cc0000;stroke-width:1.43263113;stroke-linecap:square;stroke-linejoin:round;stroke-miterlimit:4;stroke-opacity:1;stroke-dasharray:none;stroke-dashoffset:0;marker:none;visibility:visible;display:inline;overflow:visible"
         sodipodi:type="arc" />
      <path
         transform="matrix(0.821429,0,0,0.821429,6.410632,5.003844)"
         d="m 38,24 c 0,7.731986 -6.268014,14 -14,14 -7.731986,0 -14,-6.268014 -14,-14 0,-7.731986 6.268014,-14 14,-14 7.731986,0 14,6.268014 14,14 z"
         sodipodi:ry="14"
         sodipodi:rx="14"
         sodipodi:cy="24"
         sodipodi:cx="24"
         id="path3126"
         style="fill:none;stroke:#f77d7d;stroke-width:1.62130094;stroke-linecap:square;stroke-linejoin:round;stroke-miterlimit:4;stroke-opacity:1;stroke-dasharray:none;stroke-dashoffset:0;marker:none;visibility:visible;display:inline;overflow:visible"
         sodipodi:type="arc" />
      <path
         sodipodi:nodetypes="cccsc"
         id="path3128"
         d="m 25.968665,12.718129 c -6.279532,0.0796 -11.404423,4.992059 -11.8125,11.1875 6.117823,2.51678 13.87042,-1.451223 23.142005,-3.381886 -0.68841,-2.748569 -4.55472,-7.805614 -11.173255,-7.805614 -0.05171,0 -0.104697,-6.53e-4 -0.15625,0 z"
         style="opacity:0.6;fill:url(#radialGradient3132);fill-opacity:1;fill-rule:evenodd;stroke:none;display:inline"
         inkscape:connector-curvature="0" />
    </g>
    <path
       sodipodi:type="arc"
       style="fill:#ef2929;fill-opacity:1;fill-rule:evenodd;stroke:#cc0000;stroke-width:1.43263042;stroke-linecap:square;stroke-linejoin:round;stroke-miterlimit:4;stroke-opacity:1;stroke-dasharray:none;stroke-dashoffset:0;marker:none;visibility:visible;display:inline;overflow:visible"
       id="path2525"
       sodipodi:cx="22.5"
       sodipodi:cy="22"
       sodipodi:rx="14"
       sodipodi:ry="13"
       d="m 36.5,22 a 14,13 0 1 1 -28,0 14,13 0 1 1 28,0 z"
       transform="matrix(0.9570866,0,0,1.0484234,11.393099,-15.491208)" />
    <path
       sodipodi:type="arc"
       style="fill:none;stroke:#f77d7d;stroke-width:1.65432358;stroke-linecap:square;stroke-linejoin:round;stroke-miterlimit:4;stroke-opacity:1;stroke-dasharray:none;stroke-dashoffset:0;marker:none;visibility:visible;display:inline;overflow:visible"
       id="path2527"
       sodipodi:cx="24"
       sodipodi:cy="24"
       sodipodi:rx="14"
       sodipodi:ry="14"
       d="m 38,24 a 14,14 0 1 1 -28,0 14,14 0 1 1 28,0 z"
       transform="matrix(0.85612425,0,0,0.87898058,12.345607,-13.566273)" />
    <path
       inkscape:connector-curvature="0"
       style="opacity:0.6;fill:url(#radialGradient2984);fill-opacity:1;fill-rule:evenodd;stroke:none;display:inline"
       d="M 32.81422,-5.453842 C 26.122366,-5.3674807 20.660987,-0.03415185 20.226115,6.692 26.745632,9.4243722 35.007258,5.1164602 44.887611,3.0204152 44.154,0.03640432 40.033826,-5.453842 32.980724,-5.453842 c -0.05509,0 -0.111621,-7.578e-4 -0.166504,0 z"
       id="path2529"
       sodipodi:nodetypes="cccsc" />
  </g>
</svg>
