<?xml version="1.0" encoding="UTF-8" standalone="no"?>
<!-- Created with Inkscape (http://www.inkscape.org/) -->

<svg
   xmlns:dc="http://purl.org/dc/elements/1.1/"
   xmlns:cc="http://creativecommons.org/ns#"
   xmlns:rdf="http://www.w3.org/1999/02/22-rdf-syntax-ns#"
   xmlns:svg="http://www.w3.org/2000/svg"
   xmlns="http://www.w3.org/2000/svg"
   xmlns:xlink="http://www.w3.org/1999/xlink"
   xmlns:sodipodi="http://sodipodi.sourceforge.net/DTD/sodipodi-0.dtd"
   xmlns:inkscape="http://www.inkscape.org/namespaces/inkscape"
   width="32"
   height="32"
   id="svg2"
   sodipodi:version="0.32"
   inkscape:version="0.47 r22583"
   version="1.0"
   sodipodi:docname="plugin-fireflies.svg"
   inkscape:output_extension="org.inkscape.output.svg.inkscape"
   sodipodi:modified="true">
  <defs
     id="defs4">
    <inkscape:perspective
       sodipodi:type="inkscape:persp3d"
       inkscape:vp_x="0 : 128 : 1"
       inkscape:vp_y="0 : 1000 : 0"
       inkscape:vp_z="256 : 128 : 1"
       inkscape:persp3d-origin="128 : 85.333333 : 1"
       id="perspective3197" />
    <linearGradient
       id="linearGradient3602">
      <stop
         style="stop-color:#5353eb;stop-opacity:1;"
         offset="0"
         id="stop3604" />
      <stop
         id="stop3627"
         offset="0.46835947"
         style="stop-color:#0000ff;stop-opacity:0.74901961;" />
      <stop
         id="stop3610"
         offset="0.67658126"
         style="stop-color:#0000ff;stop-opacity:0.49803922;" />
      <stop
         style="stop-color:#ffffff;stop-opacity:0;"
         offset="1"
         id="stop3606" />
    </linearGradient>
    <radialGradient
       inkscape:collect="always"
       xlink:href="#linearGradient3602"
       id="radialGradient3608"
       cx="128.78049"
       cy="-27.609756"
       fx="128.78049"
       fy="-27.609756"
       r="129.56097"
       gradientTransform="matrix(0.13668818,0,0,0.12619798,-1.7829199,87.133962)"
       gradientUnits="userSpaceOnUse" />
  </defs>
  <sodipodi:namedview
     id="base"
     pagecolor="#ffffff"
     bordercolor="#666666"
     borderopacity="1.0"
     gridtolerance="10000"
     guidetolerance="10"
     objecttolerance="10"
     inkscape:pageopacity="0.0"
     inkscape:pageshadow="2"
     inkscape:zoom="1.9638786"
     inkscape:cx="37.363033"
     inkscape:cy="126.98161"
     inkscape:document-units="px"
     inkscape:current-layer="layer1"
     width="100px"
     height="100px"
     inkscape:window-width="1680"
     inkscape:window-height="980"
     inkscape:window-x="0"
     inkscape:window-y="25"
     showgrid="false"
     inkscape:window-maximized="1" />
  <metadata
     id="metadata7">
    <rdf:RDF>
      <cc:Work
         rdf:about="">
        <dc:format>image/svg+xml</dc:format>
        <dc:type
           rdf:resource="http://purl.org/dc/dcmitype/StillImage" />
        <dc:title />
      </cc:Work>
    </rdf:RDF>
  </metadata>
  <g
     inkscape:label="Layer 1"
     inkscape:groupmode="layer"
     id="layer1"
     transform="translate(0,-68)">
    <rect
       style="fill:url(#radialGradient3608);fill-opacity:1;stroke:none"
       id="rect2836"
       width="33.200676"
       height="32.700668"
       x="-0.7804879"
       y="67.299332" />
    <path
       sodipodi:type="star"
       style="fill:#ffffa9;fill-opacity:1;fill-rule:evenodd;stroke:none"
       id="path2825"
       sodipodi:sides="54"
       sodipodi:cx="51.428574"
       sodipodi:cy="48.214287"
       sodipodi:r1="44.281395"
       sodipodi:r2="19.00815"
       sodipodi:arg1="0.72262361"
       sodipodi:arg2="3.0399244"
       inkscape:flatsided="false"
       inkscape:rounded="0"
       inkscape:randomized="0"
       d="M 84.64286,77.500002 32.518577,50.143485 81.018413,81.157926 32.422474,47.935124 76.993814,84.370343 32.583395,45.730538 72.623489,87.093812 32.999165,43.55954 67.966539,89.291502 33.664161,41.45149 63.085942,90.933693 34.56939,39.434895 58.047698,91.998178 35.702611,37.537027 52.919943,92.47056 37.048499,35.78355 47.772019,92.344453 38.588852,34.198177 42.673544,91.62156 40.302841,32.802348 37.693465,90.311659 42.167286,31.61494 32.89913,88.432463 44.156974,30.652009 28.355375,86.009385 46.244998,29.926577 24.123644,83.075193 48.403121,29.448456 20.261166,79.669567 50.602158,29.22411 16.820174,75.838563 52.812371,29.256574 13.847201,71.633987 55.00387,29.545408 11.382451,67.1127 57.14702,30.086707 9.4592571,62.335845 59.212837,30.873151 8.1036257,57.36802 61.173386,31.894103 7.33389,52.276406 63.002153,33.135758 7.1604592,47.129859 64.674407,34.581324 7.5856787,41.997977 66.167534,36.211253 8.6037981,36.95016 67.461341,38.003502 10.201049,32.054671 68.538333,39.933834 12.355832,27.377714 69.383945,41.976145 15.039006,22.982535 69.986741,44.102817 18.214287,18.928572 70.33857,46.285089 21.838734,15.270648 70.434674,48.49345 25.863333,12.05823 70.273752,50.698036 30.233658,9.3347614 69.857982,52.869033 34.890608,7.1370713 69.192986,54.977083 39.771205,5.4948801 68.287757,56.993678 44.809449,4.4303956 67.154536,58.891547 49.937204,3.9580132 65.808648,60.645024 55.085128,4.0841209 64.268295,62.230396 60.183604,4.8070133 62.554306,63.626225 65.163682,6.1169147 60.689861,64.813634 69.958017,7.9961109 58.700173,65.776565 74.501773,10.419189 56.612149,66.501996 78.733503,13.353381 54.454026,66.980118 82.595981,16.759006 52.254989,67.204463 86.036973,20.590011 50.044776,67.172 89.009946,24.794586 47.853277,66.883165 91.474696,29.315873 45.710127,66.341866 93.39789,34.092728 43.64431,65.555423 94.753521,39.060554 41.683761,64.534471 95.523257,44.152167 39.854994,63.292816 95.696688,49.298714 38.18274,61.84725 95.271469,54.430596 36.689614,60.217321 94.253349,59.478413 35.395806,58.425072 92.656098,64.373902 34.318814,56.49474 90.501315,69.05086 33.473202,54.452428 87.818141,73.446039 32.870406,52.325757 84.64286,77.500002 z"
       transform="matrix(0.07030485,0,0,0.07672328,3.2421092,79.054969)" />
    <path
       transform="matrix(0.08440289,0,0,0.09210838,12.014078,73.611775)"
       d="M 84.64286,77.500002 32.518577,50.143485 81.018413,81.157926 32.422474,47.935124 76.993814,84.370343 32.583395,45.730538 72.623489,87.093812 32.999165,43.55954 67.966539,89.291502 33.664161,41.45149 63.085942,90.933693 34.56939,39.434895 58.047698,91.998178 35.702611,37.537027 52.919943,92.47056 37.048499,35.78355 47.772019,92.344453 38.588852,34.198177 42.673544,91.62156 40.302841,32.802348 37.693465,90.311659 42.167286,31.61494 32.89913,88.432463 44.156974,30.652009 28.355375,86.009385 46.244998,29.926577 24.123644,83.075193 48.403121,29.448456 20.261166,79.669567 50.602158,29.22411 16.820174,75.838563 52.812371,29.256574 13.847201,71.633987 55.00387,29.545408 11.382451,67.1127 57.14702,30.086707 9.4592571,62.335845 59.212837,30.873151 8.1036257,57.36802 61.173386,31.894103 7.33389,52.276406 63.002153,33.135758 7.1604592,47.129859 64.674407,34.581324 7.5856787,41.997977 66.167534,36.211253 8.6037981,36.95016 67.461341,38.003502 10.201049,32.054671 68.538333,39.933834 12.355832,27.377714 69.383945,41.976145 15.039006,22.982535 69.986741,44.102817 18.214287,18.928572 70.33857,46.285089 21.838734,15.270648 70.434674,48.49345 25.863333,12.05823 70.273752,50.698036 30.233658,9.3347614 69.857982,52.869033 34.890608,7.1370713 69.192986,54.977083 39.771205,5.4948801 68.287757,56.993678 44.809449,4.4303956 67.154536,58.891547 49.937204,3.9580132 65.808648,60.645024 55.085128,4.0841209 64.268295,62.230396 60.183604,4.8070133 62.554306,63.626225 65.163682,6.1169147 60.689861,64.813634 69.958017,7.9961109 58.700173,65.776565 74.501773,10.419189 56.612149,66.501996 78.733503,13.353381 54.454026,66.980118 82.595981,16.759006 52.254989,67.204463 86.036973,20.590011 50.044776,67.172 89.009946,24.794586 47.853277,66.883165 91.474696,29.315873 45.710127,66.341866 93.39789,34.092728 43.64431,65.555423 94.753521,39.060554 41.683761,64.534471 95.523257,44.152167 39.854994,63.292816 95.696688,49.298714 38.18274,61.84725 95.271469,54.430596 36.689614,60.217321 94.253349,59.478413 35.395806,58.425072 92.656098,64.373902 34.318814,56.49474 90.501315,69.05086 33.473202,54.452428 87.818141,73.446039 32.870406,52.325757 84.64286,77.500002 z"
       inkscape:randomized="0"
       inkscape:rounded="0"
       inkscape:flatsided="false"
       sodipodi:arg2="3.0399244"
       sodipodi:arg1="0.72262361"
       sodipodi:r2="19.00815"
       sodipodi:r1="44.281395"
       sodipodi:cy="48.214287"
       sodipodi:cx="51.428574"
       sodipodi:sides="54"
       id="path2835"
       style="fill:#ffffa9;fill-opacity:1;fill-rule:evenodd;stroke:none"
       sodipodi:type="star" />
    <path
       sodipodi:type="star"
       style="fill:#ffffa9;fill-opacity:1;fill-rule:evenodd;stroke:none"
       id="path2829"
       sodipodi:sides="54"
       sodipodi:cx="51.428574"
       sodipodi:cy="48.214287"
       sodipodi:r1="44.281395"
       sodipodi:r2="19.00815"
       sodipodi:arg1="0.72262361"
       sodipodi:arg2="3.0399244"
       inkscape:flatsided="false"
       inkscape:rounded="0"
       inkscape:randomized="0"
       d="M 84.64286,77.500002 32.518577,50.143485 81.018413,81.157926 32.422474,47.935124 76.993814,84.370343 32.583395,45.730538 72.623489,87.093812 32.999165,43.55954 67.966539,89.291502 33.664161,41.45149 63.085942,90.933693 34.56939,39.434895 58.047698,91.998178 35.702611,37.537027 52.919943,92.47056 37.048499,35.78355 47.772019,92.344453 38.588852,34.198177 42.673544,91.62156 40.302841,32.802348 37.693465,90.311659 42.167286,31.61494 32.89913,88.432463 44.156974,30.652009 28.355375,86.009385 46.244998,29.926577 24.123644,83.075193 48.403121,29.448456 20.261166,79.669567 50.602158,29.22411 16.820174,75.838563 52.812371,29.256574 13.847201,71.633987 55.00387,29.545408 11.382451,67.1127 57.14702,30.086707 9.4592571,62.335845 59.212837,30.873151 8.1036257,57.36802 61.173386,31.894103 7.33389,52.276406 63.002153,33.135758 7.1604592,47.129859 64.674407,34.581324 7.5856787,41.997977 66.167534,36.211253 8.6037981,36.95016 67.461341,38.003502 10.201049,32.054671 68.538333,39.933834 12.355832,27.377714 69.383945,41.976145 15.039006,22.982535 69.986741,44.102817 18.214287,18.928572 70.33857,46.285089 21.838734,15.270648 70.434674,48.49345 25.863333,12.05823 70.273752,50.698036 30.233658,9.3347614 69.857982,52.869033 34.890608,7.1370713 69.192986,54.977083 39.771205,5.4948801 68.287757,56.993678 44.809449,4.4303956 67.154536,58.891547 49.937204,3.9580132 65.808648,60.645024 55.085128,4.0841209 64.268295,62.230396 60.183604,4.8070133 62.554306,63.626225 65.163682,6.1169147 60.689861,64.813634 69.958017,7.9961109 58.700173,65.776565 74.501773,10.419189 56.612149,66.501996 78.733503,13.353381 54.454026,66.980118 82.595981,16.759006 52.254989,67.204463 86.036973,20.590011 50.044776,67.172 89.009946,24.794586 47.853277,66.883165 91.474696,29.315873 45.710127,66.341866 93.39789,34.092728 43.64431,65.555423 94.753521,39.060554 41.683761,64.534471 95.523257,44.152167 39.854994,63.292816 95.696688,49.298714 38.18274,61.84725 95.271469,54.430596 36.689614,60.217321 94.253349,59.478413 35.395806,58.425072 92.656098,64.373902 34.318814,56.49474 90.501315,69.05086 33.473202,54.452428 87.818141,73.446039 32.870406,52.325757 84.64286,77.500002 z"
       transform="matrix(0.07030485,0,0,0.07672328,21.107305,78.404011)" />
    <path
       sodipodi:type="star"
       style="fill:#ffffa9;fill-opacity:1;fill-rule:evenodd;stroke:none"
       id="path2821"
       sodipodi:sides="54"
       sodipodi:cx="51.428574"
       sodipodi:cy="48.214287"
       sodipodi:r1="44.281395"
       sodipodi:r2="19.00815"
       sodipodi:arg1="0.72262361"
       sodipodi:arg2="3.0399244"
       inkscape:flatsided="false"
       inkscape:rounded="0"
       inkscape:randomized="0"
       d="M 84.64286,77.500002 32.518577,50.143485 81.018413,81.157926 32.422474,47.935124 76.993814,84.370343 32.583395,45.730538 72.623489,87.093812 32.999165,43.55954 67.966539,89.291502 33.664161,41.45149 63.085942,90.933693 34.56939,39.434895 58.047698,91.998178 35.702611,37.537027 52.919943,92.47056 37.048499,35.78355 47.772019,92.344453 38.588852,34.198177 42.673544,91.62156 40.302841,32.802348 37.693465,90.311659 42.167286,31.61494 32.89913,88.432463 44.156974,30.652009 28.355375,86.009385 46.244998,29.926577 24.123644,83.075193 48.403121,29.448456 20.261166,79.669567 50.602158,29.22411 16.820174,75.838563 52.812371,29.256574 13.847201,71.633987 55.00387,29.545408 11.382451,67.1127 57.14702,30.086707 9.4592571,62.335845 59.212837,30.873151 8.1036257,57.36802 61.173386,31.894103 7.33389,52.276406 63.002153,33.135758 7.1604592,47.129859 64.674407,34.581324 7.5856787,41.997977 66.167534,36.211253 8.6037981,36.95016 67.461341,38.003502 10.201049,32.054671 68.538333,39.933834 12.355832,27.377714 69.383945,41.976145 15.039006,22.982535 69.986741,44.102817 18.214287,18.928572 70.33857,46.285089 21.838734,15.270648 70.434674,48.49345 25.863333,12.05823 70.273752,50.698036 30.233658,9.3347614 69.857982,52.869033 34.890608,7.1370713 69.192986,54.977083 39.771205,5.4948801 68.287757,56.993678 44.809449,4.4303956 67.154536,58.891547 49.937204,3.9580132 65.808648,60.645024 55.085128,4.0841209 64.268295,62.230396 60.183604,4.8070133 62.554306,63.626225 65.163682,6.1169147 60.689861,64.813634 69.958017,7.9961109 58.700173,65.776565 74.501773,10.419189 56.612149,66.501996 78.733503,13.353381 54.454026,66.980118 82.595981,16.759006 52.254989,67.204463 86.036973,20.590011 50.044776,67.172 89.009946,24.794586 47.853277,66.883165 91.474696,29.315873 45.710127,66.341866 93.39789,34.092728 43.64431,65.555423 94.753521,39.060554 41.683761,64.534471 95.523257,44.152167 39.854994,63.292816 95.696688,49.298714 38.18274,61.84725 95.271469,54.430596 36.689614,60.217321 94.253349,59.478413 35.395806,58.425072 92.656098,64.373902 34.318814,56.49474 90.501315,69.05086 33.473202,54.452428 87.818141,73.446039 32.870406,52.325757 84.64286,77.500002 z"
       transform="matrix(0.08440289,0,0,0.09210838,13.056068,83.77119)" />
    <path
       sodipodi:type="star"
       style="fill:#ffffa9;fill-opacity:1;fill-rule:evenodd;stroke:none"
       id="path2162"
       sodipodi:sides="54"
       sodipodi:cx="51.428574"
       sodipodi:cy="48.214287"
       sodipodi:r1="44.281395"
       sodipodi:r2="19.00815"
       sodipodi:arg1="0.72262361"
       sodipodi:arg2="3.0399244"
       inkscape:flatsided="false"
       inkscape:rounded="0"
       inkscape:randomized="0"
       d="M 84.64286,77.500002 32.518577,50.143485 81.018413,81.157926 32.422474,47.935124 76.993814,84.370343 32.583395,45.730538 72.623489,87.093812 32.999165,43.55954 67.966539,89.291502 33.664161,41.45149 63.085942,90.933693 34.56939,39.434895 58.047698,91.998178 35.702611,37.537027 52.919943,92.47056 37.048499,35.78355 47.772019,92.344453 38.588852,34.198177 42.673544,91.62156 40.302841,32.802348 37.693465,90.311659 42.167286,31.61494 32.89913,88.432463 44.156974,30.652009 28.355375,86.009385 46.244998,29.926577 24.123644,83.075193 48.403121,29.448456 20.261166,79.669567 50.602158,29.22411 16.820174,75.838563 52.812371,29.256574 13.847201,71.633987 55.00387,29.545408 11.382451,67.1127 57.14702,30.086707 9.4592571,62.335845 59.212837,30.873151 8.1036257,57.36802 61.173386,31.894103 7.33389,52.276406 63.002153,33.135758 7.1604592,47.129859 64.674407,34.581324 7.5856787,41.997977 66.167534,36.211253 8.6037981,36.95016 67.461341,38.003502 10.201049,32.054671 68.538333,39.933834 12.355832,27.377714 69.383945,41.976145 15.039006,22.982535 69.986741,44.102817 18.214287,18.928572 70.33857,46.285089 21.838734,15.270648 70.434674,48.49345 25.863333,12.05823 70.273752,50.698036 30.233658,9.3347614 69.857982,52.869033 34.890608,7.1370713 69.192986,54.977083 39.771205,5.4948801 68.287757,56.993678 44.809449,4.4303956 67.154536,58.891547 49.937204,3.9580132 65.808648,60.645024 55.085128,4.0841209 64.268295,62.230396 60.183604,4.8070133 62.554306,63.626225 65.163682,6.1169147 60.689861,64.813634 69.958017,7.9961109 58.700173,65.776565 74.501773,10.419189 56.612149,66.501996 78.733503,13.353381 54.454026,66.980118 82.595981,16.759006 52.254989,67.204463 86.036973,20.590011 50.044776,67.172 89.009946,24.794586 47.853277,66.883165 91.474696,29.315873 45.710127,66.341866 93.39789,34.092728 43.64431,65.555423 94.753521,39.060554 41.683761,64.534471 95.523257,44.152167 39.854994,63.292816 95.696688,49.298714 38.18274,61.84725 95.271469,54.430596 36.689614,60.217321 94.253349,59.478413 35.395806,58.425072 92.656098,64.373902 34.318814,56.49474 90.501315,69.05086 33.473202,54.452428 87.818141,73.446039 32.870406,52.325757 84.64286,77.500002 z"
       transform="matrix(0.07030485,0,0,0.07672328,12.934159,71.098809)" />
    <path
       transform="matrix(0.07030485,0,0,0.07672328,6.713889,72.617712)"
       d="M 84.64286,77.500002 32.518577,50.143485 81.018413,81.157926 32.422474,47.935124 76.993814,84.370343 32.583395,45.730538 72.623489,87.093812 32.999165,43.55954 67.966539,89.291502 33.664161,41.45149 63.085942,90.933693 34.56939,39.434895 58.047698,91.998178 35.702611,37.537027 52.919943,92.47056 37.048499,35.78355 47.772019,92.344453 38.588852,34.198177 42.673544,91.62156 40.302841,32.802348 37.693465,90.311659 42.167286,31.61494 32.89913,88.432463 44.156974,30.652009 28.355375,86.009385 46.244998,29.926577 24.123644,83.075193 48.403121,29.448456 20.261166,79.669567 50.602158,29.22411 16.820174,75.838563 52.812371,29.256574 13.847201,71.633987 55.00387,29.545408 11.382451,67.1127 57.14702,30.086707 9.4592571,62.335845 59.212837,30.873151 8.1036257,57.36802 61.173386,31.894103 7.33389,52.276406 63.002153,33.135758 7.1604592,47.129859 64.674407,34.581324 7.5856787,41.997977 66.167534,36.211253 8.6037981,36.95016 67.461341,38.003502 10.201049,32.054671 68.538333,39.933834 12.355832,27.377714 69.383945,41.976145 15.039006,22.982535 69.986741,44.102817 18.214287,18.928572 70.33857,46.285089 21.838734,15.270648 70.434674,48.49345 25.863333,12.05823 70.273752,50.698036 30.233658,9.3347614 69.857982,52.869033 34.890608,7.1370713 69.192986,54.977083 39.771205,5.4948801 68.287757,56.993678 44.809449,4.4303956 67.154536,58.891547 49.937204,3.9580132 65.808648,60.645024 55.085128,4.0841209 64.268295,62.230396 60.183604,4.8070133 62.554306,63.626225 65.163682,6.1169147 60.689861,64.813634 69.958017,7.9961109 58.700173,65.776565 74.501773,10.419189 56.612149,66.501996 78.733503,13.353381 54.454026,66.980118 82.595981,16.759006 52.254989,67.204463 86.036973,20.590011 50.044776,67.172 89.009946,24.794586 47.853277,66.883165 91.474696,29.315873 45.710127,66.341866 93.39789,34.092728 43.64431,65.555423 94.753521,39.060554 41.683761,64.534471 95.523257,44.152167 39.854994,63.292816 95.696688,49.298714 38.18274,61.84725 95.271469,54.430596 36.689614,60.217321 94.253349,59.478413 35.395806,58.425072 92.656098,64.373902 34.318814,56.49474 90.501315,69.05086 33.473202,54.452428 87.818141,73.446039 32.870406,52.325757 84.64286,77.500002 z"
       inkscape:randomized="0"
       inkscape:rounded="0"
       inkscape:flatsided="false"
       sodipodi:arg2="3.0399244"
       sodipodi:arg1="0.72262361"
       sodipodi:r2="19.00815"
       sodipodi:r1="44.281395"
       sodipodi:cy="48.214287"
       sodipodi:cx="51.428574"
       sodipodi:sides="54"
       id="path2831"
       style="fill:#ffffa9;fill-opacity:1;fill-rule:evenodd;stroke:none"
       sodipodi:type="star" />
    <path
       transform="matrix(0.07030485,0,0,0.07672328,10.61964,77.825381)"
       d="M 84.64286,77.500002 32.518577,50.143485 81.018413,81.157926 32.422474,47.935124 76.993814,84.370343 32.583395,45.730538 72.623489,87.093812 32.999165,43.55954 67.966539,89.291502 33.664161,41.45149 63.085942,90.933693 34.56939,39.434895 58.047698,91.998178 35.702611,37.537027 52.919943,92.47056 37.048499,35.78355 47.772019,92.344453 38.588852,34.198177 42.673544,91.62156 40.302841,32.802348 37.693465,90.311659 42.167286,31.61494 32.89913,88.432463 44.156974,30.652009 28.355375,86.009385 46.244998,29.926577 24.123644,83.075193 48.403121,29.448456 20.261166,79.669567 50.602158,29.22411 16.820174,75.838563 52.812371,29.256574 13.847201,71.633987 55.00387,29.545408 11.382451,67.1127 57.14702,30.086707 9.4592571,62.335845 59.212837,30.873151 8.1036257,57.36802 61.173386,31.894103 7.33389,52.276406 63.002153,33.135758 7.1604592,47.129859 64.674407,34.581324 7.5856787,41.997977 66.167534,36.211253 8.6037981,36.95016 67.461341,38.003502 10.201049,32.054671 68.538333,39.933834 12.355832,27.377714 69.383945,41.976145 15.039006,22.982535 69.986741,44.102817 18.214287,18.928572 70.33857,46.285089 21.838734,15.270648 70.434674,48.49345 25.863333,12.05823 70.273752,50.698036 30.233658,9.3347614 69.857982,52.869033 34.890608,7.1370713 69.192986,54.977083 39.771205,5.4948801 68.287757,56.993678 44.809449,4.4303956 67.154536,58.891547 49.937204,3.9580132 65.808648,60.645024 55.085128,4.0841209 64.268295,62.230396 60.183604,4.8070133 62.554306,63.626225 65.163682,6.1169147 60.689861,64.813634 69.958017,7.9961109 58.700173,65.776565 74.501773,10.419189 56.612149,66.501996 78.733503,13.353381 54.454026,66.980118 82.595981,16.759006 52.254989,67.204463 86.036973,20.590011 50.044776,67.172 89.009946,24.794586 47.853277,66.883165 91.474696,29.315873 45.710127,66.341866 93.39789,34.092728 43.64431,65.555423 94.753521,39.060554 41.683761,64.534471 95.523257,44.152167 39.854994,63.292816 95.696688,49.298714 38.18274,61.84725 95.271469,54.430596 36.689614,60.217321 94.253349,59.478413 35.395806,58.425072 92.656098,64.373902 34.318814,56.49474 90.501315,69.05086 33.473202,54.452428 87.818141,73.446039 32.870406,52.325757 84.64286,77.500002 z"
       inkscape:randomized="0"
       inkscape:rounded="0"
       inkscape:flatsided="false"
       sodipodi:arg2="3.0399244"
       sodipodi:arg1="0.72262361"
       sodipodi:r2="19.00815"
       sodipodi:r1="44.281395"
       sodipodi:cy="48.214287"
       sodipodi:cx="51.428574"
       sodipodi:sides="54"
       id="path2815"
       style="fill:#ffffa9;fill-opacity:1;fill-rule:evenodd;stroke:none"
       sodipodi:type="star" />
    <path
       sodipodi:type="star"
       style="fill:#ffffa9;fill-opacity:1;fill-rule:evenodd;stroke:none"
       id="path2817"
       sodipodi:sides="54"
       sodipodi:cx="51.428574"
       sodipodi:cy="48.214287"
       sodipodi:r1="44.281395"
       sodipodi:r2="19.00815"
       sodipodi:arg1="0.72262361"
       sodipodi:arg2="3.0399244"
       inkscape:flatsided="false"
       inkscape:rounded="0"
       inkscape:randomized="0"
       d="M 84.64286,77.500002 32.518577,50.143485 81.018413,81.157926 32.422474,47.935124 76.993814,84.370343 32.583395,45.730538 72.623489,87.093812 32.999165,43.55954 67.966539,89.291502 33.664161,41.45149 63.085942,90.933693 34.56939,39.434895 58.047698,91.998178 35.702611,37.537027 52.919943,92.47056 37.048499,35.78355 47.772019,92.344453 38.588852,34.198177 42.673544,91.62156 40.302841,32.802348 37.693465,90.311659 42.167286,31.61494 32.89913,88.432463 44.156974,30.652009 28.355375,86.009385 46.244998,29.926577 24.123644,83.075193 48.403121,29.448456 20.261166,79.669567 50.602158,29.22411 16.820174,75.838563 52.812371,29.256574 13.847201,71.633987 55.00387,29.545408 11.382451,67.1127 57.14702,30.086707 9.4592571,62.335845 59.212837,30.873151 8.1036257,57.36802 61.173386,31.894103 7.33389,52.276406 63.002153,33.135758 7.1604592,47.129859 64.674407,34.581324 7.5856787,41.997977 66.167534,36.211253 8.6037981,36.95016 67.461341,38.003502 10.201049,32.054671 68.538333,39.933834 12.355832,27.377714 69.383945,41.976145 15.039006,22.982535 69.986741,44.102817 18.214287,18.928572 70.33857,46.285089 21.838734,15.270648 70.434674,48.49345 25.863333,12.05823 70.273752,50.698036 30.233658,9.3347614 69.857982,52.869033 34.890608,7.1370713 69.192986,54.977083 39.771205,5.4948801 68.287757,56.993678 44.809449,4.4303956 67.154536,58.891547 49.937204,3.9580132 65.808648,60.645024 55.085128,4.0841209 64.268295,62.230396 60.183604,4.8070133 62.554306,63.626225 65.163682,6.1169147 60.689861,64.813634 69.958017,7.9961109 58.700173,65.776565 74.501773,10.419189 56.612149,66.501996 78.733503,13.353381 54.454026,66.980118 82.595981,16.759006 52.254989,67.204463 86.036973,20.590011 50.044776,67.172 89.009946,24.794586 47.853277,66.883165 91.474696,29.315873 45.710127,66.341866 93.39789,34.092728 43.64431,65.555423 94.753521,39.060554 41.683761,64.534471 95.523257,44.152167 39.854994,63.292816 95.696688,49.298714 38.18274,61.84725 95.271469,54.430596 36.689614,60.217321 94.253349,59.478413 35.395806,58.425072 92.656098,64.373902 34.318814,56.49474 90.501315,69.05086 33.473202,54.452428 87.818141,73.446039 32.870406,52.325757 84.64286,77.500002 z"
       transform="matrix(0.07030485,0,0,0.07672328,17.852512,74.281274)" />
    <path
       transform="matrix(0.08440289,0,0,0.09210838,18.266025,81.77404)"
       d="M 84.64286,77.500002 32.518577,50.143485 81.018413,81.157926 32.422474,47.935124 76.993814,84.370343 32.583395,45.730538 72.623489,87.093812 32.999165,43.55954 67.966539,89.291502 33.664161,41.45149 63.085942,90.933693 34.56939,39.434895 58.047698,91.998178 35.702611,37.537027 52.919943,92.47056 37.048499,35.78355 47.772019,92.344453 38.588852,34.198177 42.673544,91.62156 40.302841,32.802348 37.693465,90.311659 42.167286,31.61494 32.89913,88.432463 44.156974,30.652009 28.355375,86.009385 46.244998,29.926577 24.123644,83.075193 48.403121,29.448456 20.261166,79.669567 50.602158,29.22411 16.820174,75.838563 52.812371,29.256574 13.847201,71.633987 55.00387,29.545408 11.382451,67.1127 57.14702,30.086707 9.4592571,62.335845 59.212837,30.873151 8.1036257,57.36802 61.173386,31.894103 7.33389,52.276406 63.002153,33.135758 7.1604592,47.129859 64.674407,34.581324 7.5856787,41.997977 66.167534,36.211253 8.6037981,36.95016 67.461341,38.003502 10.201049,32.054671 68.538333,39.933834 12.355832,27.377714 69.383945,41.976145 15.039006,22.982535 69.986741,44.102817 18.214287,18.928572 70.33857,46.285089 21.838734,15.270648 70.434674,48.49345 25.863333,12.05823 70.273752,50.698036 30.233658,9.3347614 69.857982,52.869033 34.890608,7.1370713 69.192986,54.977083 39.771205,5.4948801 68.287757,56.993678 44.809449,4.4303956 67.154536,58.891547 49.937204,3.9580132 65.808648,60.645024 55.085128,4.0841209 64.268295,62.230396 60.183604,4.8070133 62.554306,63.626225 65.163682,6.1169147 60.689861,64.813634 69.958017,7.9961109 58.700173,65.776565 74.501773,10.419189 56.612149,66.501996 78.733503,13.353381 54.454026,66.980118 82.595981,16.759006 52.254989,67.204463 86.036973,20.590011 50.044776,67.172 89.009946,24.794586 47.853277,66.883165 91.474696,29.315873 45.710127,66.341866 93.39789,34.092728 43.64431,65.555423 94.753521,39.060554 41.683761,64.534471 95.523257,44.152167 39.854994,63.292816 95.696688,49.298714 38.18274,61.84725 95.271469,54.430596 36.689614,60.217321 94.253349,59.478413 35.395806,58.425072 92.656098,64.373902 34.318814,56.49474 90.501315,69.05086 33.473202,54.452428 87.818141,73.446039 32.870406,52.325757 84.64286,77.500002 z"
       inkscape:randomized="0"
       inkscape:rounded="0"
       inkscape:flatsided="false"
       sodipodi:arg2="3.0399244"
       sodipodi:arg1="0.72262361"
       sodipodi:r2="19.00815"
       sodipodi:r1="44.281395"
       sodipodi:cy="48.214287"
       sodipodi:cx="51.428574"
       sodipodi:sides="54"
       id="path2819"
       style="fill:#ffffa9;fill-opacity:1;fill-rule:evenodd;stroke:none"
       sodipodi:type="star" />
    <path
       transform="matrix(0.07030485,0,0,0.07672328,15.537993,78.259353)"
       d="M 84.64286,77.500002 32.518577,50.143485 81.018413,81.157926 32.422474,47.935124 76.993814,84.370343 32.583395,45.730538 72.623489,87.093812 32.999165,43.55954 67.966539,89.291502 33.664161,41.45149 63.085942,90.933693 34.56939,39.434895 58.047698,91.998178 35.702611,37.537027 52.919943,92.47056 37.048499,35.78355 47.772019,92.344453 38.588852,34.198177 42.673544,91.62156 40.302841,32.802348 37.693465,90.311659 42.167286,31.61494 32.89913,88.432463 44.156974,30.652009 28.355375,86.009385 46.244998,29.926577 24.123644,83.075193 48.403121,29.448456 20.261166,79.669567 50.602158,29.22411 16.820174,75.838563 52.812371,29.256574 13.847201,71.633987 55.00387,29.545408 11.382451,67.1127 57.14702,30.086707 9.4592571,62.335845 59.212837,30.873151 8.1036257,57.36802 61.173386,31.894103 7.33389,52.276406 63.002153,33.135758 7.1604592,47.129859 64.674407,34.581324 7.5856787,41.997977 66.167534,36.211253 8.6037981,36.95016 67.461341,38.003502 10.201049,32.054671 68.538333,39.933834 12.355832,27.377714 69.383945,41.976145 15.039006,22.982535 69.986741,44.102817 18.214287,18.928572 70.33857,46.285089 21.838734,15.270648 70.434674,48.49345 25.863333,12.05823 70.273752,50.698036 30.233658,9.3347614 69.857982,52.869033 34.890608,7.1370713 69.192986,54.977083 39.771205,5.4948801 68.287757,56.993678 44.809449,4.4303956 67.154536,58.891547 49.937204,3.9580132 65.808648,60.645024 55.085128,4.0841209 64.268295,62.230396 60.183604,4.8070133 62.554306,63.626225 65.163682,6.1169147 60.689861,64.813634 69.958017,7.9961109 58.700173,65.776565 74.501773,10.419189 56.612149,66.501996 78.733503,13.353381 54.454026,66.980118 82.595981,16.759006 52.254989,67.204463 86.036973,20.590011 50.044776,67.172 89.009946,24.794586 47.853277,66.883165 91.474696,29.315873 45.710127,66.341866 93.39789,34.092728 43.64431,65.555423 94.753521,39.060554 41.683761,64.534471 95.523257,44.152167 39.854994,63.292816 95.696688,49.298714 38.18274,61.84725 95.271469,54.430596 36.689614,60.217321 94.253349,59.478413 35.395806,58.425072 92.656098,64.373902 34.318814,56.49474 90.501315,69.05086 33.473202,54.452428 87.818141,73.446039 32.870406,52.325757 84.64286,77.500002 z"
       inkscape:randomized="0"
       inkscape:rounded="0"
       inkscape:flatsided="false"
       sodipodi:arg2="3.0399244"
       sodipodi:arg1="0.72262361"
       sodipodi:r2="19.00815"
       sodipodi:r1="44.281395"
       sodipodi:cy="48.214287"
       sodipodi:cx="51.428574"
       sodipodi:sides="54"
       id="path2823"
       style="fill:#ffffa9;fill-opacity:1;fill-rule:evenodd;stroke:none"
       sodipodi:type="star" />
    <path
       transform="matrix(0.09971467,0,0,0.10881803,8.7454912,86.76562)"
       d="M 84.64286,77.500002 32.518577,50.143485 81.018413,81.157926 32.422474,47.935124 76.993814,84.370343 32.583395,45.730538 72.623489,87.093812 32.999165,43.55954 67.966539,89.291502 33.664161,41.45149 63.085942,90.933693 34.56939,39.434895 58.047698,91.998178 35.702611,37.537027 52.919943,92.47056 37.048499,35.78355 47.772019,92.344453 38.588852,34.198177 42.673544,91.62156 40.302841,32.802348 37.693465,90.311659 42.167286,31.61494 32.89913,88.432463 44.156974,30.652009 28.355375,86.009385 46.244998,29.926577 24.123644,83.075193 48.403121,29.448456 20.261166,79.669567 50.602158,29.22411 16.820174,75.838563 52.812371,29.256574 13.847201,71.633987 55.00387,29.545408 11.382451,67.1127 57.14702,30.086707 9.4592571,62.335845 59.212837,30.873151 8.1036257,57.36802 61.173386,31.894103 7.33389,52.276406 63.002153,33.135758 7.1604592,47.129859 64.674407,34.581324 7.5856787,41.997977 66.167534,36.211253 8.6037981,36.95016 67.461341,38.003502 10.201049,32.054671 68.538333,39.933834 12.355832,27.377714 69.383945,41.976145 15.039006,22.982535 69.986741,44.102817 18.214287,18.928572 70.33857,46.285089 21.838734,15.270648 70.434674,48.49345 25.863333,12.05823 70.273752,50.698036 30.233658,9.3347614 69.857982,52.869033 34.890608,7.1370713 69.192986,54.977083 39.771205,5.4948801 68.287757,56.993678 44.809449,4.4303956 67.154536,58.891547 49.937204,3.9580132 65.808648,60.645024 55.085128,4.0841209 64.268295,62.230396 60.183604,4.8070133 62.554306,63.626225 65.163682,6.1169147 60.689861,64.813634 69.958017,7.9961109 58.700173,65.776565 74.501773,10.419189 56.612149,66.501996 78.733503,13.353381 54.454026,66.980118 82.595981,16.759006 52.254989,67.204463 86.036973,20.590011 50.044776,67.172 89.009946,24.794586 47.853277,66.883165 91.474696,29.315873 45.710127,66.341866 93.39789,34.092728 43.64431,65.555423 94.753521,39.060554 41.683761,64.534471 95.523257,44.152167 39.854994,63.292816 95.696688,49.298714 38.18274,61.84725 95.271469,54.430596 36.689614,60.217321 94.253349,59.478413 35.395806,58.425072 92.656098,64.373902 34.318814,56.49474 90.501315,69.05086 33.473202,54.452428 87.818141,73.446039 32.870406,52.325757 84.64286,77.500002 z"
       inkscape:randomized="0"
       inkscape:rounded="0"
       inkscape:flatsided="false"
       sodipodi:arg2="3.0399244"
       sodipodi:arg1="0.72262361"
       sodipodi:r2="19.00815"
       sodipodi:r1="44.281395"
       sodipodi:cy="48.214287"
       sodipodi:cx="51.428574"
       sodipodi:sides="54"
       id="path2827"
       style="fill:#ffffa9;fill-opacity:1;fill-rule:evenodd;stroke:none"
       sodipodi:type="star" />
    <path
       sodipodi:type="star"
       style="fill:#ffffa9;fill-opacity:1;fill-rule:evenodd;stroke:none"
       id="path2833"
       sodipodi:sides="54"
       sodipodi:cx="51.428574"
       sodipodi:cy="48.214287"
       sodipodi:r1="44.281395"
       sodipodi:r2="19.00815"
       sodipodi:arg1="0.72262361"
       sodipodi:arg2="3.0399244"
       inkscape:flatsided="false"
       inkscape:rounded="0"
       inkscape:randomized="0"
       d="M 84.64286,77.500002 32.518577,50.143485 81.018413,81.157926 32.422474,47.935124 76.993814,84.370343 32.583395,45.730538 72.623489,87.093812 32.999165,43.55954 67.966539,89.291502 33.664161,41.45149 63.085942,90.933693 34.56939,39.434895 58.047698,91.998178 35.702611,37.537027 52.919943,92.47056 37.048499,35.78355 47.772019,92.344453 38.588852,34.198177 42.673544,91.62156 40.302841,32.802348 37.693465,90.311659 42.167286,31.61494 32.89913,88.432463 44.156974,30.652009 28.355375,86.009385 46.244998,29.926577 24.123644,83.075193 48.403121,29.448456 20.261166,79.669567 50.602158,29.22411 16.820174,75.838563 52.812371,29.256574 13.847201,71.633987 55.00387,29.545408 11.382451,67.1127 57.14702,30.086707 9.4592571,62.335845 59.212837,30.873151 8.1036257,57.36802 61.173386,31.894103 7.33389,52.276406 63.002153,33.135758 7.1604592,47.129859 64.674407,34.581324 7.5856787,41.997977 66.167534,36.211253 8.6037981,36.95016 67.461341,38.003502 10.201049,32.054671 68.538333,39.933834 12.355832,27.377714 69.383945,41.976145 15.039006,22.982535 69.986741,44.102817 18.214287,18.928572 70.33857,46.285089 21.838734,15.270648 70.434674,48.49345 25.863333,12.05823 70.273752,50.698036 30.233658,9.3347614 69.857982,52.869033 34.890608,7.1370713 69.192986,54.977083 39.771205,5.4948801 68.287757,56.993678 44.809449,4.4303956 67.154536,58.891547 49.937204,3.9580132 65.808648,60.645024 55.085128,4.0841209 64.268295,62.230396 60.183604,4.8070133 62.554306,63.626225 65.163682,6.1169147 60.689861,64.813634 69.958017,7.9961109 58.700173,65.776565 74.501773,10.419189 56.612149,66.501996 78.733503,13.353381 54.454026,66.980118 82.595981,16.759006 52.254989,67.204463 86.036973,20.590011 50.044776,67.172 89.009946,24.794586 47.853277,66.883165 91.474696,29.315873 45.710127,66.341866 93.39789,34.092728 43.64431,65.555423 94.753521,39.060554 41.683761,64.534471 95.523257,44.152167 39.854994,63.292816 95.696688,49.298714 38.18274,61.84725 95.271469,54.430596 36.689614,60.217321 94.253349,59.478413 35.395806,58.425072 92.656098,64.373902 34.318814,56.49474 90.501315,69.05086 33.473202,54.452428 87.818141,73.446039 32.870406,52.325757 84.64286,77.500002 z"
       transform="matrix(0.08344825,0,0,0.08850649,17.75071,87.407971)" />
    <path
       sodipodi:type="star"
       style="fill:#ffffa9;fill-opacity:1;fill-rule:evenodd;stroke:none"
       id="path2837"
       sodipodi:sides="54"
       sodipodi:cx="51.428574"
       sodipodi:cy="48.214287"
       sodipodi:r1="44.281395"
       sodipodi:r2="19.00815"
       sodipodi:arg1="0.72262361"
       sodipodi:arg2="3.0399244"
       inkscape:flatsided="false"
       inkscape:rounded="0"
       inkscape:randomized="0"
       d="M 84.64286,77.500002 32.518577,50.143485 81.018413,81.157926 32.422474,47.935124 76.993814,84.370343 32.583395,45.730538 72.623489,87.093812 32.999165,43.55954 67.966539,89.291502 33.664161,41.45149 63.085942,90.933693 34.56939,39.434895 58.047698,91.998178 35.702611,37.537027 52.919943,92.47056 37.048499,35.78355 47.772019,92.344453 38.588852,34.198177 42.673544,91.62156 40.302841,32.802348 37.693465,90.311659 42.167286,31.61494 32.89913,88.432463 44.156974,30.652009 28.355375,86.009385 46.244998,29.926577 24.123644,83.075193 48.403121,29.448456 20.261166,79.669567 50.602158,29.22411 16.820174,75.838563 52.812371,29.256574 13.847201,71.633987 55.00387,29.545408 11.382451,67.1127 57.14702,30.086707 9.4592571,62.335845 59.212837,30.873151 8.1036257,57.36802 61.173386,31.894103 7.33389,52.276406 63.002153,33.135758 7.1604592,47.129859 64.674407,34.581324 7.5856787,41.997977 66.167534,36.211253 8.6037981,36.95016 67.461341,38.003502 10.201049,32.054671 68.538333,39.933834 12.355832,27.377714 69.383945,41.976145 15.039006,22.982535 69.986741,44.102817 18.214287,18.928572 70.33857,46.285089 21.838734,15.270648 70.434674,48.49345 25.863333,12.05823 70.273752,50.698036 30.233658,9.3347614 69.857982,52.869033 34.890608,7.1370713 69.192986,54.977083 39.771205,5.4948801 68.287757,56.993678 44.809449,4.4303956 67.154536,58.891547 49.937204,3.9580132 65.808648,60.645024 55.085128,4.0841209 64.268295,62.230396 60.183604,4.8070133 62.554306,63.626225 65.163682,6.1169147 60.689861,64.813634 69.958017,7.9961109 58.700173,65.776565 74.501773,10.419189 56.612149,66.501996 78.733503,13.353381 54.454026,66.980118 82.595981,16.759006 52.254989,67.204463 86.036973,20.590011 50.044776,67.172 89.009946,24.794586 47.853277,66.883165 91.474696,29.315873 45.710127,66.341866 93.39789,34.092728 43.64431,65.555423 94.753521,39.060554 41.683761,64.534471 95.523257,44.152167 39.854994,63.292816 95.696688,49.298714 38.18274,61.84725 95.271469,54.430596 36.689614,60.217321 94.253349,59.478413 35.395806,58.425072 92.656098,64.373902 34.318814,56.49474 90.501315,69.05086 33.473202,54.452428 87.818141,73.446039 32.870406,52.325757 84.64286,77.500002 z"
       transform="matrix(0.08440289,0,0,0.09210838,10.537924,81.339877)" />
    <path
       transform="matrix(0.07874528,0,0,0.08593426,3.892962,84.614152)"
       d="M 84.64286,77.500002 32.518577,50.143485 81.018413,81.157926 32.422474,47.935124 76.993814,84.370343 32.583395,45.730538 72.623489,87.093812 32.999165,43.55954 67.966539,89.291502 33.664161,41.45149 63.085942,90.933693 34.56939,39.434895 58.047698,91.998178 35.702611,37.537027 52.919943,92.47056 37.048499,35.78355 47.772019,92.344453 38.588852,34.198177 42.673544,91.62156 40.302841,32.802348 37.693465,90.311659 42.167286,31.61494 32.89913,88.432463 44.156974,30.652009 28.355375,86.009385 46.244998,29.926577 24.123644,83.075193 48.403121,29.448456 20.261166,79.669567 50.602158,29.22411 16.820174,75.838563 52.812371,29.256574 13.847201,71.633987 55.00387,29.545408 11.382451,67.1127 57.14702,30.086707 9.4592571,62.335845 59.212837,30.873151 8.1036257,57.36802 61.173386,31.894103 7.33389,52.276406 63.002153,33.135758 7.1604592,47.129859 64.674407,34.581324 7.5856787,41.997977 66.167534,36.211253 8.6037981,36.95016 67.461341,38.003502 10.201049,32.054671 68.538333,39.933834 12.355832,27.377714 69.383945,41.976145 15.039006,22.982535 69.986741,44.102817 18.214287,18.928572 70.33857,46.285089 21.838734,15.270648 70.434674,48.49345 25.863333,12.05823 70.273752,50.698036 30.233658,9.3347614 69.857982,52.869033 34.890608,7.1370713 69.192986,54.977083 39.771205,5.4948801 68.287757,56.993678 44.809449,4.4303956 67.154536,58.891547 49.937204,3.9580132 65.808648,60.645024 55.085128,4.0841209 64.268295,62.230396 60.183604,4.8070133 62.554306,63.626225 65.163682,6.1169147 60.689861,64.813634 69.958017,7.9961109 58.700173,65.776565 74.501773,10.419189 56.612149,66.501996 78.733503,13.353381 54.454026,66.980118 82.595981,16.759006 52.254989,67.204463 86.036973,20.590011 50.044776,67.172 89.009946,24.794586 47.853277,66.883165 91.474696,29.315873 45.710127,66.341866 93.39789,34.092728 43.64431,65.555423 94.753521,39.060554 41.683761,64.534471 95.523257,44.152167 39.854994,63.292816 95.696688,49.298714 38.18274,61.84725 95.271469,54.430596 36.689614,60.217321 94.253349,59.478413 35.395806,58.425072 92.656098,64.373902 34.318814,56.49474 90.501315,69.05086 33.473202,54.452428 87.818141,73.446039 32.870406,52.325757 84.64286,77.500002 z"
       inkscape:randomized="0"
       inkscape:rounded="0"
       inkscape:flatsided="false"
       sodipodi:arg2="3.0399244"
       sodipodi:arg1="0.72262361"
       sodipodi:r2="19.00815"
       sodipodi:r1="44.281395"
       sodipodi:cy="48.214287"
       sodipodi:cx="51.428574"
       sodipodi:sides="54"
       id="path2839"
       style="fill:#ffffa9;fill-opacity:1;fill-rule:evenodd;stroke:none"
       sodipodi:type="star" />
    <path
       transform="matrix(0.08440289,0,0,0.09210838,5.4202275,79.782317)"
       d="M 84.64286,77.500002 32.518577,50.143485 81.018413,81.157926 32.422474,47.935124 76.993814,84.370343 32.583395,45.730538 72.623489,87.093812 32.999165,43.55954 67.966539,89.291502 33.664161,41.45149 63.085942,90.933693 34.56939,39.434895 58.047698,91.998178 35.702611,37.537027 52.919943,92.47056 37.048499,35.78355 47.772019,92.344453 38.588852,34.198177 42.673544,91.62156 40.302841,32.802348 37.693465,90.311659 42.167286,31.61494 32.89913,88.432463 44.156974,30.652009 28.355375,86.009385 46.244998,29.926577 24.123644,83.075193 48.403121,29.448456 20.261166,79.669567 50.602158,29.22411 16.820174,75.838563 52.812371,29.256574 13.847201,71.633987 55.00387,29.545408 11.382451,67.1127 57.14702,30.086707 9.4592571,62.335845 59.212837,30.873151 8.1036257,57.36802 61.173386,31.894103 7.33389,52.276406 63.002153,33.135758 7.1604592,47.129859 64.674407,34.581324 7.5856787,41.997977 66.167534,36.211253 8.6037981,36.95016 67.461341,38.003502 10.201049,32.054671 68.538333,39.933834 12.355832,27.377714 69.383945,41.976145 15.039006,22.982535 69.986741,44.102817 18.214287,18.928572 70.33857,46.285089 21.838734,15.270648 70.434674,48.49345 25.863333,12.05823 70.273752,50.698036 30.233658,9.3347614 69.857982,52.869033 34.890608,7.1370713 69.192986,54.977083 39.771205,5.4948801 68.287757,56.993678 44.809449,4.4303956 67.154536,58.891547 49.937204,3.9580132 65.808648,60.645024 55.085128,4.0841209 64.268295,62.230396 60.183604,4.8070133 62.554306,63.626225 65.163682,6.1169147 60.689861,64.813634 69.958017,7.9961109 58.700173,65.776565 74.501773,10.419189 56.612149,66.501996 78.733503,13.353381 54.454026,66.980118 82.595981,16.759006 52.254989,67.204463 86.036973,20.590011 50.044776,67.172 89.009946,24.794586 47.853277,66.883165 91.474696,29.315873 45.710127,66.341866 93.39789,34.092728 43.64431,65.555423 94.753521,39.060554 41.683761,64.534471 95.523257,44.152167 39.854994,63.292816 95.696688,49.298714 38.18274,61.84725 95.271469,54.430596 36.689614,60.217321 94.253349,59.478413 35.395806,58.425072 92.656098,64.373902 34.318814,56.49474 90.501315,69.05086 33.473202,54.452428 87.818141,73.446039 32.870406,52.325757 84.64286,77.500002 z"
       inkscape:randomized="0"
       inkscape:rounded="0"
       inkscape:flatsided="false"
       sodipodi:arg2="3.0399244"
       sodipodi:arg1="0.72262361"
       sodipodi:r2="19.00815"
       sodipodi:r1="44.281395"
       sodipodi:cy="48.214287"
       sodipodi:cx="51.428574"
       sodipodi:sides="54"
       id="path3714"
       style="fill:#ffffa9;fill-opacity:1;fill-rule:evenodd;stroke:none"
       sodipodi:type="star" />
  </g>
</svg>
