<?xml version="1.0" encoding="UTF-8" standalone="no"?>
<!-- Created with Inkscape (http://www.inkscape.org/) -->

<svg
   xmlns:dc="http://purl.org/dc/elements/1.1/"
   xmlns:cc="http://creativecommons.org/ns#"
   xmlns:rdf="http://www.w3.org/1999/02/22-rdf-syntax-ns#"
   xmlns:svg="http://www.w3.org/2000/svg"
   xmlns="http://www.w3.org/2000/svg"
   xmlns:xlink="http://www.w3.org/1999/xlink"
   xmlns:sodipodi="http://sodipodi.sourceforge.net/DTD/sodipodi-0.dtd"
   xmlns:inkscape="http://www.inkscape.org/namespaces/inkscape"
   sodipodi:docname="plugins-desktop.svg"
   inkscape:version="0.47+devel r9425"
   sodipodi:version="0.32"
   id="svg1337"
   height="48"
   width="48"
   inkscape:output_extension="org.inkscape.output.svg.inkscape"
   version="1.1">
  <defs
     id="defs3">
    <linearGradient
       inkscape:collect="always"
       id="linearGradient5060">
      <stop
         style="stop-color:black;stop-opacity:1;"
         offset="0"
         id="stop5062" />
      <stop
         style="stop-color:black;stop-opacity:0;"
         offset="1"
         id="stop5064" />
    </linearGradient>
    <linearGradient
       id="linearGradient5048">
      <stop
         style="stop-color:black;stop-opacity:0;"
         offset="0"
         id="stop5050" />
      <stop
         id="stop5056"
         offset="0.5"
         style="stop-color:black;stop-opacity:1;" />
      <stop
         style="stop-color:black;stop-opacity:0;"
         offset="1"
         id="stop5052" />
    </linearGradient>
    <linearGradient
       id="linearGradient2736">
      <stop
         style="stop-color:#5a7aa4;stop-opacity:1;"
         offset="0"
         id="stop2738" />
      <stop
         style="stop-color:#3b516c;stop-opacity:1.0000000;"
         offset="1.0000000"
         id="stop2740" />
    </linearGradient>
    <linearGradient
       id="linearGradient6976">
      <stop
         id="stop6978"
         offset="0.0000000"
         style="stop-color:#c1c3ae;stop-opacity:1.0000000;" />
      <stop
         id="stop6980"
         offset="1.0000000"
         style="stop-color:#818373;stop-opacity:1.0000000;" />
    </linearGradient>
    <linearGradient
       inkscape:collect="always"
       xlink:href="#linearGradient5048"
       id="linearGradient3028"
       gradientUnits="userSpaceOnUse"
       gradientTransform="matrix(2.774389,0,0,1.969706,-1892.179,-872.8854)"
       x1="302.85715"
       y1="366.64789"
       x2="302.85715"
       y2="609.50507" />
    <radialGradient
       inkscape:collect="always"
       xlink:href="#linearGradient5060"
       id="radialGradient3030"
       gradientUnits="userSpaceOnUse"
       gradientTransform="matrix(2.774389,0,0,1.969706,-1891.633,-872.8854)"
       cx="605.71429"
       cy="486.64789"
       fx="605.71429"
       fy="486.64789"
       r="117.14286" />
    <radialGradient
       inkscape:collect="always"
       xlink:href="#linearGradient5060"
       id="radialGradient3032"
       gradientUnits="userSpaceOnUse"
       gradientTransform="matrix(-2.774389,0,0,1.969706,112.7623,-872.8854)"
       cx="605.71429"
       cy="486.64789"
       fx="605.71429"
       fy="486.64789"
       r="117.14286" />
    <linearGradient
       inkscape:collect="always"
       xlink:href="#linearGradient6976"
       id="linearGradient3034"
       gradientUnits="userSpaceOnUse"
       gradientTransform="matrix(1.444094,0,0,0.692475,-0.875,-0.75)"
       x1="5.9931116"
       y1="21.552935"
       x2="27.987148"
       y2="50.644867" />
    <linearGradient
       inkscape:collect="always"
       xlink:href="#linearGradient2736"
       id="linearGradient3036"
       gradientUnits="userSpaceOnUse"
       gradientTransform="matrix(-1.094203,0,0,0.913907,49.42097,-0.75)"
       x1="6.5210195"
       y1="35.292294"
       x2="6.5972648"
       y2="37.514896" />
    <linearGradient
       inkscape:collect="always"
       xlink:href="#linearGradient2736"
       id="linearGradient3038"
       gradientUnits="userSpaceOnUse"
       gradientTransform="matrix(-1.094203,0,0,0.913907,49.42097,-0.75)"
       x1="6.5210195"
       y1="35.292294"
       x2="6.5972648"
       y2="37.514896" />
    <linearGradient
       inkscape:collect="always"
       xlink:href="#linearGradient2736"
       id="linearGradient3040"
       gradientUnits="userSpaceOnUse"
       gradientTransform="matrix(-1.094203,0,0,0.913907,49.47622,-0.893632)"
       x1="6.5210195"
       y1="35.292294"
       x2="6.5972648"
       y2="37.514896" />
    <linearGradient
       inkscape:collect="always"
       xlink:href="#linearGradient2736"
       id="linearGradient3042"
       gradientUnits="userSpaceOnUse"
       gradientTransform="matrix(1.094203,0,0,0.913907,-2.051744,-0.893632)"
       x1="6.5210195"
       y1="35.292294"
       x2="6.5972648"
       y2="37.514896" />
    <linearGradient
       inkscape:collect="always"
       xlink:href="#linearGradient5048"
       id="linearGradient3849"
       gradientUnits="userSpaceOnUse"
       gradientTransform="matrix(2.774389,0,0,1.969706,-1892.179,-872.8854)"
       x1="302.85715"
       y1="366.64789"
       x2="302.85715"
       y2="609.50507" />
    <radialGradient
       inkscape:collect="always"
       xlink:href="#linearGradient5060"
       id="radialGradient3851"
       gradientUnits="userSpaceOnUse"
       gradientTransform="matrix(2.774389,0,0,1.969706,-1891.633,-872.8854)"
       cx="605.71429"
       cy="486.64789"
       fx="605.71429"
       fy="486.64789"
       r="117.14286" />
    <radialGradient
       inkscape:collect="always"
       xlink:href="#linearGradient5060"
       id="radialGradient3853"
       gradientUnits="userSpaceOnUse"
       gradientTransform="matrix(-2.774389,0,0,1.969706,112.7623,-872.8854)"
       cx="605.71429"
       cy="486.64789"
       fx="605.71429"
       fy="486.64789"
       r="117.14286" />
  </defs>
  <sodipodi:namedview
     inkscape:window-y="30"
     inkscape:window-x="0"
     inkscape:window-height="818"
     inkscape:window-width="993"
     inkscape:document-units="px"
     inkscape:grid-bbox="true"
     showgrid="false"
     inkscape:current-layer="layer1"
     inkscape:cy="24"
     inkscape:cx="24"
     inkscape:zoom="9.148194"
     inkscape:pageshadow="2"
     inkscape:pageopacity="0.0"
     borderopacity="0.77647059"
     bordercolor="#666666"
     pagecolor="#ffffff"
     id="base"
     inkscape:showpageshadow="false"
     inkscape:window-maximized="0">
    <inkscape:grid
       id="GridFromPre046Settings"
       type="xygrid"
       originx="0px"
       originy="0px"
       spacingx="1px"
       spacingy="1px"
       color="#0000ff"
       empcolor="#0000ff"
       opacity="0.2"
       empopacity="0.4"
       empspacing="4"
       visible="true"
       enabled="true"
       snapvisiblegridlinesonly="true" />
  </sodipodi:namedview>
  <metadata
     id="metadata4">
    <rdf:RDF>
      <cc:Work
         rdf:about="">
        <dc:format>image/svg+xml</dc:format>
        <dc:type
           rdf:resource="http://purl.org/dc/dcmitype/StillImage" />
        <dc:title>Desktop</dc:title>
        <dc:creator>
          <cc:Agent>
            <dc:title>Jakub Steiner</dc:title>
          </cc:Agent>
        </dc:creator>
        <dc:source>http://jimmac.musichall.cz</dc:source>
        <dc:description>Desktop location.</dc:description>
        <dc:subject>
          <rdf:Bag>
            <rdf:li>desktop</rdf:li>
            <rdf:li>storage</rdf:li>
            <rdf:li>files</rdf:li>
            <rdf:li>default location</rdf:li>
          </rdf:Bag>
        </dc:subject>
        <cc:license
           rdf:resource="http://creativecommons.org/licenses/publicdomain/" />
        <dc:contributor>
          <cc:Agent>
            <dc:title>Garrett LeSage</dc:title>
          </cc:Agent>
        </dc:contributor>
      </cc:Work>
      <cc:License
         rdf:about="http://creativecommons.org/licenses/publicdomain/">
        <cc:permits
           rdf:resource="http://creativecommons.org/ns#Reproduction" />
        <cc:permits
           rdf:resource="http://creativecommons.org/ns#Distribution" />
        <cc:permits
           rdf:resource="http://creativecommons.org/ns#DerivativeWorks" />
      </cc:License>
    </rdf:RDF>
  </metadata>
  <g
     inkscape:groupmode="layer"
     inkscape:label="Layer 1"
     id="layer1">
    <g
       style="display:inline"
       transform="matrix(0.02306624,0,0,0.02190699,44.362899,32.308832)"
       id="g6707">
      <rect
         style="opacity:0.40206185;color:#000000;fill:url(#linearGradient3849);fill-opacity:1;fill-rule:nonzero;stroke:none;stroke-width:1;marker:none;visibility:visible;display:inline;overflow:visible"
         id="rect6709"
         width="1339.6335"
         height="478.35718"
         x="-1559.2523"
         y="-150.69685" />
      <path
         style="opacity:0.40206185;color:#000000;fill:url(#radialGradient3851);fill-opacity:1;fill-rule:nonzero;stroke:none;stroke-width:1;marker:none;visibility:visible;display:inline;overflow:visible"
         d="m -219.61876,-150.68038 c 0,0 0,478.33079 0,478.33079 142.874166,0.90045 345.40022,-107.16966 345.40014,-239.196175 0,-132.026537 -159.436816,-239.134595 -345.40014,-239.134615 z"
         id="path6711"
         sodipodi:nodetypes="cccc"
         inkscape:connector-curvature="0" />
      <path
         sodipodi:nodetypes="cccc"
         id="path6713"
         d="m -1559.2523,-150.68038 c 0,0 0,478.33079 0,478.33079 -142.8742,0.90045 -345.4002,-107.16966 -345.4002,-239.196175 0,-132.026537 159.4368,-239.134595 345.4002,-239.134615 z"
         style="opacity:0.40206185;color:#000000;fill:url(#radialGradient3853);fill-opacity:1;fill-rule:nonzero;stroke:none;stroke-width:1;marker:none;visibility:visible;display:inline;overflow:visible"
         inkscape:connector-curvature="0" />
    </g>
    <g
       id="g3968"
       transform="matrix(1.050891,0,0,1.0473374,-1.3086059,0.22758811)"
       inkscape:r_cx="true"
       inkscape:r_cy="true">
      <path
         transform="matrix(0.97258,0,0,1.014707,0.392838,-0.586934)"
         style="fill:url(#linearGradient3034);fill-opacity:1;fill-rule:evenodd;stroke:#404040;stroke-width:1.00729263;stroke-linecap:round;stroke-linejoin:round;stroke-miterlimit:4;stroke-opacity:1"
         d="M 9.57758,15.426169 3.5668796,32.458193 c -0.169748,0.481001 0.2165253,1.01027 0.6858438,1.009795 l 39.3821156,-0.03982 c 0.687951,-6.96e-4 1.175326,-0.770533 0.897052,-1.451205 L 37.832213,15.58921 c -0.190039,-0.464845 -0.829669,-0.865372 -1.447079,-0.865957 l -25.552933,-0.02419 c -0.483363,-4.58e-4 -1.035628,0.106566 -1.254621,0.727108 z"
         id="path6215"
         sodipodi:nodetypes="cssssssss"
         inkscape:r_cx="true"
         inkscape:r_cy="true"
         inkscape:connector-curvature="0" />
      <path
         transform="matrix(0.97258,0,0,1.014707,0.392838,-0.586934)"
         sodipodi:nodetypes="ccccccccc"
         style="fill:#ffffff;fill-opacity:0.40935669;fill-rule:evenodd;stroke:none"
         d="m 4.125,32.875 5.9375,-17.3125 0.875,-0.375 25.5,0.0625 0.875,0.8125 -26,0 -0.375,0.1875 -5.3125,15.5 -1.5,1.125 z"
         id="path6984"
         inkscape:r_cx="true"
         inkscape:r_cy="true"
         inkscape:connector-curvature="0" />
      <path
         transform="matrix(0.97258,0,0,1.014707,0.392838,-0.586934)"
         sodipodi:nodetypes="ccccccc"
         id="path2344"
         d="m 4.375,33.25 39.25,0.0625 0.5625,-0.6875 -6.8125,-16.9375 6.125,16.125 -38.125,0.125 -1,1.3125 z"
         style="fill:#000000;fill-opacity:0.12865499;fill-rule:evenodd;stroke:none"
         inkscape:r_cx="true"
         inkscape:r_cy="true"
         inkscape:connector-curvature="0" />
    </g>
    <g
       id="g3952"
       transform="matrix(1.0498097,0,0,1.0498097,-1.3050138,0.01203488)">
      <path
         transform="matrix(0.97258,0,0,1.014707,0.392838,-0.586934)"
         sodipodi:nodetypes="csccccsss"
         id="path2726"
         d="M 4.046875,28.34375 C 4.1409134,28.128279 4.3632709,27.972762 4.6875,27.976562 l 2,0.02344 3.1875,3.78125 c 0,0 -0.52501,1.295042 -0.303305,2.122456 0.45608,0.405539 -0.0092,0.674419 -0.0092,0.674419 0,0 -6,0 -6.5,0 -0.5,0 -1.1236997,-1.265085 -0.8125,-2.015625 0.796875,-1.921875 0.9259179,-2.223121 1.796875,-4.21875 z"
         style="color:#000000;fill:url(#linearGradient3036);fill-opacity:1;fill-rule:evenodd;stroke:#272840;stroke-width:1.00662374;stroke-linecap:round;stroke-linejoin:round;stroke-miterlimit:4;stroke-opacity:1;stroke-dashoffset:0;marker:none;visibility:visible;display:inline;overflow:visible"
         inkscape:r_cx="true"
         inkscape:r_cy="true"
         inkscape:connector-curvature="0" />
      <path
         transform="matrix(0.97258,0,0,1.014707,0.392838,-0.586934)"
         sodipodi:nodetypes="ccccccc"
         id="path2744"
         d="M 4.53125,28.53125 2.703125,32.75 l 6.21875,0 L 3.515625,32.21875 5,28.859375 6.453125,28.515625 4.53125,28.53125 z"
         style="fill:#ffffff;fill-opacity:0.48538011;fill-rule:evenodd;stroke:none"
         inkscape:r_cx="true"
         inkscape:r_cy="true"
         inkscape:connector-curvature="0" />
    </g>
    <g
       id="g3956"
       transform="matrix(1.0498097,0,0,1.0498097,-1.3050138,0.01203488)">
      <path
         transform="matrix(0.97258,0,0,1.014707,0.392838,-0.586934)"
         sodipodi:nodetypes="csccccsss"
         id="path2746"
         d="m 44.499083,28.34375 c -0.09404,-0.215471 -0.316396,-0.370988 -0.640625,-0.367188 l -2,0.02344 -3.1875,3.78125 c 0,0 0.52501,1.295042 0.303305,2.122456 -0.45608,0.405539 0.0092,0.674419 0.0092,0.674419 0,0 6,0 6.5,0 0.5,0 1.1237,-1.265085 0.8125,-2.015625 -0.796875,-1.921875 -0.925918,-2.223121 -1.796875,-4.21875 z"
         style="color:#000000;fill:url(#linearGradient3038);fill-opacity:1;fill-rule:evenodd;stroke:#272840;stroke-width:1.00662374;stroke-linecap:round;stroke-linejoin:round;stroke-miterlimit:4;stroke-opacity:1;stroke-dashoffset:0;marker:none;visibility:visible;display:inline;overflow:visible"
         inkscape:r_cx="true"
         inkscape:r_cy="true"
         inkscape:connector-curvature="0" />
      <path
         transform="matrix(0.97258,0,0,1.014707,0.392838,-0.586934)"
         id="path2750"
         d="m 43.937892,28.489573 -1.834058,0 -2.872621,3.380854 c 0,0 0.243068,0.817593 0.287262,1.259534 0.04419,0.441942 -0.110485,0.994369 -0.110485,0.994369 0,0 0.662912,-0.90598 0.574524,-1.392116 C 39.894125,32.246078 39.78364,31.84833 39.78364,31.84833 l 2.541165,-3.093592 1.613087,-0.265165 z"
         style="color:#000000;fill:#ffffff;fill-opacity:0.48538011;fill-rule:evenodd;stroke:none;stroke-width:1px;marker:none;visibility:visible;display:inline;overflow:visible"
         inkscape:r_cx="true"
         inkscape:r_cy="true"
         inkscape:connector-curvature="0" />
    </g>
    <g
       id="g3964"
       transform="matrix(1.0498097,0,0,1.0498097,-1.3050138,0.01203488)">
      <path
         transform="matrix(0.97258,0,0,1.014707,0.392838,-0.586934)"
         sodipodi:nodetypes="csscssc"
         id="path2752"
         d="m 8.8919123,17.407878 5.4248377,-2.65165 c 0.360029,-0.175982 -0.30637,-0.972272 -0.707107,-0.972272 l -4.331029,0 -1.2374396,3.18198 c -0.1761173,0.452873 0.3311272,1.870872 0.4971845,1.414214 l 0.3535534,-0.972272 z"
         style="color:#000000;fill:url(#linearGradient3040);fill-opacity:1;fill-rule:evenodd;stroke:#272840;stroke-width:0.80529904;stroke-linecap:round;stroke-linejoin:round;stroke-miterlimit:4;stroke-opacity:1;stroke-dashoffset:0;marker:none;visibility:visible;display:inline;overflow:visible"
         inkscape:r_cx="true"
         inkscape:r_cy="true"
         inkscape:connector-curvature="0" />
      <path
         transform="matrix(0.97258,0,0,1.014707,0.392838,-0.586934)"
         sodipodi:nodetypes="cscccsc"
         id="path2756"
         d="M 8.5052134,17.89402 C 8.3737613,17.618724 8.3189303,17.31835 8.4941649,16.877554 l 1.0717091,-2.695845 4.010621,0.01105 -3.579727,0.430893 -1.3037293,2.298097 C 8.371541,17.488455 8.4558528,17.547475 8.5052134,17.89402 z"
         style="color:#000000;fill:#ffffff;fill-opacity:0.48538011;fill-rule:evenodd;stroke:none;stroke-width:1px;marker:none;visibility:visible;display:inline;overflow:visible"
         inkscape:r_cx="true"
         inkscape:r_cy="true"
         inkscape:connector-curvature="0" />
    </g>
    <g
       id="g3960"
       transform="matrix(1.0498097,0,0,1.0498097,-1.3050138,0.01203488)">
      <path
         transform="matrix(0.97258,0,0,1.014707,0.392838,-0.586934)"
         sodipodi:nodetypes="csscssc"
         id="path2758"
         d="m 38.532564,17.407878 -5.424838,-2.65165 c -0.360029,-0.175982 0.30637,-0.972272 0.707107,-0.972272 l 4.331029,0 1.23744,3.18198 c 0.176117,0.452873 -0.331128,1.870872 -0.497185,1.414214 l -0.353553,-0.972272 z"
         style="color:#000000;fill:url(#linearGradient3042);fill-opacity:1;fill-rule:evenodd;stroke:#272840;stroke-width:0.80529904;stroke-linecap:round;stroke-linejoin:round;stroke-miterlimit:4;stroke-opacity:1;stroke-dashoffset:0;marker:none;visibility:visible;display:inline;overflow:visible"
         inkscape:r_cx="true"
         inkscape:r_cy="true"
         inkscape:connector-curvature="0" />
      <path
         transform="matrix(0.97258,0,0,1.014707,0.392838,-0.586934)"
         sodipodi:nodetypes="cscccccs"
         id="path2762"
         d="m 37.875,14.203125 c 0,0 -3.78125,-0.04687 -4.015625,-0.03125 C 33.625,14.1875 33.46875,14.46875 33.46875,14.46875 c 0,0 5.125,2.5 5.25,2.578125 0.125,0.07813 0.25,0.359375 0.25,0.359375 0,0 0.04687,-0.40625 -0.1875,-0.59375 -0.234375,-0.1875 -4.012817,-2.173765 -4.6875,-2.421875 2.107456,-0.177171 2.442708,-0.130208 3.78125,-0.1875 z"
         style="color:#000000;fill:#ffffff;fill-opacity:0.48538011;fill-rule:evenodd;stroke:none;stroke-width:1px;marker:none;visibility:visible;display:inline;overflow:visible"
         inkscape:r_cx="true"
         inkscape:r_cy="true"
         inkscape:connector-curvature="0" />
    </g>
  </g>
  <g
     inkscape:groupmode="layer"
     id="layer2"
     inkscape:label="palette" />
</svg>
