<?xml version="1.0" encoding="UTF-8" standalone="no"?>
<!-- Created with Inkscape (http://www.inkscape.org/) -->

<svg
   xmlns:dc="http://purl.org/dc/elements/1.1/"
   xmlns:cc="http://creativecommons.org/ns#"
   xmlns:rdf="http://www.w3.org/1999/02/22-rdf-syntax-ns#"
   xmlns:svg="http://www.w3.org/2000/svg"
   xmlns="http://www.w3.org/2000/svg"
   xmlns:xlink="http://www.w3.org/1999/xlink"
   xmlns:sodipodi="http://sodipodi.sourceforge.net/DTD/sodipodi-0.dtd"
   xmlns:inkscape="http://www.inkscape.org/namespaces/inkscape"
   inkscape:export-ydpi="90.000000"
   inkscape:export-xdpi="90.000000"
   inkscape:export-filename="/home/patrick/Desktop/extras.png"
   width="48"
   height="48"
   id="svg11300"
   sodipodi:version="0.32"
   inkscape:version="0.47+devel r9425"
   sodipodi:docname="plugins-extras.svg"
   inkscape:output_extension="org.inkscape.output.svg.inkscape"
   version="1.0">
  <defs
     id="defs3">
    <linearGradient
       id="linearGradient8694">
      <stop
         style="stop-color:#babdb6;stop-opacity:1"
         offset="0"
         id="stop8696" />
      <stop
         id="stop8698"
         offset="0.06297335"
         style="stop-color:#eeeeec;stop-opacity:1" />
      <stop
         style="stop-color:#babdb6;stop-opacity:1"
         offset="1"
         id="stop8700" />
    </linearGradient>
    <linearGradient
       id="linearGradient4399">
      <stop
         id="stop4401"
         offset="0"
         style="stop-color:#babdb6;stop-opacity:1" />
      <stop
         style="stop-color:#eeeeec;stop-opacity:1"
         offset="0.38353434"
         id="stop4403" />
      <stop
         id="stop4405"
         offset="1"
         style="stop-color:#babdb6;stop-opacity:1" />
    </linearGradient>
    <linearGradient
       id="linearGradient13113">
      <stop
         style="stop-color:#babdb6;stop-opacity:1"
         offset="0"
         id="stop13115" />
      <stop
         style="stop-color:#eeeeec;stop-opacity:1"
         offset="1"
         id="stop13117" />
    </linearGradient>
    <linearGradient
       id="linearGradient11167">
      <stop
         style="stop-color:#babdb6;stop-opacity:1"
         offset="0"
         id="stop11169" />
      <stop
         style="stop-color:#888a85;stop-opacity:1"
         offset="1"
         id="stop11171" />
    </linearGradient>
    <linearGradient
       inkscape:collect="always"
       id="linearGradient30743">
      <stop
         style="stop-color:#000000;stop-opacity:1;"
         offset="0"
         id="stop30745" />
      <stop
         style="stop-color:#000000;stop-opacity:0;"
         offset="1"
         id="stop30747" />
    </linearGradient>
    <radialGradient
       inkscape:collect="always"
       xlink:href="#linearGradient30743"
       id="radialGradient19051"
       gradientUnits="userSpaceOnUse"
       gradientTransform="matrix(1,0,0,0.6052632,0,2.3684209)"
       cx="10.5"
       cy="5.9999995"
       fx="10.5"
       fy="5.9999995"
       r="9.5" />
    <radialGradient
       inkscape:collect="always"
       xlink:href="#linearGradient8694"
       id="radialGradient5980"
       gradientUnits="userSpaceOnUse"
       cx="23.421877"
       cy="7.7656231"
       fx="23.421877"
       fy="7.7656231"
       r="2.265625" />
    <linearGradient
       inkscape:collect="always"
       xlink:href="#linearGradient4399"
       id="linearGradient5992"
       gradientUnits="userSpaceOnUse"
       gradientTransform="matrix(-0.92733327,0.11308772,0.08696718,0.75547014,49.312304,-1.8210845)"
       x1="9.7987633"
       y1="-6.8718114"
       x2="20.562675"
       y2="-21.803713" />
    <linearGradient
       inkscape:collect="always"
       xlink:href="#linearGradient4399"
       id="linearGradient6000"
       gradientUnits="userSpaceOnUse"
       gradientTransform="matrix(0.9599263,0,0,0.64575448,0.54765966,-0.33812191)"
       x1="9.7987633"
       y1="-6.8718114"
       x2="22.805996"
       y2="-23.963099" />
    <linearGradient
       inkscape:collect="always"
       xlink:href="#linearGradient4399"
       id="linearGradient6004"
       gradientUnits="userSpaceOnUse"
       gradientTransform="matrix(-1.3988706,0,0,1.4473259,57.177053,-26.356372)"
       x1="22.124538"
       y1="16.003416"
       x2="18.7372"
       y2="24.440916" />
    <linearGradient
       inkscape:collect="always"
       xlink:href="#linearGradient4399"
       id="linearGradient6008"
       gradientUnits="userSpaceOnUse"
       gradientTransform="matrix(1.3988706,0,0,1.4473259,-8.5568592,-26.131243)"
       x1="22.124538"
       y1="16.003416"
       x2="18.7372"
       y2="24.440916" />
    <linearGradient
       inkscape:collect="always"
       xlink:href="#linearGradient11167"
       id="linearGradient6013"
       gradientUnits="userSpaceOnUse"
       gradientTransform="matrix(1.0848136,0,0,1.1159381,-3.0714365,-22.377797)"
       x1="34.066963"
       y1="17.2848"
       x2="48.998604"
       y2="61.307819" />
    <linearGradient
       inkscape:collect="always"
       xlink:href="#linearGradient13113"
       id="linearGradient6016"
       gradientUnits="userSpaceOnUse"
       gradientTransform="matrix(1.1121957,0,0,1.1337645,-0.30790972,-22.586314)"
       x1="13.550322"
       y1="42.824184"
       x2="8.8452864"
       y2="17.531681" />
  </defs>
  <sodipodi:namedview
     stroke="#ef2929"
     fill="#eeeeec"
     id="base"
     pagecolor="#ffffff"
     bordercolor="#666666"
     borderopacity="0.25490196"
     inkscape:pageopacity="0.0"
     inkscape:pageshadow="2"
     inkscape:zoom="7.115262"
     inkscape:cx="24"
     inkscape:cy="24"
     inkscape:current-layer="layer1"
     showgrid="false"
     inkscape:grid-bbox="true"
     inkscape:document-units="px"
     inkscape:showpageshadow="false"
     inkscape:window-width="906"
     inkscape:window-height="680"
     inkscape:window-x="177"
     inkscape:window-y="76"
     showguides="true"
     inkscape:guide-bbox="true"
     inkscape:window-maximized="0">
    <inkscape:grid
       type="xygrid"
       id="grid7916"
       visible="true"
       enabled="true"
       empspacing="5"
       snapvisiblegridlinesonly="true" />
  </sodipodi:namedview>
  <metadata
     id="metadata4">
    <rdf:RDF>
      <cc:Work
         rdf:about="">
        <dc:format>image/svg+xml</dc:format>
        <dc:type
           rdf:resource="http://purl.org/dc/dcmitype/StillImage" />
        <dc:creator>
          <cc:Agent>
            <dc:title>Patrick Niklaus</dc:title>
          </cc:Agent>
        </dc:creator>
        <dc:source />
        <cc:license
           rdf:resource="http://creativecommons.org/licenses/GPL/2.0/" />
        <dc:title>Image</dc:title>
        <dc:subject>
          <rdf:Bag />
        </dc:subject>
      </cc:Work>
      <cc:License
         rdf:about="http://creativecommons.org/licenses/GPL/2.0/">
        <cc:permits
           rdf:resource="http://web.resource.org/cc/Reproduction" />
        <cc:permits
           rdf:resource="http://web.resource.org/cc/Distribution" />
        <cc:requires
           rdf:resource="http://web.resource.org/cc/Notice" />
        <cc:permits
           rdf:resource="http://web.resource.org/cc/DerivativeWorks" />
        <cc:requires
           rdf:resource="http://web.resource.org/cc/ShareAlike" />
        <cc:requires
           rdf:resource="http://web.resource.org/cc/SourceCode" />
      </cc:License>
    </rdf:RDF>
  </metadata>
  <g
     id="layer1"
     inkscape:label="Layer 1"
     inkscape:groupmode="layer"
     transform="translate(0,16)">
    <path
       sodipodi:type="arc"
       style="opacity:0.53896107;fill:url(#radialGradient19051);fill-opacity:1;fill-rule:evenodd;stroke:none"
       id="path29772"
       sodipodi:cx="10.5"
       sodipodi:cy="5.9999995"
       sodipodi:rx="9.5"
       sodipodi:ry="5.75"
       d="m 20,5.9999995 a 9.5,5.75 0 1 1 -19,0 9.5,5.75 0 1 1 19,0 z"
       transform="matrix(2.4830488,0,0,1.0256072,-2.041737,19.191303)" />
    <path
       style="fill:#729fcf;fill-opacity:1;fill-rule:evenodd;stroke:#204a87;stroke-width:1.47431004;stroke-linecap:butt;stroke-linejoin:miter;stroke-miterlimit:4;stroke-opacity:1;stroke-dasharray:none;stroke-dashoffset:0"
       d="m 24.16526,-10.318759 -20.0084659,4.7547679 0,29.3931131 19.8884869,5.001769 19.888464,-5.001771 0,-29.3931111 z"
       id="path2219"
       sodipodi:nodetypes="ccccccc"
       inkscape:connector-curvature="0" />
    <path
       style="fill:none;stroke:#ffffff;stroke-width:1.47431004;stroke-linecap:butt;stroke-linejoin:miter;stroke-miterlimit:4;stroke-opacity:0.47058824;stroke-dashoffset:0"
       d="m 24.147095,-9.448772 -18.545715,4.4538939 0,27.6816501 18.428889,4.722208 18.428867,-4.722208 0,-27.6586529 z"
       id="path3961"
       sodipodi:nodetypes="ccccccc"
       inkscape:connector-curvature="0" />
    <path
       sodipodi:nodetypes="cc"
       id="path4346"
       d="m 24.809844,-1.1700682 -0.0425,29.0136442"
       style="fill:none;stroke:#ffffff;stroke-width:1.47431004px;stroke-linecap:butt;stroke-linejoin:miter;stroke-opacity:0.47058824"
       inkscape:connector-curvature="0" />
    <path
       style="fill:none;stroke:#204a87;stroke-width:1.47431004px;stroke-linecap:butt;stroke-linejoin:miter;stroke-opacity:1"
       d="M 4.1267938,-5.5331202 23.985258,-0.53135119 43.723766,-5.656622"
       id="path2811"
       inkscape:connector-curvature="0" />
    <path
       style="fill:none;stroke:#204a87;stroke-width:1.47431004px;stroke-linecap:butt;stroke-linejoin:miter;stroke-opacity:1"
       d="M 23.335532,-0.58170057 23.293033,29.022502"
       id="path2813"
       sodipodi:nodetypes="cc"
       inkscape:connector-curvature="0" />
    <path
       id="path3963"
       d="m 8.1961464,-6.0216756 15.7389586,3.95202 15.804122,-4.1561114"
       style="fill:none;stroke:#ffffff;stroke-width:1.47431004px;stroke-linecap:butt;stroke-linejoin:miter;stroke-opacity:0.47058824"
       sodipodi:nodetypes="ccc"
       inkscape:connector-curvature="0" />
    <path
       style="fill:url(#linearGradient6016);fill-opacity:1;fill-rule:evenodd;stroke:#888a85;stroke-width:1.47431004;stroke-linecap:butt;stroke-linejoin:miter;stroke-miterlimit:4;stroke-opacity:1;stroke-dasharray:none"
       d="m 11.537128,25.543099 -0.03838,-29.5430992 21.379661,-5.2739793 5.03816,1.1774847 -20.438775,5.5084114 -0.02628,29.5803144 z"
       id="path2375"
       sodipodi:nodetypes="ccccccc"
       inkscape:connector-curvature="0" />
    <path
       style="fill:url(#linearGradient6013);fill-opacity:1;fill-rule:evenodd;stroke:#888a85;stroke-width:1.47431004;stroke-linecap:butt;stroke-linejoin:miter;stroke-miterlimit:4;stroke-opacity:1;stroke-dasharray:none"
       d="m 36.582771,25.074083 0.0023,-29.4954543 -20.596111,-4.8840251 -4.914114,1.1589543 19.678416,5.07284 0.02056,29.5552911 z"
       id="path6271"
       sodipodi:nodetypes="ccccccc"
       inkscape:connector-curvature="0" />
    <path
       style="fill:#ef2929;stroke:#ffffff;stroke-width:1.47431016;stroke-linecap:butt;stroke-linejoin:miter;stroke-miterlimit:4;stroke-opacity:0.46945334"
       d="m 28.14532,-8.5462028 -15.17238,5.0249102 0.01143,27.9890946 2.965395,0.731517 -0.02947,-28.2060316 c 0.0069,-0.4390788 -0.159484,-0.7515301 0.156742,-0.8584163 l 12.75565,-4.4655193 z"
       id="path6636"
       sodipodi:nodetypes="cccccccc"
       inkscape:connector-curvature="0" />
    <path
       sodipodi:nodetypes="cccccccc"
       style="fill:url(#linearGradient6008);fill-opacity:1;fill-rule:evenodd;stroke:#888a85;stroke-width:1.47431004;stroke-linecap:butt;stroke-linejoin:miter;stroke-miterlimit:4;stroke-opacity:1;stroke-dasharray:none"
       d="m 23.446371,-6.5786331 -6.698621,4.3824803 -3.282215,14.7308518 3.721436,-4.8814761 3.24616,3.9414641 -0.09368,-12.8714449 5.270669,-4.5982702 z"
       id="path9209"
       inkscape:connector-curvature="0" />
    <path
       sodipodi:nodetypes="ccccccc"
       id="path8944"
       d="m 21.104494,-3.910479 -3.01669,2.5659473 -1.750439,7.7714582 0.878692,-0.9866752 1.65059,1.9587798 c -0.03564,-0.094365 -0.01142,-9.5051921 0.0091,-9.5206401 z"
       style="fill:#ef2929;stroke:#ffffff;stroke-width:1.47431016;stroke-linecap:butt;stroke-linejoin:miter;stroke-miterlimit:4;stroke-opacity:0.47058824;stroke-dasharray:none"
       inkscape:connector-curvature="0" />
    <path
       style="fill:#ef2929;stroke:#ffffff;stroke-width:1.47431016;stroke-linecap:butt;stroke-linejoin:miter;stroke-miterlimit:4;stroke-opacity:0.46945334"
       d="m 20.340616,-9.4402723 14.747074,5.2432318 0.03884,28.0972475 -2.918624,0.731174 -0.03473,-28.4230011 c 0.0091,-0.5482247 -0.02056,-0.7733484 -0.861259,-0.9020574 L 19.666123,-9.2246948 z"
       id="path8687"
       sodipodi:nodetypes="cccccccc"
       inkscape:connector-curvature="0" />
    <path
       id="path10907"
       d="M 25.173824,-6.8037613 32.45881,-2.5190095 35.182809,12.840026 31.05814,8.5372343 27.715627,14.461993 27.744188,-1.4818341 23.010167,-6.1001563 z"
       style="fill:url(#linearGradient6004);fill-opacity:1;fill-rule:evenodd;stroke:#888a85;stroke-width:1.47431004;stroke-linecap:butt;stroke-linejoin:miter;stroke-miterlimit:4;stroke-opacity:1;stroke-dasharray:none"
       sodipodi:nodetypes="cccccccc"
       inkscape:connector-curvature="0" />
    <path
       style="fill:#ef2929;stroke:#ffffff;stroke-width:1.47431016;stroke-linecap:butt;stroke-linejoin:miter;stroke-miterlimit:4;stroke-opacity:0.47058824;stroke-dasharray:none"
       d="m 27.053243,-4.1859703 4.086078,2.6381606 1.698115,9.8718588 -2.163063,-2.2807956 -1.466749,2.7501672 c -0.0818,-0.2716778 0.02285,-10.8642416 0.0014,-10.8515468 z"
       id="path10909"
       sodipodi:nodetypes="ccccccc"
       inkscape:connector-curvature="0" />
    <path
       style="fill:url(#linearGradient6000);fill-opacity:1;fill-rule:evenodd;stroke:#888a85;stroke-width:1.47431004;stroke-linecap:butt;stroke-linejoin:miter;stroke-miterlimit:4;stroke-opacity:1;stroke-dasharray:none;stroke-dashoffset:0"
       d="m 14.466582,-12.048679 c -1.89916,0 -3.644641,0.39398 -4.9495982,1.080629 -1.3049804,0.686649 -2.1898418,1.7111842 -2.1898418,2.8405038 0,1.1293196 0.8848614,2.1538734 2.1898418,2.8405178 1.3049572,0.6866444 3.0504382,1.0806245 4.9495982,1.0806245 1.742236,0 4.288495,-0.11205 6.509525,-0.4631225 1.110492,-0.1755694 2.151845,-0.4108035 2.99976,-0.7718769 0.847892,-0.3610734 1.58988,-0.9516367 1.58988,-1.6981196 0,-0.7465126 -0.633068,-1.3401674 -1.409901,-1.8833951 -0.77681,-0.5432277 -1.773584,-1.045031 -2.879781,-1.482012 -2.212394,-0.87394 -4.753328,-1.543749 -6.809483,-1.543749 z m 0.180048,2.9948924 c 0.156285,0 0.973743,0.09208 1.859838,0.2778859 0.886118,0.1857598 1.924363,0.4367756 2.759803,0.7409831 -1.350929,0.045012 -2.699162,0.1288667 -4.04968,0.1853029 -0.847001,-0.029246 -3.329855,-0.1014482 -3.209762,-0.5866173 0.07974,-0.059407 0.20084,-0.1391486 0.359981,-0.2161487 0.449274,-0.2179766 1.304638,-0.4013602 2.27982,-0.4013602 z"
       id="path12074"
       inkscape:connector-curvature="0" />
    <path
       sodipodi:type="inkscape:offset"
       inkscape:radius="-1.4549929"
       inkscape:original="M 15.1875 -15.625 C 13.209036 -15.625 11.390697 -15.226237 10.03125 -14.53125 C 8.6718026 -13.836263 7.7499997 -12.799287 7.75 -11.65625 C 7.75 -10.513213 8.6718027 -9.4762374 10.03125 -8.78125 C 11.390697 -8.0862623 13.209036 -7.6875 15.1875 -7.6875 C 17.002446 -7.6874999 19.655011 -7.8008513 21.96875 -8.15625 C 23.12562 -8.3339489 24.210451 -8.5720459 25.09375 -8.9375 C 25.977049 -9.3029539 26.75 -9.9006896 26.75 -10.65625 C 26.75 -11.411811 26.090496 -12.012677 25.28125 -12.5625 C 24.472004 -13.112323 23.433623 -13.620217 22.28125 -14.0625 C 19.976504 -14.947066 17.329482 -15.624999 15.1875 -15.625 z M 15.375 -12.59375 C 15.537851 -12.59375 16.389403 -12.500536 17.3125 -12.3125 C 18.235597 -12.124464 19.317185 -11.870389 20.1875 -11.5625 C 18.78017 -11.516816 17.375664 -11.432058 15.96875 -11.375 C 15.086411 -11.404463 12.499896 -11.477658 12.625 -11.96875 C 12.708145 -12.028837 12.83434 -12.109438 13 -12.1875 C 13.468035 -12.408047 14.359115 -12.59375 15.375 -12.59375 z "
       style="fill:none;stroke:#ffffff;stroke-width:1.51387703;stroke-linecap:butt;stroke-linejoin:miter;stroke-miterlimit:4;stroke-opacity:0.47058824;stroke-dasharray:none;stroke-dashoffset:0"
       id="path14394"
       d="m 15.1875,-14.15625 c -1.78296,0 -3.407916,0.347946 -4.5,0.90625 -1.0745049,0.549317 -1.4687501,1.232967 -1.46875,1.59375 0,0.360784 0.3942448,1.044433 1.46875,1.59375 1.092083,0.5583039 2.71704,0.90625 4.5,0.90625 1.754365,10e-8 4.367816,-0.1003886 6.5625,-0.4375 1.09901,-0.1688114 2.080538,-0.3975892 2.78125,-0.6875 0.321245,-0.132911 0.601624,-0.325809 0.71875,-0.4375 -0.01103,-0.01658 0.016,0.02441 -0.03125,-0.03125 -0.122856,-0.144726 -0.397195,-0.354045 -0.75,-0.59375 -0.675203,-0.458751 -1.641284,-0.961466 -2.71875,-1.375 -2.18899,-0.840139 -4.727519,-1.437499 -6.5625,-1.4375 z m 0.1875,0.09375 c 0.359032,0 0.497262,0.04303 0.875,0.09375 0.377738,0.05072 0.842533,0.116652 1.34375,0.21875 0.956468,0.194834 2.103384,0.462141 3.09375,0.8125 a 1.4551384,1.4551384 0 0 1 -0.4375,2.84375 c -1.380378,0.04481 -2.792718,0.1296667 -4.21875,0.1875 a 1.4551384,1.4551384 0 0 1 -0.125,0 c -0.43394,-0.01449 -1.322684,-0.062503 -2.15625,-0.15625 -0.416783,-0.04687 -0.795994,-0.08346 -1.21875,-0.21875 -0.211378,-0.06765 -0.440311,-0.155029 -0.75,-0.40625 -0.309689,-0.251221 -0.727245,-0.978297 -0.5625,-1.625 a 1.4551384,1.4551384 0 0 1 0.5625,-0.84375 c 0.14897,-0.107657 0.336482,-0.22252 0.59375,-0.34375 0.827312,-0.389845 1.806801,-0.5625 3,-0.5625 z"
       transform="matrix(0.95992636,0,0,0.98800384,-0.11227897,3.3888817)" />
    <path
       style="fill:none;stroke:#888a85;stroke-width:1.47431004;stroke-linecap:butt;stroke-linejoin:miter;stroke-miterlimit:4;stroke-opacity:1;stroke-dasharray:none"
       d="m 12.27128,-8.5202467 c -2.6063966,1.3764511 -1.944127,3.4156949 -0.912097,4.1153425"
       id="path10925"
       sodipodi:nodetypes="cc"
       inkscape:connector-curvature="0" />
    <path
       style="fill:none;stroke:#888a85;stroke-width:1.47431004;stroke-linecap:butt;stroke-linejoin:miter;stroke-miterlimit:4;stroke-opacity:1;stroke-dasharray:none"
       d="m 17.795432,-8.3701993 c 4.14866,0.7151641 4.747456,2.9708719 4.818561,3.6644623"
       id="path10927"
       sodipodi:nodetypes="cc"
       inkscape:connector-curvature="0" />
    <path
       id="path16315"
       d="m 34.288831,-13.88151 c 1.834705,-0.223689 3.57397,0.03153 4.927093,0.681096 1.353145,0.649589 2.345944,1.74395 2.498025,3.065153 0.152172,1.3212029 -0.564729,2.6240584 -1.732937,3.5810988 -1.168185,0.9570565 -2.801318,1.6236077 -4.636023,1.847349 -1.683058,0.2052499 -4.15796,0.3741954 -6.35084,0.2250597 -1.096441,-0.074601 -2.134137,-0.2270932 -3.001862,-0.5496231 -0.867748,-0.3225208 -1.664071,-0.9260142 -1.764605,-1.7993462 -0.100534,-0.8733228 0.431087,-1.6424327 1.10839,-2.3694782 0.677281,-0.7270455 1.57263,-1.431516 2.582406,-2.073062 2.01955,-1.283091 4.384025,-2.366028 6.370353,-2.608247 z m 0.229469,3.524914 c -0.151029,0.01828 -0.928273,0.222546 -1.759303,0.5442099 -0.830985,0.3217325 -1.800158,0.7377158 -2.566274,1.1920164 1.311149,-0.1062464 2.624881,-0.1672524 3.93715,-0.2603609 0.814281,-0.1338933 3.203113,-0.5109425 3.021762,-1.0644293 -0.085,-0.060092 -0.212949,-0.1389201 -0.376866,-0.2104361 -0.463371,-0.201983 -1.314417,-0.315884 -2.256469,-0.201069 z"
       style="fill:url(#linearGradient5992);fill-opacity:1;fill-rule:evenodd;stroke:#888a85;stroke-width:1.47431004;stroke-linecap:butt;stroke-linejoin:miter;stroke-miterlimit:4;stroke-opacity:1;stroke-dasharray:none;stroke-dashoffset:0"
       inkscape:connector-curvature="0" />
    <path
       d="m 15.1875,-14.375 c -1.812388,0 -3.461421,0.358622 -4.59375,0.9375 -1.1173963,0.571244 -1.5937501,1.302716 -1.59375,1.78125 0,0.478534 0.4763534,1.210006 1.59375,1.78125 1.132329,0.5788785 2.781361,0.9375 4.59375,0.9375 1.763484,10e-8 4.381145,-0.097636 6.59375,-0.4375 1.10772,-0.1701492 2.115554,-0.4174679 2.84375,-0.71875 0.339369,-0.14041 0.636047,-0.299035 0.78125,-0.4375 0.145203,-0.138465 0.09375,-0.168695 0.09375,-0.125 0,-0.01817 0.01941,-0.04864 -0.125,-0.21875 -0.144408,-0.170114 -0.420645,-0.411245 -0.78125,-0.65625 -0.69538,-0.472459 -1.661259,-0.957139 -2.75,-1.375 -2.206414,-0.846826 -4.775057,-1.468749 -6.65625,-1.46875 z m 0.1875,0.53125 c 0.317245,0 0.470393,0.04362 0.84375,0.09375 0.373357,0.05013 0.848504,0.117868 1.34375,0.21875 0.951444,0.19381 2.058955,0.468534 3.03125,0.8125 a 1.2361012,1.2361012 0 0 1 -0.375,2.40625 c -1.384435,0.04494 -2.764346,0.129783 -4.1875,0.1875 a 1.2361012,1.2361012 0 0 1 -0.09375,0 c -0.435029,-0.01453 -1.336575,-0.06407 -2.15625,-0.15625 -0.409838,-0.04609 -0.792452,-0.09233 -1.1875,-0.21875 -0.197524,-0.06321 -0.415325,-0.12296 -0.6875,-0.34375 -0.272175,-0.22079 -0.611051,-0.878903 -0.46875,-1.4375 a 1.2361012,1.2361012 0 0 1 0.46875,-0.6875 c 0.139062,-0.100497 0.319021,-0.229018 0.5625,-0.34375 0.773231,-0.364361 1.739741,-0.53125 2.90625,-0.53125 z"
       id="path16317"
       style="fill:none;stroke:#ffffff;stroke-width:1.42665792;stroke-linecap:butt;stroke-linejoin:miter;stroke-miterlimit:4;stroke-opacity:0.47058824;stroke-dasharray:none;stroke-dashoffset:0"
       inkscape:original="M 15.1875 -15.625 C 13.209036 -15.625 11.390697 -15.226237 10.03125 -14.53125 C 8.6718026 -13.836263 7.7499997 -12.799287 7.75 -11.65625 C 7.75 -10.513213 8.6718027 -9.4762374 10.03125 -8.78125 C 11.390697 -8.0862623 13.209036 -7.6875 15.1875 -7.6875 C 17.002446 -7.6874999 19.655011 -7.8008513 21.96875 -8.15625 C 23.12562 -8.3339489 24.210451 -8.5720459 25.09375 -8.9375 C 25.977049 -9.3029539 26.75 -9.9006896 26.75 -10.65625 C 26.75 -11.411811 26.090496 -12.012677 25.28125 -12.5625 C 24.472004 -13.112323 23.433623 -13.620217 22.28125 -14.0625 C 19.976504 -14.947066 17.329482 -15.624999 15.1875 -15.625 z M 15.375 -12.59375 C 15.537851 -12.59375 16.389403 -12.500536 17.3125 -12.3125 C 18.235597 -12.124464 19.317185 -11.870389 20.1875 -11.5625 C 18.78017 -11.516816 17.375664 -11.432058 15.96875 -11.375 C 15.086411 -11.404463 12.499896 -11.477658 12.625 -11.96875 C 12.708145 -12.028837 12.83434 -12.109438 13 -12.1875 C 13.468035 -12.408047 14.359115 -12.59375 15.375 -12.59375 z "
       inkscape:radius="-1.2359776"
       sodipodi:type="inkscape:offset"
       transform="matrix(-0.91111917,0.11308772,0.13073329,1.1558687,50.114043,2.4614052)" />
    <path
       sodipodi:nodetypes="cc"
       id="path16319"
       d="m 36.464484,-10.116799 c 2.703275,1.4080963 2.117366,3.933037 1.214614,4.9488078"
       style="fill:none;stroke:#888a85;stroke-width:1.47431004;stroke-linecap:butt;stroke-linejoin:miter;stroke-miterlimit:4;stroke-opacity:1;stroke-dasharray:none"
       inkscape:connector-curvature="0" />
    <path
       sodipodi:nodetypes="cc"
       id="path16321"
       d="m 30.519596,-8.5969726 c -2.013359,1.046356 -2.259233,3.2667625 -2.234511,4.0508886"
       style="fill:none;stroke:#888a85;stroke-width:1.47431004;stroke-linecap:butt;stroke-linejoin:miter;stroke-miterlimit:4;stroke-opacity:1;stroke-dasharray:none"
       inkscape:connector-curvature="0" />
    <path
       sodipodi:type="arc"
       style="fill:url(#radialGradient5980);fill-opacity:1;fill-rule:evenodd;stroke:#888a85;stroke-width:1.5138768;stroke-linecap:butt;stroke-linejoin:miter;stroke-miterlimit:4;stroke-opacity:1;stroke-dasharray:none;stroke-dashoffset:0"
       id="path16331"
       sodipodi:cx="23.421877"
       sodipodi:cy="7.7656231"
       sodipodi:rx="2.015625"
       sodipodi:ry="2.015625"
       d="m 25.437502,7.7656231 a 2.015625,2.015625 0 1 1 -4.03125,0 2.015625,2.015625 0 1 1 4.03125,0 z"
       transform="matrix(0.95992636,0,0,0.98800384,1.8675605,-14.703926)" />
    <path
       sodipodi:type="inkscape:offset"
       inkscape:radius="-0.75150275"
       inkscape:original="M 23.4375 5.75 C 22.324875 5.75 21.40625 6.637375 21.40625 7.75 C 21.40625 8.862625 22.324875 9.78125 23.4375 9.78125 C 24.550125 9.78125 25.4375 8.862625 25.4375 7.75 C 25.4375 6.637375 24.550125 5.75 23.4375 5.75 z "
       style="fill:none;stroke:#d7d8d7;stroke-width:0.7569384;stroke-linecap:butt;stroke-linejoin:miter;stroke-miterlimit:4;stroke-opacity:1;stroke-dasharray:none;stroke-dashoffset:0"
       id="path17867"
       d="m 23.4375,6.5 c -0.713051,0 -1.28125,0.5510209 -1.28125,1.25 0,0.6989791 0.582271,1.28125 1.28125,1.28125 0.698979,0 1.25,-0.5681994 1.25,-1.28125 0,-0.7130506 -0.536949,-1.25 -1.25,-1.25 z"
       transform="matrix(0.95992636,0,0,0.98800384,1.8675605,-14.703926)" />
  </g>
</svg>
