<?xml version="1.0" encoding="UTF-8" standalone="no"?>
<!-- Created with Inkscape (http://www.inkscape.org/) -->
<svg
   xmlns:dc="http://purl.org/dc/elements/1.1/"
   xmlns:cc="http://creativecommons.org/ns#"
   xmlns:rdf="http://www.w3.org/1999/02/22-rdf-syntax-ns#"
   xmlns:svg="http://www.w3.org/2000/svg"
   xmlns="http://www.w3.org/2000/svg"
   xmlns:xlink="http://www.w3.org/1999/xlink"
   xmlns:sodipodi="http://sodipodi.sourceforge.net/DTD/sodipodi-0.dtd"
   xmlns:inkscape="http://www.inkscape.org/namespaces/inkscape"
   inkscape:export-ydpi="90.000000"
   inkscape:export-xdpi="90.000000"
   inkscape:export-filename="/home/patrick/Desktop/extras.png"
   width="48px"
   height="48px"
   id="svg11300"
   sodipodi:version="0.32"
   inkscape:version="0.45+devel"
   sodipodi:docbase="/home/patrick/Projects/Beryl/svn/beryl/trunk/beryl-settings/images"
   sodipodi:docname="plugins-extras.svg"
   inkscape:output_extension="org.inkscape.output.svg.inkscape">
  <defs
     id="defs3">
    <linearGradient
       id="linearGradient8694">
      <stop
         style="stop-color:#babdb6;stop-opacity:1"
         offset="0"
         id="stop8696" />
      <stop
         id="stop8698"
         offset="0.06297335"
         style="stop-color:#eeeeec;stop-opacity:1" />
      <stop
         style="stop-color:#babdb6;stop-opacity:1"
         offset="1"
         id="stop8700" />
    </linearGradient>
    <linearGradient
       id="linearGradient6799">
      <stop
         id="stop6801"
         offset="0"
         style="stop-color:#90b4da;stop-opacity:1;" />
      <stop
         id="stop6803"
         offset="1"
         style="stop-color:#3465a4;stop-opacity:1" />
    </linearGradient>
    <linearGradient
       id="linearGradient4399">
      <stop
         id="stop4401"
         offset="0"
         style="stop-color:#babdb6;stop-opacity:1" />
      <stop
         style="stop-color:#eeeeec;stop-opacity:1"
         offset="0.38353434"
         id="stop4403" />
      <stop
         id="stop4405"
         offset="1"
         style="stop-color:#babdb6;stop-opacity:1" />
    </linearGradient>
    <linearGradient
       id="linearGradient13113">
      <stop
         style="stop-color:#babdb6;stop-opacity:1"
         offset="0"
         id="stop13115" />
      <stop
         style="stop-color:#eeeeec;stop-opacity:1"
         offset="1"
         id="stop13117" />
    </linearGradient>
    <linearGradient
       id="linearGradient11167">
      <stop
         style="stop-color:#babdb6;stop-opacity:1"
         offset="0"
         id="stop11169" />
      <stop
         style="stop-color:#888a85;stop-opacity:1"
         offset="1"
         id="stop11171" />
    </linearGradient>
    <linearGradient
       inkscape:collect="always"
       id="linearGradient30743">
      <stop
         style="stop-color:#000000;stop-opacity:1;"
         offset="0"
         id="stop30745" />
      <stop
         style="stop-color:#000000;stop-opacity:0;"
         offset="1"
         id="stop30747" />
    </linearGradient>
    <radialGradient
       inkscape:collect="always"
       xlink:href="#linearGradient30743"
       id="radialGradient19051"
       gradientUnits="userSpaceOnUse"
       gradientTransform="matrix(1,0,0,0.6052632,0,2.3684209)"
       cx="10.5"
       cy="5.9999995"
       fx="10.5"
       fy="5.9999995"
       r="9.5" />
    <radialGradient
       inkscape:collect="always"
       xlink:href="#linearGradient8694"
       id="radialGradient5980"
       gradientUnits="userSpaceOnUse"
       cx="23.421877"
       cy="7.7656231"
       fx="23.421877"
       fy="7.7656231"
       r="2.265625" />
    <linearGradient
       inkscape:collect="always"
       xlink:href="#linearGradient4399"
       id="linearGradient5992"
       gradientUnits="userSpaceOnUse"
       gradientTransform="matrix(-0.9560423,0.1144608,8.9659573e-2,0.764643,50.049582,13.281919)"
       x1="9.7987633"
       y1="-6.8718114"
       x2="20.562675"
       y2="-21.803713" />
    <linearGradient
       inkscape:collect="always"
       xlink:href="#linearGradient4399"
       id="linearGradient6000"
       gradientUnits="userSpaceOnUse"
       gradientTransform="matrix(0.9896443,0,0,0.6535952,-0.2247315,14.782883)"
       x1="9.7987633"
       y1="-6.8718114"
       x2="22.805996"
       y2="-23.963099" />
    <linearGradient
       inkscape:collect="always"
       xlink:href="#linearGradient4399"
       id="linearGradient6004"
       gradientUnits="userSpaceOnUse"
       gradientTransform="matrix(-1.1184737,0,0,1.1364985,51.183717,-7.784189)"
       x1="22.124538"
       y1="16.003416"
       x2="18.7372"
       y2="24.440916" />
    <linearGradient
       inkscape:collect="always"
       xlink:href="#linearGradient4399"
       id="linearGradient6008"
       gradientUnits="userSpaceOnUse"
       gradientTransform="matrix(1.1184737,0,0,1.1364985,-1.3741449,-7.6074123)"
       x1="22.124538"
       y1="16.003416"
       x2="18.7372"
       y2="24.440916" />
    <linearGradient
       inkscape:collect="always"
       xlink:href="#linearGradient11167"
       id="linearGradient6013"
       gradientUnits="userSpaceOnUse"
       gradientTransform="matrix(1.1183981,0,0,1.1294876,-1.3722668,-7.5243837)"
       x1="34.066963"
       y1="17.2848"
       x2="48.998604"
       y2="61.307819" />
    <linearGradient
       inkscape:collect="always"
       xlink:href="#linearGradient13113"
       id="linearGradient6016"
       gradientUnits="userSpaceOnUse"
       gradientTransform="matrix(1.1183479,0,0,1.1475306,-1.3713046,-7.7354476)"
       x1="13.550322"
       y1="42.824184"
       x2="8.8452864"
       y2="17.531681" />
    <radialGradient
       inkscape:collect="always"
       xlink:href="#linearGradient6799"
       id="radialGradient6416"
       cx="2.759804"
       cy="9.1664762"
       fx="2.759804"
       fy="9.1664762"
       r="21.21875"
       gradientTransform="matrix(0.6882051,2.5211145,-2.1481683,0.5987361,20.793138,-2.6249884)"
       gradientUnits="userSpaceOnUse" />
  </defs>
  <sodipodi:namedview
     stroke="#ef2929"
     fill="#eeeeec"
     id="base"
     pagecolor="#ffffff"
     bordercolor="#666666"
     borderopacity="0.25490196"
     inkscape:pageopacity="0.0"
     inkscape:pageshadow="2"
     inkscape:zoom="0.99999996"
     inkscape:cx="34.620067"
     inkscape:cy="38.520007"
     inkscape:current-layer="layer1"
     showgrid="false"
     inkscape:grid-bbox="true"
     inkscape:document-units="px"
     inkscape:showpageshadow="false"
     inkscape:window-width="906"
     inkscape:window-height="680"
     inkscape:window-x="173"
     inkscape:window-y="60"
     showguides="true"
     inkscape:guide-bbox="true">
    <inkscape:grid
       type="xygrid"
       id="grid7916"
       visible="true"
       enabled="true" />
  </sodipodi:namedview>
  <metadata
     id="metadata4">
    <rdf:RDF>
      <cc:Work
         rdf:about="">
        <dc:format>image/svg+xml</dc:format>
        <dc:type
           rdf:resource="http://purl.org/dc/dcmitype/StillImage" />
        <dc:creator>
          <cc:Agent>
            <dc:title>Patrick Niklaus</dc:title>
          </cc:Agent>
        </dc:creator>
        <dc:source />
        <cc:license
           rdf:resource="http://creativecommons.org/licenses/GPL/2.0/" />
        <dc:title>Image</dc:title>
        <dc:subject>
          <rdf:Bag />
        </dc:subject>
      </cc:Work>
      <cc:License
         rdf:about="http://creativecommons.org/licenses/GPL/2.0/">
        <cc:permits
           rdf:resource="http://web.resource.org/cc/Reproduction" />
        <cc:permits
           rdf:resource="http://web.resource.org/cc/Distribution" />
        <cc:requires
           rdf:resource="http://web.resource.org/cc/Notice" />
        <cc:permits
           rdf:resource="http://web.resource.org/cc/DerivativeWorks" />
        <cc:requires
           rdf:resource="http://web.resource.org/cc/ShareAlike" />
        <cc:requires
           rdf:resource="http://web.resource.org/cc/SourceCode" />
      </cc:License>
    </rdf:RDF>
  </metadata>
  <g
     id="layer1"
     inkscape:label="Layer 1"
     inkscape:groupmode="layer">
    <path
       sodipodi:type="arc"
       style="opacity:0.53896107;fill:url(#radialGradient19051);fill-opacity:1;fill-rule:evenodd;stroke:none;stroke-width:0.5;stroke-linecap:round;stroke-linejoin:round;stroke-miterlimit:4;stroke-dasharray:none;stroke-dashoffset:0;stroke-opacity:1"
       id="path29772"
       sodipodi:cx="10.5"
       sodipodi:cy="5.9999995"
       sodipodi:rx="9.5"
       sodipodi:ry="5.75"
       d="M 20,5.9999995 A 9.5,5.75 0 1 1 1,5.9999995 A 9.5,5.75 0 1 1 20,5.9999995 z"
       transform="matrix(2.4871325,0,0,1.4823893,-2.1450185,29.087576)" />
    <path
       style="fill:url(#radialGradient6416);fill-opacity:1;fill-rule:evenodd;stroke:#204a87;stroke-width:0.99999987999999995;stroke-linecap:butt;stroke-linejoin:miter;stroke-miterlimit:4;stroke-dasharray:none;stroke-dashoffset:0;stroke-opacity:1"
       d="M 24.124037,4.681061 L 3.4961372,9.493561 L 3.4961372,39.243561 L 24.000331,44.306061 L 44.504525,39.243561 L 44.504525,9.493561 L 24.124037,4.681061 z"
       id="path2219"
       sodipodi:nodetypes="ccccccc" />
    <path
       style="fill:none;fill-opacity:1;fill-rule:evenodd;stroke:#ffffff;stroke-width:0.99999987999999995;stroke-linecap:butt;stroke-linejoin:miter;stroke-miterlimit:4;stroke-dashoffset:0;stroke-opacity:0.47058824"
       d="M 24.124039,5.7123109 L 4.4857843,10.251373 L 4.4857843,38.462311 L 24.000333,43.274811 L 43.514883,38.462311 L 43.514883,10.274811 L 24.124039,5.7123109 z"
       id="path3961"
       sodipodi:nodetypes="ccccccc" />
    <path
       sodipodi:nodetypes="cc"
       id="path4346"
       d="M 24.504736,13.940838 L 24.461,43.306759"
       style="fill:none;fill-rule:evenodd;stroke:#ffffff;stroke-width:0.99999988px;stroke-linecap:butt;stroke-linejoin:miter;stroke-opacity:0.47058824" />
    <path
       style="fill:none;fill-rule:evenodd;stroke:#204a87;stroke-width:0.99999987999999995px;stroke-linecap:butt;stroke-linejoin:miter;stroke-opacity:1"
       d="M 3.46521,9.5248088 L 23.938478,14.587309 L 44.288041,9.3998088"
       id="path2811" />
    <path
       style="fill:none;fill-rule:evenodd;stroke:#204a87;stroke-width:0.99999988px;stroke-linecap:butt;stroke-linejoin:miter;stroke-opacity:1"
       d="M 23.498737,14.536348 L 23.455,44.5"
       id="path2813"
       sodipodi:nodetypes="cc" />
    <path
       id="path3963"
       d="M 7.794904,9.5578986 L 23.953941,13.557899 L 40.112979,9.4172737"
       style="fill:none;fill-rule:evenodd;stroke:#ffffff;stroke-width:0.99999987999999995px;stroke-linecap:butt;stroke-linejoin:miter;stroke-opacity:0.47058824"
       sodipodi:nodetypes="ccc" />
    <path
       style="fill:url(#linearGradient6016);fill-opacity:1;fill-rule:evenodd;stroke:#888a85;stroke-width:0.99999987999999995;stroke-linecap:butt;stroke-linejoin:miter;stroke-miterlimit:4;stroke-dasharray:none;stroke-opacity:1"
       d="M 10.539266,40.978349 L 10.500564,11.076551 L 31.998503,5.7385216 L 37.064511,6.9303043 L 16.512693,12.505603 L 16.486136,42.445078 L 10.539266,40.978349 z"
       id="path2375"
       sodipodi:nodetypes="ccccccc" />
    <path
       style="fill:url(#linearGradient6013);fill-opacity:1;fill-rule:evenodd;stroke:#888a85;stroke-width:0.99999987999999995;stroke-linecap:butt;stroke-linejoin:miter;stroke-miterlimit:4;stroke-dasharray:none;stroke-opacity:1"
       d="M 39.509593,40.50364 L 39.512607,10.650063 L 18.278895,5.7067155 L 13.21266,6.8797596 L 33.500263,12.014191 L 33.521282,41.928336 L 39.509593,40.50364 z"
       id="path6271"
       sodipodi:nodetypes="ccccccc" />
    <path
       transform="matrix(0.9896444,0,0,0.9974587,1.1360296,0.2586029)"
       style="fill:none;fill-opacity:1;fill-rule:evenodd;stroke:#ffffff;stroke-width:1.0064981;stroke-linecap:butt;stroke-linejoin:miter;stroke-miterlimit:4;stroke-opacity:0.46945334"
       d="M 31.21875,6.53125 L 10.477479,11.630136 L 10.49103,40.03125 L 14.500337,41.037994 L 14.504629,12.15229 C 14.515555,11.70676 14.286485,11.389709 14.71875,11.28125 L 32.15625,6.75 L 31.21875,6.53125 z"
       id="path6636"
       sodipodi:nodetypes="cccccccc" />
    <path
       sodipodi:nodetypes="cccccccc"
       style="fill:url(#linearGradient6008);fill-opacity:1;fill-rule:evenodd;stroke:#888a85;stroke-width:0.99999987999999995;stroke-linecap:butt;stroke-linejoin:miter;stroke-miterlimit:4;stroke-dasharray:none;stroke-opacity:1"
       d="M 24.214189,7.7460858 L 18.076844,12.517615 L 16.911226,21.756952 L 19.209469,18.921502 L 21.700763,22.323477 L 22.146806,13.49538 L 25.94424,8.2985786 L 24.214189,7.7460858 z"
       id="path9209" />
    <path
       sodipodi:nodetypes="cccccccc"
       id="path8944"
       d="M 24.712095,8.4598202 L 19.018056,13.109599 L 18.347824,18.444616 L 19.310869,17.286114 L 20.865042,19.463763 C 20.862587,19.46642 21.167985,13.125491 21.184368,13.113362 L 24.571728,8.5421964 L 24.712095,8.4598202 z"
       style="fill:none;fill-opacity:1;fill-rule:evenodd;stroke:#ffffff;stroke-width:1;stroke-linecap:butt;stroke-linejoin:miter;stroke-miterlimit:4;stroke-opacity:0.47058823999999999;stroke-dasharray:none" />
    <path
       id="path10907"
       d="M 25.595383,7.5693091 L 31.732728,12.340838 L 33.59813,22.994389 L 30.300224,19.615664 L 27.627708,24.268021 L 27.662767,13.318603 L 23.865332,8.1218019 L 25.595383,7.5693091 z"
       style="fill:url(#linearGradient6004);fill-opacity:1;fill-rule:evenodd;stroke:#888a85;stroke-width:0.99999987999999995;stroke-linecap:butt;stroke-linejoin:miter;stroke-miterlimit:4;stroke-dasharray:none;stroke-opacity:1"
       sodipodi:nodetypes="cccccccc" />
    <path
       transform="matrix(-0.9886181,0,0,0.9974587,49.121252,-0.3471714)"
       style="fill:none;fill-opacity:1;fill-rule:evenodd;stroke:#ffffff;stroke-width:1.00702035;stroke-linecap:butt;stroke-linejoin:miter;stroke-miterlimit:4;stroke-opacity:0.46945334"
       d="M 31.21875,6.53125 L 10.722673,11.85167 L 10.759109,40.16417 L 14.724988,41.104454 L 14.773404,12.263057 C 14.761978,11.70676 14.800569,11.478323 15.970433,11.34771 L 32.15625,6.75 L 31.21875,6.53125 z"
       id="path8687"
       sodipodi:nodetypes="cccccccc" />
    <path
       style="fill:none;fill-opacity:1;fill-rule:evenodd;stroke:#ffffff;stroke-width:1;stroke-linecap:butt;stroke-linejoin:miter;stroke-miterlimit:4;stroke-opacity:0.47058823999999999;stroke-dasharray:none"
       d="M 24.929165,8.2819331 L 30.807941,12.873233 L 32.061483,19.959893 L 30.097567,17.989849 L 28.61225,20.481951 C 28.59908,20.422108 28.679284,12.990227 28.662901,13.000195 L 25.178063,8.2107401 L 24.929165,8.2819331 z"
       id="path10909"
       sodipodi:nodetypes="cccccccc" />
    <path
       style="fill:url(#linearGradient6000);fill-opacity:1;fill-rule:evenodd;stroke:#888a85;stroke-width:0.99999987999999995;stroke-linecap:butt;stroke-linejoin:miter;stroke-miterlimit:4;stroke-dasharray:none;stroke-dashoffset:0;stroke-opacity:1"
       d="M 14.125112,2.9301416 C 12.167136,2.9301416 10.367627,3.3289046 9.0222577,4.0238916 C 7.6768883,4.7188786 6.7646313,5.7558546 6.7646316,6.8988916 C 6.7646316,8.0419286 7.6768884,9.0789042 9.0222577,9.7738916 C 10.367627,10.46888 12.167136,10.867642 14.125112,10.867642 C 15.921262,10.867642 18.546359,10.754291 20.836137,10.398892 C 21.981027,10.221193 23.054624,9.9830957 23.928776,9.6176416 C 24.802928,9.2521877 25.567874,8.654452 25.567874,7.8988916 C 25.567874,7.1433306 24.9152,6.5424646 24.114334,5.9926416 C 23.313468,5.4428186 22.28584,4.9349246 21.145401,4.4926416 C 18.864522,3.6080756 16.244912,2.9301426 14.125112,2.9301416 z M 14.31067,5.9613916 C 14.471835,5.9613916 15.314568,6.0546056 16.228106,6.2426416 C 17.141643,6.4306776 18.212031,6.6847526 19.073333,6.9926416 C 17.680577,7.0383256 16.290615,7.1230836 14.898271,7.1801416 C 14.02507,7.1506786 11.465339,7.0774836 11.589147,6.5863916 C 11.671432,6.5263046 11.79632,6.4457036 11.960264,6.3676416 C 12.423453,6.1470946 13.305305,5.9613916 14.31067,5.9613916 z"
       id="path12074" />
    <path
       sodipodi:type="inkscape:offset"
       inkscape:radius="-1.0136454"
       inkscape:original="M 15.1875 -15.625 C 13.209036 -15.625 11.390697 -15.226237 10.03125 -14.53125 C 8.6718026 -13.836263 7.7499997 -12.799287 7.75 -11.65625 C 7.75 -10.513213 8.6718027 -9.4762374 10.03125 -8.78125 C 11.390697 -8.0862623 13.209036 -7.6875 15.1875 -7.6875 C 17.002446 -7.6874999 19.655011 -7.8008513 21.96875 -8.15625 C 23.12562 -8.3339489 24.210451 -8.5720459 25.09375 -8.9375 C 25.977049 -9.3029539 26.75 -9.9006896 26.75 -10.65625 C 26.75 -11.411811 26.090496 -12.012677 25.28125 -12.5625 C 24.472004 -13.112323 23.433623 -13.620217 22.28125 -14.0625 C 19.976504 -14.947066 17.329482 -15.624999 15.1875 -15.625 z M 15.375 -12.59375 C 15.537851 -12.59375 16.389403 -12.500536 17.3125 -12.3125 C 18.235597 -12.124464 19.317185 -11.870389 20.1875 -11.5625 C 18.78017 -11.516816 17.375664 -11.432058 15.96875 -11.375 C 15.086411 -11.404463 12.499896 -11.477658 12.625 -11.96875 C 12.708145 -12.028837 12.83434 -12.109438 13 -12.1875 C 13.468035 -12.408047 14.359115 -12.59375 15.375 -12.59375 z "
       style="fill:none;fill-opacity:1;fill-rule:evenodd;stroke:#ffffff;stroke-width:1.00521839;stroke-linecap:butt;stroke-linejoin:miter;stroke-miterlimit:4;stroke-dasharray:none;stroke-dashoffset:0;stroke-opacity:0.47058824"
       id="path14394"
       d="M 15.1875,-14.625 C 13.345237,-14.625 11.673184,-14.224764 10.5,-13.625 C 9.3390626,-13.031497 8.7499998,-12.254317 8.75,-11.65625 C 8.75,-11.058183 9.3390624,-10.281004 10.5,-9.6875 C 11.673184,-9.0877354 13.345237,-8.6875 15.1875,-8.6875 C 16.960242,-8.6874999 19.581703,-8.8135914 21.8125,-9.15625 C 22.929061,-9.3277573 23.962654,-9.5621744 24.71875,-9.875 C 25.076518,-10.023022 25.388795,-10.209355 25.5625,-10.375 C 25.736205,-10.540645 25.75,-10.624129 25.75,-10.65625 C 25.75,-10.739105 25.697536,-10.835363 25.53125,-11.03125 C 25.364964,-11.227137 25.087273,-11.468366 24.71875,-11.71875 C 24.002887,-12.205126 23.006438,-12.702746 21.90625,-13.125 C 19.682148,-13.978615 17.115605,-14.624999 15.1875,-14.625 z M 15.375,-13.59375 C 15.649825,-13.59375 15.818591,-13.580781 16.1875,-13.53125 C 16.556409,-13.481719 17.010816,-13.412147 17.5,-13.3125 C 18.446345,-13.119728 19.577299,-12.868727 20.53125,-12.53125 C 20.99159,-12.367856 21.269945,-11.899413 21.193368,-11.416975 C 21.116791,-10.934538 20.707059,-10.575315 20.21875,-10.5625 C 18.830197,-10.517426 17.420233,-10.432598 16,-10.375 C 15.979172,-10.374358 15.958328,-10.374358 15.9375,-10.375 C 15.501367,-10.389563 14.618074,-10.409401 13.8125,-10.5 C 13.409713,-10.545299 13.02317,-10.601328 12.65625,-10.71875 C 12.47279,-10.777461 12.296594,-10.841352 12.0625,-11.03125 C 11.828406,-11.221148 11.536734,-11.749593 11.65625,-12.21875 C 11.713207,-12.443634 11.845571,-12.64218 12.03125,-12.78125 C 12.160253,-12.874478 12.333019,-12.985615 12.5625,-13.09375 C 13.280831,-13.432241 14.235586,-13.59375 15.375,-13.59375 z"
       transform="matrix(0.9896444,0,0,1,-0.9051121,18.555142)" />
    <path
       style="fill:none;fill-rule:evenodd;stroke:#888a85;stroke-width:0.99999987999999995;stroke-linecap:butt;stroke-linejoin:miter;stroke-miterlimit:4;stroke-dasharray:none;stroke-opacity:1"
       d="M 12.051831,6.5946938 C 9.3647402,7.9878478 10.047516,10.051847 11.111495,10.759995"
       id="path10925"
       sodipodi:nodetypes="cc" />
    <path
       style="fill:none;fill-rule:evenodd;stroke:#888a85;stroke-width:0.99999987999999995;stroke-linecap:butt;stroke-linejoin:miter;stroke-miterlimit:4;stroke-dasharray:none;stroke-opacity:1"
       d="M 16.892009,6.6532686 C 21.169132,7.3771326 21.786466,9.6602316 21.859745,10.362247"
       id="path10927"
       sodipodi:nodetypes="cc" />
    <path
       id="path16315"
       d="M 34.561022,1.0750426 C 36.452517,0.84858605 38.245628,1.1069716 39.640654,1.7644355 C 41.035682,2.4218995 42.059215,3.5295505 42.216015,4.866793 C 42.372816,6.2040354 41.633785,7.5227065 40.429433,8.4913778 C 39.225083,9.4600494 37.541377,10.134691 35.649881,10.361148 C 33.914715,10.568888 31.363202,10.739893 29.102417,10.588943 C 27.972023,10.513469 26.902217,10.359089 26.007613,10.032646 C 25.11301,9.7062037 24.292039,9.0953835 24.188392,8.2114512 C 24.084745,7.3275181 24.632833,6.5490758 25.331081,5.8132093 C 26.02933,5.0773427 26.952394,4.3643021 27.993439,3.7149724 C 30.07553,2.4163129 32.513197,1.3202168 34.561022,1.0750426 z M 34.797588,4.6427725 C 34.641895,4.6614125 33.840563,4.8679332 32.983837,5.1935755 C 32.127112,5.5192178 31.127923,5.9402603 30.338101,6.4000776 C 31.689835,6.2924393 33.044229,6.2308371 34.397125,6.1365529 C 35.236637,6.0010908 37.699414,5.6194052 37.512441,5.0591947 C 37.424708,4.9984156 37.293004,4.9185646 37.123917,4.8462012 C 36.646202,4.6417543 35.768817,4.5264935 34.797588,4.6427725 z"
       style="fill:url(#linearGradient5992);fill-opacity:1;fill-rule:evenodd;stroke:#888a85;stroke-width:0.99999987999999995;stroke-linecap:butt;stroke-linejoin:miter;stroke-miterlimit:4;stroke-dasharray:none;stroke-dashoffset:0;stroke-opacity:1" />
    <path
       d="M 15.1875,-14.78125 C 13.323724,-14.78125 11.608855,-14.396055 10.40625,-13.78125 C 9.2139577,-13.171717 8.5937498,-12.340396 8.59375,-11.65625 C 8.59375,-10.972104 9.2139576,-10.140783 10.40625,-9.53125 C 11.608854,-8.9164448 13.323724,-8.53125 15.1875,-8.53125 C 16.966908,-8.5312499 19.599852,-8.6553291 21.84375,-9 C 22.966678,-9.1724853 24.005062,-9.3976117 24.78125,-9.71875 C 25.152267,-9.8722536 25.46202,-10.096033 25.65625,-10.28125 C 25.85048,-10.466467 25.90625,-10.569531 25.90625,-10.65625 C 25.90625,-10.785689 25.838291,-10.910553 25.65625,-11.125 C 25.474209,-11.339447 25.186725,-11.589492 24.8125,-11.84375 C 24.081887,-12.340147 23.07718,-12.855832 21.96875,-13.28125 C 19.73191,-14.139754 17.149387,-14.781249 15.1875,-14.78125 z M 15.375,-13.4375 C 15.619277,-13.4375 15.821794,-13.4241 16.1875,-13.375 C 16.553206,-13.3259 16.983931,-13.255008 17.46875,-13.15625 C 18.411423,-12.964226 19.52801,-12.707803 20.46875,-12.375 C 20.852588,-12.237297 21.085425,-11.847335 21.024561,-11.444111 C 20.963697,-11.040887 20.626132,-10.737024 20.21875,-10.71875 C 18.827231,-10.673579 17.418129,-10.588763 16,-10.53125 C 15.979174,-10.530487 15.958326,-10.530487 15.9375,-10.53125 C 15.500571,-10.54584 14.607919,-10.566793 13.8125,-10.65625 C 13.41479,-10.700978 13.065414,-10.764061 12.71875,-10.875 C 12.545418,-10.93047 12.362921,-10.957348 12.15625,-11.125 C 11.949579,-11.292652 11.709392,-11.782751 11.8125,-12.1875 C 11.860619,-12.374612 11.970789,-12.539866 12.125,-12.65625 C 12.24676,-12.744243 12.4056,-12.865365 12.625,-12.96875 C 13.303797,-13.288612 14.255097,-13.4375 15.375,-13.4375 z"
       id="path16317"
       style="fill:none;fill-opacity:1;fill-rule:evenodd;stroke:#ffffff;stroke-width:0.94730461;stroke-linecap:butt;stroke-linejoin:miter;stroke-miterlimit:4;stroke-dasharray:none;stroke-dashoffset:0;stroke-opacity:0.47058824"
       inkscape:original="M 15.1875 -15.625 C 13.209036 -15.625 11.390697 -15.226237 10.03125 -14.53125 C 8.6718026 -13.836263 7.7499997 -12.799287 7.75 -11.65625 C 7.75 -10.513213 8.6718027 -9.4762374 10.03125 -8.78125 C 11.390697 -8.0862623 13.209036 -7.6875 15.1875 -7.6875 C 17.002446 -7.6874999 19.655011 -7.8008513 21.96875 -8.15625 C 23.12562 -8.3339489 24.210451 -8.5720459 25.09375 -8.9375 C 25.977049 -9.3029539 26.75 -9.9006896 26.75 -10.65625 C 26.75 -11.411811 26.090496 -12.012677 25.28125 -12.5625 C 24.472004 -13.112323 23.433623 -13.620217 22.28125 -14.0625 C 19.976504 -14.947066 17.329482 -15.624999 15.1875 -15.625 z M 15.375 -12.59375 C 15.537851 -12.59375 16.389403 -12.500536 17.3125 -12.3125 C 18.235597 -12.124464 19.317185 -11.870389 20.1875 -11.5625 C 18.78017 -11.516816 17.375664 -11.432058 15.96875 -11.375 C 15.086411 -11.404463 12.499896 -11.477658 12.625 -11.96875 C 12.708145 -12.028837 12.83434 -12.109438 13 -12.1875 C 13.468035 -12.408047 14.359115 -12.59375 15.375 -12.59375 z "
       inkscape:radius="-0.85353893"
       sodipodi:type="inkscape:offset"
       transform="matrix(-0.9393262,0.1144608,0.1347806,1.169903,50.876152,17.616404)" />
    <path
       sodipodi:nodetypes="cc"
       id="path16319"
       d="M 37.326505,4.978726 C 40.11347,6.2977962 39.509436,8.6630537 38.578726,9.6145755"
       style="fill:none;fill-rule:evenodd;stroke:#888a85;stroke-width:0.99999987999999995;stroke-linecap:butt;stroke-linejoin:miter;stroke-miterlimit:4;stroke-dasharray:none;stroke-opacity:1" />
    <path
       sodipodi:nodetypes="cc"
       id="path16321"
       d="M 30.675103,6.2372339 C 28.599401,7.3444834 28.345901,9.694071 28.371411,10.523837"
       style="fill:none;fill-rule:evenodd;stroke:#888a85;stroke-width:0.99999987999999995;stroke-linecap:butt;stroke-linejoin:miter;stroke-miterlimit:4;stroke-dasharray:none;stroke-opacity:1" />
    <path
       sodipodi:type="arc"
       style="fill:url(#radialGradient5980);fill-opacity:1;fill-rule:evenodd;stroke:#888a85;stroke-width:1.00521827000000008;stroke-linecap:butt;stroke-linejoin:miter;stroke-miterlimit:4;stroke-dasharray:none;stroke-dashoffset:0;stroke-opacity:1"
       id="path16331"
       sodipodi:cx="23.421877"
       sodipodi:cy="7.7656231"
       sodipodi:rx="2.015625"
       sodipodi:ry="2.015625"
       d="M 25.437502,7.7656231 A 2.015625,2.015625 0 1 1 21.406252,7.7656231 A 2.015625,2.015625 0 1 1 25.437502,7.7656231 z"
       transform="matrix(0.9896444,0,0,1,1.1360296,0.2426406)" />
    <path
       sodipodi:type="inkscape:offset"
       inkscape:radius="-0.75150275"
       inkscape:original="M 23.4375 5.75 C 22.324875 5.75 21.40625 6.637375 21.40625 7.75 C 21.40625 8.862625 22.324875 9.78125 23.4375 9.78125 C 24.550125 9.78125 25.4375 8.862625 25.4375 7.75 C 25.4375 6.637375 24.550125 5.75 23.4375 5.75 z "
       style="fill:none;fill-opacity:1;fill-rule:evenodd;stroke:#d7d8d7;stroke-width:0.50260913;stroke-linecap:butt;stroke-linejoin:miter;stroke-miterlimit:4;stroke-dasharray:none;stroke-dashoffset:0;stroke-opacity:1"
       id="path17867"
       d="M 23.4375,6.5 C 22.724449,6.5 22.15625,7.0510209 22.15625,7.75 C 22.15625,8.4489791 22.738521,9.03125 23.4375,9.03125 C 24.136479,9.03125 24.6875,8.4630506 24.6875,7.75 C 24.6875,7.0369494 24.150551,6.5 23.4375,6.5 z"
       transform="matrix(0.9896444,0,0,1,1.1360296,0.2426406)" />
  </g>
</svg>
