<?xml version="1.0" encoding="UTF-8" standalone="no"?>
<!-- Created with Inkscape (http://www.inkscape.org/) -->
<svg
   xmlns:dc="http://purl.org/dc/elements/1.1/"
   xmlns:cc="http://web.resource.org/cc/"
   xmlns:rdf="http://www.w3.org/1999/02/22-rdf-syntax-ns#"
   xmlns:svg="http://www.w3.org/2000/svg"
   xmlns="http://www.w3.org/2000/svg"
   xmlns:xlink="http://www.w3.org/1999/xlink"
   xmlns:sodipodi="http://sodipodi.sourceforge.net/DTD/sodipodi-0.dtd"
   xmlns:inkscape="http://www.inkscape.org/namespaces/inkscape"
   inkscape:export-ydpi="90.000000"
   inkscape:export-xdpi="90.000000"
   inkscape:export-filename="/home/patrick/Desktop/desktop.png"
   width="48px"
   height="48px"
   id="svg11300"
   sodipodi:version="0.32"
   inkscape:version="0.45+devel"
   sodipodi:docbase="/home/patrick/Projects/Beryl/svn/beryl/trunk/beryl-settings/images"
   sodipodi:docname="development.svg"
   inkscape:output_extension="org.inkscape.output.svg.inkscape"
   sodipodi:modified="true">
  <defs
     id="defs3">
    <linearGradient
       id="linearGradient8440">
      <stop
         style="stop-color:#edeeec;stop-opacity:1;"
         offset="0"
         id="stop8442" />
      <stop
         style="stop-color:#babdb6;stop-opacity:1;"
         offset="1"
         id="stop8444" />
    </linearGradient>
    <linearGradient
       id="linearGradient30743"
       inkscape:collect="always">
      <stop
         id="stop30745"
         offset="0"
         style="stop-color:#000000;stop-opacity:1;" />
      <stop
         id="stop30747"
         offset="1"
         style="stop-color:#000000;stop-opacity:0;" />
    </linearGradient>
    <radialGradient
       inkscape:collect="always"
       xlink:href="#linearGradient30743"
       id="radialGradient9570"
       gradientUnits="userSpaceOnUse"
       gradientTransform="matrix(1,0,0,0.6052632,0,2.3684209)"
       cx="10.5"
       cy="5.9999995"
       fx="10.5"
       fy="5.9999995"
       r="9.5" />
    <radialGradient
       inkscape:collect="always"
       xlink:href="#linearGradient8440"
       id="radialGradient3193"
       gradientUnits="userSpaceOnUse"
       gradientTransform="matrix(0.3810944,0.455232,-0.594625,0.4977864,-8.1655377,-1.6212846)"
       cx="56.704376"
       cy="10.241054"
       fx="56.704376"
       fy="10.241054"
       r="14.75" />
    <radialGradient
       inkscape:collect="always"
       xlink:href="#linearGradient30743"
       id="radialGradient4188"
       gradientUnits="userSpaceOnUse"
       gradientTransform="matrix(1,0,0,0.6052632,0,2.3684209)"
       cx="10.5"
       cy="5.9999995"
       fx="10.5"
       fy="5.9999995"
       r="9.5" />
    <radialGradient
       inkscape:collect="always"
       xlink:href="#linearGradient8440"
       id="radialGradient2188"
       gradientUnits="userSpaceOnUse"
       gradientTransform="matrix(0.664143,0.4987188,-0.6514275,0.8675051,-6.5927319,-24.793918)"
       cx="56.704376"
       cy="10.241054"
       fx="56.704376"
       fy="10.241054"
       r="14.75" />
  </defs>
  <sodipodi:namedview
     stroke="#ef2929"
     fill="#eeeeec"
     id="base"
     pagecolor="#ffffff"
     bordercolor="#666666"
     borderopacity="0.25490196"
     inkscape:pageopacity="0.0"
     inkscape:pageshadow="2"
     inkscape:zoom="3.9999998"
     inkscape:cx="12.256859"
     inkscape:cy="22.589753"
     inkscape:current-layer="layer1"
     showgrid="false"
     inkscape:grid-bbox="true"
     inkscape:document-units="px"
     inkscape:showpageshadow="false"
     inkscape:window-width="906"
     inkscape:window-height="659"
     inkscape:window-x="186"
     inkscape:window-y="63"
     showguides="true"
     inkscape:guide-bbox="true" />
  <metadata
     id="metadata4">
    <rdf:RDF>
      <cc:Work
         rdf:about="">
        <dc:format>image/svg+xml</dc:format>
        <dc:type
           rdf:resource="http://purl.org/dc/dcmitype/StillImage" />
        <dc:creator>
          <cc:Agent>
            <dc:title>Patrick Niklaus</dc:title>
          </cc:Agent>
        </dc:creator>
        <dc:source />
        <cc:license
           rdf:resource="http://creativecommons.org/licenses/GPL/2.0/" />
        <dc:title>Development</dc:title>
        <dc:subject>
          <rdf:Bag />
        </dc:subject>
      </cc:Work>
      <cc:License
         rdf:about="http://creativecommons.org/licenses/GPL/2.0/">
        <cc:permits
           rdf:resource="http://web.resource.org/cc/Reproduction" />
        <cc:permits
           rdf:resource="http://web.resource.org/cc/Distribution" />
        <cc:requires
           rdf:resource="http://web.resource.org/cc/Notice" />
        <cc:permits
           rdf:resource="http://web.resource.org/cc/DerivativeWorks" />
        <cc:requires
           rdf:resource="http://web.resource.org/cc/ShareAlike" />
        <cc:requires
           rdf:resource="http://web.resource.org/cc/SourceCode" />
      </cc:License>
    </rdf:RDF>
  </metadata>
  <g
     id="layer1"
     inkscape:label="Layer 1"
     inkscape:groupmode="layer">
    <path
       sodipodi:type="arc"
       style="opacity:0.25899999;fill:url(#radialGradient9570);fill-opacity:1;fill-rule:evenodd;stroke:none;stroke-width:0.5;stroke-linecap:round;stroke-linejoin:round;stroke-miterlimit:4;stroke-dasharray:none;stroke-dashoffset:0;stroke-opacity:1"
       id="path29772"
       sodipodi:cx="10.5"
       sodipodi:cy="5.9999995"
       sodipodi:rx="9.5"
       sodipodi:ry="5.75"
       d="M 20,5.9999995 A 9.5,5.75 0 1 1 1,5.9999995 A 9.5,5.75 0 1 1 20,5.9999995 z"
       transform="matrix(1.2800324,0,0,0.3736936,-1.2648658,43.642919)" />
    <g
       id="g4182">
      <path
         id="path2591"
         d="M 9.9531058,23.254604 C 9.7206518,23.254604 9.5454497,23.437574 9.5454497,23.662259 L 9.5454497,26.971465 C 9.0151829,27.118301 8.5118161,27.344051 8.0347259,27.594938 L 5.8046096,25.48472 C 5.6416093,25.330077 5.389087,25.340064 5.2290957,25.5087 L 2.92704,27.906675 C 2.7670499,28.07531 2.7880202,28.351526 2.9510198,28.506169 L 5.0132777,30.448528 C 4.6803352,31.007382 4.4057729,31.607962 4.2219458,32.247009 L 1.0326399,32.247009 C 0.80795467,32.247009 0.62498371,32.422211 0.62498371,32.654665 L 0.62498371,36.01183 C 0.62498371,36.244284 0.8079553,36.419485 1.0326399,36.419485 L 4.1979661,36.419485 C 4.3644902,37.00841 4.6219574,37.55188 4.9173586,38.074088 L 2.6392827,40.448083 C 2.477727,40.61522 2.4777327,40.867441 2.6392827,41.023597 L 5.0132777,43.325653 C 5.1748283,43.481809 5.4272365,43.46881 5.5887916,43.301673 L 7.8428877,40.999617 C 8.3980153,41.311246 8.9884295,41.575451 9.617389,41.742989 L 9.617389,44.956276 C 9.617389,45.180961 9.7925905,45.363931 10.025045,45.363931 L 13.38221,45.363931 C 13.614664,45.363931 13.789865,45.180961 13.789865,44.956276 L 13.789865,41.69503 C 14.34322,41.528903 14.856633,41.279003 15.348549,40.999617 L 17.554686,43.181774 C 17.71427,43.339939 17.990545,43.346877 18.154179,43.181774 L 20.504194,40.807779 C 20.667828,40.642677 20.663779,40.390431 20.504194,40.232265 L 18.298058,38.026129 C 18.564189,37.537694 18.789072,37.013291 18.94551,36.467445 L 22.086858,36.467445 C 22.311543,36.467445 22.494513,36.292243 22.494513,36.059789 L 22.494513,32.702625 C 22.494513,32.470171 22.311542,32.294969 22.086858,32.294969 L 18.96949,32.294969 C 18.794096,31.666751 18.545533,31.073982 18.226119,30.520468 L 20.600114,28.362291 C 20.772242,28.206065 20.799076,27.953154 20.648073,27.786776 L 18.417956,25.316863 C 18.266952,25.150485 18.014572,25.160637 17.842442,25.316863 L 15.372529,27.546979 C 15.342737,27.574018 15.32102,27.610679 15.300589,27.642898 C 14.805137,27.366611 14.273258,27.132089 13.717926,26.971465 L 13.717926,23.662259 C 13.717926,23.437574 13.542726,23.254604 13.31027,23.254604 L 9.9531058,23.254604 z M 11.583728,31.407718 C 13.457898,31.407718 14.701096,32.777633 14.701096,34.357227 C 14.701094,35.936822 13.4579,37.306736 11.583728,37.306736 C 9.7095566,37.306736 8.4663612,35.936822 8.4663612,34.357227 C 8.4663599,32.777635 9.7095572,31.407718 11.583728,31.407718 z"
         style="fill:url(#radialGradient3193);fill-opacity:1;fill-rule:evenodd;stroke:#555753;stroke-width:1;stroke-linecap:butt;stroke-linejoin:miter;stroke-miterlimit:4;stroke-dasharray:none;stroke-dashoffset:0;stroke-opacity:1" />
      <path
         transform="matrix(0.7673519,0,0,0.7673519,-36.157612,21.484338)"
         d="M 60.875,3.625 L 60.875,7.15625 C 60.870014,7.7426213 60.469877,8.2756961 59.90625,8.4375 C 59.345099,8.5928889 58.789248,8.8249915 58.21875,9.125 C 57.722013,9.3849255 57.09878,9.3184948 56.6875,8.9375 L 54.375,6.71875 L 52.4375,8.71875 L 54.5625,10.71875 C 55.008058,11.134444 55.110012,11.811952 54.8125,12.34375 C 54.425111,12.993993 54.107519,13.706568 53.90625,14.40625 C 53.744446,14.969878 53.211371,15.338764 52.625,15.34375 L 49.25,15.34375 L 49.25,18.15625 L 52.59375,18.15625 C 53.180121,18.161236 53.713196,18.561372 53.875,19.125 C 54.050735,19.746502 54.331026,20.338578 54.6875,20.96875 C 54.971967,21.477749 54.904353,22.111132 54.5,22.53125 L 52.0625,25.09375 L 54,26.96875 L 56.375,24.53125 C 56.790694,24.085692 57.468202,23.983738 58,24.28125 C 58.656487,24.64978 59.322366,24.944497 60,25.125 C 60.563628,25.286804 60.963764,25.819879 60.96875,26.40625 L 60.96875,29.8125 L 63.78125,29.8125 L 63.78125,26.34375 C 63.779375,25.770941 64.143671,25.273653 64.6875,25.09375 C 64.68718,25.083336 64.68718,25.072914 64.6875,25.0625 C 65.270653,24.887429 65.876555,24.617591 66.46875,24.28125 C 66.977749,23.996783 67.611132,24.064397 68.03125,24.46875 L 70.375,26.78125 L 72.3125,24.84375 L 70,22.53125 C 69.571149,22.102959 69.502269,21.426926 69.8125,20.90625 C 70.122155,20.337939 70.359843,19.785574 70.53125,19.1875 C 70.693054,18.623872 71.226129,18.223736 71.8125,18.21875 L 75.125,18.21875 L 75.125,15.40625 L 71.84375,15.40625 C 71.257379,15.401264 70.724304,15.001128 70.5625,14.4375 C 70.364979,13.730033 70.082025,13.06702 69.71875,12.4375 C 69.421238,11.905702 69.523192,11.228194 69.96875,10.8125 L 72.5,8.5 L 70.6875,6.5 L 68.0625,8.875 L 68.03125,8.84375 C 67.630093,9.3181862 66.961014,9.4884739 66.40625,9.1875 C 65.827973,8.8650252 65.228045,8.6119242 64.625,8.4375 C 64.061373,8.2756961 63.692486,7.7426213 63.6875,7.15625 L 63.6875,3.625 L 60.875,3.625 z M 62.21875,11.625 C 65.319541,11.625 67.59375,14.015285 67.59375,16.78125 C 67.593749,19.547216 65.319542,21.937499 62.21875,21.9375 C 59.117957,21.937501 56.84375,19.547216 56.84375,16.78125 C 56.843748,14.015286 59.117957,11.625 62.21875,11.625 z"
         id="path4180"
         style="fill:none;fill-opacity:1;fill-rule:evenodd;stroke:#dddddd;stroke-width:1.30318308;stroke-linecap:butt;stroke-linejoin:miter;stroke-miterlimit:4;stroke-dasharray:none;stroke-dashoffset:0;stroke-opacity:1"
         inkscape:original="M 60.375 3.125 L 60.375 7.15625 C 60.371912 7.5194123 60.130326 7.8372886 59.78125 7.9375 C 59.169905 8.1067881 58.559537 8.3768222 57.96875 8.6875 C 57.661279 8.8483892 57.285825 8.7983287 57.03125 8.5625 L 54.34375 6 L 51.71875 8.75 L 54.21875 11.09375 C 54.494859 11.351352 54.559366 11.764199 54.375 12.09375 C 53.971871 12.770414 53.623576 13.494497 53.40625 14.25 C 53.306039 14.599076 52.988162 14.840662 52.625 14.84375 L 48.75 14.84375 L 48.75 18.65625 L 52.59375 18.65625 C 52.956912 18.659338 53.274789 18.900924 53.375 19.25 C 53.567737 19.931631 53.884546 20.572703 54.25 21.21875 C 54.426168 21.533968 54.375412 21.927325 54.125 22.1875 L 51.34375 25.09375 L 54 27.6875 L 56.75 24.875 C 57.007602 24.598891 57.420449 24.534384 57.75 24.71875 C 58.429534 25.100218 59.139208 25.429005 59.875 25.625 C 60.224076 25.725211 60.465662 26.043088 60.46875 26.40625 L 60.46875 30.3125 L 64.28125 30.3125 L 64.28125 26.34375 C 64.280089 25.989098 64.507041 25.673886 64.84375 25.5625 C 65.481753 25.370962 66.108157 25.06554 66.71875 24.71875 C 67.033968 24.542582 67.427325 24.593338 67.6875 24.84375 L 70.375 27.5 L 73.0625 24.84375 L 70.375 22.15625 C 70.109267 21.890864 70.057769 21.478881 70.25 21.15625 C 70.571694 20.565843 70.8464 19.957479 71.03125 19.3125 C 71.131461 18.963424 71.449338 18.721838 71.8125 18.71875 L 75.625 18.71875 L 75.625 14.90625 L 71.84375 14.90625 C 71.480588 14.903162 71.162711 14.661576 71.0625 14.3125 C 70.851959 13.5584 70.53788 12.848827 70.15625 12.1875 C 69.971884 11.857949 70.036391 11.445102 70.3125 11.1875 L 73.21875 8.53125 L 70.71875 5.78125 L 67.71875 8.5 C 67.479528 8.8411617 67.022497 8.9486984 66.65625 8.75 C 66.056217 8.415393 65.434546 8.1264586 64.78125 7.9375 C 64.432174 7.8372886 64.190588 7.5194123 64.1875 7.15625 L 64.1875 3.125 L 60.375 3.125 z M 62.21875 12.125 C 65.060709 12.125 67.09375 14.292516 67.09375 16.78125 C 67.093749 19.269985 65.06071 21.437499 62.21875 21.4375 C 59.376789 21.437501 57.34375 19.269985 57.34375 16.78125 C 57.343748 14.292517 59.376789 12.125 62.21875 12.125 z "
         inkscape:radius="-0.50905591"
         sodipodi:type="inkscape:offset" />
    </g>
    <path
       style="fill:url(#radialGradient2188);fill-opacity:1;fill-rule:evenodd;stroke:#555753;stroke-width:1;stroke-linecap:butt;stroke-linejoin:miter;stroke-miterlimit:4;stroke-dasharray:none;stroke-dashoffset:0;stroke-opacity:1"
       d="M 26.012804,3.3202973 C 25.696155,3.3943463 25.51578,3.6993999 25.587355,4.0054664 L 26.641513,8.5132705 C 25.965958,8.8822096 25.352184,9.3500745 24.782212,9.8438129 L 21.072128,7.6796819 C 20.800827,7.5209504 20.460022,7.6149968 20.295801,7.895679 L 17.923821,11.895531 C 17.759601,12.176212 17.876156,12.545792 18.147457,12.704523 L 21.575412,14.693469 C 21.299902,15.560801 21.11721,16.466374 21.070371,17.395444 L 16.725894,18.411407 C 16.419827,18.482982 16.226395,18.779928 16.300444,19.096577 L 17.36988,23.669711 C 17.443929,23.98636 17.748984,24.166734 18.05505,24.09516 L 22.366861,23.086835 C 22.781305,23.836023 23.305151,24.49432 23.873898,25.111572 L 21.526944,29.071119 C 21.360115,29.350258 21.440468,29.693832 21.710276,29.855085 L 25.677462,32.234705 C 25.947271,32.395958 26.286961,32.297846 26.453789,32.018708 L 28.790994,28.164794 C 29.646461,28.412459 30.534887,28.58428 31.445026,28.612144 L 32.468629,32.989287 C 32.540203,33.295353 32.837149,33.488785 33.153799,33.414736 L 37.726933,32.3453 C 38.043582,32.271251 38.223956,31.966198 38.152382,31.660131 L 37.113501,27.217657 C 37.814362,26.815087 38.434127,26.311123 39.015216,25.773841 L 42.715552,28.043607 C 42.983322,28.208223 43.361875,28.129666 43.532183,27.852636 L 45.977133,23.870172 C 46.147441,23.593143 46.061572,23.250824 45.793801,23.086206 L 42.085827,20.783776 C 42.292758,20.033653 42.432045,19.247673 42.471264,18.454287 L 46.750411,17.4536 C 47.056477,17.382026 47.249909,17.085081 47.17586,16.768432 L 46.106424,12.195298 C 46.032375,11.878648 45.727321,11.698274 45.421255,11.769848 L 41.174773,12.762896 C 40.73573,11.963009 40.208309,11.234718 39.596878,10.582471 L 42.143243,6.8863555 C 42.327951,6.6187132 42.283938,6.2656484 42.025241,6.0871112 L 38.200574,3.4330029 C 37.941876,3.2544659 37.601318,3.348692 37.416608,3.6163347 L 34.7625,7.4410012 C 34.73053,7.4873242 34.712627,7.5441816 34.695059,7.5945788 C 33.932141,7.376048 33.132907,7.2260136 32.325265,7.1841146 L 31.271107,2.6763105 C 31.199533,2.370244 30.902589,2.1768122 30.585938,2.2508616 L 26.012804,3.3202973 z M 30.831242,13.907041 C 33.384239,13.310018 35.514115,14.780092 36.0173,16.931818 C 36.520483,19.083544 35.263393,21.345666 32.710394,21.94269 C 30.157394,22.539714 28.027521,21.069639 27.524336,18.917913 C 27.02115,16.766191 28.278243,14.504064 30.831242,13.907041 z"
       id="path2212" />
    <path
       sodipodi:type="inkscape:offset"
       inkscape:radius="-0.1160666"
       inkscape:original="M 60.375 3.125 L 60.375 7.15625 C 60.371912 7.5194123 60.130326 7.8372886 59.78125 7.9375 C 59.169905 8.1067881 58.559537 8.3768222 57.96875 8.6875 C 57.661279 8.8483892 57.285825 8.7983287 57.03125 8.5625 L 54.34375 6 L 51.71875 8.75 L 54.21875 11.09375 C 54.494859 11.351352 54.559366 11.764199 54.375 12.09375 C 53.971871 12.770414 53.623576 13.494497 53.40625 14.25 C 53.306039 14.599076 52.988162 14.840662 52.625 14.84375 L 48.75 14.84375 L 48.75 18.65625 L 52.59375 18.65625 C 52.956912 18.659338 53.274789 18.900924 53.375 19.25 C 53.567737 19.931631 53.884546 20.572703 54.25 21.21875 C 54.426168 21.533968 54.375412 21.927325 54.125 22.1875 L 51.34375 25.09375 L 54 27.6875 L 56.75 24.875 C 57.007602 24.598891 57.420449 24.534384 57.75 24.71875 C 58.429534 25.100218 59.139208 25.429005 59.875 25.625 C 60.224076 25.725211 60.465662 26.043088 60.46875 26.40625 L 60.46875 30.3125 L 64.28125 30.3125 L 64.28125 26.34375 C 64.280089 25.989098 64.507041 25.673886 64.84375 25.5625 C 65.481753 25.370962 66.108157 25.06554 66.71875 24.71875 C 67.033968 24.542582 67.427325 24.593338 67.6875 24.84375 L 70.375 27.5 L 73.0625 24.84375 L 70.375 22.15625 C 70.109267 21.890864 70.057769 21.478881 70.25 21.15625 C 70.571694 20.565843 70.8464 19.957479 71.03125 19.3125 C 71.131461 18.963424 71.449338 18.721838 71.8125 18.71875 L 75.625 18.71875 L 75.625 14.90625 L 71.84375 14.90625 C 71.480588 14.903162 71.162711 14.661576 71.0625 14.3125 C 70.851959 13.5584 70.53788 12.848827 70.15625 12.1875 C 69.971884 11.857949 70.036391 11.445102 70.3125 11.1875 L 73.21875 8.53125 L 70.71875 5.78125 L 67.71875 8.5 C 67.479528 8.8411617 67.022497 8.9486984 66.65625 8.75 C 66.056217 8.415393 65.434546 8.1264586 64.78125 7.9375 C 64.432174 7.8372886 64.190588 7.5194123 64.1875 7.15625 L 64.1875 3.125 L 60.375 3.125 z M 62.21875 12.125 C 65.060709 12.125 67.09375 14.292516 67.09375 16.78125 C 67.093749 19.269985 65.06071 21.437499 62.21875 21.4375 C 59.376789 21.437501 57.34375 19.269985 57.34375 16.78125 C 57.343748 14.292517 59.376789 12.125 62.21875 12.125 z "
       style="fill:none;fill-opacity:1;fill-rule:evenodd;stroke:#dddddd;stroke-width:0.93154186;stroke-linecap:butt;stroke-linejoin:miter;stroke-miterlimit:4;stroke-dasharray:none;stroke-dashoffset:0;stroke-opacity:1"
       id="path3195"
       d="M 60.5,3.25 L 60.5,7.15625 C 60.496479,7.5703048 60.210494,7.9482453 59.8125,8.0625 C 59.212599,8.228619 58.617411,8.4730048 58.03125,8.78125 C 57.680626,8.9647198 57.227804,8.9251771 56.9375,8.65625 L 54.34375,6.1875 L 51.90625,8.75 L 54.3125,11 C 54.627244,11.293647 54.678914,11.780586 54.46875,12.15625 C 54.06921,12.82689 53.744915,13.538474 53.53125,14.28125 C 53.416996,14.679245 53.039055,14.965229 52.625,14.96875 L 48.875,14.96875 L 48.875,18.53125 L 52.59375,18.53125 C 53.007805,18.534771 53.385746,18.820755 53.5,19.21875 C 53.68886,19.886671 53.980343,20.513823 54.34375,21.15625 C 54.544611,21.515651 54.504261,21.984607 54.21875,22.28125 L 51.53125,25.09375 L 54,27.5 L 56.65625,24.78125 C 56.949897,24.466506 57.436836,24.414836 57.8125,24.625 C 58.486779,25.003518 59.183718,25.307537 59.90625,25.5 C 60.304245,25.614254 60.590229,25.992195 60.59375,26.40625 L 60.59375,30.1875 L 64.15625,30.1875 L 64.15625,26.34375 C 64.154926,25.939357 64.428567,25.564508 64.8125,25.4375 C 65.437997,25.249716 66.049852,24.969408 66.65625,24.625 C 67.015651,24.424139 67.484607,24.464489 67.78125,24.75 L 70.375,27.3125 L 72.875,24.84375 L 70.28125,22.25 C 69.978325,21.947471 69.937115,21.461536 70.15625,21.09375 C 70.475199,20.508381 70.724465,19.915534 70.90625,19.28125 C 71.020504,18.883255 71.398445,18.597271 71.8125,18.59375 L 75.5,18.59375 L 75.5,15.03125 L 71.84375,15.03125 C 71.429695,15.027729 71.051754,14.741745 70.9375,14.34375 C 70.729928,13.600282 70.439945,12.904075 70.0625,12.25 C 69.852336,11.874336 69.904006,11.387397 70.21875,11.09375 L 73.0625,8.5 L 70.71875,5.9375 L 67.8125,8.5625 L 67.78125,8.59375 C 67.502398,8.9541153 66.997961,9.0630449 66.59375,8.84375 C 65.998677,8.5119092 65.391839,8.2481447 64.75,8.0625 C 64.352006,7.9482453 64.066021,7.5703048 64.0625,7.15625 L 64.0625,3.25 L 60.5,3.25 z M 62.21875,12 C 65.119724,12 67.21875,14.229306 67.21875,16.78125 C 67.218749,19.333195 65.119725,21.562499 62.21875,21.5625 C 59.317774,21.562501 57.21875,19.333195 57.21875,16.78125 C 57.218748,14.229307 59.317774,12 62.21875,12 z"
       transform="matrix(1.0452878,-0.2444425,0.2444425,1.0452878,-37.363201,15.597559)" />
    <path
       sodipodi:type="arc"
       style="opacity:0.25899999;fill:url(#radialGradient4188);fill-opacity:1;fill-rule:evenodd;stroke:none;stroke-width:0.5;stroke-linecap:round;stroke-linejoin:round;stroke-miterlimit:4;stroke-dasharray:none;stroke-dashoffset:0;stroke-opacity:1"
       id="path4186"
       sodipodi:cx="10.5"
       sodipodi:cy="5.9999995"
       sodipodi:rx="9.5"
       sodipodi:ry="5.75"
       d="M 20,5.9999995 A 9.5,5.75 0 1 1 1,5.9999995 A 9.5,5.75 0 1 1 20,5.9999995 z"
       transform="matrix(1.7339797,0,0,0.3736936,13.855713,43.257838)" />
  </g>
</svg>
